<?xml version="1.0" encoding="iso-8859-1"?>
<!-- Generator: Adobe Illustrator 19.1.0, SVG Export Plug-In . SVG Version: 6.00 Build 0)  -->
<svg xmlns="http://www.w3.org/2000/svg" xmlns:xlink="http://www.w3.org/1999/xlink" version="1.1" id="Capa_1" x="0px" y="0px" viewBox="0 0 483.188 483.188" width="512px" height="512px">
<g>
	<g>
		<path d="M465.267,344.166c-9.2-0.7-28.3,9.7-33.6,12.3c-18.7,9.4-44.5,24.1-61.5,35.8c-1.2,0.8-2.8,1.9-4,2.6    c-7.6,4.9-15.7,8.2-24.7,10.1c-49.4,10.5-121.4,11.7-121.4,11.7l-4.2,0.2c-3.2,0.2-6-2-6.4-5.1c-0.5-3.4,2-6.5,5.5-6.8l107.1-10.2    c11.8-1.3,21.2-12.3,19.9-24.7c-1.3-12.4-12.7-21.5-24.5-20.2l-95.2-1.2c-6.5-0.1-16.9-1.7-23.1-3.5c-61.4-17.9-96-1.1-114.4,6.7    c-4.1-6.8-11.9-11.2-20.6-10.6l-41.1,2.7c-13.7,0.9-24,12.3-23,25.5l6.6,91.2c0.9,13.2,12.8,23.1,26.4,22.2l41.1-2.7    c8.7-0.6,15.7-5.9,18.8-13.2l180.4,7.8c20.1,2.1,38.9-0.3,56.6-9.6l5.2-2.7l136.3-79.8c6.7-3.9,11.5-10.7,11.7-18.3    C483.567,355.266,478.267,345.066,465.267,344.166z M48.167,461.266c-7.7,0-14-6-14-13.5s6.3-13.5,14-13.5s14,6,14,13.5    S55.867,461.266,48.167,461.266z"/>
		<path d="M368.167,372.566c13.9-9.7,42.4-25.2,58.5-33.3c4.9-2.4,10-4.9,15.5-6.8c-7-4.7-14.5-4.9-22.3-1.9    c-15.3,6.1-43.5,19.7-57.9,27.5c-0.1,0.2-0.2,0.4-0.2,0.6c1,3,1.8,6.1,2.1,9.3c0.3,2.6,0.2,5.1,0.1,7.6    C365.267,374.566,366.667,373.566,368.167,372.566z"/>
		<path d="M404.967,321.466c-7-4.5-14.4-4.7-22-1.7c-9.5,3.7-30.6,10.6-40,15.6c4,2.5,7.6,5.6,10.7,9.2c0.6-0.4,1.2-0.9,1.9-1.3    l6.9-3.8C372.467,333.966,393.967,326.366,404.967,321.466z"/>
		<path d="M391.267,144.066c26.7-11.4,45.5-38,45.5-68.9c0-41.4-33.6-74.9-74.9-74.9s-74.9,33.6-74.9,74.9c0,0.4,0.1,0.8,0.1,1.2    C331.567,81.066,369.767,107.166,391.267,144.066z"/>
		<path d="M272.767,321.566c60.1,0,108.8-48.7,108.8-108.8s-48.7-108.8-108.8-108.8s-108.8,48.7-108.8,108.8    S212.667,321.566,272.767,321.566z M234.767,255.766c1-3.6,2-7.2,3.1-10.7c1.3-4.1,2.4-4.6,6.2-2.7c6.5,3.4,13.3,5.2,20.5,6.1    c4.6,0.6,9.2,0.1,13.4-1.8c8-3.5,9.3-12.8,2.5-18.3c-2.3-1.9-4.9-3.3-7.6-4.5c-7-3.1-14.3-5.4-21-9.4    c-10.7-6.4-17.6-15.3-16.8-28.3c0.9-14.8,9.3-24,22.8-28.9c5.6-2,5.6-2,5.7-7.8c0-2,0-4,0-5.9c0.1-4.4,0.9-5.2,5.2-5.3    c1.4,0,2.7,0,4.1,0c9.3,0,9.3,0,9.4,9.3c0,6.6,0,6.6,6.6,7.7c5,0.8,9.9,2.3,14.5,4.3c2.6,1.1,3.5,2.9,2.8,5.6    c-1.2,4-2.3,8.1-3.6,12.1c-1.2,3.8-2.4,4.3-6.1,2.6c-7.3-3.5-15-5-23-4.6c-2.1,0.1-4.2,0.4-6.1,1.3c-7,3-8.1,10.7-2.2,15.5    c3,2.4,6.4,4.1,10,5.6c6.2,2.6,12.4,5,18.2,8.2c18.7,10.3,23.7,33.8,10.5,49.7c-4.8,5.8-10.9,9.7-18.1,11.6    c-3.1,0.9-4.6,2.5-4.4,5.8c0.1,3.2,0,6.4,0,9.6c0,2.9-1.5,4.4-4.3,4.5c-3.5,0.1-6.9,0.1-10.4,0c-3-0.1-4.5-1.8-4.5-4.7    c0-2.3,0-4.7-0.1-7c-0.1-5.2-0.2-5.4-5.2-6.2c-6.4-1-12.6-2.5-18.5-5.3C233.867,261.766,233.467,260.566,234.767,255.766z"/>
	</g>
</g>
<g>
</g>
<g>
</g>
<g>
</g>
<g>
</g>
<g>
</g>
<g>
</g>
<g>
</g>
<g>
</g>
<g>
</g>
<g>
</g>
<g>
</g>
<g>
</g>
<g>
</g>
<g>
</g>
<g>
</g>
</svg>
