<?xml version="1.0" encoding="utf-8"?>
<!-- Generator: Adobe Illustrator 18.1.1, SVG Export Plug-In . SVG Version: 6.00 Build 0)  -->
<svg version="1.1" id="Capa_1" xmlns="http://www.w3.org/2000/svg" xmlns:xlink="http://www.w3.org/1999/xlink" x="0px" y="0px"
	 viewBox="-49 141 512 512" enable-background="new -49 141 512 512" xml:space="preserve">
<g>
	<path fill="#2F383E" d="M188.5,293.1H237v54.5h32V164c0-12.7-10.3-23-22.9-23H19.5c-12.7,0-23,10.3-23,23V630c0,12.7,10.3,23,23,23
		H101V503.8h63.1V378.9c0-13.6,10-24.8,24.3-29.2L188.5,293.1L188.5,293.1L188.5,293.1z M188.5,186.9H237v68.9h-48.5V186.9z
		 M77.9,574.2H29.4v-68.9h48.5L77.9,574.2L77.9,574.2z M77.9,473.3H29.4v-68.9h48.5L77.9,473.3L77.9,473.3z M77.9,362H29.4v-68.9
		h48.5L77.9,362L77.9,362z M77.9,255.8H29.4v-68.9h48.5L77.9,255.8L77.9,255.8z M158.8,473.3h-48.5v-68.9h48.5V473.3z M158.8,362
		h-48.5v-68.9h48.5V362z M158.8,255.8h-48.5v-68.9h48.5V255.8z M398,366H206.1c-10.7,0-19.4,5.8-19.4,12.9v261.3
		c0,7.1,8.7,12.9,19.4,12.9h69v-83.6h55.4V653H398c10.7,0,19.4-5.8,19.4-12.9V378.9C417.4,371.8,408.7,366,398,366z M255.6,608.8
		h-41.1v-38.6h41.1V608.8z M255.6,552.3h-41.1v-38.6h41.1V552.3z M255.6,489.9h-41.1v-38.6h41.1V489.9z M255.6,430.4h-41.1v-38.6
		h41.1V430.4z M324.1,552.3H283v-38.6h41.1V552.3z M324.1,489.9H283v-38.6h41.1V489.9z M324.1,430.4H283v-38.6h41.1V430.4z
		 M390.3,609.7h-41.1v-38.6h41.1V609.7z M390.3,552.3h-41.1v-38.6h41.1V552.3z M390.3,489.9h-41.1v-38.6h41.1V489.9z M390.3,430.4
		h-41.1v-38.6h41.1V430.4z"/>
</g>
</svg>
