<?xml version="1.0" encoding="utf-8"?>
<!-- Generator: Adobe Illustrator 18.1.1, SVG Export Plug-In . SVG Version: 6.00 Build 0)  -->
<svg version="1.1" id="Слой_1" xmlns="http://www.w3.org/2000/svg" xmlns:xlink="http://www.w3.org/1999/xlink" x="0px" y="0px"
	 viewBox="-49 141 512 512" enable-background="new -49 141 512 512" xml:space="preserve">
<path fill="#2F383E" d="M79,205c0-35.2-28.8-64-64-64s-64,28.8-64,64c0,22.4,12.8,44.8,32,54.4V653h64V259.4
	C66.2,249.8,79,227.4,79,205z"/>
<path fill="#2F383E" d="M79,269c0,0,32-96,115.2-96c86.4,0,73.6,32,140.8,32c76.8,0,128-32,128-32v256c0,0-22.4,64-128,64
	c-70.4,0-73.6-32-160-32c-73.6,0-96,64-96,64V269z"/>
</svg>
