<?xml version="1.0" encoding="utf-8"?>
<!-- Generator: Adobe Illustrator 18.1.1, SVG Export Plug-In . SVG Version: 6.00 Build 0)  -->
<svg version="1.1" id="Capa_1" xmlns="http://www.w3.org/2000/svg" xmlns:xlink="http://www.w3.org/1999/xlink" x="0px" y="0px"
	 viewBox="-49 141 512 512" enable-background="new -49 141 512 512" xml:space="preserve">
<g>
	<g>
		<path fill="#2F383E" d="M336.8,142.7H-18.6c-16.8,0-30.4,13.6-30.4,30.4c0,16.8,13.6,30.4,30.4,30.4l64.4,0.1c9.4,0,17,7.6,17,17
			s-7.6,17-17,17H-8.1v129h-10.5c-16.8,0-30.4,13.6-30.4,30.4c0,16.8,13.6,30.4,30.4,30.4l64.4,0.1c9.4,0,17,7.6,17,17
			s-7.6,17-17,17H-8.1v129h-10.5c-16.8,0-30.4,13.6-30.4,30.4c0,16.8,13.6,30.4,30.4,30.4H249c-33.2-27.1-54.4-68.4-54.4-114.5
			c0-34,21.2-79.1,64.7-137.9c30-40.5,59.7-72.4,60.9-73.8l6.1-6.6v-115h10.5c16.8,0,30.4-13.6,30.4-30.4
			C367.2,156.3,353.6,142.7,336.8,142.7z"/>
		<path fill="#2F383E" d="M408.2,423.6c-26.6-35.9-53.6-64.9-53.9-65.2c-1.4-1.5-3.3-2.3-5.3-2.3c-2,0-3.9,0.8-5.3,2.3
			c-0.3,0.3-27.3,29.3-53.9,65.2c-36.3,49-54.8,87.1-54.8,113.1c0,62.8,51.1,113.9,113.9,113.9S463,599.6,463,536.7
			C463,510.7,444.6,472.7,408.2,423.6z M360.4,613.8c-6,1.4-12.1,2.1-18.3,2.1c-43.8,0-79.5-35.7-79.5-79.5c0-6,1.9-17,10.7-34.8
			c0.9-1.8,2.9-2.7,4.9-2.1c1.9,0.6,3.1,2.4,2.9,4.4c-0.2,1.7-0.3,3.3-0.3,4.8c0,47,33.4,87.8,79.5,97.1c1.9,0.4,3.3,2,3.3,4
			C363.6,611.7,362.3,613.4,360.4,613.8z"/>
	</g>
</g>
</svg>
