<?xml version="1.0" encoding="utf-8"?>
<!-- Generator: Adobe Illustrator 18.1.1, SVG Export Plug-In . SVG Version: 6.00 Build 0)  -->
<svg version="1.1" id="Capa_1" xmlns="http://www.w3.org/2000/svg" xmlns:xlink="http://www.w3.org/1999/xlink" x="0px" y="0px"
	 viewBox="-49 141 512 512" enable-background="new -49 141 512 512" xml:space="preserve">
<g>
	<path fill="#2F383E" d="M453.8,322.5c-0.9-3.5-3.2-6.5-6.5-8.3c-3.2-1.7-7-2-10.4-0.8c-30.2,10.6-76.7,17.4-129.1,17.4
		c-12.7,0-25-0.5-36.9-1.3c-6.1,27.8-16,53.3-28.5,75.8c0.6,0,1.2-0.1,1.8-0.1c16.3,0,29.5-1.4,29.5,9.6s-13.2,30.1-29.5,30.1
		c-9.5,0-17.8-3.1-23.2-7.7c-16.3,20.2-35.2,36.1-56.2,46.6c23.6,79.4,78.7,135.1,143,135.1c85.7,0,155.2-99.1,155.2-221.3
		C463,371.2,459.7,345.9,453.8,322.5z M369.7,554.2c-0.3,1.2-1.1,2.1-2.3,2.5c-1.1,0.4-2.4,0.1-3.3-0.6
		c-12.1-10.2-32.7-16.9-56.2-16.9c-23.6,0-44.2,6.7-56.2,16.9c-0.9,0.8-2.2,1-3.3,0.6c-1.1-0.4-2-1.3-2.3-2.5
		c-1-4.3-1.6-8.6-1.6-13.2c0-35.1,28.4-63.5,63.5-63.5s63.5,28.4,63.5,63.5C371.3,545.6,370.7,550,369.7,554.2z M371.4,444.9
		c-16.3,0-29.5-19.1-29.5-30.1c0-11,13.2-9.6,29.5-9.6c16.3,0,29.5,8.9,29.5,19.8C400.8,436.1,387.7,444.9,371.4,444.9z"/>
	<path fill="#2F383E" d="M261.4,259.9c0-26.4-3.3-51.6-9.2-75c-0.9-3.5-3.2-6.5-6.5-8.3c-1.9-1-4-1.5-6.1-1.5
		c-1.5,0-2.9,0.2-4.3,0.7c-30.2,10.6-76.7,17.4-129.1,17.4c-52.3,0-98.9-6.8-129.1-17.4c-1.4-0.5-2.8-0.7-4.3-0.7
		c-2.1,0-4.2,0.5-6.2,1.5c-3.2,1.7-5.6,4.7-6.5,8.3c-5.9,23.4-9.2,48.7-9.2,75c0,122.2,69.5,221.3,155.2,221.3
		C191.9,481.3,261.4,382.2,261.4,259.9z M13.1,287.4c0-11,13.2-19.8,29.5-19.8c16.3,0,29.5,19.1,29.5,30.1c0,11-13.2,9.6-29.5,9.6
		C26.3,307.3,13.1,298.4,13.1,287.4z M106.2,439.4c-35.1,0-63.5-28.4-63.5-63.5c0-4.6,0.6-9,1.6-13.2c0.3-1.2,1.1-2.1,2.3-2.5
		c1.1-0.4,2.4-0.1,3.3,0.6c12.1,10.2,32.7,16.9,56.2,16.9s44.2-6.7,56.2-16.9c0.9-0.8,2.2-1,3.3-0.6c1.1,0.4,2,1.3,2.3,2.5
		c1,4.3,1.6,8.7,1.6,13.2C169.7,411,141.3,439.4,106.2,439.4z M140.3,297.7c0-11,13.2-30.1,29.5-30.1c16.3,0,29.5,8.9,29.5,19.8
		c0,11-13.2,19.8-29.5,19.8C153.5,307.3,140.3,308.6,140.3,297.7z"/>
</g>
</svg>
