<?xml version="1.0" encoding="utf-8"?>
<!-- Generator: Adobe Illustrator 18.1.1, SVG Export Plug-In . SVG Version: 6.00 Build 0)  -->
<svg version="1.1" id="Capa_1" xmlns="http://www.w3.org/2000/svg" xmlns:xlink="http://www.w3.org/1999/xlink" x="0px" y="0px"
	 viewBox="-49 141 512 512" enable-background="new -49 141 512 512" xml:space="preserve">
<g>
	<g>
		<path fill="#2F383E" d="M457,263.7c-3.8-1.5-9.9-4.8-17.2-6.7c-7.3-2-17.1-5.5-27.1-6.3c-10.1-1.1-21.5-1.4-34-0.8
			c-12.2,1-24.5,3.6-37.8,7c-13.2,3.4-25.4,9.1-38.3,15.3c-12.6,6.4-24.1,14.5-35.7,23.2c-10.9,9-21.2,19-30.7,29.7
			c-8.8,10.9-17.6,22.2-24.3,34.2c-7,11.9-13,24.2-17.3,36.7c-9.3,24.8-13,50.4-13.4,73.2c0,11.5,0.7,22.3,2.1,32.1
			c1.2,9.8,3.7,18.8,5.6,26.1c0.8,3.4,1.8,6.7,2.9,9.6c1.9-3.9,3.9-8,6.1-12.5c11.2-22.2,27.5-51.2,46.7-78.3
			c9.5-13.6,20-26.5,30.1-38.2c5.4-5.6,10.6-11,15.5-16.1c5.3-4.8,10.3-9.3,14.9-13.4c5-3.7,9.5-7.1,13.5-10.1
			c3.9-3.2,7.9-5.1,10.9-7c6.2-3.7,9.7-5.7,9.7-5.7s-3.4,2.4-9.2,6.5c-2.8,2.2-6.7,4.3-10.3,7.8c-3.7,3.3-7.9,7-12.5,11
			c-4.2,4.5-8.8,9.2-13.6,14.3c-4.4,5.4-9.1,11.1-13.9,17c-9.1,12.3-18.3,25.6-26.5,39.7c-16.6,27.9-30.3,57.4-39.5,79.9
			c-2.6,6.3-4.8,12-6.6,17c3.9-1.1,8.9-2.2,14.3-4.2c6.8-2.4,15.7-4.8,24.3-8.3c8.8-3.4,18.1-7.3,27.6-11.8
			c9.6-4.4,18.9-9.7,28.5-15.2c9.6-5.5,18.6-11.7,27.6-18.2c8.7-6.7,17.4-13.4,25.3-20.9c7.8-7.7,15.6-14.9,22.4-23.2
			c14-16,25.9-33.1,35.5-51.2c5-8.5,9.2-18.4,13.3-27.4c4.2-8.9,7.7-18.7,11.2-27.8c3.5-8.9,6.8-17.9,9.7-26.6
			c3.1-9,5.9-16.9,8.2-23.3c2.6-6.4,4.3-13.1,5.8-17.1c1.4-4.5,2.1-6.8,2.1-6.8S460.9,265.5,457,263.7z"/>
		<path fill="#2F383E" d="M147.6,463.6c-13.6-9.5-26.5-20-38.1-30.2c-5.6-5.4-11-10.6-16.1-15.5c-4.8-5.3-9.2-10.3-13.4-14.9
			c-3.7-4.9-7.1-9.5-10.1-13.5c-3.2-3.9-5-7.9-7-10.9c-3.7-6.2-5.7-9.7-5.7-9.7s2.4,3.4,6.5,9.2c2.1,2.8,4.3,6.7,7.8,10.3
			c3.3,3.7,7,7.9,11,12.5c4.4,4.2,9.2,8.8,14.3,13.5c5.4,4.4,11.1,9.1,17,13.9c12.2,9.1,25.6,18.3,39.6,26.5
			c5.8,3.5,11.7,6.5,17.5,9.6c1.9-31.3,8.4-62.3,18-90.5c-5.5-7.1-11.1-14.1-17.3-20.6c-7.7-7.8-14.9-15.6-23.2-22.4
			c-16-14-33.1-25.8-51.1-35.6c-8.5-5-18.4-9.2-27.4-13.3C60.9,278,51.1,274.5,42,271c-8.9-3.5-17.9-6.8-26.6-9.7
			c-9-3.2-16.8-5.9-23.3-8.2c-6.4-2.6-13.2-4.3-17.1-5.8c-4.4-1.3-6.8-2.1-6.8-2.1s-1.3,2.1-3.1,6.1c-1.5,3.8-4.8,9.9-6.7,17.2
			c-2,7.2-5.5,17-6.3,27c-1.1,10.1-1.4,21.5-0.8,34c1,12.2,3.5,24.5,7,37.8c3.4,13.2,9.1,25.4,15.3,38.3
			c6.4,12.6,14.5,24.1,23.2,35.7c9,10.9,19,21.2,29.7,30.7c10.9,8.8,22.2,17.6,34.2,24.3c11.9,7,24.2,13,36.7,17.3
			c24.8,9.3,50.4,13,73.2,13.4c1,0,1.8-0.1,2.7-0.1c-2.4-16-3.3-32.2-3-48.6C162.7,473.6,155.1,468.9,147.6,463.6z"/>
	</g>
</g>
</svg>
