<?xml version="1.0" encoding="utf-8"?>
<!-- Generator: Adobe Illustrator 18.1.1, SVG Export Plug-In . SVG Version: 6.00 Build 0)  -->
<svg version="1.1" id="Capa_1" xmlns="http://www.w3.org/2000/svg" xmlns:xlink="http://www.w3.org/1999/xlink" x="0px" y="0px"
	 viewBox="-49 141 512 512" enable-background="new -49 141 512 512" xml:space="preserve">
<g>
	<g>
		<path fill="#2F383E" d="M350.9,240.7c-31.3-51.7-83.6-89-146.6-97.8c-114-15.8-209.2,69.4-236.2,186
			C-66,476.4-27.5,528.1,44,530.2c13.1-11.9,29.4-21.2,47.3-26.8L350.9,240.7z M140.5,231c3.9-27.9,29.7-47.4,57.6-43.5
			c27.9,3.9,47.4,29.7,43.5,57.6s-29.7,47.4-57.6,43.5C156.1,284.7,136.6,258.9,140.5,231z M35.1,286.3c2.9-20.7,22-35.1,42.7-32.2
			c20.7,2.8,35.1,21.9,32.3,42.6c-2.9,20.7-22,35.1-42.7,32.2C46.7,326.1,32.3,307,35.1,286.3z M45.8,456
			c-20.7-2.9-35.1-21.9-32.3-42.7c2.9-20.6,22-35.1,42.7-32.2c20.7,2.8,35.1,21.9,32.2,42.6C85.6,444.5,66.5,458.9,45.8,456z"/>
		<path fill="#2F383E" d="M261.5,483.4l5.2-6.6l191.8-250c-0.4-4.1-2.6-9.8-9.8-16.4c-14.2-12.8-23.6-6.5-23.6-6.5L202.2,419.4
			l-5.7,5.5L261.5,483.4z"/>
		<path fill="#2F383E" d="M184.4,568.9l5.5-6.2l60-66.8l-65.4-58.2l-59.6,66.4l-5.5,6.2L184.4,568.9z M148.7,500.6l29.8-33.8
			c2.8-3.1,7.5-3.5,10.7-0.7l3.8,3.4c1.5,1.3,2.4,3.1,2.5,5.1c0.1,2-0.5,4-1.9,5.5L163.8,514c-2.8,3.1-7.5,3.5-10.7,0.6l-3.8-3.4
			c-1.5-1.3-2.4-3.1-2.6-5.1C146.7,504.1,147.4,502.1,148.7,500.6z"/>
		<path fill="#2F383E" d="M166.9,586.6L166.9,586.6c0,0,3.4-5.4,3.9-6.4L109.9,525c-1.4,0.3-2.7,0.6-4.1,0.9c-0.1,0-0.2,0.1-0.4,0.1
			c-49.2,11.6-97.6,64.5-48.9,123.7c2.2,2.7,5.9,3.9,9.3,3c3.4-0.9,6-3.7,6.7-7.1c1.4-7.8,4.2-16.4,10.8-22.5
			C98.3,608.9,140.2,631.8,166.9,586.6z M107.4,601.4c-12.3,0.5-24.9,1-34.6,10.1c-1.8,1.8-3.6,3.7-5,5.6c-1.7,2.2-4.5,3.3-7.3,2.9
			s-5.1-2.5-5.9-5.1c-2.7-8.4-3.4-17.5-0.8-26.9c1.5-5.5,4-10.6,7.3-15.2c12.4,13.5,23.2,21.2,43.3,19.4c12.5-1.1,24-0.6,34.7,2.2
			C129.3,600.6,118.5,601,107.4,601.4z"/>
	</g>
</g>
</svg>
