<?xml version="1.0" encoding="utf-8"?>
<!-- Generator: Adobe Illustrator 18.1.1, SVG Export Plug-In . SVG Version: 6.00 Build 0)  -->
<svg version="1.1" id="Capa_1" xmlns="http://www.w3.org/2000/svg" xmlns:xlink="http://www.w3.org/1999/xlink" x="0px" y="0px"
	 viewBox="-49 141 512 512" enable-background="new -49 141 512 512" xml:space="preserve">
<g>
	<path fill="#2F383E" d="M95.1,502.2c0.3-10,1.3-19.8,3.2-29.3h34.1v29.3H95.1z M101.2,460.8h31.2v-41.7c-4.8,0.3-9.5,1-14,2
		C110.9,433.4,105.1,446.7,101.2,460.8z M49.2,502.2H83c0.2-9.9,1.3-19.7,3-29.3H56.3C52.3,482,49.9,491.9,49.2,502.2z M132.4,514.4
		H95.2c0.4,10,1.6,19.8,3.7,29.3h33.5L132.4,514.4L132.4,514.4z M83.1,514.4H49.2c0.7,10.3,3.1,20.2,7,29.3h30.3
		C84.6,534.1,83.4,524.3,83.1,514.4z M187.5,460.8h26.7c-9.7-15.3-23.7-27.6-40.5-34.8C179.5,437,184.2,448.6,187.5,460.8z
		 M181.8,502.2c-0.4-10-1.6-19.8-3.7-29.3h-33.5v29.3H181.8z M144.6,419.1v41.7H175c-4.3-14.3-10.5-27.7-18.5-40.2
		C152.6,419.8,148.6,419.3,144.6,419.1z M175.7,555.8h-31.2v41.7c4.8-0.3,9.5-1,14-2C166,583.1,171.8,569.9,175.7,555.8z
		 M188.3,555.8c-3.1,11.8-7.3,23.1-12.6,33.8c15.9-7.3,29.3-19.1,38.6-33.8H188.3z M88.7,460.8c3.1-11.8,7.3-23.1,12.6-33.8
		C85.4,434.2,72,446,62.7,460.8H88.7z M132.4,597.5v-41.7H102c4.3,14.3,10.5,27.7,18.5,40.2C124.4,596.8,128.3,597.3,132.4,597.5z
		 M434.7,405.1v199.3c0,26.8-21.8,48.6-48.6,48.6H27.9c-26.8,0-48.6-21.7-48.6-48.6V405.1c0-26.8,21.8-48.6,48.6-48.6h11.6v-12.1
		c0-33.5,27.2-60.7,60.7-60.7h178.6l-74.6-117.9c-0.2,0-0.4,0.1-0.6,0.1c-6.9,0-12.4-5.6-12.4-12.4c0-6.9,5.6-12.4,12.4-12.4
		c6.9,0,12.4,5.6,12.4,12.4c0,2.1-0.7,4-1.6,5.8l78.7,124.4h20.6c33.5,0,60.7,27.2,60.7,60.7v12.1h11.6
		C412.9,356.5,434.7,378.3,434.7,405.1z M334.7,449.5c-15.3,0-27.6,12.4-27.6,27.6c0,15.2,12.4,27.6,27.6,27.6
		c15.3,0,27.6-12.4,27.6-27.6C362.3,461.9,349.9,449.5,334.7,449.5z M308.6,308l30.7,48.6h10.9v-12.1c0-20.1-16.3-36.4-36.4-36.4
		H308.6L308.6,308z M63.8,356.5h261.1L294.2,308h-194c-20.1,0-36.4,16.4-36.4,36.4L63.8,356.5L63.8,356.5z M240.2,508.3
		c0-56.1-45.6-101.7-101.7-101.7c-56.1,0-101.7,45.6-101.7,101.7S82.4,610,138.5,610C194.6,610,240.2,564.4,240.2,508.3z
		 M374.6,571.8c0-22.1-17.9-39.9-39.9-39.9c-22.1,0-39.9,17.9-39.9,39.9c0,22,17.9,39.9,39.9,39.9
		C356.7,611.7,374.6,593.8,374.6,571.8z M89.4,555.8H62.7c9.6,15.3,23.7,27.6,40.5,34.8C97.4,579.6,92.8,568,89.4,555.8z
		 M144.6,514.4v29.3h34.1c1.9-9.5,3-19.4,3.2-29.3H144.6z M190.4,472.9c1.9,9.6,3.1,19.4,3.5,29.3h33.8c-0.7-10.3-3.1-20.2-7-29.3
		H190.4z M227.7,514.4H194c-0.2,9.9-1.3,19.7-3.1,29.3h29.7C224.6,534.6,227,524.7,227.7,514.4z"/>
</g>
</svg>
