<?xml version="1.0" encoding="utf-8"?>
<!-- Generator: Adobe Illustrator 18.1.1, SVG Export Plug-In . SVG Version: 6.00 Build 0)  -->
<svg version="1.1" id="Capa_1" xmlns="http://www.w3.org/2000/svg" xmlns:xlink="http://www.w3.org/1999/xlink" x="0px" y="0px"
	 viewBox="-49 141 512 512" enable-background="new -49 141 512 512" xml:space="preserve">
<g>
	<path fill="#2F383E" d="M20.6,612.4c0,0-0.5,11.4,10.7,11.4c13.9,0,129.1-0.2,129.1-0.2l0.2-105.8c0,0-1.8-17.4,15.1-17.4h53.5
		c20,0,18.8,17.4,18.8,17.4l-0.2,105.4c0,0,109.2,0,126.3,0c14.2,0,13.5-14.2,13.5-14.2v-195l-178-158.4l-189,158.4
		C20.6,414.1,20.6,612.4,20.6,612.4z"/>
	<path fill="#2F383E" d="M-49,399.4c0,0,16,29.6,51,0l209.2-176.9l196.1,175.8c40.5,29.2,55.7,0,55.7,0L211.2,170.2L-49,399.4z"/>
	<polygon fill="#2F383E" points="402.6,222 352.1,222 352.3,283.2 402.6,325.8 	"/>
</g>
</svg>
