<?xml version="1.0" encoding="iso-8859-1"?>
<svg xmlns="http://www.w3.org/2000/svg" xmlns:xlink="http://www.w3.org/1999/xlink" version="1.1" viewBox="0 0 264 264" enable-background="new 0 0 264 264" width="512px" height="512px">
  <g>
    <path d="m252.333,182.916h-21.333v-53.42c0-39.088-23-72.7-57-87.578v-12.172c0-6.627-5.04-11.83-11.667-11.83h-59c-6.627,3.55271e-15-12.333,5.203-12.333,11.83v11.734c-34,14.649-58,48.541-58,88.016v53.42h-20.667c-6.6,0-12.333,5.23-12.333,11.83v9c0,6.6 5.415,13.272 11.829,14.827l108.759,26.346c6.414,1.555 16.952,1.555 23.366,0l108.53-26.346c6.414-1.555 11.516-8.228 11.516-14.827v-9c0-6.6-5.067-11.83-11.667-11.83zm-117.523-98.811c13.772,13.772 27.208,15.755 27.344,15.772l2.846,.411v3.058c0,45.934-29.999,61.554-31.285,62.196l-1.466,.782-1.674-.782c-1.284-0.642-31.575-16.262-31.575-62.196v-3.058l3.18-.411c0.125-0.018 13.947-2.116 27.604-15.772l2.511-2.476 2.515,2.476z" fill="#0c2231"/>
  </g>
</svg>
