<?xml version="1.0" encoding="iso-8859-1"?>
<!-- Generator: Adobe Illustrator 16.0.0, SVG Export Plug-In . SVG Version: 6.00 Build 0)  -->
<!DOCTYPE svg PUBLIC "-//W3C//DTD SVG 1.1//EN" "http://www.w3.org/Graphics/SVG/1.1/DTD/svg11.dtd">
<svg xmlns="http://www.w3.org/2000/svg" xmlns:xlink="http://www.w3.org/1999/xlink" version="1.1" id="Capa_1" x="0px" y="0px" width="512px" height="512px" viewBox="0 0 868.551 868.551" style="enable-background:new 0 0 868.551 868.551;" xml:space="preserve">
<g>
	<path d="M25.1,868.501h818.4c22.3,0,33.399-26.9,17.7-42.7L42.7,7.4C27-8.299,0,2.8,0,25.101v218.7h65.3c16.6,0,30,13.4,30,30   c0,16.6-13.4,30-30,30H0.1V399h65.2c16.6,0,30,13.4,30,30c0,16.6-13.4,30-30,30H0.1v95.3h65.2c16.6,0,30,13.4,30,30   c0,16.601-13.4,30-30,30H0.1v95.3h65.2c16.6,0,30,13.4,30,30c0,16.601-13.4,30-30,30H0.1v73.9   C0.1,857.301,11.3,868.501,25.1,868.501z M180.1,399.3l289.2,289.201H180.1V399.3z" fill="#0c2231"/>
</g>
<g>
</g>
<g>
</g>
<g>
</g>
<g>
</g>
<g>
</g>
<g>
</g>
<g>
</g>
<g>
</g>
<g>
</g>
<g>
</g>
<g>
</g>
<g>
</g>
<g>
</g>
<g>
</g>
<g>
</g>
</svg>
