<?xml version="1.0" encoding="utf-8"?>
<!-- Generator: Adobe Illustrator 18.1.1, SVG Export Plug-In . SVG Version: 6.00 Build 0)  -->
<svg version="1.1" id="Capa_1" xmlns="http://www.w3.org/2000/svg" xmlns:xlink="http://www.w3.org/1999/xlink" x="0px" y="0px"
	 viewBox="-49 141 512 512" enable-background="new -49 141 512 512" xml:space="preserve">
<g>
	<g>
		<g>
			<path fill="#2F383E" d="M16,588.1c-17.9-5.2-34.3-14.8-47.8-28.4c-3-3-5.8-6.1-8.4-9.4c-14.8,26.3-11,60.1,11.4,82.5
				c22.3,22.3,56.2,26.1,82.4,11.4c-3.2-2.6-6.4-5.4-9.4-8.4C30.5,622.1,21.1,605.6,16,588.1z"/>
			<path fill="#2F383E" d="M218.3,357.1l-26.7,26.7c0.5,9.3,0.6,18.8,0.1,28.2c4.2-0.2,8.4-0.3,12.6-0.3c5.3,0,10.6,0.2,15.9,0.5
				l26.6-26.6l37.9,37.9c17.6,5,34,11.3,48.6,18.1c83.7-87.1,166.5-229.1,112.3-283.3c-54.1-54.1-195.8,28.4-283,112
				c6.9,14.8,13.2,31.4,18.2,49.3L218.3,357.1z M317.6,399.4l-42.2-42.2l28.5-28.5l39.7,39.7C335.5,378.7,326.8,389.1,317.6,399.4z
				 M367.5,335.2l-35.1-35.1l28.5-28.5l28.2,28.3C382.8,311.3,375.6,323.2,367.5,335.2z M422.4,210.2c-1.1,13.4-6,31.1-14.4,51.4
				l-18.5-18.5L422.4,210.2z M393.8,181.6l-32.9,32.9l-18.5-18.5C362.7,187.6,380.4,182.7,393.8,181.6z M304.1,214.8l28.2,28.3
				l-28.5,28.5l-35.1-35.1C280.8,228.4,292.7,221.2,304.1,214.8z M235.6,260.4l39.7,39.7l-28.5,28.5l-42.2-42.2
				C214.9,277.2,225.3,268.5,235.6,260.4z"/>
			<path fill="#2F383E" d="M204.3,435.1c-5,0-9.9,0.2-14.9,0.5c-6.4,43.3-25,86.6-62.5,124.2c-21.2,21.2-49.4,32.9-79.3,32.9
				c-1.8,0-3.5,0-5.2-0.1c4.3,9.7,10.5,18.9,18.4,26.9c17.3,17.3,39.6,25.7,62.1,25.7c22.8,0,45.7-8.7,63.6-25.7
				c119-113.2,220.5-91,185.7-125.7C350.9,472.4,281.1,435.1,204.3,435.1z"/>
			<path fill="#2F383E" d="M47.5,569.3c22.8,0,45.5-8.7,62.9-26c112.2-112.2,34.7-276.8,0-311.5c-4.7-4.7-8.4-6.9-11.5-6.9
				c-19.8,0-16.5,89.8-114.3,192.6c-33.8,35.6-34.7,91,0,125.7C2,560.6,24.8,569.3,47.5,569.3z"/>
		</g>
	</g>
</g>
</svg>
