<?xml version="1.0" encoding="utf-8"?>
<!-- Generator: Adobe Illustrator 18.1.1, SVG Export Plug-In . SVG Version: 6.00 Build 0)  -->
<svg version="1.1" id="Capa_1" xmlns="http://www.w3.org/2000/svg" xmlns:xlink="http://www.w3.org/1999/xlink" x="0px" y="0px"
	 viewBox="-49 141 512 512" enable-background="new -49 141 512 512" xml:space="preserve">
<g>
	<path fill="#2F383E" d="M-31,456.8V239c0-12.1,9.8-21.9,21.9-21.9h217.7c12.1,0,21.9,9.8,21.9,21.9v217.8c0,4-3.3,7.3-7.3,7.3
		H-23.7C-27.8,464.1-31,460.9-31,456.8z M144.8,531.5c0,25.1-20.4,45.5-45.5,45.5s-45.5-20.4-45.5-45.5c0-25.1,20.4-45.5,45.5-45.5
		S144.8,506.4,144.8,531.5z M122.1,531.5c0-12.6-10.2-22.7-22.7-22.7s-22.7,10.2-22.7,22.7s10.2,22.7,22.7,22.7
		S122.1,544,122.1,531.5z M60.2,486H-41.7c-4,0-7.3,3.3-7.3,7.3v22.2c0,4,3.3,7.3,7.3,7.3H40C42.1,508.2,49.5,495.2,60.2,486z
		 M382.6,531.5c0,25.1-20.4,45.5-45.5,45.5c-25.1,0-45.5-20.4-45.5-45.5c0-25.1,20.4-45.5,45.5-45.5
		C362.3,486,382.6,506.4,382.6,531.5z M359.9,531.5c0-12.6-10.2-22.7-22.7-22.7c-12.6,0-22.7,10.2-22.7,22.7s10.2,22.7,22.7,22.7
		C349.7,554.2,359.9,544,359.9,531.5z M463,493.3v22.2c0,4-3.3,7.3-7.3,7.3h-59.2c-4.2-29-29.2-51.4-59.4-51.4
		c-30.2,0-55.1,22.4-59.4,51.4H158.7c-2.1-14.6-9.5-27.5-20.2-36.8h112.9V277c0-8.1,6.5-14.6,14.6-14.6h69
		c19.4,0,37.6,9.6,48.4,25.7l44.5,65.9c6.5,9.7,10,21,10,32.7V486h17.8C459.7,486,463,489.3,463,493.3z M388.9,355.7l-35.6-50.5
		c-1.4-1.9-3.6-3.1-6-3.1h-55.5c-4,0-7.3,3.3-7.3,7.3v50.5c0,4,3.3,7.3,7.3,7.3h91C388.8,367.2,392.3,360.5,388.9,355.7z"/>
</g>
</svg>
