<?xml version="1.0" encoding="utf-8"?>
<!-- Generator: Adobe Illustrator 18.1.1, SVG Export Plug-In . SVG Version: 6.00 Build 0)  -->
<svg version="1.1" id="Capa_1" xmlns="http://www.w3.org/2000/svg" xmlns:xlink="http://www.w3.org/1999/xlink" x="0px" y="0px"
	 viewBox="-49 141 512 512" enable-background="new -49 141 512 512" xml:space="preserve">
<g>
	<g>
		<path fill="#2F383E" d="M169.6,432.5v-11.4v-41.7h53.2v20.4c11-9.5,23.2-17.3,36.4-23.3V160c0-10.5-8.5-19-19-19H-26.6
			c-10.5,0-19,8.5-19,19v387.7c0,10.5,8.5,19,19,19H178c-5.7-16.2-8.6-33.2-8.6-50.7c0-2.6,0.1-5.2,0.2-7.8L169.6,432.5L169.6,432.5
			z M222.8,346.2h-53.2V293h53.2L222.8,346.2L222.8,346.2z M44,518.9H-9.2v-53.2H44V518.9z M44,432.5H-9.2v-53.2H44V432.5z
			 M44,346.2H-9.2V293H44V346.2z M133.4,518.9H80.2v-53.2h53.2V518.9L133.4,518.9z M133.4,432.5H80.2v-53.2h53.2V432.5L133.4,432.5z
			 M133.4,346.2H80.2V293h53.2V346.2L133.4,346.2z M-9.2,249.1v-68.7h232v68.7H-9.2z"/>
		<path fill="#2F383E" d="M195.3,566.7c20.1,50.6,69.5,86.3,127.3,86.3c75.7,0,137-61.3,137-137c0-75.7-61.3-137-137-137
			c-22.9,0-44.5,5.6-63.4,15.5c-13.6,7.1-26,16.5-36.4,27.7c-23,24.5-37.1,57.5-37.1,93.8c0,1,0,1.9,0.1,2.9
			C186,535.7,189.4,551.8,195.3,566.7z M348.2,535.2c-5.5-6.8-15-9.6-23.5-11.6c-10.6-2.4-20.1-4.8-29.6-10.1
			c-6.1-3.4-10.9-8.2-14.2-14.3c-3.3-6-5-12.9-5-20.6c0-13.6,4.9-24.7,14.5-33.1c5.7-5,13.5-8.4,22.3-10.1V428c0-5,4.1-9,9-9h4.9
			c5,0,9,4.1,9,9v7.5c8.2,1.6,15.4,4.8,20.9,9.3c5.8,4.8,10,10.9,12.6,18.1c1.9,5.4-1.6,11.1-7.2,12l-4.8,0.7
			c-4.3,0.6-8.5-1.9-9.9-6.1c-1.1-3.4-2.7-6.2-4.6-8.3c-4.3-4.8-11.1-7.6-18.7-7.6c-8,0-15.6,3.1-20.3,8.4
			c-3.8,4.3-5.7,9.3-5.7,15.2c0,5.8,1.6,10.7,4.8,14.5c6.7,8,17.6,10.2,28.1,12.3c6.2,1.2,12.6,2.5,18.1,5
			c5.9,2.6,10.8,5.8,14.6,9.6c3.8,3.8,6.7,8.3,8.7,13.5c2,5.1,3,10.8,3,16.8c0,13.2-4.3,24.3-12.7,33.1c-6.9,7.3-16.3,12-27.1,14
			v5.5c0,5-4.1,9-9,9h-4.9c-5,0-9-4.1-9-9v-5.6c-6-1.1-11.6-3-16.7-5.7c-6-3.1-11.3-8.1-15.6-15c-2.9-4.5-5-9.9-6.3-15.8
			c-1.1-5,2.3-9.9,7.3-10.8l4.9-0.9c4.7-0.8,9.1,2.1,10.3,6.7c1.4,5.4,3.2,9.6,5.6,12.6c5.2,6.7,13.7,10.7,22.9,10.7l0,0
			c1.6,0,3.1-0.1,4.7-0.3c6.5-1,12.4-4.1,16.5-8.8c4.3-4.9,6.5-11.1,6.5-18.4C352.7,543.8,351.2,538.9,348.2,535.2z"/>
	</g>
</g>
</svg>
