<?xml version="1.0" encoding="utf-8"?>
<!-- Generator: Adobe Illustrator 18.1.1, SVG Export Plug-In . SVG Version: 6.00 Build 0)  -->
<svg version="1.1" id="Capa_1" xmlns="http://www.w3.org/2000/svg" xmlns:xlink="http://www.w3.org/1999/xlink" x="0px" y="0px"
	 viewBox="-49 141 512 512" enable-background="new -49 141 512 512" xml:space="preserve">
<g>
	<g id="Layer_1_43_">
		<g>
			<path fill="#2F383E" d="M439.7,258.3H330.8c15,13.4,27.7,29,37.8,46.5h71.1c12.9,0,23.3-10.4,23.3-23.3
				C463,268.8,452.6,258.3,439.7,258.3z"/>
			<path fill="#2F383E" d="M439.7,317h-64.9c7,14.6,12.2,30.2,15.2,46.5h49.7c12.9,0,23.3-10.4,23.3-23.3
				C463,327.4,452.6,317,439.7,317z"/>
			<path fill="#2F383E" d="M439.7,199.7H267.4c-10,0-18.5,6.4-21.8,15.2c25.8,5.5,49.5,16.4,70.1,31.3h123.9
				c12.9,0,23.3-10.4,23.3-23.3S452.6,199.7,439.7,199.7z"/>
			<path fill="#2F383E" d="M267.4,187.5h172.3c12.9,0,23.3-10.4,23.3-23.3c0-12.8-10.4-23.3-23.3-23.3H267.4
				c-12.9,0-23.3,10.4-23.3,23.3C244.2,177.1,254.6,187.5,267.4,187.5z"/>
			<path fill="#2F383E" d="M439.7,375.7h-47.9c0.8,7,1.3,14.1,1.3,21.3c0,8.6-0.8,17-1.9,25.2h48.4c12.9,0,23.3-10.4,23.3-23.3
				S452.6,375.7,439.7,375.7z"/>
			<path fill="#2F383E" d="M439.7,434.3h-50.3c-3.4,16.4-9,32-16.4,46.5h66.7c12.9,0,23.3-10.4,23.3-23.3S452.6,434.3,439.7,434.3z"
				/>
			<path fill="#2F383E" d="M439.7,493h-73.5c-10.7,17.6-24,33.4-39.7,46.5h113.2c12.9,0,23.3-10.4,23.3-23.3
				C463,503.4,452.6,493,439.7,493z"/>
			<path fill="#2F383E" d="M-25.7,418.3h47.9c-0.8-7-1.3-14.1-1.3-21.3c0-8.6,0.8-17,1.9-25.2h-48.4c-12.9,0-23.3,10.4-23.3,23.3
				C-49,407.9-38.6,418.3-25.7,418.3z"/>
			<path fill="#2F383E" d="M-25.7,477h64.9c-7-14.6-12.2-30.2-15.2-46.5h-49.7c-12.9,0-23.3,10.4-23.3,23.3
				C-49,466.6-38.6,477-25.7,477z"/>
			<path fill="#2F383E" d="M-25.7,359.7h50.3c3.4-16.4,9-32,16.4-46.5h-66.7c-12.9,0-23.3,10.4-23.3,23.3S-38.6,359.7-25.7,359.7z"
				/>
			<path fill="#2F383E" d="M-25.7,301h73.5c10.7-17.6,24-33.4,39.7-46.5H-25.7c-12.9,0-23.3,10.4-23.3,23.3
				C-49,290.6-38.6,301-25.7,301z"/>
			<path fill="#2F383E" d="M-25.7,535.7H83.2c-15-13.4-27.7-29-37.8-46.5h-71.1c-12.9,0-23.3,10.4-23.3,23.3
				C-49,525.3-38.6,535.7-25.7,535.7z"/>
			<path fill="#2F383E" d="M-25.7,594.3h172.3c10,0,18.5-6.4,21.8-15.2c-25.8-5.5-49.5-16.4-70.1-31.3H-25.7
				c-12.9,0-23.3,10.4-23.3,23.3C-49,583.9-38.6,594.3-25.7,594.3z"/>
			<path fill="#2F383E" d="M146.6,606.5H-25.7c-12.9,0-23.3,10.4-23.3,23.3c0,12.8,10.4,23.3,23.3,23.3h172.3
				c12.9,0,23.3-10.4,23.3-23.3C169.8,616.9,159.4,606.5,146.6,606.5z"/>
			<path fill="#2F383E" d="M207,234.1c-89.8,0-162.9,73.1-162.9,162.9S117.2,559.9,207,559.9S369.9,486.8,369.9,397
				S296.8,234.1,207,234.1z M207,513.4c-64.2,0-116.4-52.2-116.4-116.4c0-64.2,52.2-116.4,116.4-116.4
				c64.2,0,116.4,52.2,116.4,116.4C323.4,461.2,271.2,513.4,207,513.4z"/>
			<path fill="#2F383E" d="M213.8,381.3v-40.2c23.4,0.4,23.2,23.1,37,23.1c7.2,0,13.4-4.8,13.4-13.1c0-20.7-33.9-31.1-50.4-31.5
				v-11.3c0-3.6-2.8-7.2-6.4-7.2c-3.6,0-6.3,3.6-6.3,7.2v11.3c-26.4,0.8-50.4,15.7-50.4,44.4c0,23.5,19,37.3,50.4,43v44.2
				c-35.2-1.5-16.7-30.7-40.4-30.7c-8,0-13.1,4.9-13.1,13.3c0,16.7,17.8,38.1,53.6,39v13.1c0,3.6,2.7,7.2,6.3,7.2
				c3.6,0,6.4-3.6,6.4-7.2v-13.1c31.5-1.9,52.7-16.3,52.7-44.7C266.5,395.5,241.7,387.2,213.8,381.3z M201.1,379
				c-15.9-3.2-23.7-9.3-23.7-19.9c0-9.1,9.3-17.6,23.7-18V379z M213.8,451.1v-41.9c11.4,2.5,26,6.8,26,21.1
				C239.8,444.3,226.5,450.3,213.8,451.1z"/>
		</g>
	</g>
</g>
</svg>
