<?xml version="1.0" encoding="utf-8"?>
<!-- Generator: Adobe Illustrator 18.1.1, SVG Export Plug-In . SVG Version: 6.00 Build 0)  -->
<svg version="1.1" id="Capa_1" xmlns="http://www.w3.org/2000/svg" xmlns:xlink="http://www.w3.org/1999/xlink" x="0px" y="0px"
	 viewBox="-49 141 512 512" enable-background="new -49 141 512 512" xml:space="preserve">
<g>
	<path fill="#2F383E" d="M372,399.6L353.3,381c61-61,61-160.3,0-221.3L372,141C443.3,212.3,443.3,328.4,372,399.6z M321,348.7
		l18.7,18.7c53.5-53.5,53.5-140.6,0-194.1L321,192C364.2,235.1,364.2,305.5,321,348.7z M306.4,334c35.1-35.1,35.1-92.3,0-127.4
		l-18.7,18.7c24.9,24.9,24.9,65.3,0,90.1L306.4,334z M60.7,159.7L42,141c-71.3,71.3-71.3,187.4,0,258.6L60.7,381
		C-0.3,320-0.3,220.7,60.7,159.7z M74.3,367.4L93,348.7C49.8,305.5,49.8,235.2,93,192l-18.7-18.7C20.8,226.8,20.8,313.9,74.3,367.4z
		 M107.6,334l18.7-18.7c-24.8-24.8-24.8-65.3,0-90.1l-18.7-18.7C72.5,241.8,72.5,298.9,107.6,334z M314.4,598.1h-64.2l-38.5-278.3
		c17.9-2.3,31.9-17.5,31.9-36.1c0-20.2-16.4-36.5-36.5-36.5c-20.2,0-36.5,16.4-36.5,36.5c0,18.6,13.9,33.7,31.8,36.1l-38.5,278.3
		H99.6c-15.2,0-27.5,12.3-27.5,27.5c0,15.2,12.3,27.5,27.5,27.5h214.8c15.2,0,27.5-12.3,27.5-27.5
		C341.9,610.4,329.6,598.1,314.4,598.1z"/>
</g>
</svg>
