<?xml version="1.0" encoding="utf-8"?>
<!-- Generator: Adobe Illustrator 18.1.1, SVG Export Plug-In . SVG Version: 6.00 Build 0)  -->
<svg version="1.1" id="Capa_1" xmlns="http://www.w3.org/2000/svg" xmlns:xlink="http://www.w3.org/1999/xlink" x="0px" y="0px"
	 viewBox="-49 141 512 512" enable-background="new -49 141 512 512" xml:space="preserve">
<g>
	<g>
		<g>
			<path fill="#2F383E" d="M354.9,425.9c-5.7-4.5-65.7-71.1-81.9-80.5V172.7c0-17.6-14.2-31.7-31.7-31.7H78.1
				c-17.6,0-31.7,14.2-31.7,31.7v302.5c0,17.6,14.2,31.7,31.7,31.7h52.4h18.7l-2.9-24.9c-0.9-0.8-1.6-1.4-2.5-2.2h-10.5h-20.9
				c1-4.2,1.4-8.8,0.5-13.5c-2.3-13.1-12.6-23.6-25.7-26c-4.8-0.9-9.5-0.6-13.8,0.4V205.2c1.9,0.3,3.9,0.5,5.9,0.5
				c17.8,0,32.1-14.4,32.1-32.1c0-1.9-0.2-3.8-0.5-5.6h97.4c-0.3,1.9-0.5,3.8-0.5,5.6c0,17.8,14.3,32.1,32.1,32.1c2,0,4-0.2,5.9-0.5
				V435l0,0V501c-11.1-8.2-23.4-33.7-23.4-33.7s-6.1-67.8-40.4-67.8c-0.9,0-1.8,0-2.7,0.1c0,0-26,2.2-4.5,76.6l9.6,82.7
				c0,0,10.8,44.8,40.4,75.9v9.2c0,4.9,4,9,9,9h96.7c4.6,0,8.4-3.4,8.9-7.9c3.4-32.2,16.8-151.9,24.7-170c1.3-2.9,2.3-5.9,2.7-9
				C368.4,455.8,369,437,354.9,425.9z"/>
		</g>
		<g>
			<circle fill="#2F383E" cx="163.2" cy="224.9" r="19.2"/>
		</g>
		<g>
			<g>
				<path fill="#2F383E" d="M90.3,326.1c0,33.1,23.2,60.8,54.2,67.8c0.9-1.8,1.9-3.3,3-5c10.2-14.9,24.1-17.7,28.8-18.1
					c1.9-0.2,3.8-0.3,5.6-0.3c6.7,0,15.8,1.3,25.2,6.3c13.5-12.6,21.9-30.7,21.9-50.7c0-38.4-31.1-69.5-69.5-69.5
					S90.3,287.7,90.3,326.1z M118.1,319.9c4.2,0,4.3,0,4.9-4.2c0.5-3.2,1.5-6.3,2.7-9.3c0.7-1.7,1.9-2.3,3.6-1.8
					c2.6,0.7,5.1,1.5,7.7,2.3c2.4,0.7,2.7,1.6,1.7,3.9c-2.3,4.7-3.2,9.5-2.9,14.7c0.1,1.4,0.2,2.7,0.8,3.9c2,4.5,6.9,5.1,9.9,1.4
					c1.6-1.9,2.6-4.1,3.6-6.4c1.7-4,3.2-7.9,5.2-11.6c6.6-11.9,21.5-15.2,31.8-6.7c3.7,3,6.2,7,7.4,11.6c0.5,2,1.6,2.9,3.7,2.8
					c2.1-0.1,4.1,0,6.2,0c1.9,0,2.8,0.9,2.8,2.7c0.1,2.2,0.1,4.4,0,6.6c0,2-1.1,2.8-3,2.8c-1.5,0-3,0-4.5,0c-3.3,0-3.4,0.1-4,3.3
					c-0.6,4.1-1.6,8-3.3,11.8c-1.5,2.9-2.2,3.2-5.2,2.4c-2.3-0.6-4.6-1.3-6.8-2c-2.6-0.8-2.9-1.6-1.7-4c2.2-4.1,3.3-8.5,4-13.1
					c0.4-2.9,0.1-5.9-1.1-8.6c-2.2-5.1-8.2-6-11.7-1.6c-1.3,1.5-2.1,3.1-2.8,4.9c-2,4.5-3.4,9.2-6,13.4c-4.1,6.9-9.7,11.2-18.1,10.7
					c-9.4-0.5-15.4-6-18.5-14.5c-1.3-3.6-1.3-3.6-5-3.7c-1.3,0-2.5,0-3.8,0c-2.8-0.1-3.3-0.5-3.3-3.3c0-0.8,0-1.8,0-2.6
					C112.1,320,112.1,320,118.1,319.9z"/>
			</g>
		</g>
	</g>
</g>
</svg>
