<?xml version="1.0" encoding="utf-8"?>
<!-- Generator: Adobe Illustrator 18.1.1, SVG Export Plug-In . SVG Version: 6.00 Build 0)  -->
<svg version="1.1" id="Capa_1" xmlns="http://www.w3.org/2000/svg" xmlns:xlink="http://www.w3.org/1999/xlink" x="0px" y="0px"
	 viewBox="-49 141 512 512" enable-background="new -49 141 512 512" xml:space="preserve">
<g>
	<path fill="#2F383E" d="M417.6,292.6c0-38.8-29.5-70.8-67.3-74.7c-10.6-28.6-38.1-49.1-70.4-49.1c-14.1,0-27.3,4-38.6,10.8
		c-12.8-23-37.4-38.6-65.6-38.6c-37.4,0-68.4,27.4-74.1,63.2c-3.1-0.4-6.1-0.6-9.3-0.6c-41.5,0-75.1,33.6-75.1,75.1c0,2,0.1,4,0.3,6
		c-21,13.3-35,36.7-35,63.5c0,23.6,10.9,44.7,28,58.5c-0.1,1.4-0.2,2.7-0.2,4.1c0,41.5,33.6,75.1,75.1,75.1
		c12.4,0,24.1-3.1,34.5-8.4c14.3,10.3,34.8,23.1,44.7,20.6c0,0,3.7,57.2,2.9,71.7c-1.5,27.6-9.8,58.4-15.6,83.3h90.3
		c0,0-13.3-55.5-13.9-74c-0.6-18.5,5.8-52.6,5.8-52.6l31.3-32.4c12.1,8.2,26.6,12.9,42.3,12.9c38.8,0,70.8-29.6,74.7-67.4
		c28.6-10.6,49.1-38.2,49.1-70.5c0-19.1-7.2-36.4-18.9-49.7C415.8,311,417.6,302,417.6,292.6z M137.2,465c6-5.8,11.1-12.5,14.9-19.9
		l14.8,30.9C166.9,476,158.9,479.6,137.2,465z M192.4,484.1c-7.6,1.4-20.6-22.1-29.9-41.2c10.2,5.2,21.8,8.2,34.1,8.2
		c3.2,0,6.2-0.3,9.3-0.6C203.5,465.8,199.3,482.8,192.4,484.1z M224.8,499.2c-17.7,4.9-7.1-31.7-2-52.8c3.7-1.4,7.2-3,10.6-4.9
		c2,15.4,8.7,29.4,18.7,40.4C243.4,489.5,233.5,496.7,224.8,499.2z"/>
</g>
</svg>
