<?xml version="1.0" encoding="utf-8"?>
<!-- Generator: Adobe Illustrator 18.1.1, SVG Export Plug-In . SVG Version: 6.00 Build 0)  -->
<svg version="1.1" id="Capa_1" xmlns="http://www.w3.org/2000/svg" xmlns:xlink="http://www.w3.org/1999/xlink" x="0px" y="0px"
	 viewBox="-49 141 512 512" enable-background="new -49 141 512 512" xml:space="preserve">
<g>
	<path fill="#2F383E" d="M-20.9,383c0.5,0.5,1.2,1.1,2.2,1.8c25.2-66.7,85-127.3,85-127.3c-28.1,33.7-42.6,105.8-48.8,145.9
		c28,9.4,66.7,11.7,100.6-22.5c58.6-59.1-8.9-135.3,94-203.5c0,0-132.3-36.4-216.7,48.8C-89.1,311.4-28.3,375.6-20.9,383z"/>
	<path fill="#2F383E" d="M400.3,449.6c0,0,91.7-102,53.2-215.6c-38.5-113.6-123.1-87.9-133-84.5c-0.6,0.2-1.5,0.6-2.6,1.1
		c48.4,52.4,75.9,132.9,75.9,132.9c-17.6-40.2-75.6-85.4-108.7-108.9c-20.9,20.9-40.3,54.4-24.8,100
		C287.1,353.4,385.4,327,400.3,449.6z"/>
	<path fill="#2F383E" d="M353.5,527.2c-8.2-28.4-28.3-61.5-75.7-69.9c-81.9-14.6-106.2,84.2-220.8,38.3c0,0,45.2,129.5,163.3,150.5
		c118.1,21,136.3-65.6,138.2-75.8c0.1-0.6,0.2-1.6,0.3-2.8c-69.2,17.2-153.1,2.5-153.1,2.5C249.4,574,317,544.9,353.5,527.2z"/>
</g>
</svg>
