<?xml version="1.0" encoding="utf-8"?>
<!-- Generator: Adobe Illustrator 18.1.1, SVG Export Plug-In . SVG Version: 6.00 Build 0)  -->
<svg version="1.1" id="Capa_1" xmlns="http://www.w3.org/2000/svg" xmlns:xlink="http://www.w3.org/1999/xlink" x="0px" y="0px"
	 viewBox="-49 141 512 512" enable-background="new -49 141 512 512" xml:space="preserve">
<g>
	<g>
		<path fill="#2F383E" d="M233.7,322.9c4.6-11.1,7.7-23.9,8.4-37.4c1-13.5-0.9-27.6-4.9-41.2c-4.2-13.6-10.6-26.9-19.6-38.2
			c-8.7-11.4-19.8-21-31.4-27.3c-11.6-6.3-23.7-9-32.1-8.8c-4.1-0.1-7.7,1-9.8,1.6c-2.1,0.7-3.3,1.1-3.3,1.1s0.3,1.1,0.7,3.3
			c0.5,2.1,0.5,5.6,0.8,8.8c0.3,7.1-0.4,15.8-1.3,25.2c-1.6,18.6-1.2,40.3,5.6,61.7c3.4,10.6,7.7,21.3,13.5,31.1
			c5.6,9.8,12.4,19,19.3,26.8c6.2,6.9,20.3,23,25.5,27c1.3-9.1,2.4-18.4,2.6-27.9c0.5-6.7,0.1-13.3,0-19.8
			c-0.1-6.6-1.3-12.9-1.9-19.1c-1.1-6.1-2.6-12-3.8-17.5c-2-5.4-3.8-10.5-5.5-15.2c-2.4-4.4-4.6-8.4-6.5-12
			c-1.7-3.8-4.5-6.2-6.1-8.6c-3.7-4.6-5.8-7.3-5.8-7.3s2.3,2.5,6.3,6.8c1.8,2.3,4.9,4.5,6.8,8.2c2.2,3.5,4.8,7.4,7.5,11.7
			c2.1,4.7,4.4,9.7,6.8,15.1c1.7,5.6,3.6,11.5,5.2,17.7c1,6.3,2.7,12.8,3.4,19.5c0.6,6.7,1.6,13.5,1.5,20.4c0.3,7.8,0.2,15.5-0.2,23
			c0.6-0.7,1.3-1.2,1.9-1.9C223,343.3,228.9,334,233.7,322.9z"/>
		<path fill="#2F383E" d="M172.7,379.7c1,1.7,1.9,3.3,2.8,4.9c-51.3,9.8-93,46.8-109.5,95.5l3.4,0.4c4.2,0,10.7,1,21.8,3
			c0.2-3.3,1.4-6.5,3.4-9.2c8.2-10.8,20-16.5,34.3-16.5c21.5,0.1,44.2,0.7,67.2,7.7c12.1,3.6,24.5,3,37.1-2.1
			c36.2-14.5,68.1-13.2,93.8,3.6c3.2,2.1,6.5,4.3,9.8,6.5c-18.3-46.6-60.1-81.4-110.9-89.7c1.4-2.4,2.7-4.8,4.2-7.3
			c1.4-2.3,4.3-8.4,3.9-9.9c-0.2-0.9-0.1-1.8-0.2-2.6c-5.2,6.5-9.8,13-13.9,19.2c-2.5-0.3-5.1-0.4-7.7-0.6
			c1.3-9.7,2.4-20.1,2.9-30.9c-0.8,0.8-1.5,1.7-2.5,2.5c-1.6,1.1-4.1,9.7-4.7,13.2c-0.9,5.1-1.9,10-2.9,14.7c-0.9,0-1.7-0.2-2.6-0.2
			c-7.4,0-14.7,0.6-21.7,1.7c-3.6-5.4-7.5-10.9-11.9-16.5c0,0.9,0,1.8-0.2,2.6C168.5,371.2,171.3,377.4,172.7,379.7z"/>
		<path fill="#2F383E" d="M256.4,340c3.7-3.5,7.9-6.4,11.6-9.4c4-2.7,8.1-5.1,11.8-7.5c4-1.9,7.9-3.6,11.4-5.2
			c3.7-1.1,7.1-2.1,10.1-3c3-1.1,5.8-0.9,8-1.3c4.4-0.5,7-0.7,7-0.7s-2.5,0.5-6.9,1.2c-2.1,0.6-4.9,0.5-7.8,1.8
			c-2.9,1.1-6.1,2.3-9.7,3.6c-3.3,1.8-6.9,3.8-10.7,5.9c-3.5,2.6-7.2,5.2-10.9,8.1c-3.4,3.3-7.2,6.3-10.6,10
			c-3.3,3.7-6.9,7.2-9.9,11.2c-4.6,5.5-8.6,11.4-12.4,17.2c4.9,0.2,21-1.9,28-2.7c7.8-1,16.2-2.8,24.3-5.7c8.2-2.6,16-6.6,23.2-10.9
			c14.5-8.8,25.6-21,33.9-32.4c4.2-5.8,8.1-11.1,11.8-15c1.8-1.7,3.6-3.7,4.9-4.6c1.3-1,2.1-1.5,2.1-1.5s-0.5-0.8-1.3-2.3
			c-1-1.4-2.4-3.8-4.8-5.8c-4.7-4.3-12.9-8.8-22.6-11c-9.8-2.2-20.9-2.2-31.5-0.1c-10.8,2-21,6.3-30.2,12
			c-9.1,5.8-17.2,12.9-23.3,21.1c-6.3,8-10.9,16.8-13.8,25.4c-2.8,8.7-4.1,16.9-4.1,23.5c0,0.7,0.1,1.4,0.1,2.1
			c3.6-4.5,7.3-8.9,11.4-13.2C248.7,346.9,252.7,343.5,256.4,340z"/>
		<path fill="#2F383E" d="M44.3,308.4c3.7,3.9,7.6,9.2,11.8,15c8.4,11.4,19.4,23.5,33.9,32.4c7.2,4.4,15,8.3,23.2,10.9
			c8.1,2.8,16.5,4.6,24.3,5.7c7,0.8,23,3,28,2.7c-3.8-5.8-7.8-11.7-12.4-17.2c-3-4.1-6.6-7.6-9.9-11.3c-3.3-3.7-7.2-6.7-10.6-10
			c-3.7-2.9-7.4-5.5-10.9-8.1c-3.8-2.1-7.4-4.1-10.7-5.9c-3.6-1.3-6.8-2.5-9.7-3.6c-2.8-1.3-5.6-1.3-7.8-1.8
			c-4.4-0.8-6.9-1.2-6.9-1.2s2.5,0.3,7,0.7c2.2,0.4,5,0.2,8,1.3c3,0.9,6.4,1.9,10.1,3c3.5,1.6,7.3,3.4,11.4,5.2
			c3.7,2.3,7.8,4.8,11.8,7.5c3.7,3.1,7.9,5.9,11.6,9.4c3.7,3.5,7.6,6.9,11,10.8c4,4.3,7.8,8.7,11.4,13.2c0-0.7,0.2-1.4,0.1-2.1
			c0.1-6.6-1.2-14.8-4.1-23.5c-2.9-8.6-7.5-17.4-13.8-25.4c-6.2-8.2-14.2-15.3-23.3-21.1c-9.2-5.7-19.4-10-30.2-12
			c-10.7-2.2-21.8-2.1-31.5,0.1c-9.8,2.2-18,6.6-22.7,11c-2.4,2-3.9,4.4-4.8,5.8c-0.9,1.5-1.3,2.3-1.3,2.3s0.7,0.5,2,1.5
			C40.7,304.7,42.5,306.7,44.3,308.4z"/>
		<path fill="#2F383E" d="M396.6,547.7c-22.1-30-51.1-52.5-81.7-72.4c-24.8-16.1-53-12.7-79.3-2.2c-16.1,6.4-32.1,7.2-47.5,2.5
			c-20.7-6.2-41.4-6.9-62.5-7c-9,0-16.5,3.1-21.9,10.2c-3,4,21.6,20.5,42.7,20.5c-3.9,7.8-72.2-8.7-81.3-8.1l-51.6-6.6
			c-18.3-1.5-18.3-8.4-36.4,1.8c-0.6,0.4-1.5,0.4-2.2,0.3c-10-0.6-15.7,2.6-21.3,9.3c-3.2,3.8-3,8.5-1.2,13c1.8,4.7,6.4,3.5,10.2,5
			c23.1,9.1,30.5,13.6,61.8,21.3c22.3,5.5,44,12.2,66.2,17.2c9.2,2.1,18.5,3.6,26.8,8.3c17.6,9.9,36.3,12.9,56.5,12
			c22.8-1,45.7-0.1,68.6-0.3c40.2-0.2,70.7,15.9,91.3,51.3l129.2-0.3C434.8,590.7,422.4,582.7,396.6,547.7z"/>
	</g>
</g>
</svg>
