<?xml version="1.0" encoding="utf-8"?>
<!-- Generator: Adobe Illustrator 18.1.1, SVG Export Plug-In . SVG Version: 6.00 Build 0)  -->
<svg version="1.1" id="Capa_1" xmlns="http://www.w3.org/2000/svg" xmlns:xlink="http://www.w3.org/1999/xlink" x="0px" y="0px"
	 viewBox="-49 141 512 512" enable-background="new -49 141 512 512" xml:space="preserve">
<g>
	<g>
		<path fill="#2F383E" d="M108.6,653l6.3-97.5c100.9,58.7,232.4,44.8,318.8-41.6l-13-13c-0.7,0.2-1.4,0.3-2,0.6l-60.9-236.1
			c11.7-6.5,19.7-18.9,19.7-33.2c0-21.1-17.1-38.2-38.2-38.2c-14.4,0-26.8,8-33.3,19.8L71.6,154.3c0.2-0.7,0.3-1.3,0.6-2L60.8,141
			C-40.5,242.3-42.1,405.6,56.1,508.9L-19.7,653H108.6z M399.9,506c-70.2,12.5-141.5-31.1-210.3-96.9L329.7,269
			c3,0.8,6.2,1.3,9.4,1.3L399.9,506z M301.1,232.4c0,3.2,0.5,6.3,1.3,9.3L162.3,381.8C97.3,313.5,54.6,242.7,67,173.1L301.1,232.4z"
			/>
	</g>
</g>
</svg>
