<?xml version="1.0" encoding="utf-8"?>
<!-- Generator: Adobe Illustrator 18.1.1, SVG Export Plug-In . SVG Version: 6.00 Build 0)  -->
<svg version="1.1" id="Capa_1" xmlns="http://www.w3.org/2000/svg" xmlns:xlink="http://www.w3.org/1999/xlink" x="0px" y="0px"
	 viewBox="-49 141 512 512" enable-background="new -49 141 512 512" xml:space="preserve">
<g>
	<path fill="#2F383E" d="M363.8,475.7c-7.9,20.2-21,137.6-24.4,169.4c-0.5,4.5-4.3,7.9-8.9,7.9h-96.7c-4.9,0-9-4-9-9v-9.3
		c-29.7-31-40.4-75.9-40.4-75.9l-9.6-82.6c-21.6-74.5,4.5-76.6,4.5-76.6c0.9-0.1,1.9-0.1,2.7-0.1c34.4,0,40.4,67.9,40.4,67.9
		s12.3,25.5,23.5,33.6v-66l0,0V205.2c-5.4,1-11.2,0.7-17.3-1.6c-6.4-2.4-11.9-7.1-15.6-12.8c-5.1-8.1-6-15.8-4.7-22.8h-97.4
		c1.3,7.1,0.4,14.8-4.9,23.1c-3.7,5.6-9.1,10.2-15.5,12.6c-6.1,2.3-11.8,2.5-17.1,1.6v235.6c4.7-1.1,9.8-1.4,15-0.1
		c12.8,2.9,22.9,14,24.6,27c0.5,4.3,0.2,8.4-0.7,12.1h20.9h12.3c0.1,0.1,0.2,0.2,0.4,0.3l3.1,26.7h-18.7H78.1
		c-17.5,0-31.7-14.2-31.7-31.7V172.7c0-17.5,14.2-31.7,31.7-31.7h163.1c17.5,0,31.7,14.2,31.7,31.7v172.8
		c16.1,9.4,76.1,76,81.9,80.5c13.3,10.2,13.6,27.4,12.2,37.9C366.6,468,365.3,471.9,363.8,475.7z M178.9,222.9
		c0-10.7-8.7-19.2-19.2-19.2c-10.7,0-19.2,8.7-19.2,19.2s8.7,19.2,19.2,19.2C170.3,242.2,178.9,233.5,178.9,222.9z M159.7,254.5
		c38.3,0,69.4,31.1,69.4,69.4c0,21.2-9.6,40.2-24.5,52.9c-6.7-3.2-14.2-5.1-22.6-5.1c-1.8,0-3.6,0.1-5.1,0.2
		c-4.1,0.3-18.1,2.6-28.4,17.6c-0.5,0.8-1,1.7-1.6,2.5c-32.3-6-56.7-34.3-56.7-68.2C90.2,285.6,121.4,254.5,159.7,254.5z
		 M124.2,326.4l12.9,13.1l13.5,13.6l13.6-13.5l31-30.9L181.7,295l-31,30.9l-12.9-13.1L124.2,326.4z"/>
</g>
</svg>
