<?xml version="1.0" encoding="utf-8"?>
<!-- Generator: Adobe Illustrator 18.1.1, SVG Export Plug-In . SVG Version: 6.00 Build 0)  -->
<svg version="1.1" id="Capa_1" xmlns="http://www.w3.org/2000/svg" xmlns:xlink="http://www.w3.org/1999/xlink" x="0px" y="0px"
	 viewBox="-49 141 512 512" enable-background="new -49 141 512 512" xml:space="preserve">
<g>
	<g>
		<g>
			<path fill="#2F383E" d="M241.8,481.1c-1.9-2.1-4.3-3.7-6.8-5c-5.4-2.8-11.4-4.6-17.3-6.1v45.8c9.6-1.1,20.6-4.6,25.6-13.5l0,0
				c2.4-4.3,2.9-9.5,1.9-14.3C244.7,485.4,243.6,483.1,241.8,481.1z"/>
		</g>
		<g>
			<path fill="#2F383E" d="M243.3,502.4C243.3,502.4,243.3,502.3,243.3,502.4L243.3,502.4C243.3,502.3,243.3,502.4,243.3,502.4z"/>
		</g>
		<g>
			<path fill="#2F383E" d="M172.7,407.9c-1.6,2.4-2.7,5.1-3,8.1c-0.3,2.9-0.1,6.2,1,8.9c1.1,2.6,3.3,4.5,5.5,6.1
				c2.6,1.7,5.4,3.1,8.2,4.3c2.4,1,5.1,1.9,8,2.8v-41.4C185.1,398.1,177.1,401.5,172.7,407.9z"/>
		</g>
		<g>
			<path fill="#2F383E" d="M243.5,502c-0.1,0.1-0.1,0.2-0.2,0.3l0,0C243.4,502.2,243.5,502.1,243.5,502z"/>
		</g>
		<g>
			<path fill="#2F383E" d="M243.8,501.5C243.8,501.5,243.8,501.5,243.8,501.5L243.8,501.5z"/>
		</g>
		<g>
			<path fill="#2F383E" d="M233.8,252.4c38.9-32.7,65-106.4,49-109.7c-21.3-4.3-67.5,14.5-89.8,17.8c-31.7,3.8-66.2-34.4-85.6-13.1
				c-15.7,17.3,11.3,80.2,53.6,107.6c-126.2,62-303.6,373.4,5.9,396C595,682.4,380.6,312.8,233.8,252.4z M270.6,498
				c-1.3,12.1-7.8,23.1-17.4,30.6c-10.2,7.9-22.9,11.5-35.5,12.6v13.4c0,3.6-1.6,7.1-4.3,9.4c-3.7,3.3-9.1,4.1-13.6,2
				c-4.4-2-7.3-6.6-7.3-11.4v-14.7c-2.2-0.4-4.3-0.9-6.5-1.5c-11.8-3.2-22.8-9.6-30.8-19c-4-4.7-7.2-10-9.5-15.7
				c-0.6-1.5-1.1-3-1.6-4.6c-0.4-1.4-0.8-2.8-1-4.3c-0.2-2.4,0.2-4.9,1.4-7.1c2.3-4.5,7.3-7.2,12.3-6.7c4.9,0.4,9.3,3.9,10.8,8.6
				c0.5,1.5,0.8,2.9,1.3,4.4c0.5,1.4,1.2,2.8,1.9,4.1c1.5,2.6,3.4,5,5.5,7.1c4.5,4.3,10.1,7.1,16,8.7v-49.8
				c-11.6-3-23.5-6.9-33-14.3c-4.6-3.6-8.6-8.1-11.1-13.4c-2.7-5.6-3.8-11.8-3.9-18c0-6.3,1.1-12.5,3.8-18.3
				c2.5-5.4,6-10.2,10.3-14.2c9.3-8.5,21.6-13.3,34-15v-1.1V357c0-3.6,1.6-7.1,4.3-9.4c3.7-3.3,9.1-4.1,13.6-2
				c4.4,2,7.3,6.6,7.3,11.4v12.8v1c1.6,0.2,3.3,0.5,4.9,0.8c12.1,2.2,24,7.2,32.9,16c4.2,4.1,7.6,9.1,10.1,14.5
				c0.7,1.5,1.3,3,1.8,4.6c0.5,1.5,1,3,1.2,4.5c0.4,2.4,0,5-1,7.2c-2.1,4.6-6.9,7.5-12,7.3c-4.9-0.2-9.4-3.4-11.2-8.1
				c-0.5-1.4-0.8-2.8-1.3-4.2c-0.5-1.4-1.2-2.7-2.1-4c-1.6-2.4-3.6-4.5-5.9-6.2c-5-3.7-11.2-5.7-17.3-6.8v47.7
				c7.3,1.7,14.5,3.6,21.5,6.4c10.5,4.2,20.5,10.5,26.3,20.6c-0.9-1.6-1.8-3.1,0,0.1c1.8,3.1,0.9,1.6,0,0.1
				C270.1,479.2,271.6,488.8,270.6,498z"/>
		</g>
		<g>
			<path fill="#2F383E" d="M243.1,502.6c-0.1,0.1-0.1,0.2-0.2,0.3C243,502.9,243.1,502.8,243.1,502.6z"/>
		</g>
	</g>
</g>
</svg>
