<?xml version="1.0" encoding="utf-8"?>
<!-- Generator: Adobe Illustrator 18.1.1, SVG Export Plug-In . SVG Version: 6.00 Build 0)  -->
<svg version="1.1" id="Слой_1" xmlns="http://www.w3.org/2000/svg" xmlns:xlink="http://www.w3.org/1999/xlink" x="0px" y="0px"
	 viewBox="-49 141 512 512" enable-background="new -49 141 512 512" xml:space="preserve">
<g>
	<path fill="#2F383E" d="M397.2,554.8c-1.5-8.1-5.5-15.6-11.3-21.4l-42.6-42.6c-1.5,3.2-3.1,6.4-4.8,9.6
		c-13.2,24.3-33.4,49.4-55.3,68.9l33.4,33.4c5.8,5.8,13.3,9.8,21.4,11.3l63.4,12c2.2,0.4,4.4-0.3,5.9-1.8s2.2-3.8,1.8-5.9
		L397.2,554.8L397.2,554.8z"/>
	<path fill="#2F383E" d="M34.3,391.2l9.7-9.7c-2.4-20.5-4.1-40-6.2-57.6c-0.1-1.1-0.2-2.2-0.2-3.2l-42.7,19.9
		c-14.5,6.8-17.8,25.9-6.5,37.2l13.4,13.4C10.7,400.2,25.3,400.2,34.3,391.2z"/>
	<path fill="#2F383E" d="M11.2,270.5c17.8,17.8,19,19,30.4,30.4c2.4-5,5.7-9.5,9.9-13.3c7.7-6.9,17.6-10.7,28-10.7
		c10.9,0,30,8.9,68.8,0.2l26.1-26.1c9-9,9-23.6,0-32.6L161,205.2c-11.3-11.3-30.4-8-37.2,6.5l-27.6,58.9
		C72.6,247,77.7,252.1,53.7,228c2.6-15.9-2.2-32.8-14.4-45.1c-20.2-20.2-52.9-20.2-73.1,0s-20.2,52.9,0,73.1
		C-21.6,268.4-4.7,273.2,11.2,270.5z"/>
	<path fill="#2F383E" d="M75.5,500.4c-1.7-3.1-3.3-6.3-4.8-9.6l-42.6,42.6c-5.8,5.8-9.8,13.3-11.3,21.4l-12,63.4
		c-0.4,2.2,0.3,4.4,1.8,5.9c1.6,1.6,3.8,2.2,5.9,1.8L76,614c8.1-1.5,15.6-5.5,21.4-11.3l33.4-33.4
		C108.9,549.8,88.7,524.7,75.5,500.4L75.5,500.4z"/>
	<path fill="#2F383E" d="M419.1,340.7l-42.7-19.9c0,1.1-0.1,2.2-0.2,3.2c-2.1,17.5-3.8,37.1-6.2,57.6l9.7,9.7c9,9,23.6,9,32.6,0
		l13.4-13.4C436.9,366.6,433.6,347.5,419.1,340.7L419.1,340.7z"/>
	<path fill="#2F383E" d="M447.9,183c-20.2-20.2-52.9-20.2-73.1,0c-12.3,12.3-17.1,29.2-14.4,45.1c-24,24-18.9,18.9-42.6,42.6
		l-27.6-58.9c-6.8-14.5-25.9-17.8-37.2-6.5l-13.4,13.4c-9,9-9,23.6,0,32.6l26.1,26.1c38.4,8.6,57.4-0.2,68.8-0.2
		c10.3,0,20.3,3.8,28,10.7c4.2,3.8,7.6,8.3,9.9,13.3c11.4-11.4,12.5-12.5,30.4-30.4c15.9,2.6,32.8-2.2,45.1-14.4
		C468,235.9,468,203.2,447.9,183z"/>
	<path fill="#2F383E" d="M343.7,320.1c0.4-3-0.8-6-3-8c-2.3-2-5.4-2.8-8.3-2.1c-38.4,9.1-89.8,0.8-120.1-19.6
		c-1.6-1.1-3.4-1.6-5.2-1.6s-3.6,0.5-5.2,1.6C171.4,310.8,120,319.1,81.7,310c-2.9-0.7-6.1,0.1-8.3,2.1c-2.3,2-3.4,5-3,8
		c6.1,52,9,118.8,33.9,164.6c23.5,43.1,72.1,88.5,102.8,88.5s79.3-45.4,102.7-88.5C334.7,438.9,337.6,372.1,343.7,320.1L343.7,320.1
		z"/>
</g>
</svg>
