<?xml version="1.0" encoding="utf-8"?>
<!-- Generator: Adobe Illustrator 18.1.1, SVG Export Plug-In . SVG Version: 6.00 Build 0)  -->
<svg version="1.1" id="Слой_1" xmlns="http://www.w3.org/2000/svg" xmlns:xlink="http://www.w3.org/1999/xlink" x="0px" y="0px"
	 viewBox="-49 141 512 512" enable-background="new -49 141 512 512" xml:space="preserve">
<g>
	<path fill="#2F383E" d="M458,380.4c7.6-8.3,6.4-20.3-3-26.6L224.2,199.6c-9.4-6.3-24.7-6.3-34.1,0L-40.7,353.7
		c-9.4,6.3-11.2,18.2-3.5,26.6l47.4,52.1v68.1c-8.2,1.7-16.4,10.1-16.4,20.2v26.7c0,11.3,9.2,21.9,20.4,23.6l179.6,26.8
		c11.2,1.7,29.5,1.7,40.7,0L406.6,571c11.2-1.7,19.8-12.3,19.8-23.6v-26.7c0-10.1-6.2-18.5-16.4-20.2v-68.1L458,380.4L458,380.4z
		 M36.1,499.7v-32.9h339v32.9H36.1z M138.8,313.3c0,0,11.1-0.1,13.9-0.1c23.9,0,52.4-31.2,54.5-34.5c2.1,3.3,30.1,34.5,54,34.5
		c2.7,0,13.3,0.1,13.3,0.1v52.1c0,4.3-1.1,8.5-2.7,12.6c-2.1,5.5-5.6,10.8-9.7,15.8c-5.1,6.1-11.4,11.6-17.7,16.7
		c-14.4,11.7-37.1,22-37.1,22s-22.7-10.3-37.1-22c-6.3-5.1-12.7-10.6-17.8-16.7c-4.1-5-8.1-10.3-10.2-15.8
		c-1.6-4.1-3.3-8.3-3.3-12.6L138.8,313.3L138.8,313.3z"/>
</g>
</svg>
