<?xml version="1.0" encoding="utf-8"?>
<!-- Generator: Adobe Illustrator 18.1.1, SVG Export Plug-In . SVG Version: 6.00 Build 0)  -->
<svg version="1.1" id="Capa_1" xmlns="http://www.w3.org/2000/svg" xmlns:xlink="http://www.w3.org/1999/xlink" x="0px" y="0px"
	 viewBox="-49 141 512 512" enable-background="new -49 141 512 512" xml:space="preserve">
<g>
	<path fill="#2F383E" d="M349.7,246.1h27.4c5.9,0,11-5,11-11v-61.2c0-5.9-5-11-11-11l0,0l-27.7,0.1c-2.8,0-5.5,0.6-8,1.6l-52.8,21.1
		V223l53,21.5C344.1,245.5,346.9,246.1,349.7,246.1z"/>
	<path fill="#2F383E" d="M36.8,454.1h13.5c5.9,0,10.8-4.9,10.8-10.8v-98.9c0-55,39.7-100.8,91.9-110.5v19
		c-44.1,16.1-75.7,58.5-75.7,108.2v281c0,5.9,4.8,10.9,10.8,10.9h208.7c5.9,0,10.8-4.9,10.8-10.9v-281c0-49.8-31.5-92.1-75.7-108.2
		v-29h35.7v-1v-37.3v-0.1h-91c0-0.2,0-0.3,0-0.5c0-24.3-19.8-44.1-44.1-44.1s-44.1,19.8-44.1,44.1c0,12,4.8,22.9,12.6,30.9
		c-11.5,6.5-22.2,14.6-31.8,24.2C41.3,268,25.9,305.1,25.9,344.4v98.9C26,449.3,30.9,454.1,36.8,454.1z M132.5,170.7
		c7.9,0,14.4,6.4,14.4,14.4c0,7.9-6.4,14.4-14.4,14.4c-7.9,0-14.4-6.4-14.4-14.4C118.1,177.2,124.5,170.7,132.5,170.7z"/>
</g>
</svg>
