<?xml version="1.0" encoding="utf-8"?>
<!-- Generator: Adobe Illustrator 18.1.1, SVG Export Plug-In . SVG Version: 6.00 Build 0)  -->
<svg version="1.1" id="Capa_1" xmlns="http://www.w3.org/2000/svg" xmlns:xlink="http://www.w3.org/1999/xlink" x="0px" y="0px"
	 viewBox="-49 141 512 512" enable-background="new -49 141 512 512" xml:space="preserve">
<g>
	<g id="iconos_42_">
		<path fill="#2F383E" d="M457.2,609.6v-33.2c0-22.6-13.2-35.7-35.7-35.7H196.8c-30.3,0-45.9,14.4-45.9,35.7v43.1
			c0,22.3,15,33.5,45.9,33.5h224.6C444,653,457.2,638,457.2,609.6z M416.3,612.2H191.7v-30.6h224.6V612.2z"/>
		<path fill="#2F383E" d="M283.6,305.8v10.2v87.5l0,0v0l13,35h-21.9L61.1,141l-47.1,28.4l14.3,25v131.9H13.2l10.1,71.5h4.4h0.5v21.6
			c-9.2,4.2-19.4,13.1-19.4,29.2c0,10.8,4.2,18.7,10.4,24l-55.4,47.7h15.6l49-42.3c4.4,1.7,9.2,2.7,13.9,2.7c4.7,0,9.4-1.3,13.6-3.5
			l53.2,43.1h15.9l0.1-0.1l-61.2-49.6c4.1-5,6.9-11.7,6.9-20.3c0-5.6-4.6-10.2-10.2-10.2c-5.6,0-10.2,4.6-10.2,10.2
			c0,3.7-1,6-2.3,7.4l-2.8-2.3c-1.9-1.5-4.7-1.5-6.5,0.1l-3.8,3.3c-3.3-1.5-5.9-4.5-5.9-10.3c0-9.2,9.2-11.5,10.9-11.8
			c4.9-0.8,8.5-5.1,8.5-10.1v-29h7.1h4.2l14.3-71.5H64.1h-5.1v-74.1L181.5,488v1.6v3.1v7.2h40.8v20.4h142.9h10.2v-20.4h51.1h10.2
			v-194H283.6z M195.3,358.9l0.1,0.2l-41.7,27.1l21.4-55L195.3,358.9z M48.7,326.3h-5.1h-5.1V213.6l10.2,19.3V326.3z M57.6,222.2
			L40,188.7l27.5-18.1L57.6,222.2z M81.5,191.5l19.6,34l-31.6,20.4L81.5,191.5z M84.6,265.4l29.8-19.4l-11.7,53L84.6,265.4z
			 M127,263.3l22,32l-33,21.1L127,263.3z M123.6,340.9l36.9-25.3l-21,56.3L123.6,340.9z M178.2,438l-17.8-31.4l44.2-31.5L178.2,438z
			 M192.1,460.3l30.2-65.1l24.6,33.5L192.1,460.3z M395.9,408h-71.5v-61.3h71.5V408z"/>
		<polygon fill="#2F383E" points="-32.9,581.5 -43.2,581.5 -43.2,601.9 120.2,601.9 120.2,581.5 99.8,581.5 99.8,561.1 99.8,550.9 
			120.2,550.9 120.2,530.5 -43.2,530.5 -43.2,550.9 -22.7,550.9 -22.7,581.5 		"/>
	</g>
</g>
</svg>
