<?xml version="1.0" encoding="utf-8"?>
<!-- Generator: Adobe Illustrator 18.1.1, SVG Export Plug-In . SVG Version: 6.00 Build 0)  -->
<svg version="1.1" id="Capa_1" xmlns="http://www.w3.org/2000/svg" xmlns:xlink="http://www.w3.org/1999/xlink" x="0px" y="0px"
	 viewBox="-49 141 512 512" enable-background="new -49 141 512 512" xml:space="preserve">
<g>
	<g>
		<path fill="#2F383E" d="M190,517.4c6-3.8,11.6-7.1,16.9-10.3c1.7-1,3.5-2.2,5.1-3.3c-1-3-2.1-6.2-2.9-9.4
			c-8-10.6-12.1-22.9-14.3-30.2c-9.7,7-20.1,13.6-31.8,19.8c-9.2,4.2-18.5,8.4-27.7,12.6c-2.5,0.8-5,2.5-8.4,3.4V346.1H-6.9
			c0-25.2,0-50.5,0-74.8v-31.9c44.6-4.2,87.4-21.8,133.7-53v159.7h85c4.3-6.8,9.4-13.4,15.4-19.6c7.1-7.6,15.2-14.3,24-19.9
			c8.3-5.7,17.1-10.2,26.2-13.2c8.3-2.8,16.9-4.5,25.6-4.9c0.1,0,0.2,0,0.3,0v-59.9c0-16-10.1-26.9-26.9-29.4l-6.7-0.8
			c-9.2-0.8-18.5-2.5-26.9-4.2c-31.1-6.7-61.4-21-95-44.6c-5.9-4.2-11.8-8.4-20.1-8.4c-8.4,0-14.3,4.2-19.3,7.6
			c-45.6,31.1-86.1,47-127.2,49.6c-10.9,0.8-29.4,5-29.4,31.1v42.1c0,28.5,0,56.4,0,84.9c-0.8,10.9,0.8,22.7,3.4,35.3
			c6.7,28.5,21,53.8,45.4,79c30.2,30.2,67.3,53.8,116,71.5c3.4,0.8,6.7,1.7,10.1,1.7c5,0,9.2-0.8,12.6-2.5l12.6-5
			c10.1-4.2,20.1-8.4,30.2-14.3C185,520.4,187.4,518.9,190,517.4z"/>
		<path fill="#2F383E" d="M442.6,579c-36.6-28.4-73.6-47-81.4-50.9c-0.9-0.4-1.6-1.4-1.6-2.4c0-4.1,0-14.8,0-26.1
			c3.9-8.1,6.2-16.7,7.6-24.5c3.5,2.4,9.3,1.2,15.7-21.5c5.2-18.4,2-24.6-2.4-26.1c14.6-70-18.8-72.3-18.8-72.3s-5-9.7-18.3-17
			c-8.9-5.2-21.3-9.3-37.6-8c-5.2,0.2-10.3,1.3-15,2.8l0,0c-6,2-11.5,5-16.5,8.4c-6.1,3.9-11.9,8.6-17,14.1
			c-8.1,8.2-15.2,18.9-18.4,32.1c-2.9,11.2-2.8,23.5,1.6,35.9c-6-0.5-13.1,2.9-6.4,26.5c4.8,17.2,9.4,22,12.8,22.4
			c1.6,9.9,4.6,20.9,10.5,30.7v22.6c0,1-0.6,2-1.6,2.5c-7.9,3.9-44.8,22.6-81.4,50.9c-12.5,9.8-19.7,24.8-19.7,40.6v23.6
			c0,5.4,4.3,9.7,9.7,9.7h288.2c5.4,0,9.7-4.3,9.7-9.7v-23.6C462.3,603.9,455.1,588.8,442.6,579z"/>
	</g>
</g>
</svg>
