<?xml version="1.0" encoding="utf-8"?>
<!-- Generator: Adobe Illustrator 18.1.1, SVG Export Plug-In . SVG Version: 6.00 Build 0)  -->
<svg version="1.1" id="Capa_1" xmlns="http://www.w3.org/2000/svg" xmlns:xlink="http://www.w3.org/1999/xlink" x="0px" y="0px"
	 viewBox="-49 141 512 512" enable-background="new -49 141 512 512" xml:space="preserve">
<g>
	<g>
		<path fill="#2F383E" d="M-30.1,269.6C-42.7,282.1-49,297.2-49,314.7v237.7c0,17.5,6.3,32.6,18.9,45.1
			c12.6,12.6,27.6,18.9,45.1,18.9h9.1V250.7H15C-2.5,250.7-17.6,257-30.1,269.6z"/>
		<path fill="#2F383E" d="M316.7,205c0-7.6-2.7-14.1-8-19.4c-5.3-5.3-11.8-8-19.4-8H124.7c-7.6,0-14.1,2.7-19.4,8
			c-5.3,5.3-8,11.8-8,19.4v45.7H51.6v365.7h310.9V250.7h-45.7L316.7,205L316.7,205z M133.9,214.1h146.3v36.6H133.9V214.1z
			 M316.7,461c0,2.7-0.9,4.9-2.6,6.6c-1.7,1.7-3.9,2.6-6.6,2.6h-64v64c0,2.7-0.9,4.9-2.6,6.6c-1.7,1.7-3.9,2.6-6.6,2.6h-54.9
			c-2.7,0-4.9-0.9-6.6-2.6c-1.7-1.7-2.6-3.9-2.6-6.6v-64h-64c-2.7,0-4.9-0.9-6.6-2.6c-1.7-1.7-2.6-3.9-2.6-6.6v-54.9
			c0-2.7,0.9-4.9,2.6-6.6c1.7-1.7,3.9-2.6,6.6-2.6h64v-64c0-2.7,0.9-4.9,2.6-6.6c1.7-1.7,3.9-2.6,6.6-2.6h54.9
			c2.7,0,4.9,0.9,6.6,2.6c1.7,1.7,2.6,3.9,2.6,6.6v64h64c2.7,0,4.9,0.9,6.6,2.6c1.7,1.7,2.6,3.9,2.6,6.6L316.7,461L316.7,461
			L316.7,461z"/>
		<path fill="#2F383E" d="M444.1,269.6c-12.6-12.6-27.6-18.9-45.1-18.9h-9.1v365.7h9.1c17.5,0,32.6-6.3,45.1-18.9
			c12.6-12.6,18.9-27.6,18.9-45.1V314.7C463,297.2,456.7,282.1,444.1,269.6z"/>
	</g>
</g>
</svg>
