<?xml version="1.0" encoding="utf-8"?>
<!-- Generator: Adobe Illustrator 18.1.1, SVG Export Plug-In . SVG Version: 6.00 Build 0)  -->
<svg version="1.1" id="Capa_1" xmlns="http://www.w3.org/2000/svg" xmlns:xlink="http://www.w3.org/1999/xlink" x="0px" y="0px"
	 viewBox="-49 141 512 512" enable-background="new -49 141 512 512" xml:space="preserve">
<g>
	<g>
		<path fill="#2F383E" d="M85.5,335.9c37.1,0,67.2-30.1,67.2-67.2c0-23.2,8.2-44.4-9.7-56.4c-10.7-7.3-57.8-10.8-71.8-10.8
			c-16.6,0-38.1,13.5-49.8,23.4c-14.6,12.3-3.1,23.1-3.1,43.7C18.3,305.8,48.4,335.9,85.5,335.9z M38.7,262.1
			c12.3-2.2,20.7,1.8,20.7,1.8l20.6-10c0,0-10.5,15.2-1.1,10c21-7,44.5-4.1,56.4-1.8c0.4,2.6,0.8,5.3,0.8,8.1c0,27.7-22,50-49.2,50
			c-27.1,0-49.1-22.4-49.1-50C37.9,267.5,38.3,264.8,38.7,262.1z"/>
		<path fill="#2F383E" d="M413.4,259.3c-0.3-3.8-0.6-7.6-1.5-11.3c-2.7-23.6-23.7-71.4-84.2-70c-52.1,1.2-63.5,40.5-66.3,64.4
			c-1.8,5.9-3,12-3.4,18.4c-67.8,11.8-60.4,80.7-18.9,81.8c-3.9-35.9,13.2-57.5,19.8-64.5c6.1,37.1,38.1,65.6,77,65.6
			c36.8,0,67.5-25.6,75.8-59.9c6.3,11.2,17,34.1,14.4,58.7C491.3,342,459.2,267.4,413.4,259.3z M335.8,321.6
			c-30.5,0-55.3-24.6-56-54.9c11.1-4,19.4-23.3,19.4-23.3s6.6,2.3,6.6,24c11.5,4,31.6-33.8,31.6-33.8v29.8
			c12.7,3.5,52.8-1.1,52.8-1.1l1.5,1.3c0,0.6,0.2,1.3,0.2,1.9C392,296.4,366.8,321.6,335.8,321.6z"/>
		<polygon fill="#2F383E" points="352.2,345.7 319.2,345.7 291.6,345.7 210.9,443 132.8,346.9 44,346.9 -49,449 -29.5,469.1 
			37.1,412.3 37.1,522.5 50.4,522.5 50.4,606.3 41.9,606.3 41.9,616.1 80.6,616.1 80.6,606.3 80.6,522.5 95.1,522.5 95.1,606.3 
			95.1,616.1 133.7,616.1 133.7,606.3 125.2,606.3 125.2,522.5 141.4,522.5 141.4,414.4 194.6,469 216.4,463.7 228.4,466.7 
			288.7,397.7 292.1,425 236.1,521.3 300.7,521.3 300.7,605.1 292.2,605.1 292.2,614.8 330.9,614.8 330.9,605.1 330.9,605.1 
			330.9,521.3 345.4,521.3 345.4,605.1 345.4,614.8 384,614.8 384,605.1 375.5,605.1 375.5,521.3 425.6,521.3 376.2,425 
			378.9,391.4 426.1,454.5 457.3,446.8 382.6,345.7 		"/>
	</g>
</g>
</svg>
