<?xml version="1.0" encoding="utf-8"?>
<!-- Generator: Adobe Illustrator 18.1.1, SVG Export Plug-In . SVG Version: 6.00 Build 0)  -->
<svg version="1.1" id="Layer_1" xmlns="http://www.w3.org/2000/svg" xmlns:xlink="http://www.w3.org/1999/xlink" x="0px" y="0px"
	 viewBox="-49 141 512 512" enable-background="new -49 141 512 512" xml:space="preserve">
<g>
	<g>
		<g>
			<path fill="#2F383E" d="M29.3,201.4C29.3,201.4,29.3,201.4,29.3,201.4c-4.9,0-9.4,1.9-12.9,5.3c-3.5,3.5-5.4,8.1-5.4,13v274.7
				c0,10.1,8.2,18.3,18.3,18.3c42.6,0.1,114.1,9,163.4,60.6V285.8c0-3.4-0.9-6.6-2.5-9.3C149.8,211.4,72.1,201.5,29.3,201.4z"/>
			<path fill="#2F383E" d="M403,494.5V219.7c0-4.9-1.9-9.5-5.4-13c-3.4-3.4-8-5.3-12.8-5.3c0,0,0,0,0,0
				c-42.7,0.1-120.5,10-160.9,75.2c-1.6,2.7-2.5,5.9-2.5,9.3v287.5c49.3-51.6,120.7-60.5,163.4-60.6
				C394.7,512.8,403,504.5,403,494.5z"/>
			<path fill="#2F383E" d="M444.7,264.8h-13.3v229.7c0,25.7-21,46.7-46.7,46.8c-36.2,0.1-95.8,7.2-138.1,47.1
				c73.1-17.9,150.1-6.3,194,3.7c5.5,1.2,11.1,0,15.5-3.5c4.4-3.5,6.9-8.7,6.9-14.3V283.1C463,273,454.8,264.8,444.7,264.8z"/>
			<path fill="#2F383E" d="M-17.4,494.5V264.8h-13.3c-10.1,0-18.3,8.2-18.3,18.3v291.2c0,5.6,2.5,10.8,6.9,14.3
				c4.4,3.5,10,4.8,15.5,3.5c43.9-10,120.9-21.6,194-3.7c-42.2-40-101.9-47-138.1-47.1C3.6,541.2-17.4,520.2-17.4,494.5z"/>
		</g>
	</g>
</g>
</svg>
