<?xml version="1.0" encoding="utf-8"?>
<!-- Generator: Adobe Illustrator 18.1.1, SVG Export Plug-In . SVG Version: 6.00 Build 0)  -->
<svg version="1.1" id="Capa_1" xmlns="http://www.w3.org/2000/svg" xmlns:xlink="http://www.w3.org/1999/xlink" x="0px" y="0px"
	 viewBox="-49 141 512 512" enable-background="new -49 141 512 512" xml:space="preserve">
<g>
	<g>
		<g>
			<path fill="#2F383E" d="M190.9,653v-0.3v-67.1c-8.7,4-18.2,6.1-27.9,6.1c-9.1,0-17.9-1.8-26.3-5.4c-8-3.4-15.2-8.3-21.4-14.6
				c-12.7-12.8-19.5-29.9-19.3-47.9c0.2-17.5,7.2-33.9,19.7-46.3c12.4-12.4,28.9-19.4,46.4-19.6c0.3,0,0.6,0,0.9,0
				c9.7,0,19.2,2.1,27.9,6.1l0.1-66.8h-80c1.9-3.4,4.8-7.6,8.1-12.4c6.4-9.3,11.1-20,10.9-32.2c-0.3-27.4-22.7-49.8-50.2-50.2
				c-0.2,0-0.5,0-0.7,0c-28.1,0-50.9,22.8-50.9,50.9c0,11.9,4.7,22.4,10.9,31.5c3,4.4,6.2,9.1,8.1,12.4h-74.7
				c-11.8,0-21.4,9.6-21.4,21.4v213.1c0,11.8,9.6,21.4,21.4,21.4L190.9,653L190.9,653z"/>
			<path fill="#2F383E" d="M395.7,412.8c4,8.7,6.1,18.2,6.1,27.9c0,17.9-7,34.7-19.6,47.3c-12.6,12.6-29.4,19.6-47.3,19.6
				c-0.3,0-0.6,0-0.9,0c-17.5-0.2-33.9-7.2-46.3-19.7c-12.4-12.4-19.4-28.9-19.6-46.4c-0.1-10,2-19.8,6.1-28.8H223h-8h-8.1l0,80.2
				c-2.8-1.6-8.1-5.1-12.9-8.5c-8.9-6.2-19.4-10.6-31-10.6c-0.2,0-0.4,0-0.7,0c-27.4,0.3-49.8,22.7-50.2,50.2
				c-0.1,9.4,2.3,18.2,6.6,25.8c8.7,15.4,25.3,25.8,44.3,25.8c11.7,0,21.9-4.8,31-10.6c5.6-3.6,10.1-6.9,12.9-8.5v0.4v95.7h0.1h8h8
				h218.3c11.8,0,21.4-9.6,21.4-21.4V412.8H395.7z"/>
			<path fill="#2F383E" d="M441.4,141H207v98.1c0,0,8.6-7.4,11.3-9.4c8.8-7.3,20.1-11.7,32.5-11.7c28.3,0,51.3,23.2,50.9,51.6
				c-0.4,27.4-22.8,49.8-50.2,50.2c-0.2,0-0.4,0-0.7,0c-12.4,0-23.7-4.4-32.5-11.7c-2.7-1.9-11.3-9.4-11.3-9.4v98.1h16h80
				c-0.7,1.5-5,8-8.5,13c-6.4,9-10.7,19.7-10.5,31.6c0.3,27.4,22.7,49.8,50.2,50.2c0.2,0,0.5,0,0.7,0c13.2,0,25.1-5,34.2-13.2
				c10.3-9.3,16.7-22.7,16.7-37.7c0-11.7-4.4-22.1-10.5-31c-3.9-5.7-6.9-10-8.4-12.8c0-0.1-0.1-0.1-0.1-0.2h94.6h1.5v-9.1V162.4
				C462.8,150.6,453.2,141,441.4,141z"/>
		</g>
	</g>
</g>
</svg>
