<?xml version="1.0" encoding="utf-8"?>
<!-- Generator: Adobe Illustrator 18.1.1, SVG Export Plug-In . SVG Version: 6.00 Build 0)  -->
<svg version="1.1" id="Capa_1" xmlns="http://www.w3.org/2000/svg" xmlns:xlink="http://www.w3.org/1999/xlink" x="0px" y="0px"
	 viewBox="-49 141 512 512" enable-background="new -49 141 512 512" xml:space="preserve">
<g>
	<g>
		<path fill="#2F383E" d="M75.1,356.6c14.2-1.9,28.4,3,38.5,13.1l25.5,25.5l24.1-24l-34.8-34.7c-5.4-5.4-5.4-14.2,0-19.6
			c5.4-5.4,14.2-5.4,19.6,0l34.8,34.8l24.1-24l-25.6-25.6c-10.1-10.1-15-24.4-13.1-38.5c4.2-32.3-6-66-30.8-90.8
			c-25.3-25.3-59.8-35.4-92.6-30.6c-5.2,0.7-7.3,7.2-3.6,10.9l32.8,32.8c15.6,15.6,15.6,40.8,0,56.3l-20.2,20.2
			c-15.6,15.6-40.8,15.6-56.3,0l-32.9-32.8c-3.7-3.7-10.1-1.6-10.9,3.6c-4.9,32.8,5.3,67.4,30.6,92.6
			C9.1,350.6,42.9,360.9,75.1,356.6z"/>
		<path fill="#2F383E" d="M279.1,399.8l-24.1,24l143,143c5.4,5.4,5.4,14.2,0,19.6c-5.4,5.4-14.2,5.4-19.6,0l-143-143l-24.1,24
			l147.4,147.4c18.7,18.7,48.9,18.6,67.6-0.1c18.7-18.7,18.7-48.9,0.1-67.6L279.1,399.8z"/>
		<path fill="#2F383E" d="M334.3,304.3h63.6l63.6-127l-31.7-31.7L302.6,209v63.6L129.9,444.8l-31.1-31L-26.4,539
			c-26.1,26.1-26.1,68.3,0,94.4c26.1,26.1,68.3,26.1,94.4,0l125.2-125.2l-31.7-31.7L334.3,304.3z"/>
	</g>
</g>
</svg>
