<?xml version="1.0" encoding="utf-8"?>
<!-- Generator: Adobe Illustrator 18.1.1, SVG Export Plug-In . SVG Version: 6.00 Build 0)  -->
<svg version="1.1" id="Capa_1" xmlns="http://www.w3.org/2000/svg" xmlns:xlink="http://www.w3.org/1999/xlink" x="0px" y="0px"
	 viewBox="-49 141 512 512" enable-background="new -49 141 512 512" xml:space="preserve">
<g>
	<g>
		<polygon fill="#2F383E" points="-29.2,527.3 -29.2,309.7 188.8,309.7 175.9,289.9 -49,289.9 -49,547 114.1,547 143.2,527.3 		"/>
		<polygon fill="#2F383E" points="327.8,527.3 318.1,527.3 335.9,547 347.6,547 347.6,403.8 327.8,396.8 		"/>
		<rect x="97.4" y="353.4" fill="#2F383E" width="118" height="15.1"/>
		<rect x="53.5" y="392" fill="#2F383E" width="206" height="16.6"/>
		<rect x="53.5" y="426.8" fill="#2F383E" width="206" height="16.6"/>
		<rect x="53.5" y="459.7" fill="#2F383E" width="206" height="16.6"/>
		<path fill="#2F383E" d="M284.3,531.9c0-24.6-20-44.6-44.6-44.6c-24.6,0-44.5,19.9-44.5,44.6c0,24.6,19.9,44.5,44.5,44.5
			C264.4,576.5,284.3,556.5,284.3,531.9z"/>
		<polygon fill="#2F383E" points="239.8,599 275.9,644.6 293.1,599.4 341.1,593.1 305,547.5 		"/>
		<polygon fill="#2F383E" points="125.1,568 170.4,585.2 176.7,633.2 222.3,597.1 170.8,531.9 		"/>
		<polygon fill="#2F383E" points="186.6,149.4 173,168.5 214.9,198.4 170.6,260.7 246.7,357.6 357.4,393.8 401.8,331.5 422.2,346 
			390.7,390.2 380.5,382.9 353.9,420.3 385.6,442.9 412.2,405.5 405.4,400.6 436.9,356.5 449.3,365.4 463,346.3 		"/>
	</g>
</g>
</svg>
