<?xml version="1.0" encoding="utf-8"?>
<!-- Generator: Adobe Illustrator 18.1.1, SVG Export Plug-In . SVG Version: 6.00 Build 0)  -->
<svg version="1.1" id="Capa_1" xmlns="http://www.w3.org/2000/svg" xmlns:xlink="http://www.w3.org/1999/xlink" x="0px" y="0px"
	 viewBox="-49 141 512 512" enable-background="new -49 141 512 512" xml:space="preserve">
<g>
	<g>
		<path fill="#2F383E" d="M426.5,317.9c-2.1-15.6-2.4-42.4,12.1-51.4c0.3-0.2,0.5-0.4,0.7-0.6c11.8-3.8,20-9.1,13.6-16.2
			l-174.3-52.5L-3.8,236.4c0,0-32.3,4.6-29.4,54.8c1.6,27.3,10.1,40.8,17.6,47.4l-23.2,7c-6.4,7.1,1.7,12.4,13.6,16.2
			c0.2,0.2,0.4,0.4,0.7,0.6c14.4,9,14.2,35.8,12.1,51.4c-51.9,14.7-33.3,19.5-33.3,19.5l11.4,2.8c-8,7.2-16,21-14.5,47
			c2.9,50.2,29.4,53.7,29.4,53.7l184.7,60l278.8-67.5c0,0,18.6-4.8-33.3-19.5c-2.1-15.5-2.4-42.3,12.1-51.4c0.3-0.2,0.5-0.4,0.7-0.6
			c11.8-3.8,20-9.1,13.6-16.2l-12.1-3.7c8.1-4.9,20.2-17.6,22.1-50.7c1.3-22.8-4.6-36.1-11.5-43.9l24-5.8
			C459.7,337.5,478.4,332.6,426.5,317.9z M193.2,317.3l46.9-9.6l158.5-32.6l23.6-4.9c-7.5,13.8-7.2,32.7-6,44.8
			c0.3,2.7,0.6,5.3,0.9,7.2l-25.8,6.4l-200,49.8L193.2,317.3z M-8.2,366.1l23.6,4.9l152.2,31.3l13.3,2.7l0,0l0,0l39.9,8.2l2,61.1
			L17.2,423.2l-20.3-5c0.3-1.9,0.6-4.4,0.9-7.2C-1,398.8-0.6,379.9-8.2,366.1z M-17.4,288.8c-0.3-13.4,2.1-23,6.9-27.9
			c3.1-3.1,6.7-3.8,9.2-3.8c1.3,0,2.3,0.2,2.3,0.2L122.7,297l60.7,19.8l-2,61.6L11.1,330.6l-9-2.5c-0.3-0.1-0.8-0.2-1.1-0.2
			C0.3,327.8-16.5,326.3-17.4,288.8z M165.8,570.2l-179.2-50.2c-0.3-0.1-0.8-0.2-1.1-0.2c-0.7,0-17.6-1.6-18.4-39
			c-0.3-13.4,2.1-23,6.9-27.9c3.1-3.1,6.7-3.8,9.2-3.8c1.3,0,2.3,0.2,2.3,0.2c0,0,0,0,0,0l182.3,59.5L165.8,570.2z M400.7,506.9
			c0.3,2.8,0.6,5.3,0.9,7.2l-225.9,56.2l2-61.1l48.3-9.9l7.1,1.7l26.7-8.7L383,466.9l23.6-4.9C399.1,475.9,399.4,494.8,400.7,506.9z
			 M413.1,423.8c-0.4,0-0.8,0.1-1.2,0.2l-17,4.8l-162.2,45.5l-2-61.6l53.2-17.4l128.9-42c0,0,6.8-1.5,11.7,3.5
			c4.8,4.9,7.2,14.6,6.9,27.9C430.6,422.2,413.7,423.8,413.1,423.8z"/>
	</g>
</g>
</svg>
