<?xml version="1.0" encoding="utf-8"?>
<!-- Generator: Adobe Illustrator 18.1.1, SVG Export Plug-In . SVG Version: 6.00 Build 0)  -->
<svg version="1.1" id="Capa_1" xmlns="http://www.w3.org/2000/svg" xmlns:xlink="http://www.w3.org/1999/xlink" x="0px" y="0px"
	 viewBox="-49 141 512 512" enable-background="new -49 141 512 512" xml:space="preserve">
<g>
	<path fill="#2F383E" d="M174,332.1c21.2,0,38.5-17.2,38.5-38.5c0-21.3-17.2-38.5-38.5-38.5s-38.5,17.2-38.5,38.5
		C135.5,314.9,152.7,332.1,174,332.1z"/>
	<path fill="#2F383E" d="M49.9,587.3v51.5c0,7.9,6.4,14.2,14.2,14.2h200.4c7.9,0,14.2-6.4,14.2-14.2v-50.2h55.9
		c22.4,0,40.7-18.3,40.7-40.7v-71.2l32.8-0.6c13-0.2,21.2-14.1,15.1-25.6L387.4,383c-8-15-12.1-31.8-12.1-48.8l0,0l0,0
		c0-107.3-87.4-194.1-194.9-193.2C73.2,141.9-12.3,229.1-11.3,336.2c0.3,30.9,7.9,60,21.1,85.8C36.1,473.3,49.9,529.8,49.9,587.3z
		 M71.6,287c0-3.6,2.2-6.9,5.5-8.3l21.1-9c2.2-1,4-2.8,4.9-5c0.1-0.3,0.2-0.5,0.3-0.8c0.9-2.2,0.9-4.7,0-6.9l-8.7-21
		c-1.4-3.4-0.6-7.3,2-9.9l9.6-9.6c2.6-2.6,6.4-3.4,9.8-2l21.4,8.6c2.2,0.9,4.6,0.9,6.8,0c0.2-0.1,0.4-0.2,0.6-0.2
		c2.3-0.9,4.1-2.7,5.1-5l8.8-21.1c1.4-3.4,4.7-5.6,8.4-5.6h13.6c3.6,0,6.9,2.2,8.3,5.5l9.1,21.4c1,2.2,2.7,3.9,5,4.8
		c0.1,0.1,0.2,0.1,0.3,0.1c2.2,0.9,4.7,1,7,0l21.3-8.8c3.4-1.4,7.3-0.6,9.9,2l9.6,9.6c2.6,2.6,3.4,6.4,2,9.8l-8.7,21.6
		c-0.9,2.2-0.9,4.7,0.1,6.8c0,0.1,0.1,0.1,0.1,0.2c0.9,2.3,2.7,4.1,5,5.1l21.4,8.9c3.4,1.4,5.6,4.7,5.6,8.4v13.6
		c0,3.6-2.2,6.9-5.5,8.3l-21.5,9.2c-2.2,1-4,2.7-4.9,5l-0.1,0.3c-0.9,2.2-0.9,4.6,0.1,6.8l8.9,21.4c1.4,3.4,0.6,7.3-2,9.9l-9.6,9.6
		c-2.6,2.6-6.4,3.4-9.8,2l-21.6-8.7c-2.2-0.9-4.6-0.9-6.8,0.1c-0.1,0.1-0.3,0.1-0.4,0.2c-2.2,0.9-4,2.7-5,4.9l-8.8,21.4
		c-1.4,3.4-4.7,5.6-8.4,5.6h-13.6c-3.6,0-6.9-2.2-8.3-5.5l-9.1-21.2c-1-2.3-2.8-4-5.1-4.9c-0.2-0.1-0.4-0.2-0.6-0.2
		c-2.2-0.9-4.7-0.9-6.8,0l-21.1,8.7c-3.4,1.4-7.3,0.6-9.9-2l-9.6-9.6c-2.6-2.6-3.4-6.4-2-9.8l8.5-21.2c0.9-2.2,0.9-4.7-0.1-6.9
		c-0.1-0.3-0.2-0.5-0.3-0.8c-0.9-2.3-2.7-4.1-5-5l-21-8.7c-3.4-1.4-5.6-4.7-5.6-8.4L71.6,287L71.6,287L71.6,287z"/>
</g>
</svg>
