<?xml version="1.0" encoding="utf-8"?>
<!-- Generator: Adobe Illustrator 18.1.1, SVG Export Plug-In . SVG Version: 6.00 Build 0)  -->
<svg version="1.1" id="Capa_1" xmlns="http://www.w3.org/2000/svg" xmlns:xlink="http://www.w3.org/1999/xlink" x="0px" y="0px"
	 viewBox="-49 141 512 512" enable-background="new -49 141 512 512" xml:space="preserve">
<g>
	<path fill="#2F383E" d="M436.8,318.9c0,0-143.6,0-191,0c-3.9,0-3.7-4-3.7-4v-87.9c0-14.5-11.7-26.2-26.2-26.2c0,0-28.4,0-37.9,0
		c-5,0-4.3-3.9-4.3-3.9V169c0-14.5-11.7-26.2-26.2-26.2h-102c-14.5,0-26.2,11.7-26.2,26.2v27.3c0,0,0.8,4.4-5,4.4
		c-9,0-37.2,0-37.2,0c-14.5,0-26.2,11.7-26.2,26.2v398c0,14.5,11.7,26.2,26.2,26.2h459.6c14.5,0,26.2-11.7,26.2-26.2V345
		C463,330.6,451.1,318.9,436.8,318.9z M65.8,195.2h14.5c0,0,3.2,0.1,3.2-3c0-3.7,0-14.7,0-14.7c0-7.2,5.8-12.8,12.8-12.8
		c7.2,0,12.8,5.8,12.8,12.8c0,0,0,11.9,0,15.7c0,2.1,2.8,1.9,2.8,1.9H127c7.2,0,12.8,5.8,12.8,12.8c0,7.2-5.8,12.8-12.8,12.8h-14.5
		c0,0-3.2,0-3.2,2.6c0,3.9,0,15.2,0,15.2c0,7.2-5.8,12.8-12.8,12.8c-7.2,0-12.8-5.8-12.8-12.8c0,0,0-11.2,0-15c0-3-2.8-2.8-2.8-2.8
		H66.1c-7.2,0-12.8-5.8-12.8-12.8C53,201,58.8,195.2,65.8,195.2z M-1.2,290.1c0-3.9,3-6.9,6.9-6.9h58.7c3.9,0,6.9,3,6.9,6.9v31.4
		c0,3.9-3,6.9-6.9,6.9H5.7c-3.9,0-6.9-3-6.9-6.9V290.1z M-1.2,439.2v-31.4c0-3.9,3-6.9,6.9-6.9h58.7c3.9,0,6.9,3,6.9,6.9v31.4
		c0,3.9-3,6.9-6.9,6.9H5.7C1.9,446.1-1.2,442.9-1.2,439.2z M136,605.9c0,3.9-3,6.9-6.9,6.9H63.9c-3.9,0-6.9-3-6.9-6.9v-95.5
		c0-3.9,3-6.9,6.9-6.9h65.2c3.9,0,6.9,3,6.9,6.9L136,605.9L136,605.9z M194.1,439.2c0,3.9-3,6.9-6.9,6.9h-58.7c-3.9,0-6.9-3-6.9-6.9
		v-31.4c0-3.9,3-6.9,6.9-6.9h58.7c3.9,0,6.9,3,6.9,6.9V439.2L194.1,439.2z M194.1,321.5c0,3.9-3,6.9-6.9,6.9h-58.7
		c-3.9,0-6.9-3-6.9-6.9v-31.4c0-3.9,3-6.9,6.9-6.9h58.7c3.9,0,6.9,3,6.9,6.9V321.5L194.1,321.5z M321.3,541.7c0,3.9-3,6.9-6.9,6.9
		h-58.7c-3.9,0-6.9-3-6.9-6.9v-31.4c0-3.9,3-6.9,6.9-6.9h58.7c3.9,0,6.9,3,6.9,6.9V541.7z M321.3,424c0,3.9-3,6.9-6.9,6.9h-58.7
		c-3.9,0-6.9-3-6.9-6.9v-31.4c0-3.9,3-6.9,6.9-6.9h58.7c3.9,0,6.9,3,6.9,6.9V424z M427.6,541.7c0,3.9-3,6.9-6.9,6.9H362
		c-3.9,0-6.9-3-6.9-6.9v-31.4c0-3.9,3-6.9,6.9-6.9h58.7c3.9,0,6.9,3,6.9,6.9V541.7z M427.6,424c0,3.9-3,6.9-6.9,6.9H362
		c-3.9,0-6.9-3-6.9-6.9v-31.4c0-3.9,3-6.9,6.9-6.9h58.7c3.9,0,6.9,3,6.9,6.9V424z"/>
</g>
</svg>
