<?xml version="1.0" encoding="utf-8"?>
<!-- Generator: Adobe Illustrator 18.1.1, SVG Export Plug-In . SVG Version: 6.00 Build 0)  -->
<svg version="1.1" id="Capa_1" xmlns="http://www.w3.org/2000/svg" xmlns:xlink="http://www.w3.org/1999/xlink" x="0px" y="0px"
	 viewBox="-49 141 512 512" enable-background="new -49 141 512 512" xml:space="preserve">
<g>
	<path fill="#2F383E" d="M155.9,303.4c-3.6,1.7-7.1,3.4-10.3,5.1l27.8,60.8c1.9-6.5,5.2-12.5,9.7-17.5c-8.1-7.3-14.1-17-16.9-28.2
		c-2-8.1-2.1-16.4-0.5-24.4C162.4,300.5,159.1,301.9,155.9,303.4z"/>
	<path fill="#2F383E" d="M448.9,526.3h-5.8c-0.7,3.5-1.5,8-3.1,11.4c-11,23.3-33.8,26-53.4,16.1c-6.5-3.3-47.4-24.1-54.1-27.5H205.6
		l-34.6-141.6c-1.5-6.2-7.8-9.9-13.9-8.3l-35.1,9.3c-6,1.6-9.6,7.6-8.1,13.6c15.6,64.1,40.9,169.1,40.9,169.1H63.4
		c-6.8,0-12.4,5.5-12.4,12.4v4.6c0,6.8,5.5,12.4,12.4,12.4h14.8v22.7c0,3.4,2.8,6.2,6.2,6.2h19.7c3.4,0,6.2-2.8,6.2-6.2v-22.7h293.5
		v22.7c0,3.4,2.8,6.2,6.2,6.2h19.7c3.4,0,6.2-2.8,6.2-6.2v-22.7h16.9c5.4,0,10.3-4.3,10.3-10.8l-3.3-50
		C459.7,531.1,454.9,526.3,448.9,526.3z"/>
	<path fill="#2F383E" d="M331.2,413.2c10.1,5,17.1,15.3,17.2,27.3c0,4.4-0.9,8.6-2.5,12.5l4.7,6.4c0,0,74.9,37,76.2,37.7
		c0,0-19.1-27.1-60.9-84.3c-6.4-8.7-18.5-10.7-27.4-4.6L331.2,413.2z"/>
	<path fill="#2F383E" d="M201.7,339.4C201.7,339.4,201.7,339.4,201.7,339.4c7.7,4.9,17.2,6.8,26.8,4.4c9.2-2.3,16.9-8.1,21.6-16.3
		l0,0c4.3-7.4,5.8-16.3,3.7-25.1c-1.9-8-6.5-15-13.1-19.9c-4.9,4.6-11.4,7.2-18.3,7.2c-4,0-4.8-0.8-11.2-0.8
		c-5.9,0-12.7,0.8-19.8,2.3l0,0c-4.4,6.7-6.3,14.4-5.6,22C186.8,323.8,192.4,333.5,201.7,339.4z"/>
	<path fill="#2F383E" d="M222.3,497.7L222.3,497.7c2.4,8.3,9.9,14,19,14c0.1,0,0.1,0,0.2,0h94.3l62.9,31.4c9.9,5,21.9,1.1,26.9-8.8
		c5-9.8,1.1-21.9-8.8-26.9l-67.1-34.1c-2.8-1.4-5.9-2.2-9.1-2.2c-0.1,0-0.1,0-0.2,0c0,0-85.1,0-85.6,0c-14.4,0-24.5-9-27.1-15.7
		c-2.4-6.4-20.1-52.6-22.9-59.9l37,54.5c0,0,0.1,0.1,0.1,0.1c2.9,4.1,7.6,6.2,13,6.2h62.7c9.2-0.1,16.5-8.1,15.4-17.4
		c-0.9-7.8-7.6-14-15.7-13.9l-54.3,0.5l-33.5-49.4l39.1,34.3l21.2-0.2L279.1,366c-3.1-12.5-15.7-20.1-28.2-17.1l-40.4,9.9
		c-12.5,3.1-20.1,15.7-17.1,28.2C193.5,387,219.4,486.2,222.3,497.7z"/>
	<path fill="#2F383E" d="M81.8,332.9c1.9,0,3.7-1,4.8-2.6c9.7-15.6,31.9-33.1,60.5-46.2c23.6-10.8,46.6-16.3,64.2-16.3
		c5.8,0,11.2,0.8,11.2,0.8c1.9,0,3.7-1,4.8-2.6c9.7-15.6,31.9-33.1,60.5-46.2c18.6-8.5,36.9-13.7,52.4-15.6c2.3-0.3,4.2-1.9,4.8-4.1
		c0.6-2.2-0.2-4.6-2-6c-21.5-16.3-59.9-27-105.3-27c-37.2,0-79.1,7.2-120.2,24.2l-6.6-14.4c-2.6-5.7-9.4-8.4-15.3-5.7
		c-5.8,2.7-8.3,9.5-5.7,15.3l6.6,14.4C7.9,245.4-45.9,324.4-49,373.4c-0.1,2.3,1.1,4.4,3.2,5.4c2.1,1,4.5,0.6,6.2-0.9
		c11.5-10.5,27.4-21,46.1-29.5c23.6-10.8,46.6-16.3,64.2-16.3C76.5,332.1,81.8,332.9,81.8,332.9z"/>
</g>
</svg>
