<?xml version="1.0" encoding="iso-8859-1"?>
<!-- Generator: Adobe Illustrator 17.1.0, SVG Export Plug-In . SVG Version: 6.00 Build 0)  -->
<!DOCTYPE svg PUBLIC "-//W3C//DTD SVG 1.1//EN" "http://www.w3.org/Graphics/SVG/1.1/DTD/svg11.dtd">
<svg xmlns="http://www.w3.org/2000/svg" xmlns:xlink="http://www.w3.org/1999/xlink" version="1.1" id="Capa_1" x="0px" y="0px" viewBox="0 0 184.663 184.663" style="enable-background:new 0 0 184.663 184.663;" xml:space="preserve" width="512px" height="512px">
<path d="M160.715,13.132C144.675-1.53,126.518-1.51,112.946,1.78c-13.521,3.277-27.708,3.277-41.229,0  C58.145-1.51,39.988-1.53,23.947,13.132c-30.393,27.781-5.936,77.407,1.425,85.955c7.361,8.548,7.598,19.945,12.822,43.215  c5.224,23.27,11.872,45.352,25.169,42.028c13.297-3.324,16.859-19.47,20.183-41.078c0.229-1.486,0.467-2.88,0.713-4.19  c1.69-8.984,14.454-8.984,16.144,0c0.246,1.309,0.485,2.704,0.714,4.19c3.324,21.608,6.886,37.754,20.183,41.078  c13.297,3.324,19.945-18.758,25.169-42.028c5.224-23.27,5.461-34.667,12.822-43.215C166.652,90.539,191.109,40.913,160.715,13.132z   M67.883,23.925c-0.368,2.73-2.875,4.648-5.603,4.292c-0.977-0.121-22.653-2.514-28.743,21.15c-0.581,2.256-2.612,3.755-4.839,3.755  c-0.413,0-0.832-0.051-1.25-0.159c-2.674-0.688-4.284-3.414-3.596-6.088c6.673-25.93,28.913-30.025,39.741-28.572  C66.33,18.671,68.25,21.188,67.883,23.925z" fill="#0c2231"/>
<g>
</g>
<g>
</g>
<g>
</g>
<g>
</g>
<g>
</g>
<g>
</g>
<g>
</g>
<g>
</g>
<g>
</g>
<g>
</g>
<g>
</g>
<g>
</g>
<g>
</g>
<g>
</g>
<g>
</g>
</svg>
