<?xml version="1.0" encoding="utf-8"?>
<!-- Generator: Adobe Illustrator 18.1.1, SVG Export Plug-In . SVG Version: 6.00 Build 0)  -->
<svg version="1.1" id="Capa_1" xmlns="http://www.w3.org/2000/svg" xmlns:xlink="http://www.w3.org/1999/xlink" x="0px" y="0px"
	 viewBox="-49 141 512 512" enable-background="new -49 141 512 512" xml:space="preserve">
<g>
	<path fill="#2F383E" d="M434.4,534.8c0.6-1.8,0.9-3.7,0.9-5.7V318.5c0-10-8.1-18.1-18.1-18.1H316.6v224.1c0,3.6-0.7,7-1.8,10.2H303
		c0.6-1.8,0.9-3.7,0.9-5.7V239.9c0-10-8.1-18.1-18.1-18.1H128.1c-10,0-18.1,8.1-18.1,18.1v289.1c0,2,0.3,3.9,0.9,5.7H99.2
		c-1.1-3.2-1.8-6.6-1.8-10.2V300.5H-0.8c-10,0-18.1,8.1-18.1,18.1v210.5c0,2,0.3,3.9,0.9,5.7H-49v37.3h512v-37.3H434.4L434.4,534.8z
		 M35.3,461H9.4v-25.9h25.9V461z M35.3,415.5H9.4v-25.9h25.9V415.5z M35.3,371.6H9.4v-25.9h25.9V371.6z M75.7,461H49.8v-25.9h25.9
		V461z M75.7,415.5H49.8v-25.9h25.9V415.5z M75.7,371.6H49.8v-25.9h25.9V371.6z M247.2,533.6h-76v-94.9h76V533.6z M207,357.4
		c-35.2,0-63.7-28.5-63.7-63.7c0-35.2,28.5-63.7,63.7-63.7c35.2,0,63.7,28.5,63.7,63.7S242.2,357.4,207,357.4z M371.4,461h-25.9
		v-25.9h25.9V461z M371.4,415.5h-25.9v-25.9h25.9V415.5z M371.4,371.6h-25.9v-25.9h25.9V371.6z M411.8,461h-25.9v-25.9h25.9V461z
		 M411.8,415.5h-25.9v-25.9h25.9V415.5z M411.8,371.6h-25.9v-25.9h25.9V371.6z M222.8,277.9h24.4v31.6h-24.4v24.4h-31.6v-24.4h-24.4
		v-31.6h24.4v-24.4h31.6V277.9z"/>
</g>
</svg>
