<?xml version="1.0" encoding="utf-8"?>
<!-- Generator: Adobe Illustrator 18.1.1, SVG Export Plug-In . SVG Version: 6.00 Build 0)  -->
<svg version="1.1" id="Capa_1" xmlns="http://www.w3.org/2000/svg" xmlns:xlink="http://www.w3.org/1999/xlink" x="0px" y="0px"
	 viewBox="-49 141 512 512" enable-background="new -49 141 512 512" xml:space="preserve">
<g>
	<path fill="#2F383E" d="M388.3,199h-15v367.8c0,24.4-19.9,44.3-44.3,44.3H177.3H56.7v13.6c0,15.6,12.7,28.3,28.3,28.3h151.6h151.6
		c15.6,0,28.3-12.7,28.3-28.3V227.2C416.5,211.6,403.9,199,388.3,199z"/>
	<path fill="#2F383E" d="M177.3,595H329c15.6,0,28.3-12.7,28.3-28.3V199v-29.7c0-15.6-12.7-28.3-28.3-28.3H177.3h-50.4v9.4
		c0.1,1,0.2,2,0.2,3V215v15.8c0,22-17.9,39.8-39.8,39.8H71.4H9.8c-0.8,0-1.7-0.1-2.5-0.1h-9.8v296.2c0,15.6,12.7,28.3,28.3,28.3h31
		H177.3L177.3,595z M183,498.9H84.2c-7.4,0-13.4-6-13.4-13.4c0-7.4,6-13.4,13.4-13.4h98.9c7.4,0,13.4,6,13.4,13.4
		C196.5,492.9,190.4,498.9,183,498.9z M282,430.7H84.2c-7.4,0-13.4-6-13.4-13.4c0-7.4,6-13.4,13.4-13.4H282c7.4,0,13.4,6,13.4,13.4
		C295.3,424.7,289.3,430.7,282,430.7z M84.2,331.5H282c7.4,0,13.4,6,13.4,13.4c0,7.4-6,13.4-13.4,13.4H84.2c-7.4,0-13.4-6-13.4-13.4
		C70.8,337.5,76.8,331.5,84.2,331.5z"/>
	<path fill="#2F383E" d="M9.8,254.6h77.5c0.1,0,0.2,0,0.2,0c12.9-0.1,23.4-10.6,23.5-23.5c0-0.1,0-0.2,0-0.2v-77.5
		c0-7.2-5.9-11.9-12-11.9c-2.9,0-5.9,1.1-8.3,3.5L1.3,234.3C-6.2,241.8-0.9,254.6,9.8,254.6z"/>
</g>
</svg>
