<?xml version="1.0" encoding="utf-8"?>
<!-- Generator: Adobe Illustrator 18.1.1, SVG Export Plug-In . SVG Version: 6.00 Build 0)  -->
<svg version="1.1" id="Capa_1" xmlns="http://www.w3.org/2000/svg" xmlns:xlink="http://www.w3.org/1999/xlink" x="0px" y="0px"
	 viewBox="-49 141 512 512" enable-background="new -49 141 512 512" xml:space="preserve">
<g>
	<g>
		<path fill="#2F383E" d="M139.6,484.9l4.6-23.5c8.9-45.6,32.2-107.6,92.7-144.4l23.3-14.2L117,215.2
			c-17.1-10.5-36.8-16.1-56.9-16.1c-38.4,0-73.2,19.5-93.2,52.2C-64.4,302.7-48.2,370,3.2,401.4L139.6,484.9z M-4.6,268.7
			c13.9-22.7,38.1-36.3,64.8-36.3c13.9,0,27.6,3.9,39.5,11.1l98.2,60.1c-47.3,37.7-70,89.1-80.9,128.3l-96.5-59
			C-15.2,351.1-26.4,304.4-4.6,268.7z"/>
		<path fill="#2F383E" d="M413.1,401.5l-128-78.3l-2.4,1c-14.9,6.4-27.7,14.3-39.1,23.2L367,422.6c4.7,2.9,6.1,9,3.3,13.6
			c-1.9,3.1-5.1,4.7-8.4,4.7c-1.8,0-3.5-0.5-5.2-1.5c0,0-126.4-78.1-127.2-79.7c-45.2,44.1-57.8,104.3-61.3,133.1l-0.4,3.2
			l136.5,83.5c16.4,10,35.2,15.3,54.4,15.3c36.7,0,70-18.7,89.1-49.9C477.7,495.9,462.2,431.5,413.1,401.5z"/>
	</g>
</g>
</svg>
