<?xml version="1.0" encoding="utf-8"?>
<!-- Generator: Adobe Illustrator 18.1.1, SVG Export Plug-In . SVG Version: 6.00 Build 0)  -->
<svg version="1.1" id="Capa_1" xmlns="http://www.w3.org/2000/svg" xmlns:xlink="http://www.w3.org/1999/xlink" x="0px" y="0px"
	 viewBox="-49 141 512 512" enable-background="new -49 141 512 512" xml:space="preserve">
<g>
	<g id="icons_20_">
		<path fill="#2F383E" d="M341.2,203.1c-12.9,0-23.3,10.4-23.3,23.3v100.9c0,4.3-3.5,7.8-7.8,7.8c-4.3,0-7.8-3.5-7.8-7.8V179.8
			c0-12.9-10.4-23.3-23.3-23.3c-12.9,0-23.3,10.4-23.3,23.3v132c0,4.3-3.5,7.8-7.8,7.8s-7.8-3.5-7.8-7.8V164.3
			c0-12.9-10.4-23.3-23.3-23.3c-12.9,0-23.3,10.4-23.3,23.3v147.5c0,4.3-3.5,7.8-7.8,7.8c-4.3,0-5-3.5-5-7.8V195.3
			c0-12.9-10.4-23.3-23.3-23.3s-23.3,10.4-23.3,23.3c0,0,0.2,85.5,0.2,94.3c0,8.8,2.8,12.3,4.2,14.1c17.5,23.1,34,44.8,36.4,47.8
			c13.2,17.1,14.5,9.6,47.5,17.4c0,0,0,0,0.1,0c0,0,0,0,0,0s0,0,0,0c2.1,0.5,4.2,1.1,6.2,1.8c16.3,5.6,53.4,19.3,53.4,19.3
			c7,2.5,10.8,9.7,8.4,16.2c-2.4,6.4-10,9.6-17.1,7.1c0,0-15-4.3-16.5-4.8c-1.5-0.5-5.6-1.2-2,3.4c3.6,4.6,48,62.1,48,62.1
			c3.4,4.5,2.6,10.9-1.8,14.3c-4.5,3.4-10.9,2.6-14.3-1.8l-31.2-40.3c-1.1-1.5-2.3-2.5-3.8-1.4c-1.5,1.1-1.8,3.3-0.6,4.8l39.5,51.1
			c3.4,4.5,2.6,10.9-1.8,14.3c-4.5,3.4-10.9,2.6-14.3-1.8l-39.5-51.1c-1.1-1.5-3.3-1.8-4.8-0.6c-1.5,1.1-1.8,3.3-0.6,4.8l35.3,45.7
			c3.4,4.5,2.6,10.9-1.8,14.3c-4.5,3.4-10.9,2.6-14.3-1.8l-39.5-51.1c-1.1-1.5-3.3-1.8-4.8-0.6c-1.5,1.1-1.8,3.3-0.6,4.8l27,34.9
			c3.4,4.5,2.6,10.9-1.8,14.3c-4.4,3.4-10.9,2.6-14.3-1.8c0,0-49.4-63.9-56.1-72.6c-0.1-0.2-0.3-0.3-0.4-0.5
			c-22.1-29-9.4-42.6-24.1-63.2l-1.9-2.6c-4.4-5.7-11.5-15.2-19.7-26.3l-10.1-13.5c-9.3-14.4-27.5-19.2-40.8-10.9
			c-13.3,8.4-16.6,26.8-7.4,41.1c0,0,47.9,76.8,69.5,109.6c2.7,4.1,5.6,8,8.7,11.9c0,0,0,0,0,0c0,0,0,0,0,0c0,0,0.1,0.1,0.1,0.1
			c25.9,33.3,43.1,62.8,43.1,91.8c0,9.9-0.2,32-0.4,45.4c-0.2,8-2,17.6,12.3,17.6c14.3,0,109.9,0,119.3,0c12.1,0,11.9-9.1,12-13.1
			c1.2-49.3,0.3-12.5,0.3-49.9c0-62.1,44.4-67,44.9-152.5c0-0.5,0-1,0-1.4c0-25,0-209.6,0-209.6
			C364.5,213.5,354.1,203.1,341.2,203.1z"/>
	</g>
</g>
</svg>
