<?xml version="1.0" encoding="utf-8"?>
<!-- Generator: Adobe Illustrator 18.1.1, SVG Export Plug-In . SVG Version: 6.00 Build 0)  -->
<svg version="1.1" id="Capa_1" xmlns="http://www.w3.org/2000/svg" xmlns:xlink="http://www.w3.org/1999/xlink" x="0px" y="0px"
	 viewBox="-49 141 512 512" enable-background="new -49 141 512 512" xml:space="preserve">
<g id="XMLID_105_">
	<path id="XMLID_107_" fill="#2F383E" d="M343.5,467.9c-5-31.2-31.7-53.9-63.3-53.9c-1.3,0-2.5,0.3-3.8,0.3c-1.1-2.9-2.6-5.7-5.1-8
		l-59.1-53.8l-26.9-50.2l7.8,8.4l2-10.9c4.2-22.2-10.4-43.7-32.7-47.9l-17.2-3.3c-22.2-4.2-43.7,10.3-47.9,32.7L68.9,432.1
		c-0.9,4.9-1,10-0.2,14.9l12.6,76.2l-36.8,96.6c-4.8,12.6,1.5,26.7,14.1,31.5c12.5,4.8,26.7-1.4,31.5-14.1l39.2-102.7
		c1.5-4,2-8.4,1.3-12.6l-4.8-30l33.8,40.1l-1.2,96.2c-0.2,13.5,10.6,24.6,24.1,24.7c0.1,0,0.2,0,0.3,0c4.1,0,7.9-1.1,11.4-2.9
		c1.7,1.3,3.6,2.4,5.8,2.8c6.9,1.1,13.6-3.6,14.8-10.7l13.6-84.3h103.4l13.6,84.3c1,6.3,6.5,10.8,12.7,10.8c0.7,0,1.4,0,2.1-0.2
		c7-1.1,11.8-7.7,10.7-14.8L343.5,467.9z M216.9,467.9l-8.6,53.3c-0.4-5-2.1-9.9-5.4-13.8L164.5,462l12.3-65.1l-5.3-4.8l-4-3.6
		c-1.8-1.7-3.1-3.8-3.6-6.1l-14.6-60.7l28.6,53.2c1.1,2,2.5,3.9,4.2,5.4l55.1,50.1C226.8,440,219.3,452.9,216.9,467.9z M232.6,532.1
		l9.7-60c3-18.7,19-32.3,37.9-32.3c18.9,0,34.9,13.6,37.9,32.3l9.7,60.1L232.6,532.1L232.6,532.1z"/>
	<path id="XMLID_106_" fill="#2F383E" d="M187,235.4c25.8,4.9,50.8-12.1,55.6-37.9c4.9-25.8-12.1-50.7-37.9-55.6
		c-25.8-4.9-50.8,12.1-55.6,38C144.2,205.6,161.2,230.5,187,235.4z"/>
</g>
</svg>
