<?xml version="1.0" encoding="utf-8"?>
<!-- Generator: Adobe Illustrator 18.1.1, SVG Export Plug-In . SVG Version: 6.00 Build 0)  -->
<svg version="1.1" id="Capa_1" xmlns="http://www.w3.org/2000/svg" xmlns:xlink="http://www.w3.org/1999/xlink" x="0px" y="0px"
	 viewBox="-49 141 512 512" enable-background="new -49 141 512 512" xml:space="preserve">
<g>
	<g id="icons_25_">
		<g>
			<path fill="#2F383E" d="M119.6,354.8c19.6,0,35.4-15.9,35.4-35.4c0-19.6-15.9-35.4-35.4-35.4c-19.6,0-35.4,15.9-35.4,35.4
				C84.2,339,100,354.8,119.6,354.8z"/>
			<path fill="#2F383E" d="M232.8,231.2c10,1.9,17.7,7.1,19.2,12.1c0.7,2.1,2.6,3.6,4.9,3.6c2.2,0,4.2-1.5,4.9-3.6
				c1.9-6.2,11.8-12.8,26.3-12.8c10,0,19.2,3.3,23.9,8.6c1.4,1.6,3.6,2.1,5.6,1.4c2-0.7,3.3-2.6,3.3-4.7
				c0.4-16.5-2.1-47.4-23.8-69.7c-14.9-15.3-36.1-23.7-63.1-25.1l-15.3,0c-27.5,1.2-49.1,9.7-64.2,25.1
				c-21.7,22.2-24.2,53.2-23.8,69.7c0.1,2.1,1.4,3.9,3.3,4.7c2,0.7,4.2,0.2,5.6-1.4c4.7-5.3,13.9-8.6,23.9-8.6
				c14.5,0,24.4,6.6,26.3,12.8c0.7,2.1,2.6,3.6,4.9,3.6c2.2,0,4.2-1.5,4.9-3.6c1.6-5.1,8.6-10.5,19.2-12.2v91.1
				c-1.6,1.8-2.5,4.1-2.5,6.7v18.7c0,0-37.1,17.1-53.7,22.2c-7.3,2.3-15.4,6.4-22.8,0.8c-12-9-40-11.3-55.3,4.9
				c-15.2,16.2-47.4,55-61.3,75.8c-5.7,8.5-3.4,20,5.1,25.7c3.2,2.1,6.7,3.1,10.3,3.1c6,0,11.8-2.9,15.4-8.2
				c5.4-8,18.5-27.1,26.8-37.7c1.1-1.4,2.9-1,3,0.5c0.9,20.7,0.5,39.1,1.2,65.3c0.1,5.2-0.1,7.3-3.4,14.9
				c-3.3,7.6-31.3,71-43.7,113.2c-3,10.3,2.9,21.1,13.2,24.2c2.3,0.7,4.7,0.9,7,0.7c7.8-0.6,14.8-5.9,17.2-13.9
				c11.4-38.9,38.1-101.6,39.2-103.9c1-2.1,2.8-1.4,3.2,0c0.3,1,26.6,72.1,37.6,104.9c8,23.9,45.2,11.5,37.1-12.4
				c-12-35.9-28.6-78.2-40.6-114.1c-0.7-2.1-2.4-10.1-2.6-12.8c-1.7-19.4-2.9-78-2.9-82.7s3-6.5,5.2-7.3
				c37.8-13.1,58-18.7,75.5-33.6c2.2-1.9,3.9-3.9,5-6c2.6-4.4,3.7-9.6,3.7-15.2v-27.2c0-2.6-1-4.9-2.5-6.7L232.8,231.2L232.8,231.2z
				"/>
			<path fill="#2F383E" d="M332.4,372.9c-3.8-0.4-8.2-0.8-13-0.8c-4.7,0-9.2,0.4-13,0.8c-49.6,5.7-65.7,63.2-61.1,106.9
				c2,18.9,31.8,19.1,29.8,0c-1.5-14.5-1.1-35.8,5.5-52.4c0.6-1.6,2.1-1.9,2.1,0.1c0,32.3-0.2,162.4-2.1,209
				c-0.9,22,33.2,21.9,34.1,0c1.6-38.7,2.1-112.8,2.1-116.3c0-1.9,1.4-2.7,2.7-2.6c1.3-0.1,2.7,0.7,2.7,2.6
				c0,3.5,0.5,77.5,2.1,116.3c0.9,21.9,35,22,34.1,0c-1.9-46.6-2.1-176.7-2.1-209c0-2,1.4-1.7,2.1-0.1c6.5,16.6,7,37.9,5.4,52.4
				c-2,19.1,27.8,18.9,29.8,0C398.1,436.1,382,378.7,332.4,372.9z"/>
			<path fill="#2F383E" d="M319.5,296.7c-0.2,0-0.4,0-0.5,0c-18.2,0-33,14.8-33,33c0,18.2,14.8,33,33,33c0.2,0,0.4,0,0.5,0
				c0.2,0,0.4,0,0.5,0c18.2,0,33-14.8,33-33c0-18.2-14.8-33-33-33C319.8,296.7,319.7,296.7,319.5,296.7z"/>
		</g>
	</g>
</g>
</svg>
