<?xml version="1.0" encoding="utf-8"?>
<!-- Generator: Adobe Illustrator 18.1.1, SVG Export Plug-In . SVG Version: 6.00 Build 0)  -->
<svg version="1.1" id="Capa_1" xmlns="http://www.w3.org/2000/svg" xmlns:xlink="http://www.w3.org/1999/xlink" x="0px" y="0px"
	 viewBox="-49 141 512 512" enable-background="new -49 141 512 512" xml:space="preserve">
<g>
	<g>
		<circle fill="#2F383E" cx="130.5" cy="193.4" r="52.4"/>
		<circle fill="#2F383E" cx="266.3" cy="193.4" r="52.4"/>
		<path fill="#2F383E" d="M312.2,541c-0.5,0-1.1,0.1-1.6,0.1c-11.2,0-20.3-9.1-20.3-20.3c0-63.5,39.8-89.9,41.5-91
			c0.4-0.2,0.8-0.4,1.1-0.6c0,0,0,0,0,0c0-0.2-0.1-0.5-0.2-0.7c-8.7-7.4-14.3-18.4-14.3-30.8c0-5.9,1.3-11.5,3.6-16.6
			c-0.8-3.6-1.6-6.7-2.2-9v-39.2c4.5,9.4,8.1,21.3,10.1,36.6c7.3-7.5,17.5-12.1,28.8-12.1c3.7,0,7.3,0.5,10.7,1.5
			c-9.5-58.6-38.5-81.7-68.2-99.9c-1-0.6-2.1-1.1-3.2-1.6c-5.9-3.9-12.4-6.7-19.1-8.3c0,0-0.1,0-0.1,0l-12.7,13.3l-13.1-13.2
			c-7.3,1.8-14.4,5-20.6,9.5c-0.2,0.1-0.4,0.2-0.6,0.3c-11.6,7.1-23.1,15-33.4,25.5c-10.2-10.9-22.1-19.5-34.3-27
			c-1.8-1.1-3.7-1.8-5.7-2.3c-4.8-2.7-9.9-4.7-15.1-6l-13.1,13.2l-12.7-13.3c0,0-0.1,0-0.1,0c-6.7,1.6-13.2,4.4-19.1,8.3
			c-1.1,0.4-2.2,0.9-3.2,1.6c-31.1,19.1-59.5,45.3-64.6,103c5.5-2.9,11.8-4.6,18.5-4.6c8.2,0,15.8,2.5,22.1,6.7
			c1-10.2,2.8-18.8,5.5-26.2v30.6c7.6,7.3,12.4,17.5,12.4,28.8c0,10.2-3.9,19.4-10.2,26.5c0.2,0.7,0.4,1.4,0.7,2
			c-0.1,1.1-0.2,2.1-0.2,3.2v2.3c0.2,0.2,0.4,0.3,0.6,0.5c7.4,5.5,39,32.2,39,88.4c0,11.1-9,20.2-20.2,20.2c-4.3,0-8.2-1.3-11.5-3.6
			c-0.1,0.4-0.3,0.7-0.5,1.1l0,97.7c0,1.8-0.2,3.6-0.6,5.2c4.4,4.5,10.5,7.3,17.2,7.3c13.3,0,24.1-10.8,24.1-24.1l0-167.3
			c1,0,1.9,0.1,2.9,0.1c0.2,0,0.4,0,0.6,0l0,167.2c0,13.3,10.8,24.1,24.1,24.1c13.3,0,24.1-10.8,24.1-24.1l0-193.8
			c0.3-0.6,0.6-1.2,0.9-1.8c0.3,0,0.6,0.1,0.9,0.1c0.1,0,0.2,0,0.3,0c6-0.1,11.4-2.8,15.1-7c1.3,1.2,2.8,2.2,4.3,3
			c-8.4,38.1-17.8,82.7-17.9,92.5c0,8,14.4,14.9,34.7,19.2v87.8c0,13.3,10.8,24.1,24.1,24.1c13.3,0,24.1-10.8,24.1-24.1v-83
			c1.1,0,2.3,0,3.4,0l0,83c0,13.3,10.8,24.1,24.1,24.1c13.3,0,24.1-10.8,24.1-24.1l0-40.1h-12.6L312.2,541z"/>
		<circle fill="#2F383E" cx="51.8" cy="396.4" r="30.7"/>
		<path fill="#2F383E" d="M101.4,530.3c6,0,10.9-4.9,10.9-10.9c0-52.6-29.3-76.6-35.5-81.2c-2.1-1.9-4.9-3.8-8.5-5.8
			c-2.8-1.6-5.8-2.7-8.8-3.5l-7.6,7.7l-7.4-7.8c0,0,0,0-0.1,0c-4.8,1.1-9.4,3.4-13.3,6.5c-0.3,0.2-0.7,0.3-1,0.5
			c-1.5,1-36.8,24.4-36.8,82c0,6,4.9,10.9,10.9,10.9c6,0,10.9-4.9,10.9-10.9c0-13.1,2.2-23.8,5.3-32.6v38.1c0,3.2,0.6,6.2,1.7,8.9
			c-0.1,0.6-0.1,1.3-0.1,1.9l0,100.5c0,7.8,6.3,14.1,14.1,14.1c7.8,0,14.1-6.3,14.1-14.1v-84.4c0.6,0,1.1,0.1,1.7,0.1
			c0.1,0,0.2,0,0.3,0v84.3c0,7.8,6.3,14.1,14.1,14.1s14.1-6.3,14.1-14.1l0-99.8c1.8-3.4,2.9-7.3,2.9-11.5v-41.8
			c4.2,9.5,7.3,22,7.3,37.8C90.5,525.4,95.4,530.3,101.4,530.3z"/>
		<circle fill="#2F383E" cx="359.3" cy="396.9" r="31.1"/>
		<path fill="#2F383E" d="M384.7,439.3c-2.1-1.9-4.9-3.8-8.7-5.9c-2.8-1.6-5.9-2.8-9-3.5l-7.8,7.8l-7.5-7.9c0,0,0,0-0.1,0
			c-4.8,1.2-9.5,3.4-13.5,6.6c-0.3,0.2-0.7,0.3-1,0.5c-1.5,1-37.3,24.7-37.3,83.2c0,6.1,5,11.1,11.1,11.1c6.1,0,11.1-5,11.1-11.1
			c0-13.3,2.2-24.2,5.4-33.1v22.7l-11.3,64H329l0,64.9c0,7.9,6.4,14.3,14.3,14.3c7.9,0,14.3-6.4,14.3-14.3v-64.9h2l0,64.9
			c0,7.9,6.4,14.3,14.3,14.3c7.9,0,14.3-6.4,14.3-14.3v-64.9h14.2l-11.2-63.5v-27c4.2,9.7,7.4,22.3,7.4,38.4c0,6.1,5,11.1,11.1,11.1
			c6.1,0,11.1-5,11.1-11.1C420.8,468.3,391.1,443.9,384.7,439.3z"/>
	</g>
</g>
</svg>
