<?xml version="1.0" encoding="utf-8"?>
<!-- Generator: Adobe Illustrator 18.1.1, SVG Export Plug-In . SVG Version: 6.00 Build 0)  -->
<svg version="1.1" id="Capa_1" xmlns="http://www.w3.org/2000/svg" xmlns:xlink="http://www.w3.org/1999/xlink" x="0px" y="0px"
	 viewBox="-49 141 512 512" enable-background="new -49 141 512 512" xml:space="preserve">
<g id="XMLID_821_">
	<path id="XMLID_822_" fill="#2F383E" d="M445,263.2c-0.1-22.2-18.2-40.2-40.4-40.2c-11.2,0-78.6,0-89.7,0
		c17.9,11.9,29.9,32.2,30,55.2l0.7,137.8c0.1,10.9-4.1,21.2-11.8,29c-5.7,5.7-12.8,9.6-20.5,11.2v94.1c0,11.3,9.2,20.5,20.5,20.5
		c11.3,0,20.5-9.2,20.5-20.5V391c0-2.4,2-4.4,4.4-4.4c2.4,0,4.4,2,4.4,4.4v159.3c0,11.3,9.2,20.5,20.5,20.5
		c11.3,0,20.5-9.2,20.5-20.5c0-186-0.4-175.2-0.4-286.9c0-2,1.6-3.6,3.6-3.6c2,0,3.6,1.6,3.6,3.5l0,0l0.6,125.4
		c0,9.4,7.7,17,17.1,17c0,0,0.1,0,0.1,0c9.4,0,17-7.7,17-17.2L445,263.2z"/>
	<path id="XMLID_882_" fill="#2F383E" d="M358.9,211.8c19.5,0,35.4-15.8,35.4-35.4c0-19.5-15.8-35.4-35.4-35.4
		c-19.5,0-35.4,15.8-35.4,35.4C323.5,195.8,339.3,211.8,358.9,211.8z"/>
	<path id="XMLID_883_" fill="#2F383E" d="M304.8,435c10.4-0.1,18.7-8.5,18.7-18.9l-0.7-137.8c-0.1-24.4-20-44.2-44.4-44.2h-50.3
		h-0.2h-50.3c-2.7,0-5.3,0.3-7.9,0.7c15.6,12.8,25.6,32.1,25.7,53.8l0.6,116.5c13.6,4.9,23.4,18,23.4,33.2v3.7
		c17,0.8,30.7,14.8,30.7,32.1v84.5c0,12.4-7.1,23.2-17.4,28.5v6.5c0,12.4,10.1,22.5,22.5,22.5s22.5-10.1,22.5-22.5
		c0-28.9-0.4-316.5-0.4-315.3c0-2.2,1.8-3.9,3.9-3.9c2.2,0,3.9,1.7,3.9,3.9l0,0l0.7,137.8C286,426.6,294.4,435,304.8,435
		C304.7,435,304.8,435,304.8,435z"/>
	<path id="XMLID_884_" fill="#2F383E" d="M178.1,590.9v2.9c0,12.4,10.1,22.5,22.5,22.5s22.5-10.1,22.5-22.5v-3.3
		C219.7,591.1,221.9,590.9,178.1,590.9z"/>
	<path id="XMLID_885_" fill="#2F383E" d="M71.4,227.8c23.1,0,41.9-18.7,41.9-41.9c0-23.2-18.8-41.9-41.9-41.9
		c-23.1,0-41.9,18.7-41.9,41.9C29.5,209.1,48.3,227.8,71.4,227.8z"/>
	<path id="XMLID_886_" fill="#2F383E" d="M76.4,588v40.7c0,13.4,10.9,24.3,24.3,24.3s24.3-10.9,24.3-24.3v-37.8H89.8
		C85,590.9,80.5,589.9,76.4,588z"/>
	<path id="XMLID_893_" fill="#2F383E" d="M228,474.3c0-5.5-4.5-10-10-10h-22.1c0-9.8,0-16.2,0-25.8c0-6.5-5.3-11.8-11.8-11.8l0,0
		H174l-0.1-23.5l-0.6-114.3c-0.1-26.2-21.6-47.6-47.8-47.6H71.2H17c-26.2,0-47.7,21.4-47.8,47.6l-0.7,148.5
		c-0.1,11.2,8.9,20.3,20.1,20.3c0,0,0.1,0,0.1,0c11.1,0,20.2-9,20.2-20.1L9.6,289c0-2.2,1.8-3.9,3.9-3.9c2.2,0,3.9,1.8,3.9,3.9
		l0,339.8c0,13.4,10.9,24.3,24.3,24.3s24.3-10.9,24.3-24.3v-48.4c-5.2-5.7-8.3-13.3-8.3-21.6v-84.5c0-8.3,3.2-15.9,8.3-21.6v-12.6
		c0-2.9,2.3-5.2,5.2-5.2s5.2,2.3,5.2,5.2v4.9c3.7-1.7,7.7-2.7,11.9-2.9v-3.7c0-18.5,14.6-35.3,36.1-35.3V289.2
		c0-2.3,1.8-4.2,4.1-4.2c2.3-0.1,4.2,1.7,4.3,4c0,0,0,0,0,0l0.6,114.1l0.1,23.5h-10c-6.5,0-11.8,5.3-11.8,11.8v25.8H89.8
		c-5.5,0-10,4.5-10,10v84.5c0,5.5,4.5,10,10,10H218c5.5,0,10-4.5,10-10L228,474.3L228,474.3z M153.9,457.6c0,0,0.1,0,0.1,0
		c6.3,0,11.8-2.9,15.5-7.4h2.8v14.1h-36.9v-14.1l0,0h2.8C142,454.7,147.6,457.6,153.9,457.6z"/>
	<path id="XMLID_895_" fill="#2F383E" d="M228.2,221.8c21.5,0,38.9-17.4,38.9-38.9c0-21.5-17.4-38.9-38.9-38.9s-38.9,17.4-38.9,38.9
		C189.3,204.4,206.7,221.8,228.2,221.8z"/>
</g>
</svg>
