<?xml version="1.0" encoding="utf-8"?>
<!-- Generator: Adobe Illustrator 18.1.1, SVG Export Plug-In . SVG Version: 6.00 Build 0)  -->
<svg version="1.1" id="Capa_1" xmlns="http://www.w3.org/2000/svg" xmlns:xlink="http://www.w3.org/1999/xlink" x="0px" y="0px"
	 viewBox="-49 141 512 512" enable-background="new -49 141 512 512" xml:space="preserve">
<g>
	<g>
		<path fill="#2F383E" d="M72,257.5c19.3,0,37.6-9.8,48.4-25.8c10.9-16.2,12.9-37.5,5.1-55.4c-7.5-17.5-23.6-30.5-42.3-34.2
			c-19.1-3.7-39.3,2.5-52.9,16.5c-13.6,14-19.4,34.3-15.2,53.3c4.1,18.6,17.5,34.4,35.2,41.4C57.2,256.1,64.6,257.5,72,257.5z"/>
		<g>
			<path fill="#2F383E" d="M139.1,401.6C140.4,398,139,400.7,139.1,401.6L139.1,401.6z"/>
			<path fill="#2F383E" d="M180.2,383.3c0.9-8.7,1.1-17.4,1.3-26.2c-0.2-7.8-0.4-15.7-1.6-23.4c-1.5-12-4.3-24.1-8.9-35.3l-1.8-4.5
				c-2.1-4.4-4.3-8.7-6.7-13c-5.1-8.2-10.9-15.8-17.9-22.6c-2.3-2.1-4.5-4.2-6.8-6c-2.3-1.9-4.6-3.6-6.9-5.2c-2.9-1.9-5.9-3.8-9-5.5
				c-15.3,16.8-38.6,24.8-61,20.9c-14.7-2.5-28.4-10.1-38.4-21.1c-0.8,0.4-1.6,0.9-2.5,1.4c-2.3,1.3-4.5,2.8-6.9,4.3
				c-2.3,1.6-4.6,3.3-6.9,5.2c-2.3,1.8-4.5,3.9-6.8,6c-6.9,6.8-12.8,14.3-17.9,22.6c-2.4,4.3-4.6,8.6-6.7,13l-1.8,4.5
				c-4.6,11.3-7.4,23.3-8.9,35.3c-1.2,7.7-1.3,15.6-1.6,23.4c0.1,6.9,0.3,13.7,0.8,20.6c0.3,4.9,1,9.9,1.5,14.8
				c1,9,9.2,15.9,18.2,15.4c9.1-0.5,16.3-8.3,16.2-17.4l0-0.8c0-4.1-0.2-8.3,0-12.4c0.2-6.1,0.6-12.1,1.1-18.1
				c0.8-6.2,1.5-12.5,3.1-18.6c1.9-8.5,4.8-17,8.9-24.7l1.5-2.8l1.6-2.7c1-1.8,2.3-3.4,3.4-5.1c0.1-0.1,0.2-0.2,0.3-0.4L5.8,399
				c-2.3,16.3,1.5,33.1,10.6,46.8l8.9,187.9c0.5,9.9,8.5,18.2,18.3,19.1c9.7,0.9,19-5.6,21.4-15.1c0.3-1.3,0.5-2.7,0.6-4.1L72,490.9
				l6.7,142.9c0.5,9.9,8.4,18.3,18.3,19.1c9.7,0.9,19-5.6,21.4-15.1c0.3-1.3,0.5-2.7,0.6-4.1l8.5-187c6-8.7,10-18.8,11.4-29.5
				c2.7,3.9,8.2,5,12.2,2.4c1.8-1.2,3.1-2.9,3.8-5c0.3-1.1,0.3-2.2,0.4-3.3c0.1-1.5,0.4-3,1-4.4c7,2.5,14.9,0.1,19.5-5.8
				c3.5,2.4,5.8,6.4,5.8,10.9v225.8c0,4.9,4.1,9,9,9s9-4.1,9-9V412.1C199.5,399.1,191.5,388,180.2,383.3z M144.8,391.9
				c-2.4,2.8-4.4,6.1-5.7,9.7c-0.1-0.9-0.2-1.7-0.3-2.6l-13.3-93.1c1,1.5,2.1,2.9,3,4.5l1.6,2.7l1.5,2.8c4.1,7.7,7,16.2,8.9,24.7
				c1.7,6,2.3,12.4,3.2,18.6c0.5,6.1,0.9,12.1,1.1,18.1c0.2,4.1,0,8.3,0,12.4l0,0.9C144.7,391,144.8,391.4,144.8,391.9z"/>
		</g>
		<path fill="#2F383E" d="M319.1,257.5c19.3,0,37.6-9.8,48.4-25.8c10.9-16.2,12.9-37.5,5.1-55.4c-7.5-17.5-23.6-30.5-42.3-34.2
			c-19.1-3.7-39.3,2.5-52.9,16.5c-13.6,14-19.4,34.3-15.2,53.3c4.1,18.6,17.5,34.4,35.2,41.4C304.3,256.1,311.7,257.5,319.1,257.5z"
			/>
		<g>
			<path fill="#2F383E" d="M427.3,382.7c0.9-8.5,1.1-17,1.2-25.5c-0.2-7.8-0.4-15.7-1.6-23.4c-1.5-12-4.3-24.1-8.9-35.3l-1.8-4.5
				c-2.1-4.4-4.3-8.7-6.7-13c-5.1-8.2-10.9-15.8-17.9-22.6c-2.3-2.1-4.5-4.2-6.8-6c-2.3-1.9-4.6-3.6-6.9-5.2c-2.9-1.9-5.9-3.8-9-5.5
				c-15.3,16.8-38.6,24.8-61,20.9c-14.7-2.5-28.4-10.1-38.4-21.1c-0.8,0.4-1.6,0.9-2.5,1.4c-2.3,1.3-4.5,2.8-6.9,4.3
				c-2.3,1.6-4.6,3.3-6.9,5.2c-2.3,1.8-4.6,3.9-6.8,6c-6.9,6.8-12.8,14.3-17.9,22.6c-2.4,4.3-4.6,8.6-6.7,13l-1.8,4.5
				c-4.6,11.3-7.4,23.3-8.9,35.3c-1.2,7.7-1.3,15.6-1.6,23.4c0.1,6.9,0.3,13.7,0.8,20.6c0.3,4.9,1,9.9,1.5,14.8
				c1,9,9.2,15.9,18.2,15.4c9.1-0.5,16.3-8.3,16.2-17.4l0-0.8c0-4.1-0.2-8.3,0-12.4c0.2-6.1,0.6-12.1,1.1-18.1
				c0.8-6.2,1.5-12.5,3.2-18.6c1.9-8.5,4.8-17,8.9-24.7l1.5-2.8l1.7-2.7c1-1.8,2.3-3.4,3.4-5.1c0.1-0.1,0.2-0.2,0.3-0.4l-13.5,94
				c-0.4,2.6-0.6,5.3-0.6,8c-7.2,22.6-13.3,45.5-17.8,68.8c-5.2,26.5-8.5,53.5-8.9,80.6c0,3.5-0.1,6.7,2.1,9.6
				c1.9,2.5,5,4.1,8.2,4.1H270l3,63.7c0.5,9.9,8.5,18.2,18.3,19.1c9.7,0.9,19-5.6,21.4-15.1c0.3-1.3,0.5-2.7,0.6-4.1l2.9-63.6h7.2
				l3,63.7c0.5,9.9,8.4,18.3,18.3,19.2c9.7,0.9,19-5.6,21.4-15.1c0.3-1.3,0.5-2.7,0.6-4.1l2.9-63.6h33.9c2.8,0,5.6-1.2,7.5-3.3
				c2.1-2.2,2.8-4.9,2.8-7.9c0-6.9-0.3-13.8-0.7-20.7c-0.8-13.6-2.3-27.2-4.4-40.6c-3.8-24.7-9.4-49.2-16.4-73.2
				c-0.7-2.5-1.4-4.9-2.2-7.4c2.2,4.4,7.8,6.3,12.2,4c2-1,3.5-2.8,4.3-4.9c0.4-1.1,0.5-2.3,0.6-3.5c0-1.6,0.4-3.2,1-4.7
				c6.3,0.3,12-2.8,15.3-7.7c5.7,1.4,10,6.6,10,12.8v225.8c0,4.9,4.1,9,9,9c4.9,0,9-4.1,9-9V413
				C451.5,398.2,441.1,385.8,427.3,382.7z M390.2,405.5c-0.7,2.7-1.2,5.9-0.8,8.7c-1-3.2-2-6.3-2.9-9.3c-0.1-1.9-0.3-3.9-0.6-5.9
				l-13.3-93.1c1,1.5,2.1,2.9,3,4.5l1.6,2.7l1.5,2.8c4.1,7.7,7,16.2,8.9,24.7c1.7,6,2.3,12.4,3.2,18.6c0.5,6,0.9,12.1,1.1,18.1
				c0.2,4.1,0,8.3,0,12.4l0,0.9c0,2.5,0.5,4.9,1.5,7.1C391.9,400.1,390.8,402.8,390.2,405.5z"/>
			<path fill="#2F383E" d="M389.3,414.2C389.3,413.8,388.4,411,389.3,414.2L389.3,414.2z"/>
		</g>
	</g>
</g>
</svg>
