<?xml version="1.0" encoding="utf-8"?>
<!-- Generator: Adobe Illustrator 18.1.1, SVG Export Plug-In . SVG Version: 6.00 Build 0)  -->
<svg version="1.1" id="Capa_1" xmlns="http://www.w3.org/2000/svg" xmlns:xlink="http://www.w3.org/1999/xlink" x="0px" y="0px"
	 viewBox="-49 141 512 512" enable-background="new -49 141 512 512" xml:space="preserve">
<g>
	<g>
		<path fill="#2F383E" d="M107,212c-2.7-6.2-4.1-12.9-4.1-20.2c0-6.9,1.4-13.5,4.1-19.7c2.7-6.2,6.4-11.6,10.9-16.1
			c4.6-4.6,9.9-8.2,16.1-10.9s12.9-4.1,20.2-4.1c6.9,0,13.5,1.4,19.7,4.1s11.7,6.4,16.4,10.9s8.4,9.9,10.9,16.1
			c2.5,6.2,3.8,12.7,3.8,19.7c0,14.2-4.9,26.3-14.8,36.3c-9.8,10-21.9,15-36.1,15c-7.3,0-14-1.4-20.2-4.1
			c-6.2-2.7-11.6-6.4-16.1-10.9C113.4,223.6,109.7,218.2,107,212z M305.6,491.8c-6.2-1.5-11.7-0.5-16.7,2.7
			c-4.9,3.3-8.1,7.8-9.6,13.7c-1.1,5.5-2.7,10.7-4.9,15.8c-4.7,12.7-11.4,24.4-19.9,35c-8.6,10.6-18.4,19.7-29.5,27.3
			c-11.1,7.6-23.3,13.6-36.6,17.8c-13.3,4.2-27,6.3-41.3,6.3c-18.6,0-36.1-3.5-52.5-10.4c-16.4-6.9-30.7-16.2-42.9-27.9
			c-12.2-11.7-21.9-25.4-29-41.3C15.8,515,12.2,498,12.2,479.8c0-13.5,2.1-26.5,6.3-39.1c4.2-12.6,10.1-24.2,17.8-35
			c7.6-10.7,16.8-20.2,27.3-28.4c10.6-8.2,22.4-14.8,35.5-19.9c5.8-1.8,10-5.5,12.6-10.9c2.5-5.5,2.7-10.9,0.5-16.4
			s-6.1-9.4-11.7-11.7s-11.4-2.6-17.2-0.8c-17.1,6.6-32.8,15.3-47,26.2C22,354.7,9.8,367.2-0.4,381.4c-10.2,14.2-18,29.7-23.5,46.4
			c-5.5,16.8-8.2,34.1-8.2,51.9c0,24,4.7,46.5,14.2,67.5c9.5,20.9,22.3,39.3,38.5,54.9c16.2,15.7,35.2,28,56.8,37.2
			c21.7,9.1,44.9,13.7,69.7,13.7c18.9,0,37.2-2.7,54.6-8.2c17.5-5.5,33.7-13.2,48.6-23.2c14.9-10,28-22.1,39.3-36.3
			c11.3-14.2,20-29.9,26.2-47c2.6-6.2,4.7-13.1,6.6-20.8c1.5-6.2,0.5-11.7-2.7-16.4C316.6,496.4,311.8,493.3,305.6,491.8z
			 M443.3,575.4l-83.6-145.3c-2.9-6.2-7.3-11.1-13.1-14.8c-5.8-3.6-12.4-5.5-19.7-5.5H234l-10.9-53.5h72.7c4.4,0.4,8.6-0.4,12.6-2.2
			c4-1.8,7.1-4.7,9.3-8.7c2.9-5.1,3.6-10.6,1.9-16.4c-1.6-5.8-5.2-10.2-10.7-13.1c-2.9-1.8-6.2-2.7-9.8-2.7h-85.2l-4.9-25.1
			c0-0.7-0.1-1.2-0.3-1.4c-0.2-0.2-0.3-0.6-0.3-1.4l-0.5-1.6c-2.5-8.4-7.4-15.3-14.5-20.8s-15.4-8.2-24.9-8.2
			c-11.7,0-21.5,3.9-29.5,11.7c-8,7.8-12,17.2-12,28.1c0,1.8,0.2,3.3,0.5,4.4h-0.5L157,443.7c1.5,8.4,5.5,15.2,12,20.5
			c6.6,5.3,14.2,7.9,22.9,7.9c2.5,0,4.6-0.2,6-0.5h124l72.1,125.7c2.2,4.7,5.5,8.6,9.8,11.5c4.4,2.9,9.5,4.4,15.3,4.4
			c7.3,0,13.6-2.5,18.9-7.6c5.3-5.1,7.9-11.3,7.9-18.6C446.1,582.9,445.2,579.1,443.3,575.4z"/>
	</g>
</g>
</svg>
