<?xml version="1.0" encoding="utf-8"?>
<!-- Generator: Adobe Illustrator 18.1.1, SVG Export Plug-In . SVG Version: 6.00 Build 0)  -->
<svg version="1.1" id="Слой_1" xmlns="http://www.w3.org/2000/svg" xmlns:xlink="http://www.w3.org/1999/xlink" x="0px" y="0px"
	 viewBox="-49 141 512 512" enable-background="new -49 141 512 512" xml:space="preserve">
<g>
	<path fill="#2F383E" d="M207.6,241.1c26.7,0,48.4-21.7,48.4-48.4s-21.7-48.4-48.4-48.4s-48.4,21.7-48.4,48.4
		C159.3,219.4,180.9,241.1,207.6,241.1z"/>
	<path fill="#2F383E" d="M131.4,389.4h152.4c9.9,0,18-8,18-18V305c0-18.4-11.8-34.7-29.3-40.4l-0.1,0l-25.6-4.2
		c-2.2-0.7-4.5,0.5-5.3,2.6l-29,79.6c-1.7,4.6-8.2,4.6-9.8,0l-29-79.6c-0.6-1.7-2.3-2.8-4-2.8c-0.4,0-26.8,4.4-26.8,4.4
		c-17.6,5.9-29.4,22.2-29.4,40.7v66.2C113.4,381.4,121.4,389.4,131.4,389.4L131.4,389.4z"/>
	<path fill="#2F383E" d="M428.1,512.1c-0.1,0-0.2-0.1-0.3-0.1l-13.8-4.2c-4.2-1.3-8.7-0.3-11.9,2.6l-29.8,27l-29.8-27
		c-3.2-2.9-7.7-3.9-11.9-2.6l-13.8,4.2c-0.1,0-0.2,0.1-0.3,0.1c-20.9,7-34.9,26.4-34.9,48.5v76.7c0,6.8,5.5,12.4,12.4,12.4h156.9
		c6.8,0,12.4-5.5,12.4-12.4v-76.7C463,538.5,449,519.1,428.1,512.1L428.1,512.1z"/>
	<path fill="#2F383E" d="M372.2,499.2c28.4,0,51.6-23.1,51.6-51.6c0-28.4-23.1-51.6-51.6-51.6c-28.4,0-51.6,23.1-51.6,51.6
		S343.8,499.2,372.2,499.2L372.2,499.2z"/>
	<path fill="#2F383E" d="M97.7,512.1c-0.1,0-0.2-0.1-0.3-0.1l-13.8-4.2c-4.2-1.3-8.7-0.3-11.9,2.6l-29.8,27l-29.8-27
		c-3.2-2.9-7.7-3.9-11.9-2.6c0,0-14,4.3-14.1,4.3c-20.9,7-34.9,26.4-34.9,48.5v76.7c0,6.8,5.5,12.4,12.4,12.4h156.9
		c6.8,0,12.4-5.5,12.4-12.4v-76.7C132.6,538.5,118.6,519.1,97.7,512.1z"/>
	<path fill="#2F383E" d="M-9.8,447.7c0,28.4,23.1,51.6,51.6,51.6c28.4,0,51.6-23.1,51.6-51.6c0-28.4-23.1-51.6-51.6-51.6
		C13.4,396.1-9.8,419.2-9.8,447.7z"/>
	<path fill="#2F383E" d="M386.3,311.7c-4.2-1.3-9-0.4-12.5,2.7c-5.5,4.8-6,13.2-1.2,18.7l18.1,20.6c2.5,2.9,6.1,4.5,9.9,4.5
		s7.4-1.6,9.9-4.5l18.1-20.6c4.8-5.5,4.3-13.9-1.2-18.7c-4.1-3.6-9.8-4.2-14.4-2c-2.7-28.9-14-56-32.6-77.3
		c-4.8-5.5-13.2-6-18.7-1.2c-5.5,4.8-6,13.2-1.2,18.7C374.8,268.8,383.6,289.5,386.3,311.7L386.3,311.7z"/>
	<path fill="#2F383E" d="M4.7,353.7c2.5,2.9,6.1,4.5,9.9,4.5s7.4-1.6,9.9-4.5l18.1-20.6c4.8-5.5,4.3-13.9-1.2-18.7
		c-3.6-3.1-8.3-4-12.5-2.7c2.7-22.2,11.5-42.8,25.8-59.1c4.8-5.5,4.3-13.9-1.2-18.7c-5.5-4.8-13.9-4.3-18.7,1.2
		c-18.7,21.2-29.9,48.4-32.6,77.3c-4.6-2.2-10.3-1.6-14.4,2c-5.5,4.8-6,13.2-1.2,18.7C-13.4,333.1,4.7,353.7,4.7,353.7z"/>
	<path fill="#2F383E" d="M217.6,261c-1.1-1.2-2.7-1.8-4.4-1.8h-12.3c-1.6,0-3.3,0.6-4.4,1.8c-1.7,1.9-2,4.6-0.8,6.7l6.6,9.9l-3.1,26
		l6.1,16.1c0.6,1.6,2.9,1.6,3.5,0l6.1-16.1l-3.1-26l6.6-9.9C219.5,265.6,219.3,262.9,217.6,261L217.6,261z"/>
</g>
</svg>
