<?xml version="1.0" encoding="UTF-8"?>
<!DOCTYPE svg PUBLIC "-//W3C//DTD SVG 1.1//EN" "http://www.w3.org/Graphics/SVG/1.1/DTD/svg11.dtd">
<!-- Creator: CorelDRAW X7 -->
<svg xmlns="http://www.w3.org/2000/svg" xml:space="preserve" width="1938px" height="350px" version="1.1" style="shape-rendering:geometricPrecision; text-rendering:geometricPrecision; image-rendering:optimizeQuality; fill-rule:evenodd; clip-rule:evenodd"
viewBox="0 0 1661 300"
 xmlns:xlink="http://www.w3.org/1999/xlink">
 <defs>
  <style type="text/css">
   <![CDATA[
    .fil0 {fill:url(#id0);fill-rule:nonzero}
   ]]>
  </style>
  <linearGradient id="id0" gradientUnits="userSpaceOnUse" x1="838.201" y1="325.333" x2="822.675" y2="-25.2242">
   <stop offset="0" style="stop-opacity:1; stop-color:#AAC6E3"/>
   <stop offset="0.501961" style="stop-opacity:1; stop-color:#C3DAEE"/>
   <stop offset="1" style="stop-opacity:1; stop-color:#E1ECF7"/>
  </linearGradient>
 </defs>
 <g id="РЎР_x00bb_РѕР_x2116__x0020_1">
  <metadata id="CorelCorpID_0Corel-Layer"/>
  <path class="fil0" d="M830 27c0,-1 -1,-1 -2,-1 -3,0 -6,3 -8,3 -2,-3 -5,-5 -7,-2 -5,-3 -11,-6 -17,-5 -4,1 -7,4 -11,4 -1,-10 -13,-9 -21,-8 1,-7 -9,0 -12,-4 -2,-3 0,-6 -1,-8 -2,-4 -6,-1 -10,-1 1,-7 -12,-3 -15,0 2,-6 -10,-6 -11,-1 -1,-2 -4,-2 -6,-1 -1,-1 -3,-2 -6,-2 -6,0 -9,5 -9,10 0,1 0,1 0,1 -1,0 -2,0 -2,0 3,-6 -4,-6 -8,-5 -1,-7 -8,0 -10,2 -12,-13 -28,3 -28,16 0,1 0,3 0,4 -23,-6 -65,14 -44,37 -7,-4 -19,-2 -24,5 1,-7 -7,-10 -13,-11 -13,-2 -16,2 -23,8 -7,5 -14,5 -18,12 -3,5 -5,14 -1,20 -7,-3 -16,-2 -19,4 0,-8 -11,-14 -21,-9 -7,-10 -31,-7 -37,2 -2,3 0,6 -2,8 -1,3 -4,5 -5,8 -2,5 -2,12 3,14 -15,0 -19,24 -8,31 -9,3 -16,8 -16,16 -5,-11 -27,-7 -31,0 0,-7 -7,-14 -9,-15 -9,-5 -24,-5 -34,-1 -4,2 -9,4 -13,7 -6,4 -9,11 -7,18 -1,-4 -10,-5 -14,-5 -6,-1 -11,1 -16,5 1,-11 -22,-18 -33,-16 -7,1 -13,5 -16,11 -1,4 1,8 2,12 -2,-1 -8,0 -10,1 -3,1 -3,4 -4,7 -1,-4 -16,-2 -18,1 0,-3 -5,-8 -8,-9 -5,-4 -12,-4 -18,-4 -8,0 -16,8 -16,16 -3,-4 -13,-6 -18,-6 -8,-1 -16,0 -23,3 -13,5 -22,23 -12,34 -8,1 -12,6 -15,12 -30,0 -35,20 -35,34 -9,-10 -30,-18 -41,-6 -2,-10 -20,-8 -29,-6l0 33 860 0 0 0 801 0 0 -33c-9,-2 -27,-4 -29,6 -11,-12 -32,-4 -41,6 0,-14 -5,-34 -35,-34 -3,-6 -7,-11 -16,-12 11,-11 2,-29 -11,-34 -8,-3 -15,-4 -23,-4 -6,1 -15,3 -19,7 1,-8 -7,-16 -15,-16 -6,0 -13,0 -18,3 -3,2 -8,7 -8,10 -2,-3 -17,-5 -18,-1 -1,-3 -1,-6 -5,-7 -1,-1 -7,-2 -9,-2 1,-3 3,-7 1,-11 -2,-6 -9,-10 -15,-11 -11,-2 -34,5 -34,16 -4,-4 -9,-6 -15,-5 -4,0 -13,1 -14,5 2,-7 -1,-14 -8,-18 -3,-3 -8,-5 -12,-7 -10,-4 -25,-4 -34,1 -2,1 -10,8 -10,15 -3,-7 -25,-12 -30,0 0,-8 -8,-14 -16,-16 11,-7 7,-31 -8,-31 5,-2 4,-9 3,-14 -1,-3 -4,-5 -6,-8 -1,-2 1,-5 -1,-8 -6,-9 -30,-12 -37,-2 -10,-5 -21,1 -22,9 -2,-6 -11,-7 -18,-4 4,-6 2,-15 -1,-20 -5,-7 -11,-7 -18,-12 -8,-6 -10,-10 -23,-8 -6,1 -15,3 -13,11 -5,-7 -17,-9 -24,-5 21,-23 -21,-43 -45,-37 1,-1 1,-3 1,-4 0,-13 -17,-29 -29,-16 -1,-2 -8,-9 -9,-3 -4,0 -11,0 -8,6 0,0 -1,0 -2,0 0,0 0,-1 0,-1 0,-5 -3,-10 -9,-10 -3,0 -5,1 -6,2 -2,-1 -5,-1 -6,1 -1,-5 -13,-5 -12,1 -2,-3 -15,-7 -14,0 -4,0 -8,-3 -10,1 -1,2 1,5 -1,8 -3,4 -13,-3 -12,4 -9,-1 -20,-2 -21,8 -4,0 -7,-3 -11,-4 -6,-1 -12,2 -17,5 -2,-3 -5,-1 -7,2 -3,0 -5,-3 -8,-3 -1,0 -2,0 -3,1z"/>
 </g>
</svg>
