<?xml version="1.0" encoding="UTF-8"?>
<!DOCTYPE svg PUBLIC "-//W3C//DTD SVG 1.1//EN" "http://www.w3.org/Graphics/SVG/1.1/DTD/svg11.dtd">
<!-- Creator: CorelDRAW X7 -->
<svg xmlns="http://www.w3.org/2000/svg" xml:space="preserve" width="272.345mm" height="55.6038mm" version="1.1" style="shape-rendering:geometricPrecision; text-rendering:geometricPrecision; image-rendering:optimizeQuality; fill-rule:evenodd; clip-rule:evenodd"
viewBox="0 0 45763 9343"
 xmlns:xlink="http://www.w3.org/1999/xlink">
 <defs>
  <style type="text/css">
   <![CDATA[
    .fil25 {fill:#404041}
    .fil26 {fill:#494848}
    .fil0 {fill:#677B61}
    .fil21 {fill:#678073}
    .fil1 {fill:#70846A}
    .fil30 {fill:#774E29}
    .fil2 {fill:#809778}
    .fil15 {fill:#89ABAD}
    .fil4 {fill:#8D8073}
    .fil18 {fill:#8F7D65}
    .fil14 {fill:#97B5B6}
    .fil5 {fill:#9F8E80}
    .fil17 {fill:#A18C76}
    .fil9 {fill:#A3613E}
    .fil22 {fill:#A6B793}
    .fil16 {fill:#A6CBCE}
    .fil10 {fill:#B56D46}
    .fil20 {fill:#B7CBA9}
    .fil6 {fill:#BAA794}
    .fil12 {fill:#BF744B}
    .fil40 {fill:#C6882B}
    .fil13 {fill:#CF7C50}
    .fil11 {fill:#D0DFE6}
    .fil27 {fill:#D5C6C0}
    .fil39 {fill:#D6912F}
    .fil23 {fill:#DE9326}
    .fil3 {fill:#E3F4F9}
    .fil19 {fill:#E6E7E8}
    .fil41 {fill:#F9AD47}
    .fil42 {fill:#FFE8CC}
    .fil38 {fill:#928966;fill-rule:nonzero}
    .fil8 {fill:#AEA278;fill-rule:nonzero}
    .fil37 {fill:#C5B787;fill-rule:nonzero}
    .fil7 {fill:#E3F4F9;fill-rule:nonzero}
    .fil36 {fill:#B3B3B3}
    .fil28 {fill:#E6E6E6}
    .fil45 {fill:#F1F1F1;fill-rule:nonzero}
    .fil31 {fill:url(#id0)}
    .fil35 {fill:url(#id1)}
    .fil29 {fill:url(#id2)}
    .fil32 {fill:url(#id3)}
    .fil48 {fill:url(#id4)}
    .fil52 {fill:url(#id5)}
    .fil46 {fill:url(#id6)}
    .fil33 {fill:url(#id7)}
    .fil34 {fill:url(#id8)}
    .fil47 {fill:url(#id9)}
    .fil50 {fill:url(#id10)}
    .fil51 {fill:url(#id11)}
    .fil49 {fill:url(#id12)}
    .fil43 {fill:url(#id13);fill-rule:nonzero}
    .fil24 {fill:url(#id14);fill-rule:nonzero}
    .fil55 {fill:url(#id15);fill-rule:nonzero}
    .fil44 {fill:url(#id16);fill-rule:nonzero}
    .fil54 {fill:url(#id17);fill-rule:nonzero}
    .fil53 {fill:url(#id18);fill-rule:nonzero}
   ]]>
  </style>
  <linearGradient id="id0" gradientUnits="userSpaceOnUse" x1="32099.7" y1="5700.59" x2="32099.7" y2="4608.13">
   <stop offset="0" style="stop-opacity:1; stop-color:#8A8E2C"/>
   <stop offset="0.490196" style="stop-opacity:1; stop-color:#BCB031"/>
   <stop offset="0.94902" style="stop-opacity:1; stop-color:#CDC069"/>
   <stop offset="1" style="stop-opacity:1; stop-color:#CDC069"/>
  </linearGradient>
  <linearGradient id="id1" gradientUnits="userSpaceOnUse" x1="25991.4" y1="5529.11" x2="25991.4" y2="4648.38">
   <stop offset="0" style="stop-opacity:1; stop-color:#888E08"/>
   <stop offset="0.490196" style="stop-opacity:1; stop-color:#BCAB00"/>
   <stop offset="0.94902" style="stop-opacity:1; stop-color:#CDBB43"/>
   <stop offset="1" style="stop-opacity:1; stop-color:#CDBB43"/>
  </linearGradient>
  <linearGradient id="id2" gradientUnits="userSpaceOnUse" xlink:href="#id0" x1="38584.5" y1="5861.74" x2="38584.5" y2="4769.28">
  </linearGradient>
  <linearGradient id="id3" gradientUnits="userSpaceOnUse" xlink:href="#id0" x1="27687" y1="6055.11" x2="27687" y2="4962.65">
  </linearGradient>
  <linearGradient id="id4" gradientUnits="userSpaceOnUse" xlink:href="#id0" x1="17723.6" y1="6000.5" x2="17723.6" y2="4908.04">
  </linearGradient>
  <linearGradient id="id5" gradientUnits="userSpaceOnUse" xlink:href="#id1" x1="19608.1" y1="5474.5" x2="19608.1" y2="4593.77">
  </linearGradient>
  <linearGradient id="id6" gradientUnits="userSpaceOnUse" xlink:href="#id0" x1="5611.99" y1="5807.13" x2="5611.99" y2="4714.67">
  </linearGradient>
  <linearGradient id="id7" gradientUnits="userSpaceOnUse" xlink:href="#id1" x1="35277.3" y1="5593.57" x2="35277.3" y2="4712.84">
  </linearGradient>
  <linearGradient id="id8" gradientUnits="userSpaceOnUse" xlink:href="#id1" x1="30327.4" y1="5174.59" x2="30327.4" y2="4293.86">
  </linearGradient>
  <linearGradient id="id9" gradientUnits="userSpaceOnUse" xlink:href="#id0" x1="12819.3" y1="5646.01" x2="12819.3" y2="4553.52">
  </linearGradient>
  <linearGradient id="id10" gradientUnits="userSpaceOnUse" xlink:href="#id1" x1="9287.67" y1="5538.96" x2="9287.67" y2="4658.23">
  </linearGradient>
  <linearGradient id="id11" gradientUnits="userSpaceOnUse" xlink:href="#id1" x1="14789.1" y1="5119.98" x2="14789.1" y2="4239.25">
  </linearGradient>
  <linearGradient id="id12" gradientUnits="userSpaceOnUse" xlink:href="#id0" x1="22116.2" y1="6000.5" x2="22116.2" y2="4908.04">
  </linearGradient>
  <linearGradient id="id13" gradientUnits="userSpaceOnUse" x1="-0" y1="6612.92" x2="23996" y2="6612.92">
   <stop offset="0" style="stop-opacity:1; stop-color:#BBC37A"/>
   <stop offset="0.521569" style="stop-opacity:1; stop-color:#9CAD3B"/>
   <stop offset="1" style="stop-opacity:1; stop-color:#788C2E"/>
  </linearGradient>
  <linearGradient id="id14" gradientUnits="userSpaceOnUse" xlink:href="#id13" x1="23945" y1="6614.29" x2="45763.2" y2="6614.29">
  </linearGradient>
  <linearGradient id="id15" gradientUnits="userSpaceOnUse" x1="34779.6" y1="9343.34" x2="34779.6" y2="8102.88">
   <stop offset="0" style="stop-opacity:1; stop-color:#CCE0F3"/>
   <stop offset="0.368627" style="stop-opacity:1; stop-color:#66B9E6"/>
   <stop offset="1" style="stop-opacity:1; stop-color:#0092D8"/>
  </linearGradient>
  <linearGradient id="id16" gradientUnits="userSpaceOnUse" xlink:href="#id15" x1="11998" y1="8218.21" x2="11998" y2="7122.26">
  </linearGradient>
  <linearGradient id="id17" gradientUnits="userSpaceOnUse" xlink:href="#id15" x1="34783.5" y1="8159.18" x2="34783.5" y2="7122.51">
  </linearGradient>
  <linearGradient id="id18" gradientUnits="userSpaceOnUse" xlink:href="#id15" x1="11996.1" y1="9313.68" x2="11996.1" y2="8176.36">
  </linearGradient>
 </defs>
 <g id="objects">
  <metadata id="CorelCorpID_0Corel-Layer"/>
  <g id="_959996077408">
   <polygon class="fil0" points="29386,2794 29766,2246 29386,1698 28626,1698 28246,2246 28626,2794 "/>
   <polygon class="fil1" points="29839,2291 28172,2291 28172,2096 29839,2096 "/>
   <polygon class="fil2" points="30005,6128 28007,6128 28007,2240 30005,2240 "/>
   <g>
    <polygon class="fil3" points="29850,2740 29669,2740 29669,2450 29850,2450 "/>
    <polygon class="fil3" points="29548,2740 29367,2740 29367,2450 29548,2450 "/>
    <polygon class="fil3" points="29247,2740 29066,2740 29066,2450 29247,2450 "/>
    <polygon class="fil3" points="28945,2740 28765,2740 28765,2450 28945,2450 "/>
    <polygon class="fil3" points="28644,2740 28463,2740 28463,2450 28644,2450 "/>
    <polygon class="fil3" points="28343,2740 28162,2740 28162,2450 28343,2450 "/>
   </g>
   <g>
    <polygon class="fil3" points="29850,3119 29669,3119 29669,2828 29850,2828 "/>
    <polygon class="fil3" points="29548,3119 29367,3119 29367,2828 29548,2828 "/>
    <polygon class="fil3" points="29247,3119 29066,3119 29066,2828 29247,2828 "/>
    <polygon class="fil3" points="28945,3119 28765,3119 28765,2828 28945,2828 "/>
    <polygon class="fil3" points="28644,3119 28463,3119 28463,2828 28644,2828 "/>
    <polygon class="fil3" points="28343,3119 28162,3119 28162,2828 28343,2828 "/>
   </g>
   <g>
    <polygon class="fil3" points="29850,3497 29669,3497 29669,3207 29850,3207 "/>
    <polygon class="fil3" points="29548,3497 29367,3497 29367,3207 29548,3207 "/>
    <polygon class="fil3" points="29247,3497 29066,3497 29066,3207 29247,3207 "/>
    <polygon class="fil3" points="28945,3497 28765,3497 28765,3207 28945,3207 "/>
    <polygon class="fil3" points="28644,3497 28463,3497 28463,3207 28644,3207 "/>
    <polygon class="fil3" points="28343,3497 28162,3497 28162,3207 28343,3207 "/>
   </g>
   <g>
    <polygon class="fil3" points="29850,3876 29669,3876 29669,3586 29850,3586 "/>
    <polygon class="fil3" points="29548,3876 29367,3876 29367,3586 29548,3586 "/>
    <polygon class="fil3" points="29247,3876 29066,3876 29066,3586 29247,3586 "/>
    <polygon class="fil3" points="28945,3876 28765,3876 28765,3586 28945,3586 "/>
    <polygon class="fil3" points="28644,3876 28463,3876 28463,3586 28644,3586 "/>
    <polygon class="fil3" points="28343,3876 28162,3876 28162,3586 28343,3586 "/>
   </g>
   <g>
    <polygon class="fil3" points="29850,4255 29669,4255 29669,3965 29850,3965 "/>
    <polygon class="fil3" points="29548,4255 29367,4255 29367,3965 29548,3965 "/>
    <polygon class="fil3" points="29247,4255 29066,4255 29066,3965 29247,3965 "/>
    <polygon class="fil3" points="28945,4255 28765,4255 28765,3965 28945,3965 "/>
    <polygon class="fil3" points="28644,4255 28463,4255 28463,3965 28644,3965 "/>
    <polygon class="fil3" points="28343,4255 28162,4255 28162,3965 28343,3965 "/>
   </g>
   <g>
    <polygon class="fil3" points="29850,4634 29669,4634 29669,4343 29850,4343 "/>
    <polygon class="fil3" points="29548,4634 29367,4634 29367,4343 29548,4343 "/>
    <polygon class="fil3" points="29247,4634 29066,4634 29066,4343 29247,4343 "/>
    <polygon class="fil3" points="28945,4634 28765,4634 28765,4343 28945,4343 "/>
    <polygon class="fil3" points="28644,4634 28463,4634 28463,4343 28644,4343 "/>
    <polygon class="fil3" points="28343,4634 28162,4634 28162,4343 28343,4343 "/>
   </g>
   <g>
    <polygon class="fil3" points="29850,5012 29669,5012 29669,4722 29850,4722 "/>
    <polygon class="fil3" points="29548,5012 29367,5012 29367,4722 29548,4722 "/>
    <polygon class="fil3" points="29247,5012 29066,5012 29066,4722 29247,4722 "/>
    <polygon class="fil3" points="28945,5012 28765,5012 28765,4722 28945,4722 "/>
    <polygon class="fil3" points="28644,5012 28463,5012 28463,4722 28644,4722 "/>
    <polygon class="fil3" points="28343,5012 28162,5012 28162,4722 28343,4722 "/>
   </g>
   <g>
    <polygon class="fil3" points="29850,5391 29669,5391 29669,5101 29850,5101 "/>
    <polygon class="fil3" points="29548,5391 29367,5391 29367,5101 29548,5101 "/>
    <polygon class="fil3" points="29247,5391 29066,5391 29066,5101 29247,5101 "/>
    <polygon class="fil3" points="28945,5391 28765,5391 28765,5101 28945,5101 "/>
    <polygon class="fil3" points="28644,5391 28463,5391 28463,5101 28644,5101 "/>
    <polygon class="fil3" points="28343,5391 28162,5391 28162,5101 28343,5101 "/>
   </g>
  </g>
  <g id="_959996060512">
   <polygon class="fil4" points="28095,2324 26668,2324 26668,1963 28095,1963 "/>
   <polygon class="fil5" points="28211,3112 26552,3112 26552,2240 28211,2240 "/>
   <polygon class="fil6" points="28382,5505 26382,5505 26382,3058 28382,3058 "/>
   <polygon class="fil3" points="28145,5225 28270,5225 28270,3250 28145,3250 "/>
   <polygon class="fil3" points="27941,5225 28066,5225 28066,3250 27941,3250 "/>
   <polygon class="fil3" points="27736,5225 27861,5225 27861,3250 27736,3250 "/>
   <polygon class="fil3" points="27532,5225 27657,5225 27657,3250 27532,3250 "/>
   <polygon class="fil3" points="27327,5225 27452,5225 27452,3250 27327,3250 "/>
   <polygon class="fil3" points="27123,5225 27247,5225 27247,3250 27123,3250 "/>
   <polygon class="fil3" points="26918,5225 27043,5225 27043,3250 26918,3250 "/>
   <polygon class="fil3" points="26713,5225 26838,5225 26838,3250 26713,3250 "/>
   <polygon class="fil3" points="26509,5225 26634,5225 26634,3250 26509,3250 "/>
   <g>
    <polygon class="fil3" points="28016,2982 28120,2982 28120,2357 28016,2357 "/>
    <polygon class="fil3" points="27844,2982 27949,2982 27949,2357 27844,2357 "/>
    <polygon class="fil3" points="27672,2982 27777,2982 27777,2357 27672,2357 "/>
    <polygon class="fil3" points="27501,2982 27606,2982 27606,2357 27501,2357 "/>
    <polygon class="fil3" points="27329,2982 27434,2982 27434,2357 27329,2357 "/>
    <polygon class="fil3" points="27158,2982 27262,2982 27262,2357 27158,2357 "/>
    <polygon class="fil3" points="26986,2982 27091,2982 27091,2357 26986,2357 "/>
    <polygon class="fil3" points="26815,2982 26919,2982 26919,2357 26815,2357 "/>
    <polygon class="fil3" points="26643,2982 26748,2982 26748,2357 26643,2357 "/>
   </g>
  </g>
  <g id="_959996065216">
   <polygon class="fil7" points="24550,4203 24550,4091 "/>
   <polygon class="fil7" points="24550,4375 24550,4263 "/>
   <polygon class="fil8" points="22791,5369 24701,5369 24701,5200 22791,5200 "/>
   <polygon class="fil7" points="22942,5145 24550,5145 24550,5033 22942,5033 "/>
  </g>
  <g id="_959996066016">
   <polygon class="fil9" points="24690,1702 24690,2765 25954,2765 25954,1702 25638,1623 25322,1543 25006,1623 "/>
   <polygon class="fil10" points="26267,2854 24438,2854 24438,2225 26267,2225 "/>
   <g>
    <polygon class="fil11" points="25986,2482 25825,2482 25825,2308 25986,2308 "/>
    <polygon class="fil11" points="25986,2703 25825,2703 25825,2529 25986,2529 "/>
    <polygon class="fil11" points="25753,2482 25592,2482 25592,2308 25753,2308 "/>
    <polygon class="fil11" points="25753,2703 25592,2703 25592,2529 25753,2529 "/>
    <polygon class="fil11" points="25519,2482 25358,2482 25358,2308 25519,2308 "/>
    <polygon class="fil11" points="25519,2703 25358,2703 25358,2529 25519,2529 "/>
    <polygon class="fil11" points="25286,2482 25125,2482 25125,2308 25286,2308 "/>
    <polygon class="fil11" points="25286,2703 25125,2703 25125,2529 25286,2529 "/>
    <polygon class="fil11" points="25052,2482 24891,2482 24891,2308 25052,2308 "/>
    <polygon class="fil11" points="25052,2703 24891,2703 24891,2529 25052,2529 "/>
    <polygon class="fil11" points="24819,2482 24658,2482 24658,2308 24819,2308 "/>
    <polygon class="fil11" points="24819,2703 24658,2703 24658,2529 24819,2529 "/>
   </g>
   <polygon class="fil12" points="26374,3394 24251,3394 24251,2765 26374,2765 "/>
   <polygon class="fil13" points="26563,5282 24081,5282 24081,2984 26563,2984 "/>
   <g>
    <polygon class="fil3" points="26374,3394 26187,3394 26187,3139 26374,3139 "/>
    <polygon class="fil3" points="25987,3394 25799,3394 25799,3139 25987,3139 "/>
    <polygon class="fil3" points="25600,3394 25412,3394 25412,3139 25600,3139 "/>
    <polygon class="fil3" points="25213,3394 25025,3394 25025,3139 25213,3139 "/>
    <polygon class="fil3" points="24825,3394 24638,3394 24638,3139 24825,3139 "/>
    <polygon class="fil3" points="24438,3394 24251,3394 24251,3139 24438,3139 "/>
   </g>
   <g>
    <polygon class="fil3" points="26374,3734 26187,3734 26187,3479 26374,3479 "/>
    <polygon class="fil3" points="25987,3734 25799,3734 25799,3479 25987,3479 "/>
    <polygon class="fil3" points="25600,3734 25412,3734 25412,3479 25600,3479 "/>
    <polygon class="fil3" points="25213,3734 25025,3734 25025,3479 25213,3479 "/>
    <polygon class="fil3" points="24825,3734 24638,3734 24638,3479 24825,3479 "/>
    <polygon class="fil3" points="24438,3734 24251,3734 24251,3479 24438,3479 "/>
   </g>
   <g>
    <polygon class="fil3" points="26374,4073 26187,4073 26187,3818 26374,3818 "/>
    <polygon class="fil3" points="25987,4073 25799,4073 25799,3818 25987,3818 "/>
    <polygon class="fil3" points="25600,4073 25412,4073 25412,3818 25600,3818 "/>
    <polygon class="fil3" points="25213,4073 25025,4073 25025,3818 25213,3818 "/>
    <polygon class="fil3" points="24825,4073 24638,4073 24638,3818 24825,3818 "/>
    <polygon class="fil3" points="24438,4073 24251,4073 24251,3818 24438,3818 "/>
   </g>
   <g>
    <polygon class="fil3" points="26374,4413 26187,4413 26187,4158 26374,4158 "/>
    <polygon class="fil3" points="25987,4413 25799,4413 25799,4158 25987,4158 "/>
    <polygon class="fil3" points="25600,4413 25412,4413 25412,4158 25600,4158 "/>
    <polygon class="fil3" points="25213,4413 25025,4413 25025,4158 25213,4158 "/>
    <polygon class="fil3" points="24825,4413 24638,4413 24638,4158 24825,4158 "/>
    <polygon class="fil3" points="24438,4413 24251,4413 24251,4158 24438,4158 "/>
   </g>
   <g>
    <polygon class="fil3" points="26374,4753 26187,4753 26187,4498 26374,4498 "/>
    <polygon class="fil3" points="25987,4753 25799,4753 25799,4498 25987,4498 "/>
    <polygon class="fil3" points="25600,4753 25412,4753 25412,4498 25600,4498 "/>
    <polygon class="fil3" points="25213,4753 25025,4753 25025,4498 25213,4498 "/>
    <polygon class="fil3" points="24825,4753 24638,4753 24638,4498 24825,4498 "/>
    <polygon class="fil3" points="24438,4753 24251,4753 24251,4498 24438,4498 "/>
   </g>
   <g>
    <polygon class="fil3" points="26374,5092 26187,5092 26187,4837 26374,4837 "/>
    <polygon class="fil3" points="25987,5092 25799,5092 25799,4837 25987,4837 "/>
    <polygon class="fil3" points="25600,5092 25412,5092 25412,4837 25600,4837 "/>
    <polygon class="fil3" points="25213,5092 25025,5092 25025,4837 25213,4837 "/>
    <polygon class="fil3" points="24825,5092 24638,5092 24638,4837 24825,4837 "/>
    <polygon class="fil3" points="24438,5092 24251,5092 24251,4837 24438,4837 "/>
   </g>
   <g>
    <polygon class="fil11" points="25735,2106 25427,2106 25427,1783 25735,1783 "/>
    <polygon class="fil11" points="25289,2106 24982,2106 24982,1783 25289,1783 "/>
   </g>
  </g>
  <g id="_959942736928">
   <polygon class="fil14" points="32190,4829 30305,4829 30305,4401 32190,4401 "/>
   <polygon class="fil15" points="32190,5258 32128,5258 32128,4401 32190,4401 "/>
   <polygon class="fil15" points="30366,5258 30305,5258 30305,4401 30366,4401 "/>
   <polygon class="fil16" points="32359,5618 30135,5618 30135,4761 32359,4761 "/>
   <polygon class="fil15" points="32359,5618 32298,5618 32298,4761 32359,4761 "/>
   <polygon class="fil15" points="30196,5618 30135,5618 30135,4761 30196,4761 "/>
   <polygon class="fil17" points="31247,4056 30736,4228 30224,4401 31247,4401 32270,4401 31758,4228 "/>
   <polygon class="fil18" points="31247,4056 30736,4228 30224,4401 31247,4401 "/>
   <g>
    <path class="fil19" d="M32012 4464l-142 0 0 101 142 0 0 -101zm-163 0l0 0 -142 0 0 101 142 0 0 -101zm-142 116l0 0 0 101 142 0 0 -101 -142 0zm163 101l0 0 142 0 0 -101 -142 0 0 101z"/>
    <path class="fil19" d="M31604 4464l-142 0 0 101 142 0 0 -101zm-163 0l0 0 -143 0 0 101 143 0 0 -101zm-143 116l0 0 0 101 143 0 0 -101 -143 0zm164 101l0 0 142 0 0 -101 -142 0 0 101z"/>
    <path class="fil19" d="M31196 4464l-143 0 0 101 143 0 0 -101zm-164 0l0 0 -142 0 0 101 142 0 0 -101zm-142 116l0 0 0 101 142 0 0 -101 -142 0zm163 101l0 0 143 0 0 -101 -143 0 0 101z"/>
    <path class="fil19" d="M30787 4464l-142 0 0 101 142 0 0 -101zm-163 0l0 0 -142 0 0 101 142 0 0 -101zm-142 116l0 0 0 101 142 0 0 -101 -142 0zm163 101l0 0 142 0 0 -101 -142 0 0 101z"/>
   </g>
   <g>
    <g>
     <path class="fil19" d="M32012 4833l-142 0 0 101 142 0 0 -101zm-163 0l0 0 -142 0 0 101 142 0 0 -101zm-142 117l0 0 0 101 142 0 0 -101 -142 0zm163 101l0 0 142 0 0 -101 -142 0 0 101z"/>
     <path class="fil19" d="M31604 4833l-142 0 0 101 142 0 0 -101zm-163 0l0 0 -143 0 0 101 143 0 0 -101zm-143 117l0 0 0 101 143 0 0 -101 -143 0zm164 101l0 0 142 0 0 -101 -142 0 0 101z"/>
     <path class="fil19" d="M31196 4833l-143 0 0 101 143 0 0 -101zm-164 0l0 0 -142 0 0 101 142 0 0 -101zm-142 117l0 0 0 101 142 0 0 -101 -142 0zm163 101l0 0 143 0 0 -101 -143 0 0 101z"/>
     <path class="fil19" d="M30787 4833l-142 0 0 101 142 0 0 -101zm-163 0l0 0 -142 0 0 101 142 0 0 -101zm-142 117l0 0 0 101 142 0 0 -101 -142 0zm163 101l0 0 142 0 0 -101 -142 0 0 101z"/>
    </g>
    <g>
     <path class="fil19" d="M32012 5104l-142 0 0 101 142 0 0 -101zm-163 0l0 0 -142 0 0 101 142 0 0 -101zm-142 117l0 0 0 101 142 0 0 -101 -142 0zm163 101l0 0 142 0 0 -101 -142 0 0 101z"/>
     <path class="fil19" d="M31604 5104l-142 0 0 101 142 0 0 -101zm-163 0l0 0 -143 0 0 101 143 0 0 -101zm-143 117l0 0 0 101 143 0 0 -101 -143 0zm164 101l0 0 142 0 0 -101 -142 0 0 101z"/>
     <path class="fil19" d="M31196 5104l-143 0 0 101 143 0 0 -101zm-164 0l0 0 -142 0 0 101 142 0 0 -101zm-142 117l0 0 0 101 142 0 0 -101 -142 0zm163 101l0 0 143 0 0 -101 -143 0 0 101z"/>
     <path class="fil19" d="M30787 5104l-142 0 0 101 142 0 0 -101zm-163 0l0 0 -142 0 0 101 142 0 0 -101zm-142 117l0 0 0 101 142 0 0 -101 -142 0zm163 101l0 0 142 0 0 -101 -142 0 0 101z"/>
    </g>
    <g>
     <path class="fil19" d="M32012 5359l-142 0 0 101 142 0 0 -101zm-163 0l0 0 -142 0 0 101 142 0 0 -101zm-142 117l0 0 0 101 142 0 0 -101 -142 0zm163 101l0 0 142 0 0 -101 -142 0 0 101z"/>
     <path class="fil19" d="M31604 5359l-142 0 0 101 142 0 0 -101zm-163 0l0 0 -143 0 0 101 143 0 0 -101zm-143 117l0 0 0 101 143 0 0 -101 -143 0zm164 101l0 0 142 0 0 -101 -142 0 0 101z"/>
     <path class="fil19" d="M31196 5359l-143 0 0 101 143 0 0 -101zm-164 0l0 0 -142 0 0 101 142 0 0 -101zm-142 117l0 0 0 101 142 0 0 -101 -142 0zm163 101l0 0 143 0 0 -101 -143 0 0 101z"/>
     <path class="fil19" d="M30787 5359l-142 0 0 101 142 0 0 -101zm-163 0l0 0 -142 0 0 101 142 0 0 -101zm-142 117l0 0 0 101 142 0 0 -101 -142 0zm163 101l0 0 142 0 0 -101 -142 0 0 101z"/>
    </g>
   </g>
  </g>
  <g id="_959942746880">
   <polygon class="fil20" points="28731,5341 25825,5341 25825,4587 28731,4587 "/>
   <polygon class="fil21" points="28644,4339 25913,4339 25647,4598 28909,4598 "/>
   <g>
    <polygon class="fil19" points="28535,4930 28348,4930 28348,4662 28535,4662 "/>
    <polygon class="fil19" points="28535,5245 28348,5245 28348,4977 28535,4977 "/>
    <polygon class="fil19" points="28277,4930 28089,4930 28089,4662 28277,4662 "/>
    <polygon class="fil19" points="28277,5245 28089,5245 28089,4977 28277,4977 "/>
    <polygon class="fil19" points="28018,4930 27831,4930 27831,4662 28018,4662 "/>
    <polygon class="fil19" points="28018,5245 27831,5245 27831,4977 28018,4977 "/>
    <polygon class="fil19" points="27760,4930 27572,4930 27572,4662 27760,4662 "/>
    <polygon class="fil19" points="27760,5245 27572,5245 27572,4977 27760,4977 "/>
    <polygon class="fil19" points="27501,4930 27314,4930 27314,4662 27501,4662 "/>
    <polygon class="fil19" points="27501,5245 27314,5245 27314,4977 27501,4977 "/>
    <polygon class="fil19" points="27243,4930 27055,4930 27055,4662 27243,4662 "/>
    <polygon class="fil19" points="27243,5245 27055,5245 27055,4977 27243,4977 "/>
    <polygon class="fil19" points="26984,4930 26797,4930 26797,4662 26984,4662 "/>
    <polygon class="fil19" points="26984,5245 26797,5245 26797,4977 26984,4977 "/>
    <polygon class="fil19" points="26726,4930 26539,4930 26539,4662 26726,4662 "/>
    <polygon class="fil19" points="26726,5245 26539,5245 26539,4977 26726,4977 "/>
    <polygon class="fil19" points="26467,4930 26280,4930 26280,4662 26467,4662 "/>
    <polygon class="fil19" points="26467,5245 26280,5245 26280,4977 26467,4977 "/>
    <polygon class="fil19" points="26209,4930 26022,4930 26022,4662 26209,4662 "/>
    <polygon class="fil19" points="26209,5245 26022,5245 26022,4977 26209,4977 "/>
   </g>
   <polygon class="fil22" points="28731,5341 28643,5341 28643,4598 28731,4598 "/>
   <polygon class="fil22" points="25914,5341 25825,5341 25825,4598 25914,4598 "/>
  </g>
  <g id="_961542402448">
   <g>
    <polygon class="fil3" points="23887,5294 23719,5294 23719,4944 23887,4944 "/>
   </g>
   <polygon class="fil23" points="24094,5530 24005,5530 24005,3622 24094,3622 "/>
   <polygon class="fil23" points="22178,5530 22089,5530 "/>
  </g>
  <path class="fil24" d="M23945 8220l0 -3211c1615,12 3357,59 5129,136 7197,316 13401,1115 16689,2051l0 1024 -21818 0z"/>
  <g id="_961542394032">
   <g>
    <g>
     <path class="fil25" d="M41345 5896c0,1 0,1 1,1 4,5 7,23 21,26 36,7 43,17 43,17l-75 -2 -74 2c0,0 7,-10 43,-17 14,-3 17,-21 21,-26 0,0 1,0 1,-1l-6 0c-2,0 -3,-1 -3,-2 0,-1 1,-2 3,-2l2 0c0,-2 1,-5 2,-7 2,-4 7,-8 5,-17 -3,-10 -16,-26 6,-34 23,8 9,24 7,34 -2,9 2,13 5,17 1,2 2,5 2,7l2 0c2,0 3,1 3,2 0,1 -1,2 -3,2l-6 0z"/>
     <path class="fil25" d="M41415 5936l-158 0c-2,0 -5,2 -5,4l0 0c0,2 3,4 5,4l158 0c2,0 5,-2 5,-4l0 0c0,-2 -3,-4 -5,-4z"/>
     <polygon class="fil25" points="41351,6642 41315,6642 41315,6109 41351,6109 "/>
     <path class="fil25" d="M41350 6071c-1,4 -1,16 2,20 3,4 13,10 13,14 -1,2 -9,8 -14,12l-18 0 -18 0c-6,-4 -14,-10 -14,-12 0,-4 10,-10 13,-14 3,-4 3,-16 1,-20l18 4 17 -4z"/>
     <polygon class="fil25" points="41374,6646 41333,6646 41292,6646 41262,6778 41404,6778 "/>
     <path class="fil25" d="M41383 6636l-101 0c-5,0 -9,4 -9,8 0,4 4,8 9,8l101 0c5,0 10,-4 10,-8 0,-4 -5,-8 -10,-8z"/>
     <path class="fil25" d="M41411 6770l-156 0c-5,0 -9,4 -9,8 0,4 4,8 9,8l156 0c5,0 9,-4 9,-8 0,-4 -4,-8 -9,-8z"/>
     <polygon class="fil25" points="41333,5940 41409,5940 41363,6075 41333,6076 41302,6075 41256,5940 "/>
     <g>
      <polygon class="fil19" points="41339,5946 41401,5946 41358,6070 41339,6070 "/>
      <polygon class="fil19" points="41326,5946 41265,5946 41307,6070 41326,6070 "/>
     </g>
    </g>
    <path class="fil25" d="M41332 6795c-54,0 -99,-9 -99,-20 0,-11 45,-19 99,-19 55,0 99,8 99,19 0,11 -44,20 -99,20z"/>
   </g>
   <path class="fil26" d="M41332 5938l-71 2c0,0 7,-10 43,-17 14,-3 17,-21 21,-26 0,0 1,0 1,-1l-6 0c-2,0 -3,-1 -3,-2 0,-1 1,-2 3,-2l2 0c0,-2 1,-5 2,-7 2,-4 7,-8 5,-17 -3,-10 -15,-25 3,-33l0 103z"/>
   <path class="fil26" d="M41332 5936l-75 0c-2,0 -5,2 -5,4l0 0c0,2 3,4 5,4l75 0 0 -8z"/>
   <polygon class="fil26" points="41332,6109 41315,6109 41315,6642 41332,6642 "/>
   <path class="fil26" d="M41332 6117l-17 0c-6,-4 -14,-10 -14,-12 0,-4 10,-10 13,-14 3,-4 3,-16 1,-20l17 4 0 42z"/>
   <polygon class="fil26" points="41332,6646 41292,6646 41262,6778 41332,6778 "/>
   <path class="fil26" d="M41332 6636l-50 0c-5,0 -9,4 -9,8 0,4 4,8 9,8l50 0 0 -16z"/>
   <path class="fil25" d="M41332 6770l-77 0c-5,0 -9,4 -9,8 0,4 4,8 9,8l77 0 0 -16z"/>
   <polygon class="fil26" points="41332,6076 41302,6075 41256,5940 41332,5940 "/>
   <polygon class="fil19" points="41326,5946 41265,5946 41307,6070 41326,6070 "/>
   <path class="fil26" d="M41332 6756c-54,0 -99,8 -99,19 0,11 45,20 99,20l0 -39z"/>
  </g>
  <g id="_961501044240">
   <g>
    <g>
     <path class="fil25" d="M37224 5896c0,1 0,1 0,1 4,5 8,23 22,26 36,7 43,17 43,17l-75 -2 -75 2c0,0 7,-10 43,-17 14,-3 18,-21 22,-26 0,0 0,0 0,-1l-6 0c-1,0 -3,-1 -3,-2 0,-1 2,-2 3,-2l3 0c0,-2 0,-5 1,-7 3,-4 7,-8 5,-17 -2,-10 -15,-26 7,-34 22,8 9,24 7,34 -2,9 2,13 5,17 1,2 1,5 1,7l3 0c1,0 3,1 3,2 0,1 -2,2 -3,2l-6 0z"/>
     <path class="fil25" d="M37294 5936l-158 0c-3,0 -5,2 -5,4l0 0c0,2 2,4 5,4l158 0c2,0 4,-2 4,-4l0 0c0,-2 -2,-4 -4,-4z"/>
     <polygon class="fil25" points="37230,6642 37193,6642 37193,6109 37230,6109 "/>
     <path class="fil25" d="M37229 6071c-2,4 -1,16 2,20 3,4 13,10 12,14 0,2 -8,8 -13,12l-19 0 -18 0c-5,-4 -13,-10 -13,-12 -1,-4 9,-10 12,-14 3,-4 4,-16 2,-20l17 4 18 -4z"/>
     <polygon class="fil25" points="37252,6646 37212,6646 37171,6646 37141,6778 37282,6778 "/>
     <path class="fil25" d="M37262 6636l-101 0c-5,0 -9,4 -9,8 0,4 4,8 9,8l101 0c5,0 9,-4 9,-8 0,-4 -4,-8 -9,-8z"/>
     <path class="fil25" d="M37290 6770l-156 0c-5,0 -9,4 -9,8 0,4 4,8 9,8l156 0c5,0 9,-4 9,-8 0,-4 -4,-8 -9,-8z"/>
     <polygon class="fil25" points="37211,5940 37288,5940 37242,6075 37211,6076 37181,6075 37135,5940 "/>
     <g>
      <polygon class="fil19" points="37218,5946 37279,5946 37237,6070 37218,6070 "/>
      <polygon class="fil19" points="37205,5946 37144,5946 37186,6070 37205,6070 "/>
     </g>
    </g>
    <path class="fil25" d="M37211 6795c-55,0 -99,-9 -99,-20 0,-11 44,-19 99,-19 55,0 99,8 99,19 0,11 -44,20 -99,20z"/>
   </g>
   <path class="fil26" d="M37211 5938l-72 2c0,0 7,-10 43,-17 14,-3 18,-21 22,-26 0,0 0,0 0,-1l-6 0c-1,0 -3,-1 -3,-2 0,-1 2,-2 3,-2l3 0c0,-2 0,-5 1,-7 3,-4 7,-8 5,-17 -2,-10 -14,-25 4,-33l0 103z"/>
   <path class="fil26" d="M37211 5936l-75 0c-3,0 -5,2 -5,4l0 0c0,2 2,4 5,4l75 0 0 -8z"/>
   <polygon class="fil26" points="37211,6109 37193,6109 37193,6642 37211,6642 "/>
   <path class="fil26" d="M37211 6117l-18 0c-5,-4 -13,-10 -13,-12 -1,-4 9,-10 12,-14 3,-4 4,-16 2,-20l17 4 0 42z"/>
   <polygon class="fil26" points="37211,6646 37171,6646 37141,6778 37211,6778 "/>
   <path class="fil26" d="M37211 6636l-50 0c-5,0 -9,4 -9,8 0,4 4,8 9,8l50 0 0 -16z"/>
   <path class="fil25" d="M37211 6770l-77 0c-5,0 -9,4 -9,8 0,4 4,8 9,8l77 0 0 -16z"/>
   <polygon class="fil26" points="37211,6076 37181,6075 37135,5940 37211,5940 "/>
   <polygon class="fil19" points="37205,5946 37144,5946 37186,6070 37205,6070 "/>
   <path class="fil26" d="M37211 6756c-55,0 -99,8 -99,19 0,11 44,20 99,20l0 -39z"/>
  </g>
  <g id="_960108343920">
   <g>
    <g>
     <path class="fil25" d="M33102 5896c0,1 1,1 1,1 4,5 7,23 21,26 36,7 43,17 43,17l-74 -2 -75 2c0,0 7,-10 43,-17 14,-3 17,-21 21,-26 1,0 1,0 1,-1l-6 0c-2,0 -3,-1 -3,-2 0,-1 1,-2 3,-2l2 0c0,-2 1,-5 2,-7 3,-4 7,-8 5,-17 -2,-10 -16,-26 7,-34 22,8 9,24 6,34 -2,9 3,13 5,17 1,2 2,5 2,7l2 0c2,0 3,1 3,2 0,1 -1,2 -3,2l-6 0z"/>
     <path class="fil25" d="M33172 5936l-158 0c-2,0 -4,2 -4,4l0 0c0,2 2,4 4,4l158 0c3,0 5,-2 5,-4l0 0c0,-2 -2,-4 -5,-4z"/>
     <polygon class="fil25" points="33108,6642 33072,6642 33072,6109 33108,6109 "/>
     <path class="fil25" d="M33108 6071c-2,4 -2,16 1,20 3,4 13,10 13,14 0,2 -8,8 -14,12l-18 0 -18 0c-6,-4 -13,-10 -14,-12 0,-4 10,-10 13,-14 3,-4 3,-16 2,-20l17 4 18 -4z"/>
     <polygon class="fil25" points="33131,6646 33090,6646 33050,6646 33020,6778 33161,6778 "/>
     <path class="fil25" d="M33141 6636l-101 0c-5,0 -10,4 -10,8 0,4 5,8 10,8l101 0c5,0 9,-4 9,-8 0,-4 -4,-8 -9,-8z"/>
     <path class="fil25" d="M33168 6770l-155 0c-6,0 -10,4 -10,8 0,4 4,8 10,8l155 0c5,0 9,-4 9,-8 0,-4 -4,-8 -9,-8z"/>
     <polygon class="fil25" points="33090,5940 33167,5940 33121,6075 33090,6076 33060,6075 33014,5940 "/>
     <g>
      <polygon class="fil19" points="33097,5946 33158,5946 33116,6070 33097,6070 "/>
      <polygon class="fil19" points="33084,5946 33022,5946 33065,6070 33084,6070 "/>
     </g>
    </g>
    <path class="fil25" d="M33090 6795c-55,0 -99,-9 -99,-20 0,-11 44,-19 99,-19 54,0 99,8 99,19 0,11 -45,20 -99,20z"/>
   </g>
   <path class="fil26" d="M33090 5938l-72 2c0,0 7,-10 43,-17 14,-3 17,-21 21,-26 1,0 1,0 1,-1l-6 0c-2,0 -3,-1 -3,-2 0,-1 1,-2 3,-2l2 0c0,-2 1,-5 2,-7 3,-4 7,-8 5,-17 -2,-10 -14,-25 4,-33l0 103z"/>
   <path class="fil26" d="M33090 5936l-76 0c-2,0 -4,2 -4,4l0 0c0,2 2,4 4,4l76 0 0 -8z"/>
   <polygon class="fil26" points="33090,6109 33072,6109 33072,6642 33090,6642 "/>
   <path class="fil26" d="M33090 6117l-18 0c-6,-4 -13,-10 -14,-12 0,-4 10,-10 13,-14 3,-4 3,-16 2,-20l17 4 0 42z"/>
   <polygon class="fil26" points="33090,6646 33050,6646 33020,6778 33090,6778 "/>
   <path class="fil26" d="M33090 6636l-50 0c-5,0 -10,4 -10,8 0,4 5,8 10,8l50 0 0 -16z"/>
   <path class="fil25" d="M33090 6770l-77 0c-6,0 -10,4 -10,8 0,4 4,8 10,8l77 0 0 -16z"/>
   <polygon class="fil26" points="33090,6076 33060,6075 33014,5940 33090,5940 "/>
   <polygon class="fil19" points="33084,5946 33022,5946 33065,6070 33084,6070 "/>
   <path class="fil26" d="M33090 6756c-55,0 -99,8 -99,19 0,11 44,20 99,20l0 -39z"/>
  </g>
  <g id="_960108350544">
   <g>
    <g>
     <path class="fil25" d="M28981 5896c0,1 0,1 0,1 5,5 8,23 22,26 36,7 43,17 43,17l-75 -2 -74 2c0,0 7,-10 43,-17 14,-3 17,-21 21,-26 0,0 0,0 1,-1l-7 0c-1,0 -2,-1 -2,-2 0,-1 1,-2 2,-2l3 0c0,-2 0,-5 2,-7 2,-4 7,-8 5,-17 -3,-10 -16,-26 6,-34 23,8 9,24 7,34 -2,9 2,13 5,17 1,2 1,5 1,7l3 0c2,0 3,1 3,2 0,1 -1,2 -3,2l-6 0z"/>
     <path class="fil25" d="M29051 5936l-158 0c-3,0 -5,2 -5,4l0 0c0,2 2,4 5,4l158 0c2,0 4,-2 4,-4l0 0c0,-2 -2,-4 -4,-4z"/>
     <polygon class="fil25" points="28987,6642 28951,6642 28951,6109 28987,6109 "/>
     <path class="fil25" d="M28986 6071c-1,4 -1,16 2,20 3,4 13,10 12,14 0,2 -8,8 -13,12l-18 0 -18 0c-6,-4 -14,-10 -14,-12 0,-4 10,-10 13,-14 3,-4 3,-16 1,-20l18 4 17 -4z"/>
     <polygon class="fil25" points="29010,6646 28969,6646 28928,6646 28898,6778 29040,6778 "/>
     <path class="fil25" d="M29019 6636l-101 0c-5,0 -9,4 -9,8 0,4 4,8 9,8l101 0c5,0 9,-4 9,-8 0,-4 -4,-8 -9,-8z"/>
     <path class="fil25" d="M29047 6770l-156 0c-5,0 -9,4 -9,8 0,4 4,8 9,8l156 0c5,0 9,-4 9,-8 0,-4 -4,-8 -9,-8z"/>
     <polygon class="fil25" points="28969,5940 29045,5940 28999,6075 28969,6076 28938,6075 28892,5940 "/>
     <g>
      <polygon class="fil19" points="28975,5946 29037,5946 28994,6070 28975,6070 "/>
      <polygon class="fil19" points="28962,5946 28901,5946 28943,6070 28962,6070 "/>
     </g>
    </g>
    <path class="fil25" d="M28968 6795c-54,0 -99,-9 -99,-20 0,-11 45,-19 99,-19 55,0 99,8 99,19 0,11 -44,20 -99,20z"/>
   </g>
   <path class="fil26" d="M28968 5938l-71 2c0,0 7,-10 43,-17 14,-3 17,-21 21,-26 0,0 0,0 1,-1l-7 0c-1,0 -2,-1 -2,-2 0,-1 1,-2 2,-2l3 0c0,-2 0,-5 2,-7 2,-4 7,-8 5,-17 -3,-10 -15,-25 3,-33l0 103z"/>
   <path class="fil26" d="M28968 5936l-75 0c-3,0 -5,2 -5,4l0 0c0,2 2,4 5,4l75 0 0 -8z"/>
   <polygon class="fil26" points="28968,6109 28951,6109 28951,6642 28968,6642 "/>
   <path class="fil26" d="M28968 6117l-17 0c-6,-4 -14,-10 -14,-12 0,-4 10,-10 13,-14 3,-4 3,-16 1,-20l17 4 0 42z"/>
   <polygon class="fil26" points="28968,6646 28928,6646 28898,6778 28968,6778 "/>
   <path class="fil26" d="M28968 6636l-50 0c-5,0 -9,4 -9,8 0,4 4,8 9,8l50 0 0 -16z"/>
   <path class="fil25" d="M28968 6770l-77 0c-5,0 -9,4 -9,8 0,4 4,8 9,8l77 0 0 -16z"/>
   <polygon class="fil26" points="28968,6076 28938,6075 28892,5940 28968,5940 "/>
   <polygon class="fil19" points="28962,5946 28901,5946 28943,6070 28962,6070 "/>
   <path class="fil26" d="M28968 6756c-54,0 -99,8 -99,19 0,11 45,20 99,20l0 -39z"/>
  </g>
  <g id="_960108324336">
   <g>
    <g>
     <path class="fil25" d="M24859 5896c1,1 1,1 1,1 4,5 7,23 22,26 35,7 42,17 42,17l-74 -2 -75 2c0,0 7,-10 43,-17 14,-3 17,-21 22,-26 0,0 0,0 0,-1l-6 0c-1,0 -3,-1 -3,-2 0,-1 2,-2 3,-2l3 0c0,-2 0,-5 1,-7 3,-4 7,-8 5,-17 -2,-10 -15,-26 7,-34 22,8 9,24 7,34 -3,9 2,13 5,17 1,2 1,5 1,7l3 0c1,0 2,1 2,2 0,1 -1,2 -2,2l-7 0z"/>
     <path class="fil25" d="M24929 5936l-157 0c-3,0 -5,2 -5,4l0 0c0,2 2,4 5,4l157 0c3,0 5,-2 5,-4l0 0c0,-2 -2,-4 -5,-4z"/>
     <polygon class="fil25" points="24865,6642 24829,6642 24829,6109 24865,6109 "/>
     <path class="fil25" d="M24865 6071c-2,4 -2,16 1,20 3,4 14,10 13,14 0,2 -8,8 -14,12l-18 0 -18 0c-5,-4 -13,-10 -13,-12 -1,-4 9,-10 12,-14 3,-4 4,-16 2,-20l17 4 18 -4z"/>
     <polygon class="fil25" points="24888,6646 24848,6646 24807,6646 24777,6778 24918,6778 "/>
     <path class="fil25" d="M24898 6636l-101 0c-5,0 -9,4 -9,8 0,4 4,8 9,8l101 0c5,0 9,-4 9,-8 0,-4 -4,-8 -9,-8z"/>
     <path class="fil25" d="M24925 6770l-155 0c-5,0 -9,4 -9,8 0,4 4,8 9,8l155 0c6,0 10,-4 10,-8 0,-4 -4,-8 -10,-8z"/>
     <polygon class="fil25" points="24847,5940 24924,5940 24878,6075 24847,6076 24817,6075 24771,5940 "/>
     <g>
      <polygon class="fil19" points="24854,5946 24915,5946 24873,6070 24854,6070 "/>
      <polygon class="fil19" points="24841,5946 24780,5946 24822,6070 24841,6070 "/>
     </g>
    </g>
    <path class="fil25" d="M24847 6795c-55,0 -99,-9 -99,-20 0,-11 44,-19 99,-19 54,0 99,8 99,19 0,11 -45,20 -99,20z"/>
   </g>
   <path class="fil26" d="M24847 5938l-72 2c0,0 7,-10 43,-17 14,-3 17,-21 22,-26 0,0 0,0 0,-1l-6 0c-1,0 -3,-1 -3,-2 0,-1 2,-2 3,-2l3 0c0,-2 0,-5 1,-7 3,-4 7,-8 5,-17 -2,-10 -14,-25 4,-33l0 103z"/>
   <path class="fil26" d="M24847 5936l-75 0c-3,0 -5,2 -5,4l0 0c0,2 2,4 5,4l75 0 0 -8z"/>
   <polygon class="fil26" points="24847,6109 24829,6109 24829,6642 24847,6642 "/>
   <path class="fil26" d="M24847 6117l-18 0c-5,-4 -13,-10 -13,-12 -1,-4 9,-10 12,-14 3,-4 4,-16 2,-20l17 4 0 42z"/>
   <polygon class="fil26" points="24847,6646 24807,6646 24777,6778 24847,6778 "/>
   <path class="fil26" d="M24847 6636l-50 0c-5,0 -9,4 -9,8 0,4 4,8 9,8l50 0 0 -16z"/>
   <path class="fil25" d="M24847 6770l-77 0c-5,0 -9,4 -9,8 0,4 4,8 9,8l77 0 0 -16z"/>
   <polygon class="fil26" points="24847,6076 24817,6075 24771,5940 24847,5940 "/>
   <polygon class="fil19" points="24841,5946 24780,5946 24822,6070 24841,6070 "/>
   <path class="fil26" d="M24847 6756c-55,0 -99,8 -99,19 0,11 44,20 99,20l0 -39z"/>
  </g>
  <polygon class="fil27" points="43610,7110 42616,6682 22095,6602 22083,7340 "/>
  <g id="_960108329136">
   <path class="fil28" d="M38212 6303c0,50 171,92 382,92 211,0 383,-42 383,-92 0,-51 -172,-92 -383,-92 -211,0 -382,41 -382,92z"/>
   <g>
    <path class="fil29" d="M38104 5071c128,-159 312,-283 483,-302 387,47 738,520 616,828 -66,167 -270,285 -681,262 -702,-39 -668,-479 -418,-788z"/>
    <path class="fil30" d="M38338 5391l109 93 10 -112 3 122 116 99 3 -83 23 -541 22 415 90 -110 -89 131 5 105 6 178 135 -114 10 -122 3 111 89 -75 -114 112 142 -45 -157 60 -107 106 19 578c0,1 0,3 0,4 -1,0 -1,0 -1,1 -1,1 -1,1 -2,2 -1,0 -1,1 -2,1 -1,1 -2,1 -3,2 -1,0 -2,0 -3,1 -1,0 -2,1 -4,1 -1,0 -2,0 -3,1 -2,0 -3,0 -5,1 -1,0 -2,0 -3,0 -2,0 -4,1 -6,1 -1,0 -3,0 -4,0 -2,0 -4,0 -6,0 -1,0 -5,0 -6,0 -25,0 -47,-6 -46,-15l14 -556 -2 0 -1 -1 3 -116 -64 -63 -155 -47 143 35 -162 -160z"/>
   </g>
  </g>
  <g id="_960108331920">
   <path class="fil28" d="M31727 6142c0,50 171,91 382,91 212,0 383,-41 383,-91 0,-51 -171,-92 -383,-92 -211,0 -382,41 -382,92z"/>
   <g>
    <path class="fil31" d="M31619 4909c128,-158 312,-282 483,-301 387,47 738,520 616,828 -66,166 -270,285 -681,262 -702,-40 -667,-479 -418,-789z"/>
    <path class="fil30" d="M31853 5230l109 92 11 -111 2 122 117 98 2 -83 23 -541 22 416 90 -110 -89 131 6 104 5 179 135 -114 10 -122 3 111 90 -75 -115 112 142 -46 -157 61 -107 106 19 578c1,1 0,2 0,4 0,0 -1,0 -1,1 -1,0 -1,1 -2,2 -1,0 -1,1 -2,1 -1,1 -2,1 -3,2 -1,0 -2,0 -2,1 -2,0 -3,1 -5,1 -1,0 -2,0 -3,1 -1,0 -3,0 -5,1 -1,0 -2,0 -3,0 -2,0 -4,0 -6,1 -1,0 -2,0 -4,0 -2,0 -4,0 -6,0 -1,0 -4,0 -6,0 -25,0 -46,-6 -46,-15l14 -556 -2 -1 -1 0 3 -117 -64 -62 -155 -47 143 35 -162 -160z"/>
   </g>
  </g>
  <g id="_960108332432">
   <path class="fil28" d="M27314 6496c0,51 172,92 383,92 211,0 382,-41 382,-92 0,-51 -171,-92 -382,-92 -211,0 -383,41 -383,92z"/>
   <g>
    <path class="fil32" d="M27207 5264c128,-158 311,-282 482,-301 388,46 739,519 617,827 -66,167 -270,285 -681,262 -702,-39 -668,-479 -418,-788z"/>
    <path class="fil30" d="M27440 5585l110 92 10 -111 2 122 117 98 3 -83 23 -541 21 416 91 -111 -90 131 6 105 6 178 135 -113 9 -123 4 111 89 -75 -114 113 142 -46 -157 61 -107 105 19 578c0,2 0,3 -1,4 0,1 -1,1 -1,1 0,1 -1,2 -2,2 0,1 -1,1 -2,1 -1,1 -1,2 -3,2 0,1 -1,1 -2,1 -2,1 -3,1 -4,1 -1,1 -2,1 -3,1 -2,0 -4,1 -5,1 -2,0 -3,0 -4,1 -2,0 -4,0 -6,0 -1,0 -2,0 -3,0 -2,1 -4,1 -6,1 -2,0 -5,0 -6,0 -26,0 -47,-6 -46,-16l13 -556 -2 0 -1 0 3 -117 -63 -63 -156 -47 143 35 -162 -159z"/>
   </g>
  </g>
  <g id="_960108334192">
   <path class="fil33" d="M35277 5820c748,-59 143,-1275 0,-1334 -142,59 -747,1275 0,1334z"/>
   <path class="fil28" d="M34993 6166c0,37 126,67 280,67 155,0 281,-30 281,-67 0,-37 -126,-67 -281,-67 -154,0 -280,30 -280,67z"/>
   <g>
    <path class="fil30" d="M35071 5486l80 67 7 -81 2 89 86 72 2 -61 17 -396 15 305 67 -81 -66 96 4 76 5 131 98 -83 8 -90 2 82 65 -55 -83 82 104 -34 -115 45 -79 77 14 424c0,1 0,2 0,3 0,0 -1,0 -1,1 0,0 -1,1 -1,1 -1,0 -1,1 -2,1 0,0 -1,1 -2,1 -1,0 -1,1 -2,1 -1,0 -2,1 -3,1 -1,0 -1,0 -2,0 -1,1 -2,1 -4,1 -1,0 -1,0 -2,0 -2,1 -3,1 -4,1 -1,0 -2,0 -3,0 -2,0 -3,0 -5,0 -1,0 -3,0 -4,0 -19,0 -34,-4 -34,-11l10 -408 -1 0 -1 0 2 -86 -46 -45 -114 -35 105 26 -119 -117z"/>
   </g>
  </g>
  <g id="_960108334832">
   <path class="fil34" d="M30327 5401c748,-59 143,-1275 0,-1334 -142,59 -747,1275 0,1334z"/>
   <path class="fil28" d="M30043 5747c0,37 126,67 281,67 154,0 280,-30 280,-67 0,-37 -126,-67 -280,-67 -155,0 -281,30 -281,67z"/>
   <g>
    <path class="fil30" d="M30121 5067l80 67 8 -81 1 89 86 72 2 -61 17 -396 16 305 66 -81 -66 96 4 76 5 131 98 -83 8 -90 2 82 65 -55 -83 82 104 -34 -115 45 -79 77 14 424c0,1 0,2 0,3 0,0 -1,0 -1,1 0,0 -1,1 -1,1 -1,1 -1,1 -2,1 0,0 -1,1 -2,1 0,0 -1,1 -2,1 -1,0 -2,1 -3,1 0,0 -1,0 -2,0 -1,1 -2,1 -4,1 -1,0 -1,0 -2,0 -2,1 -3,1 -4,1 -1,0 -2,0 -3,0 -2,0 -3,0 -4,0 -1,0 -4,0 -5,0 -18,0 -34,-4 -34,-11l10 -408 -1 0 -1 0 2 -86 -46 -45 -114 -35 105 26 -119 -117z"/>
   </g>
  </g>
  <g id="_960108337072">
   <path class="fil35" d="M25991 5756c748,-59 143,-1276 0,-1334 -142,58 -747,1275 0,1334z"/>
   <path class="fil28" d="M25707 6102c0,37 126,67 281,67 154,0 280,-30 280,-67 0,-37 -126,-68 -280,-68 -155,0 -281,31 -281,68z"/>
   <g>
    <path class="fil30" d="M25785 5421l80 68 8 -82 1 90 86 72 2 -61 17 -397 16 305 66 -81 -66 96 4 77 5 131 98 -84 8 -89 2 81 66 -55 -84 83 104 -34 -115 45 -79 77 14 423c0,1 0,2 0,3 0,1 -1,1 -1,1 0,1 -1,1 -1,2 -1,0 -1,0 -2,1 0,0 -1,0 -2,1 0,0 -1,0 -2,0 -1,1 -2,1 -3,1 0,1 -1,1 -2,1 -1,0 -2,0 -4,1 0,0 -1,0 -2,0 -2,0 -3,0 -4,0 -1,0 -2,1 -3,1 -2,0 -3,0 -4,0 -1,0 -4,0 -5,0 -18,0 -34,-5 -34,-12l10 -407 -1 0 -1 0 3 -86 -47 -46 -114 -34 105 25 -119 -117z"/>
   </g>
  </g>
  <g id="_960108336592">
   <polygon class="fil36" points="23996,580 23527,580 23527,0 23100,0 23100,580 22077,580 22077,1386 21309,1386 21309,1676 20584,1676 20584,1805 20200,1805 20200,1321 19518,1321 19518,1794 19518,2420 19518,2545 19518,3046 19518,3457 19518,4061 19177,4061 19177,3771 19134,3771 19134,4061 19049,4061 19049,2772 18601,2772 18153,2772 18153,3613 18153,3803 17812,3803 17812,3513 17599,3513 17599,4254 17514,4254 17514,3996 17130,3996 17130,3481 16746,3481 16746,3996 16703,3996 16320,3996 16320,3416 15637,3416 15637,3996 15552,3996 15552,3062 15040,3062 15040,3996 14656,3996 14656,3158 14486,3158 14486,3996 13952,3996 13889,3996 13889,3255 13206,3255 13206,3996 12613,3996 11586,3996 11586,4061 11159,4061 11159,4931 10520,4931 10520,4125 9667,4125 9667,4963 9112,4963 9112,5414 8430,5414 8430,5930 8302,5930 8302,4738 7449,4738 7449,5704 6426,5704 6426,6091 5786,6091 5786,6156 23996,6156 "/>
   <g>
    <polygon class="fil0" points="15836,2739 15413,2192 15836,1644 16680,1644 17103,2192 16680,2739 "/>
    <polygon class="fil1" points="15332,2236 17185,2236 17185,2042 15332,2042 "/>
    <polygon class="fil2" points="15148,6073 17368,6073 17368,2185 15148,2185 "/>
    <g>
     <polygon class="fil3" points="15320,2685 15521,2685 15521,2395 15320,2395 "/>
     <polygon class="fil3" points="15655,2685 15856,2685 15856,2395 15655,2395 "/>
     <polygon class="fil3" points="15990,2685 16191,2685 16191,2395 15990,2395 "/>
     <polygon class="fil3" points="16325,2685 16526,2685 16526,2395 16325,2395 "/>
     <polygon class="fil3" points="16660,2685 16861,2685 16861,2395 16660,2395 "/>
     <polygon class="fil3" points="16995,2685 17196,2685 17196,2395 16995,2395 "/>
    </g>
    <g>
     <polygon class="fil3" points="15320,3064 15521,3064 15521,2774 15320,2774 "/>
     <polygon class="fil3" points="15655,3064 15856,3064 15856,2774 15655,2774 "/>
     <polygon class="fil3" points="15990,3064 16191,3064 16191,2774 15990,2774 "/>
     <polygon class="fil3" points="16325,3064 16526,3064 16526,2774 16325,2774 "/>
     <polygon class="fil3" points="16660,3064 16861,3064 16861,2774 16660,2774 "/>
     <polygon class="fil3" points="16995,3064 17196,3064 17196,2774 16995,2774 "/>
    </g>
    <g>
     <polygon class="fil3" points="15320,3443 15521,3443 15521,3153 15320,3153 "/>
     <polygon class="fil3" points="15655,3443 15856,3443 15856,3153 15655,3153 "/>
     <polygon class="fil3" points="15990,3443 16191,3443 16191,3153 15990,3153 "/>
     <polygon class="fil3" points="16325,3443 16526,3443 16526,3153 16325,3153 "/>
     <polygon class="fil3" points="16660,3443 16861,3443 16861,3153 16660,3153 "/>
     <polygon class="fil3" points="16995,3443 17196,3443 17196,3153 16995,3153 "/>
    </g>
    <g>
     <polygon class="fil3" points="15320,3821 15521,3821 15521,3531 15320,3531 "/>
     <polygon class="fil3" points="15655,3821 15856,3821 15856,3531 15655,3531 "/>
     <polygon class="fil3" points="15990,3821 16191,3821 16191,3531 15990,3531 "/>
     <polygon class="fil3" points="16325,3821 16526,3821 16526,3531 16325,3531 "/>
     <polygon class="fil3" points="16660,3821 16861,3821 16861,3531 16660,3531 "/>
     <polygon class="fil3" points="16995,3821 17196,3821 17196,3531 16995,3531 "/>
    </g>
    <g>
     <polygon class="fil3" points="15320,4200 15521,4200 15521,3910 15320,3910 "/>
     <polygon class="fil3" points="15655,4200 15856,4200 15856,3910 15655,3910 "/>
     <polygon class="fil3" points="15990,4200 16191,4200 16191,3910 15990,3910 "/>
     <polygon class="fil3" points="16325,4200 16526,4200 16526,3910 16325,3910 "/>
     <polygon class="fil3" points="16660,4200 16861,4200 16861,3910 16660,3910 "/>
     <polygon class="fil3" points="16995,4200 17196,4200 17196,3910 16995,3910 "/>
    </g>
    <g>
     <polygon class="fil3" points="15320,4579 15521,4579 15521,4289 15320,4289 "/>
     <polygon class="fil3" points="15655,4579 15856,4579 15856,4289 15655,4289 "/>
     <polygon class="fil3" points="15990,4579 16191,4579 16191,4289 15990,4289 "/>
     <polygon class="fil3" points="16325,4579 16526,4579 16526,4289 16325,4289 "/>
     <polygon class="fil3" points="16660,4579 16861,4579 16861,4289 16660,4289 "/>
     <polygon class="fil3" points="16995,4579 17196,4579 17196,4289 16995,4289 "/>
    </g>
    <g>
     <polygon class="fil3" points="15320,4958 15521,4958 15521,4668 15320,4668 "/>
     <polygon class="fil3" points="15655,4958 15856,4958 15856,4668 15655,4668 "/>
     <polygon class="fil3" points="15990,4958 16191,4958 16191,4668 15990,4668 "/>
     <polygon class="fil3" points="16325,4958 16526,4958 16526,4668 16325,4668 "/>
     <polygon class="fil3" points="16660,4958 16861,4958 16861,4668 16660,4668 "/>
     <polygon class="fil3" points="16995,4958 17196,4958 17196,4668 16995,4668 "/>
    </g>
    <g>
     <polygon class="fil3" points="15320,5336 15521,5336 15521,5046 15320,5046 "/>
     <polygon class="fil3" points="15655,5336 15856,5336 15856,5046 15655,5046 "/>
     <polygon class="fil3" points="15990,5336 16191,5336 16191,5046 15990,5046 "/>
     <polygon class="fil3" points="16325,5336 16526,5336 16526,5046 16325,5046 "/>
     <polygon class="fil3" points="16660,5336 16861,5336 16861,5046 16660,5046 "/>
     <polygon class="fil3" points="16995,5336 17196,5336 17196,5046 16995,5046 "/>
    </g>
   </g>
   <g>
    <polygon class="fil4" points="17270,2270 18856,2270 18856,1909 17270,1909 "/>
    <polygon class="fil5" points="17141,3058 18985,3058 18985,2186 17141,2186 "/>
    <polygon class="fil6" points="16952,5450 19175,5450 19175,3003 16952,3003 "/>
    <polygon class="fil3" points="17214,5171 17075,5171 17075,3196 17214,3196 "/>
    <polygon class="fil3" points="17441,5171 17303,5171 17303,3196 17441,3196 "/>
    <polygon class="fil3" points="17669,5171 17530,5171 17530,3196 17669,3196 "/>
    <polygon class="fil3" points="17896,5171 17757,5171 17757,3196 17896,3196 "/>
    <polygon class="fil3" points="18124,5171 17985,5171 17985,3196 18124,3196 "/>
    <polygon class="fil3" points="18351,5171 18212,5171 18212,3196 18351,3196 "/>
    <polygon class="fil3" points="18578,5171 18440,5171 18440,3196 18578,3196 "/>
    <polygon class="fil3" points="18806,5171 18667,5171 18667,3196 18806,3196 "/>
    <polygon class="fil3" points="19033,5171 18894,5171 18894,3196 19033,3196 "/>
    <g>
     <polygon class="fil3" points="17358,2928 17242,2928 17242,2303 17358,2303 "/>
     <polygon class="fil3" points="17549,2928 17433,2928 17433,2303 17549,2303 "/>
     <polygon class="fil3" points="17740,2928 17623,2928 17623,2303 17740,2303 "/>
     <polygon class="fil3" points="17931,2928 17814,2928 17814,2303 17931,2303 "/>
     <polygon class="fil3" points="18121,2928 18005,2928 18005,2303 18121,2303 "/>
     <polygon class="fil3" points="18312,2928 18196,2928 18196,2303 18312,2303 "/>
     <polygon class="fil3" points="18503,2928 18386,2928 18386,2303 18503,2303 "/>
     <polygon class="fil3" points="18693,2928 18577,2928 18577,2303 18693,2303 "/>
     <polygon class="fil3" points="18884,2928 18768,2928 18768,2303 18884,2303 "/>
    </g>
   </g>
   <g>
    <polygon class="fil37" points="23100,5165 21107,5165 21107,1392 23100,1392 "/>
    <polygon class="fil8" points="23166,1475 21042,1475 21042,1306 23166,1306 "/>
    <polygon class="fil38" points="22974,1306 21234,1306 21234,1109 22974,1109 "/>
    <polygon class="fil8" points="23166,2236 21042,2236 21042,2067 23166,2067 "/>
    <polygon class="fil7" points="22998,1662 21210,1662 21210,1549 22998,1549 "/>
    <polygon class="fil7" points="22998,1839 21210,1839 21210,1727 22998,1727 "/>
    <polygon class="fil7" points="22998,2011 21210,2011 21210,1899 22998,1899 "/>
    <polygon class="fil8" points="23166,3006 21042,3006 21042,2836 23166,2836 "/>
    <polygon class="fil7" points="22998,2431 21210,2431 21210,2319 22998,2319 "/>
    <polygon class="fil7" points="22998,2609 21210,2609 21210,2497 22998,2497 "/>
    <polygon class="fil7" points="22998,2781 21210,2781 21210,2669 22998,2669 "/>
    <g>
     <polygon class="fil8" points="23166,3775 21042,3775 21042,3606 23166,3606 "/>
     <polygon class="fil7" points="22998,3201 21210,3201 21210,3089 22998,3089 "/>
     <polygon class="fil7" points="22998,3379 21210,3379 21210,3266 22998,3266 "/>
     <polygon class="fil7" points="22998,3551 21210,3551 21210,3439 22998,3439 "/>
    </g>
    <polygon class="fil8" points="23166,4545 21042,4545 21042,4376 23166,4376 "/>
    <polygon class="fil7" points="22998,3971 21210,3971 21210,3858 22998,3858 "/>
    <polygon class="fil7" points="22998,4148 21210,4148 21210,4036 22998,4036 "/>
    <polygon class="fil7" points="22998,4320 21210,4320 21210,4208 22998,4208 "/>
    <polygon class="fil8" points="23166,5315 21042,5315 21042,5145 23166,5145 "/>
    <polygon class="fil7" points="22998,4740 21210,4740 21210,4628 22998,4628 "/>
    <polygon class="fil7" points="22998,4918 21210,4918 21210,4806 22998,4806 "/>
    <polygon class="fil7" points="22998,5090 21210,5090 21210,4978 22998,4978 "/>
   </g>
   <g>
    <polygon class="fil9" points="21054,1648 21054,2711 19650,2711 19650,1648 20001,1568 20352,1489 20703,1568 "/>
    <polygon class="fil10" points="19302,2799 21334,2799 21334,2170 19302,2170 "/>
    <g>
     <polygon class="fil11" points="19614,2427 19793,2427 19793,2254 19614,2254 "/>
     <polygon class="fil11" points="19614,2648 19793,2648 19793,2475 19614,2475 "/>
     <polygon class="fil11" points="19873,2427 20052,2427 20052,2254 19873,2254 "/>
     <polygon class="fil11" points="19873,2648 20052,2648 20052,2475 19873,2475 "/>
     <polygon class="fil11" points="20133,2427 20312,2427 20312,2254 20133,2254 "/>
     <polygon class="fil11" points="20133,2648 20312,2648 20312,2475 20133,2475 "/>
     <polygon class="fil11" points="20392,2427 20571,2427 20571,2254 20392,2254 "/>
     <polygon class="fil11" points="20392,2648 20571,2648 20571,2475 20392,2475 "/>
     <polygon class="fil11" points="20652,2427 20831,2427 20831,2254 20652,2254 "/>
     <polygon class="fil11" points="20652,2648 20831,2648 20831,2475 20652,2475 "/>
     <polygon class="fil11" points="20911,2427 21090,2427 21090,2254 20911,2254 "/>
     <polygon class="fil11" points="20911,2648 21090,2648 21090,2475 20911,2475 "/>
    </g>
    <polygon class="fil12" points="19183,3340 21543,3340 21543,2711 19183,2711 "/>
    <polygon class="fil13" points="18973,5227 21731,5227 21731,2929 18973,2929 "/>
    <g>
     <polygon class="fil3" points="19183,3340 19391,3340 19391,3085 19183,3085 "/>
     <polygon class="fil3" points="19613,3340 19822,3340 19822,3085 19613,3085 "/>
     <polygon class="fil3" points="20043,3340 20252,3340 20252,3085 20043,3085 "/>
     <polygon class="fil3" points="20474,3340 20682,3340 20682,3085 20474,3085 "/>
     <polygon class="fil3" points="20904,3340 21113,3340 21113,3085 20904,3085 "/>
     <polygon class="fil3" points="21334,3340 21543,3340 21543,3085 21334,3085 "/>
    </g>
    <g>
     <polygon class="fil3" points="19183,3679 19391,3679 19391,3424 19183,3424 "/>
     <polygon class="fil3" points="19613,3679 19822,3679 19822,3424 19613,3424 "/>
     <polygon class="fil3" points="20043,3679 20252,3679 20252,3424 20043,3424 "/>
     <polygon class="fil3" points="20474,3679 20682,3679 20682,3424 20474,3424 "/>
     <polygon class="fil3" points="20904,3679 21113,3679 21113,3424 20904,3424 "/>
     <polygon class="fil3" points="21334,3679 21543,3679 21543,3424 21334,3424 "/>
    </g>
    <g>
     <polygon class="fil3" points="19183,4019 19391,4019 19391,3764 19183,3764 "/>
     <polygon class="fil3" points="19613,4019 19822,4019 19822,3764 19613,3764 "/>
     <polygon class="fil3" points="20043,4019 20252,4019 20252,3764 20043,3764 "/>
     <polygon class="fil3" points="20474,4019 20682,4019 20682,3764 20474,3764 "/>
     <polygon class="fil3" points="20904,4019 21113,4019 21113,3764 20904,3764 "/>
     <polygon class="fil3" points="21334,4019 21543,4019 21543,3764 21334,3764 "/>
    </g>
    <g>
     <polygon class="fil3" points="19183,4358 19391,4358 19391,4103 19183,4103 "/>
     <polygon class="fil3" points="19613,4358 19822,4358 19822,4103 19613,4103 "/>
     <polygon class="fil3" points="20043,4358 20252,4358 20252,4103 20043,4103 "/>
     <polygon class="fil3" points="20474,4358 20682,4358 20682,4103 20474,4103 "/>
     <polygon class="fil3" points="20904,4358 21113,4358 21113,4103 20904,4103 "/>
     <polygon class="fil3" points="21334,4358 21543,4358 21543,4103 21334,4103 "/>
    </g>
    <g>
     <polygon class="fil3" points="19183,4698 19391,4698 19391,4443 19183,4443 "/>
     <polygon class="fil3" points="19613,4698 19822,4698 19822,4443 19613,4443 "/>
     <polygon class="fil3" points="20043,4698 20252,4698 20252,4443 20043,4443 "/>
     <polygon class="fil3" points="20474,4698 20682,4698 20682,4443 20474,4443 "/>
     <polygon class="fil3" points="20904,4698 21113,4698 21113,4443 20904,4443 "/>
     <polygon class="fil3" points="21334,4698 21543,4698 21543,4443 21334,4443 "/>
    </g>
    <g>
     <polygon class="fil3" points="19183,5038 19391,5038 19391,4783 19183,4783 "/>
     <polygon class="fil3" points="19613,5038 19822,5038 19822,4783 19613,4783 "/>
     <polygon class="fil3" points="20043,5038 20252,5038 20252,4783 20043,4783 "/>
     <polygon class="fil3" points="20474,5038 20682,5038 20682,4783 20474,4783 "/>
     <polygon class="fil3" points="20904,5038 21113,5038 21113,4783 20904,4783 "/>
     <polygon class="fil3" points="21334,5038 21543,5038 21543,4783 21334,4783 "/>
    </g>
    <g>
     <polygon class="fil11" points="19893,2051 20235,2051 20235,1728 19893,1728 "/>
     <polygon class="fil11" points="20389,2051 20731,2051 20731,1728 20389,1728 "/>
    </g>
   </g>
   <g>
    <polygon class="fil14" points="12719,4775 14815,4775 14815,4346 12719,4346 "/>
    <polygon class="fil15" points="12719,5203 12787,5203 12787,4346 12719,4346 "/>
    <polygon class="fil15" points="14746,5203 14815,5203 14815,4346 14746,4346 "/>
    <polygon class="fil16" points="12531,5564 15003,5564 15003,4706 12531,4706 "/>
    <polygon class="fil15" points="12531,5564 12599,5564 12599,4706 12531,4706 "/>
    <polygon class="fil15" points="14935,5564 15003,5564 15003,4706 14935,4706 "/>
    <polygon class="fil17" points="13767,4001 14335,4174 14904,4346 13767,4346 12630,4346 13199,4174 "/>
    <polygon class="fil18" points="13767,4001 14335,4174 14904,4346 13767,4346 "/>
    <g>
     <path class="fil19" d="M12916 4409l158 0 0 101 -158 0 0 -101zm182 0l0 0 158 0 0 101 -158 0 0 -101zm158 116l0 0 0 101 -158 0 0 -101 158 0zm-182 101l0 0 -158 0 0 -101 158 0 0 101z"/>
     <path class="fil19" d="M13370 4409l158 0 0 101 -158 0 0 -101zm182 0l0 0 158 0 0 101 -158 0 0 -101zm158 116l0 0 0 101 -158 0 0 -101 158 0zm-182 101l0 0 -158 0 0 -101 158 0 0 101z"/>
     <path class="fil19" d="M13824 4409l158 0 0 101 -158 0 0 -101zm182 0l0 0 158 0 0 101 -158 0 0 -101zm158 116l0 0 0 101 -158 0 0 -101 158 0zm-182 101l0 0 -158 0 0 -101 158 0 0 101z"/>
     <path class="fil19" d="M14278 4409l158 0 0 101 -158 0 0 -101zm182 0l0 0 157 0 0 101 -157 0 0 -101zm157 116l0 0 0 101 -157 0 0 -101 157 0zm-181 101l0 0 -158 0 0 -101 158 0 0 101z"/>
    </g>
    <g>
     <g>
      <path class="fil19" d="M12916 4779l158 0 0 101 -158 0 0 -101zm182 0l0 0 158 0 0 101 -158 0 0 -101zm158 116l0 0 0 101 -158 0 0 -101 158 0zm-182 101l0 0 -158 0 0 -101 158 0 0 101z"/>
      <path class="fil19" d="M13370 4779l158 0 0 101 -158 0 0 -101zm182 0l0 0 158 0 0 101 -158 0 0 -101zm158 116l0 0 0 101 -158 0 0 -101 158 0zm-182 101l0 0 -158 0 0 -101 158 0 0 101z"/>
      <path class="fil19" d="M13824 4779l158 0 0 101 -158 0 0 -101zm182 0l0 0 158 0 0 101 -158 0 0 -101zm158 116l0 0 0 101 -158 0 0 -101 158 0zm-182 101l0 0 -158 0 0 -101 158 0 0 101z"/>
      <path class="fil19" d="M14278 4779l158 0 0 101 -158 0 0 -101zm182 0l0 0 157 0 0 101 -157 0 0 -101zm157 116l0 0 0 101 -157 0 0 -101 157 0zm-181 101l0 0 -158 0 0 -101 158 0 0 101z"/>
     </g>
     <g>
      <path class="fil19" d="M12916 5050l158 0 0 101 -158 0 0 -101zm182 0l0 0 158 0 0 101 -158 0 0 -101zm158 116l0 0 0 101 -158 0 0 -101 158 0zm-182 101l0 0 -158 0 0 -101 158 0 0 101z"/>
      <path class="fil19" d="M13370 5050l158 0 0 101 -158 0 0 -101zm182 0l0 0 158 0 0 101 -158 0 0 -101zm158 116l0 0 0 101 -158 0 0 -101 158 0zm-182 101l0 0 -158 0 0 -101 158 0 0 101z"/>
      <path class="fil19" d="M13824 5050l158 0 0 101 -158 0 0 -101zm182 0l0 0 158 0 0 101 -158 0 0 -101zm158 116l0 0 0 101 -158 0 0 -101 158 0zm-182 101l0 0 -158 0 0 -101 158 0 0 101z"/>
      <path class="fil19" d="M14278 5050l158 0 0 101 -158 0 0 -101zm182 0l0 0 157 0 0 101 -157 0 0 -101zm157 116l0 0 0 101 -157 0 0 -101 157 0zm-181 101l0 0 -158 0 0 -101 158 0 0 101z"/>
     </g>
     <g>
      <path class="fil19" d="M12916 5304l158 0 0 101 -158 0 0 -101zm182 0l0 0 158 0 0 101 -158 0 0 -101zm158 117l0 0 0 101 -158 0 0 -101 158 0zm-182 101l0 0 -158 0 0 -101 158 0 0 101z"/>
      <path class="fil19" d="M13370 5304l158 0 0 101 -158 0 0 -101zm182 0l0 0 158 0 0 101 -158 0 0 -101zm158 117l0 0 0 101 -158 0 0 -101 158 0zm-182 101l0 0 -158 0 0 -101 158 0 0 101z"/>
      <path class="fil19" d="M13824 5304l158 0 0 101 -158 0 0 -101zm182 0l0 0 158 0 0 101 -158 0 0 -101zm158 117l0 0 0 101 -158 0 0 -101 158 0zm-182 101l0 0 -158 0 0 -101 158 0 0 101z"/>
      <path class="fil19" d="M14278 5304l158 0 0 101 -158 0 0 -101zm182 0l0 0 157 0 0 101 -157 0 0 -101zm157 117l0 0 0 101 -157 0 0 -101 157 0zm-181 101l0 0 -158 0 0 -101 158 0 0 101z"/>
     </g>
    </g>
   </g>
   <g>
    <polygon class="fil20" points="16563,5286 19793,5286 19793,4533 16563,4533 "/>
    <polygon class="fil21" points="16660,4284 19696,4284 19991,4543 16365,4543 "/>
    <g>
     <polygon class="fil19" points="16781,4876 16989,4876 16989,4607 16781,4607 "/>
     <polygon class="fil19" points="16781,5191 16989,5191 16989,4922 16781,4922 "/>
     <polygon class="fil19" points="17068,4876 17277,4876 17277,4607 17068,4607 "/>
     <polygon class="fil19" points="17068,5191 17277,5191 17277,4922 17068,4922 "/>
     <polygon class="fil19" points="17356,4876 17564,4876 17564,4607 17356,4607 "/>
     <polygon class="fil19" points="17356,5191 17564,5191 17564,4922 17356,4922 "/>
     <polygon class="fil19" points="17643,4876 17851,4876 17851,4607 17643,4607 "/>
     <polygon class="fil19" points="17643,5191 17851,5191 17851,4922 17643,4922 "/>
     <polygon class="fil19" points="17930,4876 18138,4876 18138,4607 17930,4607 "/>
     <polygon class="fil19" points="17930,5191 18138,5191 18138,4922 17930,4922 "/>
     <polygon class="fil19" points="18217,4876 18426,4876 18426,4607 18217,4607 "/>
     <polygon class="fil19" points="18217,5191 18426,5191 18426,4922 18217,4922 "/>
     <polygon class="fil19" points="18505,4876 18713,4876 18713,4607 18505,4607 "/>
     <polygon class="fil19" points="18505,5191 18713,5191 18713,4922 18505,4922 "/>
     <polygon class="fil19" points="18792,4876 19000,4876 19000,4607 18792,4607 "/>
     <polygon class="fil19" points="18792,5191 19000,5191 19000,4922 18792,4922 "/>
     <polygon class="fil19" points="19079,4876 19287,4876 19287,4607 19079,4607 "/>
     <polygon class="fil19" points="19079,5191 19287,5191 19287,4922 19079,4922 "/>
     <polygon class="fil19" points="19366,4876 19575,4876 19575,4607 19366,4607 "/>
     <polygon class="fil19" points="19366,5191 19575,5191 19575,4922 19366,4922 "/>
    </g>
    <polygon class="fil22" points="16563,5286 16661,5286 16661,4543 16563,4543 "/>
    <polygon class="fil22" points="19695,5286 19793,5286 19793,4543 19695,4543 "/>
   </g>
   <g>
    <polygon class="fil39" points="22348,3237 23315,3237 23798,3659 21864,3659 "/>
    <path class="fil40" d="M23315 3237l-95 0c75,77 443,398 443,398l83 -22 -431 -376z"/>
    <path class="fil40" d="M22348 3237l94 0c-75,77 -442,398 -442,398l-84 -22 432 -376z"/>
    <polygon class="fil41" points="21717,3567 23945,3567 23945,5475 21717,5475 "/>
    <g>
     <polygon class="fil3" points="21931,4050 22119,4050 22119,3700 21931,3700 "/>
     <polygon class="fil3" points="22254,4050 22441,4050 22441,3700 22254,3700 "/>
     <polygon class="fil3" points="22576,4050 22764,4050 22764,3700 22576,3700 "/>
     <polygon class="fil3" points="22899,4050 23086,4050 23086,3700 22899,3700 "/>
     <polygon class="fil3" points="23221,4050 23409,4050 23409,3700 23221,3700 "/>
     <polygon class="fil3" points="23544,4050 23731,4050 23731,3700 23544,3700 "/>
    </g>
    <g>
     <polygon class="fil3" points="21937,4446 22124,4446 22124,4096 21937,4096 "/>
     <polygon class="fil3" points="22259,4446 22446,4446 22446,4096 22259,4096 "/>
     <polygon class="fil3" points="22582,4446 22769,4446 22769,4096 22582,4096 "/>
     <polygon class="fil3" points="22904,4446 23091,4446 23091,4096 22904,4096 "/>
     <polygon class="fil3" points="23227,4446 23414,4446 23414,4096 23227,4096 "/>
     <polygon class="fil3" points="23549,4446 23736,4446 23736,4096 23549,4096 "/>
    </g>
    <g>
     <polygon class="fil3" points="21942,4843 22129,4843 22129,4493 21942,4493 "/>
     <polygon class="fil3" points="22264,4843 22452,4843 22452,4493 22264,4493 "/>
     <polygon class="fil3" points="22587,4843 22774,4843 22774,4493 22587,4493 "/>
     <polygon class="fil3" points="22909,4843 23096,4843 23096,4493 22909,4493 "/>
     <polygon class="fil3" points="23232,4843 23419,4843 23419,4493 23232,4493 "/>
     <polygon class="fil3" points="23554,4843 23741,4843 23741,4493 23554,4493 "/>
    </g>
    <g>
     <polygon class="fil3" points="21947,5239 22134,5239 22134,4889 21947,4889 "/>
     <polygon class="fil3" points="22269,5239 22457,5239 22457,4889 22269,4889 "/>
     <polygon class="fil3" points="22592,5239 22779,5239 22779,4889 22592,4889 "/>
     <polygon class="fil3" points="22914,5239 23102,5239 23102,4889 22914,4889 "/>
     <polygon class="fil3" points="23237,5239 23424,5239 23424,4889 23237,4889 "/>
     <polygon class="fil3" points="23559,5239 23747,5239 23747,4889 23559,4889 "/>
    </g>
    <g>
     <polygon class="fil42" points="22431,3505 22665,3505 22665,3320 22431,3320 "/>
     <polygon class="fil42" points="22714,3505 22948,3505 22948,3320 22714,3320 "/>
     <polygon class="fil42" points="22998,3505 23232,3505 23232,3320 22998,3320 "/>
    </g>
    <polygon class="fil23" points="21717,5475 21816,5475 21816,3567 21717,3567 "/>
    <polygon class="fil23" points="23846,5475 23945,5475 23945,3567 23846,3567 "/>
   </g>
   <path class="fil43" d="M23996 8218l0 -3210c-1791,11 -3724,58 -5689,136 -7836,310 -14610,1086 -18307,1999l0 1075 23996 0z"/>
   <g>
    <g>
     <g>
      <path class="fil25" d="M2544 5842c0,0 0,0 -1,1 -4,5 -8,22 -24,25 -39,7 -47,17 -47,17l83 -2 82 2c0,0 -7,-10 -47,-17 -16,-3 -19,-20 -24,-25 0,-1 -1,-1 -1,-1l7 0c2,0 3,-1 3,-2 0,-2 -1,-3 -3,-3l-3 0c0,-2 0,-5 -1,-6 -3,-5 -8,-8 -6,-18 3,-10 17,-26 -7,-34 -25,8 -10,24 -8,34 3,10 -2,13 -5,18 -2,1 -2,4 -2,6l-3 0c-2,0 -3,1 -3,3 0,1 1,2 3,2l7 0z"/>
      <path class="fil25" d="M2466 5882l176 0c2,0 5,1 5,4 0,2 -3,3 -5,3l-176 0c-3,0 -5,-1 -5,-3 0,-3 2,-4 5,-4z"/>
      <polygon class="fil25" points="2537,6587 2578,6587 2578,6054 2537,6054 "/>
      <path class="fil25" d="M2538 6016c2,5 1,16 -2,20 -3,5 -14,11 -14,14 0,3 9,8 15,12l20 0 21 0c6,-4 14,-9 15,-12 0,-3 -11,-9 -14,-14 -4,-4 -4,-15 -2,-20l-20 5 -19 -5z"/>
      <polygon class="fil25" points="2512,6592 2557,6592 2602,6592 2636,6723 2479,6723 "/>
      <path class="fil25" d="M2501 6582l112 0c6,0 11,3 11,8 0,4 -5,7 -11,7l-112 0c-5,0 -10,-3 -10,-7 0,-5 5,-8 10,-8z"/>
      <path class="fil25" d="M2471 6716l173 0c5,0 10,3 10,8 0,4 -5,7 -10,7l-173 0c-6,0 -11,-3 -11,-7 0,-5 5,-8 11,-8z"/>
      <polygon class="fil25" points="2557,5886 2472,5886 2523,6020 2557,6021 2591,6020 2642,5886 "/>
      <g>
       <polygon class="fil19" points="2550,5891 2482,5891 2529,6015 2550,6015 "/>
       <polygon class="fil19" points="2565,5891 2633,5891 2586,6015 2565,6015 "/>
      </g>
     </g>
     <path class="fil25" d="M2558 6741c61,0 110,-9 110,-20 0,-11 -49,-20 -110,-20 -61,0 -110,9 -110,20 0,11 49,20 110,20z"/>
    </g>
    <path class="fil26" d="M2558 5883l79 2c0,0 -7,-10 -47,-17 -16,-3 -19,-20 -24,-25 0,-1 -1,-1 -1,-1l7 0c2,0 3,-1 3,-2 0,-2 -1,-3 -3,-3l-3 0c0,-2 0,-5 -1,-6 -3,-5 -8,-8 -6,-18 3,-10 16,-24 -4,-33l0 103z"/>
    <path class="fil26" d="M2558 5882l84 0c2,0 5,1 5,4 0,2 -3,3 -5,3l-84 0 0 -7z"/>
    <polygon class="fil26" points="2558,6054 2578,6054 2578,6587 2558,6587 "/>
    <path class="fil26" d="M2558 6062l20 0c6,-4 14,-9 15,-12 0,-3 -11,-9 -14,-14 -4,-4 -4,-15 -2,-20l-19 5 0 41z"/>
    <polygon class="fil26" points="2558,6592 2602,6592 2636,6723 2558,6723 "/>
    <path class="fil26" d="M2558 6582l55 0c6,0 11,3 11,8 0,4 -5,7 -11,7l-55 0 0 -15z"/>
    <path class="fil25" d="M2558 6716l86 0c5,0 10,3 10,8 0,4 -5,7 -10,7l-86 0 0 -15z"/>
    <polygon class="fil26" points="2558,6021 2591,6020 2642,5886 2558,5886 "/>
    <polygon class="fil19" points="2565,5891 2633,5891 2586,6015 2565,6015 "/>
    <path class="fil26" d="M2558 6701c61,0 110,9 110,20 0,11 -49,20 -110,20l0 -40z"/>
   </g>
   <g>
    <g>
     <g>
      <path class="fil25" d="M7125 5842c-1,0 -1,0 -1,1 -5,5 -8,22 -24,25 -40,7 -48,17 -48,17l83 -2 83 2c0,0 -8,-10 -48,-17 -15,-3 -19,-20 -23,-25 -1,-1 -1,-1 -1,-1l7 0c1,0 3,-1 3,-2 0,-2 -2,-3 -3,-3l-3 0c0,-2 -1,-5 -2,-6 -3,-5 -8,-8 -5,-18 2,-10 17,-26 -8,-34 -25,8 -10,24 -7,34 2,10 -3,13 -6,18 -1,1 -1,4 -2,6l-2 0c-2,0 -3,1 -3,3 0,1 1,2 3,2l7 0z"/>
      <path class="fil25" d="M7047 5882l175 0c3,0 5,1 5,4 0,2 -2,3 -5,3l-175 0c-3,0 -5,-1 -5,-3 0,-3 2,-4 5,-4z"/>
      <polygon class="fil25" points="7118,6587 7158,6587 7158,6054 7118,6054 "/>
      <path class="fil25" d="M7119 6016c1,5 1,16 -2,20 -4,5 -15,11 -14,14 0,3 9,8 15,12l20 0 20 0c6,-4 15,-9 15,-12 1,-3 -10,-9 -14,-14 -3,-4 -4,-15 -2,-20l-19 5 -19 -5z"/>
      <polygon class="fil25" points="7092,6592 7138,6592 7183,6592 7216,6723 7059,6723 "/>
      <path class="fil25" d="M7082 6582l112 0c6,0 10,3 10,8 0,4 -4,7 -10,7l-112 0c-6,0 -10,-3 -10,-7 0,-5 4,-8 10,-8z"/>
      <path class="fil25" d="M7051 6716l173 0c6,0 10,3 10,8 0,4 -4,7 -10,7l-173 0c-5,0 -10,-3 -10,-7 0,-5 5,-8 10,-8z"/>
      <polygon class="fil25" points="7138,5886 7053,5886 7104,6020 7138,6021 7172,6020 7223,5886 "/>
      <g>
       <polygon class="fil19" points="7131,5891 7063,5891 7110,6015 7131,6015 "/>
       <polygon class="fil19" points="7145,5891 7213,5891 7166,6015 7145,6015 "/>
      </g>
     </g>
     <path class="fil25" d="M7139 6741c60,0 110,-9 110,-20 0,-11 -50,-20 -110,-20 -61,0 -110,9 -110,20 0,11 49,20 110,20z"/>
    </g>
    <path class="fil26" d="M7139 5883l79 2c0,0 -8,-10 -48,-17 -15,-3 -19,-20 -23,-25 -1,-1 -1,-1 -1,-1l7 0c1,0 3,-1 3,-2 0,-2 -2,-3 -3,-3l-3 0c0,-2 -1,-5 -2,-6 -3,-5 -8,-8 -5,-18 2,-10 16,-24 -4,-33l0 103z"/>
    <path class="fil26" d="M7139 5882l83 0c3,0 5,1 5,4 0,2 -2,3 -5,3l-83 0 0 -7z"/>
    <polygon class="fil26" points="7139,6054 7158,6054 7158,6587 7139,6587 "/>
    <path class="fil26" d="M7139 6062l19 0c6,-4 15,-9 15,-12 1,-3 -10,-9 -14,-14 -3,-4 -4,-15 -2,-20l-18 5 0 41z"/>
    <polygon class="fil26" points="7139,6592 7183,6592 7216,6723 7139,6723 "/>
    <path class="fil26" d="M7139 6582l55 0c6,0 10,3 10,8 0,4 -4,7 -10,7l-55 0 0 -15z"/>
    <path class="fil25" d="M7139 6716l85 0c6,0 10,3 10,8 0,4 -4,7 -10,7l-85 0 0 -15z"/>
    <polygon class="fil26" points="7139,6021 7172,6020 7223,5886 7139,5886 "/>
    <polygon class="fil19" points="7145,5891 7213,5891 7166,6015 7145,6015 "/>
    <path class="fil26" d="M7139 6701c60,0 110,9 110,20 0,11 -50,20 -110,20l0 -40z"/>
   </g>
   <g>
    <g>
     <g>
      <path class="fil25" d="M11705 5842c0,0 0,0 -1,1 -4,5 -8,22 -24,25 -39,7 -47,17 -47,17l83 -2 83 2c0,0 -8,-10 -48,-17 -16,-3 -19,-20 -24,-25 0,-1 0,-1 -1,-1l7 0c2,0 3,-1 3,-2 0,-2 -1,-3 -3,-3l-3 0c0,-2 0,-5 -1,-6 -3,-5 -8,-8 -6,-18 3,-10 18,-26 -7,-34 -25,8 -10,24 -8,34 3,10 -2,13 -5,18 -1,1 -2,4 -2,6l-3 0c-2,0 -3,1 -3,3 0,1 1,2 3,2l7 0z"/>
      <path class="fil25" d="M11627 5882l176 0c3,0 5,1 5,4 0,2 -2,3 -5,3l-176 0c-2,0 -5,-1 -5,-3 0,-3 3,-4 5,-4z"/>
      <polygon class="fil25" points="11698,6587 11739,6587 11739,6054 11698,6054 "/>
      <path class="fil25" d="M11699 6016c2,5 2,16 -2,20 -3,5 -14,11 -14,14 1,3 9,8 15,12l21 0 20 0c6,-4 14,-9 15,-12 0,-3 -11,-9 -14,-14 -4,-4 -4,-15 -2,-20l-19 5 -20 -5z"/>
      <polygon class="fil25" points="11673,6592 11718,6592 11763,6592 11797,6723 11640,6723 "/>
      <path class="fil25" d="M11662 6582l113 0c5,0 10,3 10,8 0,4 -5,7 -10,7l-113 0c-5,0 -10,-3 -10,-7 0,-5 5,-8 10,-8z"/>
      <path class="fil25" d="M11632 6716l173 0c5,0 10,3 10,8 0,4 -5,7 -10,7l-173 0c-6,0 -11,-3 -11,-7 0,-5 5,-8 11,-8z"/>
      <polygon class="fil25" points="11719,5886 11633,5886 11685,6020 11719,6021 11752,6020 11804,5886 "/>
      <g>
       <polygon class="fil19" points="11711,5891 11643,5891 11690,6015 11711,6015 "/>
       <polygon class="fil19" points="11726,5891 11794,5891 11747,6015 11726,6015 "/>
      </g>
     </g>
     <path class="fil25" d="M11719 6741c61,0 110,-9 110,-20 0,-11 -49,-20 -110,-20 -61,0 -110,9 -110,20 0,11 49,20 110,20z"/>
    </g>
    <path class="fil26" d="M11719 5883l80 2c0,0 -8,-10 -48,-17 -16,-3 -19,-20 -24,-25 0,-1 0,-1 -1,-1l7 0c2,0 3,-1 3,-2 0,-2 -1,-3 -3,-3l-3 0c0,-2 0,-5 -1,-6 -3,-5 -8,-8 -6,-18 3,-10 16,-24 -4,-33l0 103z"/>
    <path class="fil26" d="M11719 5882l84 0c3,0 5,1 5,4 0,2 -2,3 -5,3l-84 0 0 -7z"/>
    <polygon class="fil26" points="11719,6054 11739,6054 11739,6587 11719,6587 "/>
    <path class="fil26" d="M11719 6062l20 0c6,-4 14,-9 15,-12 0,-3 -11,-9 -14,-14 -4,-4 -4,-15 -2,-20l-19 5 0 41z"/>
    <polygon class="fil26" points="11719,6592 11763,6592 11797,6723 11719,6723 "/>
    <path class="fil26" d="M11719 6582l56 0c5,0 10,3 10,8 0,4 -5,7 -10,7l-56 0 0 -15z"/>
    <path class="fil25" d="M11719 6716l86 0c5,0 10,3 10,8 0,4 -5,7 -10,7l-86 0 0 -15z"/>
    <polygon class="fil26" points="11719,6021 11752,6020 11804,5886 11719,5886 "/>
    <polygon class="fil19" points="11726,5891 11794,5891 11747,6015 11726,6015 "/>
    <path class="fil26" d="M11719 6701c61,0 110,9 110,20 0,11 -49,20 -110,20l0 -40z"/>
   </g>
   <g>
    <g>
     <g>
      <path class="fil25" d="M16286 5842c-1,0 -1,0 -1,1 -5,5 -8,22 -24,25 -40,7 -48,17 -48,17l83 -2 83 2c0,0 -8,-10 -47,-17 -16,-3 -20,-20 -24,-25 -1,-1 -1,-1 -1,-1l7 0c2,0 3,-1 3,-2 0,-2 -1,-3 -3,-3l-3 0c0,-2 -1,-5 -2,-6 -3,-5 -8,-8 -5,-18 2,-10 17,-26 -8,-34 -24,8 -10,24 -7,34 2,10 -3,13 -6,18 -1,1 -1,4 -1,6l-3 0c-2,0 -3,1 -3,3 0,1 1,2 3,2l7 0z"/>
      <path class="fil25" d="M16208 5882l175 0c3,0 5,1 5,4 0,2 -2,3 -5,3l-175 0c-3,0 -5,-1 -5,-3 0,-3 2,-4 5,-4z"/>
      <polygon class="fil25" points="16279,6587 16319,6587 16319,6054 16279,6054 "/>
      <path class="fil25" d="M16280 6016c2,5 1,16 -2,20 -3,5 -15,11 -14,14 0,3 9,8 15,12l20 0 20 0c6,-4 15,-9 15,-12 1,-3 -10,-9 -14,-14 -3,-4 -3,-15 -2,-20l-19 5 -19 -5z"/>
      <polygon class="fil25" points="16254,6592 16299,6592 16344,6592 16377,6723 16220,6723 "/>
      <path class="fil25" d="M16243 6582l112 0c6,0 10,3 10,8 0,4 -4,7 -10,7l-112 0c-6,0 -10,-3 -10,-7 0,-5 4,-8 10,-8z"/>
      <path class="fil25" d="M16212 6716l173 0c6,0 11,3 11,8 0,4 -5,7 -11,7l-173 0c-5,0 -10,-3 -10,-7 0,-5 5,-8 10,-8z"/>
      <polygon class="fil25" points="16299,5886 16214,5886 16265,6020 16299,6021 16333,6020 16384,5886 "/>
      <g>
       <polygon class="fil19" points="16292,5891 16224,5891 16271,6015 16292,6015 "/>
       <polygon class="fil19" points="16306,5891 16374,5891 16327,6015 16306,6015 "/>
      </g>
     </g>
     <path class="fil25" d="M16300 6741c60,0 110,-9 110,-20 0,-11 -50,-20 -110,-20 -61,0 -110,9 -110,20 0,11 49,20 110,20z"/>
    </g>
    <path class="fil26" d="M16300 5883l79 2c0,0 -8,-10 -47,-17 -16,-3 -20,-20 -24,-25 -1,-1 -1,-1 -1,-1l7 0c2,0 3,-1 3,-2 0,-2 -1,-3 -3,-3l-3 0c0,-2 -1,-5 -2,-6 -3,-5 -8,-8 -5,-18 2,-10 16,-24 -4,-33l0 103z"/>
    <path class="fil26" d="M16300 5882l83 0c3,0 5,1 5,4 0,2 -2,3 -5,3l-83 0 0 -7z"/>
    <polygon class="fil26" points="16300,6054 16319,6054 16319,6587 16300,6587 "/>
    <path class="fil26" d="M16300 6062l19 0c6,-4 15,-9 15,-12 1,-3 -10,-9 -14,-14 -3,-4 -3,-15 -2,-20l-18 5 0 41z"/>
    <polygon class="fil26" points="16300,6592 16344,6592 16377,6723 16300,6723 "/>
    <path class="fil26" d="M16300 6582l55 0c6,0 10,3 10,8 0,4 -4,7 -10,7l-55 0 0 -15z"/>
    <path class="fil25" d="M16300 6716l85 0c6,0 11,3 11,8 0,4 -5,7 -11,7l-85 0 0 -15z"/>
    <polygon class="fil26" points="16300,6021 16333,6020 16384,5886 16300,5886 "/>
    <polygon class="fil19" points="16306,5891 16374,5891 16327,6015 16306,6015 "/>
    <path class="fil26" d="M16300 6701c60,0 110,9 110,20 0,11 -50,20 -110,20l0 -40z"/>
   </g>
   <g>
    <g>
     <g>
      <path class="fil25" d="M20866 5842c0,0 0,0 0,1 -5,5 -9,22 -24,25 -40,7 -48,17 -48,17l83 -2 83 2c0,0 -8,-10 -48,-17 -16,-3 -19,-20 -24,-25 0,-1 0,-1 -1,-1l8 0c1,0 3,-1 3,-2 0,-2 -2,-3 -3,-3l-3 0c0,-2 -1,-5 -2,-6 -3,-5 -8,-8 -6,-18 3,-10 18,-26 -7,-34 -25,8 -10,24 -8,34 3,10 -2,13 -5,18 -1,1 -2,4 -2,6l-3 0c-1,0 -3,1 -3,3 0,1 2,2 3,2l7 0z"/>
      <path class="fil25" d="M20788 5882l176 0c3,0 5,1 5,4 0,2 -2,3 -5,3l-176 0c-2,0 -5,-1 -5,-3 0,-3 3,-4 5,-4z"/>
      <polygon class="fil25" points="20860,6587 20900,6587 20900,6054 20860,6054 "/>
      <path class="fil25" d="M20860 6016c2,5 2,16 -2,20 -3,5 -14,11 -14,14 1,3 9,8 16,12l20 0 20 0c6,-4 15,-9 15,-12 0,-3 -11,-9 -14,-14 -3,-4 -4,-15 -2,-20l-19 5 -20 -5z"/>
      <polygon class="fil25" points="20834,6592 20879,6592 20925,6592 20958,6723 20801,6723 "/>
      <path class="fil25" d="M20824 6582l112 0c5,0 10,3 10,8 0,4 -5,7 -10,7l-112 0c-6,0 -11,-3 -11,-7 0,-5 5,-8 11,-8z"/>
      <path class="fil25" d="M20793 6716l173 0c6,0 10,3 10,8 0,4 -4,7 -10,7l-173 0c-6,0 -10,-3 -10,-7 0,-5 4,-8 10,-8z"/>
      <polygon class="fil25" points="20880,5886 20795,5886 20846,6020 20880,6021 20914,6020 20965,5886 "/>
      <g>
       <polygon class="fil19" points="20872,5891 20804,5891 20851,6015 20872,6015 "/>
       <polygon class="fil19" points="20887,5891 20955,5891 20908,6015 20887,6015 "/>
      </g>
     </g>
     <path class="fil25" d="M20880 6741c61,0 110,-9 110,-20 0,-11 -49,-20 -110,-20 -60,0 -110,9 -110,20 0,11 50,20 110,20z"/>
    </g>
    <path class="fil26" d="M20880 5883l80 2c0,0 -8,-10 -48,-17 -16,-3 -19,-20 -24,-25 0,-1 0,-1 -1,-1l8 0c1,0 3,-1 3,-2 0,-2 -2,-3 -3,-3l-3 0c0,-2 -1,-5 -2,-6 -3,-5 -8,-8 -6,-18 3,-10 16,-24 -4,-33l0 103z"/>
    <path class="fil26" d="M20880 5882l84 0c3,0 5,1 5,4 0,2 -2,3 -5,3l-84 0 0 -7z"/>
    <polygon class="fil26" points="20880,6054 20900,6054 20900,6587 20880,6587 "/>
    <path class="fil26" d="M20880 6062l20 0c6,-4 15,-9 15,-12 0,-3 -11,-9 -14,-14 -3,-4 -4,-15 -2,-20l-19 5 0 41z"/>
    <polygon class="fil26" points="20880,6592 20925,6592 20958,6723 20880,6723 "/>
    <path class="fil26" d="M20880 6582l56 0c5,0 10,3 10,8 0,4 -5,7 -10,7l-56 0 0 -15z"/>
    <path class="fil25" d="M20880 6716l86 0c6,0 10,3 10,8 0,4 -4,7 -10,7l-86 0 0 -15z"/>
    <polygon class="fil26" points="20880,6021 20914,6020 20965,5886 20880,5886 "/>
    <polygon class="fil19" points="20887,5891 20955,5891 20908,6015 20887,6015 "/>
    <path class="fil26" d="M20880 6701c61,0 110,9 110,20 0,11 -49,20 -110,20l0 -40z"/>
   </g>
   <polygon class="fil27" points="0,7222 84,7122 1189,6694 23996,6614 24010,7352 0,7558 "/>
   <polygon class="fil44" points="23996,8218 0,8218 0,7122 23996,7122 "/>
   <path class="fil45" d="M1139 7520l-1139 0 0 -76 1139 0c27,0 50,17 50,38 0,21 -23,38 -50,38z"/>
   <path class="fil45" d="M4771 7870l-3167 0c-27,0 -50,-17 -50,-38 0,-21 23,-38 50,-38l3167 0c28,0 50,17 50,38 0,21 -22,38 -50,38z"/>
   <path class="fil45" d="M9650 7592l-3166 0c-28,0 -51,-17 -51,-38 0,-20 23,-37 51,-37l3166 0c28,0 51,17 51,37 0,21 -23,38 -51,38z"/>
   <path class="fil45" d="M13885 7827l-3167 0c-27,0 -50,-17 -50,-38 0,-21 23,-38 50,-38l3167 0c28,0 50,17 50,38 0,21 -22,38 -50,38z"/>
   <path class="fil45" d="M18098 7520l-3167 0c-27,0 -50,-17 -50,-38 0,-21 23,-38 50,-38l3167 0c28,0 50,17 50,38 0,21 -22,38 -50,38z"/>
   <path class="fil45" d="M20218 7908l-3167 0c-27,0 -50,-17 -50,-38 0,-21 23,-38 50,-38l3167 0c28,0 50,17 50,38 0,21 -22,38 -50,38z"/>
   <g>
    <path class="fil28" d="M6026 6248c0,51 -190,92 -425,92 -235,0 -425,-41 -425,-92 0,-51 190,-92 425,-92 235,0 425,41 425,92z"/>
    <g>
     <path class="fil46" d="M6146 5016c-142,-158 -347,-282 -536,-301 -431,46 -821,519 -686,827 74,167 301,285 757,262 780,-39 742,-479 465,-788z"/>
     <path class="fil30" d="M5886 5337l-121 92 -12 -111 -2 122 -130 98 -3 -83 -26 -541 -24 416 -100 -111 99 131 -6 105 -6 178 -150 -113 -11 -122 -4 110 -99 -75 127 113 -158 -46 175 61 118 105 -20 578c-1,2 -1,3 0,4 0,1 1,1 1,1 1,1 1,2 2,2 1,1 1,1 2,2 1,0 2,1 4,1 0,1 2,1 2,1 2,1 3,1 5,1 1,1 2,1 3,1 2,0 4,1 6,1 1,0 3,0 4,1 2,0 4,0 6,0 2,0 3,0 4,0 3,1 5,1 7,1 1,0 5,0 7,0 28,0 52,-6 51,-16l-15 -556 2 0 1 0 -3 -117 70 -63 173 -47 -159 35 180 -159z"/>
    </g>
   </g>
   <g>
    <path class="fil28" d="M13233 6087c0,51 -190,92 -425,92 -234,0 -424,-41 -424,-92 0,-51 190,-92 424,-92 235,0 425,41 425,92z"/>
    <g>
     <path class="fil47" d="M13353 4855c-142,-158 -346,-282 -536,-301 -431,46 -821,519 -685,827 73,167 300,285 757,262 780,-39 742,-479 464,-788z"/>
     <path class="fil30" d="M13094 5175l-122 93 -11 -112 -3 122 -130 99 -3 -83 -25 -541 -24 415 -101 -110 99 131 -6 105 -6 178 -150 -114 -11 -122 -4 111 -99 -75 127 113 -158 -46 175 61 119 105 -21 578c-1,2 0,3 0,4 0,0 1,1 1,1 1,1 1,2 2,2 1,1 2,1 2,1 2,1 3,2 4,2 1,0 2,1 3,1 1,0 3,1 4,1 1,1 3,1 4,1 2,0 3,1 5,1 2,0 3,0 4,0 2,1 4,1 6,1 2,0 3,0 5,0 2,0 4,1 6,1 2,0 6,0 7,0 28,0 52,-6 51,-16l-15 -556 2 0 1 0 -3 -117 71 -63 172 -47 -159 35 181 -160z"/>
    </g>
   </g>
   <g>
    <path class="fil28" d="M18138 6442c0,50 -190,91 -425,91 -235,0 -425,-41 -425,-91 0,-51 190,-92 425,-92 235,0 425,41 425,92z"/>
    <g>
     <path class="fil48" d="M18257 5209c-142,-158 -346,-282 -536,-301 -430,46 -821,520 -685,828 73,166 300,285 757,262 780,-40 742,-480 464,-789z"/>
     <path class="fil30" d="M17998 5530l-122 92 -11 -111 -3 122 -129 98 -3 -83 -26 -541 -24 416 -100 -110 99 131 -6 104 -7 179 -150 -114 -11 -122 -3 111 -99 -75 126 112 -157 -46 174 61 119 106 -21 578c0,1 0,2 1,4 0,0 0,0 1,1 0,0 1,1 2,2 0,0 1,1 2,1 1,0 2,1 3,2 1,0 2,0 3,0 2,1 3,1 5,2 1,0 2,0 3,0 2,1 4,1 6,1 1,1 2,1 4,1 2,0 4,0 6,1 1,0 3,0 4,0 2,0 4,0 7,0 1,0 5,0 7,0 27,0 51,-6 51,-15l-16 -557 3 0 1 0 -4 -117 71 -62 173 -47 -159 35 180 -160z"/>
    </g>
   </g>
   <g>
    <path class="fil28" d="M22530 6442c0,50 -190,91 -425,91 -234,0 -425,-41 -425,-91 0,-51 191,-92 425,-92 235,0 425,41 425,92z"/>
    <g>
     <path class="fil49" d="M22650 5209c-142,-158 -346,-282 -536,-301 -431,46 -821,520 -685,828 73,166 300,285 757,262 780,-40 742,-480 464,-789z"/>
     <path class="fil30" d="M22390 5530l-121 92 -11 -111 -3 122 -130 98 -3 -83 -25 -541 -25 416 -100 -110 99 131 -6 104 -6 179 -150 -114 -11 -122 -4 111 -99 -75 127 112 -158 -46 175 61 119 106 -21 578c-1,1 0,2 0,4 0,0 1,0 1,1 1,0 1,1 2,2 1,0 2,1 2,1 1,0 3,1 4,2 1,0 2,0 3,0 1,1 3,1 4,2 1,0 3,0 4,0 2,1 3,1 5,1 2,1 3,1 4,1 2,0 4,0 6,1 2,0 3,0 5,0 2,0 4,0 6,0 2,0 6,0 7,0 28,0 52,-6 51,-15l-15 -557 2 0 1 0 -3 -117 71 -62 172 -47 -159 35 180 -160z"/>
    </g>
   </g>
   <g>
    <path class="fil50" d="M9288 5766c-831,-59 -159,-1276 0,-1335 158,59 831,1276 0,1335z"/>
    <path class="fil28" d="M9603 6112c0,37 -139,67 -311,67 -172,0 -312,-30 -312,-67 0,-38 140,-68 312,-68 172,0 311,30 311,68z"/>
    <g>
     <path class="fil30" d="M9517 5431l-89 68 -8 -82 -2 90 -95 72 -2 -61 -19 -397 -18 305 -73 -81 72 96 -4 77 -5 131 -110 -84 -8 -89 -3 81 -72 -55 93 82 -116 -33 128 44 87 78 -15 423c0,1 0,2 0,3 0,0 1,1 1,1 0,1 1,1 2,2 0,0 1,0 1,0 1,1 2,1 3,2 0,0 1,0 2,0 1,1 2,1 3,1 1,0 2,1 3,1 1,0 2,0 4,0 1,1 2,1 2,1 2,0 3,0 5,0 1,0 2,0 3,0 2,1 3,1 5,1 1,0 4,0 5,0 21,0 38,-5 37,-12l-11 -407 2 0 1 0 -3 -86 52 -46 127 -35 -117 26 132 -117z"/>
    </g>
   </g>
   <g>
    <path class="fil51" d="M14789 5347c-831,-59 -158,-1276 0,-1335 158,59 831,1276 0,1335z"/>
    <path class="fil28" d="M15105 5693c0,37 -140,67 -312,67 -172,0 -311,-30 -311,-67 0,-38 139,-68 311,-68 172,0 312,30 312,68z"/>
    <g>
     <path class="fil30" d="M15019 5012l-90 68 -8 -82 -2 90 -95 72 -2 -61 -19 -397 -17 305 -74 -81 73 96 -5 77 -5 131 -109 -84 -8 -89 -3 81 -73 -55 93 82 -115 -33 128 44 87 78 -16 423c0,1 0,2 1,3 0,0 0,1 0,1 1,1 1,1 2,2 0,0 1,0 1,0 1,1 2,1 3,2 1,0 1,0 2,0 1,1 2,1 3,1 1,0 2,1 3,1 1,0 3,0 4,0 1,1 2,1 3,1 1,0 3,0 4,0 1,0 3,0 4,0 1,1 3,1 4,1 1,0 4,0 5,0 21,0 38,-5 38,-12l-11 -407 1 0 1 0 -2 -86 51 -46 127 -35 -116 26 132 -117z"/>
    </g>
   </g>
   <g>
    <path class="fil52" d="M19608 5701c-831,-59 -158,-1275 0,-1334 158,59 831,1275 0,1334z"/>
    <path class="fil28" d="M19924 6047c0,37 -140,67 -312,67 -172,0 -311,-30 -311,-67 0,-37 139,-67 311,-67 172,0 312,30 312,67z"/>
    <g>
     <path class="fil30" d="M19838 5367l-90 67 -8 -81 -2 89 -95 72 -2 -61 -19 -396 -17 304 -74 -80 73 96 -5 76 -4 131 -110 -83 -8 -90 -3 82 -73 -56 93 83 -115 -34 128 45 87 77 -16 424c0,1 0,2 1,3 0,0 0,0 0,1 1,0 1,1 2,1 0,0 1,1 2,1 0,0 1,1 2,1 1,0 1,1 2,1 1,0 2,0 4,1 0,0 1,0 2,0 1,1 3,1 4,1 1,0 2,0 3,0 1,0 3,1 5,1 1,0 2,0 3,0 1,0 3,0 4,0 2,0 4,0 5,0 21,0 38,-4 38,-11l-11 -408 2 0 0 0 -2 -86 51 -45 127 -35 -116 26 132 -117z"/>
    </g>
   </g>
  </g>
  <polygon class="fil53" points="0,8176 23992,8218 23990,9314 0,9272 "/>
  <path class="fil45" d="M234 9017l-234 0 0 -75 234 0c27,0 50,17 50,38 0,20 -23,37 -50,37z"/>
  <path class="fil45" d="M3794 8705l-3166 0c-28,0 -51,-17 -51,-38 0,-20 23,-37 51,-37l3166 0c28,0 50,17 50,37 0,21 -22,38 -50,38z"/>
  <path class="fil45" d="M7427 9055l-3167 0c-28,0 -50,-17 -50,-38 0,-20 22,-37 50,-37l3167 0c27,0 50,17 50,37 0,21 -23,38 -50,38z"/>
  <path class="fil45" d="M12306 8778l-3167 0c-27,0 -50,-17 -50,-38 0,-21 23,-38 50,-38l3167 0c28,0 50,17 50,38 0,21 -22,38 -50,38z"/>
  <path class="fil45" d="M16541 9012l-3167 0c-27,0 -50,-17 -50,-38 0,-20 23,-37 50,-37l3167 0c28,0 50,17 50,37 0,21 -22,38 -50,38z"/>
  <path class="fil45" d="M20754 8705l-3167 0c-28,0 -50,-17 -50,-38 0,-20 22,-37 50,-37l3167 0c27,0 50,17 50,37 0,21 -23,38 -50,38z"/>
  <path class="fil45" d="M22874 9093l-3167 0c-28,0 -50,-17 -50,-38 0,-21 22,-38 50,-38l3167 0c27,0 50,17 50,38 0,21 -23,38 -50,38z"/>
  <polygon class="fil54" points="45763,8159 23804,8159 23804,7122 45763,7122 "/>
  <polygon class="fil55" points="23798,8103 45763,8141 45763,9343 41195,9343 23796,9313 "/>
  <polygon class="fil45" points="21718,7220 24885,7220 "/>
  <polygon class="fil45" points="25953,7455 29120,7455 "/>
  <polygon class="fil45" points="30166,7148 33333,7148 "/>
  <polygon class="fil45" points="32286,7536 35453,7536 "/>
  <polygon class="fil45" points="22661,8759 19495,8759 "/>
  <polygon class="fil45" points="24374,8406 27541,8406 "/>
  <polygon class="fil45" points="28609,8640 31776,8640 "/>
  <path class="fil45" d="M35989 8409l-3167 0c-28,0 -50,-17 -50,-38 0,-21 22,-38 50,-38l3167 0c27,0 50,17 50,38 0,21 -23,38 -50,38z"/>
  <path class="fil45" d="M38109 8721c27,0 50,17 50,38 0,21 -23,38 -50,38l-3167 0c-28,0 -50,-17 -50,-38 0,-21 22,-38 50,-38l3167 0z"/>
  <path class="fil45" d="M24960 7670l-3167 0c-27,0 -50,-17 -50,-37 0,-21 23,-38 50,-38l3167 0c28,0 50,17 50,38 0,20 -22,37 -50,37z"/>
  <path class="fil45" d="M27509 8204l-3167 0c-27,0 -50,-17 -50,-38 0,-21 23,-38 50,-38l3167 0c28,0 50,17 50,38 0,21 -22,38 -50,38z"/>
  <path class="fil45" d="M24960 8737l-3167 0c-27,0 -50,-17 -50,-37 0,-21 23,-38 50,-38l3167 0c28,0 50,17 50,38 0,20 -22,37 -50,37z"/>
  <path class="fil45" d="M30533 8975l-3167 0c-28,0 -50,-17 -50,-38 0,-21 22,-38 50,-38l3167 0c27,0 50,17 50,38 0,21 -23,38 -50,38z"/>
  <path class="fil45" d="M33259 7670l-3167 0c-27,0 -50,-17 -50,-37 0,-21 23,-38 50,-38l3167 0c28,0 50,17 50,38 0,20 -22,37 -50,37z"/>
 </g>
</svg>
