<?xml version="1.0" encoding="UTF-8"?>
<!DOCTYPE svg PUBLIC "-//W3C//DTD SVG 1.1//EN" "http://www.w3.org/Graphics/SVG/1.1/DTD/svg11.dtd">
<!-- Creator: CorelDRAW X7 -->
<svg xmlns="http://www.w3.org/2000/svg" xml:space="preserve" width="1953px" height="350px" version="1.1" style="shape-rendering:geometricPrecision; text-rendering:geometricPrecision; image-rendering:optimizeQuality; fill-rule:evenodd; clip-rule:evenodd"
viewBox="0 0 2799 502"
 xmlns:xlink="http://www.w3.org/1999/xlink">
 <defs>
  <style type="text/css">
   <![CDATA[
    .fil25 {fill:#404041}
    .fil26 {fill:#494848}
    .fil0 {fill:#677B61}
    .fil21 {fill:#678073}
    .fil1 {fill:#70846A}
    .fil30 {fill:#774E29}
    .fil2 {fill:#809778}
    .fil15 {fill:#89ABAD}
    .fil4 {fill:#8D8073}
    .fil18 {fill:#8F7D65}
    .fil14 {fill:#97B5B6}
    .fil5 {fill:#9F8E80}
    .fil17 {fill:#A18C76}
    .fil9 {fill:#A3613E}
    .fil22 {fill:#A6B793}
    .fil16 {fill:#A6CBCE}
    .fil10 {fill:#B56D46}
    .fil20 {fill:#B7CBA9}
    .fil6 {fill:#BAA794}
    .fil12 {fill:#BF744B}
    .fil40 {fill:#C6882B}
    .fil13 {fill:#CF7C50}
    .fil11 {fill:#D0DFE6}
    .fil27 {fill:#D5C6C0}
    .fil39 {fill:#D6912F}
    .fil23 {fill:#DE9326}
    .fil3 {fill:#E3F4F9}
    .fil19 {fill:#E6E7E8}
    .fil41 {fill:#F9AD47}
    .fil42 {fill:#FFE8CC}
    .fil38 {fill:#928966;fill-rule:nonzero}
    .fil8 {fill:#AEA278;fill-rule:nonzero}
    .fil37 {fill:#C5B787;fill-rule:nonzero}
    .fil7 {fill:#E3F4F9;fill-rule:nonzero}
    .fil36 {fill:#B3B3B3}
    .fil28 {fill:#E6E6E6}
    .fil45 {fill:#F1F1F1;fill-rule:nonzero}
    .fil31 {fill:url(#id0)}
    .fil35 {fill:url(#id1)}
    .fil29 {fill:url(#id2)}
    .fil32 {fill:url(#id3)}
    .fil48 {fill:url(#id4)}
    .fil52 {fill:url(#id5)}
    .fil46 {fill:url(#id6)}
    .fil33 {fill:url(#id7)}
    .fil34 {fill:url(#id8)}
    .fil47 {fill:url(#id9)}
    .fil50 {fill:url(#id10)}
    .fil51 {fill:url(#id11)}
    .fil49 {fill:url(#id12)}
    .fil53 {fill:url(#id13);fill-rule:nonzero}
    .fil55 {fill:url(#id14);fill-rule:nonzero}
    .fil44 {fill:url(#id15);fill-rule:nonzero}
    .fil24 {fill:url(#id16);fill-rule:nonzero}
    .fil54 {fill:url(#id17);fill-rule:nonzero}
    .fil43 {fill:url(#id18);fill-rule:nonzero}
   ]]>
  </style>
  <linearGradient id="id0" gradientUnits="userSpaceOnUse" x1="1737.06" y1="305.273" x2="1737.06" y2="246.771">
   <stop offset="0" style="stop-opacity:1; stop-color:#8A8E2C"/>
   <stop offset="0.490196" style="stop-opacity:1; stop-color:#BCB031"/>
   <stop offset="0.94902" style="stop-opacity:1; stop-color:#CDC069"/>
   <stop offset="1" style="stop-opacity:1; stop-color:#CDC069"/>
  </linearGradient>
  <linearGradient id="id1" gradientUnits="userSpaceOnUse" x1="1485.7" y1="296.091" x2="1485.7" y2="248.927">
   <stop offset="0" style="stop-opacity:1; stop-color:#888E08"/>
   <stop offset="0.490196" style="stop-opacity:1; stop-color:#BCAB00"/>
   <stop offset="0.94902" style="stop-opacity:1; stop-color:#CDBB43"/>
   <stop offset="1" style="stop-opacity:1; stop-color:#CDBB43"/>
  </linearGradient>
  <linearGradient id="id2" gradientUnits="userSpaceOnUse" xlink:href="#id0" x1="2003.91" y1="313.903" x2="2003.91" y2="255.401">
  </linearGradient>
  <linearGradient id="id3" gradientUnits="userSpaceOnUse" xlink:href="#id0" x1="1555.48" y1="324.258" x2="1555.48" y2="265.756">
  </linearGradient>
  <linearGradient id="id4" gradientUnits="userSpaceOnUse" xlink:href="#id0" x1="1145.48" y1="321.334" x2="1145.48" y2="262.832">
  </linearGradient>
  <linearGradient id="id5" gradientUnits="userSpaceOnUse" xlink:href="#id1" x1="1223.03" y1="293.166" x2="1223.03" y2="246.002">
  </linearGradient>
  <linearGradient id="id6" gradientUnits="userSpaceOnUse" xlink:href="#id0" x1="647.081" y1="310.979" x2="647.081" y2="252.477">
  </linearGradient>
  <linearGradient id="id7" gradientUnits="userSpaceOnUse" xlink:href="#id1" x1="1867.82" y1="299.543" x2="1867.82" y2="252.378">
  </linearGradient>
  <linearGradient id="id8" gradientUnits="userSpaceOnUse" xlink:href="#id1" x1="1664.13" y1="277.106" x2="1664.13" y2="229.942">
  </linearGradient>
  <linearGradient id="id9" gradientUnits="userSpaceOnUse" xlink:href="#id0" x1="943.663" y1="302.351" x2="943.663" y2="243.847">
  </linearGradient>
  <linearGradient id="id10" gradientUnits="userSpaceOnUse" xlink:href="#id1" x1="798.337" y1="296.618" x2="798.337" y2="249.453">
  </linearGradient>
  <linearGradient id="id11" gradientUnits="userSpaceOnUse" xlink:href="#id1" x1="1024.72" y1="274.181" x2="1024.72" y2="227.017">
  </linearGradient>
  <linearGradient id="id12" gradientUnits="userSpaceOnUse" xlink:href="#id0" x1="1326.24" y1="321.334" x2="1326.24" y2="262.832">
  </linearGradient>
  <linearGradient id="id13" gradientUnits="userSpaceOnUse" x1="701.716" y1="498.758" x2="701.716" y2="436.92">
   <stop offset="0" style="stop-opacity:1; stop-color:#CCE0F3"/>
   <stop offset="0.368627" style="stop-opacity:1; stop-color:#66B9E6"/>
   <stop offset="1" style="stop-opacity:1; stop-color:#0092D8"/>
  </linearGradient>
  <linearGradient id="id14" gradientUnits="userSpaceOnUse" xlink:href="#id13" x1="2097.12" y1="501.889" x2="2097.12" y2="433.919">
  </linearGradient>
  <linearGradient id="id15" gradientUnits="userSpaceOnUse" xlink:href="#id13" x1="701.911" y1="440.094" x2="701.911" y2="381.405">
  </linearGradient>
  <linearGradient id="id16" gradientUnits="userSpaceOnUse" x1="1401.49" y1="354.203" x2="2394.16" y2="354.203">
   <stop offset="0" style="stop-opacity:1; stop-color:#BBC37A"/>
   <stop offset="0.521569" style="stop-opacity:1; stop-color:#9CAD3B"/>
   <stop offset="1" style="stop-opacity:1; stop-color:#788C2E"/>
  </linearGradient>
  <linearGradient id="id17" gradientUnits="userSpaceOnUse" xlink:href="#id13" x1="2097.35" y1="436.933" x2="2097.35" y2="381.418">
  </linearGradient>
  <linearGradient id="id18" gradientUnits="userSpaceOnUse" xlink:href="#id16" x1="302.475" y1="354.13" x2="1403.59" y2="354.13">
  </linearGradient>
 </defs>
 <g id="objects">
  <metadata id="CorelCorpID_0Corel-Layer"/>
  <g id="_54972533120">
   <polygon class="fil0" points="1625,150 1641,120 1625,91 1594,91 1578,120 1594,150 "/>
   <polygon class="fil1" points="1644,123 1575,123 1575,112 1644,112 "/>
   <polygon class="fil2" points="1651,328 1569,328 1569,120 1651,120 "/>
   <g>
    <polygon class="fil3" points="1644,147 1637,147 1637,131 1644,131 "/>
    <polygon class="fil3" points="1632,147 1625,147 1625,131 1632,131 "/>
    <polygon class="fil3" points="1620,147 1612,147 1612,131 1620,131 "/>
    <polygon class="fil3" points="1607,147 1600,147 1600,131 1607,131 "/>
    <polygon class="fil3" points="1595,147 1587,147 1587,131 1595,131 "/>
    <polygon class="fil3" points="1582,147 1575,147 1575,131 1582,131 "/>
   </g>
   <g>
    <polygon class="fil3" points="1644,167 1637,167 1637,151 1644,151 "/>
    <polygon class="fil3" points="1632,167 1625,167 1625,151 1632,151 "/>
    <polygon class="fil3" points="1620,167 1612,167 1612,151 1620,151 "/>
    <polygon class="fil3" points="1607,167 1600,167 1600,151 1607,151 "/>
    <polygon class="fil3" points="1595,167 1587,167 1587,151 1595,151 "/>
    <polygon class="fil3" points="1582,167 1575,167 1575,151 1582,151 "/>
   </g>
   <g>
    <polygon class="fil3" points="1644,187 1637,187 1637,172 1644,172 "/>
    <polygon class="fil3" points="1632,187 1625,187 1625,172 1632,172 "/>
    <polygon class="fil3" points="1620,187 1612,187 1612,172 1620,172 "/>
    <polygon class="fil3" points="1607,187 1600,187 1600,172 1607,172 "/>
    <polygon class="fil3" points="1595,187 1587,187 1587,172 1595,172 "/>
    <polygon class="fil3" points="1582,187 1575,187 1575,172 1582,172 "/>
   </g>
   <g>
    <polygon class="fil3" points="1644,208 1637,208 1637,192 1644,192 "/>
    <polygon class="fil3" points="1632,208 1625,208 1625,192 1632,192 "/>
    <polygon class="fil3" points="1620,208 1612,208 1612,192 1620,192 "/>
    <polygon class="fil3" points="1607,208 1600,208 1600,192 1607,192 "/>
    <polygon class="fil3" points="1595,208 1587,208 1587,192 1595,192 "/>
    <polygon class="fil3" points="1582,208 1575,208 1575,192 1582,192 "/>
   </g>
   <g>
    <polygon class="fil3" points="1644,228 1637,228 1637,212 1644,212 "/>
    <polygon class="fil3" points="1632,228 1625,228 1625,212 1632,212 "/>
    <polygon class="fil3" points="1620,228 1612,228 1612,212 1620,212 "/>
    <polygon class="fil3" points="1607,228 1600,228 1600,212 1607,212 "/>
    <polygon class="fil3" points="1595,228 1587,228 1587,212 1595,212 "/>
    <polygon class="fil3" points="1582,228 1575,228 1575,212 1582,212 "/>
   </g>
   <g>
    <polygon class="fil3" points="1644,248 1637,248 1637,233 1644,233 "/>
    <polygon class="fil3" points="1632,248 1625,248 1625,233 1632,233 "/>
    <polygon class="fil3" points="1620,248 1612,248 1612,233 1620,233 "/>
    <polygon class="fil3" points="1607,248 1600,248 1600,233 1607,233 "/>
    <polygon class="fil3" points="1595,248 1587,248 1587,233 1595,233 "/>
    <polygon class="fil3" points="1582,248 1575,248 1575,233 1582,233 "/>
   </g>
   <g>
    <polygon class="fil3" points="1644,268 1637,268 1637,253 1644,253 "/>
    <polygon class="fil3" points="1632,268 1625,268 1625,253 1632,253 "/>
    <polygon class="fil3" points="1620,268 1612,268 1612,253 1620,253 "/>
    <polygon class="fil3" points="1607,268 1600,268 1600,253 1607,253 "/>
    <polygon class="fil3" points="1595,268 1587,268 1587,253 1595,253 "/>
    <polygon class="fil3" points="1582,268 1575,268 1575,253 1582,253 "/>
   </g>
   <g>
    <polygon class="fil3" points="1644,289 1637,289 1637,273 1644,273 "/>
    <polygon class="fil3" points="1632,289 1625,289 1625,273 1632,273 "/>
    <polygon class="fil3" points="1620,289 1612,289 1612,273 1620,273 "/>
    <polygon class="fil3" points="1607,289 1600,289 1600,273 1607,273 "/>
    <polygon class="fil3" points="1595,289 1587,289 1587,273 1595,273 "/>
    <polygon class="fil3" points="1582,289 1575,289 1575,273 1582,273 "/>
   </g>
  </g>
  <g id="_54972946416">
   <polygon class="fil4" points="1572,124 1514,124 1514,105 1572,105 "/>
   <polygon class="fil5" points="1577,167 1509,167 1509,120 1577,120 "/>
   <polygon class="fil6" points="1584,295 1502,295 1502,164 1584,164 "/>
   <polygon class="fil3" points="1574,280 1579,280 1579,174 1574,174 "/>
   <polygon class="fil3" points="1566,280 1571,280 1571,174 1566,174 "/>
   <polygon class="fil3" points="1558,280 1563,280 1563,174 1558,174 "/>
   <polygon class="fil3" points="1549,280 1554,280 1554,174 1549,174 "/>
   <polygon class="fil3" points="1541,280 1546,280 1546,174 1541,174 "/>
   <polygon class="fil3" points="1532,280 1537,280 1537,174 1532,174 "/>
   <polygon class="fil3" points="1524,280 1529,280 1529,174 1524,174 "/>
   <polygon class="fil3" points="1515,280 1521,280 1521,174 1515,174 "/>
   <polygon class="fil3" points="1507,280 1512,280 1512,174 1507,174 "/>
   <g>
    <polygon class="fil3" points="1569,160 1573,160 1573,126 1569,126 "/>
    <polygon class="fil3" points="1562,160 1566,160 1566,126 1562,126 "/>
    <polygon class="fil3" points="1555,160 1559,160 1559,126 1555,126 "/>
    <polygon class="fil3" points="1548,160 1552,160 1552,126 1548,126 "/>
    <polygon class="fil3" points="1541,160 1545,160 1545,126 1541,126 "/>
    <polygon class="fil3" points="1534,160 1538,160 1538,126 1534,126 "/>
    <polygon class="fil3" points="1527,160 1531,160 1531,126 1527,126 "/>
    <polygon class="fil3" points="1520,160 1524,160 1524,126 1520,126 "/>
    <polygon class="fil3" points="1513,160 1517,160 1517,126 1513,126 "/>
   </g>
  </g>
  <g id="_54972932880">
   <polygon class="fil7" points="1426,225 1426,219 "/>
   <polygon class="fil7" points="1426,234 1426,228 "/>
   <polygon class="fil8" points="1354,288 1433,288 1433,278 1354,278 "/>
   <polygon class="fil7" points="1360,276 1426,276 1426,270 1360,270 "/>
  </g>
  <g id="_54972934384">
   <polygon class="fil9" points="1432,91 1432,148 1484,148 1484,91 1471,87 1458,83 1445,87 "/>
   <polygon class="fil10" points="1497,153 1422,153 1422,119 1497,119 "/>
   <g>
    <polygon class="fil11" points="1485,133 1479,133 1479,124 1485,124 "/>
    <polygon class="fil11" points="1485,145 1479,145 1479,135 1485,135 "/>
    <polygon class="fil11" points="1476,133 1469,133 1469,124 1476,124 "/>
    <polygon class="fil11" points="1476,145 1469,145 1469,135 1476,135 "/>
    <polygon class="fil11" points="1466,133 1460,133 1460,124 1466,124 "/>
    <polygon class="fil11" points="1466,145 1460,145 1460,135 1466,135 "/>
    <polygon class="fil11" points="1457,133 1450,133 1450,124 1457,124 "/>
    <polygon class="fil11" points="1457,145 1450,145 1450,135 1457,135 "/>
    <polygon class="fil11" points="1447,133 1440,133 1440,124 1447,124 "/>
    <polygon class="fil11" points="1447,145 1440,145 1440,135 1447,135 "/>
    <polygon class="fil11" points="1437,133 1431,133 1431,124 1437,124 "/>
    <polygon class="fil11" points="1437,145 1431,145 1431,135 1437,135 "/>
   </g>
   <polygon class="fil12" points="1501,182 1414,182 1414,148 1501,148 "/>
   <polygon class="fil13" points="1509,283 1407,283 1407,160 1509,160 "/>
   <g>
    <polygon class="fil3" points="1501,182 1494,182 1494,168 1501,168 "/>
    <polygon class="fil3" points="1486,182 1478,182 1478,168 1486,168 "/>
    <polygon class="fil3" points="1470,182 1462,182 1462,168 1470,168 "/>
    <polygon class="fil3" points="1454,182 1446,182 1446,168 1454,168 "/>
    <polygon class="fil3" points="1438,182 1430,182 1430,168 1438,168 "/>
    <polygon class="fil3" points="1422,182 1414,182 1414,168 1422,168 "/>
   </g>
   <g>
    <polygon class="fil3" points="1501,200 1494,200 1494,186 1501,186 "/>
    <polygon class="fil3" points="1486,200 1478,200 1478,186 1486,186 "/>
    <polygon class="fil3" points="1470,200 1462,200 1462,186 1470,186 "/>
    <polygon class="fil3" points="1454,200 1446,200 1446,186 1454,186 "/>
    <polygon class="fil3" points="1438,200 1430,200 1430,186 1438,186 "/>
    <polygon class="fil3" points="1422,200 1414,200 1414,186 1422,186 "/>
   </g>
   <g>
    <polygon class="fil3" points="1501,218 1494,218 1494,204 1501,204 "/>
    <polygon class="fil3" points="1486,218 1478,218 1478,204 1486,204 "/>
    <polygon class="fil3" points="1470,218 1462,218 1462,204 1470,204 "/>
    <polygon class="fil3" points="1454,218 1446,218 1446,204 1454,204 "/>
    <polygon class="fil3" points="1438,218 1430,218 1430,204 1438,204 "/>
    <polygon class="fil3" points="1422,218 1414,218 1414,204 1422,204 "/>
   </g>
   <g>
    <polygon class="fil3" points="1501,236 1494,236 1494,223 1501,223 "/>
    <polygon class="fil3" points="1486,236 1478,236 1478,223 1486,223 "/>
    <polygon class="fil3" points="1470,236 1462,236 1462,223 1470,223 "/>
    <polygon class="fil3" points="1454,236 1446,236 1446,223 1454,223 "/>
    <polygon class="fil3" points="1438,236 1430,236 1430,223 1438,223 "/>
    <polygon class="fil3" points="1422,236 1414,236 1414,223 1422,223 "/>
   </g>
   <g>
    <polygon class="fil3" points="1501,255 1494,255 1494,241 1501,241 "/>
    <polygon class="fil3" points="1486,255 1478,255 1478,241 1486,241 "/>
    <polygon class="fil3" points="1470,255 1462,255 1462,241 1470,241 "/>
    <polygon class="fil3" points="1454,255 1446,255 1446,241 1454,241 "/>
    <polygon class="fil3" points="1438,255 1430,255 1430,241 1438,241 "/>
    <polygon class="fil3" points="1422,255 1414,255 1414,241 1422,241 "/>
   </g>
   <g>
    <polygon class="fil3" points="1501,273 1494,273 1494,259 1501,259 "/>
    <polygon class="fil3" points="1486,273 1478,273 1478,259 1486,259 "/>
    <polygon class="fil3" points="1470,273 1462,273 1462,259 1470,259 "/>
    <polygon class="fil3" points="1454,273 1446,273 1446,259 1454,259 "/>
    <polygon class="fil3" points="1438,273 1430,273 1430,259 1438,259 "/>
    <polygon class="fil3" points="1422,273 1414,273 1414,259 1422,259 "/>
   </g>
   <g>
    <polygon class="fil11" points="1475,113 1462,113 1462,95 1475,95 "/>
    <polygon class="fil11" points="1457,113 1444,113 1444,95 1457,95 "/>
   </g>
  </g>
  <g id="_54974820544">
   <polygon class="fil14" points="1741,259 1663,259 1663,236 1741,236 "/>
   <polygon class="fil15" points="1741,282 1738,282 1738,236 1741,236 "/>
   <polygon class="fil15" points="1666,282 1663,282 1663,236 1666,236 "/>
   <polygon class="fil16" points="1748,301 1656,301 1656,255 1748,255 "/>
   <polygon class="fil15" points="1748,301 1745,301 1745,255 1748,255 "/>
   <polygon class="fil15" points="1659,301 1656,301 1656,255 1659,255 "/>
   <polygon class="fil17" points="1702,217 1681,226 1660,236 1702,236 1744,236 1723,226 "/>
   <polygon class="fil18" points="1702,217 1681,226 1660,236 1702,236 "/>
   <g>
    <path class="fil19" d="M1733 239l-5 0 0 5 5 0 0 -5zm-6 0l0 0 -6 0 0 5 6 0 0 -5zm-6 6l0 0 0 6 6 0 0 -6 -6 0zm7 6l0 0 5 0 0 -6 -5 0 0 6z"/>
    <path class="fil19" d="M1717 239l-6 0 0 5 6 0 0 -5zm-7 0l0 0 -6 0 0 5 6 0 0 -5zm-6 6l0 0 0 6 6 0 0 -6 -6 0zm7 6l0 0 6 0 0 -6 -6 0 0 6z"/>
    <path class="fil19" d="M1700 239l-6 0 0 5 6 0 0 -5zm-7 0l0 0 -6 0 0 5 6 0 0 -5zm-6 6l0 0 0 6 6 0 0 -6 -6 0zm7 6l0 0 6 0 0 -6 -6 0 0 6z"/>
    <path class="fil19" d="M1683 239l-6 0 0 5 6 0 0 -5zm-7 0l0 0 -6 0 0 5 6 0 0 -5zm-6 6l0 0 0 6 6 0 0 -6 -6 0zm7 6l0 0 6 0 0 -6 -6 0 0 6z"/>
   </g>
   <g>
    <g>
     <path class="fil19" d="M1733 259l-5 0 0 5 5 0 0 -5zm-6 0l0 0 -6 0 0 5 6 0 0 -5zm-6 6l0 0 0 5 6 0 0 -5 -6 0zm7 5l0 0 5 0 0 -5 -5 0 0 5z"/>
     <path class="fil19" d="M1717 259l-6 0 0 5 6 0 0 -5zm-7 0l0 0 -6 0 0 5 6 0 0 -5zm-6 6l0 0 0 5 6 0 0 -5 -6 0zm7 5l0 0 6 0 0 -5 -6 0 0 5z"/>
     <path class="fil19" d="M1700 259l-6 0 0 5 6 0 0 -5zm-7 0l0 0 -6 0 0 5 6 0 0 -5zm-6 6l0 0 0 5 6 0 0 -5 -6 0zm7 5l0 0 6 0 0 -5 -6 0 0 5z"/>
     <path class="fil19" d="M1683 259l-6 0 0 5 6 0 0 -5zm-7 0l0 0 -6 0 0 5 6 0 0 -5zm-6 6l0 0 0 5 6 0 0 -5 -6 0zm7 5l0 0 6 0 0 -5 -6 0 0 5z"/>
    </g>
    <g>
     <path class="fil19" d="M1733 273l-5 0 0 6 5 0 0 -6zm-6 0l0 0 -6 0 0 6 6 0 0 -6zm-6 7l0 0 0 5 6 0 0 -5 -6 0zm7 5l0 0 5 0 0 -5 -5 0 0 5z"/>
     <path class="fil19" d="M1717 273l-6 0 0 6 6 0 0 -6zm-7 0l0 0 -6 0 0 6 6 0 0 -6zm-6 7l0 0 0 5 6 0 0 -5 -6 0zm7 5l0 0 6 0 0 -5 -6 0 0 5z"/>
     <path class="fil19" d="M1700 273l-6 0 0 6 6 0 0 -6zm-7 0l0 0 -6 0 0 6 6 0 0 -6zm-6 7l0 0 0 5 6 0 0 -5 -6 0zm7 5l0 0 6 0 0 -5 -6 0 0 5z"/>
     <path class="fil19" d="M1683 273l-6 0 0 6 6 0 0 -6zm-7 0l0 0 -6 0 0 6 6 0 0 -6zm-6 7l0 0 0 5 6 0 0 -5 -6 0zm7 5l0 0 6 0 0 -5 -6 0 0 5z"/>
    </g>
    <g>
     <path class="fil19" d="M1733 287l-5 0 0 5 5 0 0 -5zm-6 0l0 0 -6 0 0 5 6 0 0 -5zm-6 6l0 0 0 6 6 0 0 -6 -6 0zm7 6l0 0 5 0 0 -6 -5 0 0 6z"/>
     <path class="fil19" d="M1717 287l-6 0 0 5 6 0 0 -5zm-7 0l0 0 -6 0 0 5 6 0 0 -5zm-6 6l0 0 0 6 6 0 0 -6 -6 0zm7 6l0 0 6 0 0 -6 -6 0 0 6z"/>
     <path class="fil19" d="M1700 287l-6 0 0 5 6 0 0 -5zm-7 0l0 0 -6 0 0 5 6 0 0 -5zm-6 6l0 0 0 6 6 0 0 -6 -6 0zm7 6l0 0 6 0 0 -6 -6 0 0 6z"/>
     <path class="fil19" d="M1683 287l-6 0 0 5 6 0 0 -5zm-7 0l0 0 -6 0 0 5 6 0 0 -5zm-6 6l0 0 0 6 6 0 0 -6 -6 0zm7 6l0 0 6 0 0 -6 -6 0 0 6z"/>
    </g>
   </g>
  </g>
  <g id="_54974826208">
   <polygon class="fil20" points="1598,286 1479,286 1479,246 1598,246 "/>
   <polygon class="fil21" points="1595,232 1482,232 1472,246 1606,246 "/>
   <g>
    <polygon class="fil19" points="1590,264 1583,264 1583,250 1590,250 "/>
    <polygon class="fil19" points="1590,281 1583,281 1583,267 1590,267 "/>
    <polygon class="fil19" points="1580,264 1572,264 1572,250 1580,250 "/>
    <polygon class="fil19" points="1580,281 1572,281 1572,267 1580,267 "/>
    <polygon class="fil19" points="1569,264 1561,264 1561,250 1569,250 "/>
    <polygon class="fil19" points="1569,281 1561,281 1561,267 1569,267 "/>
    <polygon class="fil19" points="1558,264 1551,264 1551,250 1558,250 "/>
    <polygon class="fil19" points="1558,281 1551,281 1551,267 1558,267 "/>
    <polygon class="fil19" points="1548,264 1540,264 1540,250 1548,250 "/>
    <polygon class="fil19" points="1548,281 1540,281 1540,267 1548,267 "/>
    <polygon class="fil19" points="1537,264 1529,264 1529,250 1537,250 "/>
    <polygon class="fil19" points="1537,281 1529,281 1529,267 1537,267 "/>
    <polygon class="fil19" points="1527,264 1519,264 1519,250 1527,250 "/>
    <polygon class="fil19" points="1527,281 1519,281 1519,267 1527,267 "/>
    <polygon class="fil19" points="1516,264 1508,264 1508,250 1516,250 "/>
    <polygon class="fil19" points="1516,281 1508,281 1508,267 1516,267 "/>
    <polygon class="fil19" points="1505,264 1498,264 1498,250 1505,250 "/>
    <polygon class="fil19" points="1505,281 1498,281 1498,267 1505,267 "/>
    <polygon class="fil19" points="1495,264 1487,264 1487,250 1495,250 "/>
    <polygon class="fil19" points="1495,281 1487,281 1487,267 1495,267 "/>
   </g>
   <polygon class="fil22" points="1598,286 1595,286 1595,246 1598,246 "/>
   <polygon class="fil22" points="1482,286 1479,286 1479,246 1482,246 "/>
  </g>
  <g id="_54974816896">
   <g>
    <polygon class="fil3" points="1399,283 1392,283 1392,265 1399,265 "/>
   </g>
   <polygon class="fil23" points="1408,296 1404,296 1404,194 1408,194 "/>
   <polygon class="fil23" points="1329,296 1325,296 "/>
  </g>
  <path class="fil24" d="M1401 440l0 -172c67,1 139,3 212,8 400,22 726,93 781,164l-993 0z"/>
  <g id="_54974818560">
   <g>
    <g>
     <path class="fil25" d="M2118 316c0,0 0,0 0,0 0,0 0,1 0,1 2,1 2,1 2,1l-3 0 -3 0c0,0 0,0 2,-1 0,0 1,-1 1,-1 0,0 0,0 0,0l-1 0c0,0 0,0 0,0 0,0 0,0 0,0l1 0c0,-1 0,-1 0,-1 0,0 0,0 0,-1 0,0 -1,-1 0,-2 1,1 0,2 0,2 0,1 0,1 1,1 0,0 0,0 0,1l0 0c0,0 0,0 0,0 0,0 0,0 0,0l0 0z"/>
     <path class="fil25" d="M2120 318l-6 0c0,0 0,0 0,0l0 0c0,0 0,0 0,0l6 0c0,0 1,0 1,0l0 0c0,0 -1,0 -1,0z"/>
     <polygon class="fil25" points="2118,356 2116,356 2116,327 2118,327 "/>
     <path class="fil25" d="M2118 325c0,0 0,1 0,1 0,0 0,1 0,1 0,0 0,0 0,1l-1 0 -1 0c0,-1 0,-1 0,-1 0,0 0,-1 0,-1 0,0 0,-1 0,-1l1 0 1 0z"/>
     <polygon class="fil25" points="2119,356 2117,356 2115,356 2114,363 2120,363 "/>
     <path class="fil25" d="M2119 355l-4 0c0,0 0,1 0,1 0,0 0,0 0,0l4 0c0,0 0,0 0,0 0,0 0,-1 0,-1z"/>
     <path class="fil25" d="M2120 363l-6 0c0,0 -1,0 -1,0 0,0 1,0 1,0l6 0c0,0 1,0 1,0 0,0 -1,0 -1,0z"/>
     <polygon class="fil25" points="2117,318 2120,318 2118,325 2117,325 2116,325 2114,318 "/>
     <g>
      <polygon class="fil19" points="2117,318 2120,318 2118,325 2117,325 "/>
      <polygon class="fil19" points="2117,318 2114,318 2116,325 2117,325 "/>
     </g>
    </g>
    <path class="fil25" d="M2117 364c-2,0 -4,-1 -4,-1 0,-1 2,-1 4,-1 2,0 4,0 4,1 0,0 -2,1 -4,1z"/>
   </g>
   <path class="fil26" d="M2117 318l-3 0c0,0 0,0 2,-1 0,0 1,-1 1,-1 0,0 0,0 0,0l-1 0c0,0 0,0 0,0 0,0 0,0 0,0l1 0c0,-1 0,-1 0,-1 0,0 0,0 0,-1 0,0 -1,-1 0,-2l0 6z"/>
   <path class="fil26" d="M2117 318l-3 0c0,0 0,0 0,0l0 0c0,0 0,0 0,0l3 0 0 0z"/>
   <polygon class="fil26" points="2117,327 2116,327 2116,356 2117,356 "/>
   <path class="fil26" d="M2117 328l-1 0c0,-1 0,-1 0,-1 0,0 0,-1 0,-1 0,0 0,-1 0,-1l1 0 0 3z"/>
   <polygon class="fil26" points="2117,356 2115,356 2114,363 2117,363 "/>
   <path class="fil26" d="M2117 355l-2 0c0,0 0,1 0,1 0,0 0,0 0,0l2 0 0 -1z"/>
   <path class="fil25" d="M2117 363l-3 0c0,0 -1,0 -1,0 0,0 1,0 1,0l3 0 0 0z"/>
   <polygon class="fil26" points="2117,325 2116,325 2114,318 2117,318 "/>
   <polygon class="fil19" points="2117,318 2114,318 2116,325 2117,325 "/>
   <path class="fil26" d="M2117 362c-2,0 -4,0 -4,1 0,0 2,1 4,1l0 -2z"/>
  </g>
  <g id="_54974946784">
   <g>
    <g>
     <path class="fil25" d="M1948 316c0,0 0,0 0,0 0,0 0,1 1,1 1,1 2,1 2,1l-3 0 -4 0c0,0 1,0 2,-1 1,0 1,-1 1,-1 0,0 0,0 0,0l0 0c0,0 0,0 0,0 0,0 0,0 0,0l0 0c0,-1 0,-1 0,-1 0,0 0,0 0,-1 0,0 0,-1 1,-2 0,1 0,2 0,2 0,1 0,1 0,1 0,0 0,0 0,1l0 0c0,0 0,0 0,0 0,0 0,0 0,0l0 0z"/>
     <path class="fil25" d="M1951 318l-7 0c0,0 0,0 0,0l0 0c0,0 0,0 0,0l7 0c0,0 0,0 0,0l0 0c0,0 0,0 0,0z"/>
     <polygon class="fil25" points="1948,356 1947,356 1947,327 1948,327 "/>
     <path class="fil25" d="M1948 325c0,0 0,1 0,1 0,0 1,1 1,1 0,0 -1,0 -1,1l-1 0 0 0c-1,-1 -1,-1 -1,-1 0,0 1,-1 1,-1 0,0 0,-1 0,-1l0 0 1 0z"/>
     <polygon class="fil25" points="1949,356 1947,356 1946,356 1945,363 1950,363 "/>
     <path class="fil25" d="M1949 355l-4 0c0,0 0,1 0,1 0,0 0,0 0,0l4 0c1,0 1,0 1,0 0,0 0,-1 -1,-1z"/>
     <path class="fil25" d="M1951 363l-7 0c0,0 0,0 0,0 0,0 0,0 0,0l7 0c0,0 0,0 0,0 0,0 0,0 0,0z"/>
     <polygon class="fil25" points="1947,318 1951,318 1949,325 1947,325 1946,325 1944,318 "/>
     <g>
      <polygon class="fil19" points="1948,318 1950,318 1948,325 1948,325 "/>
      <polygon class="fil19" points="1947,318 1945,318 1946,325 1947,325 "/>
     </g>
    </g>
    <path class="fil25" d="M1947 364c-2,0 -4,-1 -4,-1 0,-1 2,-1 4,-1 3,0 4,0 4,1 0,0 -1,1 -4,1z"/>
   </g>
   <path class="fil26" d="M1947 318l-3 0c0,0 1,0 2,-1 1,0 1,-1 1,-1 0,0 0,0 0,0l0 0c0,0 0,0 0,0 0,0 0,0 0,0l0 0c0,-1 0,-1 0,-1 0,0 0,0 0,-1 0,0 0,-1 0,-2l0 6z"/>
   <path class="fil26" d="M1947 318l-3 0c0,0 0,0 0,0l0 0c0,0 0,0 0,0l3 0 0 0z"/>
   <polygon class="fil26" points="1947,327 1947,327 1947,356 1947,356 "/>
   <path class="fil26" d="M1947 328l0 0c-1,-1 -1,-1 -1,-1 0,0 1,-1 1,-1 0,0 0,-1 0,-1l0 0 0 3z"/>
   <polygon class="fil26" points="1947,356 1946,356 1945,363 1947,363 "/>
   <path class="fil26" d="M1947 355l-2 0c0,0 0,1 0,1 0,0 0,0 0,0l2 0 0 -1z"/>
   <path class="fil25" d="M1947 363l-3 0c0,0 0,0 0,0 0,0 0,0 0,0l3 0 0 0z"/>
   <polygon class="fil26" points="1947,325 1946,325 1944,318 1947,318 "/>
   <polygon class="fil19" points="1947,318 1945,318 1946,325 1947,325 "/>
   <path class="fil26" d="M1947 362c-2,0 -4,0 -4,1 0,0 2,1 4,1l0 -2z"/>
  </g>
  <g id="_54974951936">
   <g>
    <g>
     <path class="fil25" d="M1778 316c0,0 0,0 0,0 1,0 1,1 1,1 2,1 2,1 2,1l-3 0 -3 0c0,0 0,0 2,-1 0,0 0,-1 0,-1 1,0 1,0 1,0l-1 0c0,0 0,0 0,0 0,0 0,0 0,0l0 0c0,-1 0,-1 0,-1 1,0 1,0 1,-1 0,0 -1,-1 0,-2 1,1 0,2 0,2 0,1 0,1 0,1 0,0 0,0 0,1l1 0c0,0 0,0 0,0 0,0 0,0 0,0l-1 0z"/>
     <path class="fil25" d="M1781 318l-6 0c0,0 0,0 0,0l0 0c0,0 0,0 0,0l6 0c0,0 0,0 0,0l0 0c0,0 0,0 0,0z"/>
     <polygon class="fil25" points="1779,356 1777,356 1777,327 1779,327 "/>
     <path class="fil25" d="M1779 325c-1,0 -1,1 0,1 0,0 0,1 0,1 0,0 0,0 0,1l-1 0 -1 0c0,-1 0,-1 0,-1 -1,0 0,-1 0,-1 0,0 0,-1 0,-1l1 0 1 0z"/>
     <polygon class="fil25" points="1780,356 1778,356 1776,356 1775,363 1781,363 "/>
     <path class="fil25" d="M1780 355l-4 0c0,0 -1,1 -1,1 0,0 1,0 1,0l4 0c0,0 0,0 0,0 0,0 0,-1 0,-1z"/>
     <path class="fil25" d="M1781 363l-6 0c-1,0 -1,0 -1,0 0,0 0,0 1,0l6 0c0,0 0,0 0,0 0,0 0,0 0,0z"/>
     <polygon class="fil25" points="1778,318 1781,318 1779,325 1778,325 1777,325 1775,318 "/>
     <g>
      <polygon class="fil19" points="1778,318 1781,318 1779,325 1778,325 "/>
      <polygon class="fil19" points="1778,318 1775,318 1777,325 1778,325 "/>
     </g>
    </g>
    <path class="fil25" d="M1778 364c-2,0 -4,-1 -4,-1 0,-1 2,-1 4,-1 2,0 4,0 4,1 0,0 -2,1 -4,1z"/>
   </g>
   <path class="fil26" d="M1778 318l-3 0c0,0 0,0 2,-1 0,0 0,-1 0,-1 1,0 1,0 1,0l-1 0c0,0 0,0 0,0 0,0 0,0 0,0l0 0c0,-1 0,-1 0,-1 1,0 1,0 1,-1 0,0 -1,-1 0,-2l0 6z"/>
   <path class="fil26" d="M1778 318l-3 0c0,0 0,0 0,0l0 0c0,0 0,0 0,0l3 0 0 0z"/>
   <polygon class="fil26" points="1778,327 1777,327 1777,356 1778,356 "/>
   <path class="fil26" d="M1778 328l-1 0c0,-1 0,-1 0,-1 -1,0 0,-1 0,-1 0,0 0,-1 0,-1l1 0 0 3z"/>
   <polygon class="fil26" points="1778,356 1776,356 1775,363 1778,363 "/>
   <path class="fil26" d="M1778 355l-2 0c0,0 -1,1 -1,1 0,0 1,0 1,0l2 0 0 -1z"/>
   <path class="fil25" d="M1778 363l-3 0c-1,0 -1,0 -1,0 0,0 0,0 1,0l3 0 0 0z"/>
   <polygon class="fil26" points="1778,325 1777,325 1775,318 1778,318 "/>
   <polygon class="fil19" points="1778,318 1775,318 1777,325 1778,325 "/>
   <path class="fil26" d="M1778 362c-2,0 -4,0 -4,1 0,0 2,1 4,1l0 -2z"/>
  </g>
  <g id="_54974924928">
   <g>
    <g>
     <path class="fil25" d="M1609 316c0,0 0,0 0,0 0,0 0,1 1,1 1,1 1,1 1,1l-3 0 -3 0c0,0 1,0 2,-1 1,0 1,-1 1,-1 0,0 0,0 0,0l0 0c0,0 0,0 0,0 0,0 0,0 0,0l0 0c0,-1 0,-1 0,-1 0,0 0,0 0,-1 0,0 -1,-1 0,-2 1,1 1,2 1,2 0,1 0,1 0,1 0,0 0,0 0,1l0 0c0,0 0,0 0,0 0,0 0,0 0,0l0 0z"/>
     <path class="fil25" d="M1612 318l-7 0c0,0 0,0 0,0l0 0c0,0 0,0 0,0l7 0c0,0 0,0 0,0l0 0c0,0 0,0 0,0z"/>
     <polygon class="fil25" points="1609,356 1607,356 1607,327 1609,327 "/>
     <path class="fil25" d="M1609 325c0,0 0,1 0,1 0,0 1,1 1,1 0,0 -1,0 -1,1l-1 0 -1 0c0,-1 0,-1 0,-1 0,0 0,-1 0,-1 1,0 1,-1 1,-1l0 0 1 0z"/>
     <polygon class="fil25" points="1610,356 1608,356 1607,356 1605,363 1611,363 "/>
     <path class="fil25" d="M1610 355l-4 0c0,0 0,1 0,1 0,0 0,0 0,0l4 0c1,0 1,0 1,0 0,0 0,-1 -1,-1z"/>
     <path class="fil25" d="M1611 363l-6 0c0,0 0,0 0,0 0,0 0,0 0,0l6 0c1,0 1,0 1,0 0,0 0,0 -1,0z"/>
     <polygon class="fil25" points="1608,318 1611,318 1609,325 1608,325 1607,325 1605,318 "/>
     <g>
      <polygon class="fil19" points="1608,318 1611,318 1609,325 1608,325 "/>
      <polygon class="fil19" points="1608,318 1605,318 1607,325 1608,325 "/>
     </g>
    </g>
    <path class="fil25" d="M1608 364c-2,0 -4,-1 -4,-1 0,-1 2,-1 4,-1 2,0 4,0 4,1 0,0 -2,1 -4,1z"/>
   </g>
   <path class="fil26" d="M1608 318l-3 0c0,0 1,0 2,-1 1,0 1,-1 1,-1 0,0 0,0 0,0l0 0c0,0 0,0 0,0 0,0 0,0 0,0l0 0c0,-1 0,-1 0,-1 0,0 0,0 0,-1 0,0 -1,-1 0,-2l0 6z"/>
   <path class="fil26" d="M1608 318l-3 0c0,0 0,0 0,0l0 0c0,0 0,0 0,0l3 0 0 0z"/>
   <polygon class="fil26" points="1608,327 1607,327 1607,356 1608,356 "/>
   <path class="fil26" d="M1608 328l-1 0c0,-1 0,-1 0,-1 0,0 0,-1 0,-1 1,0 1,-1 1,-1l0 0 0 3z"/>
   <polygon class="fil26" points="1608,356 1607,356 1605,363 1608,363 "/>
   <path class="fil26" d="M1608 355l-2 0c0,0 0,1 0,1 0,0 0,0 0,0l2 0 0 -1z"/>
   <path class="fil25" d="M1608 363l-3 0c0,0 0,0 0,0 0,0 0,0 0,0l3 0 0 0z"/>
   <polygon class="fil26" points="1608,325 1607,325 1605,318 1608,318 "/>
   <polygon class="fil19" points="1608,318 1605,318 1607,325 1608,325 "/>
   <path class="fil26" d="M1608 362c-2,0 -4,0 -4,1 0,0 2,1 4,1l0 -2z"/>
  </g>
  <g id="_54974932544">
   <g>
    <g>
     <path class="fil25" d="M1439 316c0,0 0,0 0,0 0,0 0,1 1,1 2,1 2,1 2,1l-3 0 -3 0c0,0 0,0 1,-1 1,0 1,-1 1,-1 0,0 0,0 0,0l0 0c0,0 0,0 0,0 0,0 0,0 0,0l0 0c0,-1 0,-1 0,-1 0,0 1,0 0,-1 0,0 0,-1 1,-2 1,1 0,2 0,2 0,1 0,1 0,1 0,0 0,0 0,1l0 0c0,0 0,0 0,0 0,0 0,0 0,0l0 0z"/>
     <path class="fil25" d="M1442 318l-6 0c-1,0 -1,0 -1,0l0 0c0,0 0,0 1,0l6 0c0,0 0,0 0,0l0 0c0,0 0,0 0,0z"/>
     <polygon class="fil25" points="1439,356 1438,356 1438,327 1439,327 "/>
     <path class="fil25" d="M1439 325c0,0 0,1 0,1 1,0 1,1 1,1 0,0 0,0 -1,1l0 0 -1 0c0,-1 -1,-1 -1,-1 0,0 1,-1 1,-1 0,0 0,-1 0,-1l1 0 0 0z"/>
     <polygon class="fil25" points="1440,356 1439,356 1437,356 1436,363 1442,363 "/>
     <path class="fil25" d="M1441 355l-4 0c-1,0 -1,1 -1,1 0,0 0,0 1,0l4 0c0,0 0,0 0,0 0,0 0,-1 0,-1z"/>
     <path class="fil25" d="M1442 363l-7 0c0,0 0,0 0,0 0,0 0,0 0,0l7 0c0,0 0,0 0,0 0,0 0,0 0,0z"/>
     <polygon class="fil25" points="1439,318 1442,318 1440,325 1439,325 1437,325 1435,318 "/>
     <g>
      <polygon class="fil19" points="1439,318 1441,318 1440,325 1439,325 "/>
      <polygon class="fil19" points="1438,318 1436,318 1438,325 1438,325 "/>
     </g>
    </g>
    <path class="fil25" d="M1439 364c-3,0 -4,-1 -4,-1 0,-1 1,-1 4,-1 2,0 4,0 4,1 0,0 -2,1 -4,1z"/>
   </g>
   <path class="fil26" d="M1439 318l-3 0c0,0 0,0 1,-1 1,0 1,-1 1,-1 0,0 0,0 0,0l0 0c0,0 0,0 0,0 0,0 0,0 0,0l0 0c0,-1 0,-1 0,-1 0,0 1,0 0,-1 0,0 0,-1 1,-2l0 6z"/>
   <path class="fil26" d="M1439 318l-3 0c-1,0 -1,0 -1,0l0 0c0,0 0,0 1,0l3 0 0 0z"/>
   <polygon class="fil26" points="1439,327 1438,327 1438,356 1439,356 "/>
   <path class="fil26" d="M1439 328l-1 0c0,-1 -1,-1 -1,-1 0,0 1,-1 1,-1 0,0 0,-1 0,-1l1 0 0 3z"/>
   <polygon class="fil26" points="1439,356 1437,356 1436,363 1439,363 "/>
   <path class="fil26" d="M1439 355l-2 0c-1,0 -1,1 -1,1 0,0 0,0 1,0l2 0 0 -1z"/>
   <path class="fil25" d="M1439 363l-4 0c0,0 0,0 0,0 0,0 0,0 0,0l4 0 0 0z"/>
   <polygon class="fil26" points="1439,325 1437,325 1435,318 1439,318 "/>
   <polygon class="fil19" points="1438,318 1436,318 1438,325 1438,325 "/>
   <path class="fil26" d="M1439 362c-3,0 -4,0 -4,1 0,0 1,1 4,1l0 -2z"/>
  </g>
  <polygon class="fil27" points="2211,381 2170,358 1325,354 1325,393 "/>
  <g id="_54974937920">
   <path class="fil28" d="M1989 338c0,2 7,4 15,4 9,0 16,-2 16,-4 0,-3 -7,-5 -16,-5 -8,0 -15,2 -15,5z"/>
   <g>
    <path class="fil29" d="M1984 272c5,-9 13,-16 20,-17 16,3 30,28 25,45 -2,9 -11,15 -28,14 -29,-2 -27,-26 -17,-42z"/>
    <path class="fil30" d="M1994 289l4 5 1 -6 0 6 5 5 0 -4 1 -29 1 22 3 -6 -3 7 0 6 0 10 6 -6 0 -7 0 6 4 -4 -5 6 6 -3 -7 4 -4 5 1 31c0,0 0,0 0,1 0,0 0,0 0,0 0,0 0,0 0,0 0,0 0,0 0,0 0,0 0,0 0,0 -1,0 -1,0 -1,0 0,0 0,0 0,0 0,0 0,0 0,0 0,0 0,0 0,0 0,0 0,0 0,0 0,0 0,0 0,0 -1,0 -1,0 -1,0 0,0 0,0 0,0 0,0 0,0 0,0 -1,0 -2,0 -2,-1l1 -29 -1 0 0 0 1 -7 -3 -3 -6 -3 5 2 -6 -8z"/>
   </g>
  </g>
  <g id="_54974938784">
   <path class="fil28" d="M1722 329c0,3 7,5 15,5 9,0 16,-2 16,-5 0,-3 -7,-5 -16,-5 -8,0 -15,2 -15,5z"/>
   <g>
    <path class="fil31" d="M1717 263c6,-9 13,-15 20,-16 16,2 31,28 26,44 -3,9 -12,15 -29,14 -28,-2 -27,-26 -17,-42z"/>
    <path class="fil30" d="M1727 280l4 5 1 -6 0 7 5 5 0 -5 1 -29 1 23 3 -6 -3 7 0 5 0 10 6 -6 0 -7 0 6 4 -4 -5 6 6 -2 -6 3 -5 6 1 31c0,0 0,0 0,0 0,0 0,0 0,0 0,0 0,0 0,0 0,0 0,0 0,0 0,0 0,0 0,0 0,0 0,0 0,0 0,0 -1,0 -1,0 0,0 0,0 0,0 0,0 0,0 0,0 0,0 0,0 0,0 0,0 0,0 0,0 0,0 0,0 0,0 -1,1 -1,1 -1,1 0,0 0,0 0,0 -1,0 -2,-1 -2,-1l1 -30 0 0 0 0 0 -6 -3 -4 -6 -2 6 2 -7 -9z"/>
   </g>
  </g>
  <g id="_54974939584">
   <path class="fil28" d="M1540 348c0,3 7,5 16,5 9,0 16,-2 16,-5 0,-3 -7,-5 -16,-5 -9,0 -16,2 -16,5z"/>
   <g>
    <path class="fil32" d="M1536 282c5,-9 13,-15 20,-16 16,2 30,28 25,44 -3,9 -11,15 -28,14 -29,-2 -28,-26 -17,-42z"/>
    <path class="fil30" d="M1545 299l5 5 0 -6 0 7 5 5 0 -5 1 -29 1 23 4 -6 -4 7 0 5 1 10 5 -6 1 -7 0 6 3 -4 -4 6 6 -2 -7 3 -4 6 0 31c0,0 0,0 0,0 0,0 0,0 0,0 0,0 0,0 0,0 0,0 0,0 0,0 0,0 0,0 0,0 0,0 0,0 0,0 0,0 0,0 0,0 0,0 0,0 0,0 0,0 0,0 -1,0 0,0 0,0 0,0 0,0 0,0 0,0 0,0 0,0 0,0 0,0 0,0 0,0 0,0 0,0 -1,0 -1,0 -1,0 -1,0l0 -30 0 0 0 0 0 -6 -2 -4 -7 -2 6 2 -7 -9z"/>
   </g>
  </g>
  <g id="_54864970016">
   <path class="fil33" d="M1868 312c31,-3 6,-69 0,-72 -6,3 -31,69 0,72z"/>
   <path class="fil28" d="M1856 330c0,2 5,4 12,4 6,0 11,-2 11,-4 0,-2 -5,-3 -11,-3 -7,0 -12,1 -12,3z"/>
   <g>
    <path class="fil30" d="M1859 294l4 3 0 -4 0 5 4 4 0 -4 0 -21 1 16 3 -4 -3 5 0 4 0 7 4 -4 1 -5 0 5 2 -3 -3 4 4 -2 -4 3 -4 4 1 22c0,0 0,0 0,1 0,0 0,0 0,0 0,0 0,0 0,0 0,0 0,0 0,0 0,0 0,0 0,0 0,0 0,0 0,0 0,0 0,0 -1,0 0,0 0,0 0,0 0,0 0,0 0,0 0,0 0,0 0,0 0,0 0,0 0,0 0,0 0,0 0,0 0,0 0,0 0,0 0,0 0,0 -1,0 0,0 -1,0 -1,-1l1 -21 -1 0 0 0 1 -5 -2 -2 -5 -2 4 1 -5 -6z"/>
   </g>
  </g>
  <g id="_54864970560">
   <path class="fil34" d="M1664 289c31,-3 6,-68 0,-71 -6,3 -31,68 0,71z"/>
   <path class="fil28" d="M1652 308c0,2 6,3 12,3 6,0 12,-1 12,-3 0,-2 -6,-4 -12,-4 -6,0 -12,2 -12,4z"/>
   <g>
    <path class="fil30" d="M1656 271l3 4 0 -4 0 4 4 4 0 -3 1 -21 0 16 3 -4 -3 5 0 4 1 7 4 -4 0 -5 0 4 3 -3 -4 5 5 -2 -5 2 -3 4 0 23c0,0 0,0 0,0 0,0 0,0 0,0 0,0 0,0 0,0 0,0 0,0 0,0 0,0 0,0 0,0 0,0 0,0 0,0 0,0 0,0 0,0 0,0 0,0 0,0 0,0 0,0 0,0 0,1 -1,1 -1,1 0,0 0,0 0,0 0,0 0,0 0,0 0,0 0,0 0,0 0,0 0,0 0,0 -1,0 -2,-1 -2,-1l1 -22 0 0 0 0 0 -4 -2 -3 -5 -2 5 2 -5 -7z"/>
   </g>
  </g>
  <g id="_54864973472">
   <path class="fil35" d="M1486 308c30,-3 6,-68 0,-71 -6,3 -31,68 0,71z"/>
   <path class="fil28" d="M1474 327c0,2 5,3 12,3 6,0 11,-1 11,-3 0,-2 -5,-4 -11,-4 -7,0 -12,2 -12,4z"/>
   <g>
    <path class="fil30" d="M1477 290l4 4 0 -4 0 4 3 4 0 -3 1 -21 1 16 3 -4 -3 5 0 4 0 7 4 -5 1 -4 0 4 2 -3 -3 5 4 -2 -5 2 -3 4 1 23c0,0 0,0 0,0 0,0 0,0 0,0 0,0 0,0 0,0 0,0 0,0 0,0 0,0 0,0 0,0 0,0 0,0 -1,0 0,0 0,0 0,0 0,0 0,0 0,0 0,0 0,0 0,0 0,0 0,0 0,0 0,1 0,1 0,1 0,0 0,0 0,0 0,0 0,0 0,0 0,0 -1,0 -1,0 0,0 -1,-1 -1,-1l0 -22 0 0 0 0 0 -4 -2 -3 -4 -2 4 2 -5 -7z"/>
   </g>
  </g>
  <g id="_54864972480">
   <polygon class="fil36" points="1404,31 1384,31 1384,0 1367,0 1367,31 1325,31 1325,74 1293,74 1293,90 1263,90 1263,97 1247,97 1247,71 1219,71 1219,96 1219,130 1219,136 1219,163 1219,185 1219,217 1205,217 1205,202 1204,202 1204,217 1200,217 1200,148 1182,148 1163,148 1163,193 1163,204 1149,204 1149,188 1140,188 1140,228 1137,228 1137,214 1121,214 1121,186 1105,186 1105,214 1103,214 1088,214 1088,183 1060,183 1060,214 1056,214 1056,164 1035,164 1035,214 1019,214 1019,169 1012,169 1012,214 990,214 988,214 988,174 960,174 960,214 935,214 893,214 893,217 875,217 875,264 849,264 849,221 814,221 814,266 791,266 791,290 763,290 763,318 758,318 758,254 723,254 723,305 681,305 681,326 654,326 654,330 1404,330 "/>
   <g>
    <polygon class="fil0" points="1068,147 1050,117 1068,88 1103,88 1120,117 1103,147 "/>
    <polygon class="fil1" points="1047,120 1123,120 1123,109 1047,109 "/>
    <polygon class="fil2" points="1039,325 1131,325 1131,117 1039,117 "/>
    <g>
     <polygon class="fil3" points="1047,144 1055,144 1055,128 1047,128 "/>
     <polygon class="fil3" points="1060,144 1069,144 1069,128 1060,128 "/>
     <polygon class="fil3" points="1074,144 1082,144 1082,128 1074,128 "/>
     <polygon class="fil3" points="1088,144 1096,144 1096,128 1088,128 "/>
     <polygon class="fil3" points="1102,144 1110,144 1110,128 1102,128 "/>
     <polygon class="fil3" points="1115,144 1124,144 1124,128 1115,128 "/>
    </g>
    <g>
     <polygon class="fil3" points="1047,164 1055,164 1055,149 1047,149 "/>
     <polygon class="fil3" points="1060,164 1069,164 1069,149 1060,149 "/>
     <polygon class="fil3" points="1074,164 1082,164 1082,149 1074,149 "/>
     <polygon class="fil3" points="1088,164 1096,164 1096,149 1088,149 "/>
     <polygon class="fil3" points="1102,164 1110,164 1110,149 1102,149 "/>
     <polygon class="fil3" points="1115,164 1124,164 1124,149 1115,149 "/>
    </g>
    <g>
     <polygon class="fil3" points="1047,184 1055,184 1055,169 1047,169 "/>
     <polygon class="fil3" points="1060,184 1069,184 1069,169 1060,169 "/>
     <polygon class="fil3" points="1074,184 1082,184 1082,169 1074,169 "/>
     <polygon class="fil3" points="1088,184 1096,184 1096,169 1088,169 "/>
     <polygon class="fil3" points="1102,184 1110,184 1110,169 1102,169 "/>
     <polygon class="fil3" points="1115,184 1124,184 1124,169 1115,169 "/>
    </g>
    <g>
     <polygon class="fil3" points="1047,205 1055,205 1055,189 1047,189 "/>
     <polygon class="fil3" points="1060,205 1069,205 1069,189 1060,189 "/>
     <polygon class="fil3" points="1074,205 1082,205 1082,189 1074,189 "/>
     <polygon class="fil3" points="1088,205 1096,205 1096,189 1088,189 "/>
     <polygon class="fil3" points="1102,205 1110,205 1110,189 1102,189 "/>
     <polygon class="fil3" points="1115,205 1124,205 1124,189 1115,189 "/>
    </g>
    <g>
     <polygon class="fil3" points="1047,225 1055,225 1055,209 1047,209 "/>
     <polygon class="fil3" points="1060,225 1069,225 1069,209 1060,209 "/>
     <polygon class="fil3" points="1074,225 1082,225 1082,209 1074,209 "/>
     <polygon class="fil3" points="1088,225 1096,225 1096,209 1088,209 "/>
     <polygon class="fil3" points="1102,225 1110,225 1110,209 1102,209 "/>
     <polygon class="fil3" points="1115,225 1124,225 1124,209 1115,209 "/>
    </g>
    <g>
     <polygon class="fil3" points="1047,245 1055,245 1055,230 1047,230 "/>
     <polygon class="fil3" points="1060,245 1069,245 1069,230 1060,230 "/>
     <polygon class="fil3" points="1074,245 1082,245 1082,230 1074,230 "/>
     <polygon class="fil3" points="1088,245 1096,245 1096,230 1088,230 "/>
     <polygon class="fil3" points="1102,245 1110,245 1110,230 1102,230 "/>
     <polygon class="fil3" points="1115,245 1124,245 1124,230 1115,230 "/>
    </g>
    <g>
     <polygon class="fil3" points="1047,265 1055,265 1055,250 1047,250 "/>
     <polygon class="fil3" points="1060,265 1069,265 1069,250 1060,250 "/>
     <polygon class="fil3" points="1074,265 1082,265 1082,250 1074,250 "/>
     <polygon class="fil3" points="1088,265 1096,265 1096,250 1088,250 "/>
     <polygon class="fil3" points="1102,265 1110,265 1110,250 1102,250 "/>
     <polygon class="fil3" points="1115,265 1124,265 1124,250 1115,250 "/>
    </g>
    <g>
     <polygon class="fil3" points="1047,286 1055,286 1055,270 1047,270 "/>
     <polygon class="fil3" points="1060,286 1069,286 1069,270 1060,270 "/>
     <polygon class="fil3" points="1074,286 1082,286 1082,270 1074,270 "/>
     <polygon class="fil3" points="1088,286 1096,286 1096,270 1088,270 "/>
     <polygon class="fil3" points="1102,286 1110,286 1110,270 1102,270 "/>
     <polygon class="fil3" points="1115,286 1124,286 1124,270 1115,270 "/>
    </g>
   </g>
   <g>
    <polygon class="fil4" points="1127,122 1192,122 1192,102 1127,102 "/>
    <polygon class="fil5" points="1122,164 1197,164 1197,117 1122,117 "/>
    <polygon class="fil6" points="1114,292 1205,292 1205,161 1114,161 "/>
    <polygon class="fil3" points="1125,277 1119,277 1119,171 1125,171 "/>
    <polygon class="fil3" points="1134,277 1128,277 1128,171 1134,171 "/>
    <polygon class="fil3" points="1143,277 1138,277 1138,171 1143,171 "/>
    <polygon class="fil3" points="1153,277 1147,277 1147,171 1153,171 "/>
    <polygon class="fil3" points="1162,277 1156,277 1156,171 1162,171 "/>
    <polygon class="fil3" points="1171,277 1166,277 1166,171 1171,171 "/>
    <polygon class="fil3" points="1181,277 1175,277 1175,171 1181,171 "/>
    <polygon class="fil3" points="1190,277 1184,277 1184,171 1190,171 "/>
    <polygon class="fil3" points="1199,277 1194,277 1194,171 1199,171 "/>
    <g>
     <polygon class="fil3" points="1130,157 1126,157 1126,123 1130,123 "/>
     <polygon class="fil3" points="1138,157 1134,157 1134,123 1138,123 "/>
     <polygon class="fil3" points="1146,157 1141,157 1141,123 1146,123 "/>
     <polygon class="fil3" points="1154,157 1149,157 1149,123 1154,123 "/>
     <polygon class="fil3" points="1162,157 1157,157 1157,123 1162,123 "/>
     <polygon class="fil3" points="1170,157 1165,157 1165,123 1170,123 "/>
     <polygon class="fil3" points="1178,157 1173,157 1173,123 1178,123 "/>
     <polygon class="fil3" points="1185,157 1181,157 1181,123 1185,123 "/>
     <polygon class="fil3" points="1193,157 1188,157 1188,123 1193,123 "/>
    </g>
   </g>
   <g>
    <polygon class="fil37" points="1367,277 1285,277 1285,75 1367,75 "/>
    <polygon class="fil8" points="1369,79 1282,79 1282,70 1369,70 "/>
    <polygon class="fil38" points="1362,70 1290,70 1290,59 1362,59 "/>
    <polygon class="fil8" points="1369,120 1282,120 1282,111 1369,111 "/>
    <polygon class="fil7" points="1363,89 1289,89 1289,83 1363,83 "/>
    <polygon class="fil7" points="1363,98 1289,98 1289,92 1363,92 "/>
    <polygon class="fil7" points="1363,108 1289,108 1289,102 1363,102 "/>
    <polygon class="fil8" points="1369,161 1282,161 1282,152 1369,152 "/>
    <polygon class="fil7" points="1363,130 1289,130 1289,124 1363,124 "/>
    <polygon class="fil7" points="1363,140 1289,140 1289,134 1363,134 "/>
    <polygon class="fil7" points="1363,149 1289,149 1289,143 1363,143 "/>
    <g>
     <polygon class="fil8" points="1369,202 1282,202 1282,193 1369,193 "/>
     <polygon class="fil7" points="1363,171 1289,171 1289,165 1363,165 "/>
     <polygon class="fil7" points="1363,181 1289,181 1289,175 1363,175 "/>
     <polygon class="fil7" points="1363,190 1289,190 1289,184 1363,184 "/>
    </g>
    <polygon class="fil8" points="1369,243 1282,243 1282,234 1369,234 "/>
    <polygon class="fil7" points="1363,213 1289,213 1289,207 1363,207 "/>
    <polygon class="fil7" points="1363,222 1289,222 1289,216 1363,216 "/>
    <polygon class="fil7" points="1363,231 1289,231 1289,225 1363,225 "/>
    <polygon class="fil8" points="1369,285 1282,285 1282,276 1369,276 "/>
    <polygon class="fil7" points="1363,254 1289,254 1289,248 1363,248 "/>
    <polygon class="fil7" points="1363,263 1289,263 1289,257 1363,257 "/>
    <polygon class="fil7" points="1363,273 1289,273 1289,267 1363,267 "/>
   </g>
   <g>
    <polygon class="fil9" points="1283,88 1283,145 1225,145 1225,88 1239,84 1254,80 1268,84 "/>
    <polygon class="fil10" points="1210,150 1294,150 1294,116 1210,116 "/>
    <g>
     <polygon class="fil11" points="1223,130 1231,130 1231,121 1223,121 "/>
     <polygon class="fil11" points="1223,142 1231,142 1231,133 1223,133 "/>
     <polygon class="fil11" points="1234,130 1241,130 1241,121 1234,121 "/>
     <polygon class="fil11" points="1234,142 1241,142 1241,133 1234,133 "/>
     <polygon class="fil11" points="1245,130 1252,130 1252,121 1245,121 "/>
     <polygon class="fil11" points="1245,142 1252,142 1252,133 1245,133 "/>
     <polygon class="fil11" points="1255,130 1263,130 1263,121 1255,121 "/>
     <polygon class="fil11" points="1255,142 1263,142 1263,133 1255,133 "/>
     <polygon class="fil11" points="1266,130 1273,130 1273,121 1266,121 "/>
     <polygon class="fil11" points="1266,142 1273,142 1273,133 1266,133 "/>
     <polygon class="fil11" points="1277,130 1284,130 1284,121 1277,121 "/>
     <polygon class="fil11" points="1277,142 1284,142 1284,133 1277,133 "/>
    </g>
    <polygon class="fil12" points="1206,179 1303,179 1303,145 1206,145 "/>
    <polygon class="fil13" points="1197,280 1310,280 1310,157 1197,157 "/>
    <g>
     <polygon class="fil3" points="1206,179 1214,179 1214,165 1206,165 "/>
     <polygon class="fil3" points="1223,179 1232,179 1232,165 1223,165 "/>
     <polygon class="fil3" points="1241,179 1250,179 1250,165 1241,165 "/>
     <polygon class="fil3" points="1259,179 1267,179 1267,165 1259,165 "/>
     <polygon class="fil3" points="1276,179 1285,179 1285,165 1276,165 "/>
     <polygon class="fil3" points="1294,179 1303,179 1303,165 1294,165 "/>
    </g>
    <g>
     <polygon class="fil3" points="1206,197 1214,197 1214,183 1206,183 "/>
     <polygon class="fil3" points="1223,197 1232,197 1232,183 1223,183 "/>
     <polygon class="fil3" points="1241,197 1250,197 1250,183 1241,183 "/>
     <polygon class="fil3" points="1259,197 1267,197 1267,183 1259,183 "/>
     <polygon class="fil3" points="1276,197 1285,197 1285,183 1276,183 "/>
     <polygon class="fil3" points="1294,197 1303,197 1303,183 1294,183 "/>
    </g>
    <g>
     <polygon class="fil3" points="1206,215 1214,215 1214,202 1206,202 "/>
     <polygon class="fil3" points="1223,215 1232,215 1232,202 1223,202 "/>
     <polygon class="fil3" points="1241,215 1250,215 1250,202 1241,202 "/>
     <polygon class="fil3" points="1259,215 1267,215 1267,202 1259,202 "/>
     <polygon class="fil3" points="1276,215 1285,215 1285,202 1276,202 "/>
     <polygon class="fil3" points="1294,215 1303,215 1303,202 1294,202 "/>
    </g>
    <g>
     <polygon class="fil3" points="1206,233 1214,233 1214,220 1206,220 "/>
     <polygon class="fil3" points="1223,233 1232,233 1232,220 1223,220 "/>
     <polygon class="fil3" points="1241,233 1250,233 1250,220 1241,220 "/>
     <polygon class="fil3" points="1259,233 1267,233 1267,220 1259,220 "/>
     <polygon class="fil3" points="1276,233 1285,233 1285,220 1276,220 "/>
     <polygon class="fil3" points="1294,233 1303,233 1303,220 1294,220 "/>
    </g>
    <g>
     <polygon class="fil3" points="1206,252 1214,252 1214,238 1206,238 "/>
     <polygon class="fil3" points="1223,252 1232,252 1232,238 1223,238 "/>
     <polygon class="fil3" points="1241,252 1250,252 1250,238 1241,238 "/>
     <polygon class="fil3" points="1259,252 1267,252 1267,238 1259,238 "/>
     <polygon class="fil3" points="1276,252 1285,252 1285,238 1276,238 "/>
     <polygon class="fil3" points="1294,252 1303,252 1303,238 1294,238 "/>
    </g>
    <g>
     <polygon class="fil3" points="1206,270 1214,270 1214,256 1206,256 "/>
     <polygon class="fil3" points="1223,270 1232,270 1232,256 1223,256 "/>
     <polygon class="fil3" points="1241,270 1250,270 1250,256 1241,256 "/>
     <polygon class="fil3" points="1259,270 1267,270 1267,256 1259,256 "/>
     <polygon class="fil3" points="1276,270 1285,270 1285,256 1276,256 "/>
     <polygon class="fil3" points="1294,270 1303,270 1303,256 1294,256 "/>
    </g>
    <g>
     <polygon class="fil11" points="1235,110 1249,110 1249,93 1235,93 "/>
     <polygon class="fil11" points="1255,110 1269,110 1269,93 1255,93 "/>
    </g>
   </g>
   <g>
    <polygon class="fil14" points="940,256 1026,256 1026,233 940,233 "/>
    <polygon class="fil15" points="940,279 942,279 942,233 940,233 "/>
    <polygon class="fil15" points="1023,279 1026,279 1026,233 1023,233 "/>
    <polygon class="fil16" points="932,298 1034,298 1034,252 932,252 "/>
    <polygon class="fil15" points="932,298 935,298 935,252 932,252 "/>
    <polygon class="fil15" points="1031,298 1034,298 1034,252 1031,252 "/>
    <polygon class="fil17" points="983,214 1006,224 1029,233 983,233 936,233 959,224 "/>
    <polygon class="fil18" points="983,214 1006,224 1029,233 983,233 "/>
    <g>
     <path class="fil19" d="M948 236l6 0 0 6 -6 0 0 -6zm7 0l0 0 7 0 0 6 -7 0 0 -6zm7 6l0 0 0 6 -7 0 0 -6 7 0zm-8 6l0 0 -6 0 0 -6 6 0 0 6z"/>
     <path class="fil19" d="M966 236l7 0 0 6 -7 0 0 -6zm8 0l0 0 6 0 0 6 -6 0 0 -6zm6 6l0 0 0 6 -6 0 0 -6 6 0zm-7 6l0 0 -7 0 0 -6 7 0 0 6z"/>
     <path class="fil19" d="M985 236l7 0 0 6 -7 0 0 -6zm7 0l0 0 7 0 0 6 -7 0 0 -6zm7 6l0 0 0 6 -7 0 0 -6 7 0zm-7 6l0 0 -7 0 0 -6 7 0 0 6z"/>
     <path class="fil19" d="M1004 236l6 0 0 6 -6 0 0 -6zm7 0l0 0 7 0 0 6 -7 0 0 -6zm7 6l0 0 0 6 -7 0 0 -6 7 0zm-8 6l0 0 -6 0 0 -6 6 0 0 6z"/>
    </g>
    <g>
     <g>
      <path class="fil19" d="M948 256l6 0 0 5 -6 0 0 -5zm7 0l0 0 7 0 0 5 -7 0 0 -5zm7 6l0 0 0 6 -7 0 0 -6 7 0zm-8 6l0 0 -6 0 0 -6 6 0 0 6z"/>
      <path class="fil19" d="M966 256l7 0 0 5 -7 0 0 -5zm8 0l0 0 6 0 0 5 -6 0 0 -5zm6 6l0 0 0 6 -6 0 0 -6 6 0zm-7 6l0 0 -7 0 0 -6 7 0 0 6z"/>
      <path class="fil19" d="M985 256l7 0 0 5 -7 0 0 -5zm7 0l0 0 7 0 0 5 -7 0 0 -5zm7 6l0 0 0 6 -7 0 0 -6 7 0zm-7 6l0 0 -7 0 0 -6 7 0 0 6z"/>
      <path class="fil19" d="M1004 256l6 0 0 5 -6 0 0 -5zm7 0l0 0 7 0 0 5 -7 0 0 -5zm7 6l0 0 0 6 -7 0 0 -6 7 0zm-8 6l0 0 -6 0 0 -6 6 0 0 6z"/>
     </g>
     <g>
      <path class="fil19" d="M948 270l6 0 0 6 -6 0 0 -6zm7 0l0 0 7 0 0 6 -7 0 0 -6zm7 7l0 0 0 5 -7 0 0 -5 7 0zm-8 5l0 0 -6 0 0 -5 6 0 0 5z"/>
      <path class="fil19" d="M966 270l7 0 0 6 -7 0 0 -6zm8 0l0 0 6 0 0 6 -6 0 0 -6zm6 7l0 0 0 5 -6 0 0 -5 6 0zm-7 5l0 0 -7 0 0 -5 7 0 0 5z"/>
      <path class="fil19" d="M985 270l7 0 0 6 -7 0 0 -6zm7 0l0 0 7 0 0 6 -7 0 0 -6zm7 7l0 0 0 5 -7 0 0 -5 7 0zm-7 5l0 0 -7 0 0 -5 7 0 0 5z"/>
      <path class="fil19" d="M1004 270l6 0 0 6 -6 0 0 -6zm7 0l0 0 7 0 0 6 -7 0 0 -6zm7 7l0 0 0 5 -7 0 0 -5 7 0zm-8 5l0 0 -6 0 0 -5 6 0 0 5z"/>
     </g>
     <g>
      <path class="fil19" d="M948 284l6 0 0 5 -6 0 0 -5zm7 0l0 0 7 0 0 5 -7 0 0 -5zm7 6l0 0 0 6 -7 0 0 -6 7 0zm-8 6l0 0 -6 0 0 -6 6 0 0 6z"/>
      <path class="fil19" d="M966 284l7 0 0 5 -7 0 0 -5zm8 0l0 0 6 0 0 5 -6 0 0 -5zm6 6l0 0 0 6 -6 0 0 -6 6 0zm-7 6l0 0 -7 0 0 -6 7 0 0 6z"/>
      <path class="fil19" d="M985 284l7 0 0 5 -7 0 0 -5zm7 0l0 0 7 0 0 5 -7 0 0 -5zm7 6l0 0 0 6 -7 0 0 -6 7 0zm-7 6l0 0 -7 0 0 -6 7 0 0 6z"/>
      <path class="fil19" d="M1004 284l6 0 0 5 -6 0 0 -5zm7 0l0 0 7 0 0 5 -7 0 0 -5zm7 6l0 0 0 6 -7 0 0 -6 7 0zm-8 6l0 0 -6 0 0 -6 6 0 0 6z"/>
     </g>
    </g>
   </g>
   <g>
    <polygon class="fil20" points="1098,283 1231,283 1231,243 1098,243 "/>
    <polygon class="fil21" points="1102,229 1227,229 1239,243 1090,243 "/>
    <g>
     <polygon class="fil19" points="1107,261 1115,261 1115,247 1107,247 "/>
     <polygon class="fil19" points="1107,278 1115,278 1115,264 1107,264 "/>
     <polygon class="fil19" points="1119,261 1127,261 1127,247 1119,247 "/>
     <polygon class="fil19" points="1119,278 1127,278 1127,264 1119,264 "/>
     <polygon class="fil19" points="1130,261 1139,261 1139,247 1130,247 "/>
     <polygon class="fil19" points="1130,278 1139,278 1139,264 1130,264 "/>
     <polygon class="fil19" points="1142,261 1151,261 1151,247 1142,247 "/>
     <polygon class="fil19" points="1142,278 1151,278 1151,264 1142,264 "/>
     <polygon class="fil19" points="1154,261 1163,261 1163,247 1154,247 "/>
     <polygon class="fil19" points="1154,278 1163,278 1163,264 1154,264 "/>
     <polygon class="fil19" points="1166,261 1174,261 1174,247 1166,247 "/>
     <polygon class="fil19" points="1166,278 1174,278 1174,264 1166,264 "/>
     <polygon class="fil19" points="1178,261 1186,261 1186,247 1178,247 "/>
     <polygon class="fil19" points="1178,278 1186,278 1186,264 1178,264 "/>
     <polygon class="fil19" points="1189,261 1198,261 1198,247 1189,247 "/>
     <polygon class="fil19" points="1189,278 1198,278 1198,264 1189,264 "/>
     <polygon class="fil19" points="1201,261 1210,261 1210,247 1201,247 "/>
     <polygon class="fil19" points="1201,278 1210,278 1210,264 1201,264 "/>
     <polygon class="fil19" points="1213,261 1222,261 1222,247 1213,247 "/>
     <polygon class="fil19" points="1213,278 1222,278 1222,264 1213,264 "/>
    </g>
    <polygon class="fil22" points="1098,283 1102,283 1102,243 1098,243 "/>
    <polygon class="fil22" points="1227,283 1231,283 1231,243 1227,243 "/>
   </g>
   <g>
    <polygon class="fil39" points="1336,173 1376,173 1395,196 1316,196 "/>
    <path class="fil40" d="M1376 173l-4 0c3,4 18,22 18,22l3 -2 -17 -20z"/>
    <path class="fil40" d="M1336 173l4 0c-3,4 -19,22 -19,22l-3 -2 18 -20z"/>
    <polygon class="fil41" points="1310,191 1401,191 1401,293 1310,293 "/>
    <g>
     <polygon class="fil3" points="1319,217 1326,217 1326,198 1319,198 "/>
     <polygon class="fil3" points="1332,217 1340,217 1340,198 1332,198 "/>
     <polygon class="fil3" points="1345,217 1353,217 1353,198 1345,198 "/>
     <polygon class="fil3" points="1358,217 1366,217 1366,198 1358,198 "/>
     <polygon class="fil3" points="1372,217 1379,217 1379,198 1372,198 "/>
     <polygon class="fil3" points="1385,217 1393,217 1393,198 1385,198 "/>
    </g>
    <g>
     <polygon class="fil3" points="1319,238 1327,238 1327,219 1319,219 "/>
     <polygon class="fil3" points="1332,238 1340,238 1340,219 1332,219 "/>
     <polygon class="fil3" points="1345,238 1353,238 1353,219 1345,219 "/>
     <polygon class="fil3" points="1359,238 1366,238 1366,219 1359,219 "/>
     <polygon class="fil3" points="1372,238 1380,238 1380,219 1372,219 "/>
     <polygon class="fil3" points="1385,238 1393,238 1393,219 1385,219 "/>
    </g>
    <g>
     <polygon class="fil3" points="1319,259 1327,259 1327,241 1319,241 "/>
     <polygon class="fil3" points="1332,259 1340,259 1340,241 1332,241 "/>
     <polygon class="fil3" points="1346,259 1353,259 1353,241 1346,241 "/>
     <polygon class="fil3" points="1359,259 1367,259 1367,241 1359,241 "/>
     <polygon class="fil3" points="1372,259 1380,259 1380,241 1372,241 "/>
     <polygon class="fil3" points="1385,259 1393,259 1393,241 1385,241 "/>
    </g>
    <g>
     <polygon class="fil3" points="1319,281 1327,281 1327,262 1319,262 "/>
     <polygon class="fil3" points="1333,281 1340,281 1340,262 1333,262 "/>
     <polygon class="fil3" points="1346,281 1354,281 1354,262 1346,262 "/>
     <polygon class="fil3" points="1359,281 1367,281 1367,262 1359,262 "/>
     <polygon class="fil3" points="1372,281 1380,281 1380,262 1372,262 "/>
     <polygon class="fil3" points="1386,281 1393,281 1393,262 1386,262 "/>
    </g>
    <g>
     <polygon class="fil42" points="1339,188 1349,188 1349,178 1339,178 "/>
     <polygon class="fil42" points="1351,188 1360,188 1360,178 1351,178 "/>
     <polygon class="fil42" points="1363,188 1372,188 1372,178 1363,178 "/>
    </g>
    <polygon class="fil23" points="1310,293 1314,293 1314,191 1310,191 "/>
    <polygon class="fil23" points="1397,293 1401,293 1401,191 1397,191 "/>
   </g>
   <path class="fil43" d="M1404 440l0 -172c-74,1 -154,3 -235,7 -444,23 -805,94 -867,165l1102 0z"/>
   <g>
    <g>
     <g>
      <path class="fil25" d="M521 313c0,0 0,0 0,0 0,0 -1,1 -1,1 -2,1 -2,1 -2,1l3 0 4 0c0,0 -1,0 -2,-1 -1,0 -1,-1 -1,-1 0,0 0,0 0,0l0 0c0,0 0,0 0,0 0,0 0,0 0,0l0 0c0,-1 0,-1 0,-1 0,0 -1,0 0,-1 0,0 0,-1 -1,-2 -1,1 0,2 0,2 0,1 0,1 0,1 0,0 0,0 0,1l0 0c-1,0 -1,0 -1,0 0,0 0,0 1,0l0 0z"/>
      <path class="fil25" d="M518 315l7 0c0,0 0,0 0,0 0,0 0,0 0,0l-7 0c0,0 -1,0 -1,0 0,0 1,0 1,0z"/>
      <polygon class="fil25" points="521,353 522,353 522,324 521,324 "/>
      <path class="fil25" d="M521 322c0,0 0,1 0,1 -1,0 -1,1 -1,1 0,0 0,0 1,1l0 0 1 0c0,-1 1,-1 1,-1 0,0 -1,-1 -1,-1 0,0 0,-1 0,-1l-1 0 0 0z"/>
      <polygon class="fil25" points="520,353 521,353 523,353 525,360 518,360 "/>
      <path class="fil25" d="M519 352l5 0c0,0 0,1 0,1 0,0 0,0 0,0l-5 0c0,0 0,0 0,0 0,0 0,-1 0,-1z"/>
      <path class="fil25" d="M518 360l7 0c0,0 0,0 0,0 0,0 0,0 0,0l-7 0c0,0 -1,0 -1,0 0,0 1,0 1,0z"/>
      <polygon class="fil25" points="521,315 518,315 520,322 521,322 523,322 525,315 "/>
      <g>
       <polygon class="fil19" points="521,315 518,315 520,322 521,322 "/>
       <polygon class="fil19" points="522,315 524,315 523,322 522,322 "/>
      </g>
     </g>
     <path class="fil25" d="M521 361c3,0 5,-1 5,-1 0,-1 -2,-1 -5,-1 -2,0 -4,0 -4,1 0,0 2,1 4,1z"/>
    </g>
    <path class="fil26" d="M521 315l4 0c0,0 -1,0 -2,-1 -1,0 -1,-1 -1,-1 0,0 0,0 0,0l0 0c0,0 0,0 0,0 0,0 0,0 0,0l0 0c0,-1 0,-1 0,-1 0,0 -1,0 0,-1 0,0 0,-1 -1,-1l0 5z"/>
    <path class="fil26" d="M521 315l4 0c0,0 0,0 0,0 0,0 0,0 0,0l-4 0 0 0z"/>
    <polygon class="fil26" points="521,324 522,324 522,353 521,353 "/>
    <path class="fil26" d="M521 325l1 0c0,-1 1,-1 1,-1 0,0 -1,-1 -1,-1 0,0 0,-1 0,-1l-1 0 0 3z"/>
    <polygon class="fil26" points="521,353 523,353 525,360 521,360 "/>
    <path class="fil26" d="M521 352l3 0c0,0 0,1 0,1 0,0 0,0 0,0l-3 0 0 -1z"/>
    <path class="fil25" d="M521 360l4 0c0,0 0,0 0,0 0,0 0,0 0,0l-4 0 0 0z"/>
    <polygon class="fil26" points="521,322 523,322 525,315 521,315 "/>
    <polygon class="fil19" points="522,315 524,315 523,322 522,322 "/>
    <path class="fil26" d="M521 359c3,0 5,0 5,1 0,0 -2,1 -5,1l0 -2z"/>
   </g>
   <g>
    <g>
     <g>
      <path class="fil25" d="M709 313c0,0 0,0 0,0 0,0 0,1 -1,1 -1,1 -2,1 -2,1l4 0 3 0c0,0 0,0 -2,-1 0,0 -1,-1 -1,-1 0,0 0,0 0,0l0 0c1,0 1,0 1,0 0,0 0,0 -1,0l0 0c0,-1 0,-1 0,-1 0,0 0,0 0,-1 0,0 1,-1 0,-2 -1,1 -1,2 -1,2 1,1 0,1 0,1 0,0 0,0 0,1l0 0c0,0 0,0 0,0 0,0 0,0 0,0l0 0z"/>
      <path class="fil25" d="M706 315l7 0c0,0 1,0 1,0 0,0 -1,0 -1,0l-7 0c0,0 0,0 0,0 0,0 0,0 0,0z"/>
      <polygon class="fil25" points="709,353 711,353 711,324 709,324 "/>
      <path class="fil25" d="M709 322c0,0 0,1 0,1 0,0 -1,1 -1,1 0,0 1,0 1,1l1 0 1 0c0,-1 0,-1 0,-1 0,0 0,-1 0,-1 0,0 0,-1 0,-1l-1 0 -1 0z"/>
      <polygon class="fil25" points="708,353 710,353 712,353 713,360 707,360 "/>
      <path class="fil25" d="M708 352l4 0c0,0 1,1 1,1 0,0 -1,0 -1,0l-4 0c-1,0 -1,0 -1,0 0,0 0,-1 1,-1z"/>
      <path class="fil25" d="M706 360l7 0c1,0 1,0 1,0 0,0 0,0 -1,0l-7 0c0,0 0,0 0,0 0,0 0,0 0,0z"/>
      <polygon class="fil25" points="710,315 706,315 708,322 710,322 711,322 713,315 "/>
      <g>
       <polygon class="fil19" points="710,315 707,315 709,322 710,322 "/>
       <polygon class="fil19" points="710,315 713,315 711,322 710,322 "/>
      </g>
     </g>
     <path class="fil25" d="M710 361c2,0 4,-1 4,-1 0,-1 -2,-1 -4,-1 -3,0 -5,0 -5,1 0,0 2,1 5,1z"/>
    </g>
    <path class="fil26" d="M710 315l3 0c0,0 0,0 -2,-1 0,0 -1,-1 -1,-1 0,0 0,0 0,0l0 0c1,0 1,0 1,0 0,0 0,0 -1,0l0 0c0,-1 0,-1 0,-1 0,0 0,0 0,-1 0,0 1,-1 0,-1l0 5z"/>
    <path class="fil26" d="M710 315l3 0c0,0 1,0 1,0 0,0 -1,0 -1,0l-3 0 0 0z"/>
    <polygon class="fil26" points="710,324 711,324 711,353 710,353 "/>
    <path class="fil26" d="M710 325l1 0c0,-1 0,-1 0,-1 0,0 0,-1 0,-1 0,0 0,-1 0,-1l-1 0 0 3z"/>
    <polygon class="fil26" points="710,353 712,353 713,360 710,360 "/>
    <path class="fil26" d="M710 352l2 0c0,0 1,1 1,1 0,0 -1,0 -1,0l-2 0 0 -1z"/>
    <path class="fil25" d="M710 360l3 0c1,0 1,0 1,0 0,0 0,0 -1,0l-3 0 0 0z"/>
    <polygon class="fil26" points="710,322 711,322 713,315 710,315 "/>
    <polygon class="fil19" points="710,315 713,315 711,322 710,322 "/>
    <path class="fil26" d="M710 359c2,0 4,0 4,1 0,0 -2,1 -4,1l0 -2z"/>
   </g>
   <g>
    <g>
     <g>
      <path class="fil25" d="M898 313c0,0 0,0 0,0 0,0 -1,1 -1,1 -2,1 -2,1 -2,1l3 0 4 0c0,0 -1,0 -2,-1 -1,0 -1,-1 -1,-1 0,0 0,0 0,0l0 0c0,0 0,0 0,0 0,0 0,0 0,0l0 0c0,-1 0,-1 0,-1 0,0 -1,0 0,-1 0,0 0,-1 -1,-2 -1,1 0,2 0,2 0,1 0,1 0,1 0,0 0,0 0,1l0 0c-1,0 -1,0 -1,0 0,0 0,0 1,0l0 0z"/>
      <path class="fil25" d="M895 315l7 0c0,0 0,0 0,0 0,0 0,0 0,0l-7 0c-1,0 -1,0 -1,0 0,0 0,0 1,0z"/>
      <polygon class="fil25" points="898,353 899,353 899,324 898,324 "/>
      <path class="fil25" d="M898 322c0,0 0,1 -1,1 0,0 0,1 0,1 0,0 0,0 1,1l0 0 1 0c0,-1 1,-1 1,-1 0,0 -1,-1 -1,-1 0,0 0,-1 0,-1l-1 0 0 0z"/>
      <polygon class="fil25" points="896,353 898,353 900,353 902,360 895,360 "/>
      <path class="fil25" d="M896 352l5 0c0,0 0,1 0,1 0,0 0,0 0,0l-5 0c0,0 0,0 0,0 0,0 0,-1 0,-1z"/>
      <path class="fil25" d="M895 360l7 0c0,0 0,0 0,0 0,0 0,0 0,0l-7 0c0,0 -1,0 -1,0 0,0 1,0 1,0z"/>
      <polygon class="fil25" points="898,315 895,315 897,322 898,322 900,322 902,315 "/>
      <g>
       <polygon class="fil19" points="898,315 895,315 897,322 898,322 "/>
       <polygon class="fil19" points="899,315 901,315 900,322 899,322 "/>
      </g>
     </g>
     <path class="fil25" d="M898 361c3,0 5,-1 5,-1 0,-1 -2,-1 -5,-1 -2,0 -4,0 -4,1 0,0 2,1 4,1z"/>
    </g>
    <path class="fil26" d="M898 315l4 0c0,0 -1,0 -2,-1 -1,0 -1,-1 -1,-1 0,0 0,0 0,0l0 0c0,0 0,0 0,0 0,0 0,0 0,0l0 0c0,-1 0,-1 0,-1 0,0 -1,0 0,-1 0,0 0,-1 -1,-1l0 5z"/>
    <path class="fil26" d="M898 315l4 0c0,0 0,0 0,0 0,0 0,0 0,0l-4 0 0 0z"/>
    <polygon class="fil26" points="898,324 899,324 899,353 898,353 "/>
    <path class="fil26" d="M898 325l1 0c0,-1 1,-1 1,-1 0,0 -1,-1 -1,-1 0,0 0,-1 0,-1l-1 0 0 3z"/>
    <polygon class="fil26" points="898,353 900,353 902,360 898,360 "/>
    <path class="fil26" d="M898 352l3 0c0,0 0,1 0,1 0,0 0,0 0,0l-3 0 0 -1z"/>
    <path class="fil25" d="M898 360l4 0c0,0 0,0 0,0 0,0 0,0 0,0l-4 0 0 0z"/>
    <polygon class="fil26" points="898,322 900,322 902,315 898,315 "/>
    <polygon class="fil19" points="899,315 901,315 900,322 899,322 "/>
    <path class="fil26" d="M898 359c3,0 5,0 5,1 0,0 -2,1 -5,1l0 -2z"/>
   </g>
   <g>
    <g>
     <g>
      <path class="fil25" d="M1086 313c0,0 0,0 0,0 0,0 0,1 -1,1 -1,1 -2,1 -2,1l4 0 3 0c0,0 0,0 -2,-1 0,0 -1,-1 -1,-1 0,0 0,0 0,0l0 0c1,0 1,0 1,0 0,0 0,0 -1,0l0 0c0,-1 0,-1 0,-1 0,0 0,0 0,-1 0,0 1,-1 0,-2 -1,1 -1,2 -1,2 1,1 0,1 0,1 0,0 0,0 0,1l0 0c0,0 0,0 0,0 0,0 0,0 0,0l0 0z"/>
      <path class="fil25" d="M1083 315l7 0c0,0 1,0 1,0 0,0 -1,0 -1,0l-7 0c0,0 0,0 0,0 0,0 0,0 0,0z"/>
      <polygon class="fil25" points="1086,353 1088,353 1088,324 1086,324 "/>
      <path class="fil25" d="M1086 322c0,0 0,1 0,1 0,0 -1,1 -1,1 0,0 1,0 1,1l1 0 1 0c0,-1 0,-1 0,-1 0,0 0,-1 0,-1 0,0 0,-1 0,-1l-1 0 -1 0z"/>
      <polygon class="fil25" points="1085,353 1087,353 1089,353 1090,360 1084,360 "/>
      <path class="fil25" d="M1085 352l4 0c0,0 1,1 1,1 0,0 -1,0 -1,0l-4 0c-1,0 -1,0 -1,0 0,0 0,-1 1,-1z"/>
      <path class="fil25" d="M1083 360l7 0c1,0 1,0 1,0 0,0 0,0 -1,0l-7 0c0,0 0,0 0,0 0,0 0,0 0,0z"/>
      <polygon class="fil25" points="1087,315 1083,315 1085,322 1087,322 1088,322 1090,315 "/>
      <g>
       <polygon class="fil19" points="1087,315 1084,315 1086,322 1087,322 "/>
       <polygon class="fil19" points="1087,315 1090,315 1088,322 1087,322 "/>
      </g>
     </g>
     <path class="fil25" d="M1087 361c2,0 4,-1 4,-1 0,-1 -2,-1 -4,-1 -3,0 -5,0 -5,1 0,0 2,1 5,1z"/>
    </g>
    <path class="fil26" d="M1087 315l3 0c0,0 0,0 -2,-1 0,0 -1,-1 -1,-1 0,0 0,0 0,0l0 0c1,0 1,0 1,0 0,0 0,0 -1,0l0 0c0,-1 0,-1 0,-1 0,0 0,0 0,-1 0,0 1,-1 0,-1l0 5z"/>
    <path class="fil26" d="M1087 315l3 0c0,0 1,0 1,0 0,0 -1,0 -1,0l-3 0 0 0z"/>
    <polygon class="fil26" points="1087,324 1088,324 1088,353 1087,353 "/>
    <path class="fil26" d="M1087 325l1 0c0,-1 0,-1 0,-1 0,0 0,-1 0,-1 0,0 0,-1 0,-1l-1 0 0 3z"/>
    <polygon class="fil26" points="1087,353 1089,353 1090,360 1087,360 "/>
    <path class="fil26" d="M1087 352l2 0c0,0 1,1 1,1 0,0 -1,0 -1,0l-2 0 0 -1z"/>
    <path class="fil25" d="M1087 360l3 0c1,0 1,0 1,0 0,0 0,0 -1,0l-3 0 0 0z"/>
    <polygon class="fil26" points="1087,322 1088,322 1090,315 1087,315 "/>
    <polygon class="fil19" points="1087,315 1090,315 1088,322 1087,322 "/>
    <path class="fil26" d="M1087 359c2,0 4,0 4,1 0,0 -2,1 -4,1l0 -2z"/>
   </g>
   <g>
    <g>
     <g>
      <path class="fil25" d="M1275 313c0,0 0,0 0,0 0,0 -1,1 -1,1 -2,1 -2,1 -2,1l3 0 4 0c0,0 -1,0 -2,-1 -1,0 -1,-1 -1,-1 0,0 0,0 0,0l0 0c0,0 0,0 0,0 0,0 0,0 0,0l0 0c0,-1 0,-1 0,-1 0,0 -1,0 0,-1 0,0 0,-1 -1,-2 -1,1 0,2 0,2 0,1 0,1 0,1 0,0 0,0 0,1l0 0c-1,0 -1,0 -1,0 0,0 0,0 1,0l0 0z"/>
      <path class="fil25" d="M1272 315l7 0c0,0 0,0 0,0 0,0 0,0 0,0l-7 0c-1,0 -1,0 -1,0 0,0 0,0 1,0z"/>
      <polygon class="fil25" points="1275,353 1276,353 1276,324 1275,324 "/>
      <path class="fil25" d="M1275 322c0,0 0,1 -1,1 0,0 0,1 0,1 0,0 0,0 1,1l0 0 1 0c0,-1 1,-1 1,-1 0,0 -1,-1 -1,-1 0,0 0,-1 0,-1l-1 0 0 0z"/>
      <polygon class="fil25" points="1273,353 1275,353 1277,353 1279,360 1272,360 "/>
      <path class="fil25" d="M1273 352l5 0c0,0 0,1 0,1 0,0 0,0 0,0l-5 0c0,0 0,0 0,0 0,0 0,-1 0,-1z"/>
      <path class="fil25" d="M1272 360l7 0c0,0 0,0 0,0 0,0 0,0 0,0l-7 0c0,0 -1,0 -1,0 0,0 1,0 1,0z"/>
      <polygon class="fil25" points="1275,315 1272,315 1274,322 1275,322 1277,322 1279,315 "/>
      <g>
       <polygon class="fil19" points="1275,315 1272,315 1274,322 1275,322 "/>
       <polygon class="fil19" points="1276,315 1278,315 1277,322 1276,322 "/>
      </g>
     </g>
     <path class="fil25" d="M1275 361c3,0 5,-1 5,-1 0,-1 -2,-1 -5,-1 -2,0 -4,0 -4,1 0,0 2,1 4,1z"/>
    </g>
    <path class="fil26" d="M1275 315l4 0c0,0 -1,0 -2,-1 -1,0 -1,-1 -1,-1 0,0 0,0 0,0l0 0c0,0 0,0 0,0 0,0 0,0 0,0l0 0c0,-1 0,-1 0,-1 0,0 -1,0 0,-1 0,0 0,-1 -1,-1l0 5z"/>
    <path class="fil26" d="M1275 315l4 0c0,0 0,0 0,0 0,0 0,0 0,0l-4 0 0 0z"/>
    <polygon class="fil26" points="1275,324 1276,324 1276,353 1275,353 "/>
    <path class="fil26" d="M1275 325l1 0c0,-1 1,-1 1,-1 0,0 -1,-1 -1,-1 0,0 0,-1 0,-1l-1 0 0 3z"/>
    <polygon class="fil26" points="1275,353 1277,353 1279,360 1275,360 "/>
    <path class="fil26" d="M1275 352l3 0c0,0 0,1 0,1 0,0 0,0 0,0l-3 0 0 -1z"/>
    <path class="fil25" d="M1275 360l4 0c0,0 0,0 0,0 0,0 0,0 0,0l-4 0 0 0z"/>
    <polygon class="fil26" points="1275,322 1277,322 1279,315 1275,315 "/>
    <polygon class="fil19" points="1276,315 1278,315 1277,322 1276,322 "/>
    <path class="fil26" d="M1275 359c3,0 5,0 5,1 0,0 -2,1 -5,1l0 -2z"/>
   </g>
   <polygon class="fil27" points="404,405 420,381 465,358 1404,354 1404,394 "/>
   <polygon class="fil44" points="1404,440 0,440 0,381 1404,381 "/>
   <path class="fil45" d="M198 400l-130 0c-2,0 -2,-1 -2,-2 0,-1 0,-2 2,-2l130 0c1,0 2,1 2,2 0,1 -1,2 -2,2z"/>
   <path class="fil45" d="M316 419l-130 0c-1,0 -2,-1 -2,-2 0,-1 1,-2 2,-2l130 0c2,0 3,1 3,2 0,1 -1,2 -3,2z"/>
   <path class="fil45" d="M463 403l-130 0c-1,0 -2,-1 -2,-2 0,-1 1,-2 2,-2l130 0c1,0 2,1 2,2 0,1 -1,2 -2,2z"/>
   <path class="fil45" d="M612 421l-130 0c-1,0 -2,0 -2,-2 0,-1 1,-2 2,-2l130 0c2,0 3,1 3,2 0,2 -1,2 -3,2z"/>
   <path class="fil45" d="M813 407l-130 0c-1,0 -2,-1 -2,-2 0,-2 1,-2 2,-2l130 0c1,0 2,0 2,2 0,1 -1,2 -2,2z"/>
   <path class="fil45" d="M988 419l-131 0c-1,0 -2,-1 -2,-2 0,-1 1,-2 2,-2l131 0c1,0 2,1 2,2 0,1 -1,2 -2,2z"/>
   <path class="fil45" d="M1161 403l-130 0c-2,0 -2,-1 -2,-2 0,-1 0,-2 2,-2l130 0c1,0 2,1 2,2 0,1 -1,2 -2,2z"/>
   <path class="fil45" d="M1248 423l-130 0c-1,0 -2,0 -2,-2 0,-1 1,-2 2,-2l130 0c1,0 2,1 2,2 0,2 -1,2 -2,2z"/>
   <g>
    <path class="fil28" d="M664 335c0,2 -8,5 -17,5 -10,0 -18,-3 -18,-5 0,-3 8,-5 18,-5 9,0 17,2 17,5z"/>
    <g>
     <path class="fil46" d="M669 269c-6,-9 -14,-16 -22,-17 -18,3 -34,28 -28,45 3,9 12,15 31,14 32,-2 30,-26 19,-42z"/>
     <path class="fil30" d="M658 286l-5 5 0 -6 0 6 -6 6 0 -5 -1 -29 -1 22 -4 -5 4 7 0 5 0 10 -6 -6 -1 -7 0 6 -4 -4 5 6 -6 -2 7 3 5 5 -1 31c0,0 0,1 0,1 0,0 0,0 0,0 0,0 0,0 0,0 0,0 0,0 0,0 0,0 0,0 0,0 0,0 0,0 0,0 0,0 0,0 0,0 1,0 1,0 1,0 0,0 0,0 0,0 0,0 0,0 0,0 0,0 0,0 0,0 0,0 0,0 0,0 1,0 1,0 1,0 0,0 0,0 0,0 1,0 2,0 2,-1l-1 -29 1 0 0 0 -1 -7 3 -3 7 -3 -6 2 7 -8z"/>
    </g>
   </g>
   <g>
    <path class="fil28" d="M961 326c0,3 -8,5 -18,5 -9,0 -17,-2 -17,-5 0,-3 8,-5 17,-5 10,0 18,2 18,5z"/>
    <g>
     <path class="fil47" d="M966 260c-6,-8 -15,-15 -22,-16 -18,2 -34,28 -29,44 3,9 13,15 32,14 32,-2 30,-25 19,-42z"/>
     <path class="fil30" d="M955 277l-5 5 -1 -6 0 7 -5 5 0 -5 -1 -28 -1 22 -4 -6 4 7 0 5 -1 10 -6 -6 0 -7 0 6 -5 -4 6 6 -7 -2 7 3 5 6 -1 31c0,0 0,0 0,0 0,0 0,0 0,0 0,0 1,0 1,0 0,0 0,0 0,0 0,0 0,0 0,0 0,0 0,0 0,0 0,0 0,0 0,0 0,0 0,0 0,0 0,0 0,0 0,0 0,1 1,1 1,1 0,0 0,0 0,0 0,0 0,0 0,0 0,0 0,0 0,0 0,0 1,0 1,0 1,0 2,-1 2,-1l-1 -30 0 0 0 0 0 -6 3 -4 7 -2 -6 2 7 -9z"/>
    </g>
   </g>
   <g>
    <path class="fil28" d="M1163 345c0,3 -8,5 -18,5 -10,0 -17,-2 -17,-5 0,-3 7,-5 17,-5 10,0 18,2 18,5z"/>
    <g>
     <path class="fil48" d="M1167 279c-5,-9 -14,-15 -22,-16 -17,2 -33,28 -28,44 3,9 13,15 31,14 32,-2 31,-25 19,-42z"/>
     <path class="fil30" d="M1157 296l-5 5 -1 -6 0 7 -5 5 0 -5 -1 -28 -1 22 -4 -6 4 7 -1 5 0 10 -6 -6 -1 -7 0 6 -4 -4 5 6 -6 -2 7 3 5 6 -1 31c0,0 0,0 0,0 0,0 0,0 0,0 0,0 0,0 0,0 0,0 0,0 0,0 0,0 1,0 1,0 0,0 0,0 0,0 0,0 0,0 0,0 0,0 0,0 0,0 0,0 0,0 0,0 0,0 0,0 0,1 1,0 1,0 1,0 0,0 0,0 0,0 0,0 0,0 0,0 0,0 0,0 0,0 2,0 3,-1 3,-1l-1 -30 0 0 0 0 0 -6 3 -4 7 -2 -7 2 8 -9z"/>
    </g>
   </g>
   <g>
    <path class="fil28" d="M1343 345c0,3 -8,5 -17,5 -10,0 -18,-2 -18,-5 0,-3 8,-5 18,-5 9,0 17,2 17,5z"/>
    <g>
     <path class="fil49" d="M1348 279c-6,-9 -14,-15 -22,-16 -18,2 -34,28 -28,44 3,9 12,15 31,14 32,-2 31,-25 19,-42z"/>
     <path class="fil30" d="M1338 296l-5 5 -1 -6 0 7 -5 5 -1 -5 -1 -28 -1 22 -4 -6 4 7 0 5 0 10 -6 -6 -1 -7 0 6 -4 -4 5 6 -6 -2 7 3 5 6 -1 31c0,0 0,0 0,0 0,0 0,0 0,0 0,0 0,0 0,0 0,0 0,0 0,0 0,0 0,0 0,0 0,0 0,0 0,0 1,0 1,0 1,0 0,0 0,0 0,0 0,0 0,0 0,0 0,0 0,0 0,1 0,0 0,0 0,0 0,0 1,0 1,0 0,0 0,0 0,0 0,0 0,0 0,0 1,0 2,-1 2,-1l0 -30 0 0 0 0 0 -6 3 -4 7 -2 -7 2 8 -9z"/>
    </g>
   </g>
   <g>
    <path class="fil50" d="M798 309c-34,-3 -6,-69 0,-72 7,3 35,69 0,72z"/>
    <path class="fil28" d="M811 327c0,2 -5,4 -12,4 -8,0 -13,-2 -13,-4 0,-2 5,-3 13,-3 7,0 12,1 12,3z"/>
    <g>
     <path class="fil30" d="M808 291l-4 3 0 -4 0 5 -4 4 0 -4 -1 -21 -1 17 -3 -5 3 5 0 4 0 7 -5 -4 0 -5 0 5 -3 -3 4 4 -5 -2 5 3 4 4 -1 22c0,1 0,1 0,1 0,0 0,0 0,0 0,0 0,0 0,0 0,0 0,0 0,0 0,0 0,0 0,0 0,0 0,0 0,0 1,0 1,0 1,0 0,0 0,0 0,0 0,0 0,0 0,0 0,0 0,0 0,0 0,0 0,0 0,0 0,0 0,0 0,0 0,0 0,0 1,0 0,0 0,0 0,0 1,0 1,0 1,-1l0 -21 0 0 0 0 0 -5 2 -2 5 -2 -5 1 6 -6z"/>
    </g>
   </g>
   <g>
    <path class="fil51" d="M1025 286c-34,-3 -7,-68 0,-71 6,3 34,68 0,71z"/>
    <path class="fil28" d="M1038 305c0,2 -6,3 -13,3 -7,0 -13,-1 -13,-3 0,-2 6,-4 13,-4 7,0 13,2 13,4z"/>
    <g>
     <path class="fil30" d="M1034 268l-4 4 0 -4 0 4 -4 4 0 -3 -1 -21 0 16 -3 -4 3 5 -1 4 0 7 -4 -4 -1 -5 0 4 -3 -3 4 5 -5 -2 6 2 3 4 -1 23c0,0 0,0 1,0 0,0 0,0 0,0 0,0 0,0 0,0 0,0 0,0 0,0 0,0 0,0 0,0 0,0 0,0 0,0 0,0 0,0 0,1 0,0 0,0 0,0 0,0 0,0 0,0 0,0 0,0 0,0 0,0 1,0 1,0 0,0 0,0 0,0 0,0 0,0 0,0 0,0 0,0 0,0 1,0 2,-1 2,-1l-1 -22 0 0 0 0 0 -4 2 -3 6 -2 -5 2 5 -7z"/>
    </g>
   </g>
   <g>
    <path class="fil52" d="M1223 305c-34,-3 -6,-68 0,-71 7,3 34,68 0,71z"/>
    <path class="fil28" d="M1236 324c0,2 -6,3 -13,3 -7,0 -13,-1 -13,-3 0,-2 6,-4 13,-4 7,0 13,2 13,4z"/>
    <g>
     <path class="fil30" d="M1232 287l-3 4 -1 -4 0 4 -4 4 0 -3 0 -21 -1 16 -3 -4 3 5 0 4 -1 7 -4 -4 0 -5 0 4 -3 -3 3 5 -4 -2 5 2 3 4 0 23c0,0 0,0 0,0 0,0 0,0 0,0 0,0 0,0 0,0 0,0 0,0 0,0 0,0 0,0 0,0 0,0 0,0 0,0 0,0 0,0 0,0 0,0 0,1 0,1 0,0 1,0 1,0 0,0 0,0 0,0 0,0 0,0 0,0 0,0 0,0 0,0 0,0 0,0 0,0 0,0 0,0 0,0 1,0 2,-1 2,-1l-1 -22 1 0 0 0 -1 -4 3 -3 5 -2 -5 2 5 -7z"/>
    </g>
   </g>
  </g>
  <polygon class="fil53" points="0,437 1403,440 1403,499 0,496 "/>
  <path class="fil45" d="M307 464l-130 0c-1,0 -2,-1 -2,-2 0,-2 1,-2 2,-2l130 0c1,0 2,0 2,2 0,1 -1,2 -2,2z"/>
  <path class="fil45" d="M426 483l-131 0c-1,0 -2,-1 -2,-2 0,-1 1,-2 2,-2l131 0c1,0 2,1 2,2 0,1 -1,2 -2,2z"/>
  <path class="fil45" d="M572 466l-130 0c-1,0 -2,-1 -2,-2 0,-1 1,-2 2,-2l130 0c1,0 2,1 2,2 0,1 -1,2 -2,2z"/>
  <path class="fil45" d="M722 485l-131 0c-1,0 -2,-1 -2,-2 0,-1 1,-2 2,-2l131 0c1,0 2,1 2,2 0,1 -1,2 -2,2z"/>
  <path class="fil45" d="M923 470l-131 0c-1,0 -2,-1 -2,-2 0,-1 1,-2 2,-2l131 0c1,0 2,1 2,2 0,1 -1,2 -2,2z"/>
  <path class="fil45" d="M1097 483l-130 0c-2,0 -3,-1 -3,-2 0,-2 1,-2 3,-2l130 0c1,0 2,0 2,2 0,1 -1,2 -2,2z"/>
  <path class="fil45" d="M1270 466l-130 0c-1,0 -2,-1 -2,-2 0,-1 1,-2 2,-2l130 0c1,0 2,1 2,2 0,1 -1,2 -2,2z"/>
  <path class="fil45" d="M1357 487l-130 0c-1,0 -2,-1 -2,-2 0,-1 1,-2 2,-2l130 0c2,0 2,1 2,2 0,1 0,2 -2,2z"/>
  <polygon class="fil45" points="158,441 28,441 "/>
  <polygon class="fil54" points="2799,437 1396,437 1396,381 2799,381 "/>
  <polygon class="fil55" points="1395,434 2799,437 2799,502 1395,499 "/>
  <polygon class="fil45" points="1310,387 1440,387 "/>
  <polygon class="fil45" points="1484,399 1614,399 "/>
  <polygon class="fil45" points="1657,383 1788,383 "/>
  <polygon class="fil45" points="1745,404 1875,404 "/>
  <polygon class="fil45" points="1349,469 1218,469 "/>
  <polygon class="fil45" points="1419,450 1549,450 "/>
  <polygon class="fil45" points="1593,463 1724,463 "/>
  <path class="fil45" d="M1897 450l-130 0c-1,0 -2,-1 -2,-2 0,-1 1,-2 2,-2l130 0c1,0 2,1 2,2 0,1 -1,2 -2,2z"/>
  <path class="fil45" d="M1984 467c1,0 2,1 2,2 0,1 -1,2 -2,2l-130 0c-1,0 -2,-1 -2,-2 0,-1 1,-2 2,-2l130 0z"/>
  <path class="fil45" d="M1443 411l-130 0c-1,0 -2,-1 -2,-2 0,-1 1,-2 2,-2l130 0c1,0 2,1 2,2 0,1 -1,2 -2,2z"/>
  <path class="fil45" d="M1548 439l-130 0c-1,0 -2,-1 -2,-2 0,-1 1,-2 2,-2l130 0c1,0 2,1 2,2 0,1 -1,2 -2,2z"/>
  <path class="fil45" d="M1443 468l-130 0c-1,0 -2,-1 -2,-2 0,-1 1,-2 2,-2l130 0c1,0 2,1 2,2 0,1 -1,2 -2,2z"/>
  <path class="fil45" d="M1673 481l-131 0c-1,0 -2,-1 -2,-2 0,-2 1,-2 2,-2l131 0c1,0 2,0 2,2 0,1 -1,2 -2,2z"/>
  <path class="fil45" d="M1785 411l-131 0c-1,0 -2,-1 -2,-2 0,-1 1,-2 2,-2l131 0c1,0 2,1 2,2 0,1 -1,2 -2,2z"/>
 </g>
</svg>
