<!DOCTYPE svg PUBLIC "-//W3C//DTD SVG 1.1//EN" "http://www.w3.org/Graphics/SVG/1.1/DTD/svg11.dtd">
<svg xmlns="http://www.w3.org/2000/svg" xml:space="preserve" width="210mm" height="297mm" version="1.1" style="shape-rendering:geometricPrecision; text-rendering:geometricPrecision; image-rendering:optimizeQuality; fill-rule:evenodd; clip-rule:evenodd"
viewBox="0 0 21000 29700"
 xmlns:xlink="http://www.w3.org/1999/xlink">
 <g id="Слой_x0020_1">
  <metadata id="CorelCorpID_0Corel-Layer"/>
  <g id="_1743538084640">
   <path class="fil0" d="M15297 9610l-396 0 0 9732c0,646 -526,1172 -1173,1172l-4013 0 -3192 0 0 361c0,413 336,748 749,748l4012 0 4012 0c413,0 748,-335 748,-748l0 -10517c0,-413 -334,-748 -747,-748z"/>
   <path class="fil0" d="M9715 20090l4012 0c413,0 748,-335 748,-748l0 -9732 0 -785c0,-413 -335,-748 -748,-748l-4012 0 -1334 0 0 247c3,26 4,53 4,79l0 1632 0 418c0,582 -472,1054 -1054,1054l-419 0 -1631 0c-21,0 -43,-1 -65,-3l-260 0 0 7838c0,413 335,748 748,748l821 0 3190 0 0 0zm151 -2544l-2615 0c-196,0 -354,-158 -354,-353 0,-196 158,-354 354,-354l2617 0c195,0 353,158 353,354 0,195 -160,353 -355,353zm2617 -1805l-5232 0c-196,0 -354,-158 -354,-353 0,-196 158,-354 354,-354l5232 0c196,0 354,158 354,354 0,195 -158,353 -354,353zm-5232 -2624l5232 0c196,0 354,159 354,354 0,195 -158,353 -354,353l-5232 0c-196,0 -354,-158 -354,-353 0,-195 158,-354 354,-354z"/>
   <path class="fil0" d="M5281 11083l2050 0c2,0 4,0 6,0 342,-3 619,-280 622,-623 0,-1 0,-4 0,-5l0 -2052c0,-189 -155,-315 -317,-315 -77,0 -155,28 -220,93l-2364 2364c-198,198 -58,538 223,538z"/>
  </g>
  <g id="_1743538084544">
  </g>
  <g id="_1743538145408">
  </g>
  <g id="_1743538133472">
  </g>
  <g id="_1743538131648">
  </g>
  <g id="_1743538129632">
  </g>
  <g id="_1743538131040">
  </g>
  <g id="_1743538130464">
  </g>
  <g id="_1743538129696">
  </g>
  <g id="_1743538129984">
  </g>
  <g id="_1743538130624">
  </g>
  <g id="_1743538129216">
  </g>
  <g id="_1743538128320">
  </g>
  <g id="_1743538127744">
  </g>
  <g id="_1743538129152">
  </g>
  <g id="_1743538129504">
  </g>
 </g>
</svg>
