<!DOCTYPE svg PUBLIC "-//W3C//DTD SVG 1.1//EN" "http://www.w3.org/Graphics/SVG/1.1/DTD/svg11.dtd">
<svg xmlns="http://www.w3.org/2000/svg" xml:space="preserve" width="210mm" height="297mm" version="1.1" style="shape-rendering:geometricPrecision; text-rendering:geometricPrecision; image-rendering:optimizeQuality; fill-rule:evenodd; clip-rule:evenodd"
viewBox="0 0 21000 29700"
 xmlns:xlink="http://www.w3.org/1999/xlink">
 <g id="Слой_x0020_1">
  <metadata id="CorelCorpID_0Corel-Layer"/>
  <g id="_1743538086560">
   <g>
    <path class="fil0" d="M16824 13958l-4348 0 -777 776c-46,46 -97,84 -148,122l4824 0 0 2993 -467 -1642c-54,-193 -231,-326 -432,-326l-9503 0 0 -2499 2573 0 -731 -731c-52,-52 -98,-109 -140,-167l-2151 0c-248,0 -449,201 -449,449l0 2948 -899 0c-141,0 -274,66 -358,178 -86,113 -113,259 -74,394l1295 4515c95,330 396,557 739,557l10726 0c425,0 769,-345 769,-769l0 -6349c0,-248 -201,-449 -449,-449z"/>
   </g>
   <path class="fil0" d="M10535 14100c73,73 168,110 263,110 96,0 192,-37 264,-110l2087 -2086c107,-107 138,-267 81,-406 -58,-140 -194,-231 -345,-231l-912 0 0 -2705c0,-274 -222,-497 -497,-497l-1355 0c-275,0 -497,223 -497,497l0 2705 -912 0c-150,0 -286,91 -344,231 -58,139 -27,299 81,406l2086 2086z"/>
  </g>
  <g id="_1743538082720">
  </g>
  <g id="_1743538084192">
  </g>
  <g id="_1743538083648">
  </g>
  <g id="_1743538083680">
  </g>
  <g id="_1743538083808">
  </g>
  <g id="_1743538084352">
  </g>
  <g id="_1743538083072">
  </g>
  <g id="_1743538082176">
  </g>
  <g id="_1743538082368">
  </g>
  <g id="_1743538082496">
  </g>
  <g id="_1743538080736">
  </g>
  <g id="_1743538081888">
  </g>
  <g id="_1743538082240">
  </g>
  <g id="_1743538081568">
  </g>
  <g id="_1743538147040">
  </g>
 </g>
</svg>
