<!DOCTYPE svg PUBLIC "-//W3C//DTD SVG 1.1//EN" "http://www.w3.org/Graphics/SVG/1.1/DTD/svg11.dtd">
<svg xmlns="http://www.w3.org/2000/svg" xml:space="preserve" width="210mm" height="297mm" version="1.1" style="shape-rendering:geometricPrecision; text-rendering:geometricPrecision; image-rendering:optimizeQuality; fill-rule:evenodd; clip-rule:evenodd"
viewBox="0 0 21000 29700"
 xmlns:xlink="http://www.w3.org/1999/xlink">
 <g id="Слой_x0020_1">
  <metadata id="CorelCorpID_0Corel-Layer"/>
  <g id="_1743539670672">
   <g>
    <path class="info" d="M12148 8077c907,0 1360,618 1360,1326 0,883 -788,1701 -1814,1701 -859,0 -1361,-509 -1337,-1348 0,-707 597,-1679 1791,-1679zm-2794 13546c-716,0 -1241,-442 -740,-2386l823 -3448c143,-553 166,-774 0,-774 -216,0 -1145,382 -1695,758l-358 -597c1743,-1480 3748,-2348 4607,-2348 716,0 835,861 477,2187l-941 3625c-167,641 -95,862 71,862 215,0 920,-266 1612,-819l406 553c-1695,1724 -3545,2387 -4262,2387z"/>
   </g>
  </g>
  <g id="_1743539670288">
  </g>
  <g id="_1743539670544">
  </g>
  <g id="_1743539671024">
  </g>
  <g id="_1743539670512">
  </g>
  <g id="_1743539667056">
  </g>
  <g id="_1743539668976">
  </g>
  <g id="_1743539667984">
  </g>
  <g id="_1743539667792">
  </g>
  <g id="_1743539667152">
  </g>
  <g id="_1743539668656">
  </g>
  <g id="_1743539668272">
  </g>
  <g id="_1743539666864">
  </g>
  <g id="_1743539665424">
  </g>
  <g id="_1743539665808">
  </g>
  <g id="_1743539665264">
  </g>
 </g>
</svg>
