<!DOCTYPE svg PUBLIC "-//W3C//DTD SVG 1.1//EN" "http://www.w3.org/Graphics/SVG/1.1/DTD/svg11.dtd">
<svg xmlns="http://www.w3.org/2000/svg" xml:space="preserve" width="210mm" height="297mm" version="1.1" style="shape-rendering:geometricPrecision; text-rendering:geometricPrecision; image-rendering:optimizeQuality; fill-rule:evenodd; clip-rule:evenodd"
viewBox="0 0 21000 29700"
 xmlns:xlink="http://www.w3.org/1999/xlink">
 <g id="Слой_x0020_1">
  <metadata id="CorelCorpID_0Corel-Layer"/>
  <g id="_1743538132640">
   <path class="fil0" d="M16221 14214l-2543 2543c-1404,1404 -3681,1404 -5085,0 -221,-221 -394,-469 -546,-725l1182 -1182c56,-57 125,-89 192,-127 81,279 224,543 443,762 701,702 1842,701 2543,0l2542 -2542c701,-701 701,-1841 0,-2542 -701,-701 -1841,-701 -2542,0l-904 905c-734,-286 -1524,-363 -2294,-250l1926 -1926c1405,-1404 3681,-1404 5086,0 1403,1404 1403,3680 0,5084zm-6723 4181l-905 905c-701,700 -1841,700 -2542,0 -701,-702 -701,-1842 0,-2543l2542 -2543c702,-701 1842,-701 2542,0 219,220 362,484 445,762 66,-38 135,-70 191,-126l1181 -1181c-150,-257 -324,-505 -546,-726 -1403,-1404 -3680,-1404 -5084,0l-2542 2543c-1404,1404 -1404,3680 0,5085 1404,1403 3680,1403 5084,0l1927 -1927c-769,113 -1560,36 -2293,-249z"/>
  </g>
  <g id="_1743538130432">
  </g>
  <g id="_1743538131488">
  </g>
  <g id="_1743538129792">
  </g>
  <g id="_1743538130144">
  </g>
  <g id="_1743538131008">
  </g>
  <g id="_1743538130240">
  </g>
  <g id="_1743538129856">
  </g>
  <g id="_1743538128288">
  </g>
  <g id="_1743538129504">
  </g>
  <g id="_1743538127872">
  </g>
  <g id="_1743538129056">
  </g>
  <g id="_1743538129440">
  </g>
  <g id="_1743538128384">
  </g>
  <g id="_1743538128096">
  </g>
  <g id="_1743538127328">
  </g>
 </g>
</svg>
