<?xml version="1.0" encoding="utf-8"?>
<!-- Generator: Adobe Illustrator 18.1.1, SVG Export Plug-In . SVG Version: 6.00 Build 0)  -->
<svg version="1.1" id="Capa_1" xmlns="http://www.w3.org/2000/svg" xmlns:xlink="http://www.w3.org/1999/xlink" x="0px" y="0px"
	 viewBox="-49 141 512 512" enable-background="new -49 141 512 512" xml:space="preserve">
<g>
	<g>
		<path fill="#2F383E" d="M444,505.7c-9.7-0.7-30,10.3-35.6,13c-19.8,10-47.2,25.5-65.2,37.9c-1.3,0.8-3,2-4.2,2.8
			c-8.1,5.2-16.6,8.7-26.2,10.7c-52.3,11.1-128.6,12.4-128.6,12.4l-4.5,0.2c-3.4,0.2-6.4-2.1-6.8-5.4c-0.5-3.6,2.1-6.9,5.8-7.2
			l113.5-10.8c12.5-1.4,22.5-13,21.1-26.2c-1.4-13.1-13.5-22.8-26-21.4l-100.9-1.3c-6.9-0.1-17.9-1.8-24.5-3.7
			c-65.1-19-101.7-1.2-121.2,7.1c-4.3-7.2-12.6-11.9-21.8-11.2l-43.6,2.9c-14.5,1-25.4,13-24.4,27l7,96.6c1,14,13.6,24.5,28,23.5
			l43.6-2.9c9.2-0.6,16.6-6.3,19.9-14l191.2,8.3c21.3,2.2,41.2-0.3,60-10.2l5.5-2.9l144.4-84.6c7.1-4.1,12.2-11.3,12.4-19.4
			C463.4,517.5,457.8,506.6,444,505.7z M2,629.8c-8.2,0-14.8-6.4-14.8-14.3s6.7-14.3,14.8-14.3s14.8,6.4,14.8,14.3
			S10.2,629.8,2,629.8z"/>
		<path fill="#2F383E" d="M341.1,535.8c14.7-10.3,44.9-26.7,62-35.3c5.2-2.5,10.6-5.2,16.4-7.2c-7.4-5-15.4-5.2-23.6-2
			c-16.2,6.5-46.1,20.9-61.4,29.1c-0.1,0.2-0.2,0.4-0.2,0.6c1.1,3.2,1.9,6.5,2.2,9.9c0.3,2.8,0.2,5.4,0.1,8.1
			C338,537.9,339.5,536.8,341.1,535.8z"/>
		<path fill="#2F383E" d="M380.1,481.6c-7.4-4.8-15.3-5-23.3-1.8c-10.1,3.9-32.4,11.2-42.4,16.5c4.2,2.6,8.1,5.9,11.3,9.7
			c0.6-0.4,1.3-1,2-1.4l7.3-4C345.7,494.9,368.5,486.8,380.1,481.6z"/>
		<path fill="#2F383E" d="M365.6,293.7c28.3-12.1,48.2-40.3,48.2-73c0-43.9-35.6-79.4-79.4-79.4s-79.4,35.6-79.4,79.4
			c0,0.4,0.1,0.8,0.1,1.3C302.3,226.9,342.8,254.6,365.6,293.7z"/>
		<path fill="#2F383E" d="M240,481.7c63.7,0,115.3-51.6,115.3-115.3S303.7,251.2,240,251.2s-115.3,51.6-115.3,115.3
			S176.3,481.7,240,481.7z M199.8,412c1.1-3.8,2.1-7.6,3.3-11.3c1.4-4.3,2.5-4.9,6.6-2.9c6.9,3.6,14.1,5.5,21.7,6.5
			c4.9,0.6,9.7,0.1,14.2-1.9c8.5-3.7,9.9-13.6,2.6-19.4c-2.4-2-5.2-3.5-8.1-4.8c-7.4-3.3-15.2-5.7-22.3-10
			c-11.3-6.8-18.6-16.2-17.8-30c1-15.7,9.9-25.4,24.2-30.6c5.9-2.1,5.9-2.1,6-8.3c0-2.1,0-4.2,0-6.3c0.1-4.7,1-5.5,5.5-5.6
			c1.5,0,2.9,0,4.3,0c9.9,0,9.9,0,10,9.9c0,7,0,7,7,8.2c5.3,0.8,10.5,2.4,15.4,4.6c2.8,1.2,3.7,3.1,3,5.9c-1.3,4.2-2.4,8.6-3.8,12.8
			c-1.3,4-2.5,4.6-6.5,2.8c-7.7-3.7-15.9-5.3-24.4-4.9c-2.2,0.1-4.5,0.4-6.5,1.4c-7.4,3.2-8.6,11.3-2.3,16.4
			c3.2,2.5,6.8,4.3,10.6,5.9c6.6,2.8,13.1,5.3,19.3,8.7c19.8,10.9,25.1,35.8,11.1,52.7c-5.1,6.1-11.5,10.3-19.2,12.3
			c-3.3,1-4.9,2.6-4.7,6.1c0.1,3.4,0,6.8,0,10.2c0,3.1-1.6,4.7-4.6,4.8c-3.7,0.1-7.3,0.1-11,0c-3.2-0.1-4.8-1.9-4.8-5
			c0-2.4,0-5-0.1-7.4c-0.1-5.5-0.2-5.7-5.5-6.6c-6.8-1.1-13.4-2.6-19.6-5.6C198.8,418.4,198.4,417.1,199.8,412z"/>
	</g>
</g>
</svg>
