<?xml version="1.0" encoding="utf-8"?>
<!-- Generator: Adobe Illustrator 18.1.1, SVG Export Plug-In . SVG Version: 6.00 Build 0)  -->
<svg version="1.1" id="Capa_1" xmlns="http://www.w3.org/2000/svg" xmlns:xlink="http://www.w3.org/1999/xlink" x="0px" y="0px"
	 viewBox="-49 141 512 512" enable-background="new -49 141 512 512" xml:space="preserve">
<g>
	<g>
		<path fill="#2F383E" d="M318.3,551.6c-32.8-21-38.4-48.7-37.2-68.4c0.9-15.6,5.6-29.3,13.8-40.8c-15.1-8.5-26.3-14.1-30.7-16.4
			c-1.4-0.6-2.2-2-2.2-3.5v-83.8c10.6-7,17.5-19,17.5-32.6v-86.9c0-43.2-35-78.2-78.2-78.2h-9.4h-9.3c-43.2,0-78.2,35-78.2,78.2
			v86.9c0,13.6,7,25.5,17.5,32.6v83.8c0,1.5-0.8,2.8-2.2,3.5c-11.8,5.8-69.8,35.1-123.6,79.3c-9.7,8-15.3,19.9-15.3,32.5v59.5h183.4
			l18.2-83c-36.6-51.1,2.7-53.5,9.6-53.6l0,0l0,0c6.9,0.1,46.2,2.5,9.6,53.6l18.2,83h60.9c0.3-1.3,0.6-2.4,0.8-3.4
			c1.8-6.5,3.5-12.6,5.4-18.7c1.1-3.5,2.7-8,6-12.3c5.5-7.3,13.8-11.5,22.8-11.5C316.5,551.4,317.4,551.5,318.3,551.6z"/>
		<path fill="#2F383E" d="M403.2,517.5c-9.7-5.4-20.1-9.5-30.4-13.7c-5.9-2.4-11.6-5.4-16.7-9.4c-9.9-7.9-8-20.7,3.6-25.8
			c3.3-1.4,6.6-1.9,10.2-2.1c13.4-0.7,26.2,1.7,38.3,7.6c6,3,8,2,10.1-4.3c2.1-6.6,4-13.4,5.9-20.2c1.3-4.5-0.3-7.5-4.5-9.4
			c-7.8-3.4-15.8-5.9-24.2-7.2c-11-1.7-11-1.8-11-12.8c-0.1-15.6-0.1-15.6-15.6-15.5c-2.2,0-4.5-0.1-6.8,0c-7.3,0.2-8.5,1.5-8.8,8.8
			c-0.1,3.3,0,6.5,0,9.9c0,9.7-0.1,9.6-9.4,13c-22.6,8.2-36.5,23.5-38,48.2c-1.4,21.7,10,36.5,28,47.2c11.1,6.6,23.2,10.6,34.9,15.6
			c4.5,2,8.9,4.3,12.8,7.5c11.3,9.3,9.2,24.7-4.1,30.5c-7.2,3.2-14.7,3.9-22.4,3c-11.9-1.5-23.4-4.6-34.1-10.2
			c-6.3-3.3-8.1-2.4-10.2,4.4c-1.9,5.9-3.5,11.8-5.1,17.8c-2.2,8-1.4,9.9,6.2,13.6c9.7,4.7,20.2,7.2,30.7,8.9
			c8.3,1.3,8.5,1.7,8.7,10.3c0,3.9,0.1,7.8,0.1,11.7c0.1,5,2.4,7.8,7.5,7.9c5.8,0.1,11.5,0.1,17.3,0c4.7-0.1,7.2-2.6,7.2-7.5
			c0-5.4,0.3-10.8,0-16c-0.2-5.5,2.1-8.2,7.4-9.6c12-3.3,22.3-9.7,30.2-19.4C442.7,573.8,434.4,534.7,403.2,517.5z"/>
	</g>
</g>
</svg>
