<?xml version="1.0" encoding="iso-8859-1"?>
<!-- Generator: Adobe Illustrator 19.1.0, SVG Export Plug-In . SVG Version: 6.00 Build 0)  -->
<svg xmlns="http://www.w3.org/2000/svg" xmlns:xlink="http://www.w3.org/1999/xlink" version="1.1" id="Capa_1" x="0px" y="0px" viewBox="0 0 485.075 485.075" style="enable-background:new 0 0 485.075 485.075;" xml:space="preserve" width="512px" height="512px">
<g>
	<g>
		<path d="M347.955,389c-31.1-19.9-36.4-46.1-35.2-64.8c0.9-14.8,5.3-27.8,13.1-38.7c-14.3-8.1-24.9-13.4-29.1-15.5    c-1.3-0.6-2.1-1.9-2.1-3.3v-79.4c10-6.6,16.6-18,16.6-30.9V74.1c0-40.9-33.2-74.1-74.1-74.1h-8.9h-8.8    c-40.9,0-74.1,33.2-74.1,74.1v82.3c0,12.9,6.6,24.2,16.6,30.9v79.4c0,1.4-0.8,2.7-2.1,3.3c-11.2,5.5-66.1,33.3-117.1,75.1    c-9.2,7.6-14.5,18.9-14.5,30.8v56.4h173.8l17.2-78.6c-34.7-48.4,2.6-50.7,9.1-50.8l0,0l0,0c6.5,0.1,43.8,2.4,9.1,50.8l17.2,78.6    h57.7c0.3-1.2,0.6-2.3,0.8-3.2c1.7-6.2,3.3-11.9,5.1-17.7c1-3.3,2.6-7.6,5.7-11.7c5.2-6.9,13.1-10.9,21.6-10.9    C346.255,388.8,347.155,388.9,347.955,389z" fill="#FFFFFF"/>
		<path d="M428.455,356.7c-9.2-5.1-19-9-28.8-13c-5.6-2.3-11-5.1-15.8-8.9c-9.4-7.5-7.6-19.6,3.4-24.4c3.1-1.3,6.3-1.8,9.7-2    c12.7-0.7,24.8,1.6,36.3,7.2c5.7,2.8,7.6,1.9,9.6-4.1c2-6.3,3.8-12.7,5.6-19.1c1.2-4.3-0.3-7.1-4.3-8.9c-7.4-3.2-15-5.6-22.9-6.8    c-10.4-1.6-10.4-1.7-10.4-12.1c-0.1-14.8-0.1-14.8-14.8-14.7c-2.1,0-4.3-0.1-6.4,0c-6.9,0.2-8.1,1.4-8.3,8.3c-0.1,3.1,0,6.2,0,9.4    c0,9.2-0.1,9.1-8.9,12.3c-21.4,7.8-34.6,22.3-36,45.7c-1.3,20.6,9.5,34.6,26.5,44.7c10.5,6.3,22,10,33.1,14.8    c4.3,1.9,8.4,4.1,12.1,7.1c10.7,8.8,8.7,23.4-3.9,28.9c-6.8,3-13.9,3.7-21.2,2.8c-11.3-1.4-22.2-4.4-32.3-9.7    c-6-3.1-7.7-2.3-9.7,4.2c-1.8,5.6-3.3,11.2-4.8,16.9c-2.1,7.6-1.3,9.4,5.9,12.9c9.2,4.5,19.1,6.8,29.1,8.4    c7.9,1.2,8.1,1.6,8.2,9.8c0,3.7,0.1,7.4,0.1,11.1c0.1,4.7,2.3,7.4,7.1,7.5c5.5,0.1,10.9,0.1,16.4,0c4.5-0.1,6.8-2.5,6.8-7.1    c0-5.1,0.3-10.2,0-15.2c-0.2-5.2,2-7.8,7-9.1c11.4-3.1,21.1-9.2,28.6-18.4C465.855,410,457.955,373,428.455,356.7z" fill="#FFFFFF"/>
	</g>
</g>
<g>
</g>
<g>
</g>
<g>
</g>
<g>
</g>
<g>
</g>
<g>
</g>
<g>
</g>
<g>
</g>
<g>
</g>
<g>
</g>
<g>
</g>
<g>
</g>
<g>
</g>
<g>
</g>
<g>
</g>
</svg>
