<?xml version="1.0" encoding="utf-8"?>
<!-- Generator: Adobe Illustrator 18.1.1, SVG Export Plug-In . SVG Version: 6.00 Build 0)  -->
<svg version="1.1" id="Capa_1" xmlns="http://www.w3.org/2000/svg" xmlns:xlink="http://www.w3.org/1999/xlink" x="0px" y="0px"
	 viewBox="-49 141 512 512" enable-background="new -49 141 512 512" xml:space="preserve">
<g>
	<g>
		<path fill="#2F383E" d="M137.6,236.6c0-4.7,3.8-8.5,8.5-8.5h121.8c4.7,0,8.5,3.8,8.5,8.5v33.8h39.5v-33.8
			c0-26.4-21.5-47.9-47.9-47.9H146.1c-26.4,0-47.9,21.5-47.9,47.9v33.8h39.5V236.6z"/>
		<rect x="223.4" y="461.5" fill="#2F383E" width="20.6" height="45.6"/>
		<rect x="170" y="384.9" fill="#2F383E" width="22.3" height="45.6"/>
		<path fill="#2F383E" d="M-20.8,605.4h455.6c15.6,0,28.2-12.6,28.2-28.2V315.5c0-15.6-12.6-28.2-28.2-28.2h-119h-39.5H137.6H98.2
			h-119c-15.6,0-28.2,12.6-28.2,28.2v261.6C-49,592.7-36.4,605.4-20.8,605.4z M139,369.4c0-8.6,6.9-15.5,15.5-15.5h37.8v-23.3
			c0-8.6,6.9-15.5,15.5-15.5c8.6,0,15.5,6.9,15.5,15.5v23.3h33c8.6,0,15.5,6.9,15.5,15.5c0,8.6-6.9,15.5-15.5,15.5h-32.9v45.6h36.1
			c8.6,0,15.5,6.9,15.5,15.5v76.6c0,0.6-0.1,1.2-0.1,1.9c-0.9,7.7-7.4,13.6-15.4,13.6h-36.1v23.3c0,2.2-0.5,4.3-1.3,6.2
			c-2.4,5.5-7.8,9.3-14.2,9.3c-6.4,0-11.8-3.8-14.2-9.3c-0.8-1.9-1.3-4-1.3-6.2V538h-34.5c-6.8,0-12.6-4.4-14.7-10.5
			c-0.6-1.6-0.8-3.3-0.8-5c0-8.6,6.9-15.5,15.5-15.5h34.5v-45.6h-37.8c-8.6,0-15.5-6.9-15.5-15.5L139,369.4L139,369.4z"/>
	</g>
</g>
</svg>
