<?xml version="1.0" encoding="iso-8859-1"?>
<!-- Generator: Adobe Illustrator 16.0.0, SVG Export Plug-In . SVG Version: 6.00 Build 0)  -->
<!DOCTYPE svg PUBLIC "-//W3C//DTD SVG 1.1//EN" "http://www.w3.org/Graphics/SVG/1.1/DTD/svg11.dtd">
<svg xmlns="http://www.w3.org/2000/svg" xmlns:xlink="http://www.w3.org/1999/xlink" version="1.1" id="Capa_1" x="0px" y="0px" width="512px" height="512px" viewBox="0 0 942.5 942.5" style="enable-background:new 0 0 942.5 942.5;" xml:space="preserve">
<g>
	<g>
		<path d="M612.8,50v49.2l156.7,156.7V50c0-27.6-22.399-50-50-50h-56.7C635.2,0,612.8,22.4,612.8,50z" fill="#FFFFFF"/>
		<path d="M61.9,469.6h111v422.9c0,27.6,22.4,50,50,50h496.701c27.6,0,50-22.4,50-50V469.6h111C902.9,469.6,914,442.7,898.3,426.9    L769.601,298.3L612.8,141.6L506.601,35.3C496.8,25.5,484,20.7,471.2,20.7c-12.8,0-25.6,4.9-35.4,14.6L44.2,427    C28.5,442.7,39.6,469.6,61.9,469.6z M471.2,428.3C590.3,428.3,686.9,524.9,686.9,644S590.3,859.6,471.2,859.6    c-119.1,0-215.7-96.6-215.7-215.699C255.5,524.8,352.1,428.3,471.2,428.3z" fill="#FFFFFF"/>
		<path d="M393.799,668.5H446.9v62.1H401c-13.8,0-25,11.2-25,25c0,13.801,11.2,25,25,25h45.9v31.9c0,13.8,11.2,25,25,25    c13.8,0,25-11.2,25-25v-31.9h50.7c13.8,0,25-11.199,25-25V643.5c0-13.8-11.2-25-25-25h-50.7v-62.1h42.5c13.8,0,25-11.2,25-25    c0-13.801-11.2-25-25-25h-42.5v-31.9c0-13.8-11.2-25-25-25c-13.8,0-25,11.2-25,25v31.9h-53.101c-13.8,0-25,11.199-25,25v112.1    C368.799,657.3,380,668.5,393.799,668.5z M496.9,668.5h25.7v62.1h-25.7V668.5z M418.799,556.4H446.9v62.1h-28.101V556.4z" fill="#FFFFFF"/>
	</g>
</g>
<g>
</g>
<g>
</g>
<g>
</g>
<g>
</g>
<g>
</g>
<g>
</g>
<g>
</g>
<g>
</g>
<g>
</g>
<g>
</g>
<g>
</g>
<g>
</g>
<g>
</g>
<g>
</g>
<g>
</g>
</svg>
