<?xml version="1.0" encoding="utf-8"?>
<!-- Generator: Adobe Illustrator 18.1.1, SVG Export Plug-In . SVG Version: 6.00 Build 0)  -->
<svg version="1.1" id="Capa_1" xmlns="http://www.w3.org/2000/svg" xmlns:xlink="http://www.w3.org/1999/xlink" x="0px" y="0px"
	 viewBox="-49 141 512 512" enable-background="new -49 141 512 512" xml:space="preserve">
<g>
	<g>
		<path fill="#2F383E" d="M283.9,168.2v26.7L369,280V168.2c0-15-12.2-27.2-27.2-27.2h-30.8C296.1,141,283.9,153.2,283.9,168.2z"/>
		<path fill="#2F383E" d="M-15.4,396.1h60.3v229.7c0,15,12.2,27.2,27.2,27.2h269.8c15,0,27.2-12.2,27.2-27.2V396.1h60.3
			c12.1,0,18.1-14.6,9.6-23.2L369.1,303l-85.2-85.1l-57.7-57.7c-5.3-5.3-12.3-7.9-19.2-7.9s-13.9,2.7-19.2,7.9L-25,373
			C-33.5,381.5-27.5,396.1-15.4,396.1z M207,373.7c64.7,0,117.2,52.5,117.2,117.2S271.7,608,207,608S89.8,555.5,89.8,490.8
			C89.8,426.1,142.3,373.7,207,373.7z"/>
		<path fill="#2F383E" d="M164.9,504.2h28.8v33.7h-24.9c-7.5,0-13.6,6.1-13.6,13.6c0,7.5,6.1,13.6,13.6,13.6h24.9v17.3
			c0,7.5,6.1,13.6,13.6,13.6c7.5,0,13.6-6.1,13.6-13.6v-17.3h27.5c7.5,0,13.6-6.1,13.6-13.6v-60.9c0-7.5-6.1-13.6-13.6-13.6h-27.5
			v-33.7H244c7.5,0,13.6-6.1,13.6-13.6c0-7.5-6.1-13.6-13.6-13.6h-23.1v-17.3c0-7.5-6.1-13.6-13.6-13.6c-7.5,0-13.6,6.1-13.6,13.6
			v17.3h-28.8c-7.5,0-13.6,6.1-13.6,13.6v60.9C151.3,498.1,157.4,504.2,164.9,504.2z M220.9,504.2h14v33.7h-14L220.9,504.2
			L220.9,504.2z M178.5,443.3h15.3V477h-15.3L178.5,443.3L178.5,443.3z"/>
	</g>
</g>
</svg>
