<?xml version="1.0" encoding="utf-8"?>
<!-- Generator: Adobe Illustrator 18.1.1, SVG Export Plug-In . SVG Version: 6.00 Build 0)  -->
<svg version="1.1" id="Capa_1" xmlns="http://www.w3.org/2000/svg" xmlns:xlink="http://www.w3.org/1999/xlink" x="0px" y="0px"
	 viewBox="-49 141 512 512" enable-background="new -49 141 512 512" xml:space="preserve">
<g>
	<g>
		<path fill="#2F383E" d="M460.1,328c-2.5-3.1-6.2-4.8-10.2-4.8h-49.8c-12.3-32.4-28.3-64.2-46.5-76.2c-63-41.4-230.1-41.4-293.1,0
			c-18.2,12-34.2,43.8-46.5,76.2h-49.8c-4,0-7.7,1.8-10.2,4.8c-2.5,3-3.5,7.1-2.7,10.9l7.4,35.8c1.3,6.1,6.6,10.4,12.8,10.4h14.8
			C-28,401.5-34.9,422.2-35,442.9c-0.1,25.6,9.6,48.7,27.4,65.1c0.2,0.2,0.4,0.3,0.6,0.5v50c0,10.8,8.8,19.7,19.7,19.7h46
			c10.9,0,19.7-8.8,19.7-19.7v-20.1h257.5v20.1c0,10.8,8.8,19.7,19.7,19.7h46c10.8,0,19.7-8.8,19.7-19.7v-49.1
			c18.9-17.3,27.9-41,28-64.7c0.1-21.4-7.1-42.9-22.2-59.7h15.7c6.2,0,11.6-4.4,12.8-10.5l7.4-35.8C463.5,335,462.6,331,460.1,328z
			 M82.1,279.7c50.2-33,199.6-33,249.8,0c9.8,6.4,22.3,32.3,33.8,63.9H48.3C59.8,312,72.3,286.2,82.1,279.7z M23.3,447.9
			c0-21.4,17.3-38.7,38.7-38.7c21.4,0,38.7,17.3,38.7,38.7c0,21.4-17.3,38.7-38.7,38.7C40.6,486.6,23.3,469.2,23.3,447.9z
			 M352.6,486.6c-21.4,0-38.7-17.3-38.7-38.7c0-21.4,17.3-38.7,38.7-38.7c21.4,0,38.7,17.3,38.7,38.7
			C391.3,469.2,373.9,486.6,352.6,486.6z"/>
	</g>
</g>
</svg>
