<?xml version="1.0" encoding="utf-8"?>
<!-- Generator: Adobe Illustrator 18.1.1, SVG Export Plug-In . SVG Version: 6.00 Build 0)  -->
<svg version="1.1" id="Capa_1" xmlns="http://www.w3.org/2000/svg" xmlns:xlink="http://www.w3.org/1999/xlink" x="0px" y="0px"
	 viewBox="-49 141 512 512" enable-background="new -49 141 512 512" xml:space="preserve">
<g>
	<g>
		<path fill="#2F383E" d="M186.6,418.8c22.8,0,43.8-8.1,59.2-22.7c15.9-15.1,24.7-36.4,24.7-59.8c0-51.6-76.5-114.2-79.7-116.9
			c-2.4-2-5.9-2-8.3,0c-3.3,2.6-79.7,65.3-79.7,116.9c0,23.5,8.8,44.7,24.7,59.8C142.9,410.7,163.9,418.8,186.6,418.8z M128.9,341.5
			c1.8-0.6,3.8,0.3,4.6,2.1c4.7,10.7,11.2,20.2,19.4,28.2c7.5,7.3,16.2,13.2,25.9,17.6c1.8,0.8,2.7,2.8,2.1,4.7
			c-0.5,1.7-2,2.8-3.7,2.8c-0.2,0-0.4,0-0.7-0.1c-12.6-2.2-23.9-8-32.7-16.6c-9.3-9-15.4-20.9-17.7-34.4
			C125.9,344,127.1,342.1,128.9,341.5z"/>
		<path fill="#2F383E" d="M458.4,455.4c-34.3-6.6-66.9-11.3-99.6-14.3c-6.5-0.6-13.1-0.9-19.6-0.9c-42.5,0-77.3,12.3-110.9,24.1
			c-9.5,3.3-23.3,6.7-37.9,10.2c-21.4,5.2-43.5,10.5-53.9,16.4c-9.4,5.3-13,11.8-10.6,19.4c3.5,11,18.2,15.8,47.5,15.8
			c19.6,0,43.7-2.2,69.3-4.5c4.1-0.4,8.3-0.7,12.5-1.1c-35,9.4-64.9,14.2-88.9,14.2c-27.6,0-45.6-6.4-50.7-18.1
			c-3.6-8.2-0.2-18.6,9.6-29.2l1.5-1.6l-2.1-0.5c-1.1-0.3-107.8-26.6-128.3-31.1c-4.5-1-9.1-1.5-13.6-1.5
			c-16.3,0-29.5,6.5-31.4,15.4c-0.9,4.3,0.1,12.7,17.9,20.9l156,65.7c5.2,1.9,10.6,4.2,16.2,6.5c17.3,7.2,35.2,14.7,51.9,14.7
			c6.9,0,13.6-0.7,20.3-2.2c12.1-2.7,42.6-11.7,74.9-21.3c31.4-9.3,63.9-18.9,76.9-21.9c10.2-2.3,20.7-3.4,32.2-3.4
			c19.7,0,39.1,3.3,58.8,7l6.7,1.3v-79.3L458.4,455.4z"/>
	</g>
</g>
</svg>
