<?xml version="1.0" encoding="iso-8859-1"?>
<!-- Generator: Adobe Illustrator 16.0.0, SVG Export Plug-In . SVG Version: 6.00 Build 0)  -->
<!DOCTYPE svg PUBLIC "-//W3C//DTD SVG 1.1//EN" "http://www.w3.org/Graphics/SVG/1.1/DTD/svg11.dtd">
<svg xmlns="http://www.w3.org/2000/svg" xmlns:xlink="http://www.w3.org/1999/xlink" version="1.1" id="Capa_1" x="0px" y="0px" width="512px" height="512px" viewBox="0 0 405.986 405.986" style="enable-background:new 0 0 405.986 405.986;" xml:space="preserve">
<g>
	<g>
		<path d="M186.847,220.26c18.047,0,34.709-6.387,46.918-17.985c12.621-11.991,19.569-28.833,19.569-47.429    c0-40.916-60.626-90.563-63.207-92.656c-1.912-1.551-4.65-1.551-6.563,0c-2.58,2.094-63.207,51.74-63.207,92.656    c0,18.596,6.949,35.438,19.568,47.429C152.137,213.873,168.801,220.26,186.847,220.26z M141.07,158.996    c1.459-0.461,3.023,0.268,3.648,1.697c3.715,8.492,8.895,16.012,15.395,22.35c5.949,5.803,12.863,10.498,20.551,13.955    c1.4,0.631,2.123,2.236,1.684,3.742c-0.391,1.333-1.584,2.213-2.896,2.213c-0.172,0-0.346-0.017-0.52-0.047    c-9.98-1.773-18.953-6.316-25.945-13.14c-7.348-7.164-12.191-16.594-14.01-27.266C138.713,160.958,139.611,159.455,141.07,158.996    z" fill="#FFFFFF"/>
		<path d="M402.341,249.306c-27.2-5.271-53.046-8.969-79.012-11.306c-5.163-0.465-10.392-0.7-15.542-0.7    c-33.736,0-61.283,9.725-87.926,19.13c-7.507,2.65-18.473,5.3-30.083,8.106c-16.946,4.096-34.469,8.331-42.732,12.998    c-7.484,4.228-10.303,9.39-8.376,15.345c2.81,8.686,14.416,12.559,37.631,12.559c15.517,0,34.684-1.723,54.975-3.547    c3.261-0.293,6.576-0.591,9.918-0.886c-27.75,7.471-51.425,11.255-70.485,11.255c-21.89,0-36.169-5.086-40.207-14.324    c-2.852-6.524-0.151-14.734,7.606-23.116l1.151-1.244l-1.645-0.406c-0.853-0.211-85.483-21.107-101.709-24.666    c-3.578-0.785-7.212-1.183-10.801-1.183c-12.894,0-23.373,5.122-24.916,12.18c-0.746,3.41,0.105,10.096,14.211,16.575    l123.708,52.1c4.13,1.526,8.372,3.292,12.863,5.16c13.735,5.716,27.938,11.627,41.135,11.626c5.491,0,10.746-0.572,16.064-1.748    c9.577-2.119,33.763-9.283,59.367-16.867c24.925-7.383,50.7-15.018,61.012-17.339c8.093-1.821,16.434-2.707,25.499-2.707    c15.629,0,30.966,2.628,46.61,5.556l5.328,0.997V250.01L402.341,249.306z" fill="#FFFFFF"/>
	</g>
</g>
<g>
</g>
<g>
</g>
<g>
</g>
<g>
</g>
<g>
</g>
<g>
</g>
<g>
</g>
<g>
</g>
<g>
</g>
<g>
</g>
<g>
</g>
<g>
</g>
<g>
</g>
<g>
</g>
<g>
</g>
</svg>
