<?xml version="1.0" encoding="utf-8"?>
<!-- Generator: Adobe Illustrator 18.1.1, SVG Export Plug-In . SVG Version: 6.00 Build 0)  -->
<svg version="1.1" id="Capa_1" xmlns="http://www.w3.org/2000/svg" xmlns:xlink="http://www.w3.org/1999/xlink" x="0px" y="0px"
	 viewBox="-49 141 512 512" enable-background="new -49 141 512 512" xml:space="preserve">
<path fill="#2F383E" d="M455.8,550l-45.5-78.9c22-5,29.4-24.4,16.2-47.4l-54.3-94c28.6-1.4,39.9-22.7,25-48.5L327.9,161
	c-15.4-26.7-40.6-26.7-56,0l-69.4,120.1c-14.9,25.8-3.6,47.1,25,48.5l-54.3,94c-13.3,23-5.8,42.3,16.2,47.3l-18.3,31.6L90.6,287.3
	c-10.8-28.9-28.4-28.9-39.2,0L-45.1,546c-10.8,28.9,5.6,52.9,36.4,52.9h61v36.6c0,9.6,8.5,17.4,18.2,17.4c9.6,0,18.2-7.8,18.2-17.4
	v-36.6h193.9v36.6c0,9.6,7.7,17.4,17.3,17.4s17.3-7.8,17.3-17.4v-36.6h110.6C458.6,598.9,471.2,576.7,455.8,550z"/>
</svg>
