<?xml version="1.0" encoding="iso-8859-1"?>
<!-- Generator: Adobe Illustrator 17.1.0, SVG Export Plug-In . SVG Version: 6.00 Build 0)  -->
<!DOCTYPE svg PUBLIC "-//W3C//DTD SVG 1.1//EN" "http://www.w3.org/Graphics/SVG/1.1/DTD/svg11.dtd">
<svg xmlns="http://www.w3.org/2000/svg" xmlns:xlink="http://www.w3.org/1999/xlink" version="1.1" id="Capa_1" x="0px" y="0px" viewBox="0 0 295.762 295.762" style="enable-background:new 0 0 295.762 295.762;" xml:space="preserve" width="512px" height="512px">
<path d="M291.605,236.272l-26.27-45.605c12.685-2.873,17.008-14.105,9.352-27.368l-31.346-54.32  c16.517-0.811,23.031-13.104,14.428-28.007l-40.066-69.404c-8.903-15.421-23.474-15.424-32.377-0.004l-40.068,69.398  c-8.604,14.902-2.089,27.183,14.429,27.992l-31.346,54.294c-7.657,13.262-3.334,24.441,9.35,27.314l-10.555,18.281L80.657,84.51  c-6.235-16.68-16.433-16.678-22.661,0.005L2.272,233.98c-6.229,16.682,3.245,30.542,21.052,30.542h35.214v21.162  c0,5.565,4.935,10.077,10.5,10.077s10.5-4.512,10.5-10.077v-21.162h112v21.162c0,5.565,4.435,10.077,10,10.077  c5.565,0,10-4.512,10-10.077v-21.162h63.88C293.224,264.522,300.508,251.694,291.605,236.272z" fill="#FFFFFF"/>
<g>
</g>
<g>
</g>
<g>
</g>
<g>
</g>
<g>
</g>
<g>
</g>
<g>
</g>
<g>
</g>
<g>
</g>
<g>
</g>
<g>
</g>
<g>
</g>
<g>
</g>
<g>
</g>
<g>
</g>
</svg>
