<?xml version="1.0" encoding="utf-8"?>
<!-- Generator: Adobe Illustrator 18.1.1, SVG Export Plug-In . SVG Version: 6.00 Build 0)  -->
<svg version="1.1" id="Capa_1" xmlns="http://www.w3.org/2000/svg" xmlns:xlink="http://www.w3.org/1999/xlink" x="0px" y="0px"
	 viewBox="-49 141 512 512" enable-background="new -49 141 512 512" xml:space="preserve">
<g>
	<path fill="#2F383E" d="M315.9,283.8c-36.3-59.9-76.7-111.8-97.5-137.4c-2.8-3.4-7-5.4-11.4-5.4c-4.4,0-8.6,2-11.4,5.4
		c-20.8,25.6-61.2,77.5-97.5,137.4C51.3,361,27.6,424.9,27.6,473.6C27.6,572.5,108.1,653,207,653s179.4-80.5,179.4-179.4
		C386.4,424.9,362.7,361,315.9,283.8z M231.6,586.9c-10.5,2.7-21.4,4-32.3,4c-67,0-121.6-50.7-121.6-112.9c0-15,4-32.6,11.8-52.2
		c1.3-3.3,5.1-5.2,8.8-4.4c3.7,0.8,6.2,4,5.8,7.5c-0.5,4.2-0.7,8.3-0.7,12.2c0,67.8,54.6,124.5,127,132c3.6,0.4,6.4,3.1,6.7,6.4
		C237.4,582.9,235.1,586,231.6,586.9z"/>
</g>
</svg>
