<?xml version="1.0" encoding="utf-8"?>
<!-- Generator: Adobe Illustrator 18.1.1, SVG Export Plug-In . SVG Version: 6.00 Build 0)  -->
<svg version="1.1" id="Capa_1" xmlns="http://www.w3.org/2000/svg" xmlns:xlink="http://www.w3.org/1999/xlink" x="0px" y="0px"
	 viewBox="-49 141 512 512" enable-background="new -49 141 512 512" xml:space="preserve">
<g>
	<g>
		<path fill="#2F383E" d="M420.6,277.1H-6.6c-5.9,0-10.7,4.8-10.7,10.7v51.6c0,5.9,4.8,10.7,10.7,10.7H4.5l32.9,176.2
			c-19.8,12-33,33.7-33,58.5C4.4,622.3,35,653,72.7,653s68.3-30.7,68.3-68.3c0-1.9-0.1-3.8-0.3-5.7h132.5c-0.2,1.9-0.3,3.8-0.3,5.7
			c0,37.7,30.7,68.3,68.3,68.3s68.3-30.7,68.3-68.3c0-24.8-13.2-46.5-33-58.5L409.5,350h11.1c5.9,0,10.7-4.8,10.7-10.7v-51.6
			C431.2,281.9,426.4,277.1,420.6,277.1z M72.7,610.3c-14.1,0-25.6-11.5-25.6-25.6c0-14.1,11.5-25.6,25.6-25.6
			c14.1,0,25.6,11.5,25.6,25.6C98.3,598.8,86.8,610.3,72.7,610.3z M341.3,610.3c-14.1,0-25.6-11.5-25.6-25.6
			c0-14.1,11.5-25.6,25.6-25.6c14.1,0,25.6,11.5,25.6,25.6C366.9,598.8,355.4,610.3,341.3,610.3z"/>
		<path fill="#2F383E" d="M364.7,201.1c-0.2-0.4-0.6-0.8-1-1.1l-25.6-16.1c-1.2-0.7-2.7-0.5-3.6,0.5l-5.7,6.3l-5.7-19.2
			c-0.2-0.6-0.5-1.1-1-1.5l-32.4-24.6c-0.8-0.6-1.9-0.8-2.8-0.3L257,157.9l-33.9,5.5l-29.3-14.3c-0.1-0.1-0.2-0.1-0.4-0.2l-24.2-7.8
			c-0.9-0.3-1.8-0.1-2.6,0.4l-21.3,15.8l-27.5-0.9c-0.6,0-1.2,0.2-1.7,0.5l-29.9,20.9c-0.8,0.5-1.2,1.4-1.2,2.3v9.3l-19.6,16.2
			c-0.1,0.1-0.2,0.1-0.2,0.2l-40.1,41.5l364.3,0.2L364.7,201.1z"/>
	</g>
</g>
</svg>
