<?xml version="1.0" encoding="utf-8"?>
<!-- Generator: Adobe Illustrator 18.1.1, SVG Export Plug-In . SVG Version: 6.00 Build 0)  -->
<svg version="1.1" id="Capa_1" xmlns="http://www.w3.org/2000/svg" xmlns:xlink="http://www.w3.org/1999/xlink" x="0px" y="0px"
	 viewBox="-49 141 512 512" enable-background="new -49 141 512 512" xml:space="preserve">
<g>
	<g>
		<path fill="#2F383E" d="M114,354l98.1-98.1l-94.8-14.4c-10.4-1.6-19.3,7.4-17.7,17.7L114,354z"/>
		<path fill="#2F383E" d="M276,572.9c-16.7,7.1-33.9,12.3-51.4,15.8l-51.7,46.1c-7.1,6.3-2.6,18.1,6.9,18.1h197.6
			c8.6,0,15.6-7,15.6-15.6V476.6c-9.5,14.1-20.4,27.2-32.5,39.4C336,540.4,307.6,559.5,276,572.9z"/>
		<path fill="#2F383E" d="M355.3,169.3c-3.1-3.5-7.4-5.3-11.8-5.3c-4,0-8,1.5-11,4.6l-91.8,91.8L118.4,382.7L12.9,488.2
			c-6.4,6.4-6,16.8,0.8,22.8c42.5,37.1,98.2,59.6,159,59.6c33.1,0,64.6-6.7,93.4-18.7c50-20.9,91.5-58.2,117.9-105.1
			c19.7-35,30.9-75.4,30.9-118.4C414.9,267.5,392.4,211.8,355.3,169.3z"/>
		<path fill="#2F383E" d="M114.1,214.2c11.2,0,21.7,4.4,29.6,12.3c4.6,4.6,12,4.6,16.5,0c4.6-4.6,4.6-12,0-16.5
			c-12.3-12.3-28.7-19.1-46.1-19.1c-35.9,0-65.2,29.2-65.2,65.2c0,17.4,6.8,33.8,19.1,46.1c2.3,2.3,5.3,3.4,8.3,3.4s6-1.1,8.3-3.4
			c4.6-4.6,4.6-12,0-16.5c-7.9-7.9-12.3-18.4-12.3-29.6C72.3,232.9,91.1,214.2,114.1,214.2z"/>
		<path fill="#2F383E" d="M40.4,336.7c3,0,6-1.1,8.3-3.4c4.6-4.6,4.6-12,0-16.5c-16.9-16.9-26.2-39.3-26.2-63.1
			c0-49.2,40.1-89.3,89.3-89.3c23.9,0,46.3,9.3,63.1,26.2c4.6,4.6,12,4.6,16.5,0c4.6-4.6,4.6-12,0-16.5c-21.3-21.3-49.6-33-79.7-33
			c-30.1,0-58.4,11.7-79.7,33s-33,49.6-33,79.7c0,30.1,11.7,58.4,33,79.7C34.4,335.6,37.4,336.7,40.4,336.7z"/>
	</g>
</g>
</svg>
