<?xml version="1.0" encoding="iso-8859-1"?>
<!-- Generator: Adobe Illustrator 18.1.1, SVG Export Plug-In . SVG Version: 6.00 Build 0)  -->
<svg xmlns="http://www.w3.org/2000/svg" xmlns:xlink="http://www.w3.org/1999/xlink" version="1.1" id="Capa_1" x="0px" y="0px" viewBox="0 0 611.999 611.999" style="enable-background:new 0 0 611.999 611.999;" xml:space="preserve" width="512px" height="512px">
<g>
	<g>
		<path d="M194.84,254.637l117.295-117.295L198.831,120.14c-12.402-1.883-23.076,8.792-21.193,21.193L194.84,254.637z" fill="#FFFFFF"/>
		<path d="M388.511,516.293c-19.922,8.436-40.467,14.752-61.48,18.924l-61.826,55.115c-8.509,7.586-3.144,21.669,8.256,21.669    h236.204c10.278,0,18.611-8.333,18.611-18.611V401.134c-11.354,16.822-24.347,32.568-38.9,47.121    C460.228,477.402,426.293,500.294,388.511,516.293z" fill="#FFFFFF"/>
		<path d="M483.292,33.806c-3.697-4.241-8.867-6.389-14.048-6.389c-4.749,0-9.508,1.803-13.155,5.45L346.411,142.546    L200.044,288.912L73.988,414.969c-7.626,7.627-7.191,20.116,0.939,27.203c50.854,44.334,117.347,71.185,190.111,71.185    c39.538,0,77.24-7.96,111.595-22.357c59.747-25.038,109.362-69.553,140.869-125.576c23.54-41.856,36.976-90.132,36.976-141.507    C554.477,151.153,527.626,84.66,483.292,33.806z" fill="#FFFFFF"/>
		<path d="M194.98,87.453c13.356,0,25.913,5.201,35.358,14.645c5.451,5.45,14.289,5.45,19.74-0.001    c5.451-5.451,5.45-14.289-0.001-19.74c-14.718-14.716-34.285-22.821-55.097-22.821c-42.967,0-77.923,34.957-77.923,77.923    c0,20.815,8.106,40.384,22.824,55.101c2.725,2.725,6.297,4.088,9.869,4.088s7.145-1.363,9.87-4.089    c5.451-5.451,5.451-14.289-0.001-19.739c-9.446-9.445-14.647-22.003-14.647-35.361C144.973,109.886,167.406,87.453,194.98,87.453z    " fill="#FFFFFF"/>
		<path d="M106.833,233.962c3.572,0,7.145-1.363,9.87-4.089c5.451-5.451,5.45-14.289-0.001-19.739    c-20.161-20.16-31.264-46.966-31.264-75.478C85.437,75.8,133.321,27.916,192.177,27.916c28.509,0,55.313,11.102,75.472,31.26    c5.451,5.451,14.289,5.45,19.739-0.001c5.451-5.451,5.451-14.289-0.001-19.739C261.956,14.005,228.143,0,192.177,0    c-35.969,0-69.783,14.007-95.216,39.439s-39.439,59.248-39.439,95.216c0,35.969,14.007,69.785,39.442,95.218    C99.689,232.599,103.261,233.962,106.833,233.962z" fill="#FFFFFF"/>
	</g>
</g>
<g>
</g>
<g>
</g>
<g>
</g>
<g>
</g>
<g>
</g>
<g>
</g>
<g>
</g>
<g>
</g>
<g>
</g>
<g>
</g>
<g>
</g>
<g>
</g>
<g>
</g>
<g>
</g>
<g>
</g>
</svg>
