<?xml version="1.0" encoding="utf-8"?>
<!-- Generator: Adobe Illustrator 18.1.1, SVG Export Plug-In . SVG Version: 6.00 Build 0)  -->
<svg version="1.1" id="Capa_1" xmlns="http://www.w3.org/2000/svg" xmlns:xlink="http://www.w3.org/1999/xlink" x="0px" y="0px"
	 viewBox="-49 141 512 512" enable-background="new -49 141 512 512" xml:space="preserve">
<g>
	<g id="iconos_35_">
		<path fill="#2F383E" d="M127.6,532.1c0-35.3-28.6-64-64-64c-35.3,0-64,28.7-64,64c0,35.4,28.7,64,64,64
			C98.9,596.1,127.6,567.5,127.6,532.1z M42.4,532.1c0-11.7,9.5-21.1,21.1-21.1s21.2,9.5,21.2,21.1c0,11.7-9.5,21.1-21.2,21.1
			C51.9,553.3,42.4,543.8,42.4,532.1z"/>
		<path fill="#2F383E" d="M280.1,316.7v130.6c0,0,3.5-0.9,21.1-0.9c39.3,0,59.2,19.3,68.8,34.2c5-5.2,12-8.5,19.8-8.5h64v-96
			L415,316.7H280.1z M426.4,417.3h-73.1v-73.1h54.9l18.3,29.1V417.3z"/>
		<path fill="#2F383E" d="M-22.1,408.2c0,0,150.9,28,170.9,100.6h69.1c0,0,8.6-45.7,44-58.3v-152h160.9l26.6-36.6H243.6l-25.1,54.9
			H-49v36.6h27.4L-22.1,408.2z"/>
		<path fill="#2F383E" d="M389.9,490.4c-4.3,0-7.7,3-8.7,6.9c-0.2,0.7-0.4,1.4-0.4,2.2v18.3c0,5,4.1,9.1,9.1,9.1h64
			c5,0,9.1-4.1,9.1-9.1v-18.3c0-5-4.1-9.1-9.1-9.1H389.9z"/>
		<path fill="#2F383E" d="M365.3,532.1c0-0.9-0.1-1.7-0.1-2.6c-0.2-5.7-1.1-11.2-2.7-16.4c-8.1-26.1-32.4-45.1-61.1-45.1
			c-35.4,0-64,28.7-64,64c0,35.4,28.6,64,64,64S365.3,567.5,365.3,532.1z M280.1,532.1c0-11.7,9.5-21.1,21.1-21.1
			c11.7,0,21.2,9.5,21.2,21.1c0,11.7-9.5,21.1-21.2,21.1C289.6,553.3,280.1,543.8,280.1,532.1z"/>
		<polygon fill="#2F383E" points="222.2,257.5 212.7,234.4 185.3,234.4 161.3,197.9 125.9,197.9 88.1,243.6 59.2,243.6 33.3,271 
			13.5,271 -17,298.4 202.4,298.4 		"/>
	</g>
</g>
</svg>
