<?xml version="1.0" encoding="utf-8"?>
<!-- Generator: Adobe Illustrator 18.1.1, SVG Export Plug-In . SVG Version: 6.00 Build 0)  -->
<svg version="1.1" id="Capa_1" xmlns="http://www.w3.org/2000/svg" xmlns:xlink="http://www.w3.org/1999/xlink" x="0px" y="0px"
	 viewBox="-49 141 512 512" enable-background="new -49 141 512 512" xml:space="preserve">
<g>
	<g>
		<path fill="#2F383E" d="M310.8,286h44.9l-66.5-114.2c-5.4-9.2-17.2-12.4-26.5-6.9c-9.2,5.4-12.4,17.2-6.9,26.5L310.8,286z"/>
		<path fill="#2F383E" d="M158.5,191.4c5.4-9.2,2.3-21.1-6.9-26.5s-21.1-2.3-26.5,6.9L58.5,286.1h44.9L158.5,191.4z"/>
		<path fill="#2F383E" d="M430,321H-16.1c-18.2,0-32.9,14.7-32.9,32.9v36.5c0,18.2,14.7,32.9,32.9,32.9h10.3l31.7,172.1
			c4,20.3,22.5,36.4,41.7,36.4h12.6h82.8c8.4,0,19.3,0,30.5,0l0,0h10.1h10.1l0,0c11.1,0,22.1,0,30.5,0h82.8h12.6
			c19.2,0,37.7-16.1,41.7-36.4l32-172.2h16.7c18.2,0,32.9-14.7,32.9-32.9v-36.5C462.9,335.7,448.2,321,430,321z M132.6,493v74.2
			c0,10.6-8.6,18.6-18.6,18.6c-10.6,0-18.6-8.6-18.6-18.6v-31.1v-72.9c0-10.6,8.6-18.6,18.6-18.6c10.6,0,18.6,8.6,18.6,18.6V493z
			 M192.3,493v74.2c0,10.6-8.6,18.6-18.6,18.6c-10.6,0-18.6-8.6-18.6-18.6v-31.1v-72.9c0-10.6,8.6-18.6,18.6-18.6
			c10,0,18.6,8.6,18.6,18.6V493z M252.4,536.1v31.1c0,10-8,18.6-18.6,18.6c-10,0-18.6-8-18.6-18.6V493v-29.9
			c0-10,8.6-18.6,18.6-18.6c10,0,18.6,8,18.6,18.6V536.1z M312.1,536.1v31.1c0,10-8,18.6-18.6,18.6c-10,0-18.6-8-18.6-18.6V493
			v-29.9c0-10,8-18.6,18.6-18.6c10,0,18.6,8,18.6,18.6V536.1z"/>
	</g>
</g>
</svg>
