<?xml version="1.0" encoding="utf-8"?>
<!-- Generator: Adobe Illustrator 18.1.1, SVG Export Plug-In . SVG Version: 6.00 Build 0)  -->
<svg version="1.1" id="Capa_1" xmlns="http://www.w3.org/2000/svg" xmlns:xlink="http://www.w3.org/1999/xlink" x="0px" y="0px"
	 viewBox="-49 141 512 512" enable-background="new -49 141 512 512" xml:space="preserve">
<g>
	<g>
		<path fill="#2F383E" d="M355.6,354.6h-22.8c-4.7,0-9.2,0.5-13.7,1.3v-51.4c0-2.8-0.3-5.5-0.8-8.2c15-11.1,24.8-28.7,24.8-48.7
			c0-37.2-34.3-67.1-72-59.6c-12.5-13.1-30.3-20.6-48.6-19.6c-11.7-16.9-31.2-27.4-51.9-27.4c-16.9,0-32.8,6.7-44.5,18.3
			c-3.1-1.3-6.3-2.3-9.6-3l-4.1-0.8c-3.1-0.5-6.3-0.8-9.5-0.8c-4.7-0.4-9.3-0.3-13.7,0h-1.2v0.1c-26.8,2.7-49.4,18.6-58.3,40.7
			c-26.4,5-46.3,28.2-46.3,55.9c0,19.4,9.7,36.4,24.5,46.7c-0.3,2.1-0.6,4.1-0.6,6.3V612c0,22.6,18.4,41,41,41h230
			c22.6,0,41-18.4,41-41v-62.8c4.4,0.8,9,1.3,13.7,1.3h22.8c41.4,0,75.2-33.8,75.2-75.2v-45.5C430.8,388.3,397.1,354.6,355.6,354.6z
			 M291.8,612c0,7.5-6.1,13.7-13.7,13.7h-230c-7.5,0-13.7-6.1-13.7-13.7V304.5c0-7.5,6.1-13.7,13.7-13.7h230
			c7.6,0,13.7,6.1,13.7,13.7L291.8,612L291.8,612z M304,272.9L304,272.9c-7-5.8-16-9.4-25.8-9.4h-230c-10.4,0-19.8,4-27.1,10.4
			c-6.4-5.4-10.5-13.4-10.5-22.4c0-16.3,13.2-29.5,29.5-29.6l11.2,0l2.2-11c2.5-12.8,15.9-26.4,36.3-28.8h15.1
			c6.1,0.4,12,2.4,17.2,5.8l11.3,7.5l7.6-11.2c6.7-9.9,17.8-15.9,29.8-15.9c13.9,0,26.2,7.9,32.3,20.6l4.6,9.7l10.5-2.1
			c14.3-2.9,28.8,3.1,36.9,14.9l6,8.8l10-3.7c4-1.5,7.8-2.2,11.5-2.2c18.4,0,33.4,15,33.4,33.4C315.8,257.8,311.1,266.8,304,272.9z
			 M389.8,475.3c0,18.8-15.3,34.2-34.2,34.2h-22.8c-4.9,0-9.5-1-13.7-2.9V398.5c4.2-1.8,8.8-2.9,13.7-2.9h22.8
			c18.8,0,34.2,15.3,34.2,34.2V475.3z"/>
		<rect x="48.1" y="340.9" fill="#2F383E" width="230.1" height="271.1"/>
	</g>
</g>
</svg>
