<?xml version="1.0" encoding="iso-8859-1"?>
<!-- Generator: Adobe Illustrator 19.0.0, SVG Export Plug-In . SVG Version: 6.00 Build 0)  -->
<svg xmlns="http://www.w3.org/2000/svg" xmlns:xlink="http://www.w3.org/1999/xlink" version="1.1" id="Capa_1" x="0px" y="0px" viewBox="0 0 489.6 489.6" style="enable-background:new 0 0 489.6 489.6;" xml:space="preserve" width="512px" height="512px">
<g>
	<g>
		<g>
			<rect x="211.8" width="64.9" height="64.1" fill="#FFFFFF"/>
			<path d="M244.4,181.5c19.4,0,36.1,11.7,45.1,29.1c5.8-12.4,11.7-30.7,10.1-52.8c-13.6-22.1-21.4-47.4-22.5-73.4h-65.3     c-1.6,26-9.3,50.9-22.5,73.1c-1.6,22.5,4.3,40.8,10.1,53.2C208.3,193.1,225,181.5,244.4,181.5z" fill="#FFFFFF"/>
			<path d="M318.2,184.6c-4.3,26.8-21.8,54.4-21.8,54.8c0,31.9-23.3,57.9-52.1,57.9s-52.1-26-52.1-57.9c0-0.8-17.1-28.4-21.4-55.2     c-15.2,24.5-22.9,52.8-22.9,82v197.4c0,14.4,11.7,26,26,26h141.8c14.4,0,26-11.7,26-26V266.2C341.2,237.4,333,209.1,318.2,184.6z     " fill="#FFFFFF"/>
		</g>
	</g>
</g>
<g>
</g>
<g>
</g>
<g>
</g>
<g>
</g>
<g>
</g>
<g>
</g>
<g>
</g>
<g>
</g>
<g>
</g>
<g>
</g>
<g>
</g>
<g>
</g>
<g>
</g>
<g>
</g>
<g>
</g>
</svg>
