<?xml version="1.0" encoding="utf-8"?>
<!-- Generator: Adobe Illustrator 18.1.1, SVG Export Plug-In . SVG Version: 6.00 Build 0)  -->
<svg version="1.1" id="Capa_1" xmlns="http://www.w3.org/2000/svg" xmlns:xlink="http://www.w3.org/1999/xlink" x="0px" y="0px"
	 viewBox="-49 141 512 512" enable-background="new -49 141 512 512" xml:space="preserve">
<g>
	<g>
		<g>
			<rect x="172.5" y="141" fill="#2F383E" width="67.9" height="67"/>
			<path fill="#2F383E" d="M206.6,330.8c20.3,0,37.8,12.2,47.2,30.4c6.1-13,12.2-32.1,10.6-55.2c-14.2-23.1-22.4-49.6-23.5-76.8
				h-68.3c-1.7,27.2-9.7,53.2-23.5,76.4c-1.7,23.5,4.5,42.7,10.6,55.6C168.8,342.9,186.3,330.8,206.6,330.8z"/>
			<path fill="#2F383E" d="M283.8,334c-4.5,28-22.8,56.9-22.8,57.3c0,33.4-24.4,60.5-54.5,60.5S152,424.7,152,391.4
				c0-0.8-17.9-29.7-22.4-57.7c-15.9,25.6-23.9,55.2-23.9,85.8v206.4c0,15.1,12.2,27.2,27.2,27.2h148.3c15.1,0,27.2-12.2,27.2-27.2
				V419.4C307.8,389.3,299.2,359.7,283.8,334z"/>
		</g>
	</g>
</g>
</svg>
