<?xml version="1.0" encoding="iso-8859-1"?>
<!-- Generator: Adobe Illustrator 19.0.0, SVG Export Plug-In . SVG Version: 6.00 Build 0)  -->
<svg xmlns="http://www.w3.org/2000/svg" xmlns:xlink="http://www.w3.org/1999/xlink" version="1.1" id="Capa_1" x="0px" y="0px" viewBox="0 0 489.6 489.6" style="enable-background:new 0 0 489.6 489.6;" xml:space="preserve" width="512px" height="512px">
<g>
	<g>
		<g>
			<path d="M196.8,451.1c-42.4,0-76.9,17.1-76.9,38.5h153.9C273.7,468.2,239.6,451.1,196.8,451.1z" fill="#FFFFFF"/>
			<path d="M381.8,106.1c0-5.4-4.3-10.1-10.1-10.1H21.9c-5.4,0-10.1,4.3-10.1,10.1c0,19.4,3.1,38.9,9.3,57.5     C46.4,239.7,116.8,291,196.8,291s150.4-50.9,175.6-127.1C378.7,144.9,381.8,125.9,381.8,106.1z M355.7,150.8H38.3     c-3.1-11.3-5.1-22.9-5.8-34.6h329.1C360.8,127.8,358.8,139.5,355.7,150.8z" fill="#FFFFFF"/>
			<path d="M215.5,310.1v122.4c-13.5-0.8-22.8-1.4-37.3,0V310.1C192.6,311.5,201.9,310.9,215.5,310.1z" fill="#FFFFFF"/>
			<path d="M392.7,165.9c5.8-1.9,11.3-4.7,16.3-8.5l-11.3-11.3C396.2,152.7,394.6,159.3,392.7,165.9z" fill="#FFFFFF"/>
			<path d="M315.7,76.2h12l-7.4-7.4C318.4,71.1,316.9,73.8,315.7,76.2z" fill="#FFFFFF"/>
			<path d="M371.7,0c-48.2,0-89,32.3-101.8,76.2H294c2.7-7.4,6.6-14.4,11.3-20.6c2.3-3.1,5.8-5.4,9.3-6.6c1.2-3.9,3.5-7,6.6-9.3     c11.7-8.5,25.3-14.4,39.2-16.3c3.9-0.4,7.8,0.4,11.3,1.9c3.1-1.6,7-2.3,11.3-1.9c14.4,1.9,28,7.4,39.2,16.3     c3.1,2.3,5.4,5.8,6.6,9.3c3.9,1.2,7,3.5,9.3,6.6c8.5,11.7,14.4,25.3,16.3,39.2c0.4,3.9-0.4,7.8-1.9,11.3     c1.9,3.5,2.7,7.4,1.9,11.3c-1.9,14.4-7.4,28-16.3,39.2c-2.3,3.1-5.8,5.4-9.3,6.6c-1.2,3.9-3.5,7-6.6,9.3     c-11.3,8.5-24.1,14-38.1,15.9c-3.5,8.2-7.8,16.3-12.4,23.7c58.7,0,106.1-47.4,106.1-106.1C477.8,47.4,430.3,0,371.7,0z" fill="#FFFFFF"/>
			<g>
				<path d="M356.1,76.2h5.4v-33c-9.7,1.6-19,5.4-27.2,11.3L356.1,76.2z" fill="#FFFFFF"/>
				<path d="M381.8,43.5v34.6c1.2,0.4,1.9,0.8,2.7,1.2L409,54.8C400.8,49,391.5,45.1,381.8,43.5z" fill="#FFFFFF"/>
				<path d="M423,68.8l-24.5,24.5c0.4,0.8,0.8,1.9,1.2,2.7h34.6C432.7,86.3,428.8,76.9,423,68.8z" fill="#FFFFFF"/>
			</g>
			<path d="M434.2,116.2h-33c0,1.9,0,3.5-0.4,5.4l22.1,22.1C428.8,135.2,432.7,125.9,434.2,116.2z" fill="#FFFFFF"/>
		</g>
	</g>
</g>
<g>
</g>
<g>
</g>
<g>
</g>
<g>
</g>
<g>
</g>
<g>
</g>
<g>
</g>
<g>
</g>
<g>
</g>
<g>
</g>
<g>
</g>
<g>
</g>
<g>
</g>
<g>
</g>
<g>
</g>
</svg>
