<?xml version="1.0" encoding="utf-8"?>
<!-- Generator: Adobe Illustrator 18.1.1, SVG Export Plug-In . SVG Version: 6.00 Build 0)  -->
<svg version="1.1" id="Capa_1" xmlns="http://www.w3.org/2000/svg" xmlns:xlink="http://www.w3.org/1999/xlink" x="0px" y="0px"
	 viewBox="-49 141 512 512" enable-background="new -49 141 512 512" xml:space="preserve">
<g>
	<g>
		<g>
			<path fill="#2F383E" d="M156.8,612.7c-44.3,0-80.4,17.9-80.4,40.3h160.9C237.2,630.6,201.6,612.7,156.8,612.7z"/>
			<path fill="#2F383E" d="M350.3,252c0-5.6-4.5-10.6-10.6-10.6H-26.1c-5.6,0-10.6,4.5-10.6,10.6c0,20.3,3.2,40.7,9.7,60.1
				c26.5,79.6,100.1,133.2,183.7,133.2s157.3-53.2,183.6-132.9C347,292.5,350.3,272.7,350.3,252z M323,298.7H-8.9
				c-3.2-11.8-5.3-23.9-6.1-36.2h344.2C328.3,274.6,326.2,286.9,323,298.7z"/>
			<path fill="#2F383E" d="M176.4,465.3v128c-14.1-0.8-23.8-1.5-39,0v-128C152.4,466.8,162.1,466.1,176.4,465.3z"/>
			<path fill="#2F383E" d="M361.7,314.5c6.1-2,11.8-4.9,17-8.9l-11.8-11.8C365.3,300.7,363.7,307.6,361.7,314.5z"/>
			<path fill="#2F383E" d="M281.1,220.7h12.5l-7.7-7.7C284,215.4,282.4,218.2,281.1,220.7z"/>
			<path fill="#2F383E" d="M339.7,141c-50.4,0-93.1,33.8-106.5,79.7h25.2c2.8-7.7,6.9-15.1,11.8-21.5c2.4-3.2,6.1-5.6,9.7-6.9
				c1.3-4.1,3.7-7.3,6.9-9.7c12.2-8.9,26.5-15.1,41-17c4.1-0.4,8.2,0.4,11.8,2c3.2-1.7,7.3-2.4,11.8-2c15.1,2,29.3,7.7,41,17
				c3.2,2.4,5.6,6.1,6.9,9.7c4.1,1.3,7.3,3.7,9.7,6.9c8.9,12.2,15.1,26.5,17,41c0.4,4.1-0.4,8.2-2,11.8c2,3.7,2.8,7.7,2,11.8
				c-2,15.1-7.7,29.3-17,41c-2.4,3.2-6.1,5.6-9.7,6.9c-1.3,4.1-3.7,7.3-6.9,9.7c-11.8,8.9-25.2,14.6-39.8,16.6
				c-3.7,8.6-8.2,17-13,24.8c61.4,0,111-49.6,111-111C450.7,190.6,401,141,339.7,141z"/>
			<g>
				<path fill="#2F383E" d="M323.4,220.7h5.6v-34.5c-10.1,1.7-19.9,5.6-28.4,11.8L323.4,220.7z"/>
				<path fill="#2F383E" d="M350.3,186.5v36.2c1.3,0.4,2,0.8,2.8,1.3l25.6-25.6C370.1,192.2,360.4,188.2,350.3,186.5z"/>
				<path fill="#2F383E" d="M393.4,212.9l-25.6,25.6c0.4,0.8,0.8,2,1.3,2.8h36.2C403.5,231.2,399.4,221.4,393.4,212.9z"/>
			</g>
			<path fill="#2F383E" d="M405.1,262.5h-34.5c0,2,0,3.7-0.4,5.6l23.1,23.1C399.4,282.4,403.5,272.7,405.1,262.5z"/>
		</g>
	</g>
</g>
</svg>
