<?xml version="1.0" encoding="utf-8"?>
<!-- Generator: Adobe Illustrator 18.1.1, SVG Export Plug-In . SVG Version: 6.00 Build 0)  -->
<svg version="1.1" id="Capa_1" xmlns="http://www.w3.org/2000/svg" xmlns:xlink="http://www.w3.org/1999/xlink" x="0px" y="0px"
	 viewBox="-49 141 512 512" enable-background="new -49 141 512 512" xml:space="preserve">
<g>
	<g>
		<path fill="#2F383E" d="M124.7,403.6c0.3-5.5,0.7-11,1.4-16.5c1.3-13.1,4.2-26.3,7.1-39.1c1.8-6.4,3.7-12.7,5.7-18.9
			c2.6-6,5.1-12,7.6-17.9c5.7-11.4,12.1-22.1,19.7-31.1c1.8-2.3,3.6-4.5,5.3-6.8c2-2,4-3.9,5.9-5.9c4.1-3.7,7.6-7.7,11.7-10.6
			c8.1-6,15.3-11.7,22.6-15.2c7-3.9,13.1-7.3,18.5-9.2c10.7-4.3,16.7-6.4,16.7-6.4s-5.2,4.1-14.2,10.7c-4.7,3-9.6,7.8-15.5,12.8
			c-6.1,4.7-11.7,11.4-18.3,17.8c-3.3,3.3-5.9,7.4-9,11.2c-1.5,1.9-3.1,3.9-4.7,5.9c-1.3,2.2-2.6,4.4-4,6.6
			c-5.8,8.6-10.2,18.8-14.7,29c-1.9,5.4-3.7,10.8-5.7,16.3c-1.3,5.7-2.8,11.5-4.4,17.3c-2.4,11.9-4.7,23.9-5.7,36.4
			c-0.7,4.5-1,9.1-1.5,13.6c98.8,0,175.2,0.1,282.1,0.1c0.4-4.7,0.6-9.4,0.6-14.2c0-90.1-65.6-164.3-150.1-174.1
			c5.5-5.1,8.9-12.3,8.9-20.4c0-15.5-12.5-28-27.9-28c-15.5,0-28,12.5-28,28c0,8.1,3.4,15.3,8.9,20.4
			c-84.5,9.8-150.1,84-150.1,174.1c0,4.8,0.2,9.4,0.5,14.1C104.8,403.6,114.9,403.6,124.7,403.6z"/>
		<rect x="63.1" y="414" fill="#2F383E" width="399.9" height="35.3"/>
		<path fill="#2F383E" d="M298.8,474.3c-20.3,9.9-91.2,35.4-91.2,35.4l-83.8-5.2c0,0,47.9-13.3,66.5-17.5
			c18.6-4.2,10.5-25.1,0.2-25.1c-10.3,0-100,3.7-100,3.7L31.1,487l15.8,99.7c0,0,12.3-21,24.5-21c12.3,0,118.6,2.8,133,0
			c14.4-2.9,102.4-63,112.9-70C327.7,488.7,319.2,464.4,298.8,474.3z"/>
		<polygon fill="#2F383E" points="-49,497.7 -49,627 42.2,609.9 19.4,485.7 		"/>
	</g>
</g>
</svg>
