<?xml version="1.0" encoding="iso-8859-1"?>
<!-- Generator: Adobe Illustrator 18.1.1, SVG Export Plug-In . SVG Version: 6.00 Build 0)  -->
<svg xmlns="http://www.w3.org/2000/svg" xmlns:xlink="http://www.w3.org/1999/xlink" version="1.1" id="Capa_1" x="0px" y="0px" viewBox="0 0 483.207 483.207" style="enable-background:new 0 0 483.207 483.207;" xml:space="preserve" width="512px" height="512px">
<g>
	<g id="Icons_15_">
		<g>
			<path d="M256.393,180.091l24.313,24.327c0.732,0.732,1.725,1.144,2.76,1.144s2.027-0.412,2.76-1.144l26.87-26.892     c5.386-5.335,12.529-8.27,20.09-8.27c7.566,0,14.711,2.935,20.168,8.356l26.811,26.808c0.73,0.731,1.724,1.143,2.758,1.142     c1.035,0,2.027-0.411,2.76-1.143l27.295-27.311c5.385-5.335,12.522-8.27,20.089-8.27c7.679,0,13.82,3.438,17.407,6.081     c0.887,0.653,2.02,0.871,3.085,0.592c1.065-0.278,1.946-1.024,2.399-2.026l11.084-24.499c2.698-5.956,2.92-12.735,0.611-18.849     c-2.291-6.12-6.936-11.071-12.885-13.764l-140.18-63.442c-12.396-5.611-26.994-0.111-32.613,12.287l-47.201,104.263     c-0.224,0.494-0.182,1.067,0.112,1.522s0.798,0.731,1.341,0.731l0,0C243.793,171.734,250.935,174.677,256.393,180.091z" fill="#FFFFFF"/>
			<path d="M45.418,168.866c0.476,1.632,1.955,2.771,3.654,2.81c3.766,0.086,10.859,1.323,18.366,8.423     c4.837,4.574,18.415,18.322,24.281,24.277c0.729,0.741,1.726,1.16,2.765,1.164s2.038-0.408,2.773-1.143l24.391-24.393     c5.379-5.335,12.523-8.27,20.084-8.27c7.566,0,14.71,2.935,20.168,8.356l24.324,24.34c1.52,1.52,3.979,1.525,5.506,0.013     c5.988-5.936,20.018-19.838,24.729-24.455c0.961-0.941,1.324-2.336,0.947-3.626l-24.43-83.789     c-2.369-8.075-10.814-12.713-18.908-10.365c-12.998,3.797-26.59-3.672-30.405-16.668l-6.638-22.771L56.907,66.135l6.637,22.766     c3.784,13.001-3.673,26.609-16.663,30.393c-8.099,2.362-12.744,10.843-10.391,18.927L45.418,168.866z" fill="#FFFFFF"/>
			<path d="M52.89,49.445l78.577-22.896l-2.354-8.092c-3.81-13.065-17.497-20.565-30.554-16.751l-31.277,9.116     c-6.281,1.83-11.566,6.075-14.705,11.811c-3.145,5.728-3.877,12.476-2.041,18.754L52.89,49.445z" fill="#FFFFFF"/>
			<path d="M479.287,237.352l-43.102-43.111c-0.828-0.826-1.945-1.296-3.12-1.296c-1.179,0-2.292,0.47-3.126,1.296l-43.896,43.913     c-0.828,0.823-1.947,1.293-3.12,1.293c-1.179,0-2.292-0.462-3.12-1.293l-43.49-43.498c-0.834-0.823-1.947-1.293-3.127-1.293     c-1.174,0-2.291,0.47-3.121,1.293l-43.472,43.498c-0.835,0.823-1.948,1.293-3.126,1.293c-1.176,0-2.287-0.47-3.123-1.293     l-40.99-41.017c-0.836-0.826-1.947-1.296-3.127-1.296c-1.174,0-2.287,0.47-3.121,1.296l-41.008,41.017     c-0.834,0.823-1.946,1.293-3.127,1.293c-1.173,0-2.285-0.47-3.121-1.293l-40.991-41.017c-0.835-0.826-1.946-1.296-3.126-1.296     c-1.174,0-2.287,0.47-3.121,1.296l-41.008,41.017c-0.834,0.823-1.948,1.293-3.127,1.293c-1.174,0-2.287-0.47-3.121-1.293     l-40.975-41.017c-0.834-0.826-1.947-1.296-3.126-1.296c-1.175,0-2.292,0.47-3.122,1.296L3.926,237.352     C1.412,239.864,0,243.277,0,246.832v235.663h0.015h483.192V246.832C483.207,243.277,481.795,239.864,479.287,237.352z" fill="#FFFFFF"/>
		</g>
	</g>
</g>
<g>
</g>
<g>
</g>
<g>
</g>
<g>
</g>
<g>
</g>
<g>
</g>
<g>
</g>
<g>
</g>
<g>
</g>
<g>
</g>
<g>
</g>
<g>
</g>
<g>
</g>
<g>
</g>
<g>
</g>
</svg>
