<?xml version="1.0" encoding="utf-8"?>
<!-- Generator: Adobe Illustrator 18.1.1, SVG Export Plug-In . SVG Version: 6.00 Build 0)  -->
<svg version="1.1" id="Capa_1" xmlns="http://www.w3.org/2000/svg" xmlns:xlink="http://www.w3.org/1999/xlink" x="0px" y="0px"
	 viewBox="-49 141 512 512" enable-background="new -49 141 512 512" xml:space="preserve">
<g>
	<g id="Icons_15_">
		<g>
			<path fill="#2F383E" d="M222.7,331.8l25.8,25.8c0.8,0.8,1.8,1.2,2.9,1.2s2.1-0.4,2.9-1.2l28.5-28.5c5.7-5.7,13.3-8.8,21.3-8.8
				c8,0,15.6,3.1,21.4,8.9l28.4,28.4c0.8,0.8,1.8,1.2,2.9,1.2c1.1,0,2.1-0.4,2.9-1.2l28.9-28.9c5.7-5.7,13.3-8.8,21.3-8.8
				c8.1,0,14.6,3.6,18.4,6.4c0.9,0.7,2.1,0.9,3.3,0.6c1.1-0.3,2.1-1.1,2.5-2.1l11.7-26c2.9-6.3,3.1-13.5,0.6-20
				c-2.4-6.5-7.3-11.7-13.7-14.6l-148.5-67.2c-13.1-5.9-28.6-0.1-34.6,13l-50,110.5c-0.2,0.5-0.2,1.1,0.1,1.6
				c0.3,0.5,0.8,0.8,1.4,0.8l0,0C209.3,323,216.9,326.1,222.7,331.8z"/>
			<path fill="#2F383E" d="M-0.9,319.9c0.5,1.7,2.1,2.9,3.9,3c4,0.1,11.5,1.4,19.5,8.9c5.1,4.8,19.5,19.4,25.7,25.7
				c0.8,0.8,1.8,1.2,2.9,1.2c1.1,0,2.2-0.4,2.9-1.2l25.8-25.8c5.7-5.7,13.3-8.8,21.3-8.8c8,0,15.6,3.1,21.4,8.9l25.8,25.8
				c1.6,1.6,4.2,1.6,5.8,0c6.3-6.3,21.2-21,26.2-25.9c1-1,1.4-2.5,1-3.8l-25.9-88.8c-2.5-8.6-11.5-13.5-20-11
				c-13.8,4-28.2-3.9-32.2-17.7l-7-24.1l-84.9,24.8l7,24.1c4,13.8-3.9,28.2-17.7,32.2c-8.6,2.5-13.5,11.5-11,20.1L-0.9,319.9z"/>
			<path fill="#2F383E" d="M7,193.4l83.3-24.3l-2.5-8.6c-4-13.8-18.5-21.8-32.4-17.7l-33.1,9.7c-6.7,1.9-12.3,6.4-15.6,12.5
				c-3.3,6.1-4.1,13.2-2.2,19.9L7,193.4z"/>
			<path fill="#2F383E" d="M458.8,392.5l-45.7-45.7c-0.9-0.9-2.1-1.4-3.3-1.4c-1.2,0-2.4,0.5-3.3,1.4L360,393.3
				c-0.9,0.9-2.1,1.4-3.3,1.4c-1.2,0-2.4-0.5-3.3-1.4l-46.1-46.1c-0.9-0.9-2.1-1.4-3.3-1.4c-1.2,0-2.4,0.5-3.3,1.4l-46.1,46.1
				c-0.9,0.9-2.1,1.4-3.3,1.4c-1.2,0-2.4-0.5-3.3-1.4l-43.4-43.5c-0.9-0.9-2.1-1.4-3.3-1.4c-1.2,0-2.4,0.5-3.3,1.4l-43.5,43.5
				c-0.9,0.9-2.1,1.4-3.3,1.4c-1.2,0-2.4-0.5-3.3-1.4l-43.4-43.5c-0.9-0.9-2.1-1.4-3.3-1.4c-1.2,0-2.4,0.5-3.3,1.4l-43.5,43.5
				c-0.9,0.9-2.1,1.4-3.3,1.4c-1.2,0-2.4-0.5-3.3-1.4L4.4,349.9c-0.9-0.9-2.1-1.4-3.3-1.4c-1.2,0-2.4,0.5-3.3,1.4l-42.6,42.6
				c-2.7,2.7-4.2,6.3-4.2,10v249.7h0h512V402.5C463,398.8,461.5,395.2,458.8,392.5z"/>
		</g>
	</g>
</g>
</svg>
