<?xml version="1.0" encoding="utf-8"?>
<!-- Generator: Adobe Illustrator 18.1.1, SVG Export Plug-In . SVG Version: 6.00 Build 0)  -->
<svg version="1.1" id="Capa_1" xmlns="http://www.w3.org/2000/svg" xmlns:xlink="http://www.w3.org/1999/xlink" x="0px" y="0px"
	 viewBox="-49 141 512 512" enable-background="new -49 141 512 512" xml:space="preserve">
<g>
	<path fill="#2F383E" d="M388,216c48.4,48.4,75,112.6,75,181c0,68.4-26.6,132.7-75,181c-48.4,48.4-112.6,75-181,75
		S74.3,626.4,26,578c-48.4-48.4-75-112.6-75-181c0-68.4,26.6-132.7,75-181s112.6-75,181-75S339.7,167.6,388,216z M365.4,555.4
		c31.5-31.5,52.5-70.8,61.1-113.5c-6.7,9.9-13.2,13.6-17.2-8.6c-4.1-36.2-37.4-13.1-58.3-25.9c-22,14.8-71.5-28.8-63,20.4
		c13,22.2,70-29.7,41.6,17.3c-18.1,32.8-66.3,105.5-60.1,143.1c0.8,54.9-56.1,11.4-75.7-6.8c-13.2-36.5-4.5-100.2-38.9-118
		c-37.4-1.6-69.5-5-84-46.8c-8.7-29.9,9.3-74.4,41.3-81.3c46.9-29.5,63.7,34.5,107.7,35.7c13.7-14.3,50.9-18.8,54-34.9
		c-28.9-5.1,36.6-24.3-2.8-35.2c-21.7,2.6-35.7,22.5-24.2,39.5c-42.1,9.8-43.5-61-84-38.6c-1,35.3-66.1,11.4-22.5,4.3
		c15-6.5-24.4-25.5-3.1-22.1c10.5-0.6,45.7-12.9,36.1-21.2c19.6-12.2,36.1,29.1,55.3-0.9c13.9-23.1-5.8-27.4-23.2-15.7
		c-9.8-11,17.3-34.6,41.2-44.9c8-3.4,15.6-5.3,21.4-4.7c12,13.9,34.3,16.3,35.4-1.7C273.9,180.5,241,173,207,173
		c-48.8,0-95.2,15.5-133.7,44.2c10.3,4.7,16.2,10.6,6.2,18.1c-7.7,23-39.1,53.9-66.6,49.6c-14.3,24.6-23.7,51.8-27.7,80.3
		c23.1,7.6,28.4,22.7,23.4,27.8c-11.7,10.2-19,24.8-22.7,40.7c7.5,45.9,29.1,88.2,62.6,121.8C90.9,597.7,147.2,621,207,621
		C266.8,621,323.1,597.7,365.4,555.4z"/>
</g>
</svg>
