<?xml version="1.0" encoding="iso-8859-1"?>
<!-- Generator: Adobe Illustrator 16.0.0, SVG Export Plug-In . SVG Version: 6.00 Build 0)  -->
<!DOCTYPE svg PUBLIC "-//W3C//DTD SVG 1.1//EN" "http://www.w3.org/Graphics/SVG/1.1/DTD/svg11.dtd">
<svg xmlns="http://www.w3.org/2000/svg" xmlns:xlink="http://www.w3.org/1999/xlink" version="1.1" id="Capa_1" x="0px" y="0px" width="512px" height="512px" viewBox="0 0 363.9 363.899" style="enable-background:new 0 0 363.9 363.899;" xml:space="preserve">
<g>
	<g>
		<path d="M317.199,244.253l-81.209-36.258l-101-106.035c-0.883-0.931-1.925-1.66-3.075-2.165c-3.06-1.354-6.737-1.009-9.512,0.904    c-3.972,2.777-5.305,7.938-3.179,12.247l26.553,54.758l-65.26-29.147c-2.324-19.086-4.414-37.392-6.221-54.436    c-2.78-26.439-9.076-40.479-19.236-42.901c-1-0.231-2.008-0.349-3.036-0.349c-8.941,0-15.958,9.037-17.831,13.273l-32.99,87.063    c-1.372,3.104-1.567,5.816-0.598,8.32c1.648,4.176,5.879,5.989,10.337,7.881l15.988,7.074l74.997,47.753l-41.725,11.938    c-4.611,1.333-7.539,5.771-6.957,10.557c0.394,3.338,2.576,6.287,5.684,7.686c1.192,0.541,2.378,0.805,3.669,0.847l81.455,2.468    c0.228,5.669,3.636,10.797,8.941,13.187c1.679,0.745,3.393,1.165,5.375,1.262c1.315,1.351,2.84,2.413,4.506,3.158    c7.134,3.194,15.859,0.108,19.462-6.533c2.699-0.612,5.164-1.958,7.146-3.879l99.421,44.399c-1.23,1.249-2.239,2.727-2.966,4.359    c-1.651,3.699-1.753,7.818-0.3,11.596c1.423,3.776,4.257,6.779,7.95,8.424c0.883,0.396,1.795,0.697,2.708,0.913    c1.152,0.276,2.33,0.414,3.501,0.414c5.95,0,11.379-3.524,13.823-8.983c0.732-1.627,1.158-3.362,1.278-5.121l10.809,4.833    c2.108,0.931,4.126,1.916,6.077,2.853c4.563,2.21,8.893,4.293,12.928,5.248c1.609,0.385,3.141,0.583,4.576,0.583    c6.275,0,10.904-3.537,14.346-11.235l0.21-1.117C365.393,283.313,334.09,251.812,317.199,244.253z" fill="#FFFFFF"/>
	</g>
</g>
<g>
</g>
<g>
</g>
<g>
</g>
<g>
</g>
<g>
</g>
<g>
</g>
<g>
</g>
<g>
</g>
<g>
</g>
<g>
</g>
<g>
</g>
<g>
</g>
<g>
</g>
<g>
</g>
<g>
</g>
</svg>
