<?xml version="1.0" encoding="utf-8"?>
<!-- Generator: Adobe Illustrator 18.1.1, SVG Export Plug-In . SVG Version: 6.00 Build 0)  -->
<svg version="1.1" id="Capa_1" xmlns="http://www.w3.org/2000/svg" xmlns:xlink="http://www.w3.org/1999/xlink" x="0px" y="0px"
	 viewBox="-49 141 512 512" enable-background="new -49 141 512 512" xml:space="preserve">
<g>
	<g>
		<path fill="#2F383E" d="M397.3,484.7l-114.3-51L140.9,284.5c-1.2-1.3-2.7-2.3-4.3-3c-4.3-1.9-9.5-1.4-13.4,1.3
			c-5.6,3.9-7.5,11.2-4.5,17.2l37.4,77l-91.8-41c-3.3-26.9-6.2-52.6-8.8-76.6c-3.9-37.2-12.8-57-27.1-60.4c-1.4-0.3-2.8-0.5-4.3-0.5
			c-12.6,0-22.5,12.7-25.1,18.7l-46.4,122.5c-1.9,4.4-2.2,8.2-0.8,11.7c2.3,5.9,8.3,8.4,14.5,11.1l22.5,10l105.5,67.2l-58.7,16.8
			c-6.5,1.9-10.6,8.1-9.8,14.9c0.6,4.7,3.6,8.8,8,10.8c1.7,0.8,3.3,1.1,5.2,1.2l114.6,3.5c0.3,8,5.1,15.2,12.6,18.6
			c2.4,1,4.8,1.6,7.6,1.8c1.9,1.9,4,3.4,6.3,4.4c10,4.5,22.3,0.2,27.4-9.2c3.8-0.9,7.3-2.8,10.1-5.5l139.9,62.5
			c-1.7,1.8-3.2,3.8-4.2,6.1c-2.3,5.2-2.5,11-0.4,16.3c2,5.3,6,9.5,11.2,11.9c1.2,0.6,2.5,1,3.8,1.3c1.6,0.4,3.3,0.6,4.9,0.6
			c8.4,0,16-5,19.4-12.6c1-2.3,1.6-4.7,1.8-7.2l15.2,6.8c3,1.3,5.8,2.7,8.6,4c6.4,3.1,12.5,6,18.2,7.4c2.3,0.5,4.4,0.8,6.4,0.8
			c8.8,0,15.3-5,20.2-15.8l0.3-1.6C465.1,539.6,421.1,495.3,397.3,484.7z"/>
	</g>
</g>
</svg>
