<?xml version="1.0" encoding="utf-8"?>
<!-- Generator: Adobe Illustrator 18.1.1, SVG Export Plug-In . SVG Version: 6.00 Build 0)  -->
<svg version="1.1" id="Capa_1" xmlns="http://www.w3.org/2000/svg" xmlns:xlink="http://www.w3.org/1999/xlink" x="0px" y="0px"
	 viewBox="0 0 612 792" enable-background="new 0 0 612 792" xml:space="preserve">
<g>
	<g>
		<path fill="#2F383E" d="M79.8,555.4l136.3-61l169.5-178.3c1.4-1.6,3.2-2.7,5.1-3.6c5.1-2.3,11.4-1.7,16,1.6
			c6.7,4.7,8.8,13.4,5.4,20.6l-44.6,92l109.5-49c3.9-32.2,7.4-62.9,10.4-91.6c4.7-44.5,15.2-68.1,32.3-72.2c1.7-0.4,3.3-0.6,5.1-0.6
			c15.1,0,26.8,15.2,29.9,22.4L610,382.1c2.3,5.3,2.6,9.8,1,14c-2.7,7.1-9.9,10-17.3,13.3l-26.9,12l-125.9,80.3l70,20.1
			c7.8,2.3,12.7,9.7,11.7,17.8c-0.7,5.6-4.3,10.5-9.6,12.9c-2,1-3.9,1.3-6.2,1.4L370.1,558c-0.4,9.6-6.1,18.2-15.1,22.2
			c-2.9,1.2-5.7,1.9-9,2.2c-2.2,2.3-4.8,4.1-7.5,5.3c-12,5.4-26.7,0.2-32.6-11c-4.5-1.1-8.7-3.3-12-6.6l-166.7,74.5
			c2,2.2,3.7,4.5,5,7.3c2.7,6.2,3,13.1,0.5,19.5c-2.4,6.3-7.2,11.4-13.4,14.2c-1.4,0.7-3,1.2-4.5,1.6c-1.9,0.5-3.9,0.7-5.9,0.7
			c-10,0-19.1-6-23.2-15.1c-1.2-2.7-1.9-5.6-2.2-8.6l-18.2,8.1c-3.6,1.6-6.9,3.2-10.2,4.8c-7.7,3.7-14.9,7.2-21.8,8.8
			c-2.7,0.6-5.3,1-7.6,1c-10.5,0-18.3-6-24-18.9l-0.4-1.9C-1.2,621,51.4,568.1,79.8,555.4z"/>
	</g>
</g>
</svg>
