<?xml version="1.0" encoding="utf-8"?>
<!-- Generator: Adobe Illustrator 18.1.1, SVG Export Plug-In . SVG Version: 6.00 Build 0)  -->
<svg version="1.1" id="Capa_1" xmlns="http://www.w3.org/2000/svg" xmlns:xlink="http://www.w3.org/1999/xlink" x="0px" y="0px"
	 viewBox="-49 141 512 512" enable-background="new -49 141 512 512" xml:space="preserve">
<g>
	<g>
		<path fill="#FFFFFF" d="M16.6,492.7l114-51l141.8-149.2c1.2-1.3,2.7-2.3,4.3-3c4.3-1.9,9.5-1.4,13.4,1.3
			c5.6,3.9,7.4,11.2,4.5,17.2l-37.3,77l91.6-41c3.3-26.9,6.2-52.6,8.7-76.6c3.9-37.2,12.7-57,27-60.4c1.4-0.3,2.8-0.5,4.3-0.5
			c12.6,0,22.4,12.7,25,18.7l46.3,122.5c1.9,4.4,2.2,8.2,0.8,11.7c-2.3,5.9-8.3,8.4-14.5,11.1l-22.5,10l-105.3,67.2l58.6,16.8
			c6.5,1.9,10.6,8.1,9.8,14.9c-0.6,4.7-3.6,8.8-8,10.8c-1.7,0.8-3.3,1.1-5.2,1.2l-114.4,3.5c-0.3,8-5.1,15.2-12.6,18.6
			c-2.4,1-4.8,1.6-7.5,1.8c-1.8,1.9-4,3.4-6.3,4.4c-10,4.5-22.3,0.2-27.3-9.2c-3.8-0.9-7.3-2.8-10-5.5L56.3,567.3
			c1.7,1.8,3.1,3.8,4.2,6.1c2.3,5.2,2.5,11,0.4,16.3c-2,5.3-6,9.5-11.2,11.9c-1.2,0.6-2.5,1-3.8,1.3c-1.6,0.4-3.3,0.6-4.9,0.6
			c-8.4,0-16-5-19.4-12.6c-1-2.3-1.6-4.7-1.8-7.2l-15.2,6.8c-3,1.3-5.8,2.7-8.5,4c-6.4,3.1-12.5,6-18.2,7.4
			c-2.3,0.5-4.4,0.8-6.4,0.8c-8.8,0-15.3-5-20.1-15.8l-0.3-1.6C-51.1,547.6-7.1,503.3,16.6,492.7z"/>
	</g>
</g>
</svg>
