<?xml version="1.0" encoding="utf-8"?>
<!-- Generator: Adobe Illustrator 18.1.1, SVG Export Plug-In . SVG Version: 6.00 Build 0)  -->
<svg version="1.1" id="Capa_1" xmlns="http://www.w3.org/2000/svg" xmlns:xlink="http://www.w3.org/1999/xlink" x="0px" y="0px"
	 viewBox="-49 141 512 512" enable-background="new -49 141 512 512" xml:space="preserve">
<g>
	<g>
		<path fill="#2F383E" d="M433.4,601.8V370.5c0-12.1-9.8-21.9-21.9-21.9H307.7v-62.9c0-5.9-3.2-11.4-8.4-14.3l-84.3-47
			c-0.5-0.3-0.9-0.5-1.4-0.7v-26.8H259c3.6,0,6.6-2.9,6.6-6.6v-33.1c0-3.6-2.9-6.6-6.6-6.6h-45.4v-3c0-3.6-2.9-6.6-6.6-6.6
			c-3.6,0-6.6,2.9-6.6,6.6v76c-0.5,0.2-1,0.4-1.4,0.7l-84.3,47c-5.2,2.9-8.4,8.4-8.4,14.3v62.9H2.5c-12.1,0-21.9,9.8-21.9,21.9
			v231.4c-9.3,4.2-15.8,13.5-15.8,24.4c0,14.8,12,26.8,26.8,26.8h430.7c14.8,0,26.8-12,26.8-26.8C449.1,615.4,442.7,606,433.4,601.8
			z M348.9,424.8c0-7,5.7-12.7,12.7-12.7h23.8c7,0,12.7,5.7,12.7,12.7v23.8c0,7-5.7,12.7-12.7,12.7h-23.8c-7,0-12.7-5.7-12.7-12.7
			L348.9,424.8L348.9,424.8z M348.9,501.3c0-7,5.7-12.7,12.7-12.7h23.8c7,0,12.7,5.7,12.7,12.7v23.8c0,7-5.7,12.7-12.7,12.7h-23.8
			c-7,0-12.7-5.7-12.7-12.7L348.9,501.3L348.9,501.3z M272.4,424.8c0-7,5.7-12.7,12.7-12.7h23.8c7,0,12.7,5.7,12.7,12.7v23.8
			c0,7-5.7,12.7-12.7,12.7h-23.8c-7,0-12.7-5.7-12.7-12.7V424.8z M272.4,501.3c0-7,5.7-12.7,12.7-12.7h23.8c7,0,12.7,5.7,12.7,12.7
			v23.8c0,7-5.7,12.7-12.7,12.7h-23.8c-7,0-12.7-5.7-12.7-12.7V501.3z M207,285.7c19.9,0,36.1,16.2,36.1,36.1
			c0,19.9-16.2,36.1-36.1,36.1c-19.9,0-36.1-16.2-36.1-36.1C170.9,301.8,187.1,285.7,207,285.7z M170.9,492.8
			c0-7,5.7-12.7,12.7-12.7h46.8c7,0,12.7,5.7,12.7,12.7v100.3c0,2.3-0.6,4.4-1.7,6.3h-68.9c-1.1-1.9-1.7-4-1.7-6.3L170.9,492.8
			L170.9,492.8z M92.4,424.8c0-7,5.7-12.7,12.7-12.7h23.8c7,0,12.7,5.7,12.7,12.7v23.8c0,7-5.7,12.7-12.7,12.7h-23.8
			c-7,0-12.7-5.7-12.7-12.7V424.8z M92.4,501.3c0-7,5.7-12.7,12.7-12.7h23.8c7,0,12.7,5.7,12.7,12.7v23.8c0,7-5.7,12.7-12.7,12.7
			h-23.8c-7,0-12.7-5.7-12.7-12.7V501.3z M15.8,424.8c0-7,5.7-12.7,12.7-12.7h23.8c7,0,12.7,5.7,12.7,12.7v23.8
			c0,7-5.7,12.7-12.7,12.7H28.6c-7,0-12.7-5.7-12.7-12.7L15.8,424.8L15.8,424.8z M15.8,501.3c0-7,5.7-12.7,12.7-12.7h23.8
			c7,0,12.7,5.7,12.7,12.7v23.8c0,7-5.7,12.7-12.7,12.7H28.6c-7,0-12.7-5.7-12.7-12.7L15.8,501.3L15.8,501.3z"/>
	</g>
</g>
</svg>
