<?xml version="1.0" encoding="utf-8"?>
<!-- Generator: Adobe Illustrator 18.1.1, SVG Export Plug-In . SVG Version: 6.00 Build 0)  -->
<svg version="1.1" id="Capa_1" xmlns="http://www.w3.org/2000/svg" xmlns:xlink="http://www.w3.org/1999/xlink" x="0px" y="0px"
	 viewBox="-49 141 512 512" enable-background="new -49 141 512 512" xml:space="preserve">
<path fill="#2F383E" d="M454.5,414.1h-51.2c-4.7,0-8.5,3.8-8.5,8.5v8.5h-68.3v-59.7c0-4.7-3.8-8.5-8.5-8.5h-34.1v-25.6H335
	c4.7,0,8.5-3.8,8.5-8.5V192.2c0-4.7-3.8-8.5-8.5-8.5h-8.5v-17.1c0-4.7-3.8-8.5-8.5-8.5H113.1c-4.7,0-8.5,3.8-8.5,8.5v17.1h-8.5
	c-4.7,0-8.5,3.8-8.5,8.5v136.5c0,4.7,3.8,8.5,8.5,8.5h51.2v25.6h-34.1c-4.7,0-8.5,3.8-8.5,8.5v59.7H19.3v-8.5c0-4.7-3.8-8.5-8.5-8.5
	h-51.2c-4.7,0-8.5,3.8-8.5,8.5v51.2V525v51.2v51.2c0,4.7,3.8,8.5,8.5,8.5h51.2c4.7,0,8.5-3.8,8.5-8.5v-8.5h375.5v8.5
	c0,4.7,3.8,8.5,8.5,8.5h51.2c4.7,0,8.5-3.8,8.5-8.5v-51.2V525v-51.2v-51.2C463,417.9,459.2,414.1,454.5,414.1z M445.9,516.5h-34.1
	v-34.1h34.1V516.5z M411.8,533.5h34.1v34.1h-34.1V533.5z M411.8,431.1h34.1v34.1h-34.1v-25.6V431.1z M241.1,320.2V200.7h17.1v119.5
	H241.1z M207,320.2V200.7h17.1v119.5H207z M172.9,320.2V200.7h17.1v119.5H172.9z M138.7,320.2V200.7h17.1v119.5H138.7z M275.3,200.7
	h17.1v119.5h-17.1V200.7z M326.5,320.2h-17.1V200.7h8.5h8.5V320.2z M104.6,200.7h8.5h8.5v119.5h-17.1V200.7z M164.3,337.3h102.4
	v25.6H164.3V337.3z M2.2,516.5h-34.1v-34.1H2.2V516.5z M-31.9,533.5H2.2v34.1h-34.1V533.5z M-31.9,431.1H2.2v8.5v25.6h-34.1V431.1z
	 M2.2,618.9h-34.1v-34.1H2.2v25.6V618.9z M445.9,618.9h-34.1v-8.5v-25.6h34.1V618.9z"/>
</svg>
