<?xml version="1.0" encoding="utf-8"?>
<!-- Generator: Adobe Illustrator 18.1.1, SVG Export Plug-In . SVG Version: 6.00 Build 0)  -->
<svg version="1.1" id="Capa_1" xmlns="http://www.w3.org/2000/svg" xmlns:xlink="http://www.w3.org/1999/xlink" x="0px" y="0px"
	 viewBox="-49 141 512 512" enable-background="new -49 141 512 512" xml:space="preserve">
<g>
	<path fill="#2F383E" d="M131.7,652.3c5,2.7,10.3-3.1,7.2-7.9c-16.6-25.9-32.4-69.4-7.3-125.5c41.8-93.5,67.3-141.9,67.3-141.9
		s13.5,56.5,50.2,106.7c35.3,48.3,54.6,109.2,23.5,159.8c-2.9,4.8,2.2,10.4,7.2,7.8c38.6-19.7,81.8-59.3,86.7-138.1
		c1.8-24.1-0.9-57.8-14.4-100.3c-17.4-53.9-38.7-79-51-89.8c-3.7-3.2-9.4-0.4-9.1,4.5c3.6,58.1-18.3,72.9-30.7,39.6
		c-5-13.3-7.9-36.3-7.9-64.2c0-46.6-13.5-94.5-43.3-133.5c-7.7-10.1-16.8-19.6-27.2-27.7c-3.8-2.9-9.2,0-8.9,4.8
		c2.3,31.6,0.2,122-79.2,230.1c-72,100.3-44.1,177.3-34.2,198.1C79.6,615.2,105.9,638.6,131.7,652.3z"/>
</g>
</svg>
