<?xml version="1.0" encoding="utf-8"?>
<!-- Generator: Adobe Illustrator 18.1.1, SVG Export Plug-In . SVG Version: 6.00 Build 0)  -->
<svg version="1.1" id="Capa_1" xmlns="http://www.w3.org/2000/svg" xmlns:xlink="http://www.w3.org/1999/xlink" x="0px" y="0px"
	 viewBox="-49 141 512 512" enable-background="new -49 141 512 512" xml:space="preserve">
<path fill="#2F383E" d="M448.1,467.1H344l-47.8-280.1h32.8v41.3h90V141h-90l0,0h-40.7l0,0H125.6l0,0H84.9l0,0h-90v87.3h90v-41.3
	h32.8L70,467.1H-34.1v80.4h30.2v28.7h27.1V653h72.1v-76.8h27.1v-28.7h169.2v28.7h27.1V653h72.1v-76.8h27.1v-28.7h30.2L448.1,467.1
	L448.1,467.1z M177,467.1l30-30l30,30H177z M239.5,404.7l40.4-40.3l16.6,97.2L239.5,404.7z M207,372.2l-37.5-37.4L207,294l37.5,40.9
	L207,372.2z M267.6,292.1L238.2,260l20.2-22L267.6,292.1z M207,226l-35.9-39.1h71.7L207,226z M175.8,260l-29.5,32.1l9.2-54.2
	L175.8,260z M134.1,364.3l40.4,40.3l-57,56.9L134.1,364.3z"/>
</svg>
