<?xml version="1.0" encoding="iso-8859-1"?>
<!-- Generator: Adobe Illustrator 19.0.0, SVG Export Plug-In . SVG Version: 6.00 Build 0)  -->
<svg xmlns="http://www.w3.org/2000/svg" xmlns:xlink="http://www.w3.org/1999/xlink" version="1.1" id="Capa_1" x="0px" y="0px" viewBox="0 0 222.977 222.977" style="enable-background:new 0 0 222.977 222.977;" xml:space="preserve" width="512px" height="512px">
<path d="M216.488,142h-45.316l-20.82-122h14.292v18h39.199V0h-39.199v0h-17.705v0h-70.9l0,0H58.333v0H19.134v38h39.199V20h14.293  L51.804,142H6.488v35h13.167v12.513h11.792v33.464h31.416v-33.464h11.792V177h73.667v12.513h11.791v33.464h31.417v-33.464h11.792  V177h13.166V142z M98.408,142l13.08-13.048L124.569,142H98.408z M125.649,114.827l17.6-17.557l7.222,42.318L125.649,114.827z   M111.489,100.702L95.173,84.426l16.316-17.798l16.316,17.798L111.489,100.702z M137.882,65.823L125.055,51.83l8.801-9.6  L137.882,65.823z M111.489,37.032L95.875,20h31.227L111.489,37.032z M97.922,51.83L85.094,65.824l4.027-23.595L97.922,51.83z   M79.727,97.269l17.601,17.558l-24.823,24.762L79.727,97.269z" fill="#FFFFFF"/>
<g>
</g>
<g>
</g>
<g>
</g>
<g>
</g>
<g>
</g>
<g>
</g>
<g>
</g>
<g>
</g>
<g>
</g>
<g>
</g>
<g>
</g>
<g>
</g>
<g>
</g>
<g>
</g>
<g>
</g>
</svg>
