<?xml version="1.0" encoding="utf-8"?>
<!-- Generator: Adobe Illustrator 18.1.1, SVG Export Plug-In . SVG Version: 6.00 Build 0)  -->
<svg version="1.1" id="Capa_1" xmlns="http://www.w3.org/2000/svg" xmlns:xlink="http://www.w3.org/1999/xlink" x="0px" y="0px"
	 viewBox="-49 141 512 512" enable-background="new -49 141 512 512" xml:space="preserve">
<g>
	<path fill="#2F383E" d="M431,587.1v-333l-137.1-82.3v415.2h-25.1V396.5c0-20.2-16.4-36.6-36.6-36.6h-86.9v207.3h-9.1V287.1
		c-6.2-11.4-18.1-19.2-32-19.2h-80c-20.2,0-36.6,16.4-36.6,36.6v282.7H-49v35h512v-35L431,587.1L431,587.1z M371.6,264h41.1v41.1
		h-41.1V264z M371.6,336.4h41.1v41.1h-41.1V336.4z M371.6,410.3h41.1v41.1h-41.1V410.3z M371.6,482.7h41.1v41.1h-41.1V482.7z
		 M312.1,264h41.1v41.1h-41.1V264z M312.1,336.4h41.1v41.1h-41.1V336.4z M312.1,410.3h41.1v41.1h-41.1V410.3z M312.1,482.7h41.1
		v41.1h-41.1V482.7z M72.9,308.9h36.6v36.6H72.9C72.9,345.5,72.9,308.9,72.9,308.9z M72.9,374.4h36.6V411H72.9
		C72.9,411,72.9,374.4,72.9,374.4z M72.9,440.8h36.6v36.6H72.9C72.9,477.4,72.9,440.8,72.9,440.8z M72.9,506.3h36.6v36.6H72.9
		C72.9,542.9,72.9,506.3,72.9,506.3z M11.9,308.9h36.6v36.6H11.9V308.9z M11.9,374.4h36.6V411H11.9V374.4z M11.9,440.8h36.6v36.6
		H11.9V440.8z M11.9,506.3h36.6v36.6H11.9V506.3z"/>
</g>
</svg>
