<?xml version="1.0" encoding="iso-8859-1"?>
<!-- Generator: Adobe Illustrator 16.0.0, SVG Export Plug-In . SVG Version: 6.00 Build 0)  -->
<!DOCTYPE svg PUBLIC "-//W3C//DTD SVG 1.1//EN" "http://www.w3.org/Graphics/SVG/1.1/DTD/svg11.dtd">
<svg xmlns="http://www.w3.org/2000/svg" xmlns:xlink="http://www.w3.org/1999/xlink" version="1.1" id="Capa_1" x="0px" y="0px" width="512px" height="512px" viewBox="0 0 58.333 58.333" style="enable-background:new 0 0 58.333 58.333;" xml:space="preserve">
<g>
	<path d="M54.687,50.825V12.891L39.062,3.516v47.31h-2.864V29.112c0-2.302-1.865-4.167-4.167-4.167h-9.896v23.622h-1.042V16.642   c-0.707-1.298-2.064-2.188-3.646-2.188H8.333c-2.301,0-4.167,1.866-4.167,4.167v32.206H0v3.992h58.333v-3.992H54.687z    M47.917,14.019h4.688v4.688h-4.688V14.019z M47.917,22.266h4.688v4.688h-4.688V22.266z M47.917,30.686h4.688v4.688h-4.688V30.686z    M47.917,38.933h4.688v4.688h-4.688V38.933z M41.146,14.019h4.688v4.688h-4.688V14.019z M41.146,22.266h4.688v4.688h-4.688V22.266z    M41.146,30.686h4.688v4.688h-4.688V30.686z M41.146,38.933h4.688v4.688h-4.688V38.933z M13.888,19.129h4.167v4.167h-4.167V19.129z    M13.888,26.595h4.167v4.167h-4.167V26.595z M13.888,34.158h4.167v4.167h-4.167V34.158z M13.888,41.623h4.167v4.167h-4.167V41.623z    M6.944,19.129h4.167v4.167H6.944V19.129z M6.944,26.595h4.167v4.167H6.944V26.595z M6.944,34.158h4.167v4.167H6.944V34.158z    M6.944,41.623h4.167v4.167H6.944V41.623z" fill="#FFFFFF"/>
</g>
<g>
</g>
<g>
</g>
<g>
</g>
<g>
</g>
<g>
</g>
<g>
</g>
<g>
</g>
<g>
</g>
<g>
</g>
<g>
</g>
<g>
</g>
<g>
</g>
<g>
</g>
<g>
</g>
<g>
</g>
</svg>
