<?xml version="1.0" encoding="utf-8"?>
<!-- Generator: Adobe Illustrator 18.1.1, SVG Export Plug-In . SVG Version: 6.00 Build 0)  -->
<svg version="1.1" id="Capa_1" xmlns="http://www.w3.org/2000/svg" xmlns:xlink="http://www.w3.org/1999/xlink" x="0px" y="0px"
	 viewBox="-49 141 512 512" enable-background="new -49 141 512 512" xml:space="preserve">
<path fill="#2F383E" d="M314.1,362.8c-1.6,0-3.3,0.2-5,0.7l-19.1,5.3l-19.8-48.3c-5.6-13.7-22.2-24.8-37-24.8H47.3
	c-14.8,0-31.4,11.1-37,24.8l-19.8,48.3l-18.9-5.2c-1.7-0.5-3.4-0.7-5-0.7c-9,0-15.6,6.9-15.6,16.4v11.3c0,11.1,9,20.1,20.1,20.1h2.2
	l-3.2,7.8c-5.2,12.7-9.5,34.3-9.5,48v96c0,11.1,9,20.1,20.1,20.1H7c11.1,0,20.1-9,20.1-20.1v-24h226.1v24c0,11.1,9,20.1,20.1,20.1
	h26.3c11.1,0,20.1-9,20.1-20.1v-96c0-13.8-4.3-35.3-9.5-48l-3.2-7.8h2.4c11.1,0,20.1-9,20.1-20.1v-11.3
	C329.7,369.7,323.1,362.8,314.1,362.8z M4.9,399.7l30-73.1c3.4-8.2,13.4-14.9,22.2-14.9h166.1c8.9,0,18.8,6.7,22.2,14.9l30,73.1
	c3.4,8.2-1.1,14.9-10,14.9H14.9C6,414.6,1.6,407.9,4.9,399.7z M71.9,492.2c0,4.4-3.6,8-8,8h-57c-4.4,0-8.1-3.6-8.1-8v-27.4
	c0-4.4,3.6-8,8.1-8h57c4.4,0,8,3.6,8,8V492.2z M281.1,492.2c0,4.4-3.6,8-8,8h-57c-4.4,0-8-3.6-8-8v-27.4c0-4.4,3.6-8,8-8h57
	c4.4,0,8,3.6,8,8V492.2z"/>
<g>
	<path fill="#2F383E" d="M437.8,211.4h-95.3c-13.9,0-25.2,11.3-25.2,25.2v95.3c0,13.9,11.3,25.2,25.2,25.2h38.3V571
		c0,5.2,4.2,9.4,9.4,9.4s9.4-4.2,9.4-9.4V357.1h38.3c13.9,0,25.2-11.3,25.2-25.2v-95.3C463,222.7,451.7,211.4,437.8,211.4z
		 M416.2,290.5c-5.5,4.9-13.6,7.4-24,7.4h-13.8c-1.7,0-3,1.4-3,3v23.3c0,2.5-2.1,4.6-4.6,4.6h-10.5c-2.5,0-4.6-2.1-4.6-4.6v-79.8
		c0-2.5,2.1-4.6,4.6-4.6h26.3c17.4,0,24,2.6,29.3,7.2c5.6,4.8,8.5,12.1,8.5,21.8C424.5,278.2,421.7,285.5,416.2,290.5z"/>
	<path fill="#2F383E" d="M401.3,259c-2.5-1.9-7.1-2.9-13.4-2.9h-9.5c-1.7,0-3,1.3-3,3v19.1c0,1.7,1.3,3,3,3h5.7
		c2.1,0,5.5-0.2,7.5-0.3c2-0.2,7.6-1,9.7-2.6c2.5-1.9,3.7-5.1,3.7-9.6C405,264.2,403.8,260.9,401.3,259z"/>
</g>
</svg>
