<?xml version="1.0" encoding="utf-8"?>
<!-- Generator: Adobe Illustrator 18.1.1, SVG Export Plug-In . SVG Version: 6.00 Build 0)  -->
<svg version="1.1" id="Capa_1" xmlns="http://www.w3.org/2000/svg" xmlns:xlink="http://www.w3.org/1999/xlink" x="0px" y="0px"
	 viewBox="-49 141 512 512" enable-background="new -49 141 512 512" xml:space="preserve">
<g>
	<g>
		<path fill="#2F383E" d="M414.3,251.8v-90.9c0-11-8.9-19.9-19.9-19.9H212.1c-11,0-19.9,8.9-19.9,19.9v90.9H232v-71h142.5v71H414.3z
			"/>
		<path fill="#2F383E" d="M445.6,268.9h-31.2H192.1h-31.2c-9.4,0-17.1,7.6-17.1,17.1v37.5h31.7c19.6,0,35.6,15.9,35.6,35.6v40.8
			h77.4c18.8,0,34.2,15.3,34.2,34.2v201.9c0,6-1.5,11.6-4.3,16.5h127.2c9.4,0,17.1-7.6,17.1-17.1V286
			C462.6,276.5,455,268.9,445.6,268.9z"/>
		<path fill="#2F383E" d="M194,399.9v-40.8c0-10.2-8.3-18.5-18.5-18.5h-31.7h-8.5h-8.5H81.4c-10.2,0-18.5,8.3-18.5,18.5v40.8h37
			v-22.3h26.8h8.5h8.5H157v22.3H194z"/>
		<path fill="#2F383E" d="M-31.6,417c-9.4,0-17.1,7.6-17.1,17.1v201.9c0,9.4,7.6,17.1,17.1,17.1h163.2h10.7h146.1
			c1.5,0,3-0.2,4.4-0.6c7.3-1.9,12.7-8.6,12.7-16.5V434c0-9.4-7.6-17.1-17.1-17.1H-31.6z M79.5,596.8c-21,11.1-44.7,7.5-53-8.2
			c-8.3-15.6,2.1-37.3,23.1-48.4c21-11.1,44.7-7.5,53,8.2S100.5,585.7,79.5,596.8z M249.8,523.4c10.1,7.5,12.2,21.7,4.7,31.9
			l-10.4,13.9c-7.5,10.1-21.7,12.2-31.9,4.7l-64.5-47.9c-1.5-1.1-2.8-2.3-3.9-3.7c-6.6-7.9-7.2-19.5-0.8-28.2l0.8-1.1l9.6-12.9
			c3.1-4.1,7.2-6.9,11.8-8.3c4.1-1.2,8.5-1.3,12.7-0.1c2.6,0.7,5.1,1.9,7.4,3.6L249.8,523.4z"/>
	</g>
</g>
</svg>
