<?xml version="1.0" encoding="iso-8859-1"?>
<!-- Generator: Adobe Illustrator 16.0.0, SVG Export Plug-In . SVG Version: 6.00 Build 0)  -->
<!DOCTYPE svg PUBLIC "-//W3C//DTD SVG 1.1//EN" "http://www.w3.org/Graphics/SVG/1.1/DTD/svg11.dtd">
<svg xmlns="http://www.w3.org/2000/svg" xmlns:xlink="http://www.w3.org/1999/xlink" version="1.1" id="Capa_1" x="0px" y="0px" width="512px" height="512px" viewBox="0 0 899.5 899.5" style="enable-background:new 0 0 899.5 899.5;" xml:space="preserve">
<g>
	<g>
		<path d="M813.951,194.7V35c0-19.3-15.701-35-35-35H458.65c-19.3,0-35,15.7-35,35v159.7h70V70h250.301v124.7H813.951z" fill="#FFFFFF"/>
		<path d="M868.85,224.7h-54.898H423.65H368.75c-16.601,0-30,13.4-30,30v65.9h55.7c34.5,0,62.5,28,62.5,62.5v71.7h136    c33.1,0,60,26.9,60,60v354.7c0,10.5-2.701,20.399-7.5,29H868.85c16.602,0,30-13.4,30-30V254.7    C898.85,238.1,885.451,224.7,868.85,224.7z" fill="#FFFFFF"/>
		<path d="M426.951,454.8v-71.7c0-17.899-14.601-32.5-32.5-32.5h-55.7h-15h-15h-79.6c-17.9,0-32.5,14.601-32.5,32.5v71.7h65v-39.2    h47.1h15h15h23.2v39.2H426.951z" fill="#FFFFFF"/>
		<path d="M30.65,484.8c-16.6,0-30,13.4-30,30v354.7c0,16.6,13.4,30,30,30h286.8h18.8h256.701c2.699,0,5.199-0.4,7.699-1    c12.801-3.4,22.301-15.101,22.301-29V514.8c0-16.6-13.4-30-30-30H30.65z M225.75,800.8c-36.9,19.5-78.6,13.1-93.1-14.4    c-14.5-27.399,3.7-65.5,40.6-85c36.9-19.5,78.6-13.1,93.1,14.4S262.65,781.3,225.75,800.8z M524.951,671.899    c17.699,13.2,21.398,38.2,8.299,56l-18.199,24.5c-13.201,17.7-38.201,21.4-56,8.301L345.65,676.5c-2.6-1.9-4.899-4.101-6.8-6.5    c-11.6-13.9-12.7-34.3-1.399-49.5l1.399-1.9l16.8-22.6c5.4-7.2,12.7-12.101,20.7-14.5c7.2-2.101,14.9-2.2,22.3-0.101    c4.601,1.301,9,3.4,13,6.4L524.951,671.899z" fill="#FFFFFF"/>
	</g>
</g>
<g>
</g>
<g>
</g>
<g>
</g>
<g>
</g>
<g>
</g>
<g>
</g>
<g>
</g>
<g>
</g>
<g>
</g>
<g>
</g>
<g>
</g>
<g>
</g>
<g>
</g>
<g>
</g>
<g>
</g>
</svg>
