<?xml version="1.0" encoding="utf-8"?>
<!-- Generator: Adobe Illustrator 18.1.1, SVG Export Plug-In . SVG Version: 6.00 Build 0)  -->
<svg version="1.1" id="Capa_1" xmlns="http://www.w3.org/2000/svg" xmlns:xlink="http://www.w3.org/1999/xlink" x="0px" y="0px"
	 viewBox="-49 141 512 512" enable-background="new -49 141 512 512" xml:space="preserve">
<g>
	<path fill="#2F383E" d="M15,221v-64c0-8.8,7.2-16,16-16c8.8,0,16,7.2,16,16v64c0,8.8-7.2,16-16,16C22.2,237,15,229.8,15,221z
		 M287,237c8.8,0,16-7.2,16-16v-64c0-8.8-7.2-16-16-16c-8.8,0-16,7.2-16,16v64C271,229.8,278.2,237,287,237z M463,525
		c0,70.7-57.3,128-128,128c-70.7,0-128-57.3-128-128c0-70.7,57.3-128,128-128C405.7,397,463,454.3,463,525z M431,525
		c0-52.9-43.1-96-96-96c-52.9,0-96,43.1-96,96c0,52.9,43.1,96,96,96C387.9,621,431,577.9,431,525z M79,333H15v64h64V333z M15,493h64
		v-64H15V493z M111,397h64v-64h-64V397z M111,493h64v-64h-64V493z M-17,521.8V301h352v64h32V240.2c0-19.4-15.5-35.2-34.7-35.2H319
		v16c0,17.6-14.3,32-32,32c-17.7,0-32-14.4-32-32v-16H63v16c0,17.6-14.3,32-32,32c-17.7,0-32-14.4-32-32v-16h-13.3
		c-19.2,0-34.7,15.8-34.7,35.2v281.6c0,19.4,15.5,35.2,34.7,35.2H175v-32H-14.3C-15.8,525-17,523.5-17,521.8z M271,397v-64h-64v64
		H271z M383,525h-48v-48c0-8.8-7.2-16-16-16c-8.8,0-16,7.2-16,16v64c0,8.8,7.2,16,16,16h64c8.8,0,16-7.2,16-16
		C399,532.2,391.8,525,383,525z"/>
</g>
</svg>
