<?xml version="1.0" encoding="utf-8"?>
<!-- Generator: Adobe Illustrator 18.1.1, SVG Export Plug-In . SVG Version: 6.00 Build 0)  -->
<svg version="1.1" id="Capa_1" xmlns="http://www.w3.org/2000/svg" xmlns:xlink="http://www.w3.org/1999/xlink" x="0px" y="0px"
	 viewBox="-49 141 512 512" enable-background="new -49 141 512 512" xml:space="preserve">
<g>
	<path fill="#2F383E" d="M-33,541h192c8.8,0,16-5.4,16-12v-24c0-6.6-7.2-12-16-12H-33c-8.8,0-16,5.4-16,12v24
		C-49,535.6-41.8,541-33,541z M-33,605h192c8.8,0,16-5.4,16-12v-24c0-6.6-7.2-12-16-12H-33c-8.8,0-16,5.4-16,12v24
		C-49,599.6-41.8,605-33,605z M-33,477h192c8.8,0,16-5.4,16-12v-24c0-6.6-7.2-12-16-12H-33c-8.8,0-16,5.4-16,12v24
		C-49,471.6-41.8,477-33,477z M206.3,470.6c0.2-1.9,0.7-3.7,0.7-5.6v-24c0-24.7-21.1-44-48-44H95c0-44.2,35.8-80,80-80
		c44.2,0,80,35.8,80,80C255,430.1,234.9,458.4,206.3,470.6z M-49,253h448v288H205.1c1.1-3.8,1.9-7.8,1.9-12v-20h96
		c0-35.3,28.7-64,64-64v-96c-35.3,0-64-28.7-64-64H47c0,35.3-28.7,64-64,64v48h-16c-5.7,0-11,1-16,2.6V253z M463,189v320h-32V221
		H-17v-32H463z"/>
</g>
</svg>
