<?xml version="1.0" encoding="iso-8859-1"?>
<!-- Generator: Adobe Illustrator 16.0.0, SVG Export Plug-In . SVG Version: 6.00 Build 0)  -->
<!DOCTYPE svg PUBLIC "-//W3C//DTD SVG 1.1//EN" "http://www.w3.org/Graphics/SVG/1.1/DTD/svg11.dtd">
<svg xmlns="http://www.w3.org/2000/svg" xmlns:xlink="http://www.w3.org/1999/xlink" version="1.1" id="Capa_1" x="0px" y="0px" width="512px" height="512px" viewBox="0 0 485.211 485.21" style="enable-background:new 0 0 485.211 485.21;" xml:space="preserve">
<g>
	<path d="M15.161,379.071h181.955c8.382,0,15.166-5.097,15.166-11.373V344.95c0-6.276-6.784-11.368-15.166-11.368H15.161   C6.781,333.582,0,338.673,0,344.95v22.748C0,373.974,6.781,379.071,15.161,379.071z M15.161,439.724h181.955   c8.382,0,15.166-5.096,15.166-11.373v-22.748c0-6.277-6.784-11.369-15.166-11.369H15.161C6.781,394.234,0,399.326,0,405.603v22.748   C0,434.628,6.781,439.724,15.161,439.724z M15.161,318.413h181.955c8.382,0,15.166-5.091,15.166-11.368v-22.738   c0-6.282-6.784-11.379-15.166-11.379H15.161C6.781,272.927,0,278.024,0,284.306v22.738C0,313.322,6.781,318.413,15.161,318.413z    M241.941,312.378c0.235-1.778,0.665-3.496,0.665-5.334v-22.738c0-23.4-19.978-41.703-45.49-41.703h-60.651   c0-41.875,33.941-75.812,75.817-75.812c41.875,0,75.814,33.937,75.814,75.812C288.097,273.936,269.068,300.823,241.941,312.378z    M0,106.138h424.562v272.933H240.8c1.081-3.612,1.806-7.406,1.806-11.373v-18.953h90.979c0-33.496,27.158-60.653,60.649-60.653   v-90.976c-33.491,0-60.649-27.158-60.649-60.651H90.978c0,33.494-27.155,60.651-60.651,60.651v45.487H15.161   c-5.375,0-10.408,0.978-15.161,2.458V106.138z M485.211,45.487v303.258h-30.322V75.813H30.327V45.487H485.211z" fill="#FFFFFF"/>
</g>
<g>
</g>
<g>
</g>
<g>
</g>
<g>
</g>
<g>
</g>
<g>
</g>
<g>
</g>
<g>
</g>
<g>
</g>
<g>
</g>
<g>
</g>
<g>
</g>
<g>
</g>
<g>
</g>
<g>
</g>
</svg>
