<?xml version="1.0" encoding="utf-8"?>
<!-- Generator: Adobe Illustrator 18.1.1, SVG Export Plug-In . SVG Version: 6.00 Build 0)  -->
<svg version="1.1" id="Capa_1" xmlns="http://www.w3.org/2000/svg" xmlns:xlink="http://www.w3.org/1999/xlink" x="0px" y="0px"
	 viewBox="-49 141 512 512" enable-background="new -49 141 512 512" xml:space="preserve">
<g>
	<g>
		<path fill="#2F383E" d="M32,653c27.9,0,52.1-15.8,64.3-38.9c-12-10.8-21-24.8-25.5-40.8c-6,1.3-12.1,2.1-18.5,2.1
			c-31.8,0-59.5-17.4-74.4-43.1c-11.4,12.8-18.4,29.7-18.4,48.2C-40.7,620.4-8.1,653,32,653z"/>
		<path fill="#2F383E" d="M-15,516.6c0.9,2.1,1.8,4.2,2.9,6.2c12.1,23.2,36.4,39,64.3,39c5.4,0,10.7-0.7,15.9-1.8
			c-0.4-3.3-0.6-6.6-0.6-10c0-10.4,2-20.4,5.4-29.6c0.8-2.1,1.7-4.3,2.6-6.3c0.9-2,1.9-4,3-6c5.2-9.2,12-17.4,20-24.2
			c-36.5-1.9-67.1-26.5-77.7-60c-24.3,11.7-41.2,36.6-41.2,65.3c0,7.2,1.1,14.2,3.1,20.7C-16.7,512.3-15.9,514.5-15,516.6z"/>
		<path fill="#2F383E" d="M137.7,498.2c-2.8-5.4-5-11.2-6.6-17.2c0,0,0,0-0.1,0c-2.2,0.7-4.4,1.6-6.6,2.5
			c-15.2,6.6-27.6,18.3-35.3,32.9c-1.1,2.1-2.1,4.2-2.9,6.3c-0.9,2.3-1.7,4.6-2.4,7c-1.9,6.5-3,13.3-3,20.3c0,2,0.1,3.9,0.3,5.8
			c0.2,2.3,0.5,4.6,0.9,6.9c0.4,2.2,0.9,4.4,1.5,6.6c3.3,12,9.6,22.8,18.1,31.4c1.7,1.8,3.5,3.5,5.4,5c1.8,1.5,3.7,2.9,5.6,4.2
			c11.6,8,25.7,12.6,40.8,12.6c40,0,72.6-32.6,72.6-72.6c0-2-0.1-4-0.3-6c-3.8,0.5-7.6,0.9-11.5,0.9
			C180.9,544.9,152,525.9,137.7,498.2z"/>
		<path fill="#2F383E" d="M31.7,412.8c0.5,2.2,1,4.4,1.7,6.5c9.1,29.8,36.7,51.5,69.4,51.5c6.5,0,12.8-0.9,18.8-2.6
			c2.2-0.6,4.3-1.3,6.4-2c0.2-0.1,0.3-0.1,0.5-0.2c-0.2-2.3-0.4-4.7-0.4-7.1c0-3,0.2-6,0.5-8.9c2.1-20.6,11.6-39,25.6-52.7
			c-8.7-12.2-14.3-26.8-15.6-42.5c-10.9,5-23,7.9-35.8,7.9c-18.9,0-36.3-6.2-50.5-16.6c-13.6,13.2-22.1,31.6-22.1,52
			c0,2.7,0.2,5.3,0.5,7.9C30.9,408.4,31.2,410.6,31.7,412.8z"/>
		<path fill="#2F383E" d="M236.5,528c13.5-4.4,25.2-12.6,34-23.3c-18.9-15.8-30.9-39.5-30.9-66c0-2.2,0.2-4.4,0.3-6.6
			c-5.1,0.9-10.2,1.5-15.6,1.5c-14.2,0-27.6-3.5-39.4-9.6c-2.1-1.1-4-2.2-6-3.5c-2-1.3-4-2.6-5.9-4c-3.6-2.7-7-5.6-10.1-8.8
			c-13.1,13.1-21.3,31.3-21.3,51.3c0,0.2,0,0.3,0,0.5c0,1.8,0.1,3.7,0.3,5.5c0.1,0.7,0.1,1.4,0.2,2.1c0.2,1.5,0.4,3,0.7,4.5
			c0.2,0.8,0.3,1.7,0.4,2.5c0.3,1.4,0.7,2.7,1,4c8.4,30.7,36.6,53.4,69.9,53.4c3.1,0,6.2-0.3,9.2-0.7c2.2-0.3,4.5-0.7,6.6-1.1
			C232.2,529.2,234.4,528.7,236.5,528z"/>
		<path fill="#2F383E" d="M57.4,333.2c1.9,1.5,3.8,2.9,5.8,4.2c11.4,7.5,25,11.8,39.6,11.8c13.1,0,25.3-3.5,35.9-9.6
			c0.1-1.4,0.3-2.8,0.6-4.2c0.3-2.4,0.7-4.8,1.3-7.1c0.5-2.2,1-4.4,1.7-6.6c5.8-18.4,17.6-34.1,33.2-44.9c0-0.1,0-0.1,0-0.2
			c0-40-32.6-72.6-72.6-72.6s-72.6,32.6-72.6,72.6c0,20.4,8.5,38.8,22.1,52C53.9,330.3,55.6,331.8,57.4,333.2z"/>
		<path fill="#2F383E" d="M154.6,327.5c-0.2,0.6-0.3,1.2-0.5,1.8c-0.6,2.4-1.1,4.8-1.5,7.2c-0.1,0.7-0.2,1.4-0.3,2.1
			c-0.3,2-0.4,4.1-0.5,6.2c0,0.8-0.1,1.7-0.1,2.6c0,0.1,0,0.1,0,0.2c0,15.3,4.8,29.5,12.9,41.2c1.3,1.8,2.6,3.6,4,5.3
			c1.4,1.7,3,3.4,4.6,5c0.7,0.7,1.4,1.2,2.1,1.9c2,1.9,4.2,3.6,6.4,5.3c2,1.4,4,2.8,6.2,4c10.7,6.3,23.1,9.9,36.4,9.9
			c6.2,0,12.2-0.9,17.9-2.3c1.9-7.6,4.8-14.8,8.6-21.5c1.1-2,2.2-3.9,3.5-5.8c1.3-1.9,2.6-3.6,4-5.4c9.8-12.3,22.8-21.7,37.8-27.2
			c0.5-3.4,0.8-6.9,0.8-10.4c0-19.4-7.7-37-20.2-50.1c0.9-2.3,1.8-4.6,2.8-6.8c0.9-2.1,2-4.2,3-6.2c26.4-53.1,77.9-84.8,132.1-107.5
			c21-8.8,11.8-43.4-9.5-34.5c-64,26.8-121.4,62.9-153.2,123.8c-1,2-2,4-2.9,6c-1,2-2,4-2.9,6.1c-6.9-2.2-14.2-3.4-21.8-3.4
			c-13,0-25.3,3.5-35.9,9.6c-2.6,1.5-5.1,3.1-7.4,4.9c-3,2.2-5.9,4.7-8.5,7.3C164.2,305.3,158,315.8,154.6,327.5z"/>
		<path fill="#2F383E" d="M278,493.4c1.7,1.5,3.5,2.9,5.3,4.2c1.8,1.3,3.7,2.5,5.6,3.6c10.8,6.3,23.2,10,36.6,10
			c40,0,72.6-32.6,72.6-72.6c0-40-32.6-72.6-72.6-72.6c-6.2,0-12.2,0.9-17.9,2.3c-2.6,0.7-5.1,1.4-7.5,2.4c-2.9,1.1-5.8,2.3-8.5,3.8
			c-8.6,4.6-16.3,10.9-22.4,18.4c-1.4,1.7-2.7,3.5-4,5.4c-1.3,1.9-2.5,3.9-3.6,5.9c-1.3,2.4-2.5,4.9-3.5,7.5
			c-1.2,2.9-2.1,5.8-2.9,8.8c-0.7,2.5-1.2,5.1-1.5,7.7c-0.5,3.4-0.8,6.9-0.8,10.4C252.9,460.5,262.7,480.1,278,493.4z"/>
		<path fill="#2F383E" d="M454.6,332.7c0,0-55.5-163.2-121.7-82.3C266.7,331.2,408.4,364,454.6,332.7z"/>
	</g>
</g>
</svg>
