<?xml version="1.0" encoding="utf-8"?>
<!-- Generator: Adobe Illustrator 18.1.1, SVG Export Plug-In . SVG Version: 6.00 Build 0)  -->
<svg version="1.1" id="Capa_1" xmlns="http://www.w3.org/2000/svg" xmlns:xlink="http://www.w3.org/1999/xlink" x="0px" y="0px"
	 viewBox="-49 141 512 512" enable-background="new -49 141 512 512" xml:space="preserve">
<g>
	<g>
		<g>
			<g>
				<path fill="#2F383E" d="M291.5,141C147.2,223.4,95.3,399-49,481.5C8.3,538.8,65.2,595.7,122.5,653
					C266.8,570.6,318.7,395,463,312.5C405.7,255.2,348.8,198.3,291.5,141z M267.2,457.2c-33.3,33.3-87.4,33.3-120.3,0
					c-33.3-33.3-33.3-87.4,0-120.3c33.3-33.3,87.4-33.3,120.3,0C300.4,370.1,300.4,423.9,267.2,457.2z"/>
			</g>
		</g>
		<path fill="#2F383E" d="M245.6,390.5c-12.4-12.4-32.6-12.4-45,0c-5.3,5.3-14,5.3-19.2,0c-5.2-5.3-5.3-14,0-19.2
			c2.7-2.7,6.3-4.1,10-4c5,0.1,9.2-3.8,9.4-8.8c0.1-5-3.8-9.2-8.8-9.4c-5.6-0.2-11.2,1.1-16.1,3.9l-4.5-4.5c-3.6-3.6-9.3-3.6-12.9,0
			s-3.6,9.3,0,12.9l4.5,4.5c-6.5,12-4.7,27.5,5.5,37.6c12.4,12.4,32.6,12.4,45,0c5.3-5.3,14-5.3,19.2,0c5.3,5.3,5.3,14,0,19.2
			c-2.7,2.7-6.3,4.1-10,4c-5-0.1-9.2,3.8-9.4,8.8c-0.1,5,3.8,9.2,8.8,9.4c5.6,0.2,11.2-1.1,16.1-3.9l4.5,4.5c3.6,3.6,9.3,3.6,12.9,0
			c3.6-3.6,3.6-9.3,0-12.9l-4.5-4.5C257.6,416.1,255.8,400.8,245.6,390.5z"/>
	</g>
</g>
</svg>
