<?xml version="1.0" encoding="iso-8859-1"?>
<!-- Generator: Adobe Illustrator 19.0.0, SVG Export Plug-In . SVG Version: 6.00 Build 0)  -->
<svg xmlns="http://www.w3.org/2000/svg" xmlns:xlink="http://www.w3.org/1999/xlink" version="1.1" id="Capa_1" x="0px" y="0px" viewBox="0 0 490 490" style="enable-background:new 0 0 490 490;" xml:space="preserve" width="512px" height="512px">
<g>
	<g>
		<g>
			<g>
				<path d="M325.9,0C187.8,78.9,138.1,246.9,0,325.9C54.8,380.7,109.3,435.2,164.1,490C302.2,411.1,351.9,243.1,490,164.1      C435.2,109.3,380.7,54.8,325.9,0z M302.6,302.6c-31.9,31.9-83.6,31.9-115.1,0c-31.9-31.9-31.9-83.6,0-115.1      c31.9-31.9,83.6-31.9,115.1,0C334.4,219.3,334.4,270.7,302.6,302.6z" fill="#FFFFFF"/>
			</g>
		</g>
		<path d="M281.9,238.8c-11.9-11.9-31.2-11.9-43.1,0c-5.1,5.1-13.4,5.1-18.4,0s-5.1-13.4,0-18.4c2.6-2.6,6-3.9,9.6-3.8    c4.8,0.1,8.8-3.6,9-8.4c0.1-4.8-3.6-8.8-8.4-9c-5.4-0.2-10.7,1.1-15.4,3.7l-4.3-4.3c-3.4-3.4-8.9-3.4-12.3,0    c-3.4,3.4-3.4,8.9,0,12.3l4.3,4.3c-6.2,11.5-4.5,26.3,5.3,36c11.9,11.9,31.2,11.9,43.1,0c5.1-5.1,13.4-5.1,18.4,0    c5.1,5.1,5.1,13.4,0,18.4c-2.6,2.6-6,3.9-9.6,3.8c-4.8-0.1-8.8,3.6-9,8.4c-0.1,4.8,3.6,8.8,8.4,9c5.4,0.2,10.7-1.1,15.4-3.7    l4.3,4.3c3.4,3.4,8.9,3.4,12.3,0s3.4-8.9,0-12.3l-4.3-4.3C293.4,263.3,291.7,248.6,281.9,238.8z" fill="#FFFFFF"/>
	</g>
</g>
<g>
</g>
<g>
</g>
<g>
</g>
<g>
</g>
<g>
</g>
<g>
</g>
<g>
</g>
<g>
</g>
<g>
</g>
<g>
</g>
<g>
</g>
<g>
</g>
<g>
</g>
<g>
</g>
<g>
</g>
</svg>
