<?xml version="1.0" encoding="iso-8859-1"?>
<!-- Generator: Adobe Illustrator 19.0.0, SVG Export Plug-In . SVG Version: 6.00 Build 0)  -->
<svg xmlns="http://www.w3.org/2000/svg" xmlns:xlink="http://www.w3.org/1999/xlink" version="1.1" id="Capa_1" x="0px" y="0px" viewBox="0 0 488.501 488.501" style="enable-background:new 0 0 488.501 488.501;" xml:space="preserve" width="512px" height="512px">
<g>
	<path d="M477,93.001H11.6c-6.4,0-11.6,5.2-11.6,11.6v279.3c0,6.4,5.2,11.6,11.6,11.6h465.3c6.4,0,11.6-5.2,11.6-11.6v-279.2   C488.6,98.201,483.4,93.001,477,93.001z M452.5,312.601c-3.4-0.9-6.9-1.3-10.6-1.3c-23.7,0-42.9,19.2-42.9,42.9   c0,1.8,0.1,3.6,0.3,5.3H85.8c0.5-2.6,0.7-5.2,0.7-7.9c0-23.7-19.2-42.9-42.9-42.9c-2.6,0-5.1,0.2-7.5,0.7v-130.2   c2.4,0.4,5,0.7,7.5,0.7c23.7,0,42.9-19.2,42.9-42.9c0-2.7-0.3-5.3-0.7-7.9h314.5c-0.8,3.3-1.3,6.8-1.3,10.5   c0,23.7,19.2,42.9,42.9,42.9c3.7,0,7.2-0.5,10.6-1.3V312.601z M412.4,234.001v20.6c0,3.2-2.6,5.7-5.7,5.7h-36   c-3.2,0-5.7-2.6-5.7-5.7v-20.6c0-3.2,2.6-5.7,5.7-5.7h36C409.8,228.301,412.4,230.801,412.4,234.001z M123.6,234.001v20.6   c0,3.2-2.6,5.7-5.7,5.7h-36c-3.2,0-5.7-2.6-5.7-5.7v-20.6c0-3.2,2.6-5.7,5.7-5.7h36C121.1,228.301,123.6,230.801,123.6,234.001z    M244.3,151.501c-51.2,0-92.8,41.5-92.8,92.8c0,51.2,41.5,92.8,92.8,92.8c51.2,0,92.8-41.5,92.8-92.8   C337.1,193.101,295.5,151.501,244.3,151.501z M238.3,228.301c1.8,2.1,5.1,4.2,9.9,6.3c11.2,4.8,19.4,9.6,24.7,14.3   c5.3,4.8,7.9,11.6,7.9,20.4c0,8.4-2.6,15.2-7.9,20.3c-4.5,4.4-10.3,7.2-17.5,8.5v12.2c0,1.6-1.3,2.9-2.9,2.9h-10.6   c-1.6,0-2.9-1.3-2.9-2.9v-11.9c-8.9-1.1-16.4-4.3-22.3-9.7c-5.5-5-8.5-12.1-8.9-21.3c-0.1-1.9,1.5-3.5,3.4-3.5l17.3-0.3   c1.7,0,3.3,1.3,3.4,3c0.4,4.4,1.6,7.7,3.8,9.9c2.6,2.6,6,4,10.1,4c3.5,0,6.1-1,7.9-3s2.7-4.7,2.7-8c0-3.8-0.9-6.8-2.8-8.9   c-1.8-2.1-5.1-4.2-9.8-6.2c-11.4-4.5-19.7-9.1-24.9-13.8s-7.8-11.5-7.8-20.5c0-8.2,2.8-14.9,8.3-20.2c5-4.8,11.5-7.8,19.6-8.9   v-12.7c0-1.6,1.3-2.9,2.9-2.9h10.6c1.6,0,2.9,1.3,2.9,2.9v13.1c7.6,1.5,13.7,5,18.2,10.3c4.4,5.1,6.9,11.5,7.3,19.1   c0.1,1.9-1.5,3.5-3.4,3.5l-17.4,0.3c-1.7,0-3.3-1.2-3.4-2.9c-0.3-3.8-1.3-6.7-2.9-8.8c-2-2.6-4.7-3.9-8.1-3.9s-6,1.1-7.6,3.2   c-1.6,2.1-2.5,4.8-2.5,8.1C235.6,223.501,236.5,226.201,238.3,228.301z" fill="#FFFFFF"/>
</g>
<g>
</g>
<g>
</g>
<g>
</g>
<g>
</g>
<g>
</g>
<g>
</g>
<g>
</g>
<g>
</g>
<g>
</g>
<g>
</g>
<g>
</g>
<g>
</g>
<g>
</g>
<g>
</g>
<g>
</g>
</svg>
