<?xml version="1.0" encoding="utf-8"?>
<!-- Generator: Adobe Illustrator 18.1.1, SVG Export Plug-In . SVG Version: 6.00 Build 0)  -->
<svg version="1.1" id="Capa_1" xmlns="http://www.w3.org/2000/svg" xmlns:xlink="http://www.w3.org/1999/xlink" x="0px" y="0px"
	 viewBox="-49 141 512 512" enable-background="new -49 141 512 512" xml:space="preserve">
<g>
	<path fill="#2F383E" d="M450.9,238.5H-36.8c-6.7,0-12.2,5.5-12.2,12.2v292.7c0,6.7,5.5,12.2,12.2,12.2h487.7
		c6.7,0,12.2-5.5,12.2-12.2V250.7C463.1,243.9,457.7,238.5,450.9,238.5z M425.3,468.6c-3.6-0.9-7.2-1.4-11.1-1.4
		c-24.8,0-45,20.1-45,45c0,1.9,0.1,3.8,0.3,5.6H40.9c0.5-2.7,0.7-5.5,0.7-8.3c0-24.8-20.1-45-45-45c-2.7,0-5.3,0.2-7.9,0.7V328.8
		c2.5,0.4,5.2,0.7,7.9,0.7c24.8,0,45-20.1,45-45c0-2.8-0.3-5.6-0.7-8.3h329.6c-0.8,3.5-1.4,7.1-1.4,11c0,24.8,20.1,45,45,45
		c3.9,0,7.5-0.5,11.1-1.4V468.6z M383.2,386.3v21.6c0,3.4-2.7,6-6,6h-37.7c-3.4,0-6-2.7-6-6v-21.6c0-3.4,2.7-6,6-6h37.7
		C380.5,380.3,383.2,382.9,383.2,386.3z M80.5,386.3v21.6c0,3.4-2.7,6-6,6H36.8c-3.4,0-6-2.7-6-6v-21.6c0-3.4,2.7-6,6-6h37.7
		C77.9,380.3,80.5,382.9,80.5,386.3z M207.1,299.8c-53.7,0-97.3,43.5-97.3,97.3c0,53.7,43.5,97.3,97.3,97.3
		c53.7,0,97.3-43.5,97.3-97.3C304.3,343.4,260.7,299.8,207.1,299.8z M200.8,380.3c1.9,2.2,5.3,4.4,10.4,6.6
		c11.7,5,20.3,10.1,25.9,15c5.6,5,8.3,12.2,8.3,21.4c0,8.8-2.7,15.9-8.3,21.3c-4.7,4.6-10.8,7.5-18.3,8.9v12.8c0,1.7-1.4,3-3,3
		h-11.1c-1.7,0-3-1.4-3-3v-12.5c-9.3-1.2-17.2-4.5-23.4-10.2c-5.8-5.2-8.9-12.7-9.3-22.3c-0.1-2,1.6-3.7,3.6-3.7l18.1-0.3
		c1.8,0,3.5,1.4,3.6,3.1c0.4,4.6,1.7,8.1,4,10.4c2.7,2.7,6.3,4.2,10.6,4.2c3.7,0,6.4-1,8.3-3.1c1.9-2.1,2.8-4.9,2.8-8.4
		c0-4-0.9-7.1-2.9-9.3c-1.9-2.2-5.3-4.4-10.3-6.5c-11.9-4.7-20.6-9.5-26.1-14.5s-8.2-12.1-8.2-21.5c0-8.6,2.9-15.6,8.7-21.2
		c5.2-5,12.1-8.2,20.5-9.3v-13.3c0-1.7,1.4-3,3-3h11.1c1.7,0,3,1.4,3,3v13.7c8,1.6,14.4,5.2,19.1,10.8c4.6,5.3,7.2,12.1,7.7,20
		c0.1,2-1.6,3.7-3.6,3.7l-18.2,0.3c-1.8,0-3.5-1.3-3.6-3c-0.3-4-1.4-7-3-9.2c-2.1-2.7-4.9-4.1-8.5-4.1c-3.6,0-6.3,1.2-8,3.4
		s-2.6,5-2.6,8.5C197.9,375.3,198.9,378.1,200.8,380.3z"/>
</g>
</svg>
