<?xml version="1.0" encoding="iso-8859-1"?>
<!-- Generator: Adobe Illustrator 18.1.1, SVG Export Plug-In . SVG Version: 6.00 Build 0)  -->
<svg xmlns="http://www.w3.org/2000/svg" xmlns:xlink="http://www.w3.org/1999/xlink" version="1.1" id="Capa_1" x="0px" y="0px" viewBox="0 0 100 100" style="enable-background:new 0 0 100 100;" xml:space="preserve" width="512px" height="512px">
<g>
	<path d="M45.5,52.5h9v10H100c0,0-0.74-22.289-1-29.268C98.754,26.601,96.381,22.5,89,22.5H72.961   c-2.486-4.686-5.162-9.727-5.984-11.274C65.322,8.106,64.758,7.5,61.08,7.5H38.92c-3.678,0-4.242,0.606-5.896,3.726   c-0.823,1.547-3.499,6.588-5.983,11.274H11c-7.381,0-9.727,4.102-10,10.732S0,62.5,0,62.5h45.5V52.5z M38.25,17.078   c1.146-2.159,1.537-2.578,4.082-2.578h15.336c2.545,0,2.938,0.419,4.082,2.578c0.43,0.81,1.592,3.001,2.877,5.422H35.373   C36.658,20.079,37.82,17.888,38.25,17.078z M54.5,77.5h-9v-10h-43c0,0,0.623,8.99,1,16.613c0.156,3.16,1.086,8.387,8.996,8.387   h75.008c7.91,0,8.82-5.228,8.996-8.387c0.436-7.84,1-16.613,1-16.613h-43C54.5,67.5,54.5,77.5,54.5,77.5z" fill="#FFFFFF"/>
</g>
<g>
</g>
<g>
</g>
<g>
</g>
<g>
</g>
<g>
</g>
<g>
</g>
<g>
</g>
<g>
</g>
<g>
</g>
<g>
</g>
<g>
</g>
<g>
</g>
<g>
</g>
<g>
</g>
<g>
</g>
</svg>
