<?xml version="1.0" encoding="utf-8"?>
<!-- Generator: Adobe Illustrator 18.1.1, SVG Export Plug-In . SVG Version: 6.00 Build 0)  -->
<svg version="1.1" id="Capa_1" xmlns="http://www.w3.org/2000/svg" xmlns:xlink="http://www.w3.org/1999/xlink" x="0px" y="0px"
	 viewBox="-49 141 512 512" enable-background="new -49 141 512 512" xml:space="preserve">
<g>
	<path fill="#2F383E" d="M184,409.8H230V461h233c0,0-3.8-114.1-5.1-149.9c-1.3-34-13.4-54.9-51.2-54.9h-82.1
		c-12.7-24-26.4-49.8-30.6-57.7c-8.5-16-11.4-19.1-30.2-19.1H150.3c-18.8,0-21.7,3.1-30.2,19.1c-4.2,7.9-17.9,33.7-30.6,57.7H7.3
		c-37.8,0-49.8,21-51.2,54.9S-49,461-49,461h233V409.8z M146.8,228.4c5.9-11.1,7.9-13.2,20.9-13.2h78.5c13,0,15,2.1,20.9,13.2
		c2.2,4.1,8.2,15.4,14.7,27.8H132.1C138.7,243.8,144.6,232.6,146.8,228.4z M230,537.8H184v-51.2H-36.2c0,0,3.2,46,5.1,85.1
		c0.8,16.2,5.6,42.9,46.1,42.9h384c40.5,0,45.2-26.8,46.1-42.9c2.2-40.1,5.1-85.1,5.1-85.1H230C230,486.6,230,537.8,230,537.8z"/>
</g>
</svg>
