<?xml version="1.0" encoding="utf-8"?>
<!-- Generator: Adobe Illustrator 18.1.1, SVG Export Plug-In . SVG Version: 6.00 Build 0)  -->
<svg version="1.1" id="Capa_1" xmlns="http://www.w3.org/2000/svg" xmlns:xlink="http://www.w3.org/1999/xlink" x="0px" y="0px"
	 viewBox="-49 141 512 512" enable-background="new -49 141 512 512" xml:space="preserve">
<g>
	<g>
		<path fill="#2F383E" d="M422.1,370.9H-8.1v203.9h-37.1v60.2h504.5v-60.2h-37.1L422.1,370.9L422.1,370.9z M104.5,574.9H41.2V417.8
			c0-17.4,14.2-31.6,31.6-31.6c17.4,0,31.6,14.2,31.6,31.6V574.9z M238.6,574.9h-63.2V417.8c0-17.4,14.2-31.6,31.6-31.6
			c17.4,0,31.6,14.2,31.6,31.6V574.9z M371.3,574.9h-63.2V417.8c0-17.4,14.2-31.6,31.6-31.6c17.4,0,31.6,14.2,31.6,31.6L371.3,574.9
			L371.3,574.9L371.3,574.9z"/>
		<path fill="#2F383E" d="M446.8,327.5v-17.3L206.6,158.9L-32.8,309.7v17.8H-49v25.2h512v-25.2H446.8z M207,224.5
			c21.6,0,39.1,17.5,39.1,39.1s-17.5,39.1-39.1,39.1s-39.1-17.5-39.1-39.1C167.9,242,185.4,224.5,207,224.5z"/>
	</g>
</g>
</svg>
