<?xml version="1.0" encoding="iso-8859-1"?>
<!-- Generator: Adobe Illustrator 16.0.0, SVG Export Plug-In . SVG Version: 6.00 Build 0)  -->
<!DOCTYPE svg PUBLIC "-//W3C//DTD SVG 1.1//EN" "http://www.w3.org/Graphics/SVG/1.1/DTD/svg11.dtd">
<svg xmlns="http://www.w3.org/2000/svg" xmlns:xlink="http://www.w3.org/1999/xlink" version="1.1" id="Capa_1" x="0px" y="0px" width="512px" height="512px" viewBox="0 0 124.334 124.334" style="enable-background:new 0 0 124.334 124.334;" xml:space="preserve">
<g>
	<g>
		<path d="M114.412,55.837H9.922v49.525H0.915v14.627H123.42v-14.627h-9.007L114.412,55.837L114.412,55.837z M37.265,105.362H21.906    V67.22c0-4.234,3.445-7.68,7.68-7.68c4.234,0,7.679,3.445,7.679,7.68V105.362z M69.846,105.362H54.488V67.22    c0-4.234,3.445-7.68,7.679-7.68c4.233,0,7.679,3.445,7.679,7.68V105.362z M102.072,105.362H86.713V67.22    c0-4.234,3.445-7.68,7.68-7.68c4.233,0,7.678,3.445,7.678,7.68v38.143H102.072z" fill="#FFFFFF"/>
		<path d="M120.402,45.294v-4.213L62.076,4.345L3.932,40.961v4.333H0v6.108h124.334v-6.108H120.402z M62.167,20.274    c5.25,0,9.507,4.256,9.507,9.507c0,5.251-4.257,9.507-9.507,9.507s-9.507-4.256-9.507-9.507    C52.66,24.53,56.917,20.274,62.167,20.274z" fill="#FFFFFF"/>
	</g>
</g>
<g>
</g>
<g>
</g>
<g>
</g>
<g>
</g>
<g>
</g>
<g>
</g>
<g>
</g>
<g>
</g>
<g>
</g>
<g>
</g>
<g>
</g>
<g>
</g>
<g>
</g>
<g>
</g>
<g>
</g>
</svg>
