<?xml version="1.0" encoding="utf-8"?>
<!-- Generator: Adobe Illustrator 18.1.1, SVG Export Plug-In . SVG Version: 6.00 Build 0)  -->
<svg version="1.1" id="Capa_1" xmlns="http://www.w3.org/2000/svg" xmlns:xlink="http://www.w3.org/1999/xlink" x="0px" y="0px"
	 viewBox="-49 141 512 512" enable-background="new -49 141 512 512" xml:space="preserve">
<g>
	<path fill="#2F383E" d="M402.3,397.1c-2.3,11.5-12.5,19.8-24.7,20.4c-3.8,0.2-7.1,3-7.8,6.8c-0.8,3.8,1.1,7.6,4.6,9.2
		c11.1,5.2,17.3,16.8,14.9,28.3l-2.2,10.9c-2.9,14.4-18.8,23.4-32.7,20c-3.9-0.9-7.9-1.7-11.8-2.4c-5.8-1.1-11.6-2.3-17.5-3.5
		c-7.7-1.6-15.4-3.1-23.1-4.6c-9.1-1.8-18.3-3.7-27.5-5.5c-10.2-2.1-20.5-4.1-30.7-6.2c-10.9-2.2-21.9-4.4-32.8-6.6
		c-11.2-2.2-22.4-4.5-33.6-6.8c-11.1-2.2-22.2-4.5-33.3-6.7c-10.6-2.1-21.2-4.3-31.8-6.4c-9.7-1.9-19.4-3.9-29.1-5.8
		c-8.4-1.7-16.8-3.4-25.2-5c-6.7-1.4-13.4-2.7-20.2-4.1c-4.6-0.9-9.2-1.9-13.9-2.8c-2.1-0.4-4.3-0.9-6.4-1.3c-0.1,0-0.2-0.1-0.3-0.1
		c1.1,5.4,0.6,11.2-1.9,16.6c-5.2,11.3-17.5,17.3-29.2,15c-3.5-0.7-7.3,0.6-8.8,3.8l-4.7,10.1c-1.5,3.2,0,7,2.8,9.2
		c0.5,0.4,375.1,173.1,375.7,173.2c3.5,0.7,7.3-0.6,8.8-3.8l4.7-10.1c1.5-3.2,0-7-2.8-9.2c-9.4-7.4-12.8-20.6-7.5-31.9
		c5.2-11.3,17.5-17.3,29.2-15c3.5,0.7,7.3-0.6,8.8-3.8l4.7-10.1c1.5-3.2,0-7-2.8-9.2c-9.4-7.4-12.8-20.6-7.5-31.9s17.5-17.3,29.2-15
		c3.5,0.7,7.3-0.6,8.8-3.8l4.7-10.1c1.5-3.2,0-7-2.8-9.2c-9.4-7.4-12.8-20.6-7.5-31.9c5.2-11.3,17.5-17.3,29.2-15
		c3.5,0.7,7.3-0.6,8.8-3.8l5.1-11.2c1.5-3.2,0.1-7-3.1-8.5l-56-25.8L402.3,397.1z"/>
	<path fill="#2F383E" d="M-44,393.5c0.6,0.3,404.9,81.4,405.6,81.4c3.5-0.2,7-2.3,7.6-5.8l2.2-10.9c0.7-3.5-1.6-6.8-4.8-8.3
		c-10.8-5.1-17.2-17-14.8-29.3c2.4-12.3,13-20.8,24.9-21.4c3.5-0.2,7-2.3,7.6-5.8l1.6-8l0.6-3c0.7-3.5-1.6-6.8-4.8-8.3
		c-10.8-5.1-17.2-17-14.8-29.3c2.4-12.3,13-20.8,24.9-21.4c3.5-0.2,7-2.3,7.6-5.8l2.2-10.9c0.7-3.5-1.6-6.8-4.8-8.3
		c-10.8-5.1-17.2-17-14.8-29.3c2.4-12.3,13-20.8,24.9-21.4c3.5-0.2,7-2.3,7.6-5.8l2.4-12.1c0.7-3.5-1.6-6.9-5-7.5
		c0,0-406.3-81.5-406.7-81.5c-3,0-5.7,2.1-6.3,5.1l-2.4,12.1c-0.7,3.5,1.6,6.8,4.8,8.3c10.8,5.1,17.2,17,14.8,29.3
		s-13,20.8-24.9,21.4c-3.5,0.2-7,2.3-7.6,5.8l-2.2,10.9c-0.7,3.5,1.6,6.8,4.8,8.3c10.8,5.1,17.2,17,14.8,29.3
		c-2.4,12.3-13,20.8-24.9,21.4c-3.5,0.2-7,2.3-7.6,5.8l-2.2,10.9c-0.7,3.5,1.6,6.8,4.8,8.3c10.8,5.1,17.2,17,14.8,29.3
		c-2.4,12.3-13,20.8-24.9,21.4c-3.5,0.2-7,2.3-7.6,5.8l-2.2,10.9C-49.5,388.7-47.2,392-44,393.5z M302.3,260.3
		c1.4-7,8.3-11.6,15.3-10.2c7,1.4,11.6,8.3,10.2,15.3l-17.1,85.3l-10.5,52.6c-1.2,6.2-6.7,10.4-12.7,10.4c-0.8,0-1.7-0.1-2.5-0.3
		c-7-1.4-11.6-8.3-10.2-15.3l11.8-58.7L302.3,260.3z M68.1,213.3c1.4-7,8.3-11.6,15.3-10.2c7,1.4,11.6,8.3,10.2,15.3l-5.9,29.5
		l-6.7,33.4l-5.4,26.9l-9.6,48.1c-1.2,6.2-6.7,10.4-12.7,10.4c-0.8,0-1.7-0.1-2.5-0.3c-0.4-0.1-0.7-0.2-1-0.3
		c-6.4-1.9-10.4-8.4-9.1-15l1.9-9.7l5-25.1L68.1,213.3z"/>
</g>
</svg>
