<?xml version="1.0" encoding="iso-8859-1"?>
<!-- Generator: Adobe Illustrator 19.0.0, SVG Export Plug-In . SVG Version: 6.00 Build 0)  -->
<svg xmlns="http://www.w3.org/2000/svg" xmlns:xlink="http://www.w3.org/1999/xlink" version="1.1" id="Capa_1" x="0px" y="0px" viewBox="0 0 296 296" style="enable-background:new 0 0 296 296;" xml:space="preserve" width="512px" height="512px">
<g>
	<path d="M271.167,0H25.499C11.714,0,0,10.732,0,24.518v216.299c0,11.241,7.736,20.893,18.003,24.073   c2.324,0.72,4.952,1.11,7.496,1.11H33v12.788C33,286.886,39.841,296,47.935,296h19.381C75.411,296,82,286.885,82,278.788V266h132   v12.788c0,8.098,7.174,17.212,15.268,17.212h19.381c8.096,0,14.352-9.115,14.352-17.212V266h8.167c2.531,0,4.814-0.388,7.127-1.101   C288.581,261.73,296,252.07,296,240.816V24.518C296,10.732,284.952,0,271.167,0z M99,133.334c0-6.338,1.208-12.39,3.386-17.956   l-24.737-14.282c-3.826-2.21-5.138-7.103-2.928-10.929c2.209-3.826,7.102-5.136,10.928-2.929l24.741,14.38   C117.813,92.785,128,86.597,140,84.656V56c0-4.418,3.582-8,8-8s8,3.582,8,8v28.656c12,1.94,22.52,8.129,29.944,16.963l24.99-14.38   c3.829-2.212,8.761-0.898,10.969,2.928c2.21,3.826,0.919,8.719-2.907,10.928l-24.726,14.282c2.177,5.566,3.391,11.619,3.391,17.957   c0,5.925-1.044,11.605-2.959,16.868l24.314,14.037c3.826,2.209,5.138,7.102,2.928,10.928c-1.481,2.566-4.171,4.001-6.935,4.001   c-1.357,0-2.732-0.346-3.992-1.073l-24.333-13.953c-7.46,9.315-17.683,15.864-30.683,17.87V210c0,4.418-3.582,8-8,8s-8-3.582-8-8   v-27.988c-12-2.006-22.89-8.555-30.35-17.869l-24.085,13.953c-1.26,0.727-2.594,1.072-3.951,1.072   c-2.766,0-5.433-1.435-6.915-4.001c-2.21-3.826-0.888-8.719,2.938-10.929l24.319-14.037C100.042,144.939,99,139.259,99,133.334z" fill="#FFFFFF"/>
</g>
<g>
</g>
<g>
</g>
<g>
</g>
<g>
</g>
<g>
</g>
<g>
</g>
<g>
</g>
<g>
</g>
<g>
</g>
<g>
</g>
<g>
</g>
<g>
</g>
<g>
</g>
<g>
</g>
<g>
</g>
</svg>
