<?xml version="1.0" encoding="utf-8"?>
<!-- Generator: Adobe Illustrator 18.1.1, SVG Export Plug-In . SVG Version: 6.00 Build 0)  -->
<svg version="1.1" id="Capa_1" xmlns="http://www.w3.org/2000/svg" xmlns:xlink="http://www.w3.org/1999/xlink" x="0px" y="0px"
	 viewBox="-49 141 512 512" enable-background="new -49 141 512 512" xml:space="preserve">
<g>
	<g>
		<path fill="#2F383E" d="M-12.9,620.4c0,10.9,8.9,19.8,19.8,19.8h35.7c10.9,0,19.8-8.9,19.8-19.8v-29.5h-75.3V620.4z"/>
		<path fill="#2F383E" d="M305.5,620.4c0,10.9,8.9,19.8,19.8,19.8H361c10.9,0,19.8-8.9,19.8-19.8v-29.5h-75.3V620.4z"/>
		<path fill="#2F383E" d="M355.7,214.2H13v299.4h342.7V214.2L355.7,214.2z M184.3,458c-38.1,0-70.9-22.6-85.8-55.2
			c-2.8-6.1-4.9-12.5-6.3-19.1H76.7c-7.8,0-14.2-6.3-14.2-14.2v-11.3c0-7.8,6.3-14.2,14.2-14.2h15.6c1.4-6.7,3.6-13.1,6.3-19.1
			c14.8-32.6,47.7-55.2,85.8-55.2c52,0,94.2,42.2,94.2,94.2S236.3,458,184.3,458z"/>
		<circle fill="#2F383E" cx="184.3" cy="363.8" r="53.9"/>
		<path fill="#2F383E" d="M443.2,218.1h-8.5h-17v-42.3c0-12.2-9.9-22.1-22.1-22.1H-26.9c-12.2,0-22.1,9.9-22.1,22.1v375.9
			c0,12.2,9.9,22.1,22.1,22.1h14h75.3h243.1h75.3h14.7c12.2,0,22.1-9.9,22.1-22.1v-42.3h25.5c10.9,0,19.8-8.9,19.8-19.8v-35.7
			c0-10.9-8.9-19.8-19.8-19.8h-25.5V293.5h25.5c10.9,0,19.8-8.9,19.8-19.8V238C463,227,454.1,218.1,443.2,218.1z M13,532h-2
			c-9.4,0-17-7.6-17-17v-1.5V214.2v-1.5c0-9.4,7.6-17,17-17h2h342.7h2c9.4,0,17,7.6,17,17v1.5v299.4v1.5c0,9.4-7.6,17-17,17h-2H13
			L13,532z"/>
	</g>
</g>
</svg>
