<?xml version="1.0" encoding="iso-8859-1"?>
<!-- Generator: Adobe Illustrator 16.0.0, SVG Export Plug-In . SVG Version: 6.00 Build 0)  -->
<!DOCTYPE svg PUBLIC "-//W3C//DTD SVG 1.1//EN" "http://www.w3.org/Graphics/SVG/1.1/DTD/svg11.dtd">
<svg xmlns="http://www.w3.org/2000/svg" xmlns:xlink="http://www.w3.org/1999/xlink" version="1.1" id="Capa_1" x="0px" y="0px" width="512px" height="512px" viewBox="0 0 903.2 903.2" style="enable-background:new 0 0 903.2 903.2;" xml:space="preserve">
<g>
	<g>
		<path d="M63.7,845.75c0,19.3,15.7,35,35,35h62.9c19.3,0,35-15.7,35-35v-52.1H63.7V845.75z" fill="#FFFFFF"/>
		<path d="M625.4,845.75c0,19.3,15.699,35,35,35H723.3c19.3,0,35-15.7,35-35v-52.1H625.4V845.75z" fill="#FFFFFF"/>
		<path d="M713.9,129.05H109.3v528.1H713.9V129.05L713.9,129.05z M411.6,559.25c-67.199,0-125.1-39.899-151.3-97.399    c-4.899-10.7-8.6-22-11.1-33.7h-27.5c-13.8,0-25-11.2-25-25v-20c0-13.8,11.2-25,25-25h27.5c2.5-11.8,6.3-23.1,11.1-33.7    c26.101-57.5,84.101-97.4,151.3-97.4c91.801,0,166.101,74.4,166.101,166.1S503.3,559.25,411.6,559.25z" fill="#FFFFFF"/>
		<circle cx="411.6" cy="393.05" r="95" fill="#FFFFFF"/>
		<path d="M868.2,136.05h-15h-30v-74.6c0-21.5-17.5-39-39-39H39c-21.5,0-39,17.5-39,39v663.1c0,21.5,17.5,39,39,39h24.7h132.9h428.8    H758.3h25.9c21.5,0,39-17.5,39-39v-74.6h45c19.3,0,35-15.7,35-35v-62.9c0-19.3-15.7-35-35-35h-45v-248.1h45c19.3,0,35-15.7,35-35    v-62.9C903.2,151.75,887.5,136.05,868.2,136.05z M109.3,689.75h-3.6c-16.6,0-30-13.399-30-30v-2.6v-528.1v-2.6    c0-16.6,13.4-30,30-30h3.6H713.9h3.6c16.6,0,30,13.4,30,30v2.6v528.1v2.6c0,16.601-13.4,30-30,30h-3.6H109.3L109.3,689.75z" fill="#FFFFFF"/>
	</g>
</g>
<g>
</g>
<g>
</g>
<g>
</g>
<g>
</g>
<g>
</g>
<g>
</g>
<g>
</g>
<g>
</g>
<g>
</g>
<g>
</g>
<g>
</g>
<g>
</g>
<g>
</g>
<g>
</g>
<g>
</g>
</svg>
