<?xml version="1.0" encoding="utf-8"?>
<!-- Generator: Adobe Illustrator 18.1.1, SVG Export Plug-In . SVG Version: 6.00 Build 0)  -->
<svg version="1.1" id="Capa_1" xmlns="http://www.w3.org/2000/svg" xmlns:xlink="http://www.w3.org/1999/xlink" x="0px" y="0px"
	 viewBox="-49 141 512 512" enable-background="new -49 141 512 512" xml:space="preserve">
<g>
	<g>
		<path fill="#2F383E" d="M138.9,240.6h135c27-35,28-61.2,28.4-62.8c2.8-22.7-17.9-40.6-40.1-36.1c-17,4.1-35.6,6.1-55.5,6.1
			s-38.6-2-55.5-5.6c-22.3-4.9-43.4,13.4-40.6,35.6C110.9,179.7,115.2,213.8,138.9,240.6z"/>
		<path fill="#2F383E" d="M280,262.6H133.2C71.1,310.5,27.8,411.5,27.8,496.1C27.8,611.7,108,653,207,653s179.2-41.8,179.2-156.9
			C385.8,411.5,342.5,310.5,280,262.6z M222.9,550.6v11c0,8.8-7.1,15.9-15.9,15.9s-15.9-7.1-15.9-15.9v-11
			c-9.3-2.8-17.8-7.9-24.6-15.2c-6-6.4-5.7-16.4,0.7-22.5c6.4-6,16.4-5.7,22.5,0.7c4.5,4.8,10.7,7.5,17.4,7.5
			c13.1,0,23.7-10.7,23.7-23.7s-10.7-23.7-23.7-23.7c-30.6,0-55.5-24.9-55.5-55.5c0-25.1,16.7-46.3,39.6-53.2v-11
			c0-8.8,7.1-15.9,15.9-15.9s15.9,7.1,15.9,15.9v11c9.3,2.8,17.8,7.9,24.6,15.2c6,6.4,5.7,16.4-0.6,22.5c-6.4,6-16.4,5.7-22.5-0.6
			c-4.5-4.8-10.7-7.5-17.4-7.5c-13.1,0-23.7,10.7-23.7,23.7S194,442,207.1,442c30.6,0,55.5,24.9,55.5,55.5
			C262.5,522.6,245.8,543.8,222.9,550.6z"/>
	</g>
</g>
</svg>
