<?xml version="1.0" encoding="iso-8859-1"?>
<!-- Generator: Adobe Illustrator 19.0.0, SVG Export Plug-In . SVG Version: 6.00 Build 0)  -->
<svg xmlns="http://www.w3.org/2000/svg" xmlns:xlink="http://www.w3.org/1999/xlink" version="1.1" id="Capa_1" x="0px" y="0px" viewBox="0 0 489.866 489.866" style="enable-background:new 0 0 489.866 489.866;" xml:space="preserve" width="512px" height="512px">
<g>
	<g>
		<path d="M179.733,95.266h129.2c25.8-33.5,26.8-58.6,27.2-60.1c2.7-21.7-17.1-38.8-38.4-34.5c-16.3,3.9-34.1,5.8-53.1,5.8    s-36.9-1.9-53.1-5.4c-21.3-4.7-41.5,12.8-38.8,34.1C153.033,37.066,157.133,69.666,179.733,95.266z" fill="#FFFFFF"/>
		<path d="M314.733,116.366h-140.4c-59.4,45.8-100.9,142.4-100.9,223.4c0,110.6,76.8,150.1,171.5,150.1s171.5-40,171.5-150.1    C416.033,258.766,374.533,162.166,314.733,116.366z M260.133,391.866v10.5c0,8.4-6.8,15.2-15.2,15.2c-8.4,0-15.2-6.8-15.2-15.2    v-10.5c-8.9-2.7-17-7.6-23.5-14.5c-5.7-6.1-5.5-15.7,0.7-21.5c6.1-5.7,15.7-5.5,21.5,0.7c4.3,4.6,10.2,7.2,16.6,7.2    c12.5,0,22.7-10.2,22.7-22.7s-10.2-22.7-22.7-22.7c-29.3,0-53.1-23.8-53.1-53.1c0-24,16-44.3,37.9-50.9v-10.5    c0-8.4,6.8-15.2,15.2-15.2c8.4,0,15.2,6.8,15.2,15.2v10.5c8.9,2.7,17,7.6,23.5,14.5c5.7,6.1,5.5,15.7-0.6,21.5    c-6.1,5.7-15.7,5.5-21.5-0.6c-4.3-4.6-10.2-7.2-16.6-7.2c-12.5,0-22.7,10.2-22.7,22.7s10.2,22.7,22.7,22.7    c29.3,0,53.1,23.8,53.1,53.1C298.033,365.066,282.033,385.366,260.133,391.866z" fill="#FFFFFF"/>
	</g>
</g>
<g>
</g>
<g>
</g>
<g>
</g>
<g>
</g>
<g>
</g>
<g>
</g>
<g>
</g>
<g>
</g>
<g>
</g>
<g>
</g>
<g>
</g>
<g>
</g>
<g>
</g>
<g>
</g>
<g>
</g>
</svg>
