<?xml version="1.0" encoding="iso-8859-1"?>
<!-- Generator: Adobe Illustrator 16.0.0, SVG Export Plug-In . SVG Version: 6.00 Build 0)  -->
<!DOCTYPE svg PUBLIC "-//W3C//DTD SVG 1.1//EN" "http://www.w3.org/Graphics/SVG/1.1/DTD/svg11.dtd">
<svg xmlns="http://www.w3.org/2000/svg" xmlns:xlink="http://www.w3.org/1999/xlink" version="1.1" id="Capa_1" x="0px" y="0px" width="512px" height="512px" viewBox="0 0 45.766 45.765" style="enable-background:new 0 0 45.766 45.765;" xml:space="preserve">
<g>
	<g>
		<g>
			<path d="M5.808,39.964c-1.598-0.466-3.063-1.327-4.272-2.537c-0.268-0.268-0.517-0.547-0.748-0.836     c-1.319,2.349-0.982,5.373,1.016,7.37c1.997,1.997,5.023,2.334,7.369,1.015c-0.29-0.229-0.57-0.479-0.836-0.747     C7.105,42.999,6.264,41.528,5.808,39.964z" fill="#FFFFFF"/>
			<path d="M23.896,19.32l-2.388,2.389c0.046,0.833,0.051,1.677,0.008,2.525c0.374-0.02,0.75-0.028,1.13-0.028     c0.476,0,0.949,0.016,1.419,0.044l2.38-2.38l3.386,3.387c1.575,0.448,3.042,1.009,4.347,1.614     c7.48-7.788,14.883-20.48,10.041-25.322c-4.836-4.837-17.505,2.542-25.293,10.014c0.618,1.322,1.18,2.811,1.624,4.41     L23.896,19.32z M32.767,23.094l-3.773-3.774l2.549-2.549l3.551,3.549C34.367,21.249,33.593,22.176,32.767,23.094z M37.231,17.362     l-3.141-3.14l2.549-2.55l2.525,2.526C38.598,15.224,37.951,16.285,37.231,17.362z M42.133,6.182     c-0.095,1.199-0.532,2.779-1.291,4.594L39.19,9.125L42.133,6.182z M39.582,3.631l-2.941,2.943l-1.651-1.651     C36.803,4.164,38.384,3.726,39.582,3.631z M31.565,6.598l2.525,2.526l-2.55,2.549l-3.14-3.14     C29.48,7.812,30.54,7.166,31.565,6.598z M25.443,10.672l3.549,3.55l-2.549,2.549l-3.773-3.773     C23.587,12.171,24.515,11.396,25.443,10.672z" fill="#FFFFFF"/>
			<path d="M22.646,26.287c-0.443,0-0.889,0.015-1.336,0.044c-0.571,3.866-2.233,7.741-5.59,11.098     c-1.894,1.896-4.413,2.938-7.092,2.938c-0.157,0-0.313-0.004-0.468-0.013c0.386,0.871,0.935,1.688,1.649,2.402     c1.542,1.543,3.541,2.299,5.552,2.299c2.038,0,4.088-0.774,5.688-2.299c10.634-10.115,19.707-8.135,16.602-11.239     C35.749,29.619,29.504,26.287,22.646,26.287z" fill="#FFFFFF"/>
			<path d="M8.626,38.284c2.034,0,4.068-0.775,5.62-2.327c10.029-10.029,3.104-24.738,0-27.842c-0.421-0.42-0.748-0.617-1.024-0.617     c-1.766,0-1.471,8.024-10.215,17.219c-3.025,3.181-3.105,8.136,0,11.239C4.559,37.507,6.593,38.284,8.626,38.284z" fill="#FFFFFF"/>
		</g>
	</g>
</g>
<g>
</g>
<g>
</g>
<g>
</g>
<g>
</g>
<g>
</g>
<g>
</g>
<g>
</g>
<g>
</g>
<g>
</g>
<g>
</g>
<g>
</g>
<g>
</g>
<g>
</g>
<g>
</g>
<g>
</g>
</svg>
