<?xml version="1.0" encoding="utf-8"?>
<!-- Generator: Adobe Illustrator 18.1.1, SVG Export Plug-In . SVG Version: 6.00 Build 0)  -->
<svg version="1.1" id="Capa_1" xmlns="http://www.w3.org/2000/svg" xmlns:xlink="http://www.w3.org/1999/xlink" x="0px" y="0px"
	 viewBox="-49 141 512 512" enable-background="new -49 141 512 512" xml:space="preserve">
<g>
	<circle fill="#2F383E" cx="324.5" cy="218.6" r="53.1"/>
	<path fill="#2F383E" d="M459.8,432.5l-81.7-140.2c-3.9-6.7-11.9-11.5-17.8-11.5c-1.4,0-68.1,0-69.5,0c-6,0-13.9,4.7-17.8,11.5
		l-61.6,105.7L143,280.6c-4.3-7.5-12.2-11.6-20.3-11.6c-0.1,0-0.3,0-0.4,0H56.6c-0.2,0-0.3,0-0.4,0c-8.1,0-15.9,4.1-20.3,11.6
		l-81.7,140.2c-6.5,11.2-2.7,25.5,8.4,32c3.7,2.2,7.7,3.2,11.7,3.2c8,0,15.9-4.2,20.2-11.6l36-61.9V409L14.5,525.2
		c-1.4,9.8,6.2,18.5,16.1,18.5l0,0v71.1c0,13.4,10.4,24.8,23.8,25.2c14,0.5,25.6-10.7,25.6-24.6v-71.7h19.5v71.1
		c0,13.4,10.4,24.8,23.8,25.2c14,0.5,25.6-10.7,25.6-24.6v-71.7l0,0c9.9,0,17.5-8.7,16.1-18.5L148.8,409v-25.6l35.5,61
		c1.2,2.1,9.6,16.7,15.3,20.1c3.7,2.2,7.7,3.2,11.7,3.2c8,0,15.9-4.2,20.2-11.6l35-60.1l-0.3,206.9c0,13.6,11,24.7,24.7,24.7
		c0.1,0,0.1,0,0.2,0c0.1,0,0.1,0,0.2,0c13.6,0,24.7-11,24.7-24.7L315.6,478c0-5.2,3.9-9.7,9.1-10.1c5.7-0.4,10.4,4.1,10.4,9.7v124.6
		c0,13.4,10.4,24.8,23.8,25.2c14,0.5,25.6-10.7,25.6-24.6V395.9l35,60.1c4.3,7.5,12.2,11.6,20.2,11.6c4,0,8-1,11.7-3.2
		C462.5,458,466.3,443.7,459.8,432.5z"/>
	<path fill="#2F383E" d="M6.5,259l13.1-1.2c7.6-0.7,12.9-7.7,11.4-15.2c-2.3-11.4-3-27.2,6.4-36.9c0,0.4,0,0.8,0,1.2
		c0,29.3,23.8,53.1,53.1,53.1c29.3,0,53.1-23.8,53.1-53.1c0-0.4,0-0.8,0-1.2c9.4,9.8,8.7,25.5,6.4,36.9c-1.5,7.4,3.8,14.5,11.4,15.2
		l13.1,1.2c6.9,0.6,13.1-4.4,13.8-11.4c1.8-16.8,1.5-42.1-8-52.1c-14.1-14.8-31.4-15-42.7-12.9c-8.8-17.1-26.6-28.7-47.2-28.7
		s-38.3,11.7-47.2,28.7c-11.2-2-28.6-1.9-42.7,12.9c-9.5,10-9.8,35.3-8,52.1C-6.6,254.5-0.5,259.6,6.5,259z"/>
</g>
</svg>
