<?xml version="1.0" encoding="iso-8859-1"?>
<!-- Generator: Adobe Illustrator 17.1.0, SVG Export Plug-In . SVG Version: 6.00 Build 0)  -->
<!DOCTYPE svg PUBLIC "-//W3C//DTD SVG 1.1//EN" "http://www.w3.org/Graphics/SVG/1.1/DTD/svg11.dtd">
<svg xmlns="http://www.w3.org/2000/svg" xmlns:xlink="http://www.w3.org/1999/xlink" version="1.1" id="Capa_1" x="0px" y="0px" viewBox="0 0 228.958 228.958" style="enable-background:new 0 0 228.958 228.958;" xml:space="preserve" width="512px" height="512px">
<path d="M228.958,184.999v11.422c0,4.142-3.357,7.5-7.5,7.5h-89.478c-4.143,0-7.5-3.358-7.5-7.5v-11.422  c0-4.142,3.357-7.5,7.5-7.5h89.478C225.601,177.499,228.958,180.857,228.958,184.999z M216.237,126.929l-3.011-7.319  c-1.729-4.202-5.74-6.938-10.266-7.036c-0.094-0.471-0.231-0.941-0.421-1.402l-2.379-5.784c1.484-0.814,2.66-2.108,3.318-3.686  c0.766-1.836,0.771-3.901,0.015-5.741l-11.951-29.052c-1.466-3.563-5.36-5.388-8.982-4.359l-2.38-5.785  c-0.188-0.457-0.42-0.891-0.69-1.297c3.033-3.151,4.107-7.917,2.339-12.217l-3.011-7.319c-2.723-6.619-9.107-10.896-16.265-10.896  c-2.3,0-4.549,0.446-6.686,1.325l-38.458,15.82c-8.966,3.688-13.26,13.983-9.572,22.95l3.012,7.322  c1.731,4.204,5.749,6.94,10.278,7.033c0.094,0.47,0.231,0.938,0.42,1.397l2.377,5.778c-1.5,0.813-2.687,2.116-3.35,3.705  c-0.641,1.538-0.741,3.234-0.315,4.826l-1.854,0.763c-1.84,0.756-3.304,2.213-4.069,4.049c-0.519,1.245-0.68,2.595-0.499,3.91  l-28.31,11.646c-0.596-0.515-1.271-0.942-2.012-1.251c-1.836-0.766-3.9-0.771-5.74-0.014L4.649,144.378  c-3.83,1.576-5.658,5.958-4.083,9.789l5.831,14.175c0.757,1.84,2.214,3.303,4.05,4.069c0.924,0.385,1.905,0.578,2.887,0.578  c0.97,0,1.939-0.188,2.854-0.564l73.128-30.082c2.704-1.112,4.403-3.624,4.618-6.353l28.309-11.645  c0.796,1.061,1.86,1.907,3.106,2.427c0.924,0.385,1.905,0.578,2.887,0.578c0.97,0,1.939-0.188,2.854-0.564l1.858-0.765  c1.354,2.375,3.864,3.788,6.506,3.788c0.69,0,1.389-0.099,2.077-0.299l2.378,5.78c0.188,0.456,0.418,0.888,0.687,1.292  c-3.04,3.151-4.117,7.922-2.348,12.225l3.012,7.32c2.724,6.619,9.107,10.896,16.265,10.896c2.299,0,4.549-0.446,6.686-1.325  l38.458-15.82C215.632,146.192,219.926,135.896,216.237,126.929z" fill="#FFFFFF"/>
<g>
</g>
<g>
</g>
<g>
</g>
<g>
</g>
<g>
</g>
<g>
</g>
<g>
</g>
<g>
</g>
<g>
</g>
<g>
</g>
<g>
</g>
<g>
</g>
<g>
</g>
<g>
</g>
<g>
</g>
</svg>
