<?xml version="1.0" encoding="iso-8859-1"?>
<!-- Generator: Adobe Illustrator 18.1.1, SVG Export Plug-In . SVG Version: 6.00 Build 0)  -->
<svg xmlns="http://www.w3.org/2000/svg" xmlns:xlink="http://www.w3.org/1999/xlink" version="1.1" id="Capa_1" x="0px" y="0px" viewBox="0 0 612 612" style="enable-background:new 0 0 612 612;" xml:space="preserve" width="512px" height="512px">
<g>
	<g>
		<path d="M588.289,122.599L464.794,86.84v476.859c0,2.383-0.139,4.73-0.394,7.046c15.14,1.494,29.669-7.932,34.052-23.076    l111.812-385.189C615.211,145.401,605.373,127.541,588.289,122.599z" fill="#FFFFFF"/>
		<path d="M182.028,139.871c-13.195,5.757-24.998,14.107-34.787,24.4h23.845C174.176,155.164,177.857,146.981,182.028,139.871z" fill="#FFFFFF"/>
		<path d="M165.25,185.771h-33.881c-6.971,12.444-11.54,26.404-13.032,41.266h41.985    C160.881,212.327,162.571,198.462,165.25,185.771z" fill="#FFFFFF"/>
		<path d="M301.911,164.271c-9.789-10.291-21.59-18.641-34.785-24.398c4.171,7.108,7.852,15.291,10.942,24.398H301.911z" fill="#FFFFFF"/>
		<path d="M147.239,311.301c9.789,10.293,21.592,18.643,34.787,24.4c-4.171-7.11-7.852-15.293-10.942-24.4H147.239z" fill="#FFFFFF"/>
		<path d="M267.314,227.036c-0.665-15.034-2.694-28.955-5.683-41.266h-74.109c-2.99,12.311-5.02,26.233-5.683,41.266H267.314z" fill="#FFFFFF"/>
		<path d="M224.574,131.002c-10.626,0-21.908,12.548-30.247,33.267h60.499C246.485,143.55,235.204,131.002,224.574,131.002z" fill="#FFFFFF"/>
		<path d="M160.32,248.536h-41.984c1.492,14.862,6.061,28.824,13.032,41.266h33.881C162.571,277.111,160.881,263.245,160.32,248.536    z" fill="#FFFFFF"/>
		<path d="M288.834,227.036h41.982c-1.492-14.862-6.061-28.824-13.032-41.266h-33.879    C286.582,198.462,288.275,212.327,288.834,227.036z" fill="#FFFFFF"/>
		<path d="M224.574,344.571c10.628,0,21.911-12.548,30.251-33.267h-60.499C202.666,332.023,213.948,344.571,224.574,344.571z" fill="#FFFFFF"/>
		<path d="M283.904,289.802h33.879c6.971-12.444,11.54-26.404,13.032-41.266h-41.982    C288.275,263.245,286.582,277.111,283.904,289.802z" fill="#FFFFFF"/>
		<path d="M113.042,437.134H94.607v35.093h18.435c14.587,0,21.982-6.002,21.982-17.842    C135.024,442.937,127.63,437.134,113.042,437.134z" fill="#FFFFFF"/>
		<polygon points="172.445,475.423 197.911,475.423 185.053,447.631   " fill="#FFFFFF"/>
		<path d="M400.395,0H48.759C22.126,0,0.457,21.668,0.457,48.302v515.397C0.457,590.332,22.126,612,48.759,612h351.636    c26.633,0,48.3-21.668,48.3-48.302V48.302C448.694,21.668,427.028,0,400.395,0z M224.574,109.502    c70.735,0,128.282,57.547,128.282,128.282s-57.547,128.284-128.282,128.284c-70.733,0-128.278-57.547-128.278-128.284    C96.296,167.052,153.841,109.502,224.574,109.502z M94.607,489.079v20.354c0,4.445-3.604,8.05-8.05,8.05h-0.757    c-4.445,0-8.05-3.604-8.05-8.05v-81.112c0-4.445,3.604-8.05,8.05-8.05h27.243c23.957,0,38.84,13.072,38.84,34.112    c0,21.402-14.883,34.695-38.84,34.695H94.607L94.607,489.079z M230.155,513.765c-1.479,2.316-4.038,3.718-6.785,3.718h-0.943    c-3.143,0-5.998-1.83-7.312-4.685l-9.444-20.525h-40.874l-9.33,20.494c-1.308,2.871-4.171,4.714-7.326,4.714h-1.069    c-2.741,0-5.293-1.394-6.775-3.7c-1.48-2.306-1.686-5.208-0.545-7.701l37.132-81.112c1.312-2.863,4.171-4.698,7.32-4.698h0.771    c0.004,0,0.01,0,0.014,0h0.788c3.136,0,5.985,1.82,7.304,4.665l37.595,81.112C231.829,508.539,231.633,511.449,230.155,513.765z     M265.936,517.483c-11.85,0-24.392-5.002-32.732-13.054c-1.553-1.502-2.441-3.565-2.457-5.724    c-0.018-2.161,0.833-4.238,2.361-5.763l0.51-0.51c3.141-3.134,8.224-3.136,11.366-0.006c4.93,4.906,13.35,8.203,20.953,8.203    c8.505,0,18.435-2.749,18.435-10.497c0.065-7.467-4.449-10.022-18.978-14.43c-12.874-3.89-30.487-9.216-30.487-29.838    c0-15.307,13.517-25.59,33.634-25.59c8.658,0,18.26,2.547,25.059,6.65c1.843,1.112,3.165,2.918,3.669,5.012    c0.504,2.094,0.145,4.302-0.992,6.132l-0.329,0.529c-2.32,3.728-7.201,4.912-10.969,2.655c-4.114-2.463-10.72-4.116-16.437-4.116    c-7.738,0-16.776,2.286-16.776,8.728c0,6.975,4.428,9.43,18.654,13.732c13.081,3.955,30.973,9.363,30.812,30.59    C301.233,506.488,287.047,517.483,265.936,517.483z M336.112,517.483c-11.852,0-24.396-5.002-32.734-13.056    c-1.553-1.5-2.439-3.559-2.457-5.716c-0.02-2.157,0.828-4.234,2.351-5.761l0.508-0.508c3.139-3.145,8.23-3.151,11.377-0.018    c4.93,4.906,13.352,8.203,20.956,8.203c8.503,0,18.431-2.749,18.431-10.497c0.061-7.467-4.451-10.022-18.978-14.43    c-12.874-3.892-30.487-9.22-30.487-29.837c0-15.307,13.519-25.59,33.636-25.59c8.657,0,18.26,2.547,25.061,6.65    c1.851,1.116,3.175,2.93,3.675,5.032c0.5,2.104,0.131,4.318-1.02,6.147l-0.333,0.529c-2.332,3.704-7.197,4.865-10.948,2.62    c-4.112-2.461-10.716-4.116-16.435-4.116c-7.742,0-16.78,2.286-16.78,8.728c0,6.975,4.43,9.43,18.654,13.732    c13.083,3.955,30.975,9.363,30.81,30.59C371.4,506.488,357.219,517.483,336.112,517.483z" fill="#FFFFFF"/>
		<path d="M181.839,248.536c0.665,15.034,2.694,28.957,5.683,41.266h74.109c2.988-12.311,5.018-26.231,5.683-41.266L181.839,248.536    L181.839,248.536z" fill="#FFFFFF"/>
		<path d="M267.126,335.699c13.195-5.757,24.998-14.107,34.785-24.398h-23.843C274.978,320.408,271.297,328.589,267.126,335.699z" fill="#FFFFFF"/>
	</g>
</g>
<g>
</g>
<g>
</g>
<g>
</g>
<g>
</g>
<g>
</g>
<g>
</g>
<g>
</g>
<g>
</g>
<g>
</g>
<g>
</g>
<g>
</g>
<g>
</g>
<g>
</g>
<g>
</g>
<g>
</g>
</svg>
