<?xml version="1.0" encoding="utf-8"?>
<!-- Generator: Adobe Illustrator 18.1.1, SVG Export Plug-In . SVG Version: 6.00 Build 0)  -->
<svg version="1.1" id="Capa_1" xmlns="http://www.w3.org/2000/svg" xmlns:xlink="http://www.w3.org/1999/xlink" x="0px" y="0px"
	 viewBox="-49 141 512 512" enable-background="new -49 141 512 512" xml:space="preserve">
<g>
	<g>
		<path fill="#2F383E" d="M443.2,243.6l-103.3-29.9v398.9c0,2-0.1,4-0.3,5.9c12.7,1.2,24.8-6.6,28.5-19.3l93.5-322.2
			C465.7,262.6,457.5,247.7,443.2,243.6z"/>
		<path fill="#2F383E" d="M103.3,258c-11,4.8-20.9,11.8-29.1,20.4h19.9C96.7,270.8,99.8,264,103.3,258z"/>
		<path fill="#2F383E" d="M89.2,296.4H60.9c-5.8,10.4-9.7,22.1-10.9,34.5h35.1C85.6,318.6,87,307,89.2,296.4z"/>
		<path fill="#2F383E" d="M203.6,278.4c-8.2-8.6-18.1-15.6-29.1-20.4c3.5,5.9,6.6,12.8,9.2,20.4H203.6z"/>
		<path fill="#2F383E" d="M74.2,401.4c8.2,8.6,18.1,15.6,29.1,20.4c-3.5-5.9-6.6-12.8-9.2-20.4H74.2z"/>
		<path fill="#2F383E" d="M174.6,330.9c-0.6-12.6-2.3-24.2-4.8-34.5h-62c-2.5,10.3-4.2,21.9-4.8,34.5H174.6L174.6,330.9z"/>
		<path fill="#2F383E" d="M138.9,250.6c-8.9,0-18.3,10.5-25.3,27.8h50.6C157.2,261.1,147.8,250.6,138.9,250.6z"/>
		<path fill="#2F383E" d="M85.1,348.9H50c1.2,12.4,5.1,24.1,10.9,34.5h28.3C87,372.8,85.6,361.2,85.1,348.9z"/>
		<path fill="#2F383E" d="M192.6,330.9h35.1c-1.2-12.4-5.1-24.1-10.9-34.5h-28.3C190.8,307,192.2,318.6,192.6,330.9z"/>
		<path fill="#2F383E" d="M138.9,429.3c8.9,0,18.3-10.5,25.3-27.8h-50.6C120.6,418.8,130,429.3,138.9,429.3z"/>
		<path fill="#2F383E" d="M188.5,383.4h28.3c5.8-10.4,9.7-22.1,10.9-34.5h-35.1C192.2,361.2,190.8,372.8,188.5,383.4z"/>
		<path fill="#2F383E" d="M45.6,506.7H30.1v29.4h15.4c12.2,0,18.4-5,18.4-14.9C64,511.6,57.8,506.7,45.6,506.7z"/>
		<polygon fill="#2F383E" points="95.3,538.7 116.6,538.7 105.8,515.5 		"/>
		<path fill="#2F383E" d="M286,141H-8.2c-22.3,0-40.4,18.1-40.4,40.4v431.2c0,22.3,18.1,40.4,40.4,40.4H286
			c22.3,0,40.4-18.1,40.4-40.4V181.4C326.4,159.1,308.3,141,286,141z M138.9,232.6c59.2,0,107.3,48.1,107.3,107.3
			s-48.1,107.3-107.3,107.3c-59.2,0-107.3-48.1-107.3-107.3C31.6,280.8,79.7,232.6,138.9,232.6z M30.1,550.2v17c0,3.7-3,6.7-6.7,6.7
			h-0.6c-3.7,0-6.7-3-6.7-6.7v-67.9c0-3.7,3-6.7,6.7-6.7h22.8c20,0,32.5,10.9,32.5,28.5c0,17.9-12.5,29-32.5,29L30.1,550.2
			L30.1,550.2z M143.5,570.8c-1.2,1.9-3.4,3.1-5.7,3.1h-0.8c-2.6,0-5-1.5-6.1-3.9l-7.9-17.2H88.9L81.1,570c-1.1,2.4-3.5,3.9-6.1,3.9
			H74c-2.3,0-4.4-1.2-5.7-3.1c-1.2-1.9-1.4-4.4-0.5-6.4L99,496.5c1.1-2.4,3.5-3.9,6.1-3.9h0.6c0,0,0,0,0,0h0.7c2.6,0,5,1.5,6.1,3.9
			l31.5,67.9C144.9,566.4,144.8,568.9,143.5,570.8z M173.5,573.9c-9.9,0-20.4-4.2-27.4-10.9c-1.3-1.3-2-3-2.1-4.8
			c0-1.8,0.7-3.5,2-4.8l0.4-0.4c2.6-2.6,6.9-2.6,9.5,0c4.1,4.1,11.2,6.9,17.5,6.9c7.1,0,15.4-2.3,15.4-8.8
			c0.1-6.2-3.7-8.4-15.9-12.1c-10.8-3.3-25.5-7.7-25.5-25c0-12.8,11.3-21.4,28.1-21.4c7.2,0,15.3,2.1,21,5.6
			c1.5,0.9,2.6,2.4,3.1,4.2s0.1,3.6-0.8,5.1l-0.3,0.4c-1.9,3.1-6,4.1-9.2,2.2c-3.4-2.1-9-3.4-13.8-3.4c-6.5,0-14,1.9-14,7.3
			c0,5.8,3.7,7.9,15.6,11.5c10.9,3.3,25.9,7.8,25.8,25.6C203,564.7,191.1,573.9,173.5,573.9z M232.2,573.9
			c-9.9,0-20.4-4.2-27.4-10.9c-1.3-1.3-2-3-2.1-4.8c0-1.8,0.7-3.5,2-4.8l0.4-0.4c2.6-2.6,6.9-2.6,9.5,0c4.1,4.1,11.2,6.9,17.5,6.9
			c7.1,0,15.4-2.3,15.4-8.8c0.1-6.2-3.7-8.4-15.9-12.1c-10.8-3.3-25.5-7.7-25.5-25c0-12.8,11.3-21.4,28.1-21.4
			c7.2,0,15.3,2.1,21,5.6c1.5,0.9,2.7,2.5,3.1,4.2c0.4,1.8,0.1,3.6-0.9,5.1l-0.3,0.4c-2,3.1-6,4.1-9.2,2.2c-3.4-2.1-9-3.4-13.7-3.4
			c-6.5,0-14,1.9-14,7.3c0,5.8,3.7,7.9,15.6,11.5c10.9,3.3,25.9,7.8,25.8,25.6C261.7,564.7,249.8,573.9,232.2,573.9z"/>
		<path fill="#2F383E" d="M103.1,348.9c0.6,12.6,2.3,24.2,4.8,34.5h62c2.5-10.3,4.2-21.9,4.8-34.5L103.1,348.9L103.1,348.9z"/>
		<path fill="#2F383E" d="M174.5,421.8c11-4.8,20.9-11.8,29.1-20.4h-19.9C181,409.1,178,415.9,174.5,421.8z"/>
	</g>
</g>
</svg>
