<?xml version="1.0" encoding="iso-8859-1"?>
<!-- Generator: Adobe Illustrator 16.0.0, SVG Export Plug-In . SVG Version: 6.00 Build 0)  -->
<!DOCTYPE svg PUBLIC "-//W3C//DTD SVG 1.1//EN" "http://www.w3.org/Graphics/SVG/1.1/DTD/svg11.dtd">
<svg xmlns="http://www.w3.org/2000/svg" xmlns:xlink="http://www.w3.org/1999/xlink" version="1.1" id="Capa_1" x="0px" y="0px" width="512px" height="512px" viewBox="0 0 485.202 485.202" style="enable-background:new 0 0 485.202 485.202;" xml:space="preserve">
<g>
	<path d="M318.416,106.132c8.378,0,15.163,6.784,15.163,15.166c0,8.38-6.785,15.161-15.163,15.161H166.788   c-8.384,0-15.166-6.781-15.166-15.161c0-8.382,6.782-15.166,15.166-15.166H318.416z M327.181,151.62H158.004   C82.887,206.409,30.32,322.526,30.32,396.271c0,99.181,95.036,88.604,212.28,88.604c117.241,0,212.282,10.576,212.282-88.604   C454.882,322.526,402.316,206.409,327.181,151.62z M158.004,90.969h169.177c0,0,67.048-58.49,36.721-84.075   C333.579-18.693,266.294,35.323,242.6,33.429c-23.692,1.895-90.978-52.122-121.302-26.535   C90.971,32.479,158.004,90.969,158.004,90.969z" fill="#FFFFFF"/>
</g>
<g>
</g>
<g>
</g>
<g>
</g>
<g>
</g>
<g>
</g>
<g>
</g>
<g>
</g>
<g>
</g>
<g>
</g>
<g>
</g>
<g>
</g>
<g>
</g>
<g>
</g>
<g>
</g>
<g>
</g>
</svg>
