<?xml version="1.0" encoding="utf-8"?>
<!-- Generator: Adobe Illustrator 18.1.1, SVG Export Plug-In . SVG Version: 6.00 Build 0)  -->
<svg version="1.1" id="Capa_1" xmlns="http://www.w3.org/2000/svg" xmlns:xlink="http://www.w3.org/1999/xlink" x="0px" y="0px"
	 viewBox="-49 141 512 512" enable-background="new -49 141 512 512" xml:space="preserve">
<g>
	<path fill="#2F383E" d="M287,253c8.8,0,16,7.2,16,16c0,8.8-7.2,16-16,16H127c-8.8,0-16-7.2-16-16c0-8.8,7.2-16,16-16
		C127,253,287,253,287,253z M296.3,301H117.7C38.5,358.8-17,481.3-17,559.2c0,104.7,100.3,93.5,224,93.5c123.7,0,224,11.2,224-93.5
		C431,481.3,375.5,358.8,296.3,301z M117.7,237h178.5c0,0,70.8-61.7,38.7-88.7c-32-27-103,30-128,28c-25,2-96-55-128-28
		C47,175.3,117.7,237,117.7,237z"/>
</g>
</svg>
