<?xml version="1.0" encoding="iso-8859-1"?>
<!-- Generator: Adobe Illustrator 18.0.0, SVG Export Plug-In . SVG Version: 6.00 Build 0)  -->
<!DOCTYPE svg PUBLIC "-//W3C//DTD SVG 1.1//EN" "http://www.w3.org/Graphics/SVG/1.1/DTD/svg11.dtd">
<svg xmlns="http://www.w3.org/2000/svg" xmlns:xlink="http://www.w3.org/1999/xlink" version="1.1" id="Capa_1" x="0px" y="0px" viewBox="0 0 461.136 461.136" style="enable-background:new 0 0 461.136 461.136;" xml:space="preserve" width="512px" height="512px">
<g id="XMLID_242_">
	<path id="XMLID_243_" d="M52.388,79.474c-0.195-0.115-0.385-0.239-0.579-0.355c0.199,19.48,16.044,35.211,35.571,35.211   c19.522,0,35.364-15.724,35.57-35.197c-8.774,5.265-21.217,10.617-35.57,10.617C75.878,89.75,63.778,86.197,52.388,79.474z" fill="#FFFFFF"/>
	<path id="XMLID_1411_" d="M43.81,49.059c0,0,24.18,20.691,43.57,20.691c19.39,0,43.57-20.691,43.57-20.691   c1.798-1.209,2.633-3.424,2.081-5.519l-4.956-18.813c-0.636-2.413-2.269-4.442-4.492-5.578L91.373,2.687   c-1.254-0.641-2.624-0.962-3.993-0.962c-1.37,0-2.74,0.321-3.994,0.962L51.177,19.15c-2.222,1.136-3.856,3.164-4.492,5.578   L41.729,43.54C41.177,45.635,42.012,47.85,43.81,49.059z" fill="#FFFFFF"/>
	<path id="XMLID_1415_" d="M171.522,138.13c0.402,1.99,2.342,3.278,4.332,2.876l2.609-0.527c0.811-4.095,2.3-8.125,4.531-11.923   c6.173-10.512,17.07-17.416,29.068-18.684l-7.144-35.362c-0.402-1.99-2.342-3.278-4.332-2.876l-37.228,7.521   c-1.99,0.402-3.278,2.341-2.876,4.332L171.522,138.13z" fill="#FFFFFF"/>
	<circle id="XMLID_1416_" cx="367.825" cy="37.955" r="37.954" fill="#FFFFFF"/>
	<path id="XMLID_1417_" d="M460.416,131.127c-0.119-23.776-19.56-43.12-43.337-43.12h-49.235c-0.006,0-0.013,0.001-0.019,0.001   c-0.006,0-0.013-0.001-0.019-0.001H318.57c-23.776,0-43.218,19.343-43.337,43.12c-0.047,9.341-0.008,1.635-0.152,30.268   l-49.776-29.23c-0.001-0.001-0.003-0.002-0.005-0.002c-8.112-4.762-18.629-2.594-24.146,5.129   c-6.367,8.895-3.538,21.086,5.604,26.456c84.408,49.567,79.657,47.86,86.459,47.86c9.975,0,18.109-7.964,18.32-17.939   c0.002-0.095,0.01-0.189,0.011-0.285c0.052-10.346,0.275-54.868,0.311-62.073c0.01-2.004,1.64-3.621,3.643-3.616   c2.003,0.005,3.623,1.631,3.623,3.634c0.001,64.209,0.009,297.265,0.009,307.831c0,12.137,9.839,21.976,21.976,21.976   c12.137,0,21.976-9.839,21.976-21.976V268.25c0-2.62,2.124-4.744,4.744-4.744c2.62,0,4.744,2.124,4.744,4.744v170.91   c0,12.137,9.839,21.976,21.976,21.976c12.137,0,21.976-9.839,21.976-21.976c-0.442-292.498-0.402-251.855-0.399-307.829   c0-2.112,1.709-3.826,3.822-3.832c2.112-0.006,3.832,1.698,3.844,3.812c0-0.001,0,0,0,0l0.676,134.54   c0.051,10.083,8.239,18.221,18.31,18.221c0.031,0,0.064,0,0.094,0c10.114-0.051,18.271-8.291,18.221-18.405L460.416,131.127z" fill="#FFFFFF"/>
	<path id="XMLID_1424_" d="M290.919,256.135c0-8.284-6.716-15-15-15H174.47l-0.528-75.043   c-0.113-22.288-18.338-40.422-40.626-40.422h-6.547c-3.012,5.52-26.544,48.638-29.711,54.442l-4.092-29.411l7.225-17.105   c0.743-1.758-0.551-3.706-2.458-3.706H77.025c-1.909,0-3.2,1.95-2.458,3.706l7.225,17.105l-4.092,29.411   c-3.166-5.802-26.698-48.921-29.711-54.442h-7.019c-22.288,0-40.513,18.133-40.626,40.388l-0.3,90.026   c-0.013,3.987,1.561,7.815,4.376,10.639c2.814,2.824,6.637,4.411,10.624,4.411h260.875   C284.203,271.135,290.919,264.42,290.919,256.135z M34.152,241.135l0.526-74.869c0.01-1.879,1.538-3.394,3.415-3.389   c1.878,0.005,3.397,1.529,3.397,3.407v74.851H34.152z M132.423,241.135v-74.727c0-1.963,1.576-3.563,3.539-3.593   c1.963-0.03,3.588,1.521,3.647,3.483v0.002l0.526,74.835H132.423z" fill="#FFFFFF"/>
	<path id="XMLID_1434_" d="M273.688,370.367h-18.832v-20.438v-1.982c0-5.644-4.575-10.219-10.219-10.219h-52.456   c-5.644,0-10.219,4.575-10.219,10.219v1.982v20.438H163.13c-5.014,0-9.079,4.065-9.079,9.079v72.611   c0,5.014,4.065,9.079,9.079,9.079h110.558c5.014,0,9.079-4.065,9.079-9.079v-72.611   C282.767,374.432,278.702,370.367,273.688,370.367z M234.418,370.367h-32.019v-12.201h32.019V370.367z" fill="#FFFFFF"/>
</g>
<g>
</g>
<g>
</g>
<g>
</g>
<g>
</g>
<g>
</g>
<g>
</g>
<g>
</g>
<g>
</g>
<g>
</g>
<g>
</g>
<g>
</g>
<g>
</g>
<g>
</g>
<g>
</g>
<g>
</g>
</svg>
