<?xml version="1.0" encoding="utf-8"?>
<!-- Generator: Adobe Illustrator 18.1.1, SVG Export Plug-In . SVG Version: 6.00 Build 0)  -->
<svg version="1.1" id="Capa_1" xmlns="http://www.w3.org/2000/svg" xmlns:xlink="http://www.w3.org/1999/xlink" x="0px" y="0px"
	 viewBox="-49 141 512 512" enable-background="new -49 141 512 512" xml:space="preserve">
<g id="XMLID_242_">
	<path id="XMLID_243_" fill="#2F383E" d="M9.2,229.2c-0.2-0.1-0.4-0.3-0.6-0.4c0.2,21.6,17.8,39.1,39.5,39.1
		c21.7,0,39.3-17.5,39.5-39.1c-9.7,5.8-23.6,11.8-39.5,11.8C35.2,240.6,21.8,236.7,9.2,229.2z"/>
	<path id="XMLID_1411_" fill="#2F383E" d="M-0.4,195.5c0,0,26.8,23,48.4,23s48.4-23,48.4-23c2-1.3,2.9-3.8,2.3-6.1l-5.5-20.9
		c-0.7-2.7-2.5-4.9-5-6.2L52.5,144c-1.4-0.7-2.9-1.1-4.4-1.1c-1.5,0-3,0.4-4.4,1.1L7.8,162.3c-2.5,1.3-4.3,3.5-5,6.2l-5.5,20.9
		C-3.3,191.7-2.4,194.1-0.4,195.5z"/>
	<path id="XMLID_1415_" fill="#2F383E" d="M141.4,294.4c0.4,2.2,2.6,3.6,4.8,3.2l2.9-0.6c0.9-4.5,2.6-9,5-13.2
		c6.9-11.7,19-19.3,32.3-20.7l-7.9-39.3c-0.4-2.2-2.6-3.6-4.8-3.2l-41.3,8.4c-2.2,0.4-3.6,2.6-3.2,4.8L141.4,294.4z"/>
	<circle id="XMLID_1416_" fill="#2F383E" cx="359.4" cy="183.1" r="42.1"/>
	<path id="XMLID_1417_" fill="#2F383E" d="M462.2,286.6c-0.1-26.4-21.7-47.9-48.1-47.9h-54.7c0,0,0,0,0,0s0,0,0,0h-54.7
		c-26.4,0-48,21.5-48.1,47.9c-0.1,10.4,0,1.8-0.2,33.6l-55.3-32.5c0,0,0,0,0,0c-9-5.3-20.7-2.9-26.8,5.7c-7.1,9.9-3.9,23.4,6.2,29.4
		c93.7,55,88.4,53.1,96,53.1c11.1,0,20.1-8.8,20.3-19.9c0-0.1,0-0.2,0-0.3c0.1-11.5,0.3-60.9,0.3-68.9c0-2.2,1.8-4,4-4
		c2.2,0,4,1.8,4,4c0,71.3,0,330.1,0,341.8c0,13.5,10.9,24.4,24.4,24.4c13.5,0,24.4-10.9,24.4-24.4V438.8c0-2.9,2.4-5.3,5.3-5.3
		c2.9,0,5.3,2.4,5.3,5.3v189.8c0,13.5,10.9,24.4,24.4,24.4c13.5,0,24.4-10.9,24.4-24.4C413,303.8,413,349,413,286.8
		c0-2.3,1.9-4.2,4.2-4.3c2.3,0,4.3,1.9,4.3,4.2c0,0,0,0,0,0l0.8,149.4c0.1,11.2,9.1,20.2,20.3,20.2c0,0,0.1,0,0.1,0
		c11.2-0.1,20.3-9.2,20.2-20.4L462.2,286.6z"/>
	<path id="XMLID_1424_" fill="#2F383E" d="M274,425.4c0-9.2-7.5-16.7-16.7-16.7H144.7l-0.6-83.3c-0.1-24.7-20.4-44.9-45.1-44.9h-7.3
		c-3.3,6.1-29.5,54-33,60.4l-4.5-32.7l8-19c0.8-2-0.6-4.1-2.7-4.1h-23c-2.1,0-3.6,2.2-2.7,4.1l8,19L37.3,341
		c-3.5-6.4-29.6-54.3-33-60.4h-7.8c-24.7,0-45,20.1-45.1,44.8l-0.3,100c0,4.4,1.7,8.7,4.9,11.8c3.1,3.1,7.4,4.9,11.8,4.9h289.6
		C266.6,442,274,434.6,274,425.4z M-11.1,408.7l0.6-83.1c0-2.1,1.7-3.8,3.8-3.8c2.1,0,3.8,1.7,3.8,3.8v83.1L-11.1,408.7L-11.1,408.7
		z M98,408.7v-83c0-2.2,1.7-4,3.9-4c2.2,0,4,1.7,4,3.9v0l0.6,83.1L98,408.7L98,408.7z"/>
	<path id="XMLID_1434_" fill="#2F383E" d="M254.9,552.2H234v-22.7v-2.2c0-6.3-5.1-11.3-11.3-11.3h-58.2c-6.3,0-11.3,5.1-11.3,11.3
		v2.2v22.7h-20.9c-5.6,0-10.1,4.5-10.1,10.1v80.6c0,5.6,4.5,10.1,10.1,10.1h122.8c5.6,0,10.1-4.5,10.1-10.1v-80.6
		C265,556.7,260.4,552.2,254.9,552.2z M211.3,552.2h-35.6v-13.5h35.6V552.2z"/>
</g>
</svg>
