<?xml version="1.0" encoding="utf-8"?>
<!-- Generator: Adobe Illustrator 18.1.1, SVG Export Plug-In . SVG Version: 6.00 Build 0)  -->
<svg version="1.1" id="Capa_1" xmlns="http://www.w3.org/2000/svg" xmlns:xlink="http://www.w3.org/1999/xlink" x="0px" y="0px"
	 viewBox="-49 141 512 512" enable-background="new -49 141 512 512" xml:space="preserve">
<path fill="#2F383E" d="M461.6,202.6c0-4.9-2-9.6-5.5-13l-8.3-8.1c-11.9-11.7-27.6-18.1-44.3-18.1c-17.1,0-33.1,6.7-45.1,18.9
	l-7,7.1c-5,5-11.6,7.8-18.7,7.8c-6.9,0-13.4-2.7-18.4-7.5l-6.1-6c-11.9-11.7-27.6-18.1-44.3-18.1c-17.1,0-33.1,6.7-45.1,18.9
	l-3.5,3.5c-5,5-11.6,7.8-18.7,7.8c-6.9,0-13.4-2.7-18.4-7.5l-2.7-2.7c-11.9-11.7-27.6-18.1-44.3-18.1c-17.1,0-33.1,6.7-45.1,18.9
	c-5,5-11.6,7.8-18.7,7.8c-6.9,0-13.4-2.7-18.4-7.5l-0.4-0.4C36.9,174.4,21.1,168,4.5,168c-17.1,0-33.1,6.7-45.1,18.9l-3.1,3.1
	c-3.4,3.5-5.4,8.2-5.3,13.1l1.5,174.4C-47,445.4-20.2,509,28,556.8c48.1,47.7,111.9,74,179.7,74l2.2,0
	c68.2-0.6,132.1-27.7,179.9-76.3s73.8-112.9,73.3-181.1L461.6,202.6z M114.4,243.6c4.2-4.3,9.8-6.6,15.7-6.7
	c12.4,0,22.4,9.9,22.5,22.1c0.1,6-2.2,11.6-6.4,15.8c-4.2,4.3-9.8,6.6-15.7,6.7c0,0-0.1,0-0.2,0c-12.2,0-22.2-9.9-22.3-22.1
	C107.9,253.5,110.2,247.9,114.4,243.6z M62,354.1c-17.5,0-31.9-14.2-32-31.7c-0.1-8.5,3.2-16.6,9.2-22.7c6-6.1,14-9.5,22.6-9.6
	c0,0,0.2,0,0.3,0c17.5,0,31.9,14.2,32,31.7c0.1,17.6-14.1,32.1-31.7,32.3C62.2,354.1,62,354.1,62,354.1z M356.6,481.1
	c0,0.4,0,0.8-0.1,1.1c0,0.2-0.1,0.4-0.2,0.6c-0.1,0.3-0.2,0.6-0.3,0.9c-0.1,0.2-0.2,0.4-0.3,0.6c-0.2,0.3-0.3,0.5-0.5,0.8
	c-0.1,0.2-0.3,0.4-0.5,0.5c-0.2,0.2-0.4,0.4-0.7,0.6c-0.2,0.1-0.4,0.3-0.6,0.4c-0.3,0.2-0.5,0.3-0.8,0.4c-0.2,0.1-0.4,0.2-0.7,0.3
	c-0.3,0.1-0.6,0.2-0.9,0.2c-0.2,0-0.5,0.1-0.7,0.1c-0.1,0-0.2,0-0.3,0c-0.4,0-0.8,0-1.2-0.1l0,0c-2.9-0.5-6.1-1.5-9.3-3.3
	c-1.6-0.9-3.3-2-4.9-3.3c-1.6-1.3-3.2-2.9-4.7-4.8c-0.9-1.1-1.7-2.2-2.5-3.3c-2.4-3.4-4.4-7-6.1-10.6c-1.5-3.2-2.8-6.3-3.8-9.2
	c-0.3-0.8-0.6-1.5-0.8-2.3c-0.2-0.7-0.5-1.4-0.7-2.1c-0.2-0.5-0.4-1-0.7-1.5c-0.1-0.1-0.1-0.2-0.2-0.3c-0.3-0.4-0.6-0.8-0.9-1.2
	c0,0,0,0,0-0.1c-0.4-0.4-0.8-0.7-1.2-1c-0.1-0.1-0.2-0.1-0.3-0.2c-0.4-0.2-0.8-0.4-1.3-0.6c0,0-0.1,0-0.1,0c-0.5-0.2-1-0.3-1.5-0.3
	c-0.1,0-0.3,0-0.4,0c-0.5,0-1,0-1.4,0c0,0-0.1,0-0.1,0c-0.5,0.1-1,0.2-1.5,0.4c-0.1,0-0.2,0.1-0.4,0.1c-0.5,0.2-1,0.5-1.5,0.8h0
	c-6.1,4.4-13.2,9.1-21.1,13.7c-1.3,0.8-2.7,1.5-4,2.2c-2.7,1.5-5.5,3-8.5,4.4c-5.8,2.8-12,5.5-18.5,7.9c-4.9,1.8-9.9,3.5-15.1,4.9
	c-3.5,1-5.9,3.9-6.2,7.3c-0.1,1.1,0,2.3,0.4,3.4c0.7,2.2,1.4,4.3,1.9,6.4c0.3,1.2,0.7,2.4,0.9,3.6c0.1,0.4,0.2,0.8,0.2,1.2
	c0,0.1,0,0.3,0,0.4c0,0.3,0,0.5,0,0.8c0,0.2,0,0.3,0,0.5c0,0.2,0,0.5-0.1,0.7c0,0.2-0.1,0.3-0.1,0.5c0,0.2-0.1,0.5-0.2,0.7
	c0,0.2-0.1,0.3-0.1,0.4c-0.1,0.2-0.2,0.4-0.2,0.7c-0.1,0.1-0.1,0.3-0.2,0.4c-0.1,0.2-0.2,0.4-0.3,0.6c-0.1,0.1-0.1,0.2-0.2,0.4
	c-0.2,0.2-0.3,0.5-0.5,0.7c-0.1,0.1-0.1,0.1-0.2,0.2c-0.2,0.3-0.5,0.6-0.8,0.8c-0.1,0.1-0.1,0.1-0.2,0.2c-0.2,0.2-0.4,0.4-0.7,0.6
	c-0.1,0.1-0.2,0.2-0.3,0.2c-0.2,0.1-0.4,0.3-0.6,0.4c-0.1,0.1-0.2,0.1-0.4,0.2c-0.2,0.1-0.4,0.2-0.6,0.3c-0.1,0.1-0.3,0.1-0.4,0.2
	c-0.2,0.1-0.4,0.2-0.7,0.2c-0.1,0-0.3,0.1-0.4,0.1c-0.2,0.1-0.5,0.1-0.7,0.2c-0.1,0-0.3,0.1-0.4,0.1c-0.3,0-0.5,0.1-0.8,0.1
	c-0.1,0-0.3,0-0.4,0c0,0-0.1,0-0.1,0c-0.2,0-0.5,0-0.8,0c-0.1,0-0.3,0-0.4,0c-0.4,0-0.8-0.1-1.2-0.2c0,0,0,0,0,0
	c-7-1.8-16.2-4.7-27-9.6c-1.5-0.7-3.1-1.4-4.7-2.2c-8.5-4.1-14.8-9.5-19.5-15.1c-9.3-0.9-18.2-2.5-26.4-4.4
	c-5.5-1.3-10.8-2.8-15.8-4.5c-10-3.3-19.1-7.1-27-11c-3.3-1.6-6.3-3.2-9.2-4.9c-2.4-1.3-4.7-2.7-6.8-4c-6.3-3.8-11.4-7.5-15.3-10.5
	c-3.5-2.7-5.3-6.7-5.2-10.8c0-0.1,0-0.2,0-0.2c0-1.4,0.3-2.7,0.8-4.1c0.3-1,0.8-1.9,1.4-2.8c2.1-3.3,4.9-7.2,8.3-11.4
	c14.7-18.2,41.7-42.4,85-50.6c0-0.3,0-0.6,0-0.9v0c0-0.7,0-1.5,0-2.3c0-0.9,0.1-1.8,0.1-2.9s0.2-2.2,0.3-3.3
	c0.1-0.6,0.1-1.2,0.2-1.8c0.2-1.2,0.4-2.6,0.6-3.9c0.4-2,0.9-4.2,1.5-6.4c0.6-2.2,1.4-4.5,2.4-6.8c0.3-0.8,0.7-1.6,1.1-2.4
	c0.4-0.8,0.7-1.5,1.1-2.3c1.9-3.6,4.1-6.6,6.1-8.9c0.4-0.5,0.8-0.9,1.2-1.4c0.5-0.5,1-0.9,1.5-1.3c0.2-0.1,0.4-0.2,0.6-0.3
	c0.4-0.2,0.7-0.4,1.1-0.6c0.2-0.1,0.5-0.1,0.7-0.2c0.4-0.1,0.7-0.2,1.1-0.3c0.3,0,0.5-0.1,0.8-0.1c0.3,0,0.6-0.1,0.9-0.1
	c0,0,0.1,0,0.1,0c0.4,0,0.7,0.1,1.1,0.1c0.3,0,0.5,0,0.8,0.1c0.4,0.1,0.7,0.2,1.1,0.4c0.2,0.1,0.5,0.1,0.7,0.3
	c0.4,0.2,0.8,0.4,1.1,0.7c0.2,0.1,0.4,0.2,0.6,0.3c0.5,0.4,1,0.9,1.4,1.4c0,0,0,0,0,0c0.7,0.8,1.4,1.7,2.3,2.6
	c0.8,0.9,1.7,1.8,2.6,2.7c0,0,0,0,0,0c0.5,0.5,1,0.9,1.5,1.4c0.7,0.7,1.5,1.3,2.3,2c0.8,0.7,1.7,1.4,2.6,2.1
	c1.2,0.9,2.4,1.7,3.7,2.5c3.9,2.3,8.2,4.1,13,4.9c9.6,1.6,18.9,2.5,26.1,3.1c2.4,0.2,4.6,0.3,6.5,0.4c3,0.2,5.7,1.5,7.6,3.6
	c1.2,1.3,2.1,2.8,2.6,4.5c0.6,2,1.2,4.3,1.6,6.6c0.4,2.1,0.6,4.4,0.8,6.7c0.2,3.8,0.1,7.5,0,9.8c1.2,0.5,2.4,1,3.7,1.5
	c6.9,2.8,13.4,5.9,19.2,9.1c6.8,3.8,12.9,7.7,18.2,11.5c0.5,0.4,1,0.6,1.5,0.8c0.1,0,0.2,0.1,0.3,0.1c0.5,0.2,1,0.3,1.6,0.4
	c0.1,0,0.2,0,0.3,0c0.5,0,0.9,0,1.4,0c0.1,0,0.2,0,0.4,0c0.5-0.1,1-0.2,1.5-0.4c0.1,0,0.2-0.1,0.3-0.1c0.4-0.2,0.8-0.4,1.2-0.6
	c0.1-0.1,0.2-0.1,0.3-0.2c0.4-0.3,0.8-0.6,1.2-1c0,0,0.1-0.1,0.1-0.2c0.3-0.4,0.6-0.8,0.8-1.2c0.1-0.1,0.1-0.3,0.2-0.4
	c0.3-0.5,0.5-1,0.6-1.6c1.9-7.9,5.1-17.7,10.6-26c5.3-8,12.1-11.6,17.7-13.3l0,0c0.6-0.2,1.2-0.3,1.8-0.3c0,0,0,0,0,0c0,0,0,0,0,0
	c0.6,0,1.1,0.1,1.6,0.2c0.2,0,0.3,0.1,0.5,0.2c0.3,0.1,0.7,0.2,1,0.4c0.2,0.1,0.3,0.2,0.5,0.3c0.3,0.2,0.5,0.4,0.8,0.6
	c0.2,0.1,0.3,0.3,0.4,0.5c0.2,0.2,0.4,0.5,0.6,0.7c0.1,0.2,0.2,0.4,0.3,0.5c0.2,0.3,0.3,0.6,0.4,0.9c0.1,0.2,0.1,0.4,0.2,0.6
	c0.1,0.4,0.1,0.7,0.2,1.1c0,0.2,0.1,0.4,0.1,0.5c0,0.6-0.1,1.1-0.2,1.7c-1.1,4-2.1,8.9-2.4,13.7c-0.1,1.6-0.1,3.2-0.1,4.7
	c0.1,3.1,0.2,6,0.2,8.9c0,8.5-0.9,15.8-4.2,20.8c-1.2,1.7-2.7,3.4-4.3,4.8c-1,1-1.8,2.1-2.3,3.3c-0.5,1.2-0.8,2.5-0.8,3.8
	c0,2.6,1.1,5.2,3.2,7c1.3,1.1,2.6,2.4,3.7,3.8c0.8,1,1.5,2.2,2.2,3.5c0.8,1.6,1.5,3.3,2.1,5.2c1.3,4.6,1.9,10,2.3,15.9
	c0.1,1.5,0.2,3,0.3,4.5c0.2,4.6,1.4,9.5,2.8,13.9c0.5,1.5,1,2.8,1.4,4.1c0.2,0.6,0.3,1.2,0.4,1.7
	C356.6,480.7,356.6,480.9,356.6,481.1z"/>
</svg>
