<?xml version="1.0" encoding="iso-8859-1"?>
<!-- Generator: Adobe Illustrator 17.1.0, SVG Export Plug-In . SVG Version: 6.00 Build 0)  -->
<!DOCTYPE svg PUBLIC "-//W3C//DTD SVG 1.1//EN" "http://www.w3.org/Graphics/SVG/1.1/DTD/svg11.dtd">
<svg xmlns="http://www.w3.org/2000/svg" xmlns:xlink="http://www.w3.org/1999/xlink" version="1.1" id="Capa_1" x="0px" y="0px" viewBox="0 0 207.399 207.399" style="enable-background:new 0 0 207.399 207.399;" xml:space="preserve" width="512px" height="512px">
<path d="M206.821,24.945c-0.017-1.989-0.823-3.89-2.241-5.284l-3.354-3.299c-4.819-4.739-11.195-7.349-17.953-7.349  c-6.92,0-13.404,2.717-18.255,7.649l-2.849,2.896c-2.01,2.043-4.695,3.169-7.562,3.169c-2.798,0-5.439-1.081-7.435-3.044  l-2.465-2.425c-4.819-4.739-11.195-7.349-17.953-7.349c-6.92,0-13.404,2.717-18.257,7.65l-1.411,1.436  c-2.01,2.043-4.695,3.169-7.562,3.169c-2.798,0-5.439-1.081-7.434-3.043l-1.102-1.085c-4.819-4.739-11.195-7.349-17.953-7.349  c-6.92,0-13.404,2.717-18.256,7.65c-2.01,2.043-4.695,3.169-7.562,3.169c-2.798,0-5.439-1.081-7.443-3.053l-0.167-0.164  c-4.819-4.74-11.195-7.351-17.953-7.351c-6.92,0-13.404,2.718-18.254,7.649l-1.245,1.265C0.759,21.273-0.016,23.188,0,25.178  l0.588,70.661c0.228,27.465,11.097,53.24,30.605,72.576c19.496,19.324,45.343,29.969,72.78,29.971l0.877-0.003  c27.621-0.229,53.498-11.201,72.866-30.894s29.908-45.749,29.679-73.369L206.821,24.945z M66.177,41.573  c1.695-1.723,3.959-2.683,6.375-2.702c5.02,0,9.077,4.024,9.117,8.971c0.021,2.413-0.901,4.692-2.596,6.415  c-1.694,1.724-3.958,2.684-6.375,2.703c-0.02,0-0.053,0-0.073,0c-4.947,0-9.004-4.024-9.044-8.971  C63.56,45.576,64.482,43.295,66.177,41.573z M44.953,86.315c-7.089,0-12.904-5.768-12.962-12.856  c-0.029-3.462,1.292-6.728,3.72-9.196c2.428-2.47,5.673-3.845,9.136-3.873c0.02,0,0.087,0,0.107,0  c7.088,0,12.903,5.767,12.961,12.855c0.059,7.146-5.707,13.01-12.854,13.07C45.04,86.315,44.974,86.315,44.953,86.315z   M164.29,137.756c0.001,0.153,0.002,0.305-0.022,0.452c-0.014,0.088-0.045,0.169-0.068,0.254c-0.035,0.129-0.069,0.257-0.123,0.379  c-0.037,0.084-0.085,0.161-0.13,0.241c-0.063,0.111-0.126,0.219-0.203,0.319c-0.057,0.075-0.121,0.142-0.185,0.21  c-0.085,0.09-0.173,0.176-0.271,0.253c-0.075,0.06-0.152,0.113-0.233,0.165c-0.104,0.067-0.212,0.125-0.326,0.177  c-0.089,0.041-0.177,0.076-0.271,0.106c-0.12,0.04-0.244,0.065-0.371,0.087c-0.099,0.017-0.196,0.033-0.299,0.038  c-0.045,0.002-0.087,0.017-0.132,0.017c-0.163,0-0.329-0.015-0.498-0.046h0c-1.168-0.215-2.469-0.623-3.784-1.352  c-0.657-0.365-1.318-0.81-1.968-1.351c-0.649-0.542-1.287-1.179-1.899-1.93c-0.353-0.434-0.691-0.882-1.012-1.341  c-0.964-1.375-1.788-2.845-2.485-4.299c-0.612-1.276-1.118-2.532-1.546-3.711c-0.114-0.314-0.223-0.621-0.325-0.922  c-0.097-0.286-0.196-0.575-0.283-0.846c-0.071-0.222-0.17-0.424-0.281-0.615c-0.028-0.048-0.057-0.095-0.087-0.141  c-0.114-0.173-0.239-0.337-0.381-0.479c-0.007-0.007-0.012-0.016-0.019-0.022c-0.151-0.148-0.319-0.273-0.494-0.385  c-0.044-0.028-0.089-0.055-0.135-0.081c-0.166-0.095-0.339-0.177-0.52-0.239c-0.017-0.006-0.032-0.015-0.049-0.02  c-0.196-0.063-0.399-0.102-0.604-0.125c-0.051-0.006-0.103-0.009-0.155-0.012c-0.192-0.012-0.385-0.01-0.578,0.016  c-0.017,0.002-0.034,0.001-0.051,0.004c-0.207,0.031-0.412,0.09-0.613,0.166c-0.048,0.018-0.096,0.039-0.144,0.059  c-0.202,0.088-0.401,0.191-0.589,0.328c0,0-0.001,0-0.001,0c-2.477,1.802-5.336,3.7-8.538,5.534  c-0.534,0.306-1.077,0.609-1.629,0.911c-1.105,0.603-2.247,1.195-3.425,1.772c-2.356,1.153-4.856,2.243-7.486,3.22  c-1.973,0.733-4.02,1.404-6.136,1.993c-1.408,0.392-2.379,1.594-2.513,2.95c-0.044,0.452,0.004,0.921,0.161,1.382  c0.301,0.889,0.552,1.751,0.781,2.591c0.134,0.491,0.268,0.984,0.38,1.446c0.041,0.168,0.068,0.336,0.086,0.502  c0.006,0.054,0.006,0.107,0.01,0.161c0.008,0.111,0.014,0.222,0.012,0.332c-0.001,0.063-0.007,0.124-0.011,0.186  c-0.007,0.099-0.015,0.197-0.029,0.294c-0.009,0.063-0.021,0.126-0.034,0.189c-0.018,0.093-0.04,0.185-0.065,0.276  c-0.017,0.061-0.035,0.121-0.054,0.181c-0.03,0.09-0.064,0.178-0.1,0.266c-0.023,0.056-0.046,0.112-0.072,0.167  c-0.042,0.09-0.09,0.176-0.138,0.262c-0.027,0.048-0.052,0.097-0.081,0.143c-0.062,0.1-0.13,0.194-0.2,0.287  c-0.022,0.029-0.041,0.06-0.063,0.088c-0.096,0.12-0.198,0.234-0.307,0.342c-0.023,0.023-0.049,0.042-0.072,0.064  c-0.088,0.083-0.178,0.164-0.273,0.238c-0.041,0.033-0.085,0.061-0.127,0.092c-0.082,0.059-0.164,0.117-0.25,0.169  c-0.05,0.031-0.101,0.058-0.152,0.086c-0.084,0.046-0.169,0.09-0.256,0.13c-0.055,0.025-0.111,0.049-0.167,0.071  c-0.088,0.036-0.178,0.068-0.269,0.097c-0.058,0.019-0.116,0.037-0.175,0.052c-0.095,0.025-0.192,0.045-0.289,0.063  c-0.058,0.011-0.115,0.023-0.174,0.031c-0.107,0.015-0.216,0.022-0.326,0.027c-0.051,0.003-0.102,0.009-0.153,0.009  c-0.012,0-0.024,0.002-0.037,0.002c-0.101,0-0.205-0.011-0.307-0.02c-0.054-0.004-0.107-0.003-0.161-0.01  c-0.165-0.02-0.331-0.051-0.497-0.093c-0.005-0.001-0.01-0.001-0.016-0.003c-2.818-0.726-6.546-1.924-10.919-3.896  c-0.625-0.282-1.263-0.58-1.913-0.894c-3.44-1.662-6.005-3.861-7.911-6.107c-3.781-0.377-7.354-1.002-10.706-1.801  c-2.235-0.532-4.371-1.141-6.405-1.805c-4.068-1.329-7.726-2.876-10.944-4.469c-1.322-0.654-2.55-1.314-3.721-1.971  c-0.967-0.542-1.901-1.082-2.762-1.611c-2.539-1.559-4.613-3.03-6.191-4.237c-1.41-1.078-2.141-2.723-2.113-4.386  c0.001-0.033,0.01-0.065,0.011-0.098c0.019-0.556,0.132-1.109,0.324-1.646c0.141-0.396,0.314-0.785,0.552-1.151  c0.865-1.331,1.974-2.902,3.348-4.603c5.955-7.372,16.885-17.184,34.434-20.483c-0.003-0.113-0.006-0.238-0.008-0.372l0-0.009  c-0.003-0.274-0.003-0.589,0.006-0.94c0.009-0.352,0.025-0.74,0.053-1.161s0.067-0.872,0.12-1.351  c0.027-0.24,0.057-0.486,0.092-0.738c0.069-0.505,0.155-1.035,0.261-1.584c0.158-0.824,0.362-1.693,0.621-2.591  c0.26-0.897,0.576-1.823,0.961-2.762c0.138-0.337,0.281-0.663,0.429-0.977c0.148-0.315,0.3-0.619,0.456-0.912  c0.779-1.465,1.646-2.662,2.485-3.623c0.168-0.192,0.334-0.375,0.499-0.548c0.186-0.196,0.389-0.366,0.603-0.512  c0.072-0.049,0.151-0.08,0.226-0.123c0.147-0.085,0.293-0.173,0.448-0.237c0.094-0.039,0.193-0.058,0.289-0.088  c0.143-0.045,0.285-0.095,0.431-0.122c0.105-0.02,0.211-0.021,0.318-0.031c0.12-0.012,0.24-0.036,0.361-0.036  c0.02,0,0.04,0.006,0.06,0.006c0.149,0.002,0.294,0.027,0.442,0.047c0.109,0.015,0.219,0.02,0.327,0.044  c0.152,0.035,0.297,0.093,0.444,0.147c0.098,0.036,0.199,0.06,0.294,0.104c0.158,0.074,0.304,0.175,0.452,0.272  c0.075,0.049,0.155,0.085,0.227,0.141c0.211,0.163,0.407,0.351,0.584,0.565c0.002,0.003,0.005,0.004,0.007,0.007  c0.28,0.341,0.587,0.698,0.919,1.064c0.331,0.364,0.687,0.737,1.068,1.11c0.002,0.002,0.004,0.004,0.006,0.006  c0.191,0.188,0.389,0.375,0.593,0.563c0.296,0.271,0.609,0.54,0.93,0.806c0.343,0.284,0.695,0.563,1.065,0.833  c0.479,0.348,0.98,0.682,1.504,0.993c1.571,0.934,3.341,1.667,5.286,1.991c3.869,0.644,7.647,1.02,10.583,1.237  c0.979,0.072,1.864,0.127,2.628,0.169c1.209,0.065,2.305,0.604,3.093,1.452c0.473,0.509,0.834,1.129,1.043,1.825  c0.245,0.817,0.485,1.729,0.665,2.655c0.162,0.833,0.254,1.787,0.304,2.731c0.081,1.54,0.047,3.05,0.011,3.952  c0.505,0.194,0.99,0.399,1.482,0.6c2.814,1.151,5.416,2.403,7.775,3.706c2.772,1.531,5.23,3.122,7.372,4.674  c0.198,0.144,0.408,0.25,0.62,0.34c0.045,0.019,0.09,0.039,0.136,0.056c0.208,0.076,0.419,0.132,0.632,0.161  c0.036,0.005,0.071,0.004,0.107,0.008c0.187,0.019,0.373,0.018,0.558,0.001c0.05-0.004,0.101-0.006,0.151-0.013  c0.211-0.029,0.418-0.078,0.618-0.149c0.039-0.014,0.075-0.034,0.114-0.049c0.166-0.067,0.325-0.149,0.477-0.244  c0.047-0.029,0.094-0.058,0.139-0.089c0.175-0.124,0.342-0.261,0.489-0.422c0.018-0.02,0.033-0.043,0.051-0.064  c0.128-0.146,0.24-0.309,0.339-0.482c0.03-0.052,0.059-0.104,0.086-0.159c0.102-0.206,0.192-0.422,0.248-0.66  c0.767-3.201,2.083-7.187,4.297-10.521c2.15-3.238,4.897-4.712,7.187-5.368h0c0.247-0.071,0.491-0.104,0.728-0.105  c0.005,0,0.01-0.001,0.015-0.001c0.002,0,0.003,0,0.005,0c0.225,0,0.443,0.033,0.653,0.088c0.069,0.018,0.131,0.05,0.198,0.073  c0.138,0.048,0.274,0.1,0.401,0.169c0.073,0.041,0.138,0.089,0.207,0.136c0.109,0.074,0.214,0.15,0.312,0.239  c0.064,0.059,0.122,0.121,0.18,0.185c0.087,0.096,0.165,0.196,0.238,0.303c0.049,0.072,0.095,0.144,0.137,0.221  c0.063,0.117,0.113,0.238,0.159,0.364c0.029,0.08,0.06,0.156,0.082,0.239c0.037,0.143,0.053,0.291,0.065,0.441  c0.006,0.074,0.022,0.145,0.021,0.221c0,0.229-0.025,0.463-0.088,0.701c-0.434,1.631-0.852,3.612-0.984,5.547  c-0.044,0.645-0.057,1.285-0.028,1.905c0.058,1.239,0.099,2.441,0.099,3.589c0.001,3.444-0.361,6.405-1.716,8.442  c-0.466,0.7-1.074,1.358-1.731,1.956c-0.423,0.385-0.74,0.841-0.95,1.332c-0.21,0.491-0.313,1.018-0.309,1.543  c0.008,1.051,0.442,2.098,1.303,2.852c0.526,0.46,1.038,0.973,1.496,1.534c0.341,0.417,0.624,0.9,0.884,1.411  c0.329,0.646,0.611,1.347,0.833,2.124c0.529,1.854,0.788,4.047,0.951,6.434c0.041,0.597,0.076,1.206,0.107,1.824  c0.094,1.854,0.576,3.846,1.142,5.614c0.189,0.589,0.387,1.153,0.583,1.679c0.088,0.235,0.137,0.47,0.159,0.702  C164.301,137.605,164.289,137.679,164.29,137.756z" fill="#FFFFFF"/>
<g>
</g>
<g>
</g>
<g>
</g>
<g>
</g>
<g>
</g>
<g>
</g>
<g>
</g>
<g>
</g>
<g>
</g>
<g>
</g>
<g>
</g>
<g>
</g>
<g>
</g>
<g>
</g>
<g>
</g>
</svg>
