<?xml version="1.0" encoding="utf-8"?>
<!-- Generator: Adobe Illustrator 18.1.1, SVG Export Plug-In . SVG Version: 6.00 Build 0)  -->
<svg version="1.1" id="Capa_1" xmlns="http://www.w3.org/2000/svg" xmlns:xlink="http://www.w3.org/1999/xlink" x="0px" y="0px"
	 viewBox="-49 141 512 512" enable-background="new -49 141 512 512" xml:space="preserve">
<g>
	<path fill="#2F383E" d="M120.2,436.4c-38.8,19.3-75.7,37.7-122.6,51.3V397c0-7.1,3.5-13.7,9.3-17.6l35-23.8c3-2,8.4-3.7,12-3.7
		h56.2v-33.1h63.2v33.1h48.4c7.9,0,14.2,6.4,14.2,14.2v19.7C191.5,401,155.6,418.8,120.2,436.4z M110.1,286.1v17.2h63.2v-17.2
		c0-8.8-7.1-15.9-15.9-15.9h-31.3C117.3,270.2,110.1,277.3,110.1,286.1z M73.4,236.1c4.5,0,8.9-0.9,12.8-2.6
		c4.5,6.2,11.7,10.2,19.9,10.2c2.7,0,5.2-0.5,7.6-1.3c0,0.4-0.1,0.9-0.1,1.3c0,8.4,6.8,15.2,15.2,15.2s15.2-6.8,15.2-15.2
		s-6.8-15.2-15.2-15.2c0,0,0,0,0,0c1.2-2.9,1.9-6,1.9-9.3c0-13.6-11-24.6-24.6-24.6c-0.5,0-0.9,0.1-1.3,0.1
		c-3.8-13.8-16.4-24-31.4-24c-18.1,0-32.7,14.6-32.7,32.7C40.7,221.5,55.4,236.1,73.4,236.1z M393.5,556.2c-3.2,4.8-3.2,11-0.1,15.8
		l18.8,28.2c6.9,10.3-1.1,24-13.5,23l-419-32.9c-11.4-0.9-20.9-8.9-23.8-20c-2.5-9.7-5-21.7-5-32.3c0-21.9,8.8-26,26.8-30.2
		c160.8-38.4,205.1-130.9,473.5-146c7-0.4,12.6,5.7,11.6,12.6C454.9,433.3,426.9,505.4,393.5,556.2z M373,487c0-3.9-3.2-7.1-7.1-7.1
		s-7.1,3.2-7.1,7.1c0,11-7.3,20.2-17.3,23.3v-49c5.3-2.7,9.1-8.1,9.1-14.5c0-9-7.3-16.2-16.2-16.2c-9,0-16.2,7.3-16.2,16.2
		c0,6.4,3.8,11.9,9.2,14.5v49c-10-3.1-17.3-12.3-17.3-23.3c0-3.9-3.2-7.1-7.1-7.1s-7.1,3.2-7.1,7.1c0,21.3,17.3,38.7,38.7,38.7
		C355.7,525.7,373,508.4,373,487z"/>
</g>
</svg>
