<?xml version="1.0" encoding="utf-8"?>
<!-- Generator: Adobe Illustrator 18.1.1, SVG Export Plug-In . SVG Version: 6.00 Build 0)  -->
<svg version="1.1" id="Capa_1" xmlns="http://www.w3.org/2000/svg" xmlns:xlink="http://www.w3.org/1999/xlink" x="0px" y="0px"
	 viewBox="-49 141 512 512" enable-background="new -49 141 512 512" xml:space="preserve">
<g>
	<g>
		<path fill="#2F383E" d="M443.5,235.7l-313.6-66.4c-13.3-2.8-26.4,5.8-29.2,19l-6,38.3l361.8,76.6l6-38.3
			C465.3,251.7,456.7,238.5,443.5,235.7z"/>
		<path fill="#2F383E" d="M311.6,311.3c-3.7-13.2-17.4-21-30.6-17.3l-59.5,16.5L81.1,280.8l-15.4,72.9l-96.4,26.8
			c-13.2,3.7-21,17.4-17.3,30.6L6.2,607c3.7,13.2,17.4,21,30.6,17.3l311.7-86.5c13.2-3.7,21-17.4,17.3-30.6l-9.3-33.6l35,7.4
			c13.3,2.8,26.4-5.7,29.2-19l22.1-104.5L317,330.7L311.6,311.3z M347.6,410.9l7.7-36.4c1.2-5.5,6.6-9,12-7.8l36.4,7.7
			c5.5,1.2,9,6.6,7.8,12l-7.7,36.4c-1.2,5.5-6.6,9-12,7.8l-36.4-7.7C349.9,421.7,346.4,416.3,347.6,410.9z M-25.3,400.1l86.3-23.9
			l203.5-56.5l21.9-6.1c0.4-0.1,0.8-0.2,1.2-0.2c1.8,0,3.9,1.2,4.5,3.4l2.6,9.3l8.1,29l-320.6,89l-10.6-38.3
			C-29.2,403.3-27.8,400.7-25.3,400.1z M346.4,512.6c0.4,1.5,0,2.7-0.5,3.5c-0.4,0.8-1.3,1.8-2.7,2.2L31.5,604.7
			c-0.4,0.1-0.8,0.2-1.2,0.2c-1.8,0-3.9-1.2-4.5-3.4L-5.9,487.3l320.6-89l19.6,70.4L346.4,512.6z"/>
		<path fill="#2F383E" d="M81.8,520.4c-1.5-5.4-7.1-8.6-12.5-7.1l-36.4,10.1c-5.4,1.5-8.6,7.1-7.1,12.5L36,572.3
			c1.5,5.4,7.1,8.6,12.5,7.1l36.4-10.1c5.4-1.5,8.6-7.1,7.1-12.5L81.8,520.4z"/>
	</g>
</g>
</svg>
