<?xml version="1.0" encoding="utf-8"?>
<!-- Generator: Adobe Illustrator 18.1.1, SVG Export Plug-In . SVG Version: 6.00 Build 0)  -->
<svg version="1.1" id="Capa_1" xmlns="http://www.w3.org/2000/svg" xmlns:xlink="http://www.w3.org/1999/xlink" x="0px" y="0px"
	 viewBox="-49 141 512 512" enable-background="new -49 141 512 512" xml:space="preserve">
<g>
	<g>
		<path fill="#2F383E" d="M17.8,605.6H207h189.2c27.8,0,50.3-22.5,50.3-50.3V471c0-19.1-7-36.4-18.6-49.8
			c-6.1-7.3-39.1-49.1-46.9-106.8c-1.9-13.9-13.7-24.2-27.7-24.2H207H60.7c-14,0-25.8,10.3-27.7,24.2
			c-7.8,57.6-40.8,99.4-46.9,106.8C-25.4,434.5-32.4,452-32.4,471v84.4C-32.5,583.1-10,605.6,17.8,605.6z"/>
		<path fill="#2F383E" d="M-7.2,300.9c-4.9,26.8-15.5,64.2-38.3,89.9c-5.1,5.8-4.6,14.6,1.2,19.7c2.7,2.3,6,3.5,9.3,3.5
			c3.9,0,7.7-1.6,10.5-4.7c27.1-30.6,39.4-73.1,44.9-103.5c3.1-17.3,18.2-29.9,35.8-29.9H199h158.9c17.6,0,32.6,12.6,35.8,29.9
			c5.5,30.4,17.8,72.9,44.9,103.5c2.7,3.1,6.6,4.7,10.5,4.7c3.3,0,6.6-1.2,9.3-3.5c5.8-5.1,6.3-14,1.2-19.7
			c-22.8-25.7-33.4-63.1-38.3-89.9c-5.6-30.6-32.2-52.9-63.3-52.9H230.1l8.4-9.8c0.9,0.1,1.7,0.2,2.6,0.2c14.1,0,25.5-11.7,25-26
			c-0.5-13-11.1-23.5-24-24c-14.3-0.6-26,10.8-26,25c0,3.6,0.8,7.1,2.2,10.2l-8.3,9.7c-1.6,1.8-4.4,1.8-5.9,0l-8.2-9.5
			c1.6-3.7,2.3-8,1.9-12.5c-1.2-12-11-21.5-23-22.4c-14.6-1.1-26.8,10.5-26.8,24.9c0,13.8,11.2,25,25,25c1.1,0,2.1-0.1,3.1-0.2
			l7.9,9.3H56.1C25,248-1.6,270.2-7.2,300.9z"/>
	</g>
</g>
</svg>
