<?xml version="1.0" encoding="iso-8859-1"?>
<!-- Generator: Adobe Illustrator 16.0.0, SVG Export Plug-In . SVG Version: 6.00 Build 0)  -->
<!DOCTYPE svg PUBLIC "-//W3C//DTD SVG 1.1//EN" "http://www.w3.org/Graphics/SVG/1.1/DTD/svg11.dtd">
<svg xmlns="http://www.w3.org/2000/svg" xmlns:xlink="http://www.w3.org/1999/xlink" version="1.1" id="Capa_1" x="0px" y="0px" width="512px" height="512px" viewBox="0 0 915.917 915.917" style="enable-background:new 0 0 915.917 915.917;" xml:space="preserve">
<g>
	<g>
		<path d="M119.509,831.176h338.399h338.4c49.7,0,90-40.3,90-90V590.277c0-34.101-12.6-65.2-33.3-89    c-10.9-13.101-70-87.901-83.9-191.001c-3.399-24.8-24.5-43.3-49.5-43.3H458.009h-261.7c-25,0-46.2,18.5-49.5,43.3    c-13.9,103.1-73,177.9-83.9,191.001c-20.7,23.8-33.3,55-33.3,89v150.899C29.509,790.876,69.809,831.176,119.509,831.176z" fill="#FFFFFF"/>
		<path d="M74.809,285.976c-8.7,48-27.7,114.8-68.5,160.9c-9.2,10.3-8.2,26.1,2.1,35.3c4.8,4.2,10.7,6.3,16.6,6.3    c6.9,0,13.8-2.8,18.7-8.399c48.5-54.701,70.5-130.8,80.3-185.101c5.6-31,32.5-53.5,64-53.5h255.7h284.199    c31.4,0,58.301,22.5,64,53.5c9.9,54.3,31.801,130.4,80.301,185.101c4.899,5.6,11.8,8.399,18.699,8.399    c5.9,0,11.801-2.1,16.601-6.3c10.3-9.2,11.3-25,2.1-35.3c-40.8-46-59.8-112.9-68.5-160.9c-10-54.8-57.6-94.6-113.2-94.6H499.209    l15-17.5c1.6,0.2,3.1,0.3,4.699,0.3c25.301,0,45.7-21,44.7-46.5c-0.899-23.2-19.8-42.1-42.899-42.9c-25.5-1-46.5,19.4-46.5,44.7    c0,6.5,1.399,12.7,3.899,18.3l-14.8,17.3c-2.8,3.3-7.799,3.3-10.599,0l-14.601-17c2.9-6.7,4.2-14.3,3.4-22.3    c-2.2-21.4-19.7-38.5-41.2-40c-26.2-1.9-48,18.8-48,44.6c0,24.7,20,44.7,44.7,44.7c1.899,0,3.7-0.1,5.5-0.4l14.2,16.6h-228.7    C132.409,191.376,84.809,231.176,74.809,285.976z" fill="#FFFFFF"/>
	</g>
</g>
<g>
</g>
<g>
</g>
<g>
</g>
<g>
</g>
<g>
</g>
<g>
</g>
<g>
</g>
<g>
</g>
<g>
</g>
<g>
</g>
<g>
</g>
<g>
</g>
<g>
</g>
<g>
</g>
<g>
</g>
</svg>
