<?xml version="1.0" encoding="utf-8"?>
<!-- Generator: Adobe Illustrator 18.1.1, SVG Export Plug-In . SVG Version: 6.00 Build 0)  -->
<svg version="1.1" id="Capa_1" xmlns="http://www.w3.org/2000/svg" xmlns:xlink="http://www.w3.org/1999/xlink" x="0px" y="0px"
	 viewBox="-49 141 512 512" enable-background="new -49 141 512 512" xml:space="preserve">
<g>
	<g id="Layer_5_87_">
		<g>
			<path fill="#2F383E" d="M84.2,465.8c-7.8-7.8-10.8-3.9-12.5-2.1c-45.1,45.1-85,153.8-63.9,143.1c77-38.6,89.8-27.1,134.8-72.2
				c1.7-1.7,5.7-4.6-2.3-12.7L84.2,465.8z"/>
			<path fill="#2F383E" d="M327,465.2c-2-6.5,2.2-9.6,4-11.6c99.4-107.3,162.6-250.4,115.8-297.2c-46.6-46.6-185.2,18.5-292.5,117.2
				c-2.1,2-6.3,5.7-13.8,4.1l-33.4-8c-9.3-2.2-22.4,1.5-29.1,8.3L-44.7,400.6c-6.7,6.7-4.6,13.5,4.9,15l88.7,13.9
				c9.4,1.5,22.7-2.8,29.4-9.6c0,0,4.6-4.6,9.2,0c25.4,25.4,72.5,72.5,96.7,96.7c4.8,4.8,0.2,9.4,0.2,9.4c-6.7,6.7-11.1,20-9.6,29.4
				l13.9,88.7c1.5,9.4,8.2,11.6,15,4.9l122.7-122.7c6.7-6.7,10.5-19.9,8.2-29.1L327,465.2z M299.6,306.6
				c-20.8-20.8-20.8-54.5,0-75.2c20.8-20.8,54.5-20.8,75.3,0c20.8,20.8,20.8,54.5,0,75.2C354,327.4,320.4,327.4,299.6,306.6z"/>
		</g>
	</g>
</g>
</svg>
