<?xml version="1.0" encoding="utf-8"?>
<!-- Generator: Adobe Illustrator 18.1.1, SVG Export Plug-In . SVG Version: 6.00 Build 0)  -->
<svg version="1.1" id="Capa_1" xmlns="http://www.w3.org/2000/svg" xmlns:xlink="http://www.w3.org/1999/xlink" x="0px" y="0px"
	 viewBox="-49 141 512 512" enable-background="new -49 141 512 512" xml:space="preserve">
<g>
	<path fill="#2F383E" d="M236,339.2c0-5.4-0.7-10.6-2.1-15.5H463v-27.6H217.1c-7.9-7.3-17.9-12.4-29.9-14.5c0-7.5,0-12.7,0-12.7
		v-0.4c0-0.3,0.6-0.4,0.6-0.7c-0.5-16-13.1-28.7-29.2-28.7H37.2v48.3c-19,9.9-30.7,29.3-30.7,51.7c0,0.2,0.2,0.4,0.2,0.7
		c3.6-0.4,7.4-0.7,11-0.7H236z"/>
	<path fill="#2F383E" d="M406.1,499.1v-0.5c31-5.1,55.2-32,55.2-64.8v-0.6c0-36.5-29-66.5-65.5-66.5H17.7c-36.5,0-66.7,30-66.7,66.5
		v0.6c0,32.8,24.1,59.6,55.2,64.8v0.5c0,10.2,3,19.7,7.8,27.9c9.6,16.5,27.8,27.7,48.4,27.7h288.8c20.5,0,38.1-11.1,47.8-27.7
		C403.6,518.9,406.1,509.3,406.1,499.1z M253.4,525.9c-15.5,0-28-12.5-28-28s12.5-28,28-28s28,12.5,28,28
		C281.5,513.3,268.9,525.9,253.4,525.9z M130.6,497.8c0-15.5,12.5-28,28-28s28,12.5,28,28s-12.6,28-28,28
		C143.1,525.9,130.6,513.3,130.6,497.8z M35.8,497.8c0-15.5,12.5-28,28-28s28,12.5,28,28s-12.6,28-28,28
		C48.3,525.9,35.8,513.3,35.8,497.8z M348.2,525.9c-15.5,0-28-12.5-28-28s12.5-28,28-28c15.5,0,28,12.5,28,28
		C376.3,513.3,363.7,525.9,348.2,525.9z"/>
</g>
</svg>
