<?xml version="1.0" encoding="iso-8859-1"?>
<!-- Generator: Adobe Illustrator 16.0.0, SVG Export Plug-In . SVG Version: 6.00 Build 0)  -->
<!DOCTYPE svg PUBLIC "-//W3C//DTD SVG 1.1//EN" "http://www.w3.org/Graphics/SVG/1.1/DTD/svg11.dtd">
<svg xmlns="http://www.w3.org/2000/svg" xmlns:xlink="http://www.w3.org/1999/xlink" version="1.1" id="Capa_1" x="0px" y="0px" width="512px" height="512px" viewBox="0 0 98.743 98.743" style="enable-background:new 0 0 98.743 98.743;" xml:space="preserve">
<g>
	<path d="M95.536,40.659c1.264,1.899,2.66,3.763,3.207,5.949c0,0.238,0,0.474,0,0.715c-0.355,2.678-2.586,4.49-5.47,3.686   c-1.61-0.446-2.893-2.338-4.047-3.927c-0.912-1.259-1.688-2.499-2.495-3.566c-0.229-0.301-0.63-1.087-0.828-0.717   c0,0.502,0,4.846,0,7.805c0.014,0.113,0.019,0.223,0.019,0.335v21.109c0,1.576-1.277,2.857-2.858,2.857h-1.19   c-1.579,0-2.86-1.281-2.86-2.857l0.009-18.475c0-0.034,0-0.068-0.009-0.109v-0.151h-0.027c-0.119-0.451-0.529-0.784-1.022-0.784   h-0.191v-1.407v-1.353V30.676H51.342c0.83-3.151,2.479-5.443,4.334-7.265c2.776-2.718,6.127-3.921,11.065-4.4   c1.312,0,2.619,0,3.926,0c8.939,0.458,13.818,4.728,17.607,10.582C90.655,33.266,93.09,36.992,95.536,40.659z M72.415,79.737h1.191   c1.573,0,2.855-1.275,2.855-2.856V64.91h-6.897v11.971C69.564,78.462,70.834,79.737,72.415,79.737z M22.317,32.016h54.108v17.755   H22.317V32.016z M38.012,40.313c-0.073,0.906,0.172,1.788,0.693,2.588c0.533,0.823,1.324,1.565,2.35,2.193   c1.025,0.633,2.285,1.154,3.687,1.514c1.413,0.365,2.978,0.565,4.623,0.565c1.653,0,3.215-0.201,4.627-0.565   c1.412-0.359,2.662-0.88,3.695-1.514c1.024-0.631,1.818-1.375,2.35-2.193c0.522-0.809,0.767-1.687,0.693-2.588   c-0.075-0.897-0.459-1.743-1.086-2.492c-0.623-0.753-1.478-1.416-2.507-1.979c-1.021-0.54-2.222-0.988-3.533-1.291   c-1.312-0.305-2.742-0.475-4.239-0.475c-1.496,0-2.924,0.17-4.233,0.475c-1.312,0.303-2.509,0.745-3.534,1.291   c-1.028,0.559-1.888,1.224-2.506,1.979C38.472,38.57,38.088,39.416,38.012,40.313z M76.425,51.114H22.317v2.333h54.108V51.114z    M22.317,60.19h54.108v-2.334H22.317V60.19z M22.317,56.816h54.108V54.48H22.317V56.816z M16.875,74.901   c1.575,0,2.861-1.282,2.861-2.858l-0.009-18.475c0-0.034,0-0.073,0.009-0.109v-0.15h0.026c0.119-0.452,0.529-0.789,1.023-0.789   h0.184v-1.403v-1.353V30.671h26.43c-0.833-3.149-2.479-5.442-4.335-7.265c-2.775-2.719-6.124-3.921-11.064-4.4   c-1.311,0-2.614,0-3.927,0c-8.934,0.46-13.819,4.725-17.606,10.584c-2.376,3.676-4.812,7.402-7.254,11.066   C1.949,42.553,0.552,44.417,0,46.601c0,0.241,0,0.474,0,0.717c0.356,2.678,2.587,4.489,5.474,3.687   c1.607-0.447,2.894-2.341,4.043-3.93c0.918-1.259,1.691-2.499,2.497-3.564c0.232-0.3,0.633-1.084,0.832-0.715   c0,0.502,0,4.844,0,7.808c-0.014,0.109-0.018,0.219-0.018,0.33v21.109c0,1.576,1.273,2.858,2.854,2.858H16.875L16.875,74.901z    M48.898,43.612l0.007-3.175c-0.35-0.039-0.689-0.083-1-0.132c-0.31-0.055-0.595-0.113-0.86-0.178   c-0.266-0.061-0.5-0.136-0.72-0.214c-0.214-0.078-0.411-0.162-0.571-0.251c-0.167-0.087-0.318-0.184-0.439-0.292   c-0.122-0.109-0.225-0.221-0.307-0.343c-0.072-0.127-0.134-0.256-0.172-0.397c-0.036-0.14-0.049-0.292-0.044-0.446   c0.002-0.138,0.035-0.271,0.082-0.404c0.049-0.136,0.119-0.26,0.212-0.385c0.094-0.125,0.212-0.245,0.35-0.36   c0.138-0.117,0.297-0.229,0.479-0.338c0.183-0.11,0.379-0.207,0.598-0.285c0.213-0.084,0.444-0.153,0.699-0.213   c0.25-0.052,0.518-0.096,0.805-0.124c0.281-0.028,0.586-0.044,0.907-0.049v-0.71h0.912l0.002,0.693   c0.313,0.017,0.612,0.04,0.892,0.068c0.283,0.04,0.544,0.074,0.79,0.128c0.247,0.051,0.475,0.117,0.685,0.187   c0.21,0.073,0.396,0.154,0.57,0.248c0.178,0.094,0.331,0.192,0.456,0.301c0.137,0.108,0.246,0.227,0.343,0.345   c0.091,0.125,0.168,0.25,0.219,0.395c0.055,0.14,0.096,0.28,0.109,0.439h-1.711c-0.014-0.073-0.032-0.143-0.05-0.207   c-0.023-0.058-0.051-0.125-0.082-0.181c-0.032-0.058-0.073-0.118-0.119-0.169c-0.05-0.056-0.101-0.109-0.15-0.159   c-0.105-0.091-0.229-0.173-0.355-0.238c-0.136-0.074-0.281-0.133-0.44-0.177c-0.161-0.05-0.341-0.086-0.535-0.115   c-0.189-0.027-0.395-0.044-0.614-0.047l0.007,2.677c0.378,0.058,0.729,0.122,1.054,0.182c0.316,0.054,0.605,0.119,0.861,0.17   c0.26,0.062,0.487,0.122,0.688,0.174c0.201,0.056,0.365,0.114,0.507,0.161c0.229,0.091,0.426,0.196,0.593,0.307   c0.178,0.112,0.314,0.23,0.431,0.364c0.119,0.134,0.206,0.274,0.268,0.433c0.059,0.151,0.096,0.323,0.104,0.5   c0.007,0.255-0.027,0.497-0.089,0.722c-0.06,0.223-0.164,0.425-0.304,0.615c-0.146,0.185-0.323,0.353-0.536,0.506   c-0.214,0.145-0.463,0.278-0.755,0.39c-0.155,0.066-0.34,0.125-0.536,0.171c-0.196,0.052-0.417,0.101-0.646,0.145   c-0.239,0.037-0.489,0.074-0.758,0.105c-0.271,0.035-0.558,0.054-0.865,0.072l0.007,1.192h-0.979l0.004-1.192   c-0.5-0.018-0.945-0.058-1.359-0.123c-0.413-0.054-0.79-0.143-1.119-0.245c-0.329-0.101-0.627-0.227-0.87-0.37   c-0.251-0.143-0.463-0.31-0.633-0.493c-0.087-0.101-0.169-0.21-0.239-0.328c-0.07-0.116-0.129-0.243-0.167-0.376   c-0.04-0.135-0.074-0.273-0.091-0.429c-0.016-0.145-0.023-0.311-0.016-0.479h1.761c0.007,0.143,0.024,0.259,0.047,0.376   c0.026,0.116,0.051,0.221,0.087,0.322c0.035,0.1,0.075,0.187,0.119,0.267c0.049,0.079,0.1,0.152,0.155,0.217   c0.105,0.112,0.228,0.208,0.377,0.299c0.145,0.087,0.321,0.158,0.517,0.223c0.201,0.062,0.417,0.114,0.651,0.149   C48.347,43.574,48.615,43.595,48.898,43.612z M49.85,40.57l0.014,3.076c0.285-0.009,0.55-0.037,0.793-0.065   c0.243-0.038,0.466-0.087,0.662-0.147c0.197-0.061,0.375-0.14,0.525-0.227c0.155-0.087,0.292-0.191,0.396-0.31   c0.051-0.056,0.101-0.122,0.146-0.183c0.039-0.061,0.068-0.129,0.101-0.196c0.029-0.067,0.048-0.138,0.055-0.209   c0.007-0.073,0.022-0.145,0.022-0.225c-0.005-0.119-0.027-0.239-0.068-0.346c-0.041-0.101-0.101-0.201-0.176-0.292   c-0.077-0.091-0.178-0.177-0.292-0.252c-0.111-0.073-0.251-0.147-0.403-0.208c-0.092-0.038-0.191-0.071-0.313-0.111   c-0.12-0.037-0.25-0.067-0.402-0.105c-0.143-0.038-0.311-0.062-0.485-0.105C50.244,40.645,50.059,40.605,49.85,40.57z    M48.916,39.406l0.009-2.581c-0.215,0.005-0.412,0.014-0.593,0.038c-0.178,0.018-0.346,0.046-0.496,0.082   c-0.152,0.036-0.289,0.076-0.413,0.132c-0.116,0.051-0.225,0.115-0.316,0.182c-0.092,0.065-0.172,0.136-0.245,0.206   c-0.067,0.068-0.13,0.143-0.177,0.211c-0.042,0.072-0.078,0.145-0.101,0.221c-0.028,0.073-0.042,0.145-0.042,0.223   c0,0.091,0.009,0.177,0.038,0.256c0.027,0.08,0.065,0.156,0.119,0.231c0.049,0.07,0.122,0.141,0.196,0.201   c0.082,0.063,0.173,0.119,0.273,0.166c0.109,0.051,0.228,0.103,0.35,0.145c0.129,0.049,0.259,0.091,0.406,0.124   c0.145,0.042,0.307,0.072,0.465,0.098C48.548,39.367,48.729,39.391,48.916,39.406z M53.507,70.448h1.19   c1.581,0,2.85-1.277,2.85-2.855V64.91h-6.895v2.683C50.653,69.171,51.935,70.448,53.507,70.448z M22.279,76.881   c0,1.581,1.281,2.856,2.855,2.856h1.19c1.582,0,2.859-1.275,2.859-2.856V64.91h-6.902v11.971H22.279z M76.425,61.229H22.317v2.333   h54.108V61.229z M34.589,77.508h1.192c1.579,0,2.894-1.277,2.894-2.854V64.91h-6.927l-0.014,9.744   C31.733,76.23,33.011,77.508,34.589,77.508z M44.043,70.448h1.191c1.578,0,2.859-1.277,2.859-2.855V64.91h-6.898v2.683   C41.193,69.171,42.463,70.448,44.043,70.448z M60.07,74.654c0,1.576,1.312,2.854,2.89,2.854h1.193c1.578,0,2.858-1.277,2.858-2.854   l-0.017-9.744H60.07V74.654z" fill="#FFFFFF"/>
</g>
<g>
</g>
<g>
</g>
<g>
</g>
<g>
</g>
<g>
</g>
<g>
</g>
<g>
</g>
<g>
</g>
<g>
</g>
<g>
</g>
<g>
</g>
<g>
</g>
<g>
</g>
<g>
</g>
<g>
</g>
</svg>
