<?xml version="1.0" encoding="utf-8"?>
<!-- Generator: Adobe Illustrator 18.1.1, SVG Export Plug-In . SVG Version: 6.00 Build 0)  -->
<svg version="1.1" id="Capa_1" xmlns="http://www.w3.org/2000/svg" xmlns:xlink="http://www.w3.org/1999/xlink" x="0px" y="0px"
	 viewBox="-49 141 512 512" enable-background="new -49 141 512 512" xml:space="preserve">
<g>
	<path fill="#2F383E" d="M446.4,351.8c6.6,9.8,13.8,19.5,16.6,30.8c0,1.2,0,2.5,0,3.7c-1.8,13.9-13.4,23.3-28.4,19.1
		c-8.3-2.3-15-12.1-21-20.4c-4.7-6.5-8.8-13-12.9-18.5c-1.2-1.6-3.3-5.6-4.3-3.7c0,2.6,0,25.1,0,40.5c0.1,0.6,0.1,1.2,0.1,1.7v109.5
		c0,8.2-6.6,14.8-14.8,14.8h-6.2c-8.2,0-14.8-6.6-14.8-14.8l0-95.8c0-0.2,0-0.4,0-0.6v-0.8h-0.1c-0.6-2.3-2.7-4.1-5.3-4.1h-1v-7.3
		v-7v-99H217.2c4.3-16.3,12.9-28.2,22.5-37.7c14.4-14.1,31.8-20.3,57.4-22.8c6.8,0,13.6,0,20.4,0c46.4,2.4,71.6,24.5,91.3,54.9
		C421.1,313.5,433.7,332.8,446.4,351.8z M326.5,554.5h6.2c8.2,0,14.8-6.6,14.8-14.8v-62.1h-35.8v62.1
		C311.7,547.8,318.3,554.5,326.5,554.5z M66.7,307h280.6v92.1H66.7V307z M148.1,350c-0.4,4.7,0.9,9.3,3.6,13.4
		c2.8,4.3,6.9,8.1,12.2,11.4c5.3,3.3,11.8,6,19.1,7.9c7.3,1.9,15.4,2.9,24,2.9c8.6,0,16.7-1,24-2.9c7.3-1.9,13.8-4.6,19.2-7.9
		c5.3-3.3,9.4-7.1,12.2-11.4c2.7-4.2,4-8.7,3.6-13.4c-0.4-4.7-2.4-9-5.6-12.9c-3.2-3.9-7.7-7.3-13-10.3c-5.3-2.8-11.5-5.1-18.3-6.7
		c-6.8-1.6-14.2-2.5-22-2.5c-7.8,0-15.2,0.9-21.9,2.5c-6.8,1.6-13,3.9-18.3,6.7c-5.3,2.9-9.8,6.3-13,10.3
		C150.5,341,148.5,345.4,148.1,350z M347.3,406H66.7v12.1h280.6V406z M66.7,453.1h280.6V441H66.7V453.1z M66.7,435.6h280.6v-12.1
		H66.7V435.6z M38.5,529.4c8.2,0,14.8-6.6,14.8-14.8l0-95.8c0-0.2,0-0.4,0-0.6v-0.8h0.1c0.6-2.3,2.7-4.1,5.3-4.1h1v-7.3v-7v-99h137
		c-4.3-16.3-12.9-28.2-22.5-37.7c-14.4-14.1-31.8-20.3-57.4-22.8c-6.8,0-13.6,0-20.4,0c-46.3,2.4-71.7,24.5-91.3,54.9
		c-12.3,19.1-25,38.4-37.6,57.4c-6.6,9.8-13.8,19.5-16.7,30.8c0,1.2,0,2.5,0,3.7c1.8,13.9,13.4,23.3,28.4,19.1
		c8.3-2.3,15-12.1,21-20.4c4.8-6.5,8.8-13,12.9-18.5c1.2-1.6,3.3-5.6,4.3-3.7c0,2.6,0,25.1,0,40.5c-0.1,0.6-0.1,1.1-0.1,1.7v109.5
		c0,8.2,6.6,14.8,14.8,14.8H38.5L38.5,529.4z M204.5,367.1l0-16.5c-1.8-0.2-3.6-0.4-5.2-0.7c-1.6-0.3-3.1-0.6-4.5-0.9
		c-1.4-0.3-2.6-0.7-3.7-1.1c-1.1-0.4-2.1-0.8-3-1.3c-0.9-0.5-1.6-1-2.3-1.5c-0.6-0.6-1.2-1.1-1.6-1.8c-0.4-0.7-0.7-1.3-0.9-2.1
		c-0.2-0.7-0.3-1.5-0.2-2.3c0-0.7,0.2-1.4,0.4-2.1c0.3-0.7,0.6-1.3,1.1-2c0.5-0.6,1.1-1.3,1.8-1.9c0.7-0.6,1.5-1.2,2.5-1.8
		c0.9-0.6,2-1.1,3.1-1.5c1.1-0.4,2.3-0.8,3.6-1.1c1.3-0.3,2.7-0.5,4.2-0.6c1.5-0.1,3-0.2,4.7-0.3v-3.7h4.7l0,3.6
		c1.6,0.1,3.2,0.2,4.6,0.4c1.5,0.2,2.8,0.4,4.1,0.7c1.3,0.3,2.5,0.6,3.6,1c1.1,0.4,2.1,0.8,3,1.3c0.9,0.5,1.7,1,2.4,1.6
		c0.7,0.6,1.3,1.2,1.8,1.8c0.5,0.6,0.9,1.3,1.1,2c0.3,0.7,0.5,1.5,0.6,2.3h-8.9c-0.1-0.4-0.2-0.7-0.3-1.1c-0.1-0.3-0.3-0.6-0.4-0.9
		c-0.2-0.3-0.4-0.6-0.6-0.9c-0.3-0.3-0.5-0.6-0.8-0.8c-0.5-0.5-1.2-0.9-1.8-1.2c-0.7-0.4-1.5-0.7-2.3-0.9c-0.8-0.3-1.8-0.4-2.8-0.6
		c-1-0.1-2-0.2-3.2-0.2l0,13.9c2,0.3,3.8,0.6,5.5,0.9c1.6,0.3,3.1,0.6,4.5,0.9c1.3,0.3,2.5,0.6,3.6,0.9c1,0.3,1.9,0.6,2.6,0.8
		c1.2,0.5,2.2,1,3.1,1.6c0.9,0.6,1.6,1.2,2.2,1.9c0.6,0.7,1.1,1.4,1.4,2.2c0.3,0.8,0.5,1.7,0.5,2.6c0,1.3-0.1,2.6-0.5,3.7
		c-0.3,1.2-0.9,2.2-1.6,3.2c-0.8,1-1.7,1.8-2.8,2.6c-1.1,0.8-2.4,1.4-3.9,2c-0.8,0.3-1.8,0.6-2.8,0.9c-1,0.3-2.2,0.5-3.3,0.8
		c-1.2,0.2-2.5,0.4-3.9,0.5c-1.4,0.2-2.9,0.3-4.5,0.4l0,6.2h-5.1l0-6.2c-2.6-0.1-4.9-0.3-7-0.6c-2.1-0.3-4.1-0.7-5.8-1.3
		c-1.7-0.5-3.3-1.2-4.5-1.9c-1.3-0.7-2.4-1.6-3.3-2.6c-0.5-0.5-0.9-1.1-1.2-1.7c-0.4-0.6-0.7-1.3-0.9-1.9c-0.2-0.7-0.4-1.4-0.5-2.2
		c-0.1-0.8-0.1-1.6-0.1-2.5h9.1c0,0.7,0.1,1.3,0.2,1.9c0.1,0.6,0.3,1.1,0.5,1.7c0.2,0.5,0.4,1,0.6,1.4c0.3,0.4,0.5,0.8,0.8,1.1
		c0.5,0.6,1.2,1.1,2,1.6c0.8,0.5,1.7,0.8,2.7,1.2c1,0.3,2.2,0.6,3.4,0.8C201.7,366.9,203.1,367,204.5,367.1z M209.5,351.4l0.1,15.9
		c1.5,0,2.9-0.2,4.1-0.3c1.3-0.2,2.4-0.5,3.4-0.8c1-0.3,1.9-0.7,2.7-1.2c0.8-0.5,1.5-1,2.1-1.6c0.3-0.3,0.5-0.6,0.8-0.9
		c0.2-0.3,0.4-0.7,0.5-1c0.2-0.3,0.2-0.7,0.3-1.1c0-0.4,0.1-0.8,0.1-1.2c0-0.6-0.1-1.2-0.4-1.8c-0.2-0.5-0.5-1-0.9-1.5
		c-0.4-0.5-0.9-0.9-1.5-1.3c-0.6-0.4-1.3-0.8-2.1-1.1c-0.5-0.2-1-0.4-1.6-0.6c-0.6-0.2-1.3-0.3-2.1-0.5c-0.7-0.2-1.6-0.3-2.5-0.5
		C211.5,351.8,210.6,351.5,209.5,351.4z M204.6,345.3l0-13.4c-1.1,0-2.1,0.1-3.1,0.2c-0.9,0.1-1.8,0.2-2.6,0.4
		c-0.8,0.2-1.5,0.4-2.1,0.7c-0.6,0.3-1.2,0.6-1.6,0.9c-0.5,0.3-0.9,0.7-1.3,1.1c-0.3,0.4-0.7,0.7-0.9,1.1c-0.2,0.4-0.4,0.8-0.5,1.1
		c-0.1,0.4-0.2,0.8-0.2,1.2c0,0.5,0,0.9,0.2,1.3c0.1,0.4,0.3,0.8,0.6,1.2c0.3,0.4,0.6,0.7,1,1c0.4,0.3,0.9,0.6,1.4,0.9
		c0.6,0.3,1.2,0.5,1.8,0.8c0.7,0.3,1.3,0.5,2.1,0.6c0.8,0.2,1.6,0.4,2.4,0.5C202.7,345.1,203.7,345.2,204.6,345.3z M228.4,506.3h6.2
		c8.2,0,14.8-6.6,14.8-14.8v-13.9h-35.8v13.9C213.6,499.7,220.3,506.3,228.4,506.3z M66.5,539.6c0,8.2,6.6,14.8,14.8,14.8h6.2
		c8.2,0,14.8-6.6,14.8-14.8v-62.1H66.5L66.5,539.6L66.5,539.6L66.5,539.6z M347.3,458.5H66.7v12.1h280.6V458.5z M130.4,542.9h6.2
		c8.2,0,15-6.6,15-14.8v-50.5h-35.9l-0.1,50.5C115.5,536.3,122.2,542.9,130.4,542.9z M179.4,506.3h6.2c8.2,0,14.8-6.6,14.8-14.8
		v-13.9h-35.8v13.9C164.6,499.7,171.2,506.3,179.4,506.3z M262.5,528.1c0,8.2,6.8,14.8,15,14.8h6.2c8.2,0,14.8-6.6,14.8-14.8
		l-0.1-50.5h-35.9V528.1z"/>
</g>
</svg>
