<?xml version="1.0" encoding="utf-8"?>
<!-- Generator: Adobe Illustrator 18.1.1, SVG Export Plug-In . SVG Version: 6.00 Build 0)  -->
<svg version="1.1" id="Capa_1" xmlns="http://www.w3.org/2000/svg" xmlns:xlink="http://www.w3.org/1999/xlink" x="0px" y="0px"
	 viewBox="-49 141 512 512" enable-background="new -49 141 512 512" xml:space="preserve">
<g>
	<path fill="#2F383E" d="M143.8,326.5c35.4,20.4,92.6,20.4,127.7,0c35.2-20.4,34.9-53.6-0.4-74s-92.6-20.4-127.7,0
		S108.4,306,143.8,326.5z M160,291.2c2.7-0.8,5.4-1.8,8-2.6c2-0.6,3.2-0.7,4-0.3c0.5,0.3,0.8,0.7,1.3,1.5c1.8,3.4,4.7,6.3,8.4,9
		c0.6,0.5,1.3,0.9,2,1.4c2,1.2,4.2,2,6.9,2.6c6.8,1.5,12.9-1.2,12.2-5.4c-0.2-1.5-0.9-2.7-1.9-4.1c-2.3-3.5-5.3-6.7-6.8-10.3
		c-2.5-5.9-1.4-11.2,6.7-15.4c9.3-4.7,19.5-4.9,30.4-2.1c4.4,1.3,4.4,1.3,7.9-0.7c1.2-0.6,2.3-1.4,3.5-2c2.6-1.5,3.6-1.5,6.2,0
		c0.8,0.4,1.6,0.9,2.4,1.4c5.5,3.2,5.5,3.2,0.1,6.4c-3.9,2.2-3.9,2.2-0.6,4.8c2.5,2,4.4,4.1,6,6.4c0.8,1.3,0.3,2.2-1.7,2.8
		c-3.1,0.9-6.1,2-9.2,2.9c-1.9,0.5-3.1,0.6-3.9,0.2c-0.4-0.3-0.8-0.7-1.3-1.4c-2-3.3-5.1-6-9.2-8.4c-0.5-0.3-1.2-0.6-1.8-0.9
		c-1.4-0.6-2.6-1.3-4.3-1.7c-5.9-1.4-11,0.8-10.3,4.5c0.3,1.9,1.4,3.6,2.6,5.3c2.1,2.9,4.3,5.9,5.9,8.9c4.9,9.9-5.8,19.6-22.9,20.5
		c-6.2,0.3-12.1-0.4-17.5-2.2c-2.3-0.7-4.1-0.6-6,0.5c-1.8,1.2-3.8,2.2-5.6,3.3c-1.7,0.9-3.5,1.1-5.2,0.1c-1.3-0.6-2.4-1.4-3.7-2
		c-0.8-0.5-1.7-0.9-2.5-1.5c-1.8-1.1-1.6-2.1,0.1-3.2c1.4-0.8,2.7-1.6,4-2.4c3.1-1.8,3.1-1.9,0.5-3.9c-3.2-2.5-6-5.2-7.8-8.1
		C156,293,156.3,292.4,160,291.2z M283,333.1c9.8-5.7,25.6-5.7,35.4,0c9.8,5.7,9.9,14.8,0.1,20.5c-9.7,5.7-25.6,5.7-35.4,0
		S273.2,338.7,283,333.1z M96.5,225.4c9.8-5.7,25.6-5.7,35.5,0c9.8,5.7,9.9,14.8,0.1,20.5c-9.7,5.7-25.6,5.7-35.4,0
		C86.9,240.3,86.7,231.1,96.5,225.4z M-35.9,269.3l279.1,161.1c16.1,9.4,42.3,9.4,58.3,0L451,343.5c16-9.4,16-24.5-0.1-33.8
		L171.8,148.5c-16.1-9.4-42.3-9.3-58.4,0l-149.5,87C-52.1,244.8-52,259.9-35.9,269.3z M24.7,235.1c-1.8-1.1-3.7-1.9-5.7-2.7
		l89.3-51.9c1.4,1.2,2.9,2.2,4.7,3.3c16.3,9.5,42.8,9.4,59,0c1.9-1.1,3.5-2.2,4.8-3.5l217.4,125.5c-2.9,1.1-5.6,2.2-8.1,3.7
		c-16.3,9.5-16.2,24.7,0.2,34.2c2.5,1.5,5.3,2.6,8.2,3.7l-90.2,52.4c-1.8-1.7-3.9-3.3-6.4-4.7c-16.4-9.5-42.8-9.5-59,0
		c-1.3,0.7-2.3,1.5-3.4,2.3L18.9,272.1c2.1-0.8,4.1-1.8,5.9-2.8C41.1,259.9,41,244.6,24.7,235.1z M-43.2,301.5
		c7-3.7,18.1-3.2,24.9,0.8l291.7,168.4L431.1,379c6.8-4,18-4,24.8,0c6.9,4,6.9,10.4,0.1,14.4l-167.6,97.4c-8.2,4.7-21.6,4.7-29.8,0
		l-5.9-3.4l-4.1-2.4L-43.8,316.3C-50.9,312.1-50.8,305.4-43.2,301.5z M456.4,446.2l-167.6,97.4c-8.2,4.7-21.6,4.7-29.8,0l-5.9-3.4
		l-4.2-2.4L-43.5,368.9c-7.2-4.1-6.9-10.8,0.6-14.8c7-3.7,18.1-3.2,24.9,0.8l291.7,168.4l157.6-91.5c6.8-4,18-4,24.9,0
		C463.1,435.8,463.2,442.2,456.4,446.2z M-43.2,406.8c7-3.7,18.1-3.2,24.9,0.8l291.7,168.5l157.7-91.8c6.8-4,18-4,24.8,0
		c6.9,4,6.9,10.4,0.1,14.4l-167.6,97.4c-8.2,4.7-21.6,4.7-29.8,0l-5.9-3.4l-4.1-2.4L-43.8,421.7C-50.9,417.6-50.8,410.8-43.2,406.8z
		 M456.4,551.5l-167.6,97.4c-8.2,4.7-21.6,4.7-29.8,0l-5.9-3.4l-4.2-2.4L-43.5,474.3c-7.2-4.1-6.9-10.8,0.6-14.8
		c7-3.7,18.1-3.2,24.9,0.8l291.7,168.4L431.4,537c6.8-4,18-4,24.9,0C463.1,541.1,463.2,547.5,456.4,551.5z"/>
</g>
</svg>
