<?xml version="1.0" encoding="iso-8859-1"?>
<!-- Generator: Adobe Illustrator 19.0.0, SVG Export Plug-In . SVG Version: 6.00 Build 0)  -->
<svg xmlns="http://www.w3.org/2000/svg" xmlns:xlink="http://www.w3.org/1999/xlink" version="1.1" id="Capa_1" x="0px" y="0px" viewBox="0 0 486.603 486.603" style="enable-background:new 0 0 486.603 486.603;" xml:space="preserve" width="512px" height="512px">
<g>
	<path d="M183.216,176.333c33.6,19.4,88,19.4,121.4,0c33.5-19.4,33.2-50.9-0.4-70.3s-88-19.4-121.4,0   S149.616,156.833,183.216,176.333z M198.616,142.733c2.6-0.8,5.1-1.7,7.6-2.5c1.9-0.6,3-0.7,3.8-0.3c0.5,0.3,0.8,0.7,1.2,1.4   c1.7,3.2,4.5,6,8,8.6c0.6,0.5,1.2,0.9,1.9,1.3c1.9,1.1,4,1.9,6.6,2.5c6.5,1.4,12.3-1.1,11.6-5.1c-0.2-1.4-0.9-2.6-1.8-3.9   c-2.2-3.3-5-6.4-6.5-9.8c-2.4-5.6-1.3-10.6,6.4-14.6c8.8-4.5,18.5-4.7,28.9-2c4.2,1.2,4.2,1.2,7.5-0.7c1.1-0.6,2.2-1.3,3.3-1.9   c2.5-1.4,3.4-1.4,5.9,0c0.8,0.4,1.5,0.9,2.3,1.3c5.2,3,5.2,3,0.1,6.1c-3.7,2.1-3.7,2.1-0.6,4.6c2.4,1.9,4.2,3.9,5.7,6.1   c0.8,1.2,0.3,2.1-1.6,2.7c-2.9,0.9-5.8,1.9-8.7,2.8c-1.8,0.5-2.9,0.6-3.7,0.2c-0.4-0.3-0.8-0.7-1.2-1.3c-1.9-3.1-4.8-5.7-8.7-8   c-0.5-0.3-1.1-0.6-1.7-0.9c-1.3-0.6-2.5-1.2-4.1-1.6c-5.6-1.3-10.5,0.8-9.8,4.3c0.3,1.8,1.3,3.4,2.5,5c2,2.8,4.1,5.6,5.6,8.5   c4.7,9.4-5.5,18.6-21.8,19.5c-5.9,0.3-11.5-0.4-16.6-2.1c-2.2-0.7-3.9-0.6-5.7,0.5c-1.7,1.1-3.6,2.1-5.3,3.1   c-1.6,0.9-3.3,1-4.9,0.1c-1.2-0.6-2.3-1.3-3.5-1.9c-0.8-0.5-1.6-0.9-2.4-1.4c-1.7-1-1.5-2,0.1-3c1.3-0.8,2.6-1.5,3.8-2.3   c2.9-1.7,2.9-1.8,0.5-3.7c-3-2.4-5.7-4.9-7.4-7.7C194.816,144.433,195.116,143.933,198.616,142.733z M315.516,182.533   c9.3-5.4,24.3-5.4,33.6,0c9.3,5.4,9.4,14.1,0.1,19.5c-9.2,5.4-24.3,5.4-33.6,0S306.216,187.933,315.516,182.533z M138.316,80.233   c9.3-5.4,24.3-5.4,33.7,0c9.3,5.4,9.4,14.1,0.1,19.5c-9.2,5.4-24.3,5.4-33.6,0C129.116,94.333,129.016,85.633,138.316,80.233z    M12.416,121.933l265.3,153.1c15.3,8.9,40.2,8.9,55.4,0l142.1-82.6c15.2-8.9,15.2-23.3-0.1-32.1l-265.3-153.2   c-15.3-8.9-40.2-8.8-55.5,0l-142.1,82.7C-2.984,98.633-2.884,113.033,12.416,121.933z M70.016,89.433c-1.7-1-3.5-1.8-5.4-2.6   l84.9-49.3c1.3,1.1,2.8,2.1,4.5,3.1c15.5,9,40.7,8.9,56.1,0c1.8-1,3.3-2.1,4.6-3.3l206.6,119.3c-2.8,1-5.3,2.1-7.7,3.5   c-15.5,9-15.4,23.5,0.2,32.5c2.4,1.4,5,2.5,7.8,3.5l-85.7,49.8c-1.7-1.6-3.7-3.1-6.1-4.5c-15.6-9-40.7-9-56.1,0   c-1.2,0.7-2.2,1.4-3.2,2.2l-206-119c2-0.8,3.9-1.7,5.6-2.7C85.616,113.033,85.516,98.433,70.016,89.433z M5.516,152.533   c6.7-3.5,17.2-3,23.7,0.8l277.2,160l149.9-87.1c6.5-3.8,17.1-3.8,23.6,0c6.6,3.8,6.6,9.9,0.1,13.7l-159.3,92.6   c-7.8,4.5-20.5,4.5-28.3,0l-5.6-3.2l-3.9-2.3l-278-160.4C-1.784,162.633-1.684,156.233,5.516,152.533z M480.316,290.033   l-159.3,92.6c-7.8,4.5-20.5,4.5-28.3,0l-5.6-3.2l-4-2.3l-277.9-160.5c-6.8-3.9-6.6-10.3,0.6-14.1c6.7-3.5,17.2-3,23.7,0.8   l277.2,160l149.8-87c6.5-3.8,17.1-3.8,23.7,0C486.716,280.133,486.816,286.233,480.316,290.033z M5.516,252.633   c6.7-3.5,17.2-3,23.7,0.8l277.2,160.1l149.9-87.2c6.5-3.8,17.1-3.8,23.6,0c6.6,3.8,6.6,9.9,0.1,13.7l-159.3,92.6   c-7.8,4.5-20.5,4.5-28.3,0l-5.6-3.2l-3.9-2.3l-278-160.4C-1.784,262.833-1.684,256.433,5.516,252.633z M480.316,390.133   l-159.3,92.6c-7.8,4.5-20.5,4.5-28.3,0l-5.6-3.2l-4-2.3l-277.9-160.5c-6.8-3.9-6.6-10.3,0.6-14.1c6.7-3.5,17.2-3,23.7,0.8   l277.2,160l149.9-87.1c6.5-3.8,17.1-3.8,23.7,0C486.716,380.233,486.816,386.333,480.316,390.133z" fill="#FFFFFF"/>
</g>
<g>
</g>
<g>
</g>
<g>
</g>
<g>
</g>
<g>
</g>
<g>
</g>
<g>
</g>
<g>
</g>
<g>
</g>
<g>
</g>
<g>
</g>
<g>
</g>
<g>
</g>
<g>
</g>
<g>
</g>
</svg>
