<?xml version="1.0" encoding="utf-8"?>
<!-- Generator: Adobe Illustrator 18.1.1, SVG Export Plug-In . SVG Version: 6.00 Build 0)  -->
<svg version="1.1" id="Capa_1" xmlns="http://www.w3.org/2000/svg" xmlns:xlink="http://www.w3.org/1999/xlink" x="0px" y="0px"
	 viewBox="-49 141 512 512" enable-background="new -49 141 512 512" xml:space="preserve">
<g>
	<g>
		<path fill="#2F383E" d="M216.3,200.1c0.4,10.9,0.9,21.8,1.3,32.7c-8.5,0-12.7,0-21.2,0c0.4-10.9,0.9-21.8,1.3-32.7
			c-17.2,0-34.4,0-51.6,0C111.6,331.4,77,462.6,42.4,593.9c46.5,0,93,0,139.5,0c0.4-10.9,0.9-21.8,1.3-32.7c15.9,0,31.7,0,47.6,0
			c0.4,10.9,0.9,21.8,1.3,32.7c46.5,0,93,0,139.5,0C337,462.6,302.4,331.4,267.9,200.1C250.7,200.1,233.5,200.1,216.3,200.1z
			 M194.4,281.7c8.4,0,16.8,0,25.1,0c1.2,30.3,2.4,60.6,3.7,90.9c-10.8,0-21.6,0-32.4,0C192,342.3,193.2,312,194.4,281.7z
			 M185.2,512.3c1.2-30.3,2.4-60.6,3.7-90.9c12.1,0,24.2,0,36.4,0c1.2,30.3,2.4,60.6,3.7,90.9C214.3,512.3,199.7,512.3,185.2,512.3z
			"/>
		<path fill="#2F383E" d="M301.7,200.1c-7,0-10.5,0-17.6,0c43.8,131.3,87.6,262.6,131.4,393.8c15.8,0,31.7,0,47.5,0
			C409.2,462.6,355.5,331.4,301.7,200.1z"/>
		<path fill="#2F383E" d="M112.3,200.1C58.5,331.4,4.8,462.6-49,593.9c15.8,0,31.7,0,47.5,0c43.8-131.3,87.6-262.6,131.4-393.8
			C122.9,200.1,119.3,200.1,112.3,200.1z"/>
	</g>
</g>
</svg>
