<?xml version="1.0" encoding="utf-8"?>
<!-- Generator: Adobe Illustrator 18.1.1, SVG Export Plug-In . SVG Version: 6.00 Build 0)  -->
<svg version="1.1" id="Capa_1" xmlns="http://www.w3.org/2000/svg" xmlns:xlink="http://www.w3.org/1999/xlink" x="0px" y="0px"
	 viewBox="-49 141 512 512" enable-background="new -49 141 512 512" xml:space="preserve">
<g>
	<path fill="#2F383E" d="M166.8,422.2c0,14.5-11.8,26.3-26.3,26.3c-14.5,0-26.3-11.8-26.3-26.3c0-14.5,11.8-26.3,26.3-26.3
		C155,395.9,166.8,407.6,166.8,422.2z M273.5,395.9c-14.5,0-26.3,11.8-26.3,26.3c0,14.5,11.8,26.3,26.3,26.3
		c14.5,0,26.3-11.8,26.3-26.3C299.8,407.6,288,395.9,273.5,395.9z M463,407.5v50c0,25.1-20.3,45.4-45.4,45.4h-33
		C352,593.6,268.6,648.3,207,648.3S62,593.6,29.4,502.9h-33c-25.1,0-45.4-20.3-45.4-45.4v-50c0-17.3,9.6-32.3,23.8-40
		c0.5-70.9,21.1-126.3,61.5-164.6c40.1-38,97.5-57.2,170.7-57.2s130.6,19.3,170.7,57.2c40.4,38.3,61.1,93.7,61.5,164.6
		C453.4,375.2,463,390.2,463,407.5z M366.9,422.3c0-11.7-0.6-22.7-1.5-33.3c-20.2-18.4-56.7-32.4-102.9-37.6
		c6.1,6.8,11.3,15.8,14.5,27.6c-28.3-22.3-83.8-17-125.8-66.8c-2.4-2.8-4.5-5.4-6.3-7.9c0,0,0-0.1-0.1-0.1l0,0
		c-7.5-10.1-10-16.1-10.2-9.5c-1.2,57.3-41.9,102-87,108.3c-0.3,6.3-0.5,12.7-0.5,19.3c0,24.2,4,46.3,10.7,66.2
		C83.2,519.1,125,527.7,162,530c6.9-10.9,22.3-18.6,40.3-18.6c24.4,0,44.1,14,44.1,31.3c0,17.3-19.7,31.3-44.1,31.3
		c-18.7,0-34.7-8.3-41.1-20c-25.9-1.5-54.3-5.9-79.7-17.9c35.7,52.6,91,80.4,125.5,80.4C261.3,616.5,366.9,548,366.9,422.3z
		 M411.8,362.1C409,238.3,338.3,172.9,207,172.9S5,238.3,2.2,362.1h17.5c6.4-41.7,19.9-76,40.4-102.4c32.7-42,82.1-63.4,147-63.4
		s114.3,21.3,147,63.4c20.5,26.4,34,60.7,40.4,102.4L411.8,362.1L411.8,362.1z"/>
</g>
</svg>
