<?xml version="1.0" encoding="utf-8"?>
<!-- Generator: Adobe Illustrator 18.1.1, SVG Export Plug-In . SVG Version: 6.00 Build 0)  -->
<svg version="1.1" id="Capa_1" xmlns="http://www.w3.org/2000/svg" xmlns:xlink="http://www.w3.org/1999/xlink" x="0px" y="0px"
	 viewBox="-49 141 512 512" enable-background="new -49 141 512 512" xml:space="preserve">
<g>
	<path fill="#2F383E" d="M89.1,203.3l13.9,6.1c-9.6,5.9-14,11.7-12.9,17.2c1.1,5.7,6.3,10.6,15.4,14.5c8.4,3.7,18.3,5.6,30.2,6.1
		c11.8,0.4,30-2.9,54.1-9.9c6-1.7,10.7-2.7,13.9-3c3.2-0.3,5.8,0.1,8.1,1.1c1.6,0.7,6.5,2.8-5.8,8.2c-8,3.5-16.3,4.9-24.6,4.3
		c-6.6-0.5-13.3,0.7-17.1,3.1l-7.4,4.7c-3.2,2.1-3.9,4.7-1.8,7c2.1,2.3,6.8,4,12.4,4.5c18.3,1.6,36.3-0.5,53.7-6.2l18.7,8.2
		c6.7,2.9,17.5,2.9,24.1,0c6.7-2.9,6.7-7.6,0-10.5l-19.4-8.5c8.5-5.4,13-10.9,13.3-16.3c0.4-6.3-4.7-11.9-15.2-16.4
		c-7.5-3.3-16-5.3-25.3-6c-9.3-0.7-18.1-0.3-26.2,1.2c-8,1.5-20.1,4.5-36,9c-6.9,1.9-11.6,2.9-13.9,2.9c-2.2,0-4.3-0.3-5.8-1
		c-5.5-2.4-0.9-5.5,4-7.6c6.1-2.6,12.5-3.9,19.2-3.7c6.7,0.2,13-1.4,16.1-4l4.3-3.6c2.7-2.3,2.6-5-0.4-7.2
		c-2.9-2.2-8.3-3.6-14.1-3.7c-12.7-0.2-25,1.5-37.3,5.2l-14.1-6.2c-6.7-2.9-17.5-2.9-24.1,0C82.5,195.7,82.5,200.4,89.1,203.3z"/>
	<path fill="#2F383E" d="M382.4,278.4c1.1-4.7,1.7-9.5,1.7-14.3v-15.3c0-30.6-22.8-58.6-64.3-78.8c-38.5-18.7-89.3-29-143.1-29
		S71.9,151.3,33.5,170c-41.5,20.2-64.3,48.2-64.3,78.8v15.3c0,30.2,22.2,57.8,62.6,77.9c-1.1,4.7-1.8,10.5-1.8,14.2v2.8
		c-39.2,20-60.8,47.3-60.8,77v15.3c0,20.6,10.4,40.1,29.9,56.7c-2.6,7-4,14.3-4,21.7v15.3c0,30.6,22.8,58.6,64.3,78.8
		c38.5,18.7,89.3,29,143.1,29s104.7-10.3,143.1-29c41.5-20.2,64.3-48.2,64.3-78.8v-15.3c0-20.6-10.4-40.1-29.9-56.7
		c2.6-7,4-14.3,4-21.8v-2.8c39.2-20,60.8-47.3,60.8-77v-15.3C444.8,326.2,422.7,298.6,382.4,278.4z M-1.9,235.9
		c6-15.3,22.4-30.1,46.9-42.1c34.9-17,81.6-26.4,131.6-26.4s96.6,9.4,131.6,26.4c24.5,11.9,40.9,26.8,46.9,42.1
		c-21.2,36.9-95,63.8-178.5,63.8S19.4,272.8-1.9,235.9z M-1.9,423.1c4.9-12.4,16.7-24.5,34.1-35.1c6.7,24.1,28.1,45.8,62.1,62.3
		c38.5,18.7,89.3,29,143.1,29c5.3,0,10.5-0.1,15.7-0.3c-23.5,5.1-49.5,7.9-76.5,7.9C93.1,487,19.4,460-1.9,423.1z M381,516.9
		c-21.2,36.9-95,63.8-178.5,63.8c-72.5,0-137.7-20.3-167.4-49.9c38.3,18.3,88.4,28.3,141.6,28.3c53.8,0,104.7-10.3,143.1-29
		c19.9-9.7,35.5-21.2,46.4-33.9C373.2,502.9,378.2,509.8,381,516.9z M237.4,407.2c-72.9,0-138.4-20.5-167.9-50.3
		c31.9,9.8,68.8,15.1,107.2,15.1c53.8,0,104.7-10.3,143.1-29c23.3-11.3,40.7-25.1,51.5-40.5c23.2,11.7,38.8,26.1,44.6,40.9
		C394.6,380.3,320.9,407.2,237.4,407.2z"/>
</g>
</svg>
