<?xml version="1.0" encoding="utf-8"?>
<!-- Generator: Adobe Illustrator 18.1.1, SVG Export Plug-In . SVG Version: 6.00 Build 0)  -->
<svg version="1.1" id="Capa_1" xmlns="http://www.w3.org/2000/svg" xmlns:xlink="http://www.w3.org/1999/xlink" x="0px" y="0px"
	 viewBox="-49 141 512 512" enable-background="new -49 141 512 512" xml:space="preserve">
<g>
	<path fill="#2F383E" d="M335.7,188.2h-32.9v-30.8c0-9.1-7.4-16.4-16.4-16.4H127.6c-9.1,0-16.4,7.4-16.4,16.4v30.8H78.3
		c-21.2,0-38.3,17.2-38.3,38.3v388.1c0,21.2,17.2,38.3,38.3,38.3h257.5c21.2,0,38.3-17.2,38.3-38.3V226.6
		C374.1,205.4,356.9,188.2,335.7,188.2z M250.8,226.6v-38.3v-14.4H270v14.4v38.3v36.3h-19.2V226.6z M144,226.6v-38.3v-14.4h60.3
		v14.4v38.3v36.3H144V226.6L144,226.6z M154,608c0,9.1-7.4,16.4-16.4,16.4h-26.5c-9.1,0-16.4-7.4-16.4-16.4v-28.3
		c0-9.1,7.4-16.4,16.4-16.4h26.5c9.1,0,16.4,7.4,16.4,16.4V608L154,608z M154,525.4c0,9.1-7.4,16.4-16.4,16.4h-26.5
		c-9.1,0-16.4-7.4-16.4-16.4v-28.3c0-9.1,7.4-16.4,16.4-16.4h26.5c9.1,0,16.4,7.4,16.4,16.4V525.4L154,525.4z M154,442.8
		c0,9.1-7.4,16.4-16.4,16.4h-26.5c-9.1,0-16.4-7.4-16.4-16.4v-28.3c0-9.1,7.4-16.4,16.4-16.4h26.5c9.1,0,16.4,7.4,16.4,16.4V442.8
		L154,442.8z M236.7,608c0,9.1-7.4,16.4-16.4,16.4h-26.5c-9.1,0-16.4-7.4-16.4-16.4v-28.3c0-9.1,7.4-16.4,16.4-16.4h26.5
		c9.1,0,16.4,7.4,16.4,16.4V608z M236.7,525.4c0,9.1-7.4,16.4-16.4,16.4h-26.5c-9.1,0-16.4-7.4-16.4-16.4v-28.3
		c0-9.1,7.4-16.4,16.4-16.4h26.5c9.1,0,16.4,7.4,16.4,16.4V525.4z M236.7,442.8c0,9.1-7.4,16.4-16.4,16.4h-26.5
		c-9.1,0-16.4-7.4-16.4-16.4v-28.3c0-9.1,7.4-16.4,16.4-16.4h26.5c9.1,0,16.4,7.4,16.4,16.4V442.8z M319.3,608
		c0,9.1-7.4,16.4-16.4,16.4h-26.5c-9.1,0-16.4-7.4-16.4-16.4v-28.3c0-9.1,7.4-16.4,16.4-16.4h26.5c9.1,0,16.4,7.4,16.4,16.4V608z
		 M319.3,525.4c0,9.1-7.4,16.4-16.4,16.4h-26.5c-9.1,0-16.4-7.4-16.4-16.4v-28.3c0-9.1,7.4-16.4,16.4-16.4h26.5
		c9.1,0,16.4,7.4,16.4,16.4V525.4z M319.3,442.8c0,9.1-7.4,16.4-16.4,16.4h-26.5c-9.1,0-16.4-7.4-16.4-16.4v-28.3
		c0-9.1,7.4-16.4,16.4-16.4h26.5c9.1,0,16.4,7.4,16.4,16.4V442.8z M319.3,346.8c0,15.5-12.6,28.1-28.1,28.1H122.8
		c-15.5,0-28.1-12.6-28.1-28.1v-29c0-15.5,12.6-28.1,28.1-28.1h168.5c15.5,0,28.1,12.6,28.1,28.1L319.3,346.8L319.3,346.8z"/>
</g>
</svg>
