<?xml version="1.0" encoding="utf-8"?>
<!-- Generator: Adobe Illustrator 18.1.1, SVG Export Plug-In . SVG Version: 6.00 Build 0)  -->
<svg version="1.1" id="Capa_1" xmlns="http://www.w3.org/2000/svg" xmlns:xlink="http://www.w3.org/1999/xlink" x="0px" y="0px"
	 viewBox="-49 141 512 512" enable-background="new -49 141 512 512" xml:space="preserve">
<g>
	<path fill="#2F383E" d="M-49,653h256V141H-49V653z M111,205h64v64h-64V205z M111,333h64v64h-64V333z M111,461h64v64h-64V461z
		 M-17,205h64v64h-64V205z M-17,333h64v64h-64V333z M-17,461h64v64h-64V461z M239,301h224v32H239V301z M239,653h64V525h96v128h64
		V365H239V653z"/>
</g>
</svg>
