<?xml version="1.0" encoding="utf-8"?>
<!-- Generator: Adobe Illustrator 18.1.1, SVG Export Plug-In . SVG Version: 6.00 Build 0)  -->
<svg version="1.1" id="Capa_1" xmlns="http://www.w3.org/2000/svg" xmlns:xlink="http://www.w3.org/1999/xlink" x="0px" y="0px"
	 viewBox="-49 141 512 512" enable-background="new -49 141 512 512" xml:space="preserve">
<g>
	<path fill="#2F383E" d="M-15.4,229.3c-9.6-29,6.2-60.3,35.2-69.8c29-9.6,60.3,6.2,69.8,35.2L198.3,524c-10.1-2.7-20.9-3.2-31.6-1.2
		L61.4,203.9c-4.4-13.4-18.9-20.7-32.4-16.3c-13.4,4.4-20.7,18.9-16.3,32.4c2.6,7.8-1.7,16.2-9.4,18.7
		C-4.5,241.3-12.9,237.1-15.4,229.3z M412.7,487.7l-178.1,58.7c6.3,7.2,11.3,15.7,14.5,25.3c0.1,0.3,0.2,0.7,0.3,1L422,515.9
		c7.8-2.6,12-11,9.4-18.7C428.9,489.3,420.5,485.1,412.7,487.7z M235.1,576.4C245.2,607,228.6,640,198,650
		c-30.6,10.1-63.5-6.5-73.6-37.1c-10.1-30.6,6.5-63.5,37.1-73.6C192,529.2,225,545.8,235.1,576.4z M207.4,585.6
		c-5-15.3-21.5-23.6-36.8-18.5c-15.3,5-23.6,21.5-18.5,36.8c5,15.3,21.5,23.6,36.8,18.5C204.2,617.3,212.5,600.8,207.4,585.6z
		 M367.7,264.3l60.4,183.2c1.3,3.9-0.8,8.1-4.7,9.4l-190.3,62.8c-3.9,1.3-8.1-0.8-9.4-4.7l-60.4-183.2c-1.3-3.9,0.8-8.1,4.7-9.4
		l190.3-62.8C362.3,258.3,366.4,260.4,367.7,264.3z M342.6,370.7l-64.8-35.6l-30.8,67.2l20.4,9.4l13.3-29.1l24.1,73l23-7.6l-24.1-73
		l28,15.4L342.6,370.7z M286,261.4l-38.6-117.1c-0.8-2.5-3.5-3.8-6-3l-33.1,10.9l-0.2,0.3l-0.3-0.2l-17.5,5.8l14.4,43.6l-19.7,6.5
		l-14.4-43.6l-17.5,5.8l-0.1,0.3l-0.3-0.1l-32.9,10.9c-2.5,0.8-3.8,3.5-3,6l38.6,117.1c0.8,2.5,3.5,3.8,6,3L283,267.4
		C285.5,266.6,286.9,263.9,286,261.4z"/>
</g>
</svg>
