<?xml version="1.0" encoding="utf-8"?>
<!-- Generator: Adobe Illustrator 18.1.1, SVG Export Plug-In . SVG Version: 6.00 Build 0)  -->
<svg version="1.1" id="Capa_1" xmlns="http://www.w3.org/2000/svg" xmlns:xlink="http://www.w3.org/1999/xlink" x="0px" y="0px"
	 viewBox="-49 141 512 512" enable-background="new -49 141 512 512" xml:space="preserve">
<g>
	<g>
		<path fill="#2F383E" d="M-49,621.6h512v-128C116.3,465.8-49,621.6-49,621.6z"/>
		<path fill="#2F383E" d="M337.4,405.7v-82.3c15.8,2.3,28,13.2,28-24.5c0-41.5-32.8-126.4-32.8-126.4s-32.9,84.9-32.9,126.4
			c0,38.4,12.6,26.5,28.8,24.4v83.1c-20.9,2-41.5,5.1-61.7,9V313.6l2.4,1.8c1.8,1.4,4,2.1,6.2,2.1c3.1,0,6.2-1.4,8.2-4.1
			c3.4-4.5,2.5-11-2-14.4l-24.3-18.3c0-0.3,0.1-0.7,0.1-1.1v-17.1c0-5.7-4.6-10.3-10.3-10.3c-5.7,0-10.3,4.6-10.3,10.3v2.9
			l-23.7-17.8c-3.6-2.7-8.7-2.7-12.3,0L132.4,299c-4.5,3.4-5.4,9.9-2,14.4c3.4,4.5,9.8,5.4,14.4,2.1l2.4-1.8v59.5
			C52.5,323.9-49,338.2-49,338.2v57c0,0,136.9-29.6,263.3,27c-15.7-15.8-32.7-28.5-50.1-39.2v-82.1l42.8-32.1l42.8,32.1v117.8
			C139.8,442.3,46.1,488.4,1.2,518.1c101.4-30.9,290.1-96,461.8-54.4v-54.4C421.1,402.7,378.7,402.2,337.4,405.7z"/>
	</g>
</g>
</svg>
