<?xml version="1.0" encoding="utf-8"?>
<!-- Generator: Adobe Illustrator 18.1.1, SVG Export Plug-In . SVG Version: 6.00 Build 0)  -->
<svg version="1.1" id="Capa_1" xmlns="http://www.w3.org/2000/svg" xmlns:xlink="http://www.w3.org/1999/xlink" x="0px" y="0px"
	 viewBox="-49 141 512 512" enable-background="new -49 141 512 512" xml:space="preserve">
<path fill="#2F383E" d="M457.1,600.3l-94.6-98.8c-15.7-16.4-34.7-29-55.4-37.4l8.8-27.1c3.1-9.7-2.2-20.1-11.9-23.2l-28.7-9.3
	l43.5-134.3c20.4-1.2,38-14.7,44.4-34.3l9.9-30.4c3.1-9.7-2.2-20.1-11.9-23.2L301,162.6c-4.7-1.5-9.7-1.1-14.1,1.1
	c-4.4,2.2-7.6,6.1-9.2,10.7l-9.9,30.4c-4.1,12.6-3,26.1,3,38c3.2,6.2,7.6,11.6,12.8,15.9l-43.5,134.3l-28.7-9.3
	c-4.7-1.5-9.7-1.1-14.1,1.1c-4.4,2.2-7.6,6.1-9.2,10.7L172,445.9c-0.7,2.1-1.2,4.3-1.7,6.5c-39.5,1.2-76.7,16.8-105.3,44.3
	L-43.3,600.5c-5.4,5.2-7.2,13.2-4.3,20.2c2.8,7,9.6,11.6,17.1,11.6h475.1c0,0,0,0,0,0c10.2,0,18.4-8.3,18.4-18.4
	C463,608.5,460.7,603.6,457.1,600.3z M303,216.3l4.2-12.9l25.2,8.2l-4.2,12.9c-1.7,5.3-6.7,8.9-12.3,8.9c-1.1,0-2.3-0.2-3.4-0.5
	c-0.3-0.1-0.6-0.2-0.9-0.3c-0.3-0.1-0.5-0.1-0.8-0.2c-3.1-1.1-5.6-3.3-7.1-6.2C302.2,223.1,301.9,219.6,303,216.3z M70.8,585.6
	l-9.3,9.3c-3.6,3.6-8.3,5.4-13,5.4s-9.4-1.8-13-5.4c-7.2-7.2-7.2-18.9,0-26.1l9.3-9.3c7.2-7.2,18.9-7.2,26.1,0
	C78,566.8,78,578.4,70.8,585.6z M136.2,585.6l-9.3,9.3c-3.6,3.6-8.3,5.4-13,5.4c-4.7,0-9.4-1.8-13-5.4c-7.2-7.2-7.2-18.9,0-26.1
	l9.3-9.3c7.2-7.2,18.9-7.2,26.1,0C143.4,566.8,143.4,578.4,136.2,585.6z M164.3,511.2l-9.3,9.3c-3.6,3.6-8.3,5.4-13,5.4
	c-4.7,0-9.4-1.8-13-5.4c-7.2-7.2-7.2-18.9,0-26.1l9.3-9.3c7.2-7.2,18.9-7.2,26.1,0C171.5,492.3,171.5,504,164.3,511.2z M267.1,585.6
	l-9.3,9.3c-3.6,3.6-8.3,5.4-13,5.4s-9.4-1.8-13-5.4c-7.2-7.2-7.2-18.9,0-26.1l9.3-9.3c7.2-7.2,18.9-7.2,26.1,0
	C274.3,566.8,274.3,578.4,267.1,585.6z"/>
</svg>
