<?xml version="1.0" encoding="iso-8859-1"?>
<!-- Generator: Adobe Illustrator 17.1.0, SVG Export Plug-In . SVG Version: 6.00 Build 0)  -->
<!DOCTYPE svg PUBLIC "-//W3C//DTD SVG 1.1//EN" "http://www.w3.org/Graphics/SVG/1.1/DTD/svg11.dtd">
<svg xmlns="http://www.w3.org/2000/svg" xmlns:xlink="http://www.w3.org/1999/xlink" version="1.1" id="Capa_1" x="0px" y="0px" viewBox="0 0 208.294 208.294" style="enable-background:new 0 0 208.294 208.294;" xml:space="preserve" width="512px" height="512px">
<path d="M205.88,186.845l-38.485-40.2c-6.377-6.661-14.107-11.816-22.545-15.233l3.569-11.01c1.277-3.94-0.882-8.17-4.822-9.447  l-11.665-3.781l17.713-54.642c8.303-0.485,15.475-5.966,18.068-13.964l4.012-12.376c1.277-3.94-0.882-8.17-4.822-9.447  l-24.508-7.944c-1.892-0.612-3.95-0.448-5.722,0.454c-1.772,0.904-3.112,2.476-3.726,4.368l-4.012,12.376  c-1.668,5.146-1.232,10.634,1.228,15.452c1.293,2.534,3.075,4.712,5.211,6.46l-17.711,54.638l-11.666-3.782  c-1.892-0.611-3.95-0.448-5.722,0.454c-1.772,0.904-3.112,2.476-3.726,4.368l-6.629,20.45c-0.282,0.87-0.504,1.754-0.696,2.644  c-16.06,0.499-31.211,6.836-42.854,18.004L2.309,186.945c-2.21,2.12-2.909,5.37-1.768,8.211c1.143,2.841,3.897,4.702,6.959,4.702  h193.274c0.008-0.001,0.013-0.001,0.02,0c4.143,0,7.5-3.357,7.5-7.5C208.294,190.178,207.365,188.216,205.88,186.845z   M143.203,30.624l1.699-5.241l10.238,3.319l-1.699,5.241c-0.705,2.175-2.712,3.637-4.994,3.637c-0.466,0-0.929-0.076-1.377-0.199  c-0.119-0.045-0.234-0.096-0.357-0.136c-0.107-0.035-0.214-0.057-0.321-0.086c-1.246-0.457-2.265-1.339-2.872-2.527  C142.883,33.382,142.771,31.959,143.203,30.624z M48.719,180.888l-3.775,3.775c-1.465,1.464-3.385,2.196-5.304,2.196  s-3.839-0.732-5.304-2.196c-2.929-2.93-2.929-7.678,0-10.607l3.775-3.775c2.93-2.928,7.678-2.928,10.607,0  C51.648,173.211,51.648,177.959,48.719,180.888z M75.341,180.888l-3.775,3.775c-1.465,1.464-3.385,2.196-5.304,2.196  s-3.839-0.732-5.304-2.196c-2.929-2.93-2.929-7.678,0-10.607l3.775-3.775c2.93-2.928,7.678-2.928,10.607,0  C78.27,173.211,78.27,177.959,75.341,180.888z M86.765,150.602l-3.775,3.775c-1.465,1.464-3.385,2.196-5.304,2.196  s-3.839-0.732-5.304-2.196c-2.929-2.93-2.929-7.678,0-10.607l3.775-3.775c2.93-2.928,7.678-2.928,10.607,0  C89.694,142.925,89.694,147.673,86.765,150.602z M128.585,180.888l-3.775,3.775c-1.465,1.464-3.385,2.196-5.304,2.196  s-3.839-0.732-5.304-2.196c-2.929-2.93-2.929-7.678,0-10.607l3.775-3.775c2.93-2.928,7.678-2.928,10.607,0  C131.514,173.211,131.514,177.959,128.585,180.888z" fill="#FFFFFF"/>
<g>
</g>
<g>
</g>
<g>
</g>
<g>
</g>
<g>
</g>
<g>
</g>
<g>
</g>
<g>
</g>
<g>
</g>
<g>
</g>
<g>
</g>
<g>
</g>
<g>
</g>
<g>
</g>
<g>
</g>
</svg>
