<?xml version="1.0" encoding="utf-8"?>
<!-- Generator: Adobe Illustrator 18.1.1, SVG Export Plug-In . SVG Version: 6.00 Build 0)  -->
<svg version="1.1" id="Capa_1" xmlns="http://www.w3.org/2000/svg" xmlns:xlink="http://www.w3.org/1999/xlink" x="0px" y="0px"
	 viewBox="-49 141 512 512" enable-background="new -49 141 512 512" xml:space="preserve">
<g>
	<g id="Layer_8_4_">
		<path fill="#2F383E" d="M84.7,365.4v15.9h228.5v-15.9h59.1v15.9h39c25.8,0,47.3-18.7,51.7-43.2v-93.8H292.3V203
			c0-5.4-4.4-9.7-9.7-9.7H132.5c-5.4,0-9.7,4.4-9.7,9.7v41.3H-49v102.2c7.3,20.3,26.7,34.8,49.5,34.8h25.1v-15.9L84.7,365.4
			L84.7,365.4z M142.2,212.7h130.7v31.5H142.2V212.7z M372.3,435.1v-40.8h39c21,0,39.7-10,51.7-25.4v231.9H-49V371.6
			c12,13.8,29.7,22.7,49.5,22.7h25.1v40.8h59.1v-40.8h228.5v40.8H372.3z"/>
	</g>
</g>
</svg>
