<?xml version="1.0" encoding="iso-8859-1"?>
<!-- Generator: Adobe Illustrator 19.0.0, SVG Export Plug-In . SVG Version: 6.00 Build 0)  -->
<svg xmlns="http://www.w3.org/2000/svg" xmlns:xlink="http://www.w3.org/1999/xlink" version="1.1" id="Capa_1" x="0px" y="0px" viewBox="0 0 490.3 490.3" style="enable-background:new 0 0 490.3 490.3;" xml:space="preserve" width="512px" height="512px">
<g>
	<path d="M395.344,320.5c-7.6,19.3-20.1,131.8-23.4,162.2c-0.5,4.3-4.1,7.6-8.5,7.6h-92.6c-4.7,0-8.6-3.8-8.6-8.6v-8.9   c-28.4-29.7-38.7-72.7-38.7-72.7l-9.2-79.1c-20.7-71.3,4.3-73.4,4.3-73.4c0.9-0.1,1.8-0.1,2.6-0.1c32.9,0,38.7,65,38.7,65   s11.8,24.4,22.5,32.2v-63.2l0,0v-220c-5.2,1-10.7,0.7-16.6-1.5c-6.1-2.3-11.4-6.8-14.9-12.3c-4.9-7.8-5.7-15.1-4.5-21.8h-93.3   c1.2,6.8,0.4,14.2-4.7,22.1c-3.5,5.4-8.7,9.8-14.8,12.1c-5.8,2.2-11.3,2.4-16.4,1.5v225.6c4.5-1.1,9.4-1.3,14.4-0.1   c12.3,2.8,21.9,13.4,23.6,25.9c0.5,4.1,0.2,8-0.7,11.6h20h11.8c0.1,0.1,0.2,0.2,0.4,0.3l3,25.6h-17.9h-50.1   c-16.8,0-30.4-13.6-30.4-30.4V30.4c0-16.8,13.6-30.4,30.4-30.4h156.2c16.8,0,30.4,13.6,30.4,30.4v165.5c15.4,9,72.9,72.8,78.4,77.1   c12.7,9.8,13,26.2,11.7,36.3C397.944,313.1,396.744,316.9,395.344,320.5z M218.244,78.4c0-10.2-8.3-18.4-18.4-18.4   c-10.2,0-18.4,8.3-18.4,18.4s8.3,18.4,18.4,18.4C210.044,96.9,218.244,88.6,218.244,78.4z M199.844,108.7   c36.7,0,66.5,29.8,66.5,66.5c0,20.3-9.2,38.5-23.5,50.7c-6.4-3.1-13.6-4.9-21.6-4.9c-1.7,0-3.4,0.1-4.9,0.2   c-3.9,0.3-17.3,2.5-27.2,16.9c-0.5,0.8-1,1.6-1.5,2.4c-30.9-5.7-54.3-32.8-54.3-65.3C133.344,138.5,163.144,108.7,199.844,108.7z    M165.844,177.5l12.4,12.5l12.9,13l13-12.9l29.7-29.6l-12.9-13l-29.7,29.6l-12.4-12.5L165.844,177.5z" fill="#FFFFFF"/>
</g>
<g>
</g>
<g>
</g>
<g>
</g>
<g>
</g>
<g>
</g>
<g>
</g>
<g>
</g>
<g>
</g>
<g>
</g>
<g>
</g>
<g>
</g>
<g>
</g>
<g>
</g>
<g>
</g>
<g>
</g>
</svg>
