<?xml version="1.0" encoding="iso-8859-1"?>
<!-- Generator: Adobe Illustrator 19.0.0, SVG Export Plug-In . SVG Version: 6.00 Build 0)  -->
<svg xmlns="http://www.w3.org/2000/svg" xmlns:xlink="http://www.w3.org/1999/xlink" version="1.1" id="Capa_1" x="0px" y="0px" viewBox="0 0 490 490" style="enable-background:new 0 0 490 490;" xml:space="preserve" width="512px" height="512px">
<g>
	<g>
		<g>
			<polygon points="171.9,185.1 0,185.1 0,242.3 94.9,242.3    " fill="#FFFFFF"/>
			<polygon points="317.7,185.1 394.7,242.3 490,242.3 490,185.1    " fill="#FFFFFF"/>
			<path d="M128.3,242.3h233.3l-106.9-78.9v-41.2h47.4c5.4,0,10.1-4.3,10.1-10.1V72.3c0-5.4-4.3-10.1-10.1-10.1H245     c-5.4,0-10.1,4.3-10.1,10.1v40.1v50.9L128.3,242.3z" fill="#FFFFFF"/>
			<path d="M128.3,427.8h38.5v-90.2c0-17.5,14-31.5,31.5-31.5s31.5,14,31.5,31.5v90.2h30.7v-90.2c0-17.5,14-31.5,31.5-31.5     s31.5,14,31.5,31.5v90.2h38.1V262.1H128.3V427.8z" fill="#FFFFFF"/>
			<path d="M0,427.8h108.1V262.1H0V427.8z M38.5,305.7h40.1v59.1H38.5V305.7z" fill="#FFFFFF"/>
			<path d="M381.9,427.8H490V262.1H381.9V427.8z M411.4,305.7h40.1v59.1h-40.1V305.7z" fill="#FFFFFF"/>
		</g>
	</g>
</g>
<g>
</g>
<g>
</g>
<g>
</g>
<g>
</g>
<g>
</g>
<g>
</g>
<g>
</g>
<g>
</g>
<g>
</g>
<g>
</g>
<g>
</g>
<g>
</g>
<g>
</g>
<g>
</g>
<g>
</g>
</svg>
