<?xml version="1.0" encoding="utf-8"?>
<!-- Generator: Adobe Illustrator 18.1.1, SVG Export Plug-In . SVG Version: 6.00 Build 0)  -->
<svg version="1.1" id="Capa_1" xmlns="http://www.w3.org/2000/svg" xmlns:xlink="http://www.w3.org/1999/xlink" x="0px" y="0px"
	 viewBox="-49 141 512 512" enable-background="new -49 141 512 512" xml:space="preserve">
<g>
	<g>
		<g>
			<polygon fill="#2F383E" points="130.6,334.4 -49,334.4 -49,394.2 50.2,394.2 			"/>
			<polygon fill="#2F383E" points="283,334.4 363.4,394.2 463,394.2 463,334.4 			"/>
			<path fill="#2F383E" d="M85.1,394.2h243.8l-111.7-82.4v-43h49.5c5.6,0,10.6-4.5,10.6-10.6v-41.6c0-5.6-4.5-10.6-10.6-10.6H207
				c-5.6,0-10.6,4.5-10.6,10.6v41.9v53.2L85.1,394.2z"/>
			<path fill="#2F383E" d="M85.1,588h40.2v-94.2c0-18.3,14.6-32.9,32.9-32.9s32.9,14.6,32.9,32.9V588h32.1v-94.2
				c0-18.3,14.6-32.9,32.9-32.9s32.9,14.6,32.9,32.9V588h39.8V414.9H85.1V588z"/>
			<path fill="#2F383E" d="M-49,588H64V414.9H-49V588z M-8.8,460.4h41.9v61.8H-8.8V460.4z"/>
			<path fill="#2F383E" d="M350,588h113V414.9H350V588z M380.9,460.4h41.9v61.8h-41.9V460.4z"/>
		</g>
	</g>
</g>
</svg>
