<?xml version="1.0" encoding="utf-8"?>
<!-- Generator: Adobe Illustrator 18.1.1, SVG Export Plug-In . SVG Version: 6.00 Build 0)  -->
<svg version="1.1" id="Capa_1" xmlns="http://www.w3.org/2000/svg" xmlns:xlink="http://www.w3.org/1999/xlink" x="0px" y="0px"
	 viewBox="-49 141 512 512" enable-background="new -49 141 512 512" xml:space="preserve">
<g>
	<g>
		<path fill="#2F383E" d="M242,553.2c-2.9,0-4.4-0.8-4.5-2.3c-1.6-18.1-9.9-35.4-23.6-49.5c4.8-9.7,4.3-23.3,4.1-26.4
			c-0.1-2-1.1-3.8-2.7-5c-1.6-1.2-3.6-1.5-5.6-1.1l-41,10.5c-4-1.3-21-4.8-37.6-5.3c-29-0.9-55.7,15.4-57,16.2
			c-18.8,11.7-31.5,28.7-36.9,48.4c-1.8,1.1-3.8,1.8-5.7,2.2c0.7-4.4,0.1-9-1.5-12.7c-5.3-11.6-18.3-1.2-17.7,8.2
			c0.3,4.3,3.7,8.1,7.7,10.3c-1.7,0.3-3.7,0.2-5.9-0.3C1.3,543.4,0.8,529,2.1,518.4c0.6-5.1-6.5-1.8-7,1.9c-2,16.7,3.8,37.3,24.8,34
			c3.8-0.6,6.5-2.7,8.5-5.5c2.4-0.1,4.7-0.6,6.9-1.5c-0.7,4.2-1.2,8.6-1.2,13c0,25.6,2.2,48.1,29,65.4c1.2,2.4,2.3,10.7,2.3,18.1
			c0,3.5,2.7,6.4,6.2,6.6l23.5,1.8c8.5,0,7.5-8.6,6.3-14.7c9.4,2,18.8,2.2,28.4,2.2c1.9,0,3.1,0,4.2-0.1c0.6,2.4,1.2,5.4,1.7,7.9
			c0.6,3.2,3.4,5.4,6.6,5.4h0l16.2-0.1c3.6,0,6.5-2.9,6.6-6.5c0.1-4.8,0.2-13.1,0.2-13.1s5.6-0.3,6.6-0.4l2.2,7.4
			c0.9,3.1,3.8,5.2,7.1,4.9l25-2.4c1.9-0.2,3.7-1.2,4.8-2.8c1.1-1.6,1.5-3.6,1-5.5c-1.1-4.3-2-9.1-2.3-11.7c4-3.6,5.6-7.5,7.4-10.8
			c7.7-14.1,23.2-14.3,26.3-14.3h0.1c1.8,0.1,3.6-0.6,4.9-1.9c1.3-1.2,2.1-3,2.1-4.8v-31.3C250.3,557.8,248.5,553.2,242,553.2z
			 M19.6,534.8c-1.4-2.6,0.3-5.3,2.7-3.1c1.7,1.5,2.2,4.4,2.5,6.5c0.1,0.8,0.1,1.4,0.1,2.1C22.9,539.3,21.1,537.6,19.6,534.8z
			 M150.5,515.2c-1.3,3.5-5.1,5.3-8.6,4c-34.9-12.6-53.1,7.3-53.9,8.1c-1.3,1.5-3.2,2.2-5,2.2c-1.6,0-3.1-0.6-4.4-1.6
			c-2.7-2.4-3.1-6.6-0.7-9.4c1-1.1,24.6-27.7,68.4-11.9C149.9,507.9,151.7,511.8,150.5,515.2z M200.6,542.4c-3.7,0-6.7-4.4-6.7-9.9
			c0-5.5,3-9.9,6.7-9.9c3.7,0,6.7,4.4,6.7,9.9C207.3,537.9,204.3,542.4,200.6,542.4z"/>
		<circle fill="#2F383E" cx="142.1" cy="393" r="31.1"/>
		<path fill="#2F383E" d="M318.5,247c29.3,0,53-23.7,53-53c0-29.3-23.7-53-53-53c-29.3,0-53,23.7-53,53
			C265.6,223.2,289.3,247,318.5,247z"/>
		<path fill="#2F383E" d="M353.8,259.8c-0.9-0.5-15.3-8.2-22-9.8l-13.2,13.3l-12.8-13.4c0,0-0.1,0-0.1,0c-9.1,1.6-21.5,9.4-22.4,9.9
			c-13.8,8.5-25.3,21.8-36.5,34.7c-25.5,29.5-36.8,38-53.4,30.3c-10.3-4.8-22.5-0.4-27.3,9.9c-4.8,10.3-0.4,22.5,9.9,27.3
			c10.1,4.7,19.5,6.7,28.3,6.7c24.8,0,44.5-16,60-32.3V413c0,5.6,1.7,14.3,4.5,18.1c-0.1,1-0.3,197.6-0.3,197.6
			c0,13.4,10.9,24.3,24.3,24.3c13.4,0,24.3-10.9,24.3-24.3l0-169c1,0,1.9,0.1,2.9,0.1c0.2,0,0.4,0,0.6,0l0,168.9
			c0,13.4,10.9,24.3,24.3,24.3c13.4,0,24.3-10.9,24.3-24.3l0-197.4c3.2-5.9,3.7-11.7,3.6-18.2v-57.2c0,0,2.6,4.4,3.7,9.6
			c0.5,2.4,2.3,32.3,0.6,54.1c-0.9,11.3,7.6,21.2,18.9,22.1c0.5,0,1.1,0.1,1.6,0.1c10.6,0,19.7-8.2,20.5-19
			C426.1,319.2,391.9,283.2,353.8,259.8z M318.7,368.2h-0.2l-12.8-17.5l12.8-85.4h0.2l12.8,85.4L318.7,368.2z"/>
	</g>
</g>
</svg>
