<?xml version="1.0" encoding="utf-8"?>
<!-- Generator: Adobe Illustrator 18.1.1, SVG Export Plug-In . SVG Version: 6.00 Build 0)  -->
<svg version="1.1" id="Capa_1" xmlns="http://www.w3.org/2000/svg" xmlns:xlink="http://www.w3.org/1999/xlink" x="0px" y="0px"
	 viewBox="-49 141 512 512" enable-background="new -49 141 512 512" xml:space="preserve">
<g>
	<path fill="#2F383E" d="M215.8,388.3h105.8c-1.1-38.4-9.1-75.7-23.5-110.2c-26.6,7.7-54.2,12-82.2,12.7L215.8,388.3L215.8,388.3z"
		/>
	<path fill="#2F383E" d="M307.8,256.4c25.9-8.9,50.6-21.1,73.6-36.8l5.8-4.4c-42.2-41.8-98.8-69-161.6-73.5l-4.6,3.7
		C258.2,176.2,287.6,214.1,307.8,256.4z"/>
	<path fill="#2F383E" d="M215.8,164.2v108.9c25.5-0.7,50.6-4.5,74.9-11.3C272.8,225,247.5,191.8,215.8,164.2z"/>
	<path fill="#2F383E" d="M317.9,513.9c27.7,10,54.1,23.6,78.5,41l7.7,5.7c35.1-42.3,56.9-96,58.9-154.7H339.3
		C338.3,443.4,331,479.8,317.9,513.9z"/>
	<path fill="#2F383E" d="M32.6,219.5c22.9,15.7,47.7,27.9,73.6,36.8c20.2-42.3,49.6-80.2,86.9-111l-4.6-3.7
		c-63,4.5-119.7,31.8-161.9,73.8L32.6,219.5z"/>
	<path fill="#2F383E" d="M198.2,164.2c-31.7,27.6-57,60.8-74.9,97.5c24.2,6.8,49.3,10.6,74.9,11.3V164.2z"/>
	<path fill="#2F383E" d="M74.7,405.9H-49c2,58.7,23.8,112.4,58.9,154.7l7.5-5.6c24.5-17.5,51-31.1,78.7-41.1
		C83,479.8,75.7,443.4,74.7,405.9z"/>
	<path fill="#2F383E" d="M99,272.6c-26.8-9.4-52.5-22.1-76.4-38.4l-8.3-5.7c-37.7,43-61.3,98.7-63.3,159.8H74.7
		C75.8,348,84.1,308.8,99,272.6z"/>
	<path fill="#2F383E" d="M92.4,388.3h105.8v-97.5c-28.1-0.8-55.7-5-82.2-12.7C101.5,312.6,93.5,349.8,92.4,388.3z"/>
	<path fill="#2F383E" d="M192.2,648.1c-39-32.6-69.3-73-89.3-117.9c-26.4,9.5-51.7,22.4-75,39.1l-6.1,4.6
		c42.2,44.2,99.9,73.4,164.4,78.6L192.2,648.1z"/>
	<path fill="#2F383E" d="M198.2,494.6v-88.7H92.4c1,35.5,8,70,20.4,102.3C140.3,500,169,495.4,198.2,494.6z"/>
	<path fill="#2F383E" d="M386,569.1c-23.2-16.6-48.4-29.5-74.8-38.9c-20.1,45-50.3,85.4-89.4,117.9l6.1,4.3
		c64.5-5.2,122.2-34.4,164.4-78.6L386,569.1z"/>
	<path fill="#2F383E" d="M391.8,233.8c-24,16.5-49.9,29.3-76.8,38.7c14.9,36.3,23.2,75.4,24.3,115.7H463
		c-2.1-61.3-25.8-117.1-63.7-160.2L391.8,233.8z"/>
	<path fill="#2F383E" d="M198.2,630V512.3c-26.9,0.8-53.2,4.9-78.5,12.4C137.7,564.5,164.3,600.4,198.2,630z"/>
	<path fill="#2F383E" d="M321.6,405.9H215.8v88.7c29.2,0.8,57.9,5.3,85.4,13.6C313.6,475.9,320.6,441.4,321.6,405.9z"/>
	<path fill="#2F383E" d="M294.3,524.7c-25.3-7.5-51.6-11.6-78.5-12.4V630C249.7,600.6,276.3,564.6,294.3,524.7z"/>
</g>
</svg>
