<?xml version="1.0" encoding="utf-8"?>
<!-- Generator: Adobe Illustrator 18.1.1, SVG Export Plug-In . SVG Version: 6.00 Build 0)  -->
<svg version="1.1" id="Capa_1" xmlns="http://www.w3.org/2000/svg" xmlns:xlink="http://www.w3.org/1999/xlink" x="0px" y="0px"
	 viewBox="-49 141 512 512" enable-background="new -49 141 512 512" xml:space="preserve">
<g>
	<g>
		<path fill="#2F383E" d="M406,588.9c-20.2-53.2-41-106.6-66.4-157.6c-7.5-15-21.8-18.1-34-14.1c-3.7,0-7.4,0-11-0.1
			c16.9-5.9,28.3-28,11.3-43.7c-32.1-29.7-61.6-61.9-88.4-96.5c-1.2-1.6-2.7-2.9-4.3-4c-4.8-4.4-10.9-7.9-18.2-9.9
			c-22.2-6.1-51.8,7.4-56,31.9c-7.6,44.7-13.6,89.7-17.7,134.9c-0.1,1.7-0.1,3.4-0.1,5.1c-2.7,17.6,6.7,38.9,27.8,40.9
			c48.7,4.6,97.9,1,146.9,0.3c21.5,45.5,39.8,92.6,57.6,139.5C367.1,651.4,419.3,624,406,588.9z M214,415.7
			c1.7-17.6,3.8-35.1,6.2-52.6c15.2,16.7,31.1,32.8,47.8,48.2c2.9,2.7,6,4.5,9.1,5.7C256.1,416.8,235,416.5,214,415.7z"/>
		<circle fill="#2F383E" cx="198.6" cy="193.3" r="52.3"/>
		<path fill="#2F383E" d="M327.1,568.3c-5-3.2-11.6-1.6-14.8,3.4c-23.6,37.5-64.1,59.9-108.3,59.9c-70.5,0-127.8-57.4-127.8-127.8
			c0-34.1,13.3-66.2,37.4-90.4c4.2-4.2,4.2-11,0-15.2c-3-3-7.2-3.8-10.9-2.6l-4.5-65.3c-0.3-4.1-2.8-7.6-6.6-9.2l-71-29.5
			c-5.5-2.3-11.7,0.3-14,5.8c-2.3,5.5,0.3,11.7,5.8,14l64.9,26.9l5.4,78.6c-18.1,25.2-28,55.2-28,86.8C54.7,586,121.7,653,204,653
			c51.7,0,98.9-26.1,126.5-70C333.6,578.1,332.1,571.4,327.1,568.3z"/>
	</g>
</g>
</svg>
