<?xml version="1.0" encoding="iso-8859-1"?>
<!DOCTYPE svg PUBLIC "-//W3C//DTD SVG 1.1//EN" "http://www.w3.org/Graphics/SVG/1.1/DTD/svg11.dtd">
<svg xmlns="http://www.w3.org/2000/svg" xmlns:xlink="http://www.w3.org/1999/xlink" version="1.1" viewBox="0 0 285.296 285.296" enable-background="new 0 0 285.296 285.296" width="512px" height="512px">
  <g>
    <path d="m188.717,68.687c-17.697-2.229-34.128-7.851-46.069-15.662-11.939,7.811-28.371,13.434-46.068,15.662-14.084,1.773-27.714,1.31-39.525-1.263 0.624,5.411 1.202,11.033 1.799,16.841 3.195,31.091 6.816,66.33 20.302,91.096 16.569,30.431 48.019,60.297 63.493,60.297 15.475,0 46.925-29.866 63.493-60.297 13.486-24.767 17.107-60.006 20.303-91.097 0.597-5.808 1.175-11.429 1.799-16.84-11.814,2.572-25.441,3.035-39.527,1.263z" fill="#FFFFFF"/>
    <path d="m276.701,23.372c-2.271-2.026-5.389-2.818-8.35-2.118-16.156,3.819-35.775,4.819-56.576,2.2-25.685-3.234-48.261-11.367-63.932-21.875-3.142-2.107-7.249-2.106-10.39,0-15.67,10.508-38.246,18.641-63.931,21.875-20.801,2.619-40.42,1.619-56.576-2.2-2.962-0.7-6.079,0.09-8.351,2.115-2.272,2.026-3.411,5.033-3.053,8.056 6.163,52.153 9.006,119.125 34.05,165.118 23.546,43.242 72.318,88.752 103.058,88.752 30.74,0 79.512-45.51 103.058-88.752 25.043-45.993 27.887-112.965 34.05-165.118 0.355-3.021-0.786-6.027-3.057-8.053zm-32.143,34.677c-1.216,8.511-2.176,17.855-3.193,27.749-3.339,32.494-7.124,69.325-22.05,96.736-15.551,28.56-50.845,68.123-76.667,68.123-25.82,0-61.115-39.563-76.667-68.123-14.925-27.411-18.71-64.241-22.049-96.735-1.018-9.894-1.978-19.239-3.193-27.75-0.376-2.637 0.674-5.275 2.759-6.933 2.087-1.658 4.895-2.083 7.377-1.121 11.542,4.475 27.515,5.865 43.831,3.809 17.491-2.202 33.274-7.994 43.303-15.89 2.723-2.143 6.557-2.143 9.279,0 10.028,7.896 25.813,13.688 43.305,15.89 16.313,2.058 32.288,0.666 43.83-3.809 2.483-0.962 5.29-0.537 7.377,1.121 2.084,1.658 3.135,4.296 2.758,6.933z" fill="#FFFFFF"/>
  </g>
</svg>
