<?xml version="1.0" encoding="utf-8"?>
<!-- Generator: Adobe Illustrator 18.1.1, SVG Export Plug-In . SVG Version: 6.00 Build 0)  -->
<svg version="1.1" id="Слой_1" xmlns="http://www.w3.org/2000/svg" xmlns:xlink="http://www.w3.org/1999/xlink" x="0px" y="0px"
	 viewBox="-49 141 512 512" enable-background="new -49 141 512 512" xml:space="preserve">
<g>
	<path fill="#2F383E" d="M289.7,264.3c-31.8-4-61.2-14.1-82.7-28.1c-21.4,14-50.9,24.1-82.7,28.1c-25.3,3.2-49.7,2.4-70.9-2.3
		c1.1,9.7,2.2,19.8,3.2,30.2c5.7,55.8,12.2,119,36.4,163.5c29.7,54.6,86.2,108.2,113.9,108.2c27.8,0,84.2-53.6,113.9-108.2
		c24.2-44.4,30.7-107.7,36.4-163.5c1.1-10.4,2.1-20.5,3.2-30.2C339.4,266.6,315,267.4,289.7,264.3L289.7,264.3z"/>
	<path fill="#2F383E" d="M447.6,182.9c-4.1-3.6-9.7-5.1-15-3.8c-29,6.9-64.2,8.6-101.5,3.9c-46.1-5.8-86.6-20.4-114.7-39.3
		c-5.6-3.8-13-3.8-18.6,0c-28.1,18.9-68.6,33.5-114.7,39.3c-37.3,4.7-72.5,2.9-101.5-3.9c-5.3-1.3-10.9,0.2-15,3.8
		c-4.1,3.6-6.1,9-5.5,14.5C-28,291-22.9,411.2,22.1,493.7C64.3,571.3,151.8,653,207,653s142.7-81.7,185-159.3
		c44.9-82.5,50-202.7,61.1-296.3C453.7,192,451.7,186.6,447.6,182.9L447.6,182.9z M389.9,245.2c-2.2,15.3-3.9,32-5.7,49.8
		c-6,58.3-12.8,124.4-39.6,173.6c-27.9,51.3-91.2,122.3-137.6,122.3c-46.3,0-109.7-71-137.6-122.3C42.6,419.4,35.8,353.3,29.8,295
		c-1.8-17.8-3.5-34.5-5.7-49.8c-0.7-4.7,1.2-9.5,5-12.4c3.7-3,8.8-3.7,13.2-2c20.7,8,49.4,10.5,78.7,6.8c31.4-4,59.7-14.3,77.7-28.5
		c4.9-3.8,11.8-3.8,16.7,0c18,14.2,46.3,24.6,77.7,28.5c29.3,3.7,57.9,1.2,78.7-6.8c4.5-1.7,9.5-1,13.2,2
		C388.7,235.7,390.6,240.4,389.9,245.2z"/>
</g>
</svg>
