<?xml version="1.0" encoding="utf-8"?>
<!-- Generator: Adobe Illustrator 18.1.1, SVG Export Plug-In . SVG Version: 6.00 Build 0)  -->
<svg version="1.1" id="Capa_1" xmlns="http://www.w3.org/2000/svg" xmlns:xlink="http://www.w3.org/1999/xlink" x="0px" y="0px"
	 viewBox="-49 141 512 512" enable-background="new -49 141 512 512" xml:space="preserve">
<path fill="#2F383E" d="M463,554.7v25.5c0,9.3-7.5,16.8-16.8,16.8H246.1c-9.3,0-16.8-7.5-16.8-16.8v-25.5c0-9.3,7.5-16.8,16.8-16.8
	h200.1C455.5,537.9,463,545.4,463,554.7z M434.6,424.8l-6.7-16.4c-3.9-9.4-12.8-15.5-23-15.7c-0.2-1.1-0.5-2.1-0.9-3.1l-5.3-12.9
	c3.3-1.8,5.9-4.7,7.4-8.2c1.7-4.1,1.7-8.7,0-12.8l-26.7-65c-3.3-8-12-12-20.1-9.7l-5.3-12.9c-0.4-1-0.9-2-1.5-2.9
	c6.8-7,9.2-17.7,5.2-27.3l-6.7-16.4c-6.1-14.8-20.4-24.4-36.4-24.4c-5.1,0-10.2,1-15,3l-86,35.4c-20,8.2-29.7,31.3-21.4,51.3
	l6.7,16.4c3.9,9.4,12.9,15.5,23,15.7c0.2,1.1,0.5,2.1,0.9,3.1l5.3,12.9c-3.4,1.8-6,4.7-7.5,8.3c-1.4,3.4-1.7,7.2-0.7,10.8l-4.1,1.7
	c-4.1,1.7-7.4,4.9-9.1,9.1c-1.2,2.8-1.5,5.8-1.1,8.7l-63.3,26c-1.3-1.2-2.8-2.1-4.5-2.8c-4.1-1.7-8.7-1.7-12.8,0l-163.5,67.3
	c-8.6,3.5-12.7,13.3-9.1,21.9l13,31.7c1.7,4.1,5,7.4,9.1,9.1c2.1,0.9,4.3,1.3,6.5,1.3c2.2,0,4.3-0.4,6.4-1.3l163.5-67.3
	c6-2.5,9.8-8.1,10.3-14.2l63.3-26c1.8,2.4,4.2,4.3,6.9,5.4c2.1,0.9,4.3,1.3,6.5,1.3c2.2,0,4.3-0.4,6.4-1.3l4.2-1.7
	c3,5.3,8.6,8.5,14.5,8.5c1.5,0,3.1-0.2,4.6-0.7l5.3,12.9c0.4,1,0.9,2,1.5,2.9c-6.8,7-9.2,17.7-5.3,27.3l6.7,16.4
	c6.1,14.8,20.4,24.4,36.4,24.4c5.1,0,10.2-1,15-3l86-35.4C433.2,467.9,442.8,444.9,434.6,424.8z"/>
</svg>
