<?xml version="1.0" encoding="iso-8859-1"?>
<!-- Generator: Adobe Illustrator 18.0.0, SVG Export Plug-In . SVG Version: 6.00 Build 0)  -->
<!DOCTYPE svg PUBLIC "-//W3C//DTD SVG 1.1//EN" "http://www.w3.org/Graphics/SVG/1.1/DTD/svg11.dtd">
<svg xmlns="http://www.w3.org/2000/svg" xmlns:xlink="http://www.w3.org/1999/xlink" version="1.1" id="Capa_1" x="0px" y="0px" viewBox="0 0 59.997 59.997" style="enable-background:new 0 0 59.997 59.997;" xml:space="preserve" width="512px" height="512px">
<g>
	<path d="M49.031,32.997c-0.669,0-1.338,0.04-1.998,0.111c-1.362-2.82-3.366-5.301-5.864-7.214l-7.202-4.894   c-1.191-0.914-3.068-2.002-5.246-2.002h-7.777c-1.924,0-3.816,0.655-5.3,1.822l-7.078,5.156c-7.377,5.8-9.712,15.964-5.551,24.168   c2.002,3.947,4.666,6.227,7.501,6.418c0.271,0.018,0.545,0.028,0.821,0.028h19.154c1.449,2.057,3.838,3.407,6.54,3.407   c1.409,0,2.731-0.369,3.882-1.011c1.739,0.633,4.76,1.011,8.118,1.011c9.271,0,9.998-2.22,10-2.903v-4v-0.001v-3.999v-0.001v-3.999   v-0.001v-3.999v-0.001v-4C59.031,35.064,53.984,32.997,49.031,32.997z M22.031,27.997c-5.271,0-12,7.29-12,13c0,0.552-0.448,1-1,1   s-1-0.448-1-1c0-6.869,7.589-15,14-15c0.552,0,1,0.448,1,1S22.583,27.997,22.031,27.997z M57.031,39.006v1.854   c-0.078,0.051-0.191,0.107-0.33,0.165c-0.008,0.003-0.014,0.006-0.022,0.009c-0.138,0.056-0.307,0.114-0.5,0.172   c-0.019,0.006-0.036,0.011-0.055,0.017c-0.193,0.057-0.415,0.114-0.659,0.17c-0.032,0.007-0.063,0.015-0.095,0.022   c-0.247,0.055-0.519,0.109-0.814,0.16c-0.042,0.007-0.086,0.015-0.129,0.022c-0.301,0.051-0.626,0.098-0.974,0.142   c-0.048,0.006-0.098,0.012-0.146,0.018c-0.358,0.043-0.738,0.082-1.143,0.116c-0.048,0.004-0.099,0.007-0.148,0.011   c-0.42,0.033-0.86,0.06-1.327,0.079c-0.036,0.001-0.074,0.002-0.11,0.003c-0.491,0.018-1.004,0.03-1.546,0.03   c-4.55,0-7.353-0.711-8-1.137v-1.368c1.106,0.092,2.271,0.183,3.378,0.262c1.24,0.15,2.75,0.244,4.622,0.244   c0.552,0,1.069-0.009,1.562-0.024c0.163-0.005,0.309-0.014,0.465-0.02c0.318-0.013,0.632-0.027,0.925-0.046   c0.172-0.011,0.331-0.025,0.495-0.038c0.253-0.02,0.503-0.041,0.737-0.065c0.16-0.017,0.312-0.035,0.463-0.054   c0.214-0.026,0.422-0.053,0.619-0.083c0.142-0.021,0.28-0.043,0.414-0.066c0.186-0.032,0.362-0.065,0.532-0.099   c0.12-0.024,0.24-0.049,0.353-0.075c0.164-0.037,0.316-0.077,0.465-0.116c0.098-0.026,0.199-0.052,0.291-0.079   c0.148-0.044,0.282-0.089,0.415-0.135c0.073-0.026,0.153-0.05,0.222-0.076C57.003,39.015,57.019,39.011,57.031,39.006z    M50.592,43.973c0.164-0.005,0.31-0.014,0.468-0.02c0.317-0.013,0.632-0.027,0.924-0.046c0.171-0.011,0.328-0.025,0.49-0.038   c0.255-0.02,0.507-0.041,0.743-0.066c0.158-0.016,0.307-0.035,0.456-0.053c0.216-0.026,0.427-0.054,0.626-0.084   c0.139-0.021,0.274-0.042,0.406-0.065c0.189-0.032,0.369-0.066,0.542-0.101c0.117-0.024,0.233-0.047,0.343-0.072   c0.169-0.038,0.325-0.079,0.478-0.12c0.094-0.025,0.191-0.05,0.279-0.076c0.155-0.046,0.296-0.094,0.434-0.142   c0.067-0.023,0.14-0.046,0.203-0.07c0.015-0.006,0.033-0.011,0.048-0.016v1.854c-0.078,0.051-0.191,0.107-0.33,0.165   c-0.008,0.003-0.014,0.006-0.022,0.009c-0.138,0.056-0.307,0.114-0.5,0.172c-0.019,0.006-0.036,0.011-0.055,0.017   c-0.193,0.057-0.415,0.114-0.659,0.17c-0.032,0.007-0.063,0.015-0.095,0.022c-0.247,0.055-0.519,0.109-0.814,0.16   c-0.042,0.007-0.086,0.015-0.129,0.022c-0.301,0.051-0.626,0.098-0.974,0.142c-0.048,0.006-0.098,0.012-0.146,0.018   c-0.358,0.043-0.738,0.082-1.143,0.116c-0.048,0.004-0.099,0.007-0.148,0.011c-0.42,0.033-0.86,0.06-1.327,0.079   c-0.036,0.001-0.074,0.002-0.11,0.003c-0.491,0.018-1.004,0.03-1.546,0.03c-4.55,0-7.353-0.711-8-1.137v-1.362   c1.297,0.107,2.67,0.211,3.933,0.297c1.265,0.132,2.646,0.202,4.067,0.202C49.583,43.997,50.099,43.988,50.592,43.973z    M50.592,47.973c0.164-0.005,0.31-0.014,0.468-0.02c0.317-0.013,0.632-0.027,0.924-0.046c0.171-0.011,0.328-0.025,0.49-0.038   c0.255-0.02,0.507-0.041,0.743-0.066c0.158-0.016,0.307-0.035,0.456-0.053c0.216-0.026,0.427-0.054,0.626-0.084   c0.139-0.021,0.274-0.042,0.406-0.065c0.189-0.032,0.369-0.066,0.542-0.101c0.117-0.024,0.233-0.047,0.343-0.072   c0.169-0.038,0.325-0.079,0.478-0.12c0.094-0.025,0.191-0.05,0.279-0.076c0.155-0.046,0.296-0.094,0.434-0.142   c0.067-0.023,0.14-0.046,0.203-0.07c0.015-0.006,0.033-0.011,0.048-0.016v1.854c-0.078,0.051-0.191,0.107-0.33,0.165   c-0.008,0.003-0.014,0.006-0.022,0.009c-0.138,0.056-0.307,0.114-0.5,0.172c-0.019,0.006-0.036,0.011-0.055,0.017   c-0.193,0.057-0.415,0.114-0.659,0.17c-0.032,0.007-0.063,0.015-0.095,0.022c-0.247,0.055-0.519,0.109-0.814,0.16   c-0.042,0.007-0.086,0.015-0.129,0.022c-0.301,0.051-0.626,0.098-0.974,0.142c-0.048,0.006-0.098,0.012-0.146,0.018   c-0.358,0.043-0.738,0.082-1.143,0.116c-0.048,0.004-0.099,0.007-0.148,0.011c-0.42,0.033-0.86,0.06-1.327,0.079   c-0.036,0.001-0.074,0.002-0.11,0.003c-0.491,0.018-1.004,0.03-1.546,0.03c-0.431,0-0.856-0.008-1.276-0.021   c-0.133-0.004-0.263-0.012-0.395-0.017c-0.284-0.012-0.567-0.025-0.843-0.042c-0.15-0.01-0.297-0.022-0.444-0.033   c-0.252-0.019-0.501-0.04-0.744-0.065c-0.148-0.015-0.293-0.031-0.437-0.047c-0.064-0.007-0.125-0.016-0.188-0.024   c-0.219-0.746-0.544-1.446-0.958-2.085c1.348,0.203,3.063,0.334,5.286,0.334C49.583,47.997,50.099,47.988,50.592,47.973z    M50.592,51.973c0.164-0.005,0.31-0.014,0.468-0.02c0.317-0.013,0.632-0.027,0.924-0.046c0.171-0.011,0.328-0.025,0.49-0.038   c0.255-0.02,0.507-0.041,0.743-0.066c0.158-0.016,0.307-0.035,0.456-0.053c0.216-0.026,0.427-0.054,0.626-0.084   c0.139-0.021,0.274-0.042,0.406-0.065c0.189-0.032,0.369-0.066,0.542-0.101c0.117-0.024,0.233-0.047,0.343-0.072   c0.169-0.038,0.325-0.079,0.478-0.12c0.094-0.025,0.191-0.05,0.279-0.076c0.155-0.046,0.296-0.094,0.434-0.142   c0.067-0.023,0.14-0.046,0.203-0.07c0.015-0.006,0.033-0.011,0.048-0.016v1.854c-0.078,0.051-0.191,0.107-0.33,0.165   c-0.008,0.003-0.014,0.006-0.022,0.009c-0.138,0.056-0.307,0.114-0.5,0.172c-0.019,0.006-0.036,0.011-0.055,0.017   c-0.193,0.057-0.415,0.114-0.659,0.17c-0.032,0.007-0.063,0.015-0.095,0.022c-0.247,0.055-0.519,0.109-0.814,0.16   c-0.042,0.007-0.086,0.015-0.129,0.022c-0.301,0.051-0.626,0.098-0.974,0.142c-0.048,0.006-0.098,0.012-0.146,0.018   c-0.358,0.043-0.738,0.082-1.143,0.116c-0.048,0.004-0.099,0.007-0.148,0.011c-0.42,0.033-0.86,0.06-1.327,0.079   c-0.036,0.001-0.074,0.002-0.11,0.003c-0.491,0.018-1.004,0.03-1.546,0.03c-0.648,0-1.279-0.02-1.898-0.049   c-0.145-0.007-0.289-0.014-0.432-0.022c-0.602-0.035-1.191-0.081-1.746-0.143c-0.015-0.002-0.028-0.004-0.043-0.006   c0.08-0.454,0.12-0.913,0.12-1.372c0-0.075-0.007-0.151-0.009-0.227c0.001-0.061,0.009-0.12,0.009-0.181   c0-0.066-0.008-0.13-0.01-0.196c0.815,0.084,1.687,0.131,2.577,0.161c0.406,0.022,0.861,0.035,1.433,0.035   C49.583,51.997,50.099,51.988,50.592,51.973z M56.771,36.994c-0.011,0.005-0.023,0.01-0.035,0.015   c-0.111,0.048-0.24,0.097-0.393,0.147c-0.016,0.005-0.034,0.01-0.05,0.015c-0.155,0.049-0.329,0.099-0.523,0.149   c-0.02,0.005-0.037,0.01-0.057,0.015c-0.202,0.051-0.427,0.1-0.669,0.149c-0.043,0.009-0.086,0.017-0.13,0.026   c-0.247,0.048-0.512,0.094-0.798,0.138c-0.04,0.006-0.083,0.012-0.124,0.018c-0.29,0.043-0.596,0.083-0.923,0.12   c-0.02,0.002-0.039,0.005-0.059,0.007c-0.333,0.037-0.691,0.068-1.061,0.096c-0.068,0.005-0.136,0.01-0.205,0.015   c-0.369,0.026-0.755,0.047-1.158,0.062c-0.072,0.003-0.147,0.005-0.221,0.007c-0.428,0.014-0.869,0.023-1.333,0.023   s-0.905-0.009-1.333-0.023c-0.073-0.002-0.148-0.004-0.221-0.007c-0.403-0.015-0.789-0.036-1.158-0.062   c-0.069-0.005-0.137-0.01-0.205-0.015c-0.371-0.028-0.728-0.06-1.061-0.096c-0.02-0.002-0.039-0.005-0.059-0.007   c-0.327-0.037-0.633-0.077-0.923-0.12c-0.041-0.006-0.084-0.012-0.124-0.018c-0.286-0.044-0.551-0.09-0.798-0.138   c-0.044-0.009-0.087-0.017-0.13-0.026c-0.241-0.049-0.467-0.099-0.669-0.149c-0.02-0.005-0.038-0.01-0.057-0.015   c-0.194-0.05-0.369-0.1-0.523-0.149c-0.016-0.005-0.035-0.01-0.05-0.015c-0.153-0.05-0.281-0.099-0.393-0.147   c-0.012-0.005-0.023-0.01-0.035-0.015c0.927-0.705,3.775-1.997,7.74-1.997S55.844,36.289,56.771,36.994z M31.883,55.064   c-0.175-0.293-0.322-0.596-0.444-0.907c-0.008-0.022-0.016-0.044-0.024-0.066c-0.115-0.306-0.207-0.618-0.27-0.937   c-0.004-0.022-0.006-0.044-0.01-0.066c-0.055-0.295-0.085-0.595-0.094-0.897c-0.001-0.041-0.006-0.082-0.006-0.124   c-0.003-0.303,0.02-0.609,0.063-0.915c0.009-0.065,0.018-0.13,0.03-0.195c0.045-0.26,0.103-0.517,0.182-0.766   c0.008-0.027,0.02-0.052,0.029-0.078c0.084-0.251,0.185-0.496,0.302-0.733c0.011-0.023,0.022-0.046,0.033-0.068   c0.54-1.059,1.391-1.954,2.424-2.543c0.002-0.001,0.005-0.003,0.007-0.004c0.235-0.134,0.483-0.247,0.735-0.347   c0.062-0.024,0.125-0.046,0.188-0.069c0.228-0.082,0.461-0.152,0.7-0.205c0.026-0.006,0.051-0.014,0.077-0.02   c0.288-0.059,0.577-0.092,0.865-0.109c0.061-0.004,0.122-0.007,0.183-0.009c0.289-0.009,0.576-0.001,0.861,0.032   c0.027,0.003,0.053,0.009,0.081,0.012c0.295,0.038,0.587,0.096,0.875,0.179c0.009,0.003,0.018,0.004,0.027,0.007   c0.305,0.089,0.605,0.203,0.897,0.342c2.03,0.963,3.441,3.026,3.441,5.419c0,3.309-2.691,6-6,6   C34.844,57.997,32.932,56.817,31.883,55.064z M57.031,56.86c-0.648,0.427-3.452,1.137-8,1.137c-2.215,0-4.3-0.174-5.858-0.475   c0.457-0.546,0.838-1.151,1.135-1.802c0.09,0.011,0.187,0.019,0.279,0.03c0.149,0.018,0.301,0.033,0.453,0.049   c0.266,0.027,0.536,0.052,0.811,0.073c0.159,0.012,0.316,0.025,0.477,0.036c0.297,0.019,0.599,0.034,0.904,0.047   c0.143,0.006,0.284,0.014,0.429,0.019c0.451,0.014,0.907,0.023,1.37,0.023c0.551,0,1.068-0.009,1.561-0.024   c0.164-0.005,0.31-0.014,0.468-0.02c0.317-0.013,0.632-0.027,0.924-0.046c0.171-0.011,0.328-0.025,0.49-0.038   c0.255-0.02,0.507-0.041,0.743-0.066c0.158-0.016,0.307-0.035,0.456-0.053c0.216-0.026,0.427-0.054,0.626-0.084   c0.139-0.021,0.274-0.042,0.406-0.065c0.189-0.032,0.369-0.066,0.542-0.101c0.117-0.024,0.233-0.047,0.343-0.072   c0.169-0.038,0.325-0.079,0.478-0.12c0.094-0.025,0.191-0.05,0.279-0.076c0.155-0.046,0.296-0.094,0.434-0.142   c0.067-0.023,0.14-0.046,0.203-0.07c0.015-0.006,0.033-0.011,0.048-0.016V56.86z" fill="#FFFFFF"/>
	<path d="M32.031,16.304v-2.307c0-0.552-0.448-1-1-1h-12c-0.552,0-1,0.448-1,1s0.448,1,1,1h11v1h-11c-0.552,0-1,0.448-1,1   s0.448,1,1,1h11.925c0.896,0.746,2,1.173,3.179,1.173c1.335,0,2.591-0.521,3.536-1.466c0.391-0.391,0.391-1.023,0-1.414   s-1.023-0.391-1.414,0C35.127,17.419,33.168,17.423,32.031,16.304z" fill="#FFFFFF"/>
	<path d="M18.086,10.027c0.407,1.178,1.504,1.97,2.73,1.97h7.431c1.226,0,2.323-0.792,2.73-1.97   c0.388-1.126,1.607-3.645,2.553-4.445c0.829-0.703,1.218-1.792,1.014-2.842c-0.2-1.033-0.921-1.849-1.928-2.182   c-2.999-0.993-5.666-0.658-7.698,0.967c-0.357,0.287-0.86,0.287-1.22,0c-2.032-1.625-4.701-1.96-7.697-0.967   c-1.007,0.333-1.729,1.148-1.929,2.182c-0.204,1.05,0.185,2.139,1.014,2.842C16.156,6.489,17.796,9.187,18.086,10.027z" fill="#FFFFFF"/>
</g>
<g>
</g>
<g>
</g>
<g>
</g>
<g>
</g>
<g>
</g>
<g>
</g>
<g>
</g>
<g>
</g>
<g>
</g>
<g>
</g>
<g>
</g>
<g>
</g>
<g>
</g>
<g>
</g>
<g>
</g>
</svg>
