<?xml version="1.0" encoding="iso-8859-1"?>
<!-- Generator: Adobe Illustrator 19.0.0, SVG Export Plug-In . SVG Version: 6.00 Build 0)  -->
<svg xmlns="http://www.w3.org/2000/svg" xmlns:xlink="http://www.w3.org/1999/xlink" version="1.1" id="Capa_1" x="0px" y="0px" viewBox="0 0 363.481 363.481" style="enable-background:new 0 0 363.481 363.481;" xml:space="preserve" width="512px" height="512px">
<g>
	<path d="M19.241,363.481h85v-195h-85V363.481z M34.241,183.481h55v165h-55V183.481z" fill="#FFFFFF"/>
	<path d="M139.241,363.481h85v-110h-85V363.481z M154.241,268.481h55v80h-55V268.481z" fill="#FFFFFF"/>
	<path d="M259.241,98.481v265h85v-265H259.241z M329.241,348.481h-55v-235h55V348.481z" fill="#FFFFFF"/>
	<polygon points="93.741,93.713 141.241,141.213 261.241,21.213 293.741,53.713 318.669,28.785 308.062,18.178 293.741,32.5    261.241,0 141.241,120 93.741,72.5 40.937,125.303 51.544,135.91  " fill="#FFFFFF"/>
</g>
<g>
</g>
<g>
</g>
<g>
</g>
<g>
</g>
<g>
</g>
<g>
</g>
<g>
</g>
<g>
</g>
<g>
</g>
<g>
</g>
<g>
</g>
<g>
</g>
<g>
</g>
<g>
</g>
<g>
</g>
</svg>
