<?xml version="1.0" encoding="UTF-8"?>
<!DOCTYPE svg PUBLIC "-//W3C//DTD SVG 1.1//EN" "http://www.w3.org/Graphics/SVG/1.1/DTD/svg11.dtd">
<!-- Creator: CorelDRAW X7 -->
<svg xmlns="http://www.w3.org/2000/svg" xml:space="preserve" width="1736px" height="1419px" version="1.1" style="shape-rendering:geometricPrecision; text-rendering:geometricPrecision; image-rendering:optimizeQuality; fill-rule:evenodd; clip-rule:evenodd"
viewBox="0 0 1948 1592"
 xmlns:xlink="http://www.w3.org/1999/xlink">
 <defs>
  <style type="text/css">
   <![CDATA[
    .fil0 {fill:black}
   ]]>
  </style>
 </defs>
 <g id="Слой_x0020_1">
  <metadata id="CorelCorpID_0Corel-Layer"/>
  <g id="_987922714000">
   <path class="fil0" d="M148 1406c-51,0 -92,-41 -92,-91l0 -930 1620 0 0 489c19,-1 38,5 56,10l0 -646c0,-82 -67,-148 -148,-148l-92 0 0 -62c0,-15 -12,-28 -28,-28 -15,0 -28,13 -28,28l0 62 -243 0 0 -62c0,-15 -12,-28 -28,-28 -15,0 -28,13 -28,28l0 62 -243 0 0 -62c0,-15 -13,-28 -28,-28 -16,0 -28,13 -28,28l0 62 -243 0 0 -62c0,-15 -13,-28 -28,-28 -16,0 -28,13 -28,28l0 62 -244 0 0 -62c0,-15 -12,-28 -28,-28 -15,0 -28,13 -28,28l0 62 -91 0c-82,0 -148,66 -148,148l0 1077c0,81 66,147 148,147l1124 0c1,-19 0,-37 -5,-56l-1119 0zm-92 -1168c0,-51 41,-92 92,-92l91 0 0 62c0,15 13,28 28,28 16,0 28,-13 28,-28l0 -62 244 0 0 62c0,15 12,28 28,28 15,0 28,-13 28,-28l0 -62 243 0 0 62c0,15 12,28 28,28 15,0 28,-13 28,-28l0 -62 243 0 0 62c0,15 13,28 28,28 16,0 28,-13 28,-28l0 -62 243 0 0 62c0,15 13,28 28,28 16,0 28,-13 28,-28l0 -62 92 0c51,0 92,41 92,92l0 91 -1620 0 0 -91z"/>
   <path class="fil0" d="M1518 1088c-2,0 -4,2 -6,3 2,3 3,7 3,12 0,1 0,2 0,3 1,-6 2,-12 3,-18z"/>
   <path class="fil0" d="M1464 509l-1197 0c-48,0 -87,39 -87,88l0 598c0,49 39,88 87,88l919 0c3,-12 7,-24 13,-34 -1,-3 -2,-7 -1,-11 8,-64 5,-133 35,-191l-10 0 0 -123 97 0c13,-22 29,-41 49,-56l-146 0 0 -124 273 0 0 93c6,-7 12,-14 17,-21 10,-13 25,-13 34,-7 2,0 4,0 5,0l0 -212c0,-49 -39,-88 -88,-88zm-955 718l-242 0c-17,0 -31,-15 -31,-32l0 -92 273 0 0 124zm0 -180l-273 0 0 -123 273 0 0 123zm0 -179l-273 0 0 -124 273 0 0 124zm0 -180l-273 0 0 -91c0,-18 14,-32 31,-32l242 0 0 123zm329 539l-273 0 0 -124 273 0 0 124zm0 -180l-273 0 0 -123 273 0 0 123zm0 -179l-273 0 0 -124 273 0 0 124zm0 -180l-273 0 0 -123 273 0 0 123zm329 539l-273 0 0 -124 273 0 0 124zm0 -180l-273 0 0 -123 273 0 0 123zm0 -179l-273 0 0 -124 273 0 0 124zm0 -180l-273 0 0 -123 273 0 0 123zm329 0l-273 0 0 -123 241 0c18,0 32,14 32,32l0 91z"/>
  </g>
  <g id="_987922712528">
   <path class="fil0" d="M1550 797c-219,0 -397,178 -397,398 0,219 178,397 397,397 220,0 398,-178 398,-397 0,-220 -178,-398 -398,-398l0 0zm0 743c-190,0 -345,-155 -345,-345 0,-191 155,-346 345,-346 191,0 346,155 346,346 0,190 -155,345 -346,345l0 0zm0 0z"/>
   <path class="fil0" d="M1577 1171l0 -148c15,5 27,15 37,29 7,12 24,15 36,7 12,-7 15,-24 7,-36 -18,-29 -47,-48 -80,-55l0 -42c0,-14 -12,-26 -26,-26 -15,0 -26,12 -26,26l0 42c-58,12 -102,63 -102,125 0,61 44,113 102,124l0 149c-15,-5 -28,-15 -37,-29 -8,-12 -25,-16 -37,-8 -12,8 -15,25 -7,37 18,28 47,48 80,54l0 42c0,15 12,26 26,26 15,0 27,-11 27,-26l0 -42c58,-12 101,-63 101,-124 0,-62 -43,-113 -101,-125l0 0zm-102 -78c0,-32 21,-60 49,-70l0 141c-28,-11 -49,-39 -49,-71l0 0zm102 274l0 -142c28,11 49,39 49,71 0,32 -21,60 -49,71l0 0zm0 0z"/>
  </g>
 </g>
</svg>
