<?xml version="1.0" encoding="iso-8859-1"?>
<!-- Generator: Adobe Illustrator 18.0.0, SVG Export Plug-In . SVG Version: 6.00 Build 0)  -->
<!DOCTYPE svg PUBLIC "-//W3C//DTD SVG 1.1//EN" "http://www.w3.org/Graphics/SVG/1.1/DTD/svg11.dtd">
<svg xmlns="http://www.w3.org/2000/svg" xmlns:xlink="http://www.w3.org/1999/xlink" version="1.1" id="Capa_1" x="0px" y="0px" viewBox="0 0 386.61 386.61" style="enable-background:new 0 0 386.61 386.61;" xml:space="preserve" width="512px" height="512px">
<g>
	<circle cx="65" cy="290.112" r="10" fill="#FFFFFF"/>
	<path d="M65,100.178c-5.523,0-10,4.478-10,10v130c0,5.522,4.477,10,10,10c5.521,0,10-4.478,10-10v-130   C75,104.655,70.521,100.178,65,100.178z" fill="#FFFFFF"/>
	<circle cx="165" cy="290.112" r="10" fill="#FFFFFF"/>
	<path d="M165,250.178c5.521,0,10-4.478,10-10v-130c0-5.522-4.479-10-10-10c-5.523,0-10,4.478-10,10v130   C155,245.7,159.477,250.178,165,250.178z" fill="#FFFFFF"/>
	<path d="M386.318,327.741L327.791,33.505c-0.775-3.901-3.07-7.335-6.377-9.545c-3.309-2.211-7.359-3.016-11.262-2.24   l-85.479,17.003c-2.613-2.208-5.986-3.545-9.674-3.545H115H15c-8.285,0-15,6.716-15,15v300c0,8.284,6.715,15,15,15h100h100   c8.283,0,15-6.716,15-15V208.24l28.815,144.864c0.777,3.901,3.07,7.335,6.379,9.545c2.484,1.661,5.389,2.528,8.334,2.528   c0.975,0,1.955-0.095,2.926-0.287l98.08-19.511C382.658,343.764,387.936,335.866,386.318,327.741z M30,65.178h70v270H30V65.178z    M200,335.178h-70v-270h70V335.178z M285.313,332.54L232.637,67.727l68.658-13.657l52.674,264.814L285.313,332.54z" fill="#FFFFFF"/>
	<circle cx="310.848" cy="281.511" r="10" fill="#FFFFFF"/>
	<path d="M273.793,95.226c-5.418,1.077-8.936,6.342-7.857,11.759l25.363,127.504c0.947,4.758,5.123,8.051,9.797,8.051   c0.646,0,1.305-0.063,1.963-0.194c5.416-1.077,8.934-6.342,7.855-11.759l-25.363-127.504   C284.475,97.666,279.209,94.146,273.793,95.226z" fill="#FFFFFF"/>
</g>
<g>
</g>
<g>
</g>
<g>
</g>
<g>
</g>
<g>
</g>
<g>
</g>
<g>
</g>
<g>
</g>
<g>
</g>
<g>
</g>
<g>
</g>
<g>
</g>
<g>
</g>
<g>
</g>
<g>
</g>
</svg>
