<?xml version="1.0" encoding="iso-8859-1"?>
<!-- Generator: Adobe Illustrator 19.0.0, SVG Export Plug-In . SVG Version: 6.00 Build 0)  -->
<svg xmlns="http://www.w3.org/2000/svg" xmlns:xlink="http://www.w3.org/1999/xlink" version="1.1" id="Capa_1" x="0px" y="0px" viewBox="0 0 480.606 480.606" style="enable-background:new 0 0 480.606 480.606;" xml:space="preserve" width="512px" height="512px">
<g>
	<rect x="125.285" y="235" width="40" height="40" fill="#FFFFFF"/>
	<rect x="125.285" y="75" width="40" height="40" fill="#FFFFFF"/>
	<rect x="125.285" y="155" width="40" height="40" fill="#FFFFFF"/>
	<rect x="205.285" y="75" width="40" height="40" fill="#FFFFFF"/>
	<rect x="205.285" y="155" width="40" height="40" fill="#FFFFFF"/>
	<path d="M409.108,480.606l21.213-21.213l-71.349-71.349c12.528-16.886,19.949-37.777,19.949-60.37   c0-40.664-24.032-75.815-58.637-92.012V0h-270v445h270v-25.314c6.188-2.896,12.039-6.396,17.474-10.429L409.108,480.606z    M80.285,30h210v196.957c-4.224-0.538-8.529-0.815-12.896-0.815c-55.985,0-101.533,45.547-101.533,101.533   c0,37.1,20.005,69.61,49.791,87.326H80.285V30z M277.388,399.207c-39.443,0-71.533-32.089-71.533-71.533   s32.089-71.533,71.533-71.533s71.533,32.09,71.533,71.533S316.832,399.207,277.388,399.207z" fill="#FFFFFF"/>
</g>
<g>
</g>
<g>
</g>
<g>
</g>
<g>
</g>
<g>
</g>
<g>
</g>
<g>
</g>
<g>
</g>
<g>
</g>
<g>
</g>
<g>
</g>
<g>
</g>
<g>
</g>
<g>
</g>
<g>
</g>
</svg>
