<?xml version="1.0" encoding="iso-8859-1"?>
<!-- Generator: Adobe Illustrator 16.0.0, SVG Export Plug-In . SVG Version: 6.00 Build 0)  -->
<!DOCTYPE svg PUBLIC "-//W3C//DTD SVG 1.1//EN" "http://www.w3.org/Graphics/SVG/1.1/DTD/svg11.dtd">
<svg xmlns="http://www.w3.org/2000/svg" xmlns:xlink="http://www.w3.org/1999/xlink" version="1.1" id="Capa_1" x="0px" y="0px" width="512px" height="512px" viewBox="0 0 543.546 543.546" style="enable-background:new 0 0 543.546 543.546;" xml:space="preserve">
<g>
	<path d="M539.002,169.951c-4.686-3.128-11.016-1.856-14.144,2.829c-5.332,7.997-12.662,11.451-18.959,12.859   c-0.055-11.879-5.807-24.276-16.34-34.809c-10.058-10.058-24.664-12.077-34.728-4.828c-7.528,5.433-13.458,17.483-5.406,33.599   c5.012,10.03,14.273,18.061,25.548,22.767c-2.136,1.51-4.604,2.965-7.385,4.352c-6.113,3.06-12.37,4.889-18.429,5.95   c-29.233-59.677-105.332-102.231-194.616-102.231c-17.836,0-34.258,1.163-49.599,3.148   c-25.548-16.544-72.958-36.911-120.401-33.749c2.189,19.72,14.287,45.05,29.879,63.328c-30.212,18.666-49.688,44.146-59.494,73.645   c-11.499,5.045-23.916,8.248-37.794,9.187C6.99,226.69-0.674,235.394,0.047,245.54c1.87,26.152,9.622,70.699,40.297,82.497   c5.746,2.21,14.913,3.516,25.827,4.209c13.001,21.243,32.083,39.937,55.638,54.754c-3.944,19.699-8.82,39.569-14.824,59.643   c-2.598,8.67,3.971,17.395,13.036,17.395h57.134c5.65,0,10.805-3.461,12.77-8.759c4.495-12.145,8.296-24.575,11.526-37.236   c16.945,3.379,34.734,5.195,53.094,5.195c21.346,0,41.93-2.441,61.31-6.95c-2.523,10.078-5.223,20.183-8.263,30.349   c-2.604,8.677,3.965,17.401,13.029,17.401h57.134c5.65,0,10.805-3.461,12.771-8.759c10.179-27.492,16.918-56.386,21.046-86.333   c31.361-27.403,50.374-63.069,50.374-102.108c0-11.981-1.85-23.637-5.229-34.843c6.569-1.462,13.314-3.686,19.992-7.031   c11.05-5.521,18.007-11.886,22.345-18.047c17.605-0.361,33.348-8.67,42.779-22.814   C544.959,179.409,543.688,173.079,539.002,169.951z M132.144,219.237c-9.391,0-17-7.609-17-17c0-9.391,7.609-17,17-17   c9.391,0,17,7.609,17,17C149.144,211.628,141.528,219.237,132.144,219.237z M310.318,238.576   c-7.106,2.387-14.824-1.455-17.211-8.582c-1.748-5.223-8.323-11.322-21.108-11.322c-9.928,0-15.79,6.44-16.442,12.798   c-0.823,7.922,6.372,14.266,19.238,16.952c30.77,6.447,42.622,27.94,40.712,46.383c-1.734,16.748-13.784,30.205-29.9,35.135v8.297   c0,7.507-6.093,13.6-13.6,13.6c-7.508,0-13.601-6.093-13.601-13.6v-7.889c-18.659-4.311-29.532-16.973-33.299-28.233   c-2.38-7.126,1.462-14.838,8.588-17.211c7.12-2.387,14.831,1.455,17.21,8.582c1.884,5.637,9.139,11.322,21.101,11.322   c9.921,0,15.783-6.44,16.442-12.798c0.823-7.922-6.372-14.267-19.238-16.952c-30.777-6.447-42.622-27.941-40.711-46.383   c1.734-16.749,13.784-30.206,29.899-35.136v-8.303c0-7.507,6.093-13.6,13.6-13.6s13.6,6.093,13.6,13.6v7.888   c18.652,4.311,29.526,16.973,33.293,28.233C321.279,228.485,317.438,236.189,310.318,238.576z M467.663,170.474   c-2.074-4.141-2.033-7.126-0.918-7.929c0.442-0.32,1.115-0.51,1.938-0.51c1.706,0,4.08,0.85,6.439,3.217   c6.181,6.188,9.853,13.137,10.315,19.271C477.448,181.864,470.818,176.778,467.663,170.474z" fill="#FFFFFF"/>
</g>
<g>
</g>
<g>
</g>
<g>
</g>
<g>
</g>
<g>
</g>
<g>
</g>
<g>
</g>
<g>
</g>
<g>
</g>
<g>
</g>
<g>
</g>
<g>
</g>
<g>
</g>
<g>
</g>
<g>
</g>
</svg>
