<?xml version="1.0" encoding="utf-8"?>
<!-- Generator: Adobe Illustrator 18.1.1, SVG Export Plug-In . SVG Version: 6.00 Build 0)  -->
<svg version="1.1" id="Слой_1" xmlns="http://www.w3.org/2000/svg" xmlns:xlink="http://www.w3.org/1999/xlink" x="0px" y="0px"
	 viewBox="0 0 595.3 841.9" enable-background="new 0 0 595.3 841.9" xml:space="preserve">
<g>
	<g>
		<path fill="#EDE8DA" d="M59,667.9c0-165.3,0-330.7,0-496c2.8-2.6,6.2-2,9.5-2c53.4,0,106.8,0,160.3,0c29,0,57.9,0,86.9,0
			c3.1,0,6.4-0.6,8.7,2.4c0.5,3.1,0.6,6.3,0.6,9.4c0,33.6,0,67.2,0,100.9c0,7.2,0.1,7.3,7.2,7.3c33.8,0,67.6,0,101.4,0
			c3.3,0,6.7-0.3,9.7,1.6c1.7,2.1,1.7,4.6,1.7,7.1c0,57.6,0.1,115.2,0,172.8c0,7.8-1.6,9.3-9.5,9.4c-24.8,0.1-49.6,0.2-74.4-0.1
			c-5.8-0.1-10.6,0.2-11.6,7.3c-3,2.5-6.6,1.8-10.1,1.8c-62.1,0-124.3,0-186.4,0c-2.7,0-5.3-0.1-8,0.1c-4.6,0.4-7,2.9-6.8,6.9
			c0.1,3.8,2.4,5.7,7.1,6c2.5,0.1,5,0.1,7.5,0.1c62.3,0,124.6,0,186.9,0c3.3,0,6.7-0.6,9.7,1.6c1.4,1.6,1.6,3.6,1.6,5.6
			c0.1,13.6,0.1,27.1,0,40.7c0,1.8-0.3,3.6-1.4,5.2c-3,2.5-6.6,1.8-10.1,1.8c-61,0-121.9,0-182.9,0c-3.2,0-6.3-0.1-9.5,0.1
			c-5.4,0.2-8.8,2.8-8.8,6.9c-0.1,4,3.2,6.7,8.7,7.1c2.7,0.2,5.3,0.1,8,0.1c61.5,0,122.9,0,184.4,0c3.4,0,7.1-0.7,10.1,1.7
			c1.7,2.1,1.6,4.7,1.6,7.2c0,26.3,0.1,52.7,0,79c0,7.3-2,9.4-9.5,9.9c-2,0.2-4,0.1-6,0.1c-88.8,0-177.7,0-266.5,0
			C65.6,669.9,61.9,670.6,59,667.9z"/>
		<path fill="#FEFEFE" d="M348.9,556c0-17,0-34.1,0-51.1c-2.8-5.6-2.8-11.2,0-16.9c0.2-9.1,0.2-9.1,9.5-9.1c26.5,0,52.9,0,79.4,0
			c3.2,0,5.3-0.1,5.3-4.4c-0.2-60.9-0.1-121.8-0.2-182.7c-2.3-1-4.2-2.6-6-4.4c-36.3-36.3-72.6-72.7-108.9-109c-1.6-1.6-3.7-3-4-5.5
			c-1.9-1.7-4.1-0.9-6.2-0.9c-86.3,0-172.5,0-258.8,0c-1.1-5.1,0.9-6.1,6-6.1c156.5,0.2,313,0.2,469.5,0c3.7,0,4.6,0.8,4.6,4.6
			c-0.1,167.7-0.1,335.3,0,503c0,3.7-0.8,4.6-4.6,4.6c-156.5-0.1-313-0.1-469.5,0c-5.1,0-7.1-1-6-6.2c0.3-1.3,0-2.7,0-4
			c93.1,0,186.2,0,279.3,0c10.7,0,10.7,0,10.7-10.6c0-27.8-0.1-55.6-0.1-83.4C346.1,567.8,346.1,561.9,348.9,556z"/>
		<path fill="#D1CCB8" d="M324,172.9c1,0.9,2.1,1.7,3,2.6c37.8,37.8,75.6,75.5,113.3,113.3c0.9,0.9,1.7,2,2.6,3
			c-38.4,0-76.9,0-115.3,0.1c-3.4,0-4.6-1-4.6-4.5c0.1-36.8,0.1-73.5,0.1-110.3C323,175.6,322.7,174.1,324,172.9z"/>
		<path fill="#D2CDB9" d="M251,368.9c-34.8,0-69.6,0-104.4,0c-7.6,0-10.7-2.9-10.6-9.4c0.1-5.2,3.6-7.1,7.8-8.2
			c1.6-0.4,3.3-0.3,5-0.3c68.1,0,136.2,0,204.4,0c2.2,0,4.3-0.1,6.4,0.7c4.4,1.6,6.7,4.3,6.5,9.3c-0.2,5.1-3.6,6.8-7.6,7.9
			c-1.4,0.4-3,0.1-4.5,0.1C319.7,368.9,285.3,368.9,251,368.9z"/>
		<path fill="#D1CCB8" d="M251.5,419.9c35,0,70,0,105,0c7.1,0,10.5,3.7,9.4,10.2c-0.6,3.7-2.8,5.9-6.5,6.7c-1.1,0.2-2.3,0.1-3.5,0.1
			c-70,0-140,0-210,0c-6.4,0-9.5-2.3-10-7.3c-0.6-5.9,2.5-9.5,8.5-9.6c7.2-0.1,14.3,0,21.5,0C194.5,419.9,223,419.9,251.5,419.9z"/>
		<path fill="#D2CDB9" d="M348.9,556c0,5.9,0,11.9,0,17.8c-67.3,0-134.6,0.1-201.8,0.1c-6.7,0-10.8-3.2-11-8.3
			c-0.2-4.8,3.3-9,8.1-9.6c0.7-0.1,1.3,0,2,0C213.7,555.9,281.3,555.9,348.9,556z"/>
		<path fill="#D1CCB8" d="M348.9,488c0,5.6,0,11.2,0,16.9c-68.2,0-136.3,0.1-204.5,0.1c-5.6,0-8.5-2.8-8.5-8.1
			c0-5.7,2.9-8.8,8.4-8.9c13.5-0.1,27,0,40.5,0C239.6,487.9,294.3,487.9,348.9,488z"/>
		<path fill="#D1CCB9" d="M186.9,300.9c-13.3,0-26.6,0-39.9,0c-6.4,0-10.6-3.1-10.9-7.8c-0.5-6.6,2.8-10,9.9-10.1
			c12.8-0.1,25.6,0,38.4,0c14.3,0,28.6,0,42.9,0c7.4,0,10.7,2.8,10.7,8.8c0,5.6-3.9,9.1-10.7,9.1
			C213.8,300.9,200.4,300.9,186.9,300.9z"/>
		<path fill="#D14A43" d="M464.6,582.1c5.7,5.6,11.1,10.8,20.6,9.2c10.6-1.8,21.5-2.1,32.3-0.3c8.2,1.4,11.4,4.4,11,10.5
			c-10.3-6.2-22.1-7.5-41-4.2c13.7,5,25.6,12.4,39.9,9c-0.3,4.2-2.6,6.4-8.3,6.5c-10.2,0.2-19.7-2.9-29-6.5
			c-3.1-1.2-6.4-2.3-9.1-4.1c-5.3-3.5-10.7-3.5-16.6-2.3c-16.7,3.3-33.1,7.3-49.4,12.2c-2.9,0.9-4.8,2.5-6.3,5.1
			c-6.4,11.1-13.1,22-22.2,31.3c-2.5,2.5-5.2,4.6-8.4,6.2c-5.3,2.6-10.1,0.8-14.6-2.1c-1.8-1.1-2-3.1-1.5-5c0.5-1.9,1.2-3.9,2.2-5.5
			c7.5-11.3,18.5-18.2,30.4-23.9c-10,10.2-21.9,18.9-27.1,33.9c4.8-0.4,7.6-2.9,10.3-5.5c7.5-7,13.1-15.5,18.5-24.1
			c6.7-10.6,13-21.4,18.2-32.7c2.4-5.2,5.5-6.9,11.5-5.3c-4.2,7.9-8.3,15.7-12.9,24.4c17.4-7.2,34.7-11.5,53.4-15.1
			c-7.2-5-12.6-10.5-17.7-16.1l0.1,0.1c-1-1.5-1.9-2.9-3.2-4.9c3.5,0,6.7,0,5-6.1c5.3,5.6,8.4,11.1,13.2,14.9
			C464.3,581.5,464.5,581.6,464.6,582.1z"/>
		<path fill="#D14B44" d="M437.7,561.4c-1.2-2.4-2.4,3.3-4.3-0.2c-1.5-2.7-3.5-4.6-1.4-7.8c1.3-1.9,1-4,0.4-6.2
			c-3.2-13.1-6.7-26.1-6.7-39.7c0-2.3,0.1-4.7,0.3-7c0.7-5.5,3.1-8.1,7.9-8.7c6.1-0.7,9.5,1.2,11.4,6.4c1.4,4,1.1,8-0.8,11.8
			c-0.4-5.1-1.7-9.8-4.6-13.9c-0.9-1.2-1.6-2.9-3.3-2.6c-1.7,0.3-1.7,2.2-2,3.6c-2,10.7-0.5,21.2,1.6,31.7c0.5,2.3,1.1,4.5,2.1,8.2
			c2.1-7.6,3.8-13.9,5.4-20.2c0.3,0,0.6,0.1,0.8,0.1c-0.6,6.8-0.7,13.7-1.9,20.3c-1.3,6.8-1.3,13.1,3.1,19c-2.5,0.7-4.6,1.1-6.6,1.8
			c-0.8,0.3-2.5,0.9-0.8,2.4C438.7,561.3,438.4,561.5,437.7,561.4z"/>
		<path fill="#221D1F" d="M481.7,566.3c0-4.3,0.1-8.6,0-13c0-2,0.7-2.9,2.7-3.3c6.9-1.3,12.5,1.9,14.1,8.7c1.2,4.9,1.2,9.9-0.3,14.8
			c-2,6.8-7.9,10-14.8,8.7c-2.1-0.4-1.7-1.6-1.7-2.9C481.7,574.9,481.7,570.6,481.7,566.3z"/>
		<path fill="#1D1C1E" d="M422.7,559.8c6.2-1.8,8.6-0.5,10.4,5.2c1.4,4.5,1,8.9-0.8,13.1c-1.6,3.7-4.2,5.5-8.3,3.6
			c-0.4-0.2-1-0.9-1.2-0.8c-8.5,3.8-4.6-3.5-4.7-5.8c-0.5-7.3-0.2-14.6-0.2-21.9c0-1.7-0.7-3.8,2.4-3.7c3,0.1,2.3,2.2,2.4,3.9
			C422.8,555.4,422.7,557.3,422.7,559.8z"/>
		<path fill="#1C1B1E" d="M393.4,559.8c0-2.6,0.1-5,0-7.5c-0.1-1.8,0.6-2.7,2.5-2.7c2.3,0,2.2,1.4,2.2,2.9c0,9,0,17.9,0.1,26.9
			c0,0.9-0.1,2.8-0.8,2.4c-3.6-2.1-6.8,1.9-10.2,0.3c-3.2-1.6-4-4.6-4.7-7.8c-0.6-3-0.6-5.9,0.3-8.9
			C384.5,559.5,387.2,558,393.4,559.8z"/>
		<path fill="#252022" d="M464.6,582.1l-0.3-0.2c0,0-0.4,0-0.4,0c0.1-8.8,0.4-17.7,0.1-26.5c-0.2-4.6,1.7-5.7,5.8-5.6
			c6,0.2,9.2,2.6,10,7.7c0.9,6-1.7,10.5-7.4,11.6c-3.4,0.6-3.9,2.2-3.6,4.9c0.1,1.3-0.1,2.7,0.1,4
			C469.4,581.6,467.7,582.5,464.6,582.1z"/>
		<path fill="#241F21" d="M362.3,581.4c2.1-9.2,4.2-18.4,6.4-27.6c0.4-1.9,0.5-3.9,3.5-3.8c3.1,0.1,2.8,2.3,3.2,4.1
			c1.8,8.1,3.7,16.2,5.3,24.3c0.2,1.1,1.8,3-0.9,3.5c-2.1,0.4-3.3-0.3-3.7-2.7c-0.4-2.6,0.7-6.3-4.3-6.2c-3.4,0-3.7,1.7-4,4.3
			C367.4,580.3,367,583.6,362.3,581.4z"/>
		<path fill="#2A2527" d="M501.3,566.1c0-4.2,0.1-8.3-0.1-12.5c-0.1-2.9,1-3.8,3.8-3.6c2.1,0.2,4.3,0.1,6.5,0c1.4,0,2.6,0.1,2.6,2
			c0,2.1-1.3,2.1-2.6,1.9c-4.2-0.6-5.9,0.6-5.6,5.3c0.2,3.5,0.6,5.3,4.6,4.7c1.5-0.2,3.4-0.5,3.4,2.2c0,2.7-2,2.4-3.5,2.2
			c-4.1-0.7-4.8,1.3-4.4,4.7c0.2,2.1,0,4.3,0.1,6.5c0,1.5-0.1,2.5-2.1,2.5c-1.8,0-2.8-0.5-2.7-2.5
			C501.4,575.1,501.3,570.6,501.3,566.1z"/>
		<path fill="#241F21" d="M399.9,570.7c0-2.6,0.1-4.7,1-6.7c1.4-3.1,3.6-5.1,7.2-5.1c3.7,0,5.7,2.3,6.8,5.5
			c1.3,3.9,1.4,7.8,0.2,11.7c-1.1,3.6-3.2,6.5-7.2,6.4c-3.9,0-6.1-2.8-7.3-6.4C399.9,574.2,400,572.2,399.9,570.7z"/>
		<path fill="#252022" d="M437.7,561.4c0.3-0.3,0.5-0.5,0.8-0.8c2.8-2.3,5.8-2.7,8.6-0.4c3.2,2.6,3.2,6.4,2.9,10.1
			c-0.2,2-2.1,1-3.1,1.5c-2.2,1.1-7-2.9-6.8,2.4c0.2,5.2,4.6,4.5,8.4,3.8c0.2,0,0.3,0,0.5,0c0,0-0.1-0.1-0.1-0.1
			c0,1.8,0.9,3.9-2.2,4.4c-3.9,0.6-7.5,0.5-9.6-3.2C433.9,573.2,433.9,567.2,437.7,561.4z"/>
		<path fill="#E08D79" d="M524.9,621.5c-2.2-0.4-3.8-1.2-4-3.7c-0.2-2.7,1.3-4.2,3.7-4.3c2.3-0.2,3.9,1.5,4.1,3.6
			C529,619.5,527.3,620.9,524.9,621.5z"/>
		<path fill="#524F51" d="M454.3,558.7c2.4-0.1,3.8,1.1,4.1,3.4c0.3,2.6-1.3,4.2-3.7,4.4c-2.4,0.2-4.1-1.5-4.1-4
			C450.6,560.3,451.9,558.8,454.3,558.7z"/>
		<path fill="#C4DDEE" d="M373.3,667.1c9.5,0,19,0,28.5,0c0,0.2,0,0.3,0,0.5c-9.5,0-19,0-28.5,0
			C373.3,667.5,373.3,667.3,373.3,667.1z"/>
		<path fill="#F9F8F9" d="M494.7,565.8c-0.5,3.9-0.3,7.7-3.1,10.6c-1.2,1.3-2.7,2.1-4.4,1.5c-1.7-0.6-0.9-2.3-0.9-3.5
			c-0.1-5.6-0.1-11.2,0-16.9c0-1.2-0.7-2.9,0.9-3.5c1.7-0.7,3.3,0.1,4.5,1.4C494.6,558.4,494.3,562.3,494.7,565.8z"/>
		<path fill="#FCFCFC" d="M422.6,570.2c0.7-2.6-1.4-7.2,3-7.1c4.1,0.1,3.4,4.6,3.4,7.6c0,3,0.5,7.7-3.6,7.5
			C421.1,577.9,423.3,573.1,422.6,570.2z"/>
		<path fill="#FAFAFA" d="M393.7,570.3c-0.7,3.1,1.1,7.9-3.2,7.9c-3.8,0-3.4-4.6-3.4-7.6c0-3-0.6-7.5,3.4-7.5
			C395,563.1,392.7,567.9,393.7,570.3z"/>
		<path fill="#FBFAFB" d="M468.3,560.1c1.8-2.1-1.7-5.9,2.7-6.1c3.5-0.2,4.1,2.7,4.2,5.6c0.1,3.3-1.3,6.1-4.6,5.9
			C466.6,565.2,470.3,561.5,468.3,560.1z"/>
		<path fill="#EBEAEB" d="M372.2,557.8c0.6,3.2,1.2,6.4,1.7,9.6c0.3,1.5,0.1,2.5-1.9,2.5c-1.7-0.1-2.8-0.2-2.4-2.5
			c0.7-3.2,1.1-6.5,1.6-9.7C371.6,557.7,371.9,557.7,372.2,557.8z"/>
		<path fill="#F9F9F9" d="M411.2,570.3c-0.5,2.9,0.9,7.8-3.1,7.8c-4.2,0-3.3-4.9-3.3-8c0-2.8-0.5-7.3,3.1-7.3
			C412.1,562.7,410.6,567.4,411.2,570.3z"/>
		<path fill="#F2F1F2" d="M442.8,568c-1.6,0-3.4,0.4-2.9-2.1c0.3-1.7,0.8-3.5,2.9-3.5c2.3,0,2.8,2.1,3,3.9
			C446.2,569.1,443.8,567.6,442.8,568z"/>
	</g>
</g>
</svg>
