<?xml version="1.0" encoding="utf-8"?>
<!-- Generator: Adobe Illustrator 18.1.1, SVG Export Plug-In . SVG Version: 6.00 Build 0)  -->
<svg version="1.1" id="Слой_1" xmlns="http://www.w3.org/2000/svg" xmlns:xlink="http://www.w3.org/1999/xlink" x="0px" y="0px"
	 viewBox="0 0 595.3 841.9" enable-background="new 0 0 595.3 841.9" xml:space="preserve">
<g>
	<g>
		<path fill="#EEEAD9" d="M43,668.9c0-165.3,0-330.7,0-496c2.8-2.6,6.2-2,9.5-2c49.1,0,98.2,0,147.3,0c33.8,0,67.6,0,101.3,0
			c3.2,0,6.8-0.8,9.3,2.4c1.3,15.1,0.5,30.2,0.6,45.4c0.1,21.3,0,42.6,0,63.9c0,8.4,0,8.4,8.6,8.4c32.9,0,65.9,0,98.8,0
			c3.3,0,6.6,0.1,9.9,0.5c2.3,1.2,2.4,3.5,2.5,5.6c0.2,3,0.1,6,0.1,9c0,58.8,0,117.6,0,176.4c0,2,0.1,4,0,6
			c-0.3,4.1,1.5,5.6,5.6,5.6c10.7-0.1,21.3-0.1,32,0c2.7,0,5.8-0.5,7.6,2.4c-1.4,2.6-3.9,2.3-6.2,2.3c-21.7,0.1-43.3,0.2-65,0
			c-6.2,0-7.6-1.6-7.9-7.7c0-0.7,0,0.2,0-0.5c-0.4-11.6-1.2-12.3-13.4-10.3c-17.1,2.8-34.1,5.9-51.2,8.9c-4.3,0.7-8.5,1.9-12.9,1.5
			c-8.7-0.9-17.3,0.2-25.9,0.2c-51.4,0-102.9,0-154.3,0c-3.8,0-7.7-0.1-11.4,1.1c-3.2,1-5.2,3-4.9,6.6c0.4,3.6,2.7,5.1,6.1,5.3
			c2.5,0.2,5,0.1,7.5,0.1c44.3,0,88.6,0,132.9,0c3.3,0,6.7-0.6,9.6,1.7c1.2,1.5,1.5,3.3,1.5,5.2c0.1,14,0.1,28,0,42
			c0,1.8-0.3,3.7-1.4,5.2c-2.8,2.4-6.3,1.8-9.6,1.8c-44.6,0-89.2,0-133.9,0c-2.5,0-5-0.2-7.5,0.3c-3,0.6-5.3,2.1-5.5,5.5
			c-0.2,3.5,1.4,5.7,4.7,6.7c2.8,0.8,5.6,0.6,8.4,0.6c44.5,0,88.9,0,133.4,0c3.1,0,6.4-0.5,9.3,1.3c2.4,2.4,1.9,5.6,1.9,8.5
			c0.1,22.2,0,44.3,0,66.5c0,8.1,0,8.2,7.9,9.6c12.8,2.3,25.6,4.4,38.4,6.8c2.1,0.4,5.8-0.6,5.5,3.7c-2.3,1.8-5.1,1.5-7.7,1.5
			c-91.3,0-182.6,0-274,0C48.2,670.9,45.3,671.1,43,668.9z"/>
		<path fill="#FEFEFE" d="M476,496.7c-1.6-1.4-3.5-0.8-5.3-0.8c-12-0.1-24-0.3-36,0.1c-4.7,0.1-5.8-1.4-5.8-5.9
			c0.1-64,0.1-128,0.1-191.9c0-2.1,0.8-4.4-1-6.2c-2.2-0.3-3.4-2-4.8-3.4c-36.5-36-73.3-71.7-109.2-108.2c-1.8-1.8-4.4-3.2-3.9-6.4
			c-1.8-1.7-4.1-0.9-6.2-0.9c-86.9,0-173.9,0-260.8,0c0-7,0-7,7-7c166.8,0,333.5,0,500.3-0.1c4.1,0,4.8,0.9,4.8,4.9
			c-0.1,167.6-0.1,335.2,0,502.8c0,3.9-1,4.5-4.7,4.5c-50.5-0.1-101-0.1-151.4-0.1c-0.4-0.5-0.8-1-1.1-1.5c-0.9-2.9-1-5.6,1.1-8
			c2.4-1.5,5.1-1.3,7.7-1.3c4.5-0.1,9-0.2,13.5,0c3.8,0.1,6.7-0.4,7.5-5.1c0.5-3.3,3.5-3.5,6.3-3.5c10.5,0,20.9,0,31.4,0
			c2.5,0,5-0.3,7.3-1.1c6.3-2.1,7.3-3.2,7.3-9.5c0.2-46.9,0.1-93.7,0.1-140.6C480.1,502.8,477,500.3,476,496.7z"/>
		<path fill="#FEFEFE" d="M43,668.9c96.1,0,192.1,0,288.2,0.1c0.7,0,1.3-0.1,2-0.1c1.3-1.4,3-1.4,4.6-1.1
			c13.7,2.2,27.3,4.6,40.8,7.2c1.1,0.2,2.2,0.7,3.1,1.5c0.5,0.5,0.5,1,0.2,1.6c-110.8,0-221.7,0-332.5,0c-6.5,0-6.5,0-6.5-6.5
			C43,670.6,43,669.7,43,668.9z"/>
		<path fill="#5A8BBB" d="M382,677.9c0-0.3,0-0.6-0.1-0.9c5.6-3.2,11.3-3,16.9-0.2c0.1,0.4,0.1,0.7,0.2,1.1
			C393.3,677.9,387.7,677.9,382,677.9z"/>
		<path fill="#00559C" d="M398.8,676.8c-5.6,0.1-11.3,0.1-16.9,0.2c-14.4-2.5-28.8-5-43.3-7.5c-1.8-0.3-3.6-0.5-5.4-0.7
			c-16.5-3-33-6.1-49.5-8.8c-3.7-0.6-4.7-2-4.7-5.7c0.1-26.5,0-52.9-0.1-79.4c-2.7-5.7-2.7-11.4,0-17.1c0-17.3,0-34.6,0-51.9
			c-3.3-6.9-1.4-10.6,6-12.2c11.7-2.5,23.6-3.8,35.5-4.7c20.8-3.5,41.6-7.1,62.3-10.6c0.5-0.1,1-0.3,1.5-0.3
			c14.2-2.2,15.1-1.6,14.8,12.5c-0.1,4.6,0.8,6.2,5.8,6.1c23.8-0.3,47.5-0.1,71.3-0.1c4.4,1.8,6,5.2,6,9.9c-0.1,46.5,0,92.9,0,139.4
			c0,0.8,0,1.7,0,2.5c-0.2,7.8-1.3,9.1-9,10.6c-12.6,0.6-25.3-0.6-37.8,0.5c-10.1,0.9-20.1,1-30.2,1.3c-2.3,0.1-3.8,1-4,3.5
			c-0.1,1.7-0.6,3.3-1.8,4.6C399.1,671.5,398.9,674.2,398.8,676.8z"/>
		<path fill="#D0C9AD" d="M310,173.9c8.2,8.3,16.3,16.7,24.6,24.9c29.9,29.7,59.8,59.4,89.7,89.1c1.3,1.3,2.5,2.7,3.7,4.1
			c-1.5,1.5-3.5,0.9-5.2,0.9c-36,0-72-0.1-108,0.1c-4.7,0-5.9-1.4-5.8-5.9c0.2-36,0.1-72,0.1-108C309,177.3,308.4,175.4,310,173.9z"
			/>
		<path fill="#D0C9AD" d="M236,420.9c35,0,70,0,105,0c5.9,0,9,2,10,6.3c1.4,6.4-2.1,10.6-8.9,10.7c-19.2,0.1-38.3,0-57.5,0
			c-51.2,0-102.3,0-153.5,0c-7.3,0-10.5-2.9-10.1-9.2c0.3-5.2,3.5-7.8,9.5-7.8c23.7,0,47.3,0,71,0C213,420.9,224.5,420.9,236,420.9z
			"/>
		<path fill="#D1CAAE" d="M236,352.8c35,0,70,0,105,0c6.9,0,9.9,2.3,10.1,7.5c0.2,5.5-3.5,9.1-9.8,9.5c-1,0.1-2,0-3,0
			c-68.1,0-136.3,0-204.4,0c-1.8,0-3.7,0-5.5-0.4c-5.4-1.2-8-4.9-7.4-10.1c0.5-4.1,3.7-6.5,9-6.5C165.3,352.8,200.7,352.8,236,352.8
			z"/>
		<path fill="#D0C9AD" d="M320.3,489.1c-11.7,2.2-23.4,4.7-35.2,6.3c-5.3,0.7-6.7,2.8-6.1,7.6c0.1,1-0.1,2-0.2,3
			c-49.5,0-98.9,0-148.4,0c-6.5,0-9.5-2.6-9.5-8.1c0-4.5,2.3-7,6.6-8c3.1-0.7,6.2-0.9,9.4-0.9c60.1,0,120.2,0,180.3,0
			C318.3,488.9,319.3,489,320.3,489.1z"/>
		<path fill="#D0C9AD" d="M278.8,557.8c0,5.7,0,11.4,0,17.1c-48.9,0-97.9,0-146.8,0c-7.9,0-11.1-2.6-11.1-8.9c0-4.4,2.7-7.5,7.1-8.1
			c1.6-0.2,3.3-0.1,5-0.1C181.6,557.9,230.2,557.9,278.8,557.8z"/>
		<path fill="#D0C9AE" d="M171.5,300.9c-13.6,0-27.3,0-40.9,0c-6.6,0-9.5-2.5-9.6-8c0-5.8,3.1-8.9,9.6-9c16.5-0.1,33,0,49.4,0
			c11.2,0,22.3-0.1,33.5,0c6.2,0.1,10.4,4.6,9.5,10.1c-0.7,4.3-3.8,6.8-9,6.8C199.8,300.9,185.6,300.9,171.5,300.9z"/>
		<path fill="#EEEAD9" d="M399.2,668.9c-0.7-9.9-0.7-9.9,9.1-9.9c21.6,0,43.1,0,64.7,0c-1.6,1.3-3.5,0.8-5.3,0.8
			c-11.3,0-22.6,0.1-33.9,0c-3.2,0-5.3,0.6-4.7,4.4c0.6,3.8-1.2,4.8-4.9,4.7C415.8,668.7,407.5,668.9,399.2,668.9z"/>
		<path fill="#FEFEFE" d="M475.1,577.4c0,23.2-0.2,46.3,0.1,69.5c0.1,4.6-1.4,5.4-5.5,5.3c-22.2-0.2-44.3-0.2-66.5,0
			c-3.1,0-4.5-0.6-4.2-4.1c0.4-4.6-1.4-10.7,0.9-13.5c2.4-3,8.7-0.9,13.3-0.9c13.8-0.1,27.7-0.2,41.5,0.1c4.3,0.1,4.4-1.7,4.4-5
			c0-3.2-0.4-4.7-4.2-4.6c-17.2,0.2-34.3-0.1-51.5,0.2c-6,0.1-4-3.6-4.3-6.5c-0.4-3.3-0.1-5.4,4.5-5.3c17,0.3,34,0,51,0.2
			c4,0.1,4.5-1.3,4.6-4.8c0-3.7-0.8-4.8-4.7-4.8c-17,0.2-34-0.2-51,0.2c-5.8,0.1-4.2-3.4-4.4-6.4c-0.2-3.2-0.4-5.5,4.4-5.4
			c16.8,0.3,33.7,0.1,50.5,0.2c3.5,0,5.4-0.2,5.3-4.6c-0.1-4-1.2-4.9-5-4.9c-16.8,0.2-33.7-0.2-50.5,0.2c-6.2,0.2-4.3-3.6-4.6-6.7
			c-0.4-3.6,0.4-5.2,4.7-5.1c17,0.3,34,0,51,0.2c4.2,0.1,4.3-1.7,4.4-5c0.1-3.4-0.7-4.5-4.3-4.5c-17,0.2-34,0-51,0.2
			c-3.5,0-5.4-0.6-4.7-4.6c0.2-1.1,0.2-2.4,0-3.5c-0.5-3.2,1-3.8,3.9-3.8c17.2,0.1,34.3-0.1,51.5,0.2c3.8,0,4.7-0.9,4.7-4.7
			c-0.1-3.5-0.6-4.8-4.6-4.8c-17,0.2-34-0.2-51,0.2c-6.3,0.2-4.1-3.8-4.5-6.8c-0.5-3.5,0.3-5.2,4.6-5.2c17,0.3,34,0,51,0.2
			c4.2,0.1,4.4-1.6,4.4-4.9c0-3.3-0.6-4.6-4.3-4.5c-17.2,0.2-34.3,0-51.5,0.2c-3.6,0-4.4-1-4.4-4.5c0.1-11.9,0-11.9,11.8-11.9
			c20,0,40,0.1,60-0.1c3.6,0,4.4,1,4.4,4.5C475,531.1,475.1,554.2,475.1,577.4z"/>
		<path fill="#FEFEFE" d="M316.5,586.6c2.1-2.1,2-4.2,2.4-6c2.4-10.6,4.8-21.1,6.8-31.7c0.7-3.5,2-4.7,5.4-4.8
			c8.6-0.3,8.6-0.5,10.3,7.8c2.3,11.1,4.5,22.2,6.7,33.3c0.3,1.3,0.7,2.5,1.3,4.8c2.6-15,5.2-28.8,7.3-42.7c0.6-3.7,1.8-5,5.5-5.1
			c9.3-0.4,9.2-0.6,7.1,8.7c-4.1,18-8.4,36-12.2,54c-1,4.5-3.1,5.8-7.2,5.2c-1.3-0.2-2.7-0.3-4-0.3c-3.2,0.2-4.5-1-5.1-4.4
			c-2.5-13.4-5.5-26.7-8.5-40.8c-2.9,13.4-5.8,26-8.2,38.7c-0.8,4.2-2.5,5.3-6.2,4.6c-0.2,0-0.3,0-0.5,0c-7.6-0.3-7.7-0.3-9.1-7.5
			c-3.3-16.8-6.5-33.6-10-50.4c-0.7-3.3,0.1-4,3.3-4c8-0.2,8-0.3,9.3,7.8C312.8,564.5,314.6,575.2,316.5,586.6z"/>
	</g>
</g>
</svg>
