<?xml version="1.0" encoding="utf-8"?>
<!-- Generator: Adobe Illustrator 18.1.1, SVG Export Plug-In . SVG Version: 6.00 Build 0)  -->
<svg version="1.1" id="Слой_1" xmlns="http://www.w3.org/2000/svg" xmlns:xlink="http://www.w3.org/1999/xlink" x="0px" y="0px"
	 viewBox="0 0 595.3 841.9" enable-background="new 0 0 595.3 841.9" xml:space="preserve">
<g>
	<g>
		<path fill="#EEEAD9" d="M43,668.9c0-165.3,0-330.7,0-496c2.8-2.6,6.2-2,9.5-2c49.1,0,98.2,0,147.3,0c33.8,0,67.6,0,101.3,0
			c3.2,0,6.8-0.8,9.3,2.4c1.3,15.1,0.5,30.2,0.6,45.4c0.1,21.3,0,42.6,0,63.9c0,8.4,0,8.4,8.6,8.4c32.9,0,65.9,0,98.8,0
			c3.3,0,6.6,0.1,9.9,0.5c2.3,1.2,2.4,3.5,2.5,5.6c0.2,2.3,0.1,4.7,0.1,7c0,59.6,0,119.2,0,178.8c0,2,0,4,0,6c0.1,5.5,0.5,6,6,6
			c10.7,0.1,21.3,0,32,0.1c2.6,0,5.4-0.4,7.2,2.4c-1.1,2.5-3.5,2.3-5.6,2.3c-21.8,0.1-43.7,0.2-65.5,0c-5.7-0.1-7.3-1.9-7.2-7.2
			c0.4-11.8,1.2-12.9-13.6-11.2c-12.7,1.4-25.3,4.3-37.9,6.4c-6.9,1.1-13.7,3-20.7,3c-9-0.8-18,0.3-26.9,0.3
			c-53.1,0-106.2,0-159.3,0c-3.8,0-7.7-0.1-11.4,1.1c-3.2,1-5.2,3.1-4.8,6.6c0.4,3.6,2.8,5.1,6.1,5.3c2.3,0.1,4.7,0.1,7,0.1
			c44.4,0,88.9,0,133.3,0c3.3,0,6.7-0.6,9.6,1.7c1.2,1.5,1.5,3.3,1.5,5.2c0.1,14,0.1,28,0,42c0,1.8-0.3,3.7-1.4,5.2
			c-2.8,2.4-6.3,1.8-9.6,1.8c-44.6,0-89.3,0-133.9,0c-2.5,0-5-0.2-7.5,0.3c-3,0.6-5.3,2.1-5.4,5.6c-0.2,3.5,1.4,5.7,4.8,6.7
			c2.8,0.8,5.6,0.6,8.4,0.6c44.5,0,88.9,0,133.4,0c3.1,0,6.4-0.5,9.2,1.4c2.3,2.5,1.9,5.6,1.9,8.5c0.1,22.7,0,45.3,0,68
			c0,7.8,0.1,7.8,7.8,9.1c10.5,1.7,21,3.7,31.5,5.5c2.1,0.4,5.7-0.3,5.5,3.9c-2.1,1.7-4.7,1.5-7.2,1.5c-89.3,0-178.7,0-268,0
			C47.9,670.9,45.1,671,43,668.9z"/>
		<path fill="#FEFEFE" d="M476,497.7c-1.7-1.4-3.8-0.9-5.8-0.9c-11.8-0.1-23.7-0.2-35.5,0.1c-4.7,0.1-5.8-1.3-5.8-5.9
			c0.1-64.3,0.1-128.6,0.1-192.9c0-2.1,0.8-4.4-1-6.2c-2.2-0.3-3.4-2-4.8-3.4c-36.6-35.9-73.2-71.8-109.2-108.2
			c-1.8-1.8-4.4-3.2-3.9-6.4c-1.8-1.7-4.1-1-6.2-1c-86.9,0-173.9,0-260.8,0c0-7,0-7,7-7c166.8,0,333.5,0,500.3-0.1
			c4.1,0,4.8,0.9,4.8,4.9c-0.1,167.6-0.1,335.2,0,502.8c0,3.9-1,4.5-4.7,4.5c-50.1-0.1-100.3-0.1-150.4-0.1
			c-3.4-6.9-1.4-10.5,6-10.8c5.4-0.2,10.9-0.1,16.3-0.1c2.9,0,4.7-0.9,4.9-4.1c0.2-2.6,1.1-4.8,3.7-6c3.2-1.2,6.6-0.9,9.9-0.9
			c9.3,0,18.6,0,28,0c10.9,0,12.2-1.4,12.3-12.5c0.1-8.3,0-16.6,0-25c0-34.1,0-68.2,0-102.4C481.1,509.5,481.7,502.8,476,497.7z"/>
		<path fill="#007340" d="M476,497.7c4.9,0.7,6.5,4,6.9,8.4c0.2,2,0.1,4,0.1,6c0,43.8,0,87.5,0,131.3c0,13.1-1.5,14.5-14.6,14.5
			c-12.5,0-25,0.1-37.4,0.1c-6.3,2.8-13.1,1.5-19.6,1.7c-9.6,0.2-11.2,1.6-11.9,11.3c-0.2,2.3,0.5,4.6-0.5,6.8c-7,0-14,0-21,0
			c-15-1.2-29.7-3.8-44.5-6.5c-2.5-0.5-5.4-0.3-7.2-2.7c-14.4-2.6-28.7-5.3-43.2-7.7c-3.4-0.6-4.2-1.8-4.2-5.1c0.1-27,0-54-0.1-81
			c-2.7-5.7-2.7-11.4,0-17.1c0-17.3,0-34.6,0-51.9c-2.9-6.3-1.3-9.8,5.5-11.2c13.8-2.8,27.7-4.9,41.8-5.8c17-2.9,34-5.6,51-8.7
			c6.4-1.2,12.8-1.4,19.3-1.4c2.4,0,3.2,0.8,3.1,3.2c-0.1,3.8,0.2,7.7-0.1,11.5c-0.3,3.4,1.1,4.2,4.2,4.2c19.9-0.1,39.9-0.1,59.8,0
			C467.7,497.6,471.8,497.7,476,497.7z"/>
		<path fill="#FEFEFE" d="M326.3,668.7c17.3,2.6,34.6,5.4,51.7,9.2c-109.5,0-219,0-328.5,0c-6.5,0-6.5,0-6.5-6.5c0-0.8,0-1.7,0-2.5
			c92.9,0,185.9,0,278.8,0C323.3,668.9,324.8,668.8,326.3,668.7z"/>
		<path fill="#ECE9D8" d="M399,677.9c0.2-5.5,0.5-10.9,0.5-16.4c0-2.7,0.8-3.7,3.6-3.7c9.3,0.2,18.6,0.2,27.9,0.2
			c-2.4,1.5-2.1,4-1.9,6.3c0.3,3.4-0.9,4.8-4.5,4.6c-6.1-0.2-12.3,0.3-18.5-0.2c-4.9-0.3-6.7,1.3-6,6.1c0.2,1-0.1,2-0.1,3
			C399.7,677.9,399.3,677.9,399,677.9z"/>
		<path fill="#D0C9AD" d="M310,173.9c7.8,7.9,15.6,16,23.5,23.8c30.1,30,60.3,59.9,90.4,89.8c1.4,1.4,2.7,2.9,4,4.4
			c-1.5,1.5-3.5,0.9-5.2,0.9c-36,0-72-0.1-108,0.1c-4.7,0-5.9-1.3-5.8-5.9c0.2-36,0.1-72,0.1-108C309,177.3,308.4,175.4,310,173.9z"
			/>
		<path fill="#D0C9AD" d="M235.7,437.9c-35,0-70,0-105,0c-7.1,0-10.3-3.2-9.7-9.5c0.4-4.2,2.8-6.6,6.9-7.4c1.1-0.2,2.3-0.1,3.5-0.1
			c69.8,0,139.6,0,209.4,0c7.2,0,10.3,2.8,10.3,9.2c0,4.8-2.9,6.8-6.9,7.7c-1.6,0.3-3.3,0.1-5,0.1
			C304.6,437.9,270.1,437.9,235.7,437.9z"/>
		<path fill="#D1CAAE" d="M236.3,352.8c34.8,0,69.6,0,104.5,0c7.2,0,10.2,2.3,10.3,7.8c0.1,5.4-3.7,8.9-10.1,9.2c-1,0.1-2,0-3,0
			c-68,0-135.9,0-203.9,0c-2.5,0-5,0.1-7.4-0.9c-4.3-1.7-6.5-5.3-5.6-9.9c0.9-4.3,3.8-6.3,8.3-6.3
			C165,352.9,200.6,352.8,236.3,352.8z"/>
		<path fill="#D0C9AD" d="M326.1,489c-13.8,2.5-27.5,5.3-41.3,7.3c-4.9,0.7-6.6,2.5-5.8,7.2c0.1,0.8-0.1,1.6-0.2,2.5
			c-49.7,0-99.3,0-149,0c-5.3,0-8.4-2.5-8.8-6.7c-0.5-5.5,1.8-8.2,7.7-9.5c2.6-0.6,5.3-0.7,7.9-0.7c59.5,0,119,0,178.5,0
			C318.8,488.9,322.4,489,326.1,489z"/>
		<path fill="#D0C9AD" d="M278.8,557.8c0,5.7,0,11.4,0,17.1c-48.9,0-97.9,0-146.8,0c-7.9,0-11.1-2.6-11.1-8.9c0-4.4,2.7-7.5,7.1-8.1
			c1.6-0.2,3.3-0.1,5-0.1C181.6,557.9,230.2,557.9,278.8,557.8z"/>
		<path fill="#D0C9AE" d="M171,300.9c-13.5,0-27,0-40.5,0c-6.6,0-9.5-2.5-9.6-8c0-5.8,3.1-8.9,9.6-9c16.5-0.1,33,0,49.4,0
			c11.2,0,22.3-0.1,33.5,0c6.2,0.1,10.4,4.6,9.5,10.1c-0.7,4.3-3.8,6.8-9,6.8C199.6,300.9,185.3,300.9,171,300.9z"/>
		<path fill="#FEFEFE" d="M476,577.9c0,22.7-0.1,45.3,0.1,68c0,3.7-0.5,5.1-4.8,5.1c-22.5-0.2-45-0.2-67.5,0c-3.6,0-4.5-1-4.4-4.5
			c0.2-9.5,0-9.5,9.8-9.5c8.9,0,8.9,0,8.9-8.7c0-7.5,0-7.5-7.6-7.5c-2,0-4-0.2-6,0.1c-4.5,0.7-5.1-1.4-5.1-5.3
			c0-3.4,1.1-4.4,4.3-4.2c3.7,0.2,7.3-0.1,11,0.1c2.5,0.1,3.4-0.6,3.5-3.3c0.5-13.1,0.5-13.3-12.7-13c-4.6,0.1-6.7-0.7-6.1-5.8
			c0.3-3,1.3-3.6,3.9-3.4c4,0.2,8-0.1,12,0.1c2.2,0.1,3.1-0.7,2.8-2.9c0-0.2,0-0.3,0-0.5c0.5-12.9,0.5-13.1-12.7-12.9
			c-4.1,0.1-6.5-0.4-6-5.5c0.3-3.3,1.2-4.3,4.4-4.1c3.8,0.3,7.7,0,11.5,0.1c2.1,0.1,3.1-0.6,2.8-2.8c0-0.2,0-0.3,0-0.5
			c0.6-12.9,0.6-12.9-12.7-13c-2.9,0-6.3,1.2-6.1-4.3c0.2-3.8,0.9-5.4,5-4.9c3.3,0.4,6.7-0.1,10,0.1c3.2,0.3,3.8-1.1,3.8-4
			c0.1-12.4,0.2-12.4-12.3-12.4c-7.2,0-6.3,0.8-6.3-6.4c0-7.5,0-7.5,7.7-7.5c21.3,0,42.7,0.1,64-0.1c4,0,4.8,1.2,4.8,5
			C475.9,532.2,476,555.1,476,577.9z"/>
		<path fill="#FEFEFE" d="M336.1,568c3.5-8.5,6.9-16.3,10-24.3c1-2.6,2.3-4,5.4-3.9c3.6,0.1,7.3-0.3,11.3-0.5
			c-0.6,3.5-2.5,6.2-3.9,9c-4.1,8.5-8.3,17-12.6,25.4c-1.3,2.5-1.3,4.4,0,6.9c5.9,11.5,11.5,23.1,17.2,34.6
			c-0.6,0.4-0.8,0.6-1.1,0.6c-11.1,1.7-18.1-2.3-20.8-13.8c-1.2-5.1-3.8-9.9-6-15.3c-3.2,7.5-6.6,14.6-9.2,21.9
			c-1.5,4.1-3.6,5.1-7.7,4.8c-9.6-0.6-9.6-0.5-5.4-8.8c4-7.9,7.9-15.7,12.1-23.5c1.3-2.5,1.3-4.4,0.1-6.9
			c-4.6-9.6-8.9-19.3-13.4-28.9c-1.3-2.7-0.7-3.3,2.1-3.5c11.6-1,11.6-1,15.8,9.9C332,557.1,333.9,562.4,336.1,568z"/>
		<path fill="#017341" d="M443.6,518.4c4.3,0,8.6,0.1,13,0c2.5-0.1,3.4,0.7,3.5,3.4c0.4,13.1,0.5,13.1-12.7,13.1
			c-5.7,0-11.3-0.1-16.9,0c-2.4,0.1-3.1-0.8-3.2-3.1c-0.8-13.3-0.9-13.3,12.4-13.3C440.9,518.4,442.3,518.4,443.6,518.4z"/>
		<path fill="#007240" d="M444,543.9c4,0,8,0.1,11.9-0.1c2.9-0.1,4,0.5,4.1,3.7c0.1,12.5,0.3,12.5-12.1,12.5
			c-5.8,0-11.7,0.8-17.4-0.2c-7.4-1.3-1.7-7.5-3.1-11.3c-0.8-2-1.1-5.1,3.2-4.8C435,544.1,439.5,543.9,444,543.9z"/>
		<path fill="#007340" d="M443.5,569.6c4.5,0,9,0.1,13.5,0c2.1,0,3.2,0.6,2.9,2.8c0,0.2,0,0.3,0,0.5c0.6,12.9,0.6,12.9-12.3,12.9
			c-5.7,0-11.3-0.1-17,0c-2.6,0.1-3.4-0.8-3.5-3.4c-0.5-12.9-0.6-12.9,12.4-12.9C440.9,569.6,442.2,569.6,443.5,569.6z"/>
		<path fill="#007340" d="M443.5,595c4.3,0,8.6,0.1,12.9,0c2.5-0.1,3.4,0.6,3.5,3.3c0.5,13.1,0.6,13.1-12.1,13.1
			c-5.8,0-11.8,0.8-17.4-0.2c-7.3-1.3-1.7-7.6-3.1-11.4c-0.7-2-1-5.1,3.2-4.9C434.9,595.2,439.2,594.9,443.5,595z"/>
		<path fill="#007341" d="M443.1,636.9c-4,0-8-0.2-11.9,0.1c-2.9,0.1-4-0.5-4.1-3.7c-0.2-12.5-0.3-12.5,12.2-12.5
			c5.8,0,11.7-0.7,17.4,0.2c7.3,1.1,1.8,7.2,3.1,10.8c0.7,1.9,1.6,5.6-3.2,5.3C452.1,636.7,447.6,636.9,443.1,636.9z"/>
	</g>
</g>
</svg>
