<?xml version="1.0" encoding="iso-8859-1"?>
<!-- Generator: Adobe Illustrator 17.1.0, SVG Export Plug-In . SVG Version: 6.00 Build 0)  -->
<!DOCTYPE svg PUBLIC "-//W3C//DTD SVG 1.1//EN" "http://www.w3.org/Graphics/SVG/1.1/DTD/svg11.dtd">
<svg xmlns="http://www.w3.org/2000/svg" xmlns:xlink="http://www.w3.org/1999/xlink" version="1.1" id="Capa_1" x="0px" y="0px" viewBox="0 0 297 297" style="enable-background:new 0 0 297 297;" xml:space="preserve" width="512px" height="512px">
<g>
	<path d="M165.333,115c0-3.117-0.428-6.133-1.213-9H297V90H154.369C149.788,85.777,144,82.802,137,81.6c0-4.327,0-7.35,0-7.355   v-0.211c0-0.17,0.333-0.218,0.329-0.386C137.06,64.354,129.753,57,120.396,57H50v27.998C39,90.722,32.166,102.008,32.166,115   c0,0.129,0.093,0.255,0.094,0.384c2.076-0.244,4.267-0.384,6.406-0.384H165.333z" fill="#FFFFFF"/>
	<path d="M264,207.75v-0.273c18-2.979,32-18.555,32-37.566v-0.332C296,148.406,279.171,131,258,131H38.666   C17.495,131,0,148.406,0,169.578v0.332c0,19.012,14,34.587,32,37.566v0.273c0,5.907,1.762,11.439,4.535,16.201   C42.123,233.546,52.679,240,64.583,240h167.5c11.904,0,22.127-6.454,27.715-16.049C262.571,219.189,264,213.657,264,207.75z    M175.433,223.25c-8.979,0-16.256-7.277-16.256-16.256c0-8.979,7.277-16.256,16.256-16.256c8.979,0,16.26,7.277,16.26,16.256   C191.692,215.973,184.412,223.25,175.433,223.25z M104.177,206.994c0-8.979,7.277-16.256,16.256-16.256   c8.979,0,16.26,7.277,16.26,16.256c0,8.979-7.28,16.256-16.26,16.256C111.454,223.25,104.177,215.973,104.177,206.994z    M49.177,206.994c0-8.979,7.277-16.256,16.256-16.256c8.979,0,16.26,7.277,16.26,16.256c0,8.979-7.28,16.256-16.26,16.256   C56.454,223.25,49.177,215.973,49.177,206.994z M230.433,223.25c-8.979,0-16.256-7.277-16.256-16.256   c0-8.979,7.277-16.256,16.256-16.256c8.979,0,16.26,7.277,16.26,16.256C246.692,215.973,239.412,223.25,230.433,223.25z" fill="#FFFFFF"/>
</g>
<g>
</g>
<g>
</g>
<g>
</g>
<g>
</g>
<g>
</g>
<g>
</g>
<g>
</g>
<g>
</g>
<g>
</g>
<g>
</g>
<g>
</g>
<g>
</g>
<g>
</g>
<g>
</g>
<g>
</g>
</svg>
