<?xml version="1.0" encoding="iso-8859-1"?>
<!-- Generator: Adobe Illustrator 18.1.1, SVG Export Plug-In . SVG Version: 6.00 Build 0)  -->
<svg xmlns="http://www.w3.org/2000/svg" xmlns:xlink="http://www.w3.org/1999/xlink" version="1.1" id="Capa_1" x="0px" y="0px" viewBox="0 0 431.416 431.416" style="enable-background:new 0 0 431.416 431.416;" xml:space="preserve" width="512px" height="512px">
<g>
	<g>
		<path d="M132.772,431.416l5.308-82.139c85.033,49.422,195.826,37.757,268.649-35.075l-10.99-10.99    c-0.569,0.195-1.138,0.293-1.707,0.48l-51.291-198.914c9.836-5.503,16.566-15.899,16.566-27.97    c0-17.769-14.404-32.173-32.173-32.173c-12.12,0-22.549,6.779-28.035,16.68L101.607,11.242c0.179-0.561,0.285-1.122,0.471-1.683    L92.519,0C7.121,85.383,5.836,222.959,88.52,309.999L24.686,431.416H132.772z M378.247,307.577    c-59.144,10.51-119.23-26.166-177.235-81.652L319.087,107.85c2.552,0.658,5.186,1.122,7.95,1.13L378.247,307.577z M294.986,77.043    c0.016,2.715,0.463,5.3,1.114,7.812L178.04,202.914C123.278,145.323,87.285,85.716,97.73,27.028L294.986,77.043z" fill="#FFFFFF"/>
	</g>
</g>
<g>
</g>
<g>
</g>
<g>
</g>
<g>
</g>
<g>
</g>
<g>
</g>
<g>
</g>
<g>
</g>
<g>
</g>
<g>
</g>
<g>
</g>
<g>
</g>
<g>
</g>
<g>
</g>
<g>
</g>
</svg>
