<?xml version="1.0" encoding="iso-8859-1"?>
<!DOCTYPE svg PUBLIC "-//W3C//DTD SVG 1.1//EN" "http://www.w3.org/Graphics/SVG/1.1/DTD/svg11.dtd">
<svg xmlns="http://www.w3.org/2000/svg" xmlns:xlink="http://www.w3.org/1999/xlink" version="1.1" viewBox="0 0 295.771 295.771" enable-background="new 0 0 295.771 295.771" width="512px" height="512px">
  <g>
    <path d="m257.764,239.071c-0.888-4.686-3.166-8.996-6.538-12.368l-24.592-24.592c-0.88,1.871-1.804,3.714-2.786,5.518-7.652,14.052-19.286,28.536-31.951,39.791l19.306,19.306c3.372,3.372 7.682,5.651 12.368,6.538l36.641,6.94c1.249,0.237 2.535-0.16 3.434-1.059 0.899-0.899 1.296-2.185 1.059-3.434l-6.941-36.64z" fill="#FFFFFF"/>
    <path d="m48.13,144.555l5.6-5.6c-1.401-11.826-2.394-23.133-3.589-33.25-0.074-0.625-0.114-1.248-0.139-1.871l-24.648,11.522c-8.353,3.905-10.307,14.947-3.777,21.477l7.722,7.722c5.2,5.2 13.631,5.2 18.831-2.84217e-14z" fill="#FFFFFF"/>
    <path d="m34.78,74.817c10.283,10.283 10.995,10.995 17.577,17.576 1.37-2.869 3.298-5.484 5.735-7.657 4.454-3.972 10.193-6.16 16.16-6.159 6.309,0 17.341,5.135 39.739,0.118l15.065-15.065c5.2-5.2 5.2-13.631 0-18.83l-7.723-7.722c-6.514-6.515-17.558-4.607-21.477,3.777l-15.917,34.047c-13.684-13.684-10.738-10.738-24.622-24.622 1.525-9.186-1.247-18.946-8.334-26.033-11.663-11.663-30.573-11.663-42.236,0-11.663,11.663-11.663,30.573 0,42.236 7.087,7.086 16.847,9.858 26.033,8.334z" fill="#FFFFFF"/>
    <path d="m71.923,207.629c-0.982-1.804-1.906-3.647-2.786-5.518l-24.592,24.592c-3.372,3.372-5.651,7.682-6.538,12.368l-6.94,36.641c-0.237,1.249 0.16,2.535 1.059,3.434 0.899,0.899 2.184,1.295 3.433,1.059l36.641-6.94c4.686-0.888 8.996-3.166 12.368-6.538l19.306-19.306c-12.664-11.256-24.299-25.739-31.951-39.792z" fill="#FFFFFF"/>
    <path d="m270.418,115.356l-24.648-11.522c-0.025,0.623-0.065,1.247-0.139,1.872-1.196,10.12-2.187,21.422-3.589,33.249l5.6,5.6c5.2,5.2 13.63,5.2 18.83,0l7.723-7.722c6.519-6.52 4.59-17.566-3.777-21.477z" fill="#FFFFFF"/>
    <path d="m287.024,24.247c-11.663-11.663-30.573-11.663-42.236,0-7.086,7.086-9.859,16.847-8.334,26.032-13.885,13.885-10.939,10.939-24.622,24.623l-15.916-34.049c-3.924-8.395-14.971-10.283-21.477-3.777l-7.722,7.722c-5.2,5.2-5.2,13.631 0,18.83l15.065,15.065c22.177,4.968 33.168-0.118 39.737-0.118 5.967,0 11.707,2.188 16.161,6.16 2.437,2.173 4.365,4.788 5.735,7.657 6.612-6.612 7.22-7.22 17.577-17.577 9.186,1.525 18.946-1.247 26.033-8.334 11.662-11.661 11.662-30.571-0.001-42.234z" fill="#FFFFFF"/>
    <path d="m226.853,103.487c0.206-1.741-0.451-3.472-1.759-4.638-1.313-1.171-3.11-1.621-4.809-1.22-22.178,5.242-51.859,0.435-69.407-11.332-0.905-0.607-1.948-0.91-2.992-0.91-1.044,0-2.087,0.303-2.992,0.91-17.56,11.775-47.249,16.569-69.407,11.332-1.702-0.402-3.499,0.049-4.81,1.218-1.308,1.167-1.964,2.899-1.759,4.64 3.549,30.038 5.187,68.611 19.611,95.1 13.561,24.906 41.652,51.117 59.357,51.117 17.705,0 45.795-26.212 59.356-51.117 14.424-26.49 16.062-65.063 19.611-95.1z" fill="#FFFFFF"/>
  </g>
</svg>
