<?xml version="1.0" encoding="iso-8859-1"?>
<svg xmlns="http://www.w3.org/2000/svg" xmlns:xlink="http://www.w3.org/1999/xlink" version="1.1" viewBox="0 0 249.235 249.235" enable-background="new 0 0 249.235 249.235" width="512px" height="512px">
  <g>
    <path d="m246.813,116.539c3.718-4.053 3.102-9.869-1.472-12.926l-112.328-75.076c-4.574-3.055-12.037-3.057-16.611-0.002l-112.357,75.02c-4.574,3.055-5.438,8.871-1.722,12.926l23.083,25.369v33.174c-4,0.838-8,4.933-8,9.834v13c0,5.5 4.476,10.664 9.917,11.475l87.411,13.049c5.44,0.813 14.351,0.813 19.792,0l87.261-13.049c5.44-0.811 9.62-5.975 9.62-11.475v-13c0-4.9-3-8.996-8-9.834v-33.152l23.406-25.333zm-205.407,58.078v-16h165v16h-165zm50-90.748c0,0 5.412-0.068 6.744-0.068 11.623,0 25.506-15.193 26.506-16.797 1,1.604 14.675,16.797 26.298,16.797 1.332,0 6.452,0.068 6.452,0.068v25.379c0,2.088-0.526,4.135-1.295,6.123-1.037,2.684-2.733,5.258-4.743,7.68-2.459,2.963-5.543,5.645-8.603,8.121-7.025,5.686-18.047,10.686-18.047,10.686s-11.031-5-18.056-10.686c-3.06-2.477-6.201-5.158-8.659-8.121-2.011-2.422-3.944-4.996-4.981-7.68-0.77-1.988-1.616-4.035-1.616-6.123v-25.379z" fill="#FFFFFF"/>
  </g>
</svg>
