<?xml version="1.0" encoding="iso-8859-1"?>
<!-- Generator: Adobe Illustrator 16.0.0, SVG Export Plug-In . SVG Version: 6.00 Build 0)  -->
<!DOCTYPE svg PUBLIC "-//W3C//DTD SVG 1.1//EN" "http://www.w3.org/Graphics/SVG/1.1/DTD/svg11.dtd">
<svg xmlns="http://www.w3.org/2000/svg" xmlns:xlink="http://www.w3.org/1999/xlink" version="1.1" id="Capa_1" x="0px" y="0px" width="512px" height="512px" viewBox="0 0 947.5 947.5" style="enable-background:new 0 0 947.5 947.5;" xml:space="preserve">
<g>
	<path d="M737.8,194.5h50.701c11,0,20.299-9.2,20.299-20.3V60.9c0-11-9.299-20.4-20.299-20.4l0,0L737.3,40.7   c-5.1,0-10.1,1.1-14.799,2.9L624.8,82.7v69l98,39.8C727.501,193.4,732.601,194.5,737.8,194.5z" fill="#FFFFFF"/>
	<path d="M158.8,579.5h25c11,0,20-9,20-20v-183c0-101.7,73.4-186.6,170-204.5v35.1c-81.7,29.8-140,108.2-140,200.3v520   c0,11,8.8,20.1,19.9,20.1h386.199c11,0,19.9-9.1,19.9-20.1v-520c0-92.101-58.299-170.5-140-200.3v-53.6h66v-1.8v-69v-0.2H417.4   c0-0.3,0-0.6,0-0.9c0-45-36.6-81.6-81.6-81.6s-81.6,36.6-81.6,81.6c0,22.2,8.899,42.3,23.3,57.1c-21.3,12-41,27-58.8,44.8   c-51.6,51.6-80,120.1-80,193v183C138.8,570.5,147.8,579.5,158.8,579.5z M335.8,55c14.7,0,26.6,11.9,26.6,26.6   c0,14.7-11.899,26.6-26.6,26.6s-26.6-11.9-26.6-26.6C309.201,66.9,321.1,55,335.8,55z" fill="#FFFFFF"/>
</g>
<g>
</g>
<g>
</g>
<g>
</g>
<g>
</g>
<g>
</g>
<g>
</g>
<g>
</g>
<g>
</g>
<g>
</g>
<g>
</g>
<g>
</g>
<g>
</g>
<g>
</g>
<g>
</g>
<g>
</g>
</svg>
