<?xml version="1.0" encoding="iso-8859-1"?>
<!DOCTYPE svg PUBLIC "-//W3C//DTD SVG 1.1//EN" "http://www.w3.org/Graphics/SVG/1.1/DTD/svg11.dtd">
<svg xmlns="http://www.w3.org/2000/svg" xmlns:xlink="http://www.w3.org/1999/xlink" version="1.1" viewBox="0 0 300.018 300.018" enable-background="new 0 0 300.018 300.018" width="512px" height="512px">
  <g>
    <path d="m298.231,112.039c-1.222-1.228-2.906-1.881-4.636-1.795-19.31,0.952-38.47-4.649-50.286-9.064-0.823,16.888-1.659,33.678-2.339,42.253-1.527,19.276-13.529,40.283-35.673,62.439-5.632,5.635-11.413,10.84-16.945,15.511 14.585,15.844 32.337,28.686 39.702,33.737 2.084,1.429 4.833,1.43 6.917,0.001 13.111-8.99 59.137-42.673 61.621-74.024 0.965-12.183 2.326-44.579 3.416-64.41 0.095-1.731-0.554-3.421-1.777-4.648z" fill="#FFFFFF"/>
    <path d="m59.047,143.432c-0.679-8.575-1.515-25.364-2.339-42.253-11.817,4.415-30.976,10.016-50.286,9.064-1.73-0.085-3.414,0.568-4.636,1.795-1.222,1.228-1.872,2.917-1.777,4.647 1.09,19.831 2.451,52.228 3.416,64.41 2.484,31.352 48.51,65.034 61.621,74.024 2.084,1.429 4.833,1.428 6.917-0.001 7.366-5.051 25.117-17.893 39.702-33.737-5.532-4.67-11.313-9.875-16.944-15.51-22.144-22.155-34.147-43.163-35.674-62.439z" fill="#FFFFFF"/>
    <path d="m226.017,142.248c1.127-14.228 2.717-52.066 3.99-75.227 0.111-2.022-0.641-3.995-2.07-5.43-1.345-1.351-3.17-2.103-5.067-2.103-0.118,0-0.236,0.003-0.354,0.009-1.715,0.084-3.43,0.125-5.139,0.125-28.463,0-55.626-11.17-64.417-15.157-0.938-0.425-1.945-0.638-2.953-0.638-1.007,0-2.013,0.212-2.949,0.637-8.787,3.986-35.956,15.158-64.419,15.158-1.711,0-3.422-0.04-5.139-0.125-0.117-0.006-0.235-0.009-0.352-0.009-1.896,0-3.719,0.755-5.063,2.106-1.426,1.433-2.185,3.406-2.074,5.426 1.273,23.161 2.862,60.999 3.99,75.227 2.901,36.617 56.657,75.955 71.969,86.455 1.217,0.834 2.628,1.252 4.039,1.252 1.412,0 2.823-0.417 4.04-1.252 15.313-10.501 69.067-49.839 71.968-86.454zm-41.111-18.877l-11.837,11.538c-2.066,2.014-3.008,4.915-2.521,7.758l2.794,16.292c0.205,1.196-0.286,2.404-1.268,3.117-0.981,0.713-2.283,0.807-3.356,0.242l-14.631-7.692c-2.553-1.342-5.604-1.342-8.157,0l-14.631,7.692c-1.074,0.564-2.375,0.471-3.356-0.242-0.981-0.713-1.473-1.922-1.268-3.117l2.794-16.292c0.488-2.843-0.455-5.745-2.521-7.758l-11.837-11.538c-0.869-0.847-1.181-2.113-0.806-3.267 0.375-1.154 1.372-1.995 2.573-2.169l16.358-2.377c2.855-0.415 5.323-2.208 6.6-4.795l7.316-14.823c0.537-1.088 1.645-1.776 2.858-1.776 1.213,0 2.321,0.689 2.858,1.776l7.316,14.823c1.277,2.587 3.745,4.38 6.6,4.795l16.358,2.377c1.201,0.174 2.198,1.015 2.573,2.169 0.373,1.154 0.06,2.421-0.809,3.267z" fill="#FFFFFF"/>
  </g>
</svg>
