<?xml version="1.0" encoding="iso-8859-1"?>
<!-- Generator: Adobe Illustrator 19.0.0, SVG Export Plug-In . SVG Version: 6.00 Build 0)  -->
<svg xmlns="http://www.w3.org/2000/svg" xmlns:xlink="http://www.w3.org/1999/xlink" version="1.1" id="Capa_1" x="0px" y="0px" viewBox="0 0 487.9 487.9" style="enable-background:new 0 0 487.9 487.9;" xml:space="preserve" width="512px" height="512px">
<g>
	<g>
		<path d="M227.754,358.7c5.7-3.6,11.1-6.8,16.1-9.8c1.6-1,3.3-2.1,4.9-3.1c-1-2.9-2-5.9-2.8-9c-7.6-10.1-11.5-21.8-13.6-28.8    c-9.2,6.7-19.2,13-30.3,18.9c-8.8,4-17.6,8-26.4,12c-2.4,0.8-4.8,2.4-8,3.2V195.4h-127.5c0-24,0-48.1,0-71.3V93.7    c42.5-4,83.3-20.8,127.4-50.5v152.2h81c4.1-6.5,9-12.8,14.7-18.7c6.8-7.2,14.5-13.6,22.9-19c7.9-5.4,16.3-9.7,25-12.6    c7.9-2.7,16.1-4.3,24.4-4.7c0.1,0,0.2,0,0.3,0V83.3c0-15.2-9.6-25.6-25.6-28l-6.4-0.8c-8.8-0.8-17.6-2.4-25.6-4    c-29.6-6.4-58.5-20-90.5-42.5c-5.6-4-11.2-8-19.2-8s-13.6,4-18.4,7.2c-43.5,29.6-82,44.8-121.2,47.3c-10.4,0.8-28,4.8-28,29.6    v40.1c0,27.2,0,53.7,0,80.9c-0.8,10.4,0.8,21.6,3.2,33.6c6.4,27.2,20,51.3,43.3,75.3c28.8,28.8,64.1,51.3,110.5,68.1    c3.2,0.8,6.4,1.6,9.6,1.6c4.8,0,8.8-0.8,12-2.4l12-4.8c9.6-4,19.2-8,28.8-13.6C222.954,361.5,225.254,360.1,227.754,358.7z" fill="#FFFFFF"/>
		<path d="M468.454,417.4c-34.9-27.1-70.1-44.8-77.6-48.5c-0.9-0.4-1.5-1.3-1.5-2.3c0-3.9,0-14.1,0-24.9c3.7-7.7,5.9-15.9,7.2-23.3    c3.3,2.3,8.9,1.1,15-20.5c5-17.5,1.9-23.4-2.3-24.9c13.9-66.7-17.9-68.9-17.9-68.9s-4.8-9.2-17.4-16.2c-8.5-5-20.3-8.9-35.8-7.6    c-5,0.2-9.8,1.2-14.3,2.7l0,0c-5.7,1.9-11,4.8-15.7,8c-5.8,3.7-11.3,8.2-16.2,13.4c-7.7,7.8-14.5,18-17.5,30.6    c-2.8,10.7-2.7,22.4,1.5,34.2c-5.7-0.5-12.5,2.8-6.1,25.3c4.6,16.4,9,21,12.2,21.3c1.5,9.4,4.4,19.9,10,29.3v21.5    c0,1-0.6,1.9-1.5,2.4c-7.5,3.7-42.7,21.5-77.6,48.5c-11.9,9.3-18.8,23.6-18.8,38.7v22.5c0,5.1,4.1,9.2,9.2,9.2h274.6    c5.1,0,9.2-4.1,9.2-9.2v-22.5C487.254,441.1,480.354,426.7,468.454,417.4z" fill="#FFFFFF"/>
	</g>
</g>
<g>
</g>
<g>
</g>
<g>
</g>
<g>
</g>
<g>
</g>
<g>
</g>
<g>
</g>
<g>
</g>
<g>
</g>
<g>
</g>
<g>
</g>
<g>
</g>
<g>
</g>
<g>
</g>
<g>
</g>
</svg>
