<?xml version="1.0" encoding="iso-8859-1"?>
<!-- Generator: Adobe Illustrator 16.0.0, SVG Export Plug-In . SVG Version: 6.00 Build 0)  -->
<!DOCTYPE svg PUBLIC "-//W3C//DTD SVG 1.1//EN" "http://www.w3.org/Graphics/SVG/1.1/DTD/svg11.dtd">
<svg xmlns="http://www.w3.org/2000/svg" xmlns:xlink="http://www.w3.org/1999/xlink" version="1.1" id="Capa_1" x="0px" y="0px" width="512px" height="512px" viewBox="0 0 946 946" style="enable-background:new 0 0 946 946;" xml:space="preserve">
<g>
	<g>
		<path d="M403.85,538.6v-21.1v-77.1h98.3v37.7c20.299-17.5,42.9-31.9,67.299-43v-400c0-19.4-15.699-35.1-35.1-35.1h-493    c-19.4,0-35.1,15.7-35.1,35.1v716.3c0,19.4,15.7,35.1,35.1,35.1h378c-10.5-30-15.9-61.4-15.9-93.6c0-4.801,0.101-9.6,0.4-14.4    V538.6z M502.15,379.1h-98.3v-98.3h98.3V379.1z M171.85,698.199h-98.3V599.9h98.3V698.199z M171.85,538.6h-98.3V440.3h98.3V538.6z     M171.85,379.1h-98.3v-98.3h98.3V379.1z M336.95,698.199h-98.3V599.9h98.3V698.199L336.95,698.199z M336.95,538.6h-98.3V440.3    h98.3V538.6L336.95,538.6z M336.95,379.1h-98.3v-98.3h98.3V379.1L336.95,379.1z M73.55,199.7v-127h428.6v127H73.55z" fill="#FFFFFF"/>
		<path d="M451.45,786.5C488.65,879.9,579.949,946,686.65,946c139.799,0,253.1-113.301,253.1-253.1    c0-139.801-113.301-253.201-253.1-253.201c-42.301,0-82.201,10.4-117.201,28.7c-25.199,13.2-48,30.5-67.299,51.1    c-42.5,45.301-68.6,106.199-68.6,173.301c0,1.799,0,3.5,0.1,5.299C434.25,729.301,440.45,759.1,451.45,786.5z M733.85,728.301    c-10.199-12.5-27.699-17.801-43.4-21.4c-19.5-4.4-37.1-8.9-54.699-18.701c-11.301-6.299-20.199-15.199-26.301-26.398    c-6.1-11.102-9.199-23.9-9.199-38c0-25.102,9-45.701,26.801-61.201c10.5-9.199,24.898-15.6,41.199-18.6v-13.699    c0-9.201,7.5-16.701,16.699-16.701h9.102c9.199,0,16.699,7.5,16.699,16.701V544.1c15.1,2.9,28.5,8.801,38.6,17.201    c10.701,8.898,18.5,20.1,23.301,33.5c3.6,9.898-2.9,20.5-13.301,22.1l-8.799,1.299c-8,1.201-15.701-3.5-18.301-11.199    c-2.1-6.199-5-11.4-8.5-15.4c-8-8.9-20.6-14.1-34.5-14.1c-14.801,0-28.801,5.801-37.5,15.5c-7.1,7.9-10.5,17.1-10.5,28    c0,10.699,3,19.699,8.9,26.801c12.299,14.799,32.5,18.898,52,22.799c11.4,2.301,23.199,4.701,33.4,9.201    c10.898,4.799,19.898,10.799,26.898,17.699c7,7,12.4,15.4,16.102,24.9c3.699,9.5,5.6,20,5.6,31c0,24.299-7.9,44.9-23.4,61.199    c-12.699,13.4-30.1,22.201-50,25.801v10.1c0,9.199-7.5,16.699-16.699,16.699h-9.102c-9.199,0-16.699-7.5-16.699-16.699v-10.4    c-11-2.1-21.5-5.6-30.9-10.5c-11.1-5.699-20.799-15-28.9-27.699c-5.398-8.4-9.199-18.201-11.6-29.201    c-2-9.199,4.201-18.299,13.5-19.898l9-1.602c8.6-1.5,16.9,3.9,19.1,12.4c2.602,10,6,17.801,10.301,23.301    c9.6,12.299,25.4,19.699,42.4,19.699l0,0c2.9,0,5.799-0.199,8.6-0.6c12.1-1.801,23-7.6,30.5-16.199c8-9.102,12-20.5,12-34    C742.15,744.301,739.35,735.1,733.85,728.301z" fill="#FFFFFF"/>
	</g>
</g>
<g>
</g>
<g>
</g>
<g>
</g>
<g>
</g>
<g>
</g>
<g>
</g>
<g>
</g>
<g>
</g>
<g>
</g>
<g>
</g>
<g>
</g>
<g>
</g>
<g>
</g>
<g>
</g>
<g>
</g>
</svg>
