<?xml version="1.0" encoding="iso-8859-1"?>
<!-- Generator: Adobe Illustrator 16.0.0, SVG Export Plug-In . SVG Version: 6.00 Build 0)  -->
<!DOCTYPE svg PUBLIC "-//W3C//DTD SVG 1.1//EN" "http://www.w3.org/Graphics/SVG/1.1/DTD/svg11.dtd">
<svg xmlns="http://www.w3.org/2000/svg" xmlns:xlink="http://www.w3.org/1999/xlink" version="1.1" id="Capa_1" x="0px" y="0px" width="512px" height="512px" viewBox="0 0 35.463 35.463" style="enable-background:new 0 0 35.463 35.463;" xml:space="preserve">
<g>
	<path d="M29.159,17.915l-1.293-1.294c4.226-4.227,4.225-11.102-0.002-15.328L29.159,0C34.099,4.938,34.099,12.977,29.159,17.915z    M25.628,14.384l1.293,1.296c3.706-3.707,3.706-9.738,0-13.443L25.628,3.53C28.62,6.521,28.62,11.393,25.628,14.384z M24.614,13.37   c2.434-2.433,2.434-6.394-0.001-8.826L23.32,5.837c1.722,1.722,1.722,4.521,0,6.239L24.614,13.37z M7.599,1.293L6.304,0   c-4.939,4.938-4.939,12.977,0,17.915l1.293-1.294C3.371,12.396,3.372,5.52,7.599,1.293z M8.54,15.68l1.294-1.296   c-2.992-2.991-2.992-7.86,0-10.854L8.54,2.236C4.833,5.941,4.833,11.973,8.54,15.68z M10.848,13.37l1.294-1.294   c-1.72-1.721-1.72-4.52,0.001-6.239l-1.294-1.293C8.415,6.979,8.415,10.938,10.848,13.37z M25.17,31.658h-4.449l-2.668-19.279   c1.243-0.16,2.207-1.21,2.207-2.497c0-1.396-1.133-2.528-2.529-2.528c-1.397,0-2.529,1.133-2.529,2.528   c0,1.287,0.964,2.337,2.206,2.497l-2.667,19.279h-4.449c-1.051,0-1.902,0.853-1.902,1.902c0,1.051,0.852,1.902,1.902,1.902h14.879   c1.051,0,1.902-0.854,1.902-1.902C27.073,32.511,26.222,31.658,25.17,31.658z" fill="#FFFFFF"/>
</g>
<g>
</g>
<g>
</g>
<g>
</g>
<g>
</g>
<g>
</g>
<g>
</g>
<g>
</g>
<g>
</g>
<g>
</g>
<g>
</g>
<g>
</g>
<g>
</g>
<g>
</g>
<g>
</g>
<g>
</g>
</svg>
