<?xml version="1.0" encoding="iso-8859-1"?>
<!-- Generator: Adobe Illustrator 16.0.0, SVG Export Plug-In . SVG Version: 6.00 Build 0)  -->
<!DOCTYPE svg PUBLIC "-//W3C//DTD SVG 1.1//EN" "http://www.w3.org/Graphics/SVG/1.1/DTD/svg11.dtd">
<svg xmlns="http://www.w3.org/2000/svg" xmlns:xlink="http://www.w3.org/1999/xlink" version="1.1" id="Capa_1" x="0px" y="0px" width="512px" height="512px" viewBox="0 0 470.223 470.223" style="enable-background:new 0 0 470.223 470.223;" xml:space="preserve">
<g>
	<path d="M25.804,222.216c0.421,0.421,1.09,0.995,1.979,1.693c23.141-61.286,78.04-116.94,78.04-116.94   c-25.819,30.944-39.158,97.174-44.838,134.037c25.742,8.625,61.229,10.738,92.374-20.693   c53.799-54.296-8.195-124.246,86.311-186.851c0,0-121.481-33.431-198.995,44.791C-36.849,156.483,19.034,215.503,25.804,222.216z" fill="#FFFFFF"/>
	<path d="M412.684,283.387c0,0,84.207-93.722,48.884-198.029C426.253-18.95,348.472,4.66,339.444,7.71   c-0.564,0.191-1.387,0.536-2.4,1.014c44.476,48.099,69.721,122.084,69.721,122.084c-16.142-36.931-69.414-78.47-99.852-100.033   c-19.221,19.173-36.979,49.974-22.778,91.886C308.653,195.059,398.933,170.865,412.684,283.387z" fill="#FFFFFF"/>
	<path d="M369.681,354.675c-7.535-26.076-25.972-56.476-69.538-64.23c-75.256-13.397-97.556,77.37-202.782,35.209   c0,0,41.549,118.947,149.969,138.255c108.419,19.307,125.211-60.226,126.885-69.605c0.104-0.594,0.2-1.464,0.268-2.592   c-63.571,15.797-140.568,2.267-140.568,2.267C274.046,397.63,336.116,370.96,369.681,354.675z" fill="#FFFFFF"/>
</g>
<g>
</g>
<g>
</g>
<g>
</g>
<g>
</g>
<g>
</g>
<g>
</g>
<g>
</g>
<g>
</g>
<g>
</g>
<g>
</g>
<g>
</g>
<g>
</g>
<g>
</g>
<g>
</g>
<g>
</g>
</svg>
