<?xml version="1.0" encoding="iso-8859-1"?>
<!-- Generator: Adobe Illustrator 16.0.0, SVG Export Plug-In . SVG Version: 6.00 Build 0)  -->
<!DOCTYPE svg PUBLIC "-//W3C//DTD SVG 1.1//EN" "http://www.w3.org/Graphics/SVG/1.1/DTD/svg11.dtd">
<svg xmlns="http://www.w3.org/2000/svg" xmlns:xlink="http://www.w3.org/1999/xlink" version="1.1" id="Capa_1" x="0px" y="0px" width="512px" height="512px" viewBox="0 0 498.881 498.881" style="enable-background:new 0 0 498.881 498.881;" xml:space="preserve">
<g>
	<path d="M231.41,148.209h47.265v53.138h31.191V22.369C309.866,10.016,299.859,0,287.506,0H66.765   C54.412,0,44.39,10.016,44.39,22.369v454.145c0,12.354,10.021,22.367,22.375,22.367h79.417V353.476h61.519V231.779   c0-13.219,9.727-24.193,23.702-28.478v-55.091H231.41z M231.41,44.742h47.265v67.111H231.41V44.742z M123.653,422.076H76.391   v-67.111h47.263V422.076z M123.653,323.827H76.391v-67.116h47.263V323.827z M123.653,215.32H76.391v-67.111h47.263V215.32z    M123.653,111.858H76.391V44.742h47.263V111.858z M202.479,323.827h-47.254v-67.116h47.254V323.827z M202.479,215.32h-47.254   v-67.111h47.254V215.32z M202.479,111.858h-47.254V44.742h47.254V111.858z M435.541,219.242H248.58   c-10.465,0-18.95,5.612-18.95,12.537v254.559c0,6.934,8.485,12.543,18.95,12.543h67.268v-81.504h54.013v81.504h65.681   c10.462,0,18.949-5.609,18.949-12.543V231.779C454.49,224.854,446.003,219.242,435.541,219.242z M296.756,455.826h-40.027v-37.615   h40.027V455.826z M296.756,400.756h-40.027V363.14h40.027V400.756z M296.756,339.939h-40.027v-37.615h40.027V339.939z    M296.756,281.938h-40.027v-37.619h40.027V281.938z M363.536,400.756h-40.028V363.14h40.028V400.756z M363.536,339.939h-40.028   v-37.615h40.028V339.939z M363.536,281.938h-40.028v-37.619h40.028V281.938z M428.069,456.666h-40.027V419.05h40.027V456.666z    M428.069,400.756h-40.027V363.14h40.027V400.756z M428.069,339.939h-40.027v-37.615h40.027V339.939z M428.069,281.938h-40.027   v-37.619h40.027V281.938z" fill="#FFFFFF"/>
</g>
<g>
</g>
<g>
</g>
<g>
</g>
<g>
</g>
<g>
</g>
<g>
</g>
<g>
</g>
<g>
</g>
<g>
</g>
<g>
</g>
<g>
</g>
<g>
</g>
<g>
</g>
<g>
</g>
<g>
</g>
</svg>
