<?xml version="1.0" encoding="iso-8859-1"?>
<!-- Generator: Adobe Illustrator 16.0.0, SVG Export Plug-In . SVG Version: 6.00 Build 0)  -->
<!DOCTYPE svg PUBLIC "-//W3C//DTD SVG 1.1//EN" "http://www.w3.org/Graphics/SVG/1.1/DTD/svg11.dtd">
<svg xmlns="http://www.w3.org/2000/svg" xmlns:xlink="http://www.w3.org/1999/xlink" version="1.1" id="Capa_1" x="0px" y="0px" width="512px" height="512px" viewBox="0 0 522.849 522.849" style="enable-background:new 0 0 522.849 522.849;" xml:space="preserve">
<g>
	<g>
		<path d="M128.73,169.036v143.438h19.125v-19.125h19.125v229.5h28.688V352.961c0-6.521,5.278-11.8,11.8-11.8h5.087    c6.522,0,11.8,5.278,11.8,11.8v169.888h19.125V352.961c0-6.521,5.278-11.8,11.8-11.8h5.087c6.522,0,11.8,5.278,11.8,11.8v169.888    h19.125V352.961c0-6.521,5.279-11.8,11.801-11.8h5.088c6.521,0,11.799,5.278,11.799,11.8v169.888h28.688v-229.5h19.125v19.125    h19.125V169.036h-19.125v19.125h-19.125v-38.25H166.98v38.25h-19.125v-19.125H128.73z M254.994,184.202    c28.658,0,51.982,23.313,51.982,51.972s-23.314,51.972-51.982,51.972c-28.668,0-51.972-23.313-51.972-51.972    S226.335,184.202,254.994,184.202z" fill="#FFFFFF"/>
		<path d="M254.994,278.594c23.381,0,42.42-19.029,42.42-42.41s-19.029-42.41-42.42-42.41c-23.39,0-42.41,19.029-42.41,42.41    S231.613,278.594,254.994,278.594z" fill="#FFFFFF"/>
		<path d="M350.14,123.815c0-45.842-33.238-84.198-76.91-91.857C270.39,13.129,264.662,0,258.025,0    c-6.56,0-12.25,13.062-15.118,31.719c-44.466,7.019-78.537,45.929-78.537,92.335c0,2.037,0.172,6.742,0.306,6.742h185.15    C349.958,130.786,350.14,125.861,350.14,123.815z" fill="#FFFFFF"/>
		<path d="M400.554,187.3c-1.148,0-4.074,0.096-4.074,0.172v104.154c0,0.077,3.156,0.173,4.303,0.173    c28.861,0,52.699-23.391,52.699-52.25C453.482,210.7,429.414,187.3,400.554,187.3z" fill="#FFFFFF"/>
		<path d="M118.69,187.3c-28.86,0-49.323,23.39-49.323,52.25s21.439,52.25,50.298,52.25c1.147,0-0.497-0.096-0.497-0.173V187.473    C119.168,187.406,119.837,187.3,118.69,187.3z" fill="#FFFFFF"/>
	</g>
</g>
<g>
</g>
<g>
</g>
<g>
</g>
<g>
</g>
<g>
</g>
<g>
</g>
<g>
</g>
<g>
</g>
<g>
</g>
<g>
</g>
<g>
</g>
<g>
</g>
<g>
</g>
<g>
</g>
<g>
</g>
</svg>
