<?xml version="1.0" encoding="iso-8859-1"?>
<!-- Generator: Adobe Illustrator 18.1.1, SVG Export Plug-In . SVG Version: 6.00 Build 0)  -->
<svg xmlns="http://www.w3.org/2000/svg" xmlns:xlink="http://www.w3.org/1999/xlink" version="1.1" id="Capa_1" x="0px" y="0px" viewBox="0 0 444.059 444.059" style="enable-background:new 0 0 444.059 444.059;" xml:space="preserve" width="512px" height="512px">
<g>
	<path d="M421.348,154.255c0,0-124.552,0-165.67,0c-3.347,0-3.227-3.466-3.227-3.466V74.528c0-12.551-10.16-22.711-22.711-22.711   c0,0-24.623,0-32.871,0c-4.303,0-3.705-3.347-3.705-3.347V24.325c0-12.551-10.16-22.711-22.711-22.711H81.998   c-12.551,0-22.711,10.16-22.711,22.711v23.667c0,0,0.717,3.825-4.303,3.825c-7.77,0-32.273,0-32.273,0   C10.16,51.817,0,61.977,0,74.528v345.206c0,12.551,10.16,22.711,22.711,22.711h398.637c12.551,0,22.711-10.16,22.711-22.711   V176.966C444.059,164.415,433.779,154.255,421.348,154.255z M99.57,47.036h12.551c0,0,2.749,0.12,2.749-2.63   c0-3.227,0-12.79,0-12.79c0-6.216,5.02-11.116,11.116-11.116c6.216,0,11.116,5.02,11.116,11.116c0,0,0,10.28,0,13.627   c0,1.793,2.391,1.673,2.391,1.673h13.148c6.216,0,11.116,5.02,11.116,11.116c0,6.216-5.02,11.116-11.116,11.116h-12.551   c0,0-2.749,0-2.749,2.271c0,3.347,0,13.148,0,13.148c0,6.216-5.02,11.116-11.116,11.116c-6.216,0-11.116-5.02-11.116-11.116   c0,0,0-9.682,0-13.029c0-2.63-2.391-2.391-2.391-2.391H99.809c-6.216,0-11.116-5.02-11.116-11.116   C88.453,52.056,93.473,47.036,99.57,47.036z M41.477,129.273c0-3.347,2.63-5.977,5.977-5.977h50.92c3.347,0,5.977,2.63,5.977,5.977   v27.253c0,3.347-2.63,5.977-5.977,5.977h-50.92c-3.347,0-5.977-2.63-5.977-5.977V129.273z M41.477,258.606v-27.253   c0-3.347,2.63-5.977,5.977-5.977h50.92c3.347,0,5.977,2.63,5.977,5.977v27.253c0,3.347-2.63,5.977-5.977,5.977h-50.92   C44.107,264.582,41.477,261.833,41.477,258.606z M160.411,403.239c0,3.347-2.63,5.977-5.977,5.977H97.896   c-3.347,0-5.977-2.63-5.977-5.977v-82.835c0-3.347,2.63-5.977,5.977-5.977h56.538c3.347,0,5.977,2.63,5.977,5.977V403.239z    M210.853,258.606c0,3.347-2.63,5.977-5.977,5.977h-50.92c-3.347,0-5.977-2.63-5.977-5.977v-27.253c0-3.347,2.63-5.977,5.977-5.977   h50.92c3.347,0,5.977,2.63,5.977,5.977L210.853,258.606L210.853,258.606z M210.853,156.526c0,3.347-2.63,5.977-5.977,5.977h-50.92   c-3.347,0-5.977-2.63-5.977-5.977v-27.253c0-3.347,2.63-5.977,5.977-5.977h50.92c3.347,0,5.977,2.63,5.977,5.977L210.853,156.526   L210.853,156.526z M321.18,347.537c0,3.347-2.63,5.977-5.977,5.977h-50.92c-3.347,0-5.977-2.63-5.977-5.977v-27.253   c0-3.347,2.63-5.977,5.977-5.977h50.92c3.347,0,5.977,2.63,5.977,5.977V347.537z M321.18,245.457c0,3.347-2.63,5.977-5.977,5.977   h-50.92c-3.347,0-5.977-2.63-5.977-5.977v-27.253c0-3.347,2.63-5.977,5.977-5.977h50.92c3.347,0,5.977,2.63,5.977,5.977V245.457z    M413.339,347.537c0,3.347-2.63,5.977-5.977,5.977h-50.92c-3.347,0-5.977-2.63-5.977-5.977v-27.253c0-3.347,2.63-5.977,5.977-5.977   h50.92c3.347,0,5.977,2.63,5.977,5.977V347.537z M413.339,245.457c0,3.347-2.63,5.977-5.977,5.977h-50.92   c-3.347,0-5.977-2.63-5.977-5.977v-27.253c0-3.347,2.63-5.977,5.977-5.977h50.92c3.347,0,5.977,2.63,5.977,5.977V245.457z" fill="#FFFFFF"/>
</g>
<g>
</g>
<g>
</g>
<g>
</g>
<g>
</g>
<g>
</g>
<g>
</g>
<g>
</g>
<g>
</g>
<g>
</g>
<g>
</g>
<g>
</g>
<g>
</g>
<g>
</g>
<g>
</g>
<g>
</g>
</svg>
