<?xml version="1.0" encoding="iso-8859-1"?>
<!-- Generator: Adobe Illustrator 18.0.0, SVG Export Plug-In . SVG Version: 6.00 Build 0)  -->
<!DOCTYPE svg PUBLIC "-//W3C//DTD SVG 1.1//EN" "http://www.w3.org/Graphics/SVG/1.1/DTD/svg11.dtd">
<svg xmlns="http://www.w3.org/2000/svg" xmlns:xlink="http://www.w3.org/1999/xlink" version="1.1" id="Capa_1" x="0px" y="0px" viewBox="0 0 459.691 459.691" style="enable-background:new 0 0 459.691 459.691;" xml:space="preserve" width="512px" height="512px">
<g>
	<path d="M183.945,145.765c-3.261,1.492-6.352,3.023-9.278,4.577l24.986,54.621c1.671-5.827,4.64-11.206,8.665-15.71   c-7.277-6.534-12.673-15.23-15.149-25.297c-1.796-7.301-1.93-14.749-0.47-21.904C189.788,143.198,186.865,144.43,183.945,145.765z" fill="#FFFFFF"/>
	<path d="M447.068,345.935h-5.204c-0.614,3.126-1.347,7.22-2.771,10.241c-9.873,20.947-30.364,23.38-47.935,14.452   c-5.805-2.951-42.59-21.65-48.576-24.693h-113.96l-31.046-127.143c-1.356-5.538-6.999-8.879-12.502-7.418l-31.556,8.381   c-5.355,1.422-8.59,6.867-7.278,12.25c13.984,57.536,36.718,151.85,36.718,151.85h-81.997c-6.14,0-11.118,4.978-11.118,11.118   v4.165c0,6.14,4.978,11.118,11.118,11.118h13.258v20.401c0,3.065,2.485,5.55,5.55,5.55h17.651c3.065,0,5.55-2.485,5.55-5.55   v-20.401h263.54v20.401c0,3.065,2.485,5.55,5.55,5.55h17.651c3.065,0,5.55-2.485,5.55-5.55v-20.401h15.14   c4.887,0,9.291-3.841,9.291-9.715l-2.92-44.904C456.771,350.279,452.427,345.935,447.068,345.935z" fill="#FFFFFF"/>
	<path d="M341.392,244.395c9.036,4.486,15.32,13.776,15.422,24.49c0.038,3.944-0.782,7.745-2.285,11.215l4.233,5.728   c0,0,67.238,33.219,68.413,33.866c0,0-17.14-24.291-54.701-75.656c-5.746-7.777-16.624-9.596-24.59-4.114L341.392,244.395z" fill="#FFFFFF"/>
	<path d="M225.078,178.13c0.002-0.001,0.003-0.001,0.005-0.002c6.886,4.385,15.479,6.065,24.032,3.962   c8.236-2.025,15.187-7.257,19.429-14.613h0c3.832-6.647,5.18-14.592,3.323-22.52c-1.691-7.219-5.867-13.512-11.747-17.848   c-4.399,4.13-10.224,6.483-16.451,6.483c-3.631,0-4.339-0.718-10.016-0.718c-5.339,0-11.36,0.725-17.775,2.085h0   c-3.955,5.994-5.623,12.964-5.011,19.789C211.707,164.102,216.749,172.828,225.078,178.13z" fill="#FFFFFF"/>
	<path d="M243.545,320.235l0.027-0.035c2.154,7.503,8.898,12.599,17.066,12.599c0.055,0,0.111,0.001,0.166,0h84.709l56.463,28.23   c8.848,4.496,19.632,0.95,24.111-7.859c4.488-8.829,0.969-19.622-7.859-24.11l-60.218-30.61c-2.52-1.282-5.307-1.948-8.132-1.948   c-0.052,0-0.105,0-0.158,0c0,0-76.405-0.002-76.816,0c-12.887,0-22.002-8.077-24.295-14.07   c-2.196-5.74-18.078-47.247-20.589-53.807l33.223,48.973c0.027,0.04,0.057,0.077,0.085,0.117c2.563,3.693,6.794,5.525,11.711,5.525   h56.294c8.258-0.078,14.795-7.317,13.869-15.66c-0.775-7.025-6.789-12.586-14.139-12.52l-48.739,0.466l-30.086-44.349   l35.118,30.773l19.022-0.182l-9.78-39.768c-2.759-11.219-14.09-18.079-25.312-15.319l-36.229,8.91   c-11.22,2.759-18.079,14.092-15.319,25.312C217.739,220.901,241,309.889,243.545,320.235z" fill="#FFFFFF"/>
	<path d="M117.458,172.296c1.725,0,3.355-0.884,4.288-2.376c8.738-13.973,28.67-29.741,54.284-41.458   c21.16-9.679,41.877-14.616,57.623-14.616c5.229,0,10.015,0.718,10.015,0.718c1.725,0,3.355-0.884,4.289-2.376   c8.738-13.973,28.669-29.741,54.284-41.458c16.712-7.644,33.147-12.331,47.076-13.964c2.048-0.24,3.746-1.7,4.289-3.69   c0.543-1.989-0.177-4.109-1.819-5.357c-19.29-14.66-53.752-24.232-94.506-24.234c-33.383-0.001-70.986,6.427-107.957,21.732   l-5.921-12.943c-2.353-5.144-8.472-7.498-13.706-5.103c-5.211,2.383-7.466,8.541-5.103,13.706l5.921,12.944   C51.105,93.713,2.781,164.644,0.01,208.631c-0.13,2.058,1.004,3.989,2.864,4.879c1.856,0.888,4.071,0.565,5.596-0.831   c10.344-9.47,24.637-18.84,41.349-26.484c21.16-9.68,41.877-14.616,57.623-14.616C112.67,171.578,117.457,172.296,117.458,172.296z   " fill="#FFFFFF"/>
</g>
<g>
</g>
<g>
</g>
<g>
</g>
<g>
</g>
<g>
</g>
<g>
</g>
<g>
</g>
<g>
</g>
<g>
</g>
<g>
</g>
<g>
</g>
<g>
</g>
<g>
</g>
<g>
</g>
<g>
</g>
</svg>
