<?xml version="1.0" encoding="iso-8859-1"?>
<!-- Generator: Adobe Illustrator 18.1.1, SVG Export Plug-In . SVG Version: 6.00 Build 0)  -->
<svg xmlns="http://www.w3.org/2000/svg" xmlns:xlink="http://www.w3.org/1999/xlink" version="1.1" id="Capa_1" x="0px" y="0px" viewBox="0 0 51.222 51.222" style="enable-background:new 0 0 51.222 51.222;" xml:space="preserve" width="512px" height="512px">
<g>
	<g>
		<path d="M29.283,33.329l-3.179,8.279c-0.17,0.443-0.594,0.736-1.067,0.74c-0.004,0-0.007,0-0.011,0    c-0.47,0-0.893-0.285-1.07-0.724l-8.647-21.446l-3.097,6.371c-0.192,0.397-0.596,0.648-1.038,0.648h-7.44    c0.085,0.145,0.151,0.286,0.239,0.432l2.008,2.896c0.499,0.646,1.04,1.283,1.631,1.924c6.718,7.247,11.344,12.613,14.209,16.059    c2.063,2.489,5.312,2.52,7.382,0.037c2.738-3.304,7.101-8.41,13.338-15.218L29.283,33.329L29.283,33.329z" fill="#FFFFFF"/>
		<path d="M37.813,0.831c-3.474,0.007-6.645,1.345-9.023,3.523c-2.379,2.196-4.277,2.196-6.669,0.012    C19.735,2.194,16.57,0.867,13.09,0.88C7.723,0.885,3.104,4.05,0.981,8.608c-1.363,2.934-1.157,8.324-0.287,11.441    c0.416,1.491,1.033,3.189,1.884,4.968c0.153-0.075,0.32-0.126,0.503-0.126h7.374l3.918-8.059c0.2-0.41,0.673-0.676,1.077-0.647    c0.457,0.016,0.86,0.298,1.032,0.721l8.522,21.138l2.411-6.281c0.172-0.445,0.6-0.739,1.078-0.739h14.908    c0.311,0,0.592,0.126,0.799,0.325c0.353-0.481,0.773-1.066,1.191-1.652c1.082-1.502,3.322-4.984,4.368-8.044    c1.463-4.296,1.463-7.462,1.463-7.462C51.207,6.795,45.2,0.813,37.813,0.831z" fill="#FFFFFF"/>
	</g>
</g>
<g>
</g>
<g>
</g>
<g>
</g>
<g>
</g>
<g>
</g>
<g>
</g>
<g>
</g>
<g>
</g>
<g>
</g>
<g>
</g>
<g>
</g>
<g>
</g>
<g>
</g>
<g>
</g>
<g>
</g>
</svg>
