<?xml version="1.0" encoding="iso-8859-1"?>
<!-- Generator: Adobe Illustrator 16.0.0, SVG Export Plug-In . SVG Version: 6.00 Build 0)  -->
<!DOCTYPE svg PUBLIC "-//W3C//DTD SVG 1.1//EN" "http://www.w3.org/Graphics/SVG/1.1/DTD/svg11.dtd">
<svg xmlns="http://www.w3.org/2000/svg" xmlns:xlink="http://www.w3.org/1999/xlink" version="1.1" id="Capa_1" x="0px" y="0px" width="512px" height="512px" viewBox="0 0 181.33 181.33" style="enable-background:new 0 0 181.33 181.33;" xml:space="preserve">
<g>
	<path d="M51.032,127.929c0.091-3.528,0.466-7.003,1.144-10.384H64.25v10.384H51.032z M53.197,113.246h11.047V98.479   c-1.692,0.116-3.354,0.357-4.965,0.726C56.638,103.57,54.591,108.284,53.197,113.246z M34.792,127.929h11.94   c0.083-3.518,0.446-6.993,1.078-10.384h-10.53C35.89,120.768,35.044,124.271,34.792,127.929z M64.244,132.232H51.063   c0.152,3.537,0.559,7.014,1.296,10.383h11.88L64.244,132.232L64.244,132.232z M46.77,132.232H34.792   c0.247,3.664,1.097,7.16,2.489,10.383h10.714C47.312,139.236,46.908,135.76,46.77,132.232z M83.762,113.246h9.454   c-3.418-5.423-8.404-9.759-14.35-12.314C80.935,104.83,82.576,108.946,83.762,113.246z M81.725,127.929   c-0.144-3.539-0.559-7.014-1.294-10.384H68.551v10.384H81.725z M68.551,98.479v14.768h10.772   c-1.512-5.056-3.719-9.827-6.543-14.231C71.405,98.737,69.985,98.573,68.551,98.479z M79.596,146.915H68.551v14.767   c1.693-0.114,3.353-0.356,4.966-0.725C76.156,156.589,78.21,151.886,79.596,146.915z M84.027,146.915   c-1.082,4.163-2.575,8.173-4.478,11.985c5.638-2.584,10.391-6.772,13.667-11.985H84.027z M48.769,113.246   c1.082-4.163,2.58-8.175,4.479-11.984c-5.646,2.587-10.392,6.772-13.675,11.984H48.769z M64.244,161.682v-14.767H53.473   c1.51,5.057,3.72,9.827,6.541,14.231C61.396,161.43,62.809,161.588,64.244,161.682z M171.297,93.528v70.6   c0,9.502-7.707,17.202-17.204,17.202H27.237c-9.505,0-17.203-7.7-17.203-17.202v-70.6c0-9.499,7.704-17.202,17.203-17.202h4.115   v-4.293c0-11.859,9.644-21.502,21.502-21.502h63.25L89.686,8.764c-0.073,0.006-0.14,0.042-0.214,0.042   c-2.429,0-4.403-1.974-4.403-4.402C85.069,1.974,87.042,0,89.472,0c2.433,0,4.396,1.974,4.396,4.404   c0,0.75-0.231,1.423-0.556,2.042l27.884,44.074h7.281c11.857,0,21.502,9.644,21.502,21.501v4.294h4.114   C163.59,76.326,171.297,84.03,171.297,93.528z M135.878,109.261c-5.401,0-9.78,4.378-9.78,9.79c0,5.392,4.379,9.78,9.78,9.78   s9.779-4.384,9.779-9.78C145.657,113.639,141.279,109.261,135.878,109.261z M126.635,59.129l10.871,17.197h3.869v-4.293   c0-7.118-5.786-12.904-12.898-12.904H126.635z M39.947,76.326h92.481l-10.876-17.197H52.854c-7.117,0-12.901,5.791-12.901,12.904   L39.947,76.326L39.947,76.326z M102.413,130.08c0-19.854-16.149-36.012-36.014-36.012c-19.856,0-36.009,16.158-36.009,36.012   s16.153,36.011,36.009,36.011C86.258,166.091,102.413,149.934,102.413,130.08z M150.021,152.579   c0-7.821-6.337-14.147-14.143-14.147c-7.812,0-14.146,6.326-14.146,14.147c0,7.801,6.335,14.133,14.146,14.133   C143.684,166.712,150.021,160.375,150.021,152.579z M49.032,146.915h-9.459c3.417,5.423,8.407,9.76,14.357,12.315   C51.858,155.33,50.221,151.216,49.032,146.915z M68.551,132.232v10.383h12.072c0.677-3.379,1.055-6.855,1.146-10.383H68.551z    M84.801,117.545c0.683,3.386,1.089,6.855,1.231,10.384h11.972c-0.252-3.664-1.093-7.161-2.488-10.384H84.801z M97.993,132.232   h-11.93c-0.086,3.512-0.445,6.993-1.082,10.383h10.534C96.906,139.393,97.752,135.896,97.993,132.232z" fill="#FFFFFF"/>
</g>
<g>
</g>
<g>
</g>
<g>
</g>
<g>
</g>
<g>
</g>
<g>
</g>
<g>
</g>
<g>
</g>
<g>
</g>
<g>
</g>
<g>
</g>
<g>
</g>
<g>
</g>
<g>
</g>
<g>
</g>
</svg>
