<?xml version="1.0" encoding="iso-8859-1"?>
<!-- Generator: Adobe Illustrator 17.1.0, SVG Export Plug-In . SVG Version: 6.00 Build 0)  -->
<!DOCTYPE svg PUBLIC "-//W3C//DTD SVG 1.1//EN" "http://www.w3.org/Graphics/SVG/1.1/DTD/svg11.dtd">
<svg xmlns="http://www.w3.org/2000/svg" xmlns:xlink="http://www.w3.org/1999/xlink" version="1.1" id="Capa_1" x="0px" y="0px" viewBox="0 0 214.633 214.633" style="enable-background:new 0 0 214.633 214.633;" xml:space="preserve" width="512px" height="512px">
<path d="M136.903,117.993l27.902-33.21c6.591-0.025,19.187-1.796,30.571-13.18c23.105-23.104,4.286-66.772,3.474-68.62  c-0.911-2.071-3.101-3.271-5.337-2.923c-2.237,0.344-3.965,2.153-4.211,4.403c-0.019,0.171-2.002,17.173-12.535,18.271  c-1.283,0.133-2.497,0.198-3.712,0.198c-3.042,0-5.41-0.415-7.7-0.816c-2.026-0.354-3.941-0.689-6.035-0.689  c-4.63,0-8.848,1.747-13.677,5.666c-9.917,8.048-11.201,21.972-11.232,28.346l-32.639,27.423L66.002,47.092  c-0.017-0.017-0.038-0.029-0.056-0.046c-0.194-0.188-0.405-0.36-0.629-0.516c-0.041-0.029-0.08-0.06-0.122-0.087  c-0.192-0.125-0.39-0.241-0.6-0.34L29.144,29.414l-14.227-6.698c-1.91-0.901-4.177-0.504-5.667,0.989  c-0.168,0.169-0.318,0.35-0.458,0.537c-0.015,0.019-0.033,0.036-0.048,0.056c-0.089,0.122-0.159,0.254-0.236,0.383  c-0.054,0.091-0.118,0.177-0.167,0.271c-0.047,0.092-0.078,0.189-0.12,0.283c-0.061,0.138-0.128,0.274-0.175,0.416  c-0.027,0.08-0.04,0.164-0.062,0.246c-0.045,0.161-0.094,0.321-0.123,0.486c-0.015,0.086-0.015,0.173-0.025,0.26  c-0.02,0.164-0.044,0.327-0.048,0.492c-0.002,0.08,0.011,0.16,0.013,0.24c0.005,0.173,0.006,0.345,0.028,0.518  c0.01,0.074,0.033,0.147,0.046,0.221c0.031,0.177,0.06,0.355,0.112,0.529c0.024,0.083,0.064,0.162,0.092,0.244  c0.057,0.162,0.109,0.326,0.183,0.484L31.65,79.05c0.096,0.203,0.207,0.396,0.327,0.583c0.025,0.038,0.054,0.073,0.079,0.111  c0.162,0.236,0.342,0.458,0.54,0.661c0.016,0.016,0.026,0.035,0.041,0.051l39.414,39.414c-14.27,15.033-28.984,31.865-40.359,46.267  c-7.66,9.699-13.437,17.786-17.168,24.038c-4.13,6.918-7.364,13.908-3.104,18.169c0.913,0.912,2.546,2,5.144,2  c12.876,0,55.424-36.204,83.32-62.64l65.466,65.466c0.977,0.977,2.256,1.465,3.536,1.465s2.559-0.488,3.536-1.465l9.61-9.61  L49.32,70.844l7.071-7.071l132.714,132.713l9.611-9.611c1.953-1.952,1.953-5.118,0-7.07L136.903,117.993z M37.668,68.355  l-8.753-18.594l6.392-6.392l18.594,8.753L37.668,68.355z M108.869,89.958l29.991-25.198l16.144,16.144l-25.198,29.991  L108.869,89.958z" fill="#FFFFFF"/>
<g>
</g>
<g>
</g>
<g>
</g>
<g>
</g>
<g>
</g>
<g>
</g>
<g>
</g>
<g>
</g>
<g>
</g>
<g>
</g>
<g>
</g>
<g>
</g>
<g>
</g>
<g>
</g>
<g>
</g>
</svg>
