<?xml version="1.0" encoding="iso-8859-1"?>
<!-- Generator: Adobe Illustrator 16.0.0, SVG Export Plug-In . SVG Version: 6.00 Build 0)  -->
<!DOCTYPE svg PUBLIC "-//W3C//DTD SVG 1.1//EN" "http://www.w3.org/Graphics/SVG/1.1/DTD/svg11.dtd">
<svg xmlns="http://www.w3.org/2000/svg" xmlns:xlink="http://www.w3.org/1999/xlink" version="1.1" id="Capa_1" x="0px" y="0px" width="512px" height="512px" viewBox="0 0 31.805 31.805" style="enable-background:new 0 0 31.805 31.805;" xml:space="preserve">
<g>
	<g>
		<polygon points="1.229,23.994 1.229,10.481 14.773,10.481 13.973,9.252 0,9.252 0,25.223 10.132,25.223 11.941,23.994   " fill="#FFFFFF"/>
		<polygon points="23.406,23.994 22.807,23.994 23.91,25.223 24.635,25.223 24.635,16.324 23.406,15.891   " fill="#FFFFFF"/>
		<rect x="9.096" y="13.195" width="7.333" height="0.935" fill="#FFFFFF"/>
		<rect x="6.367" y="15.592" width="12.794" height="1.031" fill="#FFFFFF"/>
		<rect x="6.367" y="17.752" width="12.794" height="1.031" fill="#FFFFFF"/>
		<rect x="6.367" y="19.795" width="12.794" height="1.031" fill="#FFFFFF"/>
		<path d="M20.707,24.285c0-1.531-1.24-2.77-2.77-2.77c-1.527,0-2.767,1.238-2.767,2.77c0,1.527,1.239,2.767,2.767,2.767    C19.467,27.051,20.707,25.812,20.707,24.285z" fill="#FFFFFF"/>
		<polygon points="17.939,28.448 20.182,31.283 21.25,28.474 24.23,28.084 21.988,25.25   " fill="#FFFFFF"/>
		<polygon points="10.818,26.525 13.629,27.594 14.018,30.573 16.854,28.332 13.655,24.282   " fill="#FFFFFF"/>
		<polygon points="14.638,0.521 13.793,1.708 16.396,3.563 13.64,7.433 18.366,13.452 25.247,15.702 28.003,11.833 29.27,12.734     27.314,15.479 26.682,15.027 25.027,17.349 26.998,18.752 28.65,16.431 28.229,16.129 30.184,13.387 30.957,13.938 31.805,12.75       " fill="#FFFFFF"/>
	</g>
</g>
<g>
</g>
<g>
</g>
<g>
</g>
<g>
</g>
<g>
</g>
<g>
</g>
<g>
</g>
<g>
</g>
<g>
</g>
<g>
</g>
<g>
</g>
<g>
</g>
<g>
</g>
<g>
</g>
<g>
</g>
</svg>
