<?xml version="1.0" encoding="iso-8859-1"?>
<!-- Generator: Adobe Illustrator 16.0.0, SVG Export Plug-In . SVG Version: 6.00 Build 0)  -->
<!DOCTYPE svg PUBLIC "-//W3C//DTD SVG 1.1//EN" "http://www.w3.org/Graphics/SVG/1.1/DTD/svg11.dtd">
<svg xmlns="http://www.w3.org/2000/svg" xmlns:xlink="http://www.w3.org/1999/xlink" version="1.1" id="Capa_1" x="0px" y="0px" width="512px" height="512px" viewBox="0 0 477.689 477.688" style="enable-background:new 0 0 477.689 477.688;" xml:space="preserve">
<g>
	<g id="icons_20_">
		<path d="M364.056,57.951c-11.998,0-21.729,9.726-21.729,21.73v94.171c0,3.996-3.255,7.246-7.245,7.246    c-3.989,0-7.243-3.25-7.243-7.246V36.219c0-12.005-9.735-21.732-21.732-21.732s-21.731,9.728-21.731,21.732v123.147    c0,3.995-3.254,7.243-7.244,7.243s-7.245-3.248-7.245-7.243V21.732C269.885,9.727,260.16,0,248.156,0    c-12.005,0-21.731,9.728-21.731,21.732v137.635c0,3.995-3.248,7.243-7.243,7.243c-3.998,0-4.652-3.248-4.652-7.243V50.707    c0-12.006-9.727-21.732-21.732-21.732s-21.732,9.727-21.732,21.732c0,0,0.201,79.796,0.201,87.963s2.647,11.473,3.956,13.196    c16.339,21.522,31.759,41.82,33.936,44.637c12.358,15.99,13.506,8.923,44.271,16.274c0.022,0.002,0.039,0.01,0.058,0.013    c0.003,0.003,0.007,0.003,0.011,0.005s0.004,0.002,0.004,0.002c1.962,0.45,3.882,1.008,5.763,1.659    c15.188,5.211,49.836,18.037,49.836,18.037c6.544,2.329,10.063,9.085,7.875,15.117c-2.249,5.981-9.322,8.967-15.921,6.655    c0,0-13.955-4.019-15.354-4.442c-1.399-0.426-5.194-1.149-1.859,3.166c3.335,4.314,44.776,57.928,44.776,57.928    c3.216,4.158,2.45,10.131-1.707,13.339c-4.155,3.216-10.128,2.45-13.34-1.707l-29.078-37.616    c-1.072-1.384-2.166-2.335-3.551-1.268c-1.382,1.072-1.638,3.062-0.568,4.451l36.833,47.65c3.213,4.157,2.451,10.125-1.708,13.34    c-4.156,3.213-10.124,2.448-13.337-1.707l-36.839-47.656c-1.068-1.381-3.062-1.637-4.445-0.569    c-1.38,1.067-1.639,3.065-0.57,4.448l32.959,42.637c3.211,4.156,2.444,10.133-1.709,13.339    c-4.155,3.214-10.128,2.448-13.338-1.708l-36.836-47.652c-1.068-1.385-3.064-1.636-4.444-0.566    c-1.382,1.064-1.642,3.061-0.57,4.445l25.2,32.603c3.215,4.157,2.447,10.126-1.709,13.343c-4.15,3.206-10.125,2.448-13.34-1.708    c0,0-46.106-59.653-52.341-67.72c-0.115-0.146-0.236-0.305-0.357-0.469c-20.646-27.033-8.731-39.739-22.455-58.938l-1.792-2.392    c-4.102-5.337-10.735-14.217-18.405-24.573l-9.439-12.603c-8.694-13.398-25.658-17.891-38.088-10.215    c-12.387,7.852-15.464,24.979-6.883,38.335c0,0,44.728,71.618,64.889,102.262c2.498,3.804,5.191,7.498,8.104,11.06    c0.002,0.002,0.003,0.005,0.005,0.007c0.004,0.006,0.009,0.01,0.011,0.014c0.03,0.037,0.06,0.074,0.088,0.109    c24.189,31.072,40.167,58.572,40.167,85.678c0,9.218-0.141,29.833-0.393,42.389c-0.15,7.506-1.835,16.392,11.499,16.392    s102.49,0,111.334,0c11.333,0,11.061-8.494,11.154-12.223c1.148-46.041,0.296-11.638,0.296-46.557    c0-57.979,41.396-62.509,41.86-142.292c0.009-0.467,0.013-0.92,0.013-1.349c0-23.29,0-195.587,0-195.587    C385.789,67.677,376.053,57.951,364.056,57.951z" fill="#FFFFFF"/>
	</g>
</g>
<g>
</g>
<g>
</g>
<g>
</g>
<g>
</g>
<g>
</g>
<g>
</g>
<g>
</g>
<g>
</g>
<g>
</g>
<g>
</g>
<g>
</g>
<g>
</g>
<g>
</g>
<g>
</g>
<g>
</g>
</svg>
