<?xml version="1.0" encoding="iso-8859-1"?>
<!-- Generator: Adobe Illustrator 16.0.0, SVG Export Plug-In . SVG Version: 6.00 Build 0)  -->
<!DOCTYPE svg PUBLIC "-//W3C//DTD SVG 1.1//EN" "http://www.w3.org/Graphics/SVG/1.1/DTD/svg11.dtd">
<svg xmlns="http://www.w3.org/2000/svg" xmlns:xlink="http://www.w3.org/1999/xlink" version="1.1" id="Capa_1" x="0px" y="0px" width="512px" height="512px" viewBox="0 0 478.596 478.596" style="enable-background:new 0 0 478.596 478.596;" xml:space="preserve">
<g>
	<g>
		<path d="M113.126,108.867c18.021,0,35.189-9.18,45.23-24.14c10.184-15.173,12.021-35.011,4.798-51.8    c-7.037-16.356-22.074-28.531-39.559-31.938C105.712-2.495,86.893,3.36,74.167,16.394C61.433,29.437,56.031,48.425,59.965,66.227    c3.842,17.382,16.376,32.113,32.891,38.742C99.287,107.55,106.198,108.867,113.126,108.867z" fill="#FFFFFF"/>
		<g>
			<path d="M175.833,243.58C177.044,240.222,175.75,242.782,175.833,243.58L175.833,243.58z" fill="#FFFFFF"/>
			<path d="M214.27,226.528c0.876-8.131,1.072-16.292,1.195-24.462c-0.23-7.293-0.341-14.681-1.499-21.902     c-1.409-11.248-4.061-22.504-8.318-33.025l-1.697-4.179c-1.973-4.141-4.053-8.16-6.293-12.162     c-4.734-7.704-10.222-14.786-16.692-21.113c-2.128-1.959-4.196-3.91-6.379-5.615c-2.118-1.789-4.338-3.322-6.457-4.855     c-2.749-1.791-5.497-3.563-8.379-5.136c-14.321,15.671-36.05,23.164-56.988,19.583c-13.771-2.355-26.525-9.417-35.908-19.758     c-0.767,0.414-1.538,0.84-2.31,1.303c-2.123,1.178-4.227,2.589-6.413,4.011c-2.121,1.533-4.34,3.064-6.461,4.852     c-2.185,1.704-4.253,3.654-6.383,5.612c-6.478,6.325-11.972,13.408-16.706,21.115c-2.243,4.001-4.32,8.023-6.295,12.164     l-1.697,4.18c-4.257,10.524-6.902,21.779-8.314,33.028c-1.158,7.221-1.257,14.609-1.494,21.901     c0.103,6.432,0.322,12.821,0.732,19.241c0.295,4.625,0.904,9.232,1.41,13.839c0.953,8.431,8.572,14.881,17.049,14.374     c8.474-0.509,15.255-7.792,15.18-16.275l-0.006-0.775c-0.033-3.849-0.187-7.715-0.045-11.561     c0.208-5.672,0.552-11.299,1.023-16.955c0.77-5.78,1.385-11.707,2.944-17.342c1.809-7.949,4.452-15.901,8.307-23.104l1.39-2.645     l1.542-2.491c0.961-1.706,2.153-3.181,3.214-4.734c0.089-0.114,0.179-0.223,0.268-0.337l-12.574,87.878     c-2.104,15.251,1.359,30.963,9.93,43.777l8.331,175.673c0.468,9.25,7.901,17.056,17.14,17.887     c9.102,0.818,17.721-5.259,19.971-14.124c0.316-1.247,0.504-2.526,0.562-3.812l5.987-133.52l6.221,133.553     c0.461,9.25,7.887,17.062,17.125,17.9c9.101,0.826,17.727-5.242,19.982-14.106c0.317-1.247,0.506-2.526,0.564-3.812     l7.984-174.789c5.609-8.104,9.322-17.53,10.637-27.58c2.55,3.626,7.654,4.641,11.387,2.244c1.678-1.078,2.941-2.75,3.512-4.663     c0.309-1.038,0.307-2.056,0.369-3.124c0.082-1.4,0.405-2.784,0.954-4.075c6.55,2.313,13.97,0.109,18.202-5.398     c3.272,2.213,5.428,5.958,5.428,10.198v211.06c0,4.572,3.816,8.389,8.388,8.389c4.572,0,8.388-3.816,8.388-8.389V253.41     C232.275,241.295,224.827,230.892,214.27,226.528z M181.144,234.491c-2.283,2.658-4.099,5.729-5.311,9.089     c-0.082-0.798-0.169-1.597-0.283-2.397l-12.449-86.999c0.957,1.358,1.981,2.684,2.829,4.188l1.542,2.492l1.392,2.646     c3.854,7.204,6.503,15.155,8.312,23.105c1.56,5.637,2.17,11.561,2.949,17.341c0.469,5.656,0.814,11.282,1.023,16.953     c0.143,3.846-0.011,7.712-0.043,11.561l-0.009,0.851C181.093,233.716,181.117,234.103,181.144,234.491z" fill="#FFFFFF"/>
		</g>
		<path d="M344.049,108.867c18.021,0,35.189-9.18,45.23-24.14c10.184-15.173,12.021-35.011,4.797-51.8    c-7.037-16.356-22.074-28.531-39.559-31.938c-17.883-3.484-36.703,2.371-49.428,15.405    c-12.736,13.043-18.137,32.031-14.201,49.833c3.842,17.382,16.375,32.113,32.891,38.742    C330.209,107.55,337.121,108.867,344.049,108.867z" fill="#FFFFFF"/>
		<g>
			<path d="M445.26,225.896c0.855-7.916,1.008-15.876,1.127-23.83c-0.229-7.293-0.342-14.681-1.498-21.902     c-1.41-11.247-4.062-22.504-8.318-33.025l-1.697-4.179c-1.977-4.14-4.051-8.16-6.293-12.162     c-4.734-7.703-10.223-14.786-16.691-21.113c-2.129-1.959-4.197-3.91-6.379-5.615c-2.119-1.789-4.338-3.322-6.457-4.855     c-2.75-1.791-5.498-3.563-8.379-5.136c-14.322,15.671-36.051,23.164-56.988,19.583c-13.771-2.355-26.525-9.417-35.908-19.758     c-0.768,0.414-1.537,0.84-2.311,1.303c-2.123,1.178-4.227,2.589-6.412,4.011c-2.121,1.533-4.34,3.064-6.461,4.852     c-2.186,1.704-4.254,3.654-6.383,5.612c-6.48,6.321-11.973,13.409-16.707,21.115c-2.244,4.001-4.318,8.024-6.295,12.164     l-1.697,4.18c-4.256,10.524-6.904,21.779-8.313,33.028c-1.157,7.221-1.257,14.609-1.493,21.901     c0.103,6.432,0.322,12.82,0.73,19.241c0.295,4.625,0.906,9.233,1.411,13.839c0.952,8.431,8.571,14.881,17.048,14.374     c8.475-0.509,15.256-7.792,15.182-16.275l-0.008-0.775c-0.031-3.849-0.188-7.715-0.045-11.561     c0.209-5.672,0.555-11.299,1.023-16.955c0.77-5.78,1.386-11.707,2.945-17.342c1.809-7.949,4.451-15.901,8.307-23.104l1.389-2.645     l1.543-2.491c0.961-1.706,2.152-3.181,3.213-4.734c0.09-0.114,0.18-0.223,0.27-0.337l-12.573,87.881     c-0.336,2.435-0.53,4.964-0.589,7.524c-6.739,21.094-12.387,42.552-16.649,64.283c-4.868,24.814-7.957,50.046-8.274,75.35     c-0.039,3.237-0.111,6.282,1.951,8.984c1.81,2.371,4.684,3.793,7.666,3.793h31.984l2.822,59.515     c0.467,9.25,7.902,17.056,17.141,17.887c9.1,0.818,17.721-5.259,19.971-14.124c0.314-1.247,0.504-2.526,0.561-3.812l2.668-59.466     h6.77l2.771,59.499c0.461,9.25,7.887,17.062,17.125,17.901c9.102,0.825,17.727-5.243,19.982-14.107     c0.316-1.247,0.506-2.526,0.562-3.812l2.719-59.48h31.648c2.652,0,5.242-1.125,7.051-3.065c1.928-2.063,2.604-4.625,2.588-7.385     c-0.037-6.467-0.262-12.934-0.648-19.39c-0.768-12.717-2.178-25.392-4.1-37.985c-3.533-23.133-8.779-45.995-15.289-68.467     c-0.666-2.301-1.348-4.598-2.041-6.891c2.053,4.146,7.256,5.875,11.371,3.743c1.846-0.957,3.299-2.602,4.018-4.553     c0.393-1.065,0.488-2.131,0.52-3.256c0.045-1.495,0.363-2.979,0.939-4.358c5.859,0.297,11.219-2.583,14.285-7.221     c5.373,1.319,9.375,6.163,9.375,11.937v211.06c0,4.571,3.816,8.388,8.389,8.388s8.389-3.815,8.389-8.388v-211.06     C467.811,240.438,458.16,228.867,445.26,225.896z M410.51,247.225c-0.639,2.563-1.125,5.478-0.771,8.12     c-0.912-2.971-1.826-5.867-2.732-8.675c-0.102-1.819-0.27-3.647-0.533-5.486l-12.449-86.999c0.957,1.358,1.982,2.684,2.83,4.188     l1.541,2.492l1.393,2.646c3.854,7.205,6.502,15.155,8.311,23.105c1.564,5.636,2.174,11.561,2.949,17.341     c0.473,5.655,0.816,11.282,1.025,16.953c0.141,3.846-0.014,7.712-0.045,11.561l-0.008,0.851c-0.014,2.34,0.496,4.58,1.402,6.618     C412.127,242.223,411.145,244.679,410.51,247.225z" fill="#FFFFFF"/>
			<path d="M409.736,255.343C409.688,254.978,408.824,252.373,409.736,255.343L409.736,255.343z" fill="#FFFFFF"/>
		</g>
	</g>
</g>
<g>
</g>
<g>
</g>
<g>
</g>
<g>
</g>
<g>
</g>
<g>
</g>
<g>
</g>
<g>
</g>
<g>
</g>
<g>
</g>
<g>
</g>
<g>
</g>
<g>
</g>
<g>
</g>
<g>
</g>
</svg>
