<?xml version="1.0" encoding="iso-8859-1"?>
<!-- Generator: Adobe Illustrator 18.0.0, SVG Export Plug-In . SVG Version: 6.00 Build 0)  -->
<!DOCTYPE svg PUBLIC "-//W3C//DTD SVG 1.1//EN" "http://www.w3.org/Graphics/SVG/1.1/DTD/svg11.dtd">
<svg xmlns="http://www.w3.org/2000/svg" xmlns:xlink="http://www.w3.org/1999/xlink" version="1.1" id="Capa_1" x="0px" y="0px" viewBox="0 0 475.775 475.775" style="enable-background:new 0 0 475.775 475.775;" xml:space="preserve" width="512px" height="512px">
<g id="XMLID_105_">
	<path id="XMLID_107_" d="M364.704,303.784c-4.676-29.036-29.425-50.107-58.819-50.107c-1.199,0-2.321,0.241-3.506,0.311   c-1.014-2.72-2.462-5.307-4.769-7.394l-54.922-49.958l-25.014-46.607l7.278,7.815l1.901-10.107   c3.895-20.673-9.694-40.591-30.359-44.503l-16.007-3.023c-20.588-3.896-40.568,9.616-44.51,30.368L109.577,270.54   c-0.873,4.568-0.921,9.25-0.157,13.832l11.751,70.843l-34.224,89.762c-4.474,11.712,1.402,24.836,13.123,29.301   c11.609,4.441,24.81-1.31,29.299-13.123l36.406-95.458c1.419-3.725,1.84-7.77,1.2-11.712l-4.504-27.874l31.45,37.271l-1.105,89.405   c-0.156,12.538,9.896,22.831,22.428,22.98c0.092,0.008,0.187,0.008,0.279,0.008c3.835,0,7.387-1.036,10.566-2.72   c1.559,1.232,3.305,2.229,5.408,2.563c6.406,1.061,12.656-3.381,13.716-9.911l12.623-78.371h96.082l12.624,78.371   c0.951,5.883,6.032,10.067,11.799,10.067c0.638,0,1.278-0.046,1.916-0.157c6.531-1.043,10.973-7.191,9.913-13.713L364.704,303.784z    M247.052,303.791l-7.979,49.553c-0.405-4.668-1.948-9.172-5.003-12.78l-35.644-42.25l11.409-60.455l-4.94-4.496l-3.679-3.335   c-1.714-1.567-2.836-3.546-3.334-5.649l-13.559-56.443l26.556,49.461c1.029,1.9,2.354,3.606,3.943,5.049l51.213,46.575   C256.248,277.843,249.296,289.858,247.052,303.791z M261.686,363.396l8.993-55.795c2.806-17.378,17.61-29.985,35.205-29.985   c17.581,0,32.387,12.607,35.192,29.978l8.993,55.803H261.686z" fill="#FFFFFF"/>
	<path id="XMLID_106_" d="M219.326,87.711c24.017,4.551,47.161-11.244,51.681-35.253c4.535-24.001-11.253-47.145-35.254-51.688   c-24.001-4.512-47.161,11.261-51.711,35.277C179.507,60.064,195.325,83.176,219.326,87.711z" fill="#FFFFFF"/>
</g>
<g>
</g>
<g>
</g>
<g>
</g>
<g>
</g>
<g>
</g>
<g>
</g>
<g>
</g>
<g>
</g>
<g>
</g>
<g>
</g>
<g>
</g>
<g>
</g>
<g>
</g>
<g>
</g>
<g>
</g>
</svg>
