<?xml version="1.0" encoding="iso-8859-1"?>
<!-- Generator: Adobe Illustrator 16.0.0, SVG Export Plug-In . SVG Version: 6.00 Build 0)  -->
<!DOCTYPE svg PUBLIC "-//W3C//DTD SVG 1.1//EN" "http://www.w3.org/Graphics/SVG/1.1/DTD/svg11.dtd">
<svg xmlns="http://www.w3.org/2000/svg" xmlns:xlink="http://www.w3.org/1999/xlink" version="1.1" id="Capa_1" x="0px" y="0px" width="512px" height="512px" viewBox="0 0 123.804 123.804" style="enable-background:new 0 0 123.804 123.804;" xml:space="preserve">
<g>
	<g>
		<circle cx="43.416" cy="12.681" r="12.681" fill="#FFFFFF"/>
		<circle cx="76.235" cy="12.681" r="12.681" fill="#FFFFFF"/>
		<path d="M87.339,96.715c-0.131,0.01-0.262,0.016-0.395,0.016c-2.709,0-4.914-2.205-4.914-4.916    c0-15.354,9.633-21.744,10.043-22.009c0.092-0.06,0.183-0.108,0.273-0.155c0.004-0.002,0.008-0.006,0.012-0.008    c-0.012-0.06-0.023-0.117-0.037-0.176c-2.112-1.794-3.463-4.461-3.463-7.443c0-1.435,0.319-2.792,0.877-4.021    c-0.205-0.869-0.383-1.612-0.521-2.181v-9.483c1.099,2.285,1.951,5.152,2.451,8.845c1.772-1.805,4.237-2.928,6.962-2.928    c0.895,0,1.759,0.131,2.583,0.357c-2.306-14.18-9.315-19.767-16.483-24.163c-0.252-0.154-0.516-0.272-0.779-0.376    c-1.416-0.935-3-1.618-4.617-2.005c-0.01-0.002-0.021-0.003-0.031-0.005l-3.062,3.215l-3.16-3.181    c-1.756,0.432-3.473,1.216-4.973,2.286c-0.045,0.025-0.092,0.038-0.135,0.065c-2.811,1.723-5.596,3.629-8.081,6.161    c-2.477-2.639-5.335-4.704-8.291-6.518c-0.434-0.268-0.896-0.435-1.367-0.553c-1.153-0.646-2.396-1.133-3.655-1.442l-3.159,3.181    l-3.063-3.215c-0.01,0.002-0.021,0.003-0.031,0.005c-1.616,0.387-3.2,1.07-4.615,2.004c-0.267,0.104-0.53,0.222-0.781,0.377    c-7.516,4.61-14.378,10.95-15.62,24.908c1.338-0.701,2.854-1.103,4.466-1.103c1.974,0,3.809,0.597,5.339,1.617    c0.235-2.457,0.688-4.541,1.327-6.33v7.398c1.84,1.76,2.993,4.232,2.993,6.973c0,2.459-0.936,4.697-2.456,6.404    c0.056,0.166,0.106,0.332,0.171,0.492c-0.034,0.256-0.058,0.514-0.058,0.778v0.563c0.046,0.037,0.096,0.074,0.141,0.111    c1.78,1.32,9.426,7.782,9.426,21.372c0,2.688-2.187,4.876-4.876,4.876c-1.028,0-1.98-0.318-2.77-0.863    c-0.034,0.086-0.071,0.172-0.109,0.258l-0.002,23.623c0,0.438-0.055,0.859-0.148,1.268c1.058,1.081,2.529,1.755,4.16,1.755    c3.214-0.001,5.819-2.604,5.819-5.819l-0.007-40.459c0.23,0.012,0.459,0.029,0.692,0.029c0.045,0,0.091-0.005,0.136-0.006    l-0.002,40.436c0,3.215,2.605,5.819,5.819,5.819c3.213,0,5.818-2.604,5.818-5.817l0.002-46.854    c0.074-0.142,0.146-0.282,0.215-0.427c0.072,0.004,0.144,0.021,0.216,0.021c0.023,0,0.048,0,0.07-0.001    c1.458-0.021,2.754-0.675,3.643-1.694c0.314,0.281,0.668,0.521,1.05,0.717c-2.038,9.217-4.309,20-4.319,22.361    c-0.01,1.936,3.48,3.594,8.401,4.637v21.24c0,3.213,2.605,5.817,5.818,5.817c3.214,0,5.818-2.604,5.818-5.819V96.669    c0.273,0.001,0.551,0.001,0.824-0.001l-0.002,20.062c0,3.215,2.605,5.818,5.818,5.819c3.215,0,5.818-2.604,5.818-5.817    l0.002-9.697h-3.053L87.339,96.715z" fill="#FFFFFF"/>
		<circle cx="24.365" cy="61.765" r="7.421" fill="#FFFFFF"/>
		<path d="M36.373,94.126c1.458,0,2.638-1.181,2.638-2.64c0-12.717-7.073-18.524-8.595-19.627c-0.513-0.459-1.178-0.916-2.063-1.398    c-0.676-0.378-1.401-0.662-2.139-0.844l-1.849,1.861l-1.794-1.884c-0.005,0.002-0.012,0.005-0.017,0.007    c-1.154,0.274-2.27,0.819-3.216,1.563c-0.08,0.04-0.161,0.071-0.237,0.12c-0.363,0.234-8.887,5.891-8.887,19.834    c0,1.457,1.18,2.639,2.639,2.639c1.456,0,2.638-1.182,2.638-2.639c0-3.17,0.529-5.764,1.277-7.879v9.209    c0,0.773,0.149,1.498,0.415,2.162c-0.021,0.149-0.035,0.303-0.035,0.457l0.003,24.312c0,1.88,1.524,3.404,3.404,3.404    c1.881,0,3.404-1.524,3.404-3.404v-20.4c0.134,0.008,0.269,0.018,0.405,0.018c0.025,0,0.053-0.002,0.079-0.004v20.388    c0,1.88,1.523,3.403,3.404,3.403c1.881,0,3.405-1.523,3.405-3.403l0.002-24.144c0.445-0.826,0.706-1.762,0.706-2.789V82.346    c1.004,2.309,1.772,5.309,1.772,9.141C33.734,92.945,34.914,94.126,36.373,94.126z" fill="#FFFFFF"/>
		<circle cx="98.726" cy="61.875" r="7.532" fill="#FFFFFF"/>
		<path d="M104.864,72.119c-0.519-0.465-1.192-0.93-2.092-1.42c-0.686-0.383-1.424-0.672-2.172-0.854l-1.875,1.89l-1.82-1.91    c-0.006,0.002-0.012,0.004-0.02,0.004c-1.17,0.279-2.301,0.834-3.262,1.59c-0.082,0.04-0.163,0.07-0.24,0.121    c-0.369,0.236-9.02,5.979-9.02,20.128c0,1.479,1.197,2.678,2.677,2.678s2.679-1.198,2.679-2.678c0-3.216,0.536-5.849,1.295-7.995    v5.497l-2.736,15.481h3.123l0.004,15.697c0,1.909,1.545,3.457,3.455,3.456c1.908,0,3.453-1.547,3.453-3.456V104.65h0.491    l-0.001,15.697c0,1.909,1.547,3.456,3.456,3.456s3.456-1.547,3.456-3.456V104.65h3.436l-2.717-15.352v-6.537    c1.018,2.344,1.799,5.389,1.799,9.277c0,1.479,1.197,2.678,2.68,2.678c1.479,0,2.677-1.199,2.677-2.678    C113.59,79.132,106.411,73.238,104.864,72.119z" fill="#FFFFFF"/>
	</g>
</g>
<g>
</g>
<g>
</g>
<g>
</g>
<g>
</g>
<g>
</g>
<g>
</g>
<g>
</g>
<g>
</g>
<g>
</g>
<g>
</g>
<g>
</g>
<g>
</g>
<g>
</g>
<g>
</g>
<g>
</g>
</svg>
