<?xml version="1.0" encoding="iso-8859-1"?>
<!-- Generator: Adobe Illustrator 18.0.0, SVG Export Plug-In . SVG Version: 6.00 Build 0)  -->
<!DOCTYPE svg PUBLIC "-//W3C//DTD SVG 1.1//EN" "http://www.w3.org/Graphics/SVG/1.1/DTD/svg11.dtd">
<svg xmlns="http://www.w3.org/2000/svg" xmlns:xlink="http://www.w3.org/1999/xlink" version="1.1" id="Capa_1" x="0px" y="0px" viewBox="0 0 462.795 462.795" style="enable-background:new 0 0 462.795 462.795;" xml:space="preserve" width="512px" height="512px">
<g id="XMLID_821_">
	<path id="XMLID_822_" d="M446.49,110.478c-0.101-20.032-16.481-36.329-36.513-36.329c-10.167,0-71.05,0-81.039,0   c16.215,10.721,26.99,29.071,27.095,49.875l0.626,124.558c0.049,9.871-3.748,19.17-10.693,26.185   c-5.134,5.186-11.535,8.658-18.512,10.139v85.1c0,10.226,8.29,18.515,18.515,18.515c10.226,0,18.515-8.29,18.515-18.515V226.01   c0-2.208,1.79-3.997,3.997-3.997c2.208,0,3.997,1.79,3.997,3.997v143.996c0,10.226,8.289,18.515,18.515,18.515   c10.226,0,18.515-8.29,18.515-18.515c0-168.138-0.324-158.373-0.335-259.351c0-1.779,1.439-3.223,3.218-3.229   c1.779-0.006,3.228,1.428,3.24,3.208l0,0l0.57,113.353c0.043,8.495,6.942,15.352,15.427,15.352c0.026,0,0.053,0,0.079,0   c8.521-0.043,15.394-6.986,15.352-15.507L446.49,110.478z" fill="#FFFFFF"/>
	<path id="XMLID_882_" d="M368.691,63.956c17.641,0,31.978-14.278,31.978-31.978C400.668,14.317,386.351,0,368.691,0   c-17.661,0-31.978,14.317-31.978,31.978C336.713,49.546,350.96,63.956,368.691,63.956z" fill="#FFFFFF"/>
	<path id="XMLID_883_" d="M319.79,265.722c9.363-0.047,16.916-7.676,16.869-17.039l-0.626-124.558   c-0.111-22.012-18.11-39.92-40.122-39.92h-45.438h-0.146h-45.437c-2.443,0-4.833,0.232-7.158,0.655   c14.088,11.549,23.138,29.042,23.236,48.59l0.529,105.323c12.301,4.44,21.119,16.229,21.119,30.042v3.381   c15.388,0.678,27.784,13.417,27.784,29.047v76.375c0,11.209-6.379,20.95-15.693,25.802v5.883c0,11.236,9.108,20.345,20.345,20.345   s20.345-9.108,20.345-20.345c0-26.157-0.369-286.063-0.369-284.988c0-1.956,1.582-3.543,3.538-3.548   c1.956-0.006,3.548,1.572,3.559,3.528l0,0l0.626,124.557c0.047,9.335,7.628,16.869,16.952,16.869   C319.731,265.722,319.762,265.722,319.79,265.722z" fill="#FFFFFF"/>
	<path id="XMLID_884_" d="M205.232,406.698v2.606c0,11.236,9.109,20.345,20.345,20.345s20.345-9.108,20.345-20.345v-2.974   C242.85,406.82,244.907,406.698,205.232,406.698z" fill="#FFFFFF"/>
	<path id="XMLID_885_" d="M108.843,78.46c20.863,0,37.866-16.938,37.866-37.866c0-20.946-17.016-37.867-37.866-37.867   c-20.859,0-37.866,16.929-37.866,37.867C70.977,61.527,87.985,78.46,108.843,78.46z" fill="#FFFFFF"/>
	<path id="XMLID_886_" d="M113.33,404.053v36.817c0,12.108,9.816,21.925,21.925,21.925s21.925-9.816,21.925-21.925v-34.172h-31.755   C121.11,406.698,117.016,405.746,113.33,404.053z" fill="#FFFFFF"/>
	<path id="XMLID_893_" d="M250.401,301.243c0-5.015-4.065-9.08-9.079-9.08h-19.99c0-8.863,0-14.683,0-23.349   c0-5.878-4.765-10.643-10.643-10.643h0h-9.093l-0.107-21.286l-0.519-103.335c-0.12-23.722-19.516-43.021-43.237-43.021h-49.122   H59.646c-23.722,0-43.118,19.299-43.237,43.021l-0.674,134.228c-0.051,10.091,8.088,18.312,18.179,18.362c0.031,0,0.063,0,0.094,0   c10.047,0,18.218-8.12,18.269-18.179l0.674-134.228c0.01-1.946,1.592-3.516,3.537-3.51c1.945,0.005,3.518,1.584,3.518,3.528   l0.008,307.118c0,12.108,9.816,21.925,21.925,21.925s21.925-9.816,21.925-21.925v-43.762c-4.669-5.161-7.518-11.999-7.518-19.49   v-76.375c0-7.492,2.849-14.329,7.518-19.49v-11.397c0-2.614,2.119-4.733,4.733-4.733c2.614,0,4.733,2.119,4.733,4.733v4.452   c3.315-1.522,6.96-2.443,10.799-2.612v-3.381c0-16.74,13.205-31.929,32.652-31.929V133.934c0-2.074,1.652-3.77,3.725-3.825   s3.814,1.552,3.922,3.623c0,0,0,0.002,0,0.003l0.518,103.152l0.107,21.286h-8.997c-5.912,0-10.643,4.808-10.643,10.643l0,23.349   h-19.99c-5.014,0-9.079,4.065-9.079,9.08v76.375c0,5.015,4.065,9.08,9.079,9.08h115.897c5.014,0,9.079-4.065,9.079-9.08V301.243z    M183.372,286.141c0.031,0,0.063,0,0.094,0c5.658-0.028,10.702-2.627,14.033-6.684h2.549v12.707H166.7v-12.706v0h2.552   C172.604,283.538,177.685,286.141,183.372,286.141z" fill="#FFFFFF"/>
	<path id="XMLID_895_" d="M250.544,73.004c19.39,0,35.138-15.746,35.138-35.138c0-19.407-15.732-35.139-35.138-35.139   c-19.406,0-35.138,15.732-35.138,35.139C215.406,57.27,231.165,73.004,250.544,73.004z" fill="#FFFFFF"/>
</g>
<g>
</g>
<g>
</g>
<g>
</g>
<g>
</g>
<g>
</g>
<g>
</g>
<g>
</g>
<g>
</g>
<g>
</g>
<g>
</g>
<g>
</g>
<g>
</g>
<g>
</g>
<g>
</g>
<g>
</g>
</svg>
