<?xml version="1.0" encoding="iso-8859-1"?>
<!-- Generator: Adobe Illustrator 16.0.0, SVG Export Plug-In . SVG Version: 6.00 Build 0)  -->
<!DOCTYPE svg PUBLIC "-//W3C//DTD SVG 1.1//EN" "http://www.w3.org/Graphics/SVG/1.1/DTD/svg11.dtd">
<svg xmlns="http://www.w3.org/2000/svg" xmlns:xlink="http://www.w3.org/1999/xlink" version="1.1" id="Capa_1" x="0px" y="0px" width="512px" height="512px" viewBox="0 0 484.667 484.667" style="enable-background:new 0 0 484.667 484.667;" xml:space="preserve">
<g>
	<g id="icons_25_">
		<g>
			<path d="M159.606,202.411c18.522,0,33.54-15.018,33.54-33.541s-15.018-33.542-33.54-33.542c-18.529,0-33.54,15.019-33.54,33.542     S141.077,202.411,159.606,202.411z" fill="#FFFFFF"/>
			<path d="M266.755,85.359c9.469,1.791,16.711,6.714,18.163,11.407c0.624,2.018,2.489,3.395,4.603,3.395s3.979-1.377,4.604-3.395     c1.816-5.873,11.167-12.114,24.917-12.114c9.481,0,18.139,3.128,22.594,8.167c1.312,1.483,3.396,2.014,5.26,1.335     c1.861-0.678,3.117-2.426,3.167-4.408c0.391-15.598-2.021-44.912-22.562-65.972C313.407,9.323,293.324,1.357,267.734,0.043     L253.227,0c-26.048,1.163-46.458,9.142-60.729,23.774c-20.54,21.06-22.952,50.374-22.562,65.972     c0.05,1.981,1.306,3.729,3.167,4.408c1.86,0.678,3.947,0.148,5.26-1.335c4.455-5.039,13.112-8.167,22.595-8.167     c13.75,0,23.102,6.241,24.917,12.113c0.625,2.019,2.49,3.396,4.604,3.396c2.112,0,3.979-1.377,4.604-3.395     c1.5-4.849,8.139-9.946,18.146-11.576v86.27c-1.479,1.694-2.382,3.904-2.382,6.329v17.712c0,0-35.09,16.156-50.838,21     c-6.94,2.136-14.584,6.08-21.607,0.786c-11.326-8.539-37.907-10.692-52.333,4.598s-44.856,52.102-58.043,71.76     c-5.386,8.051-3.246,18.947,4.799,24.34c3,2.01,6.386,2.972,9.748,2.972c5.653,0,11.21-2.729,14.584-7.777     c5.104-7.604,17.538-25.653,25.392-35.714c1.05-1.346,2.771-0.93,2.834,0.482c0.876,19.554,0.462,37.056,1.135,61.824     c0.134,4.918-0.116,6.888-3.252,14.099c-3.135,7.211-29.648,67.204-41.394,107.172c-2.87,9.756,2.718,19.995,12.472,22.869     c2.209,0.649,4.441,0.865,6.592,0.704c7.427-0.565,14.057-5.628,16.276-13.182c10.837-36.854,36.088-96.158,37.138-98.328     c0.955-1.972,2.607-1.304,2.996,0.037c0.271,0.945,25.14,68.21,35.582,99.312c7.582,22.665,42.755,10.895,35.152-11.776     c-11.406-34.009-27.083-73.987-38.453-107.993c-0.662-1.947-2.265-9.586-2.488-12.084c-1.651-18.398-2.713-73.854-2.713-78.268     s2.833-6.165,4.927-6.891c35.768-12.395,54.944-17.726,71.515-31.823c2.104-1.79,3.656-3.708,4.735-5.668     c2.473-4.125,3.537-9.046,3.537-14.412v-25.749c0-2.425-0.903-4.635-2.383-6.329L266.755,85.359L266.755,85.359z" fill="#FFFFFF"/>
			<path d="M361.062,219.536c-3.56-0.412-7.771-0.758-12.261-0.771c-4.491,0.013-8.702,0.36-12.261,0.771     c-46.932,5.429-62.159,59.805-57.856,101.219c1.865,17.904,30.089,18.087,28.203,0c-1.425-13.751-0.994-33.877,5.16-49.589     c0.6-1.532,1.968-1.799,1.968,0.077c-0.014,30.557-0.188,153.767-2.008,197.852c-0.859,20.806,31.395,20.72,32.248,0     c1.513-36.677,1.984-106.796,1.984-110.073c0-1.768,1.334-2.584,2.562-2.446c1.229-0.138,2.563,0.679,2.563,2.446     c0,3.276,0.47,73.396,1.983,110.073c0.854,20.72,33.107,20.806,32.248,0c-1.82-44.085-1.994-167.295-2.008-197.852     c-0.001-1.876,1.368-1.609,1.968-0.077c6.153,15.712,6.585,35.837,5.159,49.589c-1.886,18.087,26.337,17.904,28.203,0     C423.219,279.341,407.992,224.965,361.062,219.536z" fill="#FFFFFF"/>
			<path d="M348.8,147.413c-0.17-0.002-0.338-0.013-0.509-0.013c-17.238,0-31.214,13.971-31.214,31.217     c0,17.23,13.976,31.208,31.214,31.208c0.171,0,0.339-0.01,0.509-0.013c0.17,0.003,0.337,0.013,0.508,0.013     c17.238,0,31.214-13.978,31.214-31.208c0-17.246-13.976-31.217-31.214-31.217C349.138,147.4,348.97,147.411,348.8,147.413z" fill="#FFFFFF"/>
		</g>
	</g>
</g>
<g>
</g>
<g>
</g>
<g>
</g>
<g>
</g>
<g>
</g>
<g>
</g>
<g>
</g>
<g>
</g>
<g>
</g>
<g>
</g>
<g>
</g>
<g>
</g>
<g>
</g>
<g>
</g>
<g>
</g>
</svg>
