<?xml version="1.0" encoding="utf-8"?>
<!-- Generator: Adobe Illustrator 18.1.1, SVG Export Plug-In . SVG Version: 6.00 Build 0)  -->
<svg version="1.1" id="Слой_1" xmlns="http://www.w3.org/2000/svg" xmlns:xlink="http://www.w3.org/1999/xlink" x="0px" y="0px"
	 viewBox="-49 141 512 512" enable-background="new -49 141 512 512" xml:space="preserve">
<g>
	<g>
		<path fill="#2F383E" d="M215,517.2v40.1c5.3-1,9.7-3.3,13-7.2c3.3-3.8,5-8.3,5-13.4c0-4.6-1.4-8.6-4.2-11.9
			C226,521.6,221.4,519,215,517.2z"/>
		<path fill="#2F383E" d="M185.8,465.8c0,3.6,1.1,7,3.4,10.1c2.3,3.1,5.7,5.6,10.3,7.6v-35.6c-4.2,1.4-7.5,3.7-10,7
			C187,458.1,185.8,461.8,185.8,465.8z"/>
		<path fill="#2F383E" d="M247.4,564.4c-7.8,8.5-18.6,13.7-32.5,15.6v19.2h-15.5v-18.7c-12.3-1.4-22.3-5.9-29.9-13.3
			c-7.7-7.4-12.6-17.9-14.7-31.4l27.8-2.9c1.1,5.5,3.3,10.2,6.4,14.2c3.1,4,6.6,6.9,10.4,8.6v-43.1c-13.9-3.8-24.1-9.7-30.6-17.4
			c-6.5-7.8-9.8-17.2-9.8-28.4c0-11.3,3.7-20.7,11-28.4c7.4-7.7,17.1-12.1,29.4-13.2V415H215v10.2c11.3,1.3,20.3,5,27,11.2
			c6.7,6.1,10.9,14.4,12.8,24.6l-27,3.4c-1.6-8.1-5.9-13.6-12.8-16.5v40.2c17.1,4.5,28.7,10.2,34.9,17.3c6.2,7.1,9.3,16.2,9.3,27.3
			C259.1,545.5,255.2,555.9,247.4,564.4L247.4,564.4z M431.6,372.6H-17.6c-11.3,0-20.4,9.1-20.4,20.4v228.6
			c0,11.3,9.1,20.4,20.4,20.4h449.2c11.3,0,20.4-9.1,20.4-20.4V393C452,381.7,442.9,372.6,431.6,372.6L431.6,372.6z"/>
		<path fill="#2F383E" d="M378,300H36c-11.3,0-20.4,9.1-20.4,20.4c0,11.3,9.1,20.4,20.4,20.4h342c11.3,0,20.4-9.1,20.4-20.4
			C398.4,309.2,389.3,300,378,300z"/>
		<path fill="#2F383E" d="M97.3,266.8h219.5c11.3,0,20.4-9.1,20.4-20.4c0-11.3-9.1-20.4-20.4-20.4H97.3c-11.3,0-20.4,9.1-20.4,20.4
			C76.8,257.7,86,266.8,97.3,266.8L97.3,266.8z"/>
		<path fill="#2F383E" d="M170.5,192.8h73.1c11.3,0,20.4-9.1,20.4-20.4c0-11.3-9.1-20.4-20.4-20.4h-73.1c-11.3,0-20.4,9.1-20.4,20.4
			C150.1,183.7,159.2,192.8,170.5,192.8z"/>
	</g>
</g>
</svg>
