<?xml version="1.0" encoding="utf-8"?>
<!-- Generator: Adobe Illustrator 18.1.1, SVG Export Plug-In . SVG Version: 6.00 Build 0)  -->
<svg version="1.1" id="Capa_1" xmlns="http://www.w3.org/2000/svg" xmlns:xlink="http://www.w3.org/1999/xlink" x="0px" y="0px"
	 viewBox="-49 141 512 512" enable-background="new -49 141 512 512" xml:space="preserve">
<g>
	<g>
		<path fill="#2F383E" d="M-48.9,141v147h85.7v-59.7H-0.6c-7.7,0-13.8-6.1-13.8-13.8c0-7.7,6.1-13.8,13.8-13.8h415.2
			c7.7,0,13.8,6.1,13.8,13.8c0,7.7-6.1,13.8-13.8,13.8h-37.4v60.1h85.7V141H-48.9z"/>
		<path fill="#2F383E" d="M64,228.4V653h286.4V228.4H64z M207.1,574.5c-10.6,0-18.7-7.7-18.7-17c0-9.3,8.6-17,18.7-17
			c10.6,0,18.7,7.7,18.7,17C225.8,566.8,217.6,574.5,207.1,574.5z M207.1,449.8c-58.5,0-105.6-33.3-105.6-74.4S149,301,207.1,301
			s105.6,33.3,105.6,74.4S265.6,449.8,207.1,449.8z"/>
	</g>
</g>
</svg>
