<?xml version="1.0" encoding="iso-8859-1"?>
<!-- Generator: Adobe Illustrator 19.0.0, SVG Export Plug-In . SVG Version: 6.00 Build 0)  -->
<svg xmlns="http://www.w3.org/2000/svg" xmlns:xlink="http://www.w3.org/1999/xlink" version="1.1" id="Capa_1" x="0px" y="0px" viewBox="0 0 490 490" style="enable-background:new 0 0 490 490;" xml:space="preserve" width="512px" height="512px">
<g>
	<g>
		<path d="M0.05,0v140.7h82V83.6h-35.7c-7.4,0-13.2-5.8-13.2-13.2c0-7.4,5.8-13.2,13.2-13.2h397.4c7.4,0,13.2,5.8,13.2,13.2    c0,7.4-5.8,13.2-13.2,13.2h-35.8v57.5h82V0H0.05z" fill="#FFFFFF"/>
		<path d="M108.15,83.6V490h274.1V83.6H108.15z M245.05,414.9c-10.1,0-17.9-7.4-17.9-16.3s8.2-16.3,17.9-16.3    c10.1,0,17.9,7.4,17.9,16.3S255.15,414.9,245.05,414.9z M245.05,295.5c-56,0-101.1-31.9-101.1-71.2s45.5-71.2,101.1-71.2    s101.1,31.9,101.1,71.2S301.05,295.5,245.05,295.5z" fill="#FFFFFF"/>
	</g>
</g>
<g>
</g>
<g>
</g>
<g>
</g>
<g>
</g>
<g>
</g>
<g>
</g>
<g>
</g>
<g>
</g>
<g>
</g>
<g>
</g>
<g>
</g>
<g>
</g>
<g>
</g>
<g>
</g>
<g>
</g>
</svg>
