<?xml version="1.0" encoding="utf-8"?>
<!-- Generator: Adobe Illustrator 18.1.1, SVG Export Plug-In . SVG Version: 6.00 Build 0)  -->
<svg version="1.1" id="Capa_1" xmlns="http://www.w3.org/2000/svg" xmlns:xlink="http://www.w3.org/1999/xlink" x="0px" y="0px"
	 viewBox="-49 141 512 512" enable-background="new -49 141 512 512" xml:space="preserve">
<g>
	<g>
		<path fill="#2F383E" d="M435.3,351.1h-90.8l-65.3-157.3c-5.8-14.1-22.1-20.8-36.1-15c-14.1,5.9-20.8,22.1-14.9,36.1l56.5,136.1
			H129.2l56.5-136.2c5.8-14.1-0.8-30.3-14.9-36.1c-14-5.9-30.2,0.9-36.1,15L69.4,351.1h-90.8c-15.3,0-27.6,12.3-27.6,27.5
			c0,15.2,12.3,27.5,27.6,27.5h9.5l28.1,153.7c6.1,33.2,35,57.4,68.7,57.4H329c33.8,0,62.6-24.2,68.7-57.4l28.1-153.7h9.5
			c15.3,0,27.6-12.3,27.6-27.5C463,363.4,450.6,351.1,435.3,351.1z"/>
	</g>
</g>
</svg>
