<?xml version="1.0" encoding="iso-8859-1"?>
<!-- Generator: Adobe Illustrator 16.0.0, SVG Export Plug-In . SVG Version: 6.00 Build 0)  -->
<!DOCTYPE svg PUBLIC "-//W3C//DTD SVG 1.1//EN" "http://www.w3.org/Graphics/SVG/1.1/DTD/svg11.dtd">
<svg xmlns="http://www.w3.org/2000/svg" xmlns:xlink="http://www.w3.org/1999/xlink" version="1.1" id="Capa_1" x="0px" y="0px" width="512px" height="512px" viewBox="0 0 45.829 45.829" style="enable-background:new 0 0 45.829 45.829;" xml:space="preserve">
<g>
	<g>
		<path d="M43.353,18.806h-8.125L29.383,4.724c-0.521-1.262-1.974-1.866-3.229-1.339c-1.263,0.524-1.859,1.974-1.336,3.235    l5.056,12.186H15.952l5.056-12.188c0.523-1.26-0.075-2.709-1.337-3.233c-1.257-0.527-2.707,0.079-3.229,1.341l-5.845,14.08H2.472    C1.105,18.806,0,19.905,0,21.271c0,1.364,1.105,2.464,2.472,2.464h0.852l2.515,13.761c0.543,2.97,3.131,5.138,6.15,5.138h21.85    c3.021,0,5.606-2.168,6.149-5.138l2.516-13.761h0.853c1.366,0,2.473-1.101,2.473-2.464C45.825,19.904,44.72,18.806,43.353,18.806z    " fill="#FFFFFF"/>
	</g>
</g>
<g>
</g>
<g>
</g>
<g>
</g>
<g>
</g>
<g>
</g>
<g>
</g>
<g>
</g>
<g>
</g>
<g>
</g>
<g>
</g>
<g>
</g>
<g>
</g>
<g>
</g>
<g>
</g>
<g>
</g>
</svg>
