<?xml version="1.0" encoding="utf-8"?>
<!-- Generator: Adobe Illustrator 18.1.1, SVG Export Plug-In . SVG Version: 6.00 Build 0)  -->
<svg version="1.1" id="Capa_1" xmlns="http://www.w3.org/2000/svg" xmlns:xlink="http://www.w3.org/1999/xlink" x="0px" y="0px"
	 viewBox="-49 141 512 512" enable-background="new -49 141 512 512" xml:space="preserve">
<g>
	<path fill="#2F383E" d="M444,474c-9.8-0.7-30,10.2-35.6,13c-19.7,9.9-47.2,25.5-65.2,37.9c-1.3,0.8-2.9,2-4.2,2.8
		c-8.1,5.2-16.7,8.7-26.2,10.7c-52.4,11.2-128.6,12.3-128.6,12.3l-4.5,0.2c-3.3,0.2-6.4-2.2-6.8-5.4c-0.5-3.5,2.1-6.9,5.8-7.2
		l113.4-10.7c12.5-1.4,22.4-13,21.1-26.2c-1.4-13.1-13.5-22.7-26-21.4l-100.9-1.3c-6.9-0.1-17.8-1.8-24.4-3.8
		c-65-19-101.7-1.3-121.2,7.1c-4.4-7.2-12.6-11.9-21.8-11.3l-43.5,2.9c-14.5,0.9-25.4,13-24.4,27l7,96.6c1,14,13.6,24.5,28.1,23.5
		l43.5-2.9c9.2-0.6,16.7-6.3,19.9-14l191.1,8.2c21.3,2.3,41.2-0.3,60-10.1l5.4-2.8l144.5-84.5c7.1-4.2,12.1-11.4,12.4-19.3
		C463.3,485.8,457.8,475.1,444,474z M2.1,598.1c-8.1,0-14.8-6.4-14.8-14.3s6.7-14.3,14.8-14.3s14.8,6.4,14.8,14.3
		S10.2,598.1,2.1,598.1z M334.6,488.8c15.2-8.3,45.1-22.7,61.3-29.1c8.1-3.2,16.2-3,23.6,2c-5.8,2.1-11.3,4.7-16.4,7.2
		c-17.1,8.6-47.3,24.9-62,35.3c-1.5,1-3,2.1-4.5,3.1c0.2-2.6,0.2-5.3-0.1-8c-0.3-3.4-1.1-6.7-2.2-9.8
		C334.4,489.2,334.5,489,334.6,488.8z M380.2,450c-11.8,5.2-34.4,13.1-45.2,19.1l-7.3,4c-0.7,0.4-1.4,0.8-2,1.4
		c-3.2-3.9-7.1-7.1-11.4-9.7c10-5.3,32.3-12.5,42.5-16.5C364.9,445,372.7,445.2,380.2,450z M70.9,384.1c0-6.1,4.9-11,11-11h273
		c6.1,0,11,4.9,11,11c0,6.1-4.9,11-11,11H81.8C75.8,395,70.9,390.1,70.9,384.1z M70.9,423.7c0-6.1,4.9-11,11-11h273
		c6.1,0,11,4.9,11,11s-4.9,11-11,11H81.8C75.8,434.7,70.9,429.8,70.9,423.7z M284.4,264.4c0-8.6,7-15.5,15.5-15.5
		c8.6,0,15.5,7,15.5,15.5c0,8.6-7,15.5-15.5,15.5C291.3,280,284.4,273,284.4,264.4z M121.3,264.4c0-8.6,7-15.5,15.5-15.5
		c8.6,0,15.5,7,15.5,15.5c0,8.6-7,15.5-15.5,15.5C128.2,280,121.3,273,121.3,264.4z M96.3,355.8h244.1c14.1,0,25.6-11.5,25.6-25.6
		V198.6c0-14.1-11.5-25.6-25.6-25.6H96.3c-14.1,0-25.6,11.5-25.6,25.6v131.7C70.7,344.3,82.2,355.8,96.3,355.8z M92.5,225.1
		c1.5,0.3,3,0.4,4.6,0.4c14.3,0,25.9-11.6,25.9-25.9c0-1.7-0.2-3.2-0.4-4.8h190.1c-0.5,2-0.8,4.2-0.8,6.4
		c0,14.3,11.6,25.9,25.9,25.9c2.2,0,4.4-0.3,6.4-0.8v79.4c-2.1-0.5-4.2-0.8-6.4-0.8c-14.3,0-25.9,11.6-25.9,25.9
		c0,1,0.1,2.2,0.2,3.2H122.6c0.3-1.6,0.4-3.1,0.4-4.8c0-14.3-11.6-25.9-25.9-25.9c-1.6,0-3,0.1-4.6,0.4V225.1z M218.3,320.5
		c31,0,56-25.1,56-56s-25.1-56-56-56c-31,0-56,25.1-56,56S187.4,320.5,218.3,320.5z M198.2,276.3l10.4-0.2c1,0,2,0.7,2.1,1.8
		c0.2,2.7,1,4.7,2.3,5.9c1.6,1.6,3.7,2.4,6.2,2.4c2.1,0,3.7-0.6,4.8-1.9c1-1.3,1.7-2.8,1.7-4.8c0-2.3-0.5-4.1-1.7-5.3
		c-1.1-1.3-3.1-2.5-5.9-3.8c-6.9-2.7-11.9-5.5-15-8.3c-3.1-2.8-4.7-7-4.7-12.4c0-4.9,1.7-9,5-12.2c3-2.9,7-4.7,11.8-5.4v-7.7
		c0-0.9,0.8-1.8,1.8-1.8h6.4c0.9,0,1.8,0.8,1.8,1.8v7.9c4.6,0.9,8.2,3,11.1,6.3c2.7,3.1,4.2,7,4.4,11.6c0.1,1.1-0.9,2.1-2.1,2.1
		l-10.5,0.2c-1,0-2-0.7-2.1-1.8c-0.2-2.3-0.8-4.1-1.8-5.3c-1.3-1.6-2.8-2.3-4.9-2.3s-3.7,0.6-4.6,1.9c-1,1.3-1.5,2.9-1.5,4.9
		s0.5,3.7,1.6,4.9c1,1.3,3,2.5,5.9,3.9c6.8,2.9,11.8,5.7,14.9,8.7c3.1,2.9,4.8,7,4.8,12.3c0,5.1-1.6,9.2-4.8,12.3
		c-2.7,2.6-6.3,4.4-10.5,5.1v7.4c0,0.9-0.8,1.8-1.8,1.8h-6.4c-0.9,0-1.8-0.8-1.8-1.8v-7.2c-5.4-0.6-9.9-2.6-13.5-5.8
		c-3.3-3-5.1-7.3-5.4-12.9C196.1,277.4,197.2,276.3,198.2,276.3z"/>
</g>
</svg>
