<?xml version="1.0" encoding="iso-8859-1"?>
<!-- Generator: Adobe Illustrator 19.0.0, SVG Export Plug-In . SVG Version: 6.00 Build 0)  -->
<svg xmlns="http://www.w3.org/2000/svg" xmlns:xlink="http://www.w3.org/1999/xlink" version="1.1" id="Capa_1" x="0px" y="0px" viewBox="0 0 490.766 490.766" style="enable-background:new 0 0 490.766 490.766;" xml:space="preserve" width="512px" height="512px">
<g>
	<path d="M472.554,319.199c-9.4-0.7-28.8,9.8-34.1,12.5c-18.9,9.5-45.2,24.4-62.5,36.3c-1.2,0.8-2.8,1.9-4,2.7   c-7.8,5-16,8.3-25.1,10.3c-50.2,10.7-123.3,11.8-123.3,11.8l-4.3,0.2c-3.2,0.2-6.1-2.1-6.5-5.2c-0.5-3.4,2-6.6,5.6-6.9l108.7-10.3   c12-1.3,21.5-12.5,20.2-25.1s-12.9-21.8-24.9-20.5l-96.7-1.2c-6.6-0.1-17.1-1.7-23.4-3.6c-62.3-18.2-97.5-1.2-116.2,6.8   c-4.2-6.9-12.1-11.4-20.9-10.8l-41.7,2.8c-13.9,0.9-24.3,12.5-23.4,25.9l6.7,92.6c1,13.4,13,23.5,26.9,22.5l41.7-2.8   c8.8-0.6,16-6,19.1-13.4l183.2,7.9c20.4,2.2,39.5-0.3,57.5-9.7l5.2-2.7l138.5-81c6.8-4,11.6-10.9,11.9-18.5   C491.054,330.499,485.754,320.199,472.554,319.199z M48.954,438.099c-7.8,0-14.2-6.1-14.2-13.7s6.4-13.7,14.2-13.7   s14.2,6.1,14.2,13.7S56.754,438.099,48.954,438.099z M367.654,333.399c14.6-8,43.2-21.8,58.8-27.9c7.8-3.1,15.5-2.9,22.6,1.9   c-5.6,2-10.8,4.5-15.7,6.9c-16.4,8.2-45.3,23.9-59.4,33.8c-1.4,1-2.9,2-4.3,3c0.2-2.5,0.2-5.1-0.1-7.7c-0.3-3.3-1.1-6.4-2.1-9.4   C367.454,333.799,367.554,333.599,367.654,333.399z M411.354,296.199c-11.3,5-33,12.6-43.3,18.3l-7,3.8c-0.7,0.4-1.3,0.8-1.9,1.3   c-3.1-3.7-6.8-6.8-10.9-9.3c9.6-5.1,31-12,40.7-15.8C396.754,291.399,404.254,291.599,411.354,296.199z M114.954,232.999   c0-5.8,4.7-10.5,10.5-10.5h261.7c5.8,0,10.5,4.7,10.5,10.5s-4.7,10.5-10.5,10.5h-261.8   C119.654,243.499,114.954,238.799,114.954,232.999z M114.954,270.999c0-5.8,4.7-10.5,10.5-10.5h261.7c5.8,0,10.5,4.7,10.5,10.5   s-4.7,10.5-10.5,10.5h-261.8C119.654,281.499,114.954,276.799,114.954,270.999z M319.554,118.299c0-8.2,6.7-14.9,14.9-14.9   c8.2,0,14.9,6.7,14.9,14.9s-6.7,14.9-14.9,14.9C326.154,133.199,319.554,126.499,319.554,118.299z M163.254,118.299   c0-8.2,6.7-14.9,14.9-14.9s14.9,6.7,14.9,14.9s-6.7,14.9-14.9,14.9C169.854,133.199,163.254,126.499,163.254,118.299z    M139.254,205.899h234c13.5,0,24.5-11,24.5-24.5v-126.2c0-13.5-11-24.5-24.5-24.5h-234c-13.5,0-24.5,11-24.5,24.5v126.2   C114.754,194.899,125.754,205.899,139.254,205.899z M135.654,80.599c1.4,0.3,2.9,0.4,4.4,0.4c13.7,0,24.8-11.1,24.8-24.8   c0-1.6-0.2-3.1-0.4-4.6h182.2c-0.5,1.9-0.8,4-0.8,6.1c0,13.7,11.1,24.8,24.8,24.8c2.1,0,4.2-0.3,6.1-0.8v76.1c-2-0.5-4-0.8-6.1-0.8   c-13.7,0-24.8,11.1-24.8,24.8c0,1,0.1,2.1,0.2,3.1h-181.6c0.3-1.5,0.4-3,0.4-4.6c0-13.7-11.1-24.8-24.8-24.8   c-1.5,0-2.9,0.1-4.4,0.4V80.599z M256.254,172.099c29.7,0,53.7-24.1,53.7-53.7s-24.1-53.7-53.7-53.7c-29.7,0-53.7,24.1-53.7,53.7   S226.554,172.099,256.254,172.099z M236.954,129.699l10-0.2c1,0,1.9,0.7,2,1.7c0.2,2.6,1,4.5,2.2,5.7c1.5,1.5,3.5,2.3,5.9,2.3   c2,0,3.5-0.6,4.6-1.8c1-1.2,1.6-2.7,1.6-4.6c0-2.2-0.5-3.9-1.6-5.1c-1.1-1.2-3-2.4-5.7-3.6c-6.6-2.6-11.4-5.3-14.4-8   s-4.5-6.7-4.5-11.9c0-4.7,1.6-8.6,4.8-11.7c2.9-2.8,6.7-4.5,11.3-5.2v-7.4c0-0.9,0.8-1.7,1.7-1.7h6.1c0.9,0,1.7,0.8,1.7,1.7v7.6   c4.4,0.9,7.9,2.9,10.6,6c2.6,3,4,6.7,4.2,11.1c0.1,1.1-0.9,2-2,2l-10.1,0.2c-1,0-1.9-0.7-2-1.7c-0.2-2.2-0.8-3.9-1.7-5.1   c-1.2-1.5-2.7-2.2-4.7-2.2s-3.5,0.6-4.4,1.8c-1,1.2-1.4,2.8-1.4,4.7c0,1.9,0.5,3.5,1.5,4.7s2.9,2.4,5.7,3.7   c6.5,2.8,11.3,5.5,14.3,8.3c3,2.8,4.6,6.7,4.6,11.8c0,4.9-1.5,8.8-4.6,11.8c-2.6,2.5-6,4.2-10.1,4.9v7.1c0,0.9-0.8,1.7-1.7,1.7   h-6.1c-0.9,0-1.7-0.8-1.7-1.7v-6.9c-5.2-0.6-9.5-2.5-12.9-5.6c-3.2-2.9-4.9-7-5.2-12.4   C234.954,130.699,235.954,129.699,236.954,129.699z" fill="#FFFFFF"/>
</g>
<g>
</g>
<g>
</g>
<g>
</g>
<g>
</g>
<g>
</g>
<g>
</g>
<g>
</g>
<g>
</g>
<g>
</g>
<g>
</g>
<g>
</g>
<g>
</g>
<g>
</g>
<g>
</g>
<g>
</g>
</svg>
