<?xml version="1.0" encoding="utf-8"?>
<!-- Generator: Adobe Illustrator 18.1.1, SVG Export Plug-In . SVG Version: 6.00 Build 0)  -->
<svg version="1.1" id="Layer_1" xmlns="http://www.w3.org/2000/svg" xmlns:xlink="http://www.w3.org/1999/xlink" x="0px" y="0px"
	 viewBox="-49 141 512 512" enable-background="new -49 141 512 512" xml:space="preserve">
<g id="XMLID_830_">
	<g>
		<g>
			<path fill="#2F383E" d="M326.9,525.1L326.9,525.1c-24.5,0-44.5-20-44.5-44.5v-73.9c0-24.5,20-44.5,44.5-44.5h115.9
				c0.7,0,1.4,0,2.1,0.1v-73.6c0-18.9-15.4-34.3-34.3-34.3H-14.7c-18.9,0-34.3,15.4-34.3,34.3v310c0,18.9,15.4,34.3,34.3,34.3h425.4
				c18.9,0,34.3-15.4,34.3-34.3V525c-0.7,0-1.4,0.1-2.1,0.1H326.9z"/>
			<path fill="#2F383E" d="M442.9,386.6H326.9c-11.1,0-20.1,9-20.1,20.1v73.9c0,11.1,9,20.1,20.1,20.1h115.9
				c11.1,0,20.1-9,20.1-20.1v-73.9C463,395.6,454,386.6,442.9,386.6z M366.9,472.7c-16,0-29-13-29-29c0-16,13-29,29-29
				c16,0,29,13,29,29C395.9,459.7,382.9,472.7,366.9,472.7z"/>
			<path fill="#2F383E" d="M350.9,191.5c-7.7-23.2-32.7-35.8-56-28.2l-174.3,57.6h240L350.9,191.5z"/>
		</g>
	</g>
</g>
</svg>
