<?xml version="1.0" encoding="iso-8859-1"?>
<!-- Generator: Adobe Illustrator 16.0.0, SVG Export Plug-In . SVG Version: 6.00 Build 0)  -->
<!DOCTYPE svg PUBLIC "-//W3C//DTD SVG 1.1//EN" "http://www.w3.org/Graphics/SVG/1.1/DTD/svg11.dtd">
<svg xmlns="http://www.w3.org/2000/svg" xmlns:xlink="http://www.w3.org/1999/xlink" version="1.1" id="Capa_1" x="0px" y="0px" width="512px" height="512px" viewBox="0 0 435.047 435.047" style="enable-background:new 0 0 435.047 435.047;" xml:space="preserve">
<g>
	<g>
		<path d="M202.011,205.437c-6.501-2.273-9.219-3.666-9.219-6.391c0-4.857,5.021-6.143,7.679-6.143c5.097,0,6.143,2.068,6.143,5.172    v0.242c0,2.232,1.81,4.043,4.039,4.043h1.041c2.23,0,4.039-1.807,4.041-4.039l0.006-7.01c0-1.133-0.475-2.215-1.308-2.98    c-2.535-2.326-5.821-3.617-10.003-3.924v-4.598c0-2.232-1.811-4.041-4.039-4.041h-0.974c-2.229,0-4.04,1.809-4.04,4.041v4.918    c-6.099,1.684-11.879,7.248-11.879,14.643c0,8.82,7.777,11.482,14.64,13.83c7.115,2.438,10.091,4.021,10.091,7.508    c0,5.041-5.234,6.386-8.326,6.386c-3.125,0-6.991-0.892-8.036-2.361c-0.457-0.654-0.765-1.926-0.915-3.785    c-0.172-2.098-1.923-3.715-4.027-3.715h-0.821c-1.079,0-2.11,0.43-2.871,1.198c-0.758,0.764-1.18,1.799-1.17,2.877l0.063,7.948    c0.013,1.802,1.216,3.371,2.95,3.858c0.175,0.05,0.408,0.103,0.644,0.154l0.192,0.041c3.603,1.006,6.862,1.877,9.467,2.207v6.691    c0,2.23,1.811,4.039,4.04,4.039h0.974c2.229,0,4.039-1.809,4.039-4.039v-6.838c6.717-1.412,13.094-6.979,13.094-14.824    C217.523,210.867,208.922,207.857,202.011,205.437z" fill="#FFFFFF"/>
		<path d="M410.734,74.918V0c-21.198,9.292-61.076,22.585-79.635,23.641c-18.56,1.056-105.775-12.639-129.403-6.725    c-19.016,4.76-123.429,83.334-154.574,105.002c-49.723,34.593-5.72,40.138,15.158,32.136    c21.008-8.052,88.712-45.871,88.712-45.871c-0.214,7.662,0.944,18.508,7.797,30.219c0,0,7.75,10.864,17.037,21.499    c-20.04,9.137-34.006,29.351-34.006,52.773c0,19.896,10.078,37.48,25.396,47.926H67.012c-5.549,0-10.048,4.498-10.048,10.047    v154.35c0,5.553,4.499,10.051,10.048,10.051h265.562c5.548,0,10.047-4.498,10.047-10.051v-154.35    c0-5.549-4.499-10.047-10.047-10.047H232.371c15.316-10.445,25.395-28.029,25.395-47.926c0-14.541-5.394-27.838-14.27-38.025    c-0.106-0.089-0.2-0.186-0.289-0.284c14.482-7.218,29.704-20.151,66.559-35.225C371.839,113.751,392.863,84.917,410.734,74.918z     M239.722,133.696c-11.633,8.212-19.572,16.233-24.203,23.19c-2.611-0.737-5.295-1.295-8.039-1.664    c-2.399-7.765-6.52-17.979-12.799-31.504c0,0-2.882-6.779-1.932-14.885c2.37-9.058,10.55-18.772,33.664-21.755    c38.92-5.022,44.443,14.654,26.855,35.14C249.515,126.107,244.982,129.983,239.722,133.696z M245.2,284.544    c5.521,0,10.014,4.49,10.014,10.013c0,5.52-4.491,10.012-10.014,10.012h-90.814c-5.521,0-10.012-4.492-10.012-10.012    c0-5.521,4.491-10.013,10.012-10.013H245.2z M199.793,255.376c-23.547,0-42.705-19.155-42.705-42.703    c0-23.547,19.158-42.703,42.705-42.703c3.474,0,6.847,0.426,10.081,1.213c-0.005,6.768,5.262,10.629,13.948,9.771    c1.334-0.131,2.628-0.316,3.893-0.551c9.042,7.838,14.78,19.393,14.78,32.27C242.496,236.221,223.34,255.376,199.793,255.376z" fill="#FFFFFF"/>
	</g>
</g>
<g>
</g>
<g>
</g>
<g>
</g>
<g>
</g>
<g>
</g>
<g>
</g>
<g>
</g>
<g>
</g>
<g>
</g>
<g>
</g>
<g>
</g>
<g>
</g>
<g>
</g>
<g>
</g>
<g>
</g>
</svg>
