<?xml version="1.0" encoding="utf-8"?>
<!-- Generator: Adobe Illustrator 18.1.1, SVG Export Plug-In . SVG Version: 6.00 Build 0)  -->
<svg version="1.1" id="Capa_1" xmlns="http://www.w3.org/2000/svg" xmlns:xlink="http://www.w3.org/1999/xlink" x="0px" y="0px"
	 viewBox="-49 141 512 512" enable-background="new -49 141 512 512" xml:space="preserve">
<g>
	<g>
		<path fill="#2F383E" d="M188.7,382.8c-7.7-2.7-10.8-4.3-10.8-7.5c0-5.7,5.9-7.2,9-7.2c6,0,7.2,2.4,7.2,6.1v0.3
			c0,2.6,2.1,4.8,4.8,4.8h1.2c2.6,0,4.8-2.1,4.8-4.8l0-8.2c0-1.3-0.6-2.6-1.5-3.5c-3-2.7-6.9-4.3-11.8-4.6v-5.4
			c0-2.6-2.1-4.8-4.8-4.8h-1.1c-2.6,0-4.8,2.1-4.8,4.8v5.8c-7.2,2-14,8.5-14,17.2c0,10.4,9.2,13.5,17.2,16.3
			c8.4,2.9,11.9,4.7,11.9,8.8c0,5.9-6.2,7.5-9.8,7.5c-3.7,0-8.2-1-9.5-2.8c-0.5-0.8-0.9-2.3-1.1-4.5c-0.2-2.5-2.3-4.4-4.7-4.4h-1
			c-1.3,0-2.5,0.5-3.4,1.4c-0.9,0.9-1.4,2.1-1.4,3.4l0.1,9.4c0,2.1,1.4,4,3.5,4.5c0.2,0.1,0.5,0.1,0.8,0.2l0.2,0
			c4.2,1.2,8.1,2.2,11.1,2.6v7.9c0,2.6,2.1,4.8,4.8,4.8h1.1c2.6,0,4.8-2.1,4.8-4.8v-8c7.9-1.7,15.4-8.2,15.4-17.4
			C207,389.2,196.9,385.6,188.7,382.8z"/>
		<path fill="#2F383E" d="M434.4,229.2V141c-24.9,10.9-71.9,26.6-93.7,27.8c-21.8,1.2-124.5-14.9-152.3-7.9
			C166,166.5,43.1,259,6.5,284.5c-58.5,40.7-6.7,47.2,17.8,37.8c24.7-9.5,104.4-54,104.4-54c-0.3,9,1.1,21.8,9.2,35.6
			c0,0,9.1,12.8,20.1,25.3c-23.6,10.8-40,34.5-40,62.1c0,23.4,11.9,44.1,29.9,56.4H29.9c-6.5,0-11.8,5.3-11.8,11.8v181.7
			c0,6.5,5.3,11.8,11.8,11.8h312.5c6.5,0,11.8-5.3,11.8-11.8V459.5c0-6.5-5.3-11.8-11.8-11.8H224.5c18-12.3,29.9-33,29.9-56.4
			c0-17.1-6.3-32.8-16.8-44.8c-0.1-0.1-0.2-0.2-0.3-0.3c17-8.5,35-23.7,78.3-41.5C388.6,274.9,413.4,240.9,434.4,229.2z
			 M233.1,298.3c-13.7,9.7-23,19.1-28.5,27.3c-3.1-0.9-6.2-1.5-9.5-2c-2.8-9.1-7.7-21.2-15.1-37.1c0,0-3.4-8-2.3-17.5
			c2.8-10.7,12.4-22.1,39.6-25.6c45.8-5.9,52.3,17.2,31.6,41.4C244.7,289.4,239.3,294,233.1,298.3z M239.6,475.9
			c6.5,0,11.8,5.3,11.8,11.8c0,6.5-5.3,11.8-11.8,11.8H132.7c-6.5,0-11.8-5.3-11.8-11.8c0-6.5,5.3-11.8,11.8-11.8H239.6z
			 M186.1,441.5c-27.7,0-50.3-22.5-50.3-50.3c0-27.7,22.5-50.3,50.3-50.3c4.1,0,8.1,0.5,11.9,1.4c0,8,6.2,12.5,16.4,11.5
			c1.6-0.2,3.1-0.4,4.6-0.6c10.6,9.2,17.4,22.8,17.4,38C236.4,419,213.8,441.5,186.1,441.5z"/>
	</g>
</g>
</svg>
