<?xml version="1.0" encoding="utf-8"?>
<!-- Generator: Adobe Illustrator 18.1.1, SVG Export Plug-In . SVG Version: 6.00 Build 0)  -->
<svg version="1.1" id="Capa_1" xmlns="http://www.w3.org/2000/svg" xmlns:xlink="http://www.w3.org/1999/xlink" x="0px" y="0px"
	 viewBox="-49 141 512 512" enable-background="new -49 141 512 512" xml:space="preserve">
<g>
	<path fill="#2F383E" d="M369.4,422.6c-5.7,0-11.4,0.3-17.1,0.9c-11.6-24.1-28.7-45.2-50-61.6l-61.5-41.8
		c-10.2-7.8-26.2-17.1-44.8-17.1h-66.4c-16.4,0-32.6,5.6-45.2,15.5l-60.4,44c-63,49.5-82.9,136.2-47.4,206.2
		c17.1,33.7,39.8,53.1,64,54.8c2.3,0.2,4.7,0.2,7,0.2h163.5C223.6,641.5,244,653,267,653c12,0,23.3-3.1,33.1-8.6
		c14.8,5.4,40.6,8.6,69.3,8.6c79.1,0,85.3-18.9,85.3-24.8v-34.1v0V560v0v-34.1v0v-34.1v0v-34.1C454.8,440.2,411.7,422.6,369.4,422.6
		z M139,379.9c-45,0-102.4,62.2-102.4,110.9c0,4.7-3.8,8.5-8.5,8.5s-8.5-3.8-8.5-8.5c0-58.6,64.8-128,119.5-128
		c4.7,0,8.5,3.8,8.5,8.5S143.7,379.9,139,379.9z M437.7,473.9v15.8c-0.7,0.4-1.6,0.9-2.8,1.4c-0.1,0-0.1,0.1-0.2,0.1
		c-1.2,0.5-2.6,1-4.3,1.5c-0.2,0.1-0.3,0.1-0.5,0.1c-1.6,0.5-3.5,1-5.6,1.5c-0.3,0.1-0.5,0.1-0.8,0.2c-2.1,0.5-4.4,0.9-6.9,1.4
		c-0.4,0.1-0.7,0.1-1.1,0.2c-2.6,0.4-5.3,0.8-8.3,1.2c-0.4,0.1-0.8,0.1-1.2,0.2c-3.1,0.4-6.3,0.7-9.8,1c-0.4,0-0.8,0.1-1.3,0.1
		c-3.6,0.3-7.3,0.5-11.3,0.7c-0.3,0-0.6,0-0.9,0c-4.2,0.2-8.6,0.3-13.2,0.3c-38.8,0-62.7-6.1-68.3-9.7V478
		c9.4,0.8,19.4,1.6,28.8,2.2c10.6,1.3,23.5,2.1,39.4,2.1c4.7,0,9.1-0.1,13.3-0.2c1.4,0,2.6-0.1,4-0.2c2.7-0.1,5.4-0.2,7.9-0.4
		c1.5-0.1,2.8-0.2,4.2-0.3c2.2-0.2,4.3-0.3,6.3-0.6c1.4-0.1,2.7-0.3,4-0.5c1.8-0.2,3.6-0.5,5.3-0.7c1.2-0.2,2.4-0.4,3.5-0.6
		c1.6-0.3,3.1-0.6,4.5-0.8c1-0.2,2-0.4,3-0.6c1.4-0.3,2.7-0.7,4-1c0.8-0.2,1.7-0.4,2.5-0.7c1.3-0.4,2.4-0.8,3.5-1.2
		c0.6-0.2,1.3-0.4,1.9-0.6C437.4,473.9,437.6,473.9,437.7,473.9z M382.7,516.3c1.4,0,2.6-0.1,4-0.2c2.7-0.1,5.4-0.2,7.9-0.4
		c1.5-0.1,2.8-0.2,4.2-0.3c2.2-0.2,4.3-0.3,6.3-0.6c1.3-0.1,2.6-0.3,3.9-0.5c1.8-0.2,3.6-0.5,5.3-0.7c1.2-0.2,2.3-0.4,3.5-0.6
		c1.6-0.3,3.1-0.6,4.6-0.9c1-0.2,2-0.4,2.9-0.6c1.4-0.3,2.8-0.7,4.1-1c0.8-0.2,1.6-0.4,2.4-0.6c1.3-0.4,2.5-0.8,3.7-1.2
		c0.6-0.2,1.2-0.4,1.7-0.6c0.1-0.1,0.3-0.1,0.4-0.1v15.8c-0.7,0.4-1.6,0.9-2.8,1.4c-0.1,0-0.1,0.1-0.2,0.1c-1.2,0.5-2.6,1-4.3,1.5
		c-0.2,0.1-0.3,0.1-0.5,0.1c-1.6,0.5-3.5,1-5.6,1.5c-0.3,0.1-0.5,0.1-0.8,0.2c-2.1,0.5-4.4,0.9-6.9,1.4c-0.4,0.1-0.7,0.1-1.1,0.2
		c-2.6,0.4-5.3,0.8-8.3,1.2c-0.4,0.1-0.8,0.1-1.2,0.2c-3.1,0.4-6.3,0.7-9.8,1c-0.4,0-0.8,0.1-1.3,0.1c-3.6,0.3-7.3,0.5-11.3,0.7
		c-0.3,0-0.6,0-0.9,0c-4.2,0.2-8.6,0.3-13.2,0.3c-38.8,0-62.7-6.1-68.3-9.7v-11.6c11.1,0.9,22.8,1.8,33.6,2.5
		c10.8,1.1,22.6,1.7,34.7,1.7C374.1,516.5,378.5,516.4,382.7,516.3z M382.7,550.4c1.4,0,2.6-0.1,4-0.2c2.7-0.1,5.4-0.2,7.9-0.4
		c1.5-0.1,2.8-0.2,4.2-0.3c2.2-0.2,4.3-0.3,6.3-0.6c1.3-0.1,2.6-0.3,3.9-0.5c1.8-0.2,3.6-0.5,5.3-0.7c1.2-0.2,2.3-0.4,3.5-0.6
		c1.6-0.3,3.1-0.6,4.6-0.9c1-0.2,2-0.4,2.9-0.6c1.4-0.3,2.8-0.7,4.1-1c0.8-0.2,1.6-0.4,2.4-0.6c1.3-0.4,2.5-0.8,3.7-1.2
		c0.6-0.2,1.2-0.4,1.7-0.6c0.1-0.1,0.3-0.1,0.4-0.1v15.8c-0.7,0.4-1.6,0.9-2.8,1.4c-0.1,0-0.1,0.1-0.2,0.1c-1.2,0.5-2.6,1-4.3,1.5
		c-0.2,0.1-0.3,0.1-0.5,0.1c-1.6,0.5-3.5,1-5.6,1.5c-0.3,0.1-0.5,0.1-0.8,0.2c-2.1,0.5-4.4,0.9-6.9,1.4c-0.4,0.1-0.7,0.1-1.1,0.2
		c-2.6,0.4-5.3,0.8-8.3,1.2c-0.4,0.1-0.8,0.1-1.2,0.2c-3.1,0.4-6.3,0.7-9.8,1c-0.4,0-0.8,0.1-1.3,0.1c-3.6,0.3-7.3,0.5-11.3,0.7
		c-0.3,0-0.6,0-0.9,0c-4.2,0.2-8.6,0.3-13.2,0.3c-3.7,0-7.3-0.1-10.9-0.2c-1.1,0-2.2-0.1-3.4-0.1c-2.4-0.1-4.8-0.2-7.2-0.4
		c-1.3-0.1-2.5-0.2-3.8-0.3c-2.2-0.2-4.3-0.3-6.3-0.6c-1.3-0.1-2.5-0.3-3.7-0.4c-0.5-0.1-1.1-0.1-1.6-0.2
		c-1.9-6.4-4.6-12.3-8.2-17.8c11.5,1.7,26.1,2.9,45.1,2.9C374.1,550.6,378.5,550.5,382.7,550.4z M382.7,584.5c1.4,0,2.6-0.1,4-0.2
		c2.7-0.1,5.4-0.2,7.9-0.4c1.5-0.1,2.8-0.2,4.2-0.3c2.2-0.2,4.3-0.3,6.3-0.6c1.3-0.1,2.6-0.3,3.9-0.5c1.8-0.2,3.6-0.5,5.3-0.7
		c1.2-0.2,2.3-0.4,3.5-0.6c1.6-0.3,3.1-0.6,4.6-0.9c1-0.2,2-0.4,2.9-0.6c1.4-0.3,2.8-0.7,4.1-1c0.8-0.2,1.6-0.4,2.4-0.6
		c1.3-0.4,2.5-0.8,3.7-1.2c0.6-0.2,1.2-0.4,1.7-0.6c0.1-0.1,0.3-0.1,0.4-0.1v15.8c-0.7,0.4-1.6,0.9-2.8,1.4c-0.1,0-0.1,0.1-0.2,0.1
		c-1.2,0.5-2.6,1-4.3,1.5c-0.2,0.1-0.3,0.1-0.5,0.1c-1.6,0.5-3.5,1-5.6,1.5c-0.3,0.1-0.5,0.1-0.8,0.2c-2.1,0.5-4.4,0.9-6.9,1.4
		c-0.4,0.1-0.7,0.1-1.1,0.2c-2.6,0.4-5.3,0.8-8.3,1.2c-0.4,0.1-0.8,0.1-1.2,0.2c-3.1,0.4-6.3,0.7-9.8,1c-0.4,0-0.8,0.1-1.3,0.1
		c-3.6,0.3-7.3,0.5-11.3,0.7c-0.3,0-0.6,0-0.9,0c-4.2,0.2-8.6,0.3-13.2,0.3c-5.5,0-10.9-0.2-16.2-0.4c-1.2-0.1-2.5-0.1-3.7-0.2
		c-5.1-0.3-10.2-0.7-14.9-1.2c-0.1,0-0.2,0-0.4-0.1c0.7-3.9,1-7.8,1-11.7c0-0.6-0.1-1.3-0.1-1.9c0-0.5,0.1-1,0.1-1.5
		c0-0.6-0.1-1.1-0.1-1.7c7,0.7,14.4,1.1,22,1.4c3.5,0.2,7.3,0.3,12.2,0.3C374.1,584.7,378.5,584.7,382.7,584.5z M435.5,456.7
		c-0.1,0-0.2,0.1-0.3,0.1c-0.9,0.4-2,0.8-3.4,1.3c-0.1,0-0.3,0.1-0.4,0.1c-1.3,0.4-2.8,0.8-4.5,1.3c-0.2,0-0.3,0.1-0.5,0.1
		c-1.7,0.4-3.6,0.9-5.7,1.3c-0.4,0.1-0.7,0.1-1.1,0.2c-2.1,0.4-4.4,0.8-6.8,1.2c-0.3,0.1-0.7,0.1-1.1,0.2c-2.5,0.4-5.1,0.7-7.9,1
		c-0.2,0-0.3,0-0.5,0.1c-2.8,0.3-5.9,0.6-9.1,0.8c-0.6,0-1.2,0.1-1.7,0.1c-3.1,0.2-6.4,0.4-9.9,0.5c-0.6,0-1.3,0-1.9,0.1
		c-3.7,0.1-7.4,0.2-11.4,0.2c-4,0-7.7-0.1-11.4-0.2c-0.6,0-1.3,0-1.9-0.1c-3.4-0.1-6.7-0.3-9.9-0.5c-0.6,0-1.2-0.1-1.7-0.1
		c-3.2-0.2-6.2-0.5-9.1-0.8c-0.2,0-0.3,0-0.5-0.1c-2.8-0.3-5.4-0.7-7.9-1c-0.3-0.1-0.7-0.1-1.1-0.2c-2.4-0.4-4.7-0.8-6.8-1.2
		c-0.4-0.1-0.7-0.1-1.1-0.2c-2.1-0.4-4-0.8-5.7-1.3c-0.2,0-0.3-0.1-0.5-0.1c-1.7-0.4-3.1-0.9-4.5-1.3c-0.1,0-0.3-0.1-0.4-0.1
		c-1.3-0.4-2.4-0.8-3.4-1.3c-0.1,0-0.2-0.1-0.3-0.1c7.9-6,32.2-17,66.1-17S427.6,450.7,435.5,456.7z M223.1,610.9
		c-1.5-2.5-2.7-5.1-3.8-7.7c-0.1-0.2-0.1-0.4-0.2-0.6c-1-2.6-1.8-5.3-2.3-8c0-0.2-0.1-0.4-0.1-0.6c-0.5-2.5-0.7-5.1-0.8-7.7
		c0-0.3-0.1-0.7-0.1-1.1c0-2.6,0.2-5.2,0.5-7.8c0.1-0.6,0.2-1.1,0.3-1.7c0.4-2.2,0.9-4.4,1.6-6.5c0.1-0.2,0.2-0.4,0.2-0.7
		c0.7-2.1,1.6-4.2,2.6-6.3c0.1-0.2,0.2-0.4,0.3-0.6c4.6-9,11.9-16.7,20.7-21.7c0,0,0,0,0.1,0c2-1.1,4.1-2.1,6.3-3
		c0.5-0.2,1.1-0.4,1.6-0.6c1.9-0.7,3.9-1.3,6-1.7c0.2-0.1,0.4-0.1,0.7-0.2c2.5-0.5,4.9-0.8,7.4-0.9c0.5,0,1-0.1,1.6-0.1
		c2.5-0.1,4.9,0,7.3,0.3c0.2,0,0.5,0.1,0.7,0.1c2.5,0.3,5,0.8,7.5,1.5c0.1,0,0.2,0,0.2,0.1c2.6,0.8,5.2,1.7,7.7,2.9
		c17.3,8.2,29.4,25.8,29.4,46.2c0,28.2-23,51.2-51.2,51.2C248.4,635.9,232,625.9,223.1,610.9z M437.7,626.2
		c-5.5,3.6-29.5,9.7-68.3,9.7c-18.9,0-36.7-1.5-50-4.1c3.9-4.7,7.2-9.8,9.7-15.4c0.8,0.1,1.6,0.2,2.4,0.3c1.3,0.2,2.6,0.3,3.9,0.4
		c2.3,0.2,4.6,0.4,6.9,0.6c1.4,0.1,2.7,0.2,4.1,0.3c2.5,0.2,5.1,0.3,7.7,0.4c1.2,0.1,2.4,0.1,3.7,0.2c3.8,0.1,7.7,0.2,11.7,0.2
		c4.7,0,9.1-0.1,13.3-0.2c1.4,0,2.6-0.1,4-0.2c2.7-0.1,5.4-0.2,7.9-0.4c1.5-0.1,2.8-0.2,4.2-0.3c2.2-0.2,4.3-0.3,6.3-0.6
		c1.3-0.1,2.6-0.3,3.9-0.5c1.8-0.2,3.6-0.5,5.3-0.7c1.2-0.2,2.3-0.4,3.5-0.6c1.6-0.3,3.1-0.6,4.6-0.9c1-0.2,2-0.4,2.9-0.6
		c1.4-0.3,2.8-0.7,4.1-1c0.8-0.2,1.6-0.4,2.4-0.6c1.3-0.4,2.5-0.8,3.7-1.2c0.6-0.2,1.2-0.4,1.7-0.6c0.1-0.1,0.3-0.1,0.4-0.1
		L437.7,626.2L437.7,626.2z"/>
	<path fill="#2F383E" d="M224.3,280.1v-19.7c0-4.7-3.8-8.5-8.5-8.5H113.4c-4.7,0-8.5,3.8-8.5,8.5c0,4.7,3.8,8.5,8.5,8.5h93.9v8.5
		h-93.9c-4.7,0-8.5,3.8-8.5,8.5s3.8,8.5,8.5,8.5h101.8c7.6,6.4,17.1,10,27.1,10c11.4,0,22.1-4.4,30.2-12.5c3.3-3.3,3.3-8.7,0-12.1
		c-3.3-3.3-8.7-3.3-12.1,0C250.8,289.6,234,289.7,224.3,280.1z"/>
	<path fill="#2F383E" d="M105.3,226.6c3.5,10.1,12.8,16.8,23.3,16.8h63.4c10.5,0,19.8-6.8,23.3-16.8c3.3-9.6,13.7-31.1,21.8-37.9
		c7.1-6,10.4-15.3,8.7-24.3c-1.7-8.8-7.9-15.8-16.5-18.6c-25.6-8.5-48.4-5.6-65.7,8.3c-3,2.4-7.3,2.4-10.4,0
		c-17.3-13.9-40.1-16.7-65.7-8.3c-8.6,2.8-14.8,9.8-16.5,18.6c-1.7,9,1.6,18.3,8.7,24.3C88.9,196.4,102.9,219.4,105.3,226.6z"/>
</g>
</svg>
