<?xml version="1.0" encoding="iso-8859-1"?>
<!-- Generator: Adobe Illustrator 16.0.0, SVG Export Plug-In . SVG Version: 6.00 Build 0)  -->
<!DOCTYPE svg PUBLIC "-//W3C//DTD SVG 1.1//EN" "http://www.w3.org/Graphics/SVG/1.1/DTD/svg11.dtd">
<svg xmlns="http://www.w3.org/2000/svg" xmlns:xlink="http://www.w3.org/1999/xlink" version="1.1" id="Capa_1" x="0px" y="0px" width="512px" height="512px" viewBox="0 0 908 908" style="enable-background:new 0 0 908 908;" xml:space="preserve">
<g>
	<g>
		<path d="M331,169.5c0-8.3,6.7-15,15-15h216c8.3,0,15,6.7,15,15v60h70v-60c0-46.9-38.1-85-85-85H346c-46.9,0-85,38.1-85,85v60h70    V169.5z" fill="#FFFFFF"/>
		<rect x="483" y="568.4" width="36.6" height="80.8" fill="#FFFFFF"/>
		<rect x="388.4" y="432.6" width="39.5" height="80.801" fill="#FFFFFF"/>
		<path d="M50,823.5h808c27.6,0,50-22.4,50-50v-464c0-27.6-22.4-50-50-50H647h-70H331h-70H50c-27.6,0-50,22.4-50,50v464    C0,801.1,22.4,823.5,50,823.5z M333.4,405.1c0-15.199,12.3-27.5,27.5-27.5h67V336.2c0-15.2,12.3-27.5,27.5-27.5    c15.199,0,27.5,12.3,27.5,27.5V377.6h58.5c15.199,0,27.5,12.301,27.5,27.5c0,15.2-12.301,27.5-27.5,27.5H483V513.4h64.1    c15.2,0,27.5,12.3,27.5,27.5v135.8c0,1.1-0.1,2.2-0.199,3.3c-1.601,13.6-13.2,24.2-27.301,24.2H483v41.3c0,3.9-0.8,7.6-2.3,11    c-4.2,9.7-13.9,16.5-25.2,16.5s-21-6.8-25.2-16.5c-1.5-3.4-2.3-7.1-2.3-11v-41.4h-61.2c-12.1,0-22.3-7.8-26-18.6    c-1-2.8-1.5-5.8-1.5-8.9c0-15.199,12.3-27.5,27.5-27.5H428v-80.8h-67c-15.2,0-27.5-12.3-27.5-27.5V405.1H333.4z" fill="#FFFFFF"/>
	</g>
</g>
<g>
</g>
<g>
</g>
<g>
</g>
<g>
</g>
<g>
</g>
<g>
</g>
<g>
</g>
<g>
</g>
<g>
</g>
<g>
</g>
<g>
</g>
<g>
</g>
<g>
</g>
<g>
</g>
<g>
</g>
</svg>
