<?xml version="1.0" encoding="utf-8"?>
<!-- Generator: Adobe Illustrator 18.1.1, SVG Export Plug-In . SVG Version: 6.00 Build 0)  -->
<svg version="1.1" id="Capa_1" xmlns="http://www.w3.org/2000/svg" xmlns:xlink="http://www.w3.org/1999/xlink" x="0px" y="0px"
	 viewBox="-49 141 512 512" enable-background="new -49 141 512 512" xml:space="preserve">
<g>
	<path fill="#2F383E" d="M157.8,182.9l71.2-41.1c3.8-2.2,8.4,0.5,8.4,4.8v22.6h44.1c49,0,88.9,39.9,88.9,88.9h-37.2
		c0-28.5-23.2-51.7-51.7-51.7h-44.1v22.6c0,4.3-4.6,7-8.4,4.8l-71.2-41.1C154.1,190.4,154.1,185,157.8,182.9z M255.7,601.5
		l-71.2-41.1c-3.8-2.2-8.4,0.5-8.4,4.8v22.6h-44.1c-28.5,0-51.7-23.2-51.7-51.7H43.2c0,49,39.9,88.9,88.9,88.9h44.1v22.6
		c0,4.3,4.6,7,8.4,4.8l71.2-41.1C259.4,609,259.4,603.6,255.7,601.5z M312.5,375.2c-11.1,0-20.2,9-20.2,20.2
		c0,11.1,9,20.2,20.2,20.2c11.1,0,20.2-9,20.2-20.2C332.7,384.2,323.6,375.2,312.5,375.2z M101.4,375.2c-11.1,0-20.2,9-20.2,20.2
		c0,11.1,9,20.2,20.2,20.2c11.1,0,20.2-9,20.2-20.2C121.5,384.2,112.4,375.2,101.4,375.2z M398.2,310.1v170.4
		c0,18.3-14.8,33.1-33.1,33.1H48.9c-18.3,0-33.1-14.8-33.1-33.1V310.1c0-18.3,14.8-33.1,33.1-33.1h316.1
		C383.2,276.9,398.2,291.8,398.2,310.1z M369.9,345.9c-2.6,0.6-5.4,1-8.2,1c-18.5,0-33.5-15-33.5-33.5c0-2.8,0.3-5.5,1-8.1H82.9
		c0.4,2,0.6,4.1,0.6,6.2c0,18.5-15,33.5-33.5,33.5c-2,0-4-0.2-5.8-0.5v101.8c1.9-0.3,3.9-0.5,5.8-0.5c18.5,0,33.5,15,33.5,33.5
		c0,2.1-0.2,4.2-0.6,6.2h245.3c-0.2-1.4-0.3-2.7-0.3-4.2c0-18.5,15-33.5,33.5-33.5c2.8,0,5.6,0.4,8.2,1V345.9H369.9L369.9,345.9z
		 M279.5,395.3c0,40.1-32.5,72.6-72.6,72.6s-72.6-32.5-72.6-72.6s32.5-72.6,72.6-72.6C247,322.6,279.5,355.2,279.5,395.3z
		 M200.2,376.4c0-2.6,0.6-4.7,1.9-6.4s3.2-2.5,6-2.5c2.6,0,4.8,1,6.4,3c1.3,1.7,2,3.9,2.3,6.9c0.1,1.4,1.4,2.3,2.7,2.3l13.6-0.2
		c1.5,0,2.7-1.3,2.6-2.7c-0.3-6-2.3-11-5.7-14.9c-3.6-4.2-8.4-6.9-14.3-8v-10.2c0-1.3-1-2.3-2.3-2.3H205c-1.3,0-2.3,1-2.3,2.3v9.9
		c-6.3,0.9-11.4,3.2-15.4,7c-4.3,4.2-6.5,9.4-6.5,15.8c0,7.1,2,12.4,6.1,16.1c4.1,3.7,10.5,7.2,19.5,10.9c3.7,1.6,6.3,3.2,7.6,4.8
		c1.5,1.7,2.2,4,2.2,7c0,2.6-0.7,4.7-2.1,6.3c-1.4,1.6-3.4,2.4-6.2,2.4c-3.2,0-5.8-1-7.9-3.1c-1.7-1.7-2.7-4.3-2.9-7.7
		c-0.1-1.4-1.4-2.4-2.7-2.3l-13.6,0.2c-1.5,0-2.7,1.3-2.6,2.7c0.3,7.2,2.7,12.7,7,16.7c4.7,4.3,10.5,6.8,17.4,7.6v9.3
		c0,1.3,1,2.3,2.3,2.3h8.2c1.3,0,2.3-1,2.3-2.3v-9.6c5.6-1,10.1-3.2,13.7-6.7c4.2-4,6.3-9.3,6.3-15.9c0-6.9-2.1-12.2-6.2-16
		c-4.2-3.8-10.5-7.4-19.3-11.2c-3.8-1.7-6.4-3.3-7.7-4.9C200.8,381.1,200.2,379,200.2,376.4z"/>
</g>
</svg>
