<?xml version="1.0" encoding="utf-8"?>
<!-- Generator: Adobe Illustrator 18.1.1, SVG Export Plug-In . SVG Version: 6.00 Build 0)  -->
<svg version="1.1" xmlns="http://www.w3.org/2000/svg" xmlns:xlink="http://www.w3.org/1999/xlink" x="0px" y="0px"
	 viewBox="0 0 1531.9 558.5" enable-background="new 0 0 1531.9 558.5" xml:space="preserve">
<g id="Слой_1_xA0_Изображение_1_">
	<g>
		<g>
			<path fill="#FDD104" d="M9,63.1c2.2,1.6,4.7,2.8,7,4.2c6.2,3.7,12.5,7.2,18.8,10.9C41.6,82,48.4,86,55.1,89.9
				c6.9,4,13.8,8,20.7,12c8.9,5.2,17.8,10.4,26.7,15.5c7,4,14,8.1,21,12.2c6.6,3.9,13.3,7.6,20,11.5c5.8,3.3,11.5,6.7,17.3,10.1
				c5,2.9,10.1,5.8,15.1,8.7c4.1,2.4,8.3,4.8,12.4,7.2c3.4,2,6.9,4,10.4,6c2.5,1.5,5,3,7.5,4.4c2.9,1.7,5.9,3.3,8.8,5
				c2.5,1.4,4.9,2.9,7.4,4.4c1.8,1.1,3.6,2.1,5.4,3.2c0.1-0.1,0.2-0.1,0.3,0c0.1,0.5-0.2,0.9-0.4,1.3c-7.7,13.4-15.4,26.8-23.1,40.1
				c-10.1,17.5-20.2,35-30.3,52.5c-7.1,12.3-14.2,24.5-21.2,36.8c-6.6,11.5-13.2,22.9-19.8,34.4c-6.1,10.7-12.3,21.3-18.4,32
				c-3.4,5.9-6.8,11.8-10.2,17.7c-0.2,0.4-0.5,0.8-0.7,1.2c-0.2,0.3-0.6,0.5-0.9,0.7c-7.1,4-14.1,8.1-21.2,12.2
				c-11.1,6.4-22.3,12.8-33.4,19.2c-10.8,6.2-21.6,12.4-32.4,18.7c-2.2,1.3-4.4,2.6-6.6,3.7c-0.3,0.2-0.7,0.7-1.1,0
				c-0.1-0.4,0.1-0.9-0.1-1.3c0-0.2,0-0.3,0-0.5c0.2-0.5,0.2-1,0-1.5c0-0.7,0-1.4,0-2c0.2-0.5,0.2-1,0-1.5c0-0.2,0-0.3,0-0.5
				c0.2-0.5,0.2-1,0-1.5c0-0.2,0-0.3,0-0.5c0.2-0.5,0.2-1,0-1.5c0-0.2,0-0.3,0-0.5c0.2-0.5,0.2-1,0-1.5c0-0.1,0-0.2,0-0.3
				c0.2-0.4,0.2-0.8,0-1.3c0-0.2,0-0.3,0-0.5c0.2-0.5,0.2-1,0-1.5c0-0.2,0-0.3,0-0.5c0.2-0.5,0.2-1,0-1.5c0-0.2,0-0.3,0-0.5
				c0.2-0.5,0.2-1,0-1.5c0-0.1,0-0.2,0-0.3c0.2-0.4,0.2-0.8,0-1.3c0-0.2,0-0.3,0-0.5c0.2-0.5,0.2-1,0-1.5c0-0.2,0-0.3,0-0.5
				c0.2-0.5,0.2-1,0-1.5c0-0.2,0-0.3,0-0.5c0.2-0.5,0.2-1,0-1.5c0-0.1,0-0.2,0-0.3c0.2-0.6,0.2-1.2,0-1.8c0-0.1,0-0.2,0-0.3
				c0.2-0.4,0.2-0.8,0-1.3c0-0.2,0-0.3,0-0.5c0.2-0.5,0.2-1,0-1.5c0-0.1,0-0.2,0-0.3c0.2-0.6,0.2-1.2,0-1.8c0-0.1,0-0.2,0-0.3
				c0.2-0.6,0.2-1.2,0-1.8c0-0.1,0-0.2,0-0.3c0.2-0.4,0.2-0.8,0-1.3c0-0.1,0-0.2,0-0.3c0.2-0.6,0.2-1.2,0-1.8c0-0.1,0-0.2,0-0.3
				c0.2-0.6,0.2-1.2,0-1.8c0-0.1,0-0.2,0-0.3c0.2-0.6,0.2-1.2,0-1.8c0-0.1,0-0.2,0-0.3c0.2-0.4,0.2-0.8,0-1.3c0-0.1,0-0.2,0-0.3
				c0.2-0.6,0.2-1.2,0-1.8c0-0.1,0-0.2,0-0.3c0.2-0.6,0.2-1.2,0-1.8c0-0.1,0-0.2,0-0.3c0.2-0.6,0.2-1.2,0-1.8c0-0.1,0-0.2,0-0.3
				c0.2-0.6,0.2-1.2,0-1.8c0-0.1,0-0.2,0-0.3c0.2-0.4,0.2-0.8,0-1.3c0-0.1,0-0.2,0-0.3c0.2-0.6,0.2-1.2,0-1.8c0-0.1,0-0.2,0-0.3
				c0.2-0.6,0.2-1.2,0-1.8c0-0.1,0-0.2,0-0.3c0.2-0.6,0.2-1.2,0-1.8c0-0.1,0-0.2,0-0.3c0.2-1.1,0.2-2.2,0-3.3c0-0.1,0-0.2,0-0.3
				c0.2-0.6,0.2-1.2,0-1.8c0-0.1,0-0.2,0-0.3c0.2-0.6,0.2-1.2,0-1.8c0-0.1,0-0.2,0-0.3c0.2-0.6,0.2-1.2,0-1.8c0-0.1,0-0.2,0-0.3
				c0.3-0.5,0.1-1,0.1-1.5c-0.1-0.6,0.1-1.2-0.1-1.8c0-0.1,0-0.2,0-0.3c0.2-0.6,0.2-1.2,0-1.8c0-0.1,0-0.2,0-0.3
				c0.2-0.6,0.2-1.2,0-1.8c0-0.1,0-0.2,0-0.3c0.3-1.2,0.1-2.3,0.1-3.5c0-0.6,0-1.2,0-1.7c-0.1-0.7,0.1-1.4-0.1-2.1
				c0-0.1,0-0.2,0-0.3c0.3-1.8,0.1-3.7,0.1-5.5c0-0.6,0-1.2,0-1.9c0-0.9,0-1.7,0-2.6c0-1.7,0-3.3,0-5c0-0.9,0-1.8,0-2.6
				c0-2.3,0-4.7,0-7c0-0.9,0-1.8,0-2.7c0-2.5,0-5.1,0-7.6c0-8.2,0-16.3,0-24.5c0-12,0-24,0-36c0-6.8,0-13.6,0-20.3
				c0-6.1,0-12.2,0-18.3c0-8.6,0-17.1,0.1-25.7c0-11.2,0-22.4,0-33.6c0-13,0-26.1,0-39.1c0-19.8,0-39.6,0-59.4c0-5.4,0-10.8,0-16.2
				c0-0.6-0.2-1.3,0.5-1.7C8.9,63.1,9,63.1,9,63.1z"/>
			<path fill="#0C2231" d="M102.9,406.5c0.2-0.2,0.5-0.3,0.7-0.5c1.8-1.5,4-2.5,6-3.7c9.3-5.4,18.6-10.7,27.9-16.1
				c11.7-6.7,23.5-13.5,35.2-20.2c9.8-5.6,19.6-11.3,29.5-17c11.1-6.4,22.1-12.7,33.2-19.1c10.4-6,20.8-11.9,31.1-17.9
				c11.1-6.4,22.2-12.8,33.3-19.2c10.8-6.2,21.6-12.4,32.4-18.7c5.4-3.1,10.8-6.3,16.3-9.4c0.8-0.5,1.6-0.9,2.3-1.5
				c0.5-0.4,1-0.9,1.8-0.6c5.4,9.3,10.8,18.6,16.2,27.9c32.8,56.8,65.7,113.6,98.5,170.4c0.2,0.3,0.3,0.8,0.7,1c0,0.1,0,0.2,0,0.3
				c-0.7,0.4-1.4,0.2-2.1,0.2c-63.5,0-126.9-0.1-190.4,0c-67.8,0.2-135.6,0-203.4,0.1c-2,0-2.1-0.1-1.1-1.9
				c6.6-11.4,13.1-22.7,19.6-34.1c3.5-6,7-12,10.4-18C101.8,407.9,102.3,407.2,102.9,406.5z"/>
			<path fill="#FEFEFD" d="M8.8,63.1c-0.5,1.6-0.2,3.3-0.2,5c-0.1,14.1-0.1,28.1-0.1,42.2c0,11.1,0,22.2,0,33.4c0,8.4,0,16.8,0,25.2
				c0,5.8,0,11.6,0,17.3c0,5.7,0,11.5,0,17.2c0,5.3,0,10.6,0,15.8c0,5.9-0.1,11.8-0.1,17.7c0,4.9,0.1,9.9,0.1,14.8
				c0,5.3-0.1,10.7-0.1,16c0,4.8,0,9.6,0,14.4c0,5.9,0,11.9,0,17.8c0,4.4,0,8.8-0.1,13.3c-0.1,0.1-0.1,0.1-0.2,0
				c0-83,0-165.9,0-248.9C8,63.7,7.7,62.9,8.8,63.1z"/>
			<path fill="#FEFBEE" d="M8,313.1c0.1,0,0.1,0,0.2,0c0,8.3,0,16.6,0,24.9c-0.1,0.1-0.1,0.1-0.2,0C8,329.7,8,321.4,8,313.1z"/>
			<path fill="#FEF9E3" d="M8,338c0.1,0,0.1,0,0.2,0c0,2.5,0,5.1,0,7.6c-0.1,0.1-0.1,0.1-0.2,0C8,343.1,8,340.5,8,338z"/>
			<path fill="#FEF9E1" d="M8.2,348.2c0,2.4,0,4.7,0,7.1c-0.1,0.1-0.1,0.1-0.2,0c0-2.4,0-4.7,0-7.1C8.1,348,8.2,348,8.2,348.2z"/>
			<path fill="#FEF7D4" d="M8.2,367.2c0.1,1.9,0.3,3.7-0.2,5.6c0-1.9,0-3.7,0-5.6C8.1,367.2,8.1,367.2,8.2,367.2z"/>
			<path fill="#FEF7D9" d="M8.2,357.8c0,1.7,0,3.4,0,5.1c-0.1,0.1-0.2,0.1-0.2,0c0-1.7,0-3.4,0-5.1C8.1,357.7,8.1,357.7,8.2,357.8z"
				/>
			<path fill="#FEF5CC" d="M8.2,376.8c0,1.2,0.4,2.4-0.2,3.6c0-1.2,0-2.4,0-3.6C8.1,376.7,8.1,376.7,8.2,376.8z"/>
			<path fill="#FEF4C3" d="M8,394.3c0.4,1.1,0.4,2.2,0,3.3C8,396.5,8,395.4,8,394.3z"/>
			<path fill="#FEF6D1" d="M8.2,348.2L8.2,348.2l-0.2,0c0-0.8,0-1.7,0-2.5c0.1,0,0.2,0,0.2,0C8.2,346.5,8.4,347.3,8.2,348.2z"/>
			<path fill="#FEF7D5" d="M8.2,357.8L8.2,357.8l-0.2,0c0-0.8,0-1.7,0-2.5c0.1,0,0.2,0,0.2,0C8.2,356.1,8.4,356.9,8.2,357.8z"/>
			<path fill="#FEF4C4" d="M8,362.9c0.1,0,0.2,0,0.2,0c0,0.8,0,1.7,0,2.5c-0.1,0.1-0.1,0.1-0.2,0C8,364.6,8,363.7,8,362.9z"/>
			<path fill="#FEF5C9" d="M8,373c0.5,0.6,0.2,1.3,0.2,2c-0.1,0-0.1,0-0.2,0C8,374.4,8,373.7,8,373z"/>
			<path fill="#FEF8DD" d="M8,365.4c0.1,0,0.1,0,0.2,0c0.1,0.6,0.2,1.2,0,1.8l-0.1,0l-0.1,0C8,366.6,8,366,8,365.4z"/>
			<path fill="#FEF8D9" d="M8,375.1c0.1,0,0.1,0,0.2,0c0.1,0.6,0.2,1.2,0,1.8l-0.1,0l-0.1,0C8,376.2,8,375.6,8,375.1z"/>
			<path fill="#FEF5CD" d="M8,380.6c0.4,0.6,0.5,1.2,0,1.8C8,381.8,8,381.2,8,380.6z"/>
			<path fill="#FEF6D0" d="M8,382.7c0.4,0.6,0.5,1.2,0,1.8C8,383.9,8,383.3,8,382.7z"/>
			<path fill="#FEF7D4" d="M8,384.7c0.5,0.5,0.2,1.2,0.2,1.8c-0.1,0.1-0.1,0.1-0.2,0C8,385.9,8,385.3,8,384.7z"/>
			<path fill="#FEF4C4" d="M8,388.3c0.4,0.6,0.5,1.2,0,1.8C8,389.4,8,388.8,8,388.3z"/>
			<path fill="#FEF5C7" d="M8,390.3c0.4,0.6,0.5,1.2,0,1.8C8,391.5,8,390.9,8,390.3z"/>
			<path fill="#FEF5CB" d="M8,392.3c0.3,0.6,0.5,1.2,0,1.8C8,393.5,8,392.9,8,392.3z"/>
			<path fill="#FEF3BD" d="M8,397.9c0.3,0.6,0.5,1.2,0,1.8C8,399.1,8,398.5,8,397.9z"/>
			<path fill="#FEF3C2" d="M8,399.9c0.3,0.6,0.5,1.2,0,1.8C8,401.1,8,400.5,8,399.9z"/>
			<path fill="#FEF2B9" d="M8,402c0.4,0.6,0.5,1.2,0,1.8C8,403.1,8,402.6,8,402z"/>
			<path fill="#FEF0B0" d="M8,417.2c0.3,0.6,0.5,1.2,0,1.8C8,418.4,8,417.8,8,417.2z"/>
			<path fill="#FEF1B2" d="M8,405.5c0.3,0.6,0.5,1.2,0,1.8C8,406.7,8,406.1,8,405.5z"/>
			<path fill="#FEF1B6" d="M8,407.5c0.3,0.6,0.5,1.2,0,1.8C8,408.7,8,408.1,8,407.5z"/>
			<path fill="#FEF2BB" d="M8,409.6c0.3,0.6,0.5,1.2,0,1.8C8,410.8,8,410.2,8,409.6z"/>
			<path fill="#FEF1B4" d="M8,411.6c0.4,0.6,0.5,1.2,0,1.8C8,412.8,8,412.2,8,411.6z"/>
			<path fill="#FEEFAB" d="M8,415.2c0.3,0.6,0.5,1.2,0,1.8C8,416.3,8,415.8,8,415.2z"/>
			<path fill="#FEEFA7" d="M8,419.2c0.3,0.6,0.5,1.2,0,1.8C8,420.4,8,419.8,8,419.2z"/>
			<path fill="#FEED9F" d="M8,422.8c0.3,0.6,0.5,1.2,0,1.8C8,424,8,423.4,8,422.8z"/>
			<path fill="#FEEEA4" d="M8,424.8c0.3,0.6,0.5,1.2,0,1.8C8,426,8,425.4,8,424.8z"/>
			<path fill="#FEEB91" d="M8,430.4c0.3,0.6,0.5,1.2,0,1.8C8,431.6,8,431,8,430.4z"/>
			<path fill="#FEEC95" d="M8,426.8c0.4,0.5,0.4,1,0,1.5C8,427.9,8,427.3,8,426.8z"/>
			<path fill="#FEF2BB" d="M8,386.5c0.1,0,0.1,0,0.2,0c0,0.5,0.3,1.1-0.2,1.5C8,387.5,8,387,8,386.5z"/>
			<path fill="#FEE988" d="M8,434.5c0.4,0.5,0.4,1,0,1.5C8,435.5,8,435,8,434.5z"/>
			<path fill="#FEEA8B" d="M8,436.5c0.4,0.5,0.4,1,0,1.5C8,437.5,8,437,8,436.5z"/>
			<path fill="#FEE676" d="M8,440c0.4,0.5,0.4,1,0,1.5C8,441.1,8,440.5,8,440z"/>
			<path fill="#FEE779" d="M8,442.1c0.4,0.5,0.4,1,0,1.5C8,443.1,8,442.6,8,442.1z"/>
			<path fill="#FEE87F" d="M8,444.1c0.4,0.5,0.4,1,0,1.5C8,445.1,8,444.6,8,444.1z"/>
			<path fill="#FEE884" d="M8,432.4c0.4,0.5,0.4,1,0,1.5C8,433.4,8,432.9,8,432.4z"/>
			<path fill="#FEE469" d="M8,447.7c0.4,0.5,0.4,1,0,1.5C8,448.7,8,448.2,8,447.7z"/>
			<path fill="#FEE56D" d="M8,449.7c0.4,0.5,0.4,1,0,1.5C8,450.7,8,450.2,8,449.7z"/>
			<path fill="#FEE571" d="M8,451.7c0.4,0.5,0.4,1,0,1.5C8,452.7,8,452.2,8,451.7z"/>
			<path fill="#FEE675" d="M8,453.7c0.4,0.5,0.4,1,0,1.5C8,454.8,8,454.3,8,453.7z"/>
			<path fill="#FEE466" d="M8,457.3c0.4,0.5,0.4,1,0,1.5C8,458.3,8,457.8,8,457.3z"/>
			<path fill="#FEF2B9" d="M8,404c0.4,0.4,0.4,0.8,0,1.3C8,404.8,8,404.4,8,404z"/>
			<path fill="#FEF1B4" d="M8,413.6c0.4,0.4,0.4,0.8,0,1.3C8,414.5,8,414.1,8,413.6z"/>
			<path fill="#FEEC99" d="M8,428.9c0.3,0.4,0.4,0.8,0,1.3C8,429.7,8,429.3,8,428.9z"/>
			<path fill="#FEEFA7" d="M8,421.3c0.3,0.4,0.4,0.8,0,1.3C8,422.1,8,421.7,8,421.3z"/>
			<path fill="#FEEB91" d="M8,438.5c0.3,0.4,0.4,0.8,0,1.3C8,439.4,8,438.9,8,438.5z"/>
			<path fill="#FEE46B" d="M8.3,460.6l-0.1,0l-0.1,0c0-0.4,0-0.8,0-1.3C8.4,459.7,8.2,460.2,8.3,460.6z"/>
			<path fill="#FEE883" d="M8,446.1c0.3,0.4,0.4,0.8,0,1.3C8,447,8,446.6,8,446.1z"/>
			<path fill="#495761" d="M352.8,262.8c-1.8,0.5-3,1.9-4.6,2.8c-7.8,4.4-15.6,8.9-23.4,13.4c-8,4.6-16.1,9.3-24.1,13.9
				c-7.6,4.4-15.3,8.8-23,13.2c-7.6,4.4-15.3,8.8-22.9,13.2c-7.1,4.1-14.1,8.1-21.2,12.2c-7.1,4.1-14.1,8.1-21.2,12.2
				c-7,4-14.1,8.1-21.1,12.1c-7.1,4.1-14.2,8.2-21.3,12.2c-7,4-14.1,8.1-21.1,12.1c-7.1,4.1-14.1,8.1-21.2,12.2
				c-7.1,4.1-14.2,8.2-21.3,12.2c-0.9,0.5-1.8,1.2-2.8,1.5c3.8-6.6,7.6-13.3,11.4-19.9c29.3-50.8,58.6-101.6,87.9-152.4
				c8.2-14.2,16.4-28.4,24.6-42.6c0.2-0.3,0.4-0.7,0.5-1c0.5-0.5,0.9-0.1,1.2,0.1c4.9,2.9,9.9,5.7,14.8,8.6
				c4.9,2.9,9.9,5.7,14.8,8.6c6.8,3.9,13.6,7.9,20.4,11.8c7.5,4.3,15,8.7,22.5,13c4.6,2.6,9.1,5.3,13.7,8c4.9,2.9,9.9,5.7,14.8,8.6
				c6.9,4,13.8,7.9,20.6,12c0.3,0.1,0.5,0.3,0.8,0.3C352.1,261.6,352.9,262,352.8,262.8z"/>
			<path fill="#0C2231" d="M351.8,261c-0.3,0.5-0.7,0.1-1,0c-4.1-2.4-8.3-4.8-12.4-7.2c-4.7-2.7-9.3-5.5-14-8.2
				c-4.6-2.6-9.2-5.2-13.7-7.8c-3-1.7-5.9-3.5-8.8-5.3c-3.4-2-6.8-3.9-10.2-5.9c-3.6-2.1-7.2-4.2-10.9-6.3c-3.5-2-7.1-4-10.6-6
				c-4-2.3-7.9-4.6-11.9-6.9c-4.7-2.7-9.3-5.5-14.1-8.1c-2.8-1.6-5.6-3.3-8.4-4.9c-2.3-1.4-4.7-2.7-7-4.1c-0.3-0.1-0.5-0.3-0.8-0.2
				c-0.1,0-0.1,0-0.2-0.1c4.9-8.5,9.8-17,14.8-25.5c8.7-15,17.3-30.1,26-45.1c0.2-0.3,0.4-0.6,0.7-1.1c0.2,0.4,0.4,0.7,0.6,1
				c27.2,47,54.4,94.1,81.6,141.1C351.6,260.5,351.7,260.8,351.8,261z"/>
		</g>
	</g>
</g>
<g id="EЙДОС">
	<g>
		<path fill="#0C2231" d="M610.8,284.9v39.6h-73.6v101.9h58.4v-33.5h39.6V466H497.6V179.5h-23.1v-39.6c52.7,0,104.1,0,156.8,0v77.1
			h-39.6v-37.5h-54.4v105.4H610.8z M609.5,161.6v38.8h3.9v-42.7H491v3.9H609.5z M515.4,179.5v268.7h101.9v-38.8h-3.9v34.8h-94.1
			V306.6h74.9v-4.4h-74.9V179.5H515.4z"/>
		<path fill="#0C2231" d="M696.6,466V180.3h-23.1v-39.6h62.7v114.5l-4.4,109.3h1.3l30.5-107.1l37-116.7h53.6V466h-39.6V309.2
			l2.2-86.2h-1.3l-25.7,82.7l-51,160.3H696.6z M725.8,446l90.6-283.1h16.1v286.5h3.9V159h-23.1l-90.1,283.1h-4.8V158.6h-28.3v3.9
			h24.4V446H725.8z M714,92.8l27-30L756.7,78H785l16.1-15.2l27,30l-28.7,25.7h-57L714,92.8z M806.3,88.5l-3-3l-11.8,10.9h-41.4
			l-11.3-10.9l-3,3l13.1,11.8h44L806.3,88.5z"/>
		<path fill="#0C2231" d="M894.7,498.7v-67.5h31.4l36.1-252.6h-19.6v-38.8h138.5v291.3h27.9v67.5h-38.3V466H933v32.7H894.7z
			 M912.6,482.1h3.9v-31.4h171.1v31.4h3.9v-35.3h-28.3V157.3H959.2v3.9h100.2v285.7H945.2l39.2-268.3h-3.9l-39.2,268.3h-28.7V482.1z
			 M1041.5,178.6h-39.2l-36.1,252.6h75.3V178.6z"/>
		<path fill="#0C2231" d="M1311,415.1l-49.2,52.3h-62.7l-48.8-52.3V184.7l49.2-49.2h62.3l49.2,49.2V415.1z M1293.6,191.7l-39.2-39.2
			h-47.9l-38.8,39.2v216.9l38.8,41.8h47.9l39.2-41.8V191.7z M1289.7,407.2l-37,39.2h-44.4l-36.6-39.2V193l36.6-36.6h44.4l37,36.6
			V407.2z M1271.4,399.8v-199l-26.1-26.1h-29.6l-26.1,26.1v199l26.6,28.3h28.7L1271.4,399.8z"/>
		<path fill="#0C2231" d="M1489.1,202.1l-24.8-25.7H1436l-24.4,25.7v198.6l24.8,27.9h27.4l25.3-27.9v-36.1l39.6-0.4v51.4l-47.5,52.7
			H1419l-47-52.7V186.4l47.5-49.6h61.8l47.5,49.6v49.2h-39.6V202.1z M1510.9,219.1v-25.7l-37.5-38.8h-46.6l-37,38.8V409l37,41.4
			h46.6l37.5-41.4v-28.3h-3.9v26.6l-35.3,39.2h-43.1l-34.8-39.2V195.2l34.8-36.6h43.1l35.3,36.6v24H1510.9z"/>
	</g>
</g>
<g id="ЦЕНТР_ПОЛІТИЧНИХ_СТУДІЙ_ТА_АНАЛІТИКИ_1_">
</g>
</svg>
