<?xml version="1.0" encoding="UTF-8"?>
<!DOCTYPE svg PUBLIC "-//W3C//DTD SVG 1.1//EN" "http://www.w3.org/Graphics/SVG/1.1/DTD/svg11.dtd">
<!-- Creator: CorelDRAW X7 -->
<svg xmlns="http://www.w3.org/2000/svg" xml:space="preserve" width="72.992mm" height="31.5627mm" version="1.1" style="shape-rendering:geometricPrecision; text-rendering:geometricPrecision; image-rendering:optimizeQuality; fill-rule:evenodd; clip-rule:evenodd"
viewBox="0 0 4328 1872"
 xmlns:xlink="http://www.w3.org/1999/xlink">
 <defs>
  <style type="text/css">
   <![CDATA[
    .fil4 {fill:#0C2231;fill-rule:nonzero}
    .fil3 {fill:#0C8385;fill-rule:nonzero}
    .fil0 {fill:#C6E6DD;fill-rule:nonzero}
    .fil2 {fill:#E25B24;fill-rule:nonzero}
    .fil1 {fill:#F6913F;fill-rule:nonzero}
   ]]>
  </style>
 </defs>
 <g id="__x0023_Layer_x0020_1">
  <metadata id="CorelCorpID_0Corel-Layer"/>
  <polygon class="fil0" points="4328,1092 1797,1092 1797,758 4328,758 "/>
  <g id="_778891580064">
   <polygon class="fil1" points="4328,778 3450,778 3450,507 4328,507 "/>
  </g>
  <polygon class="fil2" points="4328,527 3847,527 3847,256 4328,256 "/>
  <g id="_778891582784">
   <g>
    <g>
     <g>
      <path class="fil0" d="M934 934l-408 -840c464,-225 1023,-32 1248,432 136,278 130,575 -16,848l-824 -440z"/>
     </g>
    </g>
    <g>
     <g>
      <path class="fil3" d="M934 934l-673 649c-358,-372 -346,-963 25,-1321 74,-72 147,-123 240,-168l408 840z"/>
     </g>
    </g>
    <g>
     <g>
      <path class="fil2" d="M934 934l409 840c-372,181 -795,106 -1082,-191l673 -649z"/>
     </g>
    </g>
    <g>
     <g>
      <g>
       <path class="fil1" d="M934 934l824 440c-97,182 -230,310 -415,400l-409 -840z"/>
      </g>
     </g>
    </g>
   </g>
  </g>
  <path class="fil4" d="M1664 924c0,408 -331,738 -738,738 -408,0 -738,-330 -738,-738 0,-407 330,-737 738,-737 407,0 738,330 738,737z"/>
  <g id="_778891584032">
   <g>
    <g>
     <g>
      <path class="fil0" d="M909 943l-436 279c-155,-241 -85,-561 156,-715 145,-93 308,-109 468,-47l-188 483z"/>
     </g>
    </g>
    <g>
     <g>
      <path class="fil3" d="M909 943l400 328c-181,221 -507,253 -729,72 -44,-36 -76,-73 -107,-121l436 -279z"/>
     </g>
    </g>
    <g>
     <g>
      <path class="fil2" d="M909 943l436 -280c123,193 109,431 -36,608l-400 -328z"/>
     </g>
    </g>
    <g>
     <g>
      <g>
       <path class="fil1" d="M989 830l188 -483c107,42 186,107 248,203l-436 280z"/>
      </g>
     </g>
    </g>
   </g>
  </g>
 </g>
</svg>
