<?xml version="1.0" encoding="UTF-8" standalone="no"?>
<!-- Created with Inkscape (http://www.inkscape.org/) -->
<svg
   xmlns:svg="http://www.w3.org/2000/svg"
   xmlns="http://www.w3.org/2000/svg"
   xmlns:xlink="http://www.w3.org/1999/xlink"
   version="1.0"
   x="0.00000000"
   y="0.00000000"
   width="256.00000"
   height="256.00000"
   id="svg2">
  <defs
     id="defs4">
    <linearGradient
       id="linearGradient7152">
      <stop
         style="stop-color:#ffffff;stop-opacity:1.0000000"
         offset="0.00000000"
         id="stop7154" />
      <stop
         style="stop-color:#415f6a;stop-opacity:1.0000000"
         offset="1.0000000"
         id="stop7156" />
    </linearGradient>
    <linearGradient
       id="linearGradient5673">
      <stop
         style="stop-color:#ffffff;stop-opacity:1.0000000"
         offset="0.00000000"
         id="stop5675" />
      <stop
         style="stop-color:#ffffff;stop-opacity:0.00000000"
         offset="1.0000000"
         id="stop5677" />
    </linearGradient>
    <linearGradient
       id="linearGradient3366">
      <stop
         style="stop-color:#ffffff;stop-opacity:1.0000000"
         offset="0.00000000"
         id="stop3368" />
      <stop
         style="stop-color:#415f6a;stop-opacity:1.0000000"
         offset="0.50000000"
         id="stop3370" />
      <stop
         style="stop-color:#f8f9fa;stop-opacity:1.0000000"
         offset="1.0000000"
         id="stop3372" />
    </linearGradient>
    <linearGradient
       id="linearGradient2509">
      <stop
         style="stop-color:#efff32;stop-opacity:1.0000000"
         offset="0.00000000"
         id="stop2511" />
      <stop
         style="stop-color:#f2fd1f;stop-opacity:1.0000000"
         offset="0.50000000"
         id="stop2513" />
      <stop
         style="stop-color:#ffffff;stop-opacity:0.00000000"
         offset="1.0000000"
         id="stop2515" />
    </linearGradient>
    <linearGradient
       id="linearGradient2261">
      <stop
         style="stop-color:#ffffff;stop-opacity:1.0000000"
         offset="0.00000000"
         id="stop2263" />
      <stop
         style="stop-color:#637881;stop-opacity:1.0000000"
         offset="0.50000000"
         id="stop2269" />
      <stop
         style="stop-color:#f8f9fa;stop-opacity:1.0000000"
         offset="1.0000000"
         id="stop2265" />
    </linearGradient>
    <linearGradient
       id="linearGradient2875">
      <stop
         style="stop-color:#2a2bff;stop-opacity:1.0000000"
         offset="0.00000000"
         id="stop2877" />
      <stop
         style="stop-color:#34b4fe;stop-opacity:1.0000000"
         offset="0.50000000"
         id="stop2883" />
      <stop
         style="stop-color:#9bd1ff;stop-opacity:0.00000000"
         offset="1.0000000"
         id="stop2879" />
    </linearGradient>
    <radialGradient
       cx="-207.74710"
       cy="129.52809"
       r="124.72465"
       fx="-207.74710"
       fy="129.52809"
       id="radialGradient2339"
       xlink:href="#linearGradient2875"
       gradientUnits="userSpaceOnUse"
       gradientTransform="matrix(1.386531,1.404821,-0.949930,0.937563,510.3429,272.6971)" />
    <linearGradient
       x1="-458.05655"
       y1="-67.559464"
       x2="-458.16568"
       y2="-94.568497"
       id="linearGradient7311"
       xlink:href="#linearGradient3366"
       gradientUnits="userSpaceOnUse"
       gradientTransform="matrix(0.961305,4.935046e-16,-4.450651e-16,1.000000,-609.9989,-189.1118)" />
    <linearGradient
       x1="-468.33179"
       y1="55.578087"
       x2="-441.54193"
       y2="55.623409"
       id="linearGradient7313"
       xlink:href="#linearGradient3366"
       gradientUnits="userSpaceOnUse"
       gradientTransform="matrix(1.016419,4.678279e-16,-4.011549e-16,1.000000,-584.3081,-278.2044)" />
    <linearGradient
       x1="-376.33224"
       y1="109.89045"
       x2="-302.27750"
       y2="109.26937"
       id="linearGradient7322"
       xlink:href="#linearGradient3366"
       gradientUnits="userSpaceOnUse"
       gradientTransform="matrix(0.866025,0.500000,-0.500000,0.866025,476.8932,212.7262)" />
    <linearGradient
       x1="-469.07468"
       y1="55.623409"
       x2="-441.54193"
       y2="55.623409"
       id="linearGradient7325"
       xlink:href="#linearGradient3366"
       gradientUnits="userSpaceOnUse"
       gradientTransform="matrix(0.880244,0.508209,-0.500000,0.866025,574.3420,281.2883)" />
    <linearGradient
       x1="-408.99689"
       y1="-65.901993"
       x2="-377.95041"
       y2="-11.557317"
       id="linearGradient7328"
       xlink:href="#linearGradient5673"
       gradientUnits="userSpaceOnUse"
       gradientTransform="translate(572.0090,183.6013)" />
    <linearGradient
       x1="-458.05655"
       y1="-67.559464"
       x2="-458.16568"
       y2="-94.568497"
       id="linearGradient7334"
       xlink:href="#linearGradient3366"
       gradientUnits="userSpaceOnUse"
       gradientTransform="matrix(0.832514,0.480653,-0.500000,0.866025,506.9548,346.3605)" />
    <linearGradient
       x1="-451.08289"
       y1="56.836803"
       x2="-474.38583"
       y2="56.865574"
       id="linearGradient7337"
       xlink:href="#linearGradient3366"
       gradientUnits="userSpaceOnUse"
       gradientTransform="matrix(-0.428761,7.670264e-18,-7.546362e-18,-0.421836,-67.87908,172.9032)" />
    <linearGradient
       x1="-450.77402"
       y1="56.989582"
       x2="-474.38583"
       y2="56.865574"
       id="linearGradient7340"
       xlink:href="#linearGradient3366"
       gradientUnits="userSpaceOnUse"
       gradientTransform="matrix(-0.214380,-0.371318,0.365321,-0.210918,-15.66538,-24.11134)" />
    <linearGradient
       x1="-450.84030"
       y1="57.303509"
       x2="-474.38583"
       y2="56.865574"
       id="linearGradient7343"
       xlink:href="#linearGradient3366"
       gradientUnits="userSpaceOnUse"
       gradientTransform="matrix(-0.371318,-0.214380,0.210918,-0.365321,-67.29768,66.05836)" />
    <radialGradient
       cx="-193.13680"
       cy="149.25632"
       r="124.72465"
       fx="-193.13680"
       fy="149.25632"
       id="radialGradient7347"
       xlink:href="#linearGradient2509"
       gradientUnits="userSpaceOnUse"
       gradientTransform="matrix(0.382780,1.149543e-3,-2.543925e-7,0.130985,200.5699,164.4717)" />
    <linearGradient
       x1="-465.82718"
       y1="-40.256111"
       x2="-388.90649"
       y2="-40.256126"
       id="linearGradient7350"
       xlink:href="#linearGradient2261"
       gradientUnits="userSpaceOnUse"
       gradientTransform="matrix(0.152156,-5.340998e-25,1.578547e-24,0.297086,260.5402,-116.3700)" />
    <linearGradient
       x1="207.69116"
       y1="-28.726967"
       x2="236.04987"
       y2="-268.76309"
       id="linGrad-con-struct"
       xlink:href="#linearGradient7152"
       gradientUnits="userSpaceOnUse"
       gradientTransform="translate(-1.481138,20.50328)" />
    <radialGradient
       cx="167.46094"
       cy="160.30592"
       r="28.820530"
       fx="167.46094"
       fy="160.30592"
       id="radialGradient7359"
       xlink:href="#linearGradient3366"
       gradientUnits="userSpaceOnUse"
       gradientTransform="matrix(1.743478,0.718972,-1.182138,2.866632,44.49684,-413.8215)" />
    <linearGradient
       x1="111.86401"
       y1="191.22302"
       x2="262.52182"
       y2="221.47902"
       id="linearGradient7362"
       xlink:href="#linearGradient7152"
       gradientUnits="userSpaceOnUse"
       gradientTransform="translate(-20.50328,-1.481138)" />
  </defs>
  <g
     style="display:inline"
     id="layer2" />
  <g
     style="display:inline"
     id="layer1">
    <use
       transform="translate(88.10874,-5.489641e-2)"
       id="use4562"
       x="0.00000000"
       y="0.00000000"
       width="256.00000"
       height="256.00000"
       xlink:href="#path2362" />
    <path
       d="M 75.886665,215.60190 L 102.41696,215.60190 C 102.41696,215.60190 101.62630,230.63219 88.902301,230.63219 C 75.858273,230.63219 75.886665,215.60190 75.886665,215.60190 z "
       style="fill:none;fill-opacity:1.0000000;fill-rule:evenodd;stroke:#ffffff;stroke-width:3.7500019;stroke-linecap:butt;stroke-linejoin:miter;stroke-miterlimit:4.0000000;stroke-dasharray:none;stroke-opacity:1.0000000"
       id="path2362" />
    <rect
       width="15.373749"
       height="124.20458"
       x="210.37961"
       y="-195.11627"
       transform="matrix(-3.777753e-17,1.000000,-1.000000,-6.208183e-18,0.000000,0.000000)"
       style="opacity:1.0000000;fill:#ffffff;fill-opacity:1.0000000;fill-rule:evenodd;stroke:#feffff;stroke-width:3.9999988;stroke-linecap:butt;stroke-linejoin:round;stroke-miterlimit:4.0000000;stroke-dasharray:none;stroke-dashoffset:0.00000000;stroke-opacity:1.0000000"
       id="rect3103" />
    <path
       d="M 75.520437,214.80736 C 72.451349,214.78403 69.843141,211.02045 71.787481,209.86668 C 79.357987,205.37433 92.263906,197.39100 92.263906,197.39100 L 178.60966,197.50079 C 178.60966,197.50079 185.31269,202.15868 194.00078,209.17338 C 196.60828,211.27866 194.53848,214.91529 192.15443,214.91715 C 160.40236,214.94208 96.524482,214.96702 75.520437,214.80736 z "
       style="fill:none;fill-opacity:1.0000000;fill-rule:evenodd;stroke:#ffffff;stroke-width:4.0000000;stroke-linecap:butt;stroke-linejoin:round;marker-end:none;stroke-miterlimit:4.0000000;stroke-dasharray:none;stroke-opacity:1.0000000"
       id="path2369" />
    <path
       d="M 109.80944,121.72283 L 137.29054,137.40568 L 178.34529,66.296793 C 178.34529,66.296793 174.48467,58.744369 167.54639,54.738554 C 160.60824,50.732807 150.84737,50.237477 150.84737,50.237477 L 109.80944,121.72283 z "
       style="fill:none;fill-opacity:1.0000000;fill-rule:evenodd;stroke:#ffffff;stroke-width:4.0326996;stroke-linecap:butt;stroke-linejoin:miter;stroke-miterlimit:4.0000000;stroke-dasharray:none;stroke-opacity:1.0000000"
       id="path2349" />
    <path
       d="M 135.55806,111.95962 L 149.90338,89.097805 C 149.90338,89.097805 173.02957,100.74112 185.44399,118.49060 C 197.86141,136.24437 201.18624,151.18043 197.48794,173.51283 C 193.78964,195.84523 179.48243,209.95896 179.48243,209.95896 L 145.41066,209.90406 C 145.41066,209.90406 161.63740,193.83684 166.97287,181.75079 C 173.33590,167.33703 176.34259,149.08352 164.05480,133.36583 C 150.67541,116.25183 135.55806,111.95962 135.55806,111.95962 z "
       style="fill:none;fill-opacity:1.0000000;fill-rule:evenodd;stroke:#ffffff;stroke-width:3.9999993;stroke-linecap:butt;stroke-linejoin:miter;stroke-miterlimit:4.0000000;stroke-dasharray:none;stroke-opacity:1.0000000"
       id="path1630" />
    <path
       d="M 97.857353,110.35902 L 89.416743,124.90560 C 89.416743,124.90560 101.65971,133.75180 114.74942,141.30915 C 127.83914,148.86653 141.77560,155.13504 141.77560,155.13504 L 150.25342,140.46171 C 150.25342,140.46171 138.00530,131.81206 124.90627,124.28639 C 111.80727,116.76071 97.857353,110.35902 97.857353,110.35902 z "
       style="fill:#ffffff;fill-opacity:1.0000000;fill-rule:evenodd;stroke:#ffffff;stroke-width:3.7499959;stroke-linecap:butt;stroke-linejoin:round;stroke-miterlimit:4.0000000;stroke-dasharray:none;stroke-opacity:1.0000000"
       id="path3104" />
    <path
       d="M 75.221454,211.46187 L 191.38172,211.46187 L 177.02986,200.95973 L 93.609740,200.95973 L 75.221454,211.46187"
       style="fill:url(#linearGradient7362);fill-opacity:1.0000000;fill-rule:evenodd;stroke:#415f6a;stroke-width:3.8110685;stroke-linecap:butt;stroke-linejoin:round;stroke-miterlimit:4.0000000;stroke-dasharray:none;stroke-opacity:1.0000000"
       id="path2475" />
    <path
       d="M 141.43946,110.49049 L 151.40394,93.750146 C 151.40394,93.750146 170.06020,102.35033 183.29031,121.65072 C 191.76012,134.00668 197.63922,148.86003 194.45053,171.07457 C 191.46118,191.90035 178.17333,206.14223 178.17333,206.14223 L 154.43754,206.14223 C 154.43754,206.14223 167.99100,190.65938 172.44747,179.01291 C 177.76222,165.12339 178.80629,147.95696 168.54286,132.81094 C 157.36767,116.31938 141.43946,110.49049 141.43946,110.49049 z "
       style="fill:url(#radialGradient7359);fill-opacity:1.0000000;fill-rule:evenodd;stroke:#415f6a;stroke-width:4.0000000;stroke-linecap:butt;stroke-linejoin:miter;stroke-miterlimit:4.0000000;stroke-dasharray:none;stroke-opacity:1.0000000"
       id="path2436" />
    <path
       d="M 148.64034,63.024392 L 169.06656,74.736043 L 187.29654,43.160820 C 187.29654,43.160820 183.73187,38.738907 178.56875,35.757983 C 173.40573,32.777108 166.81015,31.251563 166.81015,31.251563 L 148.64034,63.024392 z "
       style="fill:none;fill-opacity:1.0000000;fill-rule:evenodd;stroke:#ffffff;stroke-width:4.0326972;stroke-linecap:butt;stroke-linejoin:miter;stroke-miterlimit:4.0000000;stroke-dasharray:none;stroke-opacity:1.0000000"
       id="path2351" />
    <path
       d="M 140.69289,150.03305 L 145.80585,141.24147 C 145.80585,141.24147 134.87438,133.49585 123.33779,126.83520 C 111.80121,120.17454 99.659510,114.59885 99.659510,114.59885 L 94.531510,123.47139 C 94.531510,123.47139 106.89463,129.15251 118.43499,135.79293 C 129.97533,142.43334 140.69289,150.03305 140.69289,150.03305 z "
       style="fill:#88a6b3;fill-opacity:1.0000000;fill-rule:evenodd;stroke:#415f6a;stroke-width:3.7499986;stroke-linecap:butt;stroke-linejoin:round;stroke-miterlimit:4.0000000;stroke-dasharray:none;stroke-opacity:1.0000000"
       id="path4935" />
    <path
       d="M 80.122710,219.24024 L 97.879450,219.24024 C 97.879450,219.24024 96.561030,227.15194 88.834080,227.16418 C 81.049530,227.17641 80.122710,219.24024 80.122710,219.24024 z "
       style="fill:#8aa7b4;fill-opacity:1.0000000;fill-rule:evenodd;stroke:#415f6a;stroke-width:3.7500000;stroke-linecap:butt;stroke-linejoin:miter;stroke-miterlimit:4.0000000;stroke-dasharray:none;stroke-opacity:1.0000000"
       id="path2491" />
    <use
       transform="translate(88.19365,-7.763087e-2)"
       id="use2308"
       x="0.00000000"
       y="0.00000000"
       width="256.00000"
       height="256.00000"
       xlink:href="#path2491" />
    <rect
       width="10.206108"
       height="116.45421"
       x="211.64706"
       y="-191.39502"
       transform="matrix(-5.335442e-17,1.000000,-1.000000,-4.395690e-18,0.000000,0.000000)"
       style="opacity:1.0000000;fill:url(#linGrad-con-struct);fill-opacity:1.0000000;fill-rule:evenodd;stroke:#415f6a;stroke-width:4.0000000;stroke-linecap:butt;stroke-linejoin:round;stroke-miterlimit:4.0000000;stroke-dasharray:none;stroke-dashoffset:0.00000000;stroke-opacity:1.0000000"
       id="rect2450" />
    <path
       d="M 136.59438,138.78395 L 120.71718,138.84079 L 120.71718,168.22011 C 120.71718,168.22011 124.91173,170.25127 128.93192,170.25127 C 132.95205,170.25127 136.69615,168.27693 136.69615,168.27693 L 136.59438,138.78395 z "
       style="fill:none;fill-opacity:1.0000000;fill-rule:evenodd;stroke:#ffffff;stroke-width:2.8793972;stroke-linecap:butt;stroke-linejoin:miter;stroke-miterlimit:4.0000000;stroke-dasharray:none;stroke-opacity:1.0000000"
       id="path2368" />
    <path
       d="M 116.21846,136.11338 L 108.23064,122.39174 L 82.787399,137.08140 C 82.787399,137.08140 83.125638,141.72957 85.135733,145.21116 C 87.145798,148.69269 90.727676,150.94801 90.727676,150.94801 L 116.21846,136.11338 z "
       style="fill:none;fill-opacity:1.0000000;fill-rule:evenodd;stroke:#ffffff;stroke-width:2.8793972;stroke-linecap:butt;stroke-linejoin:miter;stroke-miterlimit:4.0000000;stroke-dasharray:none;stroke-opacity:1.0000000"
       id="path2370" />
    <path
       d="M 127.74311,131.94537 L 118.71622,126.80934 L 101.78485,156.13535 C 101.78485,156.13535 103.41601,158.43845 105.69337,159.75329 C 107.97069,161.06810 110.80388,161.41811 110.80388,161.41811 L 127.74311,131.94537 z "
       style="fill:url(#linearGradient7343);fill-opacity:1.0000000;fill-rule:evenodd;stroke:#415f6a;stroke-width:2.8793979;stroke-linecap:butt;stroke-linejoin:miter;stroke-miterlimit:4.0000000;stroke-dasharray:none;stroke-opacity:1.0000000"
       id="path4158" />
    <path
       d="M 126.96095,138.72114 L 113.18247,130.83176 L 98.492821,156.27500 C 98.492821,156.27500 101.10983,160.13131 104.59141,162.14141 C 108.07294,164.15147 112.30259,164.31369 112.30259,164.31369 L 126.96095,138.72114 z "
       style="fill:none;fill-opacity:1.0000000;fill-rule:evenodd;stroke:#ffffff;stroke-width:2.8793972;stroke-linecap:butt;stroke-linejoin:miter;stroke-miterlimit:4.0000000;stroke-dasharray:none;stroke-opacity:1.0000000"
       id="path2372" />
    <path
       d="M 120.30140,130.46873 L 115.05190,121.50735 L 85.725900,138.43873 C 85.725900,138.43873 85.986970,141.24886 87.301800,143.52622 C 88.616620,145.80354 90.895230,147.52325 90.895230,147.52325 L 120.30140,130.46873 z "
       style="fill:url(#linearGradient7340);fill-opacity:1.0000000;fill-rule:evenodd;stroke:#415f6a;stroke-width:2.8793979;stroke-linecap:butt;stroke-linejoin:miter;stroke-miterlimit:4.0000000;stroke-dasharray:none;stroke-opacity:1.0000000"
       id="path4162" />
    <path
       d="M 133.97444,132.44247 L 123.58891,132.50798 L 123.58891,166.37073 C 123.58891,166.37073 126.15309,167.54970 128.78276,167.54970 C 131.41239,167.54970 134.04101,166.43622 134.04101,166.43622 L 133.97444,132.44247 z "
       style="fill:url(#linearGradient7337);fill-opacity:1.0000000;fill-rule:evenodd;stroke:#415f6a;stroke-width:2.8793979;stroke-linecap:butt;stroke-linejoin:miter;stroke-miterlimit:4.0000000;stroke-dasharray:none;stroke-opacity:1.0000000"
       id="path4166" />
    <path
       d="M 148.86045,62.237422 L 168.72380,75.226882 L 174.12975,66.613412 C 174.12975,66.613412 169.81281,60.659442 164.84969,57.540422 C 159.88656,54.421412 152.94562,54.020352 152.94562,54.020352 L 148.86045,62.237422 z "
       style="fill:url(#linearGradient7334);fill-opacity:1.0000000;fill-rule:evenodd;stroke:#415f6a;stroke-width:3.9218454;stroke-linecap:butt;stroke-linejoin:miter;stroke-miterlimit:4.0000000;stroke-dasharray:none;stroke-opacity:1.0000000"
       id="path3392" />
    <g
       transform="matrix(0.562130,0.324546,-0.324546,0.562130,680.1435,529.3957)"
       id="g3400">
      <path
         d="M -1062.1794,-256.12230 L -1038.4825,-254.80478 L -1038.3249,-264.52313 C -1038.3249,-264.52313 -1043.8254,-266.01870 -1049.6831,-266.23829 C -1055.5408,-266.45787 -1062.7513,-264.86662 -1062.7513,-264.86662 L -1062.1794,-256.12230 z "
         style="fill:url(#linearGradient7311);fill-opacity:1.0000000;fill-rule:evenodd;stroke:#415f6a;stroke-width:5.7773023;stroke-linecap:butt;stroke-linejoin:miter;stroke-miterlimit:4.0000000;stroke-dasharray:none;stroke-opacity:1.0000000"
         id="path3402" />
      <path
         d="M -1062.8179,-182.28824 L -1038.1980,-182.44351 L -1038.1980,-262.71837 C -1038.1980,-262.71837 -1044.9584,-261.24252 -1051.1923,-261.24252 C -1057.4261,-261.24252 -1062.9757,-262.87364 -1062.9757,-262.87364 L -1062.8179,-182.28824 z "
         style="fill:url(#linearGradient7313);fill-opacity:1.0000000;fill-rule:evenodd;stroke:#415f6a;stroke-width:5.7773023;stroke-linecap:butt;stroke-linejoin:miter;stroke-miterlimit:4.0000000;stroke-dasharray:none;stroke-opacity:1.0000000"
         id="path3404" />
    </g>
    <path
       d="M 152.03777,104.28460 C 164.62304,112.81076 172.31142,120.06114 179.97842,133.30757 C 187.70111,146.65022 188.43247,160.42640 185.24848,174.58968"
       style="fill:none;fill-opacity:0.75000000;fill-rule:evenodd;stroke:url(#linearGradient7328);stroke-width:6.0000000;stroke-linecap:round;stroke-linejoin:miter;stroke-miterlimit:4.0000000;stroke-dasharray:none;stroke-opacity:0.54065043"
       id="path4945" />
    <path
       d="M 111.98247,125.09914 L 133.38155,137.27462 L 173.51898,67.754582 C 173.51898,67.754582 168.12026,66.550652 162.72155,63.433702 C 157.32292,60.316802 152.13851,55.231272 152.13851,55.231272 L 111.98247,125.09914 z "
       style="fill:url(#linearGradient7325);fill-opacity:1.0000000;fill-rule:evenodd;stroke:#415f6a;stroke-width:4.0327029;stroke-linecap:butt;stroke-linejoin:miter;stroke-miterlimit:4.0000000;stroke-dasharray:none;stroke-opacity:1.0000000"
       id="path3394" />
    <path
       d="M 99.029840,115.54041 L 93.916880,124.33200 C 93.916880,124.33200 104.84835,132.07761 116.38493,138.73826 C 127.92152,145.39892 140.06322,150.97461 140.06322,150.97461 L 145.19122,142.10207 C 145.19122,142.10207 132.82809,136.42095 121.28774,129.78053 C 109.74740,123.14012 99.029840,115.54041 99.029840,115.54041 z "
       style="fill:url(#linearGradient7322);fill-opacity:1.0000000;fill-rule:evenodd;stroke:#415f6a;stroke-width:3.7499986;stroke-linecap:butt;stroke-linejoin:round;stroke-miterlimit:4.0000000;stroke-dasharray:none;stroke-opacity:1.0000000"
       id="path4937" />
  </g>
  <g
     id="layer3">
    <rect
       width="10.206108"
       height="53.509232"
       x="188.90823"
       y="-155.08418"
       transform="matrix(-2.451568e-17,1.000000,-1.000000,-9.566511e-18,0.000000,0.000000)"
       style="opacity:1.0000000;fill:url(#linearGradient7350);fill-opacity:1.0000000;fill-rule:evenodd;stroke:#415f6a;stroke-width:3.7500000;stroke-linecap:butt;stroke-linejoin:round;stroke-miterlimit:4.0000000;stroke-dasharray:none;stroke-dashoffset:0.00000000;stroke-opacity:1.0000000;display:inline"
       id="rect2454" />
    <rect
       width="95.487419"
       height="32.674126"
       x="78.897484"
       y="167.46286"
       style="opacity:1.0000000;fill:url(#radialGradient7347);fill-opacity:1.0000000;fill-rule:evenodd;stroke:none;stroke-width:3.7500000;stroke-linecap:butt;stroke-linejoin:miter;stroke-miterlimit:4.0000000;stroke-dasharray:none;stroke-dashoffset:0.00000000;stroke-opacity:1.0000000;display:inline"
       id="rect2505" />
    <path
       d="M 101.61068,188.70744 L 154.98530,188.70744 L 148.39076,181.10133 L 110.05995,181.10133 L 101.61068,188.70744"
       style="fill:#ffff0c;fill-opacity:1.0000000;fill-rule:evenodd;stroke:#415f6a;stroke-width:3.6568425;stroke-linecap:butt;stroke-linejoin:round;stroke-miterlimit:4.0000000;stroke-dasharray:none;stroke-opacity:1.0000000;display:inline"
       id="path2495" />
  </g>
</svg>
