<svg width="100" height="100" xmlns="http://www.w3.org/2000/svg">
  <circle fill="#B2B2B2" cx="50" cy="50" r="50" id="svg_39"/>
  <path fill-rule="evenodd" clip-rule="evenodd" d="m91.20871,57.39858c1.5561,-1.59641 1.7,-4.56251 1.4446,-8.5244c-1.8344,-0.1195 -4.53441,0.1784 -5.48781,0c-2.32059,-4.5355 -5.6516,-8.0802 -10.3994,-10.2285c0.1614,-2.9612 0.5682,-5.6904 2.3107,-7.1015c-4.2366,-0.2856 -7.821,2.5316 -10.1067,5.1144c-8.5554,-8.7441 -33.98071,-10.2992 -46.217,2.2727c-2.1097,-0.1563 -1.8689,-4.3698 0.866,-3.6935c-4.4599,-2.9879 -6.9174,5.2019 -2.5985,6.2493c-3.5989,5.0506 -3.9387,15.90419 0.8661,19.8857c0.7025,5.9834 1.7769,11.5982 4.7357,15.3625h9.7094c-0.25591,-1.93841 -0.5113,-4.011 -0.2904,-6.26891c5.8971,1.3133 12.899,1.699 19.93039,1.1353c1.0823,1.7747 2.1347,3.5716 3.425,5.1361h9.6104c-0.3499,-2.4997 -0.73209,-5.1238 -0.03951,-7.6923c2.29602,-0.4369 14.20212,-3.408 22.24102,-11.6469l0,0l0,0l0,0l0,0l0,0zm-13.2613,-12.6819c1.31529,0 2.3876,1.0522 2.3876,2.3484s-1.0723,2.3508 -2.3876,2.3508c-1.3177,0 -2.39011,-1.0548 -2.39011,-2.3508s1.0724,-2.3484 2.39011,-2.3484zm-19.86801,-9.1079c-6.6096,-2.2411 -13.8718,-2.219 -20.449,0.0684l-0.7496,-1.5207c7.0539,-2.4535 14.8423,-2.4801 21.9332,-0.0733l-0.7346,1.5256z" fill="#010002" id="svg_6"/>
</svg>