<?xml version="1.0" standalone="no"?>
<!DOCTYPE svg PUBLIC "-//W3C//DTD SVG 1.1//EN" "http://www.w3.org/Graphics/SVG/1.1/DTD/svg11.dtd">
<svg version="1.1" id="Ebene_1" xmlns="http://www.w3.org/2000/svg" xmlns:xlink="http://www.w3.org/1999/xlink" x="0px" y="0px"
	 width="100px" height="100px" viewBox="0 0 100 100" enable-background="new 0 0 100 100" xml:space="preserve">
<g transform="translate(0.000000,100.000000) scale(0.100000,-0.100000)" fill="#000000" stroke="none">
<path d="M358 990 c-46 -14 -83 -41 -108 -78 -21 -29 -25 -48 -25 -103 0 -60
3 -71 31 -106 104 -130 297 -81 330 84 13 64 -34 156 -95 187 -36 19 -100 26
-133 16z m58 -42 c49 -39 68 -62 56 -66 -7 -2 -21 3 -31 12 -26 24 -31 20 -31
-21 0 -33 5 -40 33 -53 25 -12 33 -22 35 -48 4 -38 -20 -72 -49 -72 -10 0 -19
-9 -22 -22 l-4 -23 -8 23 c-4 12 -13 22 -19 22 -19 0 -43 23 -51 48 -8 28 21
31 30 3 3 -11 12 -22 20 -25 12 -4 15 4 15 37 0 36 -4 44 -30 59 -21 12 -30
25 -30 43 0 34 17 65 36 65 8 0 17 7 20 15 7 18 11 18 30 3z"/>
<path d="M272 574 c-60 -16 -92 -31 -141 -68 -19 -14 -39 -26 -43 -26 -13 0
-9 38 5 44 6 3 1 4 -13 3 -21 -2 -26 -8 -28 -36 -2 -19 1 -37 7 -40 7 -5 5
-22 -5 -51 -20 -57 -13 -147 14 -192 11 -18 22 -53 26 -78 4 -24 15 -63 26
-87 l19 -43 60 0 61 0 0 39 0 38 43 -8 c23 -4 79 -8 124 -9 79 0 82 -1 103
-30 20 -28 26 -30 81 -30 l59 0 0 49 c0 48 1 49 34 55 52 10 168 71 215 114
34 30 42 45 48 85 l6 47 -41 0 c-31 0 -42 4 -47 19 -3 11 -31 43 -62 71 l-57
52 11 40 c11 40 11 40 -16 33 -14 -4 -41 -18 -58 -31 l-32 -25 -41 26 c-83 53
-243 70 -358 39z"/>
</g>
</svg>

