<?xml version="1.0" standalone="no"?>
<!DOCTYPE svg PUBLIC "-//W3C//DTD SVG 20010904//EN"
 "http://www.w3.org/TR/2001/REC-SVG-20010904/DTD/svg10.dtd">
<svg version="1.0" xmlns="http://www.w3.org/2000/svg"
 width="100.000000pt" height="100.000000pt" viewBox="0 0 100.000000 100.000000"
 preserveAspectRatio="xMidYMid meet">
<metadata>
Created by potrace 1.11, written by Peter Selinger 2001-2013
</metadata>
<g transform="translate(0.000000,100.000000) scale(0.100000,-0.100000)"
fill="#000000" stroke="none">
<path d="M356 990 c-89 -28 -141 -104 -134 -196 11 -136 162 -209 279 -135 56
35 83 87 82 157 0 70 -35 129 -93 159 -35 18 -100 25 -134 15z m60 -42 c45
-36 64 -59 58 -69 -4 -7 -14 -3 -28 10 -31 29 -36 27 -36 -16 0 -33 5 -40 33
-53 25 -12 33 -22 35 -48 4 -38 -20 -72 -50 -72 -12 0 -18 -7 -18 -21 0 -11
-5 -17 -10 -14 -6 4 -8 10 -5 15 3 5 -10 16 -30 24 -19 8 -35 19 -35 25 0 5
-3 16 -6 25 -4 11 -1 16 10 16 9 0 16 -4 16 -9 0 -11 28 -41 39 -41 4 0 6 18
6 40 -1 35 -6 44 -33 60 -23 14 -32 27 -32 46 0 33 17 64 36 64 8 0 17 7 20
15 7 18 11 18 30 3z"/>
<path d="M272 574 c-60 -16 -92 -31 -141 -68 -19 -14 -39 -26 -43 -26 -13 0
-9 38 5 44 6 3 1 4 -13 3 -21 -2 -26 -8 -28 -36 -2 -19 1 -37 7 -40 7 -5 5
-22 -5 -51 -20 -57 -13 -147 14 -192 11 -18 22 -53 26 -78 4 -24 15 -63 26
-87 l19 -43 60 0 61 0 0 39 0 38 43 -8 c23 -4 79 -8 124 -9 79 0 82 -1 103
-30 20 -28 26 -30 81 -30 l59 0 0 49 c0 48 1 49 34 55 52 10 168 71 215 114
34 30 42 45 48 85 l6 47 -39 0 c-34 1 -42 5 -62 38 -13 20 -41 50 -63 65 -41
29 -46 47 -29 92 10 26 9 27 -17 20 -16 -3 -43 -18 -60 -31 l-32 -25 -41 26
c-83 53 -243 70 -358 39z"/>
</g>
</svg>
